<svg width="443" height="68" viewBox="0 0 443 68" fill="none" xmlns="http://www.w3.org/2000/svg">
<g filter="url(#filter0_dd_307_37126)">
<rect x="11.5" y="0.827759" width="420" height="44" rx="3.82779" fill="#F3A615"/>
<path d="M207.778 28.3278V16.6914H212.04C212.866 16.6914 213.549 16.8278 214.091 17.1005C214.633 17.3694 215.038 17.735 215.307 18.1971C215.576 18.6554 215.71 19.1725 215.71 19.7482C215.71 20.2331 215.621 20.6422 215.443 20.9755C215.265 21.305 215.027 21.5702 214.727 21.7709C214.432 21.9679 214.106 22.1118 213.75 22.2028V22.3164C214.136 22.3353 214.513 22.4603 214.881 22.6914C215.252 22.9187 215.559 23.2425 215.801 23.663C216.044 24.0834 216.165 24.5948 216.165 25.1971C216.165 25.7918 216.025 26.3259 215.744 26.7993C215.468 27.269 215.04 27.6422 214.46 27.9187C213.881 28.1914 213.14 28.3278 212.239 28.3278H207.778ZM209.534 26.8221H212.068C212.909 26.8221 213.511 26.6592 213.875 26.3334C214.239 26.0077 214.42 25.6005 214.42 25.1118C214.42 24.7444 214.328 24.4073 214.142 24.1005C213.956 23.7937 213.691 23.5493 213.347 23.3675C213.006 23.1857 212.6 23.0948 212.131 23.0948H209.534V26.8221ZM209.534 21.7255H211.886C212.28 21.7255 212.634 21.6497 212.949 21.4982C213.267 21.3467 213.519 21.1346 213.705 20.8618C213.894 20.5853 213.989 20.2596 213.989 19.8846C213.989 19.4035 213.82 19.0001 213.483 18.6743C213.146 18.3486 212.629 18.1857 211.932 18.1857H209.534V21.7255ZM223.639 24.7084V19.6005H225.344V28.3278H223.673V26.8164H223.582C223.382 27.2823 223.06 27.6706 222.616 27.9812C222.177 28.288 221.63 28.4414 220.974 28.4414C220.414 28.4414 219.918 28.3183 219.486 28.0721C219.058 27.8221 218.721 27.4528 218.474 26.9641C218.232 26.4755 218.111 25.8713 218.111 25.1516V19.6005H219.81V24.9471C219.81 25.5418 219.974 26.0153 220.304 26.3675C220.634 26.7198 221.062 26.8959 221.588 26.8959C221.906 26.8959 222.223 26.8164 222.537 26.6573C222.855 26.4982 223.118 26.2577 223.327 25.9357C223.539 25.6137 223.643 25.2047 223.639 24.7084ZM228.7 31.6005C228.446 31.6005 228.215 31.5797 228.007 31.538C227.799 31.5001 227.643 31.4584 227.541 31.413L227.95 30.0209C228.261 30.1043 228.537 30.1403 228.78 30.1289C229.022 30.1175 229.236 30.0266 229.422 29.8562C229.611 29.6857 229.778 29.4073 229.922 29.0209L230.132 28.4414L226.939 19.6005H228.757L230.967 26.3732H231.058L233.268 19.6005H235.092L231.496 29.4925C231.329 29.9471 231.117 30.3315 230.859 30.6459C230.602 30.9641 230.295 31.2028 229.939 31.3618C229.583 31.5209 229.17 31.6005 228.7 31.6005Z" fill="white"/>
</g>
<defs>
<filter id="filter0_dd_307_37126" x="0.0166156" y="0.827758" width="442.967" height="66.9668" filterUnits="userSpaceOnUse" color-interpolation-filters="sRGB">
<feFlood flood-opacity="0" result="BackgroundImageFix"/>
<feColorMatrix in="SourceAlpha" type="matrix" values="0 0 0 0 0 0 0 0 0 0 0 0 0 0 0 0 0 0 127 0" result="hardAlpha"/>
<feMorphology radius="1.9139" operator="erode" in="SourceAlpha" result="effect1_dropShadow_307_37126"/>
<feOffset dy="3.82779"/>
<feGaussianBlur stdDeviation="2.87085"/>
<feColorMatrix type="matrix" values="0 0 0 0 0.0627451 0 0 0 0 0.0941176 0 0 0 0 0.156863 0 0 0 0.03 0"/>
<feBlend mode="normal" in2="BackgroundImageFix" result="effect1_dropShadow_307_37126"/>
<feColorMatrix in="SourceAlpha" type="matrix" values="0 0 0 0 0 0 0 0 0 0 0 0 0 0 0 0 0 0 127 0" result="hardAlpha"/>
<feMorphology radius="3.82779" operator="erode" in="SourceAlpha" result="effect2_dropShadow_307_37126"/>
<feOffset dy="11.4834"/>
<feGaussianBlur stdDeviation="7.65559"/>
<feColorMatrix type="matrix" values="0 0 0 0 0.0627451 0 0 0 0 0.0941176 0 0 0 0 0.156863 0 0 0 0.08 0"/>
<feBlend mode="normal" in2="effect1_dropShadow_307_37126" result="effect2_dropShadow_307_37126"/>
<feBlend mode="normal" in="SourceGraphic" in2="effect2_dropShadow_307_37126" result="shape"/>
</filter>
</defs>
</svg>
