<svg width="421" height="65" viewBox="0 0 421 65" fill="none" xmlns="http://www.w3.org/2000/svg">
<rect x="0.6" y="0.583398" width="419.8" height="63.8" rx="9.9" fill="white"/>
<g clip-path="url(#clip0_307_37248)">
<path d="M38.8955 44.3641V42.7756C38.8955 42.1666 38.5248 41.7695 37.8894 41.7695C37.5717 41.7695 37.2275 41.8754 36.9892 42.2196C36.8039 41.9284 36.5392 41.7695 36.1421 41.7695C35.8772 41.7695 35.6126 41.8489 35.4007 42.1401V41.8225H34.8447V44.3641H35.4007V42.9608C35.4007 42.5109 35.639 42.299 36.0098 42.299C36.3802 42.299 36.5657 42.5373 36.5657 42.9608V44.3641H37.1217V42.9608C37.1217 42.5109 37.3863 42.299 37.7305 42.299C38.1013 42.299 38.2865 42.5373 38.2865 42.9608V44.3641H38.8955ZM47.1292 41.8225H46.2292V41.0547H45.6732V41.8225H45.1702V42.3254H45.6731V43.4904C45.6731 44.0729 45.9114 44.417 46.5468 44.417C46.7852 44.417 47.0498 44.3377 47.2352 44.2318L47.0763 43.7551C46.9175 43.861 46.7322 43.8876 46.5998 43.8876C46.3351 43.8876 46.2292 43.7287 46.2292 43.4639V42.3254H47.1292V41.8225ZM51.8419 41.7694C51.5243 41.7694 51.3125 41.9284 51.1801 42.1401V41.8225H50.6241V44.3641H51.1801V42.9344C51.1801 42.5109 51.3653 42.2726 51.7095 42.2726C51.8154 42.2726 51.9478 42.2991 52.0537 42.3255L52.2125 41.7961C52.1066 41.7695 51.9478 41.7695 51.8419 41.7695V41.7694ZM44.7201 42.0343C44.4552 41.8489 44.0846 41.7695 43.6875 41.7695C43.0521 41.7695 42.6286 42.0872 42.6286 42.5902C42.6286 43.0139 42.9462 43.2521 43.5022 43.3316L43.7669 43.3581C44.0582 43.4109 44.217 43.4904 44.217 43.6228C44.217 43.8081 44.0053 43.9405 43.6345 43.9405C43.2639 43.9405 42.9726 43.8081 42.7873 43.6758L42.5226 44.0993C42.8138 44.3111 43.211 44.417 43.608 44.417C44.3493 44.417 44.773 44.0729 44.773 43.5963C44.773 43.1462 44.4288 42.9079 43.8992 42.8285L43.6345 42.802C43.3962 42.7755 43.211 42.7227 43.211 42.5638C43.211 42.3785 43.3962 42.2726 43.6875 42.2726C44.0053 42.2726 44.3229 42.4049 44.4818 42.4843L44.7201 42.0343ZM59.4933 41.7695C59.1756 41.7695 58.9638 41.9284 58.8314 42.1401V41.8225H58.2754V44.3641H58.8314V42.9344C58.8314 42.5109 59.0167 42.2726 59.3608 42.2726C59.4668 42.2726 59.5992 42.2991 59.7051 42.3255L59.864 41.7961C59.7581 41.7695 59.5992 41.7695 59.4933 41.7695ZM52.3979 43.0933C52.3979 43.861 52.9273 44.417 53.7482 44.417C54.1188 44.417 54.3835 44.3377 54.6482 44.1259L54.3835 43.6758C54.1717 43.8346 53.96 43.914 53.7216 43.914C53.2716 43.914 52.9539 43.5963 52.9539 43.0933C52.9539 42.6168 53.2716 42.299 53.7216 42.2726C53.96 42.2726 54.1717 42.3519 54.3835 42.5109L54.6482 42.0608C54.3835 41.8489 54.1188 41.7695 53.7482 41.7695C52.9273 41.7695 52.3979 42.3255 52.3979 43.0933ZM57.5341 43.0933V41.8225H56.9782V42.1401C56.7928 41.902 56.5281 41.7695 56.1839 41.7695C55.4691 41.7695 54.9131 42.3255 54.9131 43.0933C54.9131 43.861 55.4691 44.417 56.1839 44.417C56.5545 44.417 56.8193 44.2847 56.9782 44.0464V44.3641H57.5341V43.0933ZM55.4955 43.0933C55.4955 42.6432 55.7867 42.2726 56.2632 42.2726C56.7133 42.2726 57.0311 42.6168 57.0311 43.0933C57.0311 43.5434 56.7133 43.914 56.2632 43.914C55.7867 43.8874 55.4955 43.5434 55.4955 43.0933ZM48.8502 41.7695C48.1089 41.7695 47.5793 42.299 47.5793 43.0933C47.5793 43.8876 48.1088 44.417 48.8767 44.417C49.2473 44.417 49.618 44.3111 49.9093 44.0729L49.6444 43.6758C49.4326 43.8346 49.1679 43.9405 48.9032 43.9405C48.559 43.9405 48.2148 43.7817 48.1353 43.3315H50.0151V43.1198C50.0417 42.299 49.5652 41.7695 48.8502 41.7695ZM48.8502 42.246C49.1943 42.246 49.4328 42.4579 49.4856 42.8551H48.1618C48.2148 42.5109 48.4531 42.246 48.8502 42.246ZM62.6439 43.0933V40.8164H62.0879V42.1401C61.9025 41.902 61.6378 41.7695 61.2936 41.7695C60.5788 41.7695 60.0228 42.3255 60.0228 43.0933C60.0228 43.861 60.5788 44.417 61.2936 44.417C61.6643 44.417 61.929 44.2847 62.0879 44.0464V44.3641H62.6439V43.0933ZM60.6053 43.0933C60.6053 42.6432 60.8964 42.2726 61.3731 42.2726C61.8232 42.2726 62.1408 42.6168 62.1408 43.0933C62.1408 43.5434 61.8232 43.914 61.3731 43.914C60.8964 43.8874 60.6053 43.5434 60.6053 43.0933ZM42.0195 43.0933V41.8225H41.4635V42.1401C41.2782 41.902 41.0135 41.7695 40.6693 41.7695C39.9544 41.7695 39.3985 42.3255 39.3985 43.0933C39.3985 43.861 39.9544 44.417 40.6693 44.417C41.04 44.417 41.3047 44.2847 41.4635 44.0464V44.3641H42.0195V43.0933ZM39.9544 43.0933C39.9544 42.6432 40.2457 42.2726 40.7222 42.2726C41.1723 42.2726 41.4901 42.6168 41.4901 43.0933C41.4901 43.5434 41.1723 43.914 40.7222 43.914C40.2457 43.8874 39.9544 43.5434 39.9544 43.0933Z" fill="black"/>
<path d="M44.5347 22.522H52.8744V37.507H44.5347V22.522Z" fill="#FF5F00"/>
<path d="M45.0643 30.0145C45.0643 26.9699 46.4939 24.2694 48.6913 22.522C47.0764 21.2512 45.0379 20.4834 42.814 20.4834C37.5452 20.4834 33.2827 24.7459 33.2827 30.0145C33.2827 35.2831 37.5452 39.5457 42.8138 39.5457C45.0378 39.5457 47.0763 38.7779 48.6913 37.507C46.4939 35.7861 45.0643 33.0592 45.0643 30.0145Z" fill="#EB001B"/>
<path d="M64.1264 30.0145C64.1264 35.2831 59.8639 39.5457 54.5952 39.5457C52.3713 39.5457 50.3328 38.7779 48.7178 37.507C50.9417 35.7597 52.3449 33.0592 52.3449 30.0145C52.3449 26.9699 50.9152 24.2694 48.7178 22.522C50.3326 21.2512 52.3713 20.4834 54.5952 20.4834C59.8639 20.4834 64.1264 24.7724 64.1264 30.0145Z" fill="#F79E1B"/>
</g>
<path opacity="0.6" d="M70.4354 26.347H72.5661L76.2706 35.3925H76.407L80.1115 26.347H82.2422V37.9834H80.5718V29.5629H80.4638L77.032 37.9664H75.6456L72.2138 29.5573H72.1058V37.9834H70.4354V26.347ZM87.1982 38.1766C86.6451 38.1766 86.1451 38.0743 85.6982 37.8698C85.2512 37.6614 84.897 37.3603 84.6357 36.9664C84.3781 36.5724 84.2493 36.0895 84.2493 35.5175C84.2493 35.0251 84.344 34.6198 84.5334 34.3016C84.7228 33.9834 84.9785 33.7315 85.3004 33.5459C85.6224 33.3603 85.9823 33.2201 86.38 33.1254C86.7777 33.0307 87.183 32.9588 87.5959 32.9095C88.1186 32.8489 88.5429 32.7997 88.8686 32.7618C89.1944 32.7201 89.4311 32.6539 89.5789 32.5629C89.7266 32.472 89.8004 32.3243 89.8004 32.1198V32.08C89.8004 31.5838 89.6603 31.1993 89.38 30.9266C89.1035 30.6539 88.6906 30.5175 88.1414 30.5175C87.5694 30.5175 87.1186 30.6444 86.7891 30.8982C86.4633 31.1482 86.2379 31.4266 86.1129 31.7334L84.5164 31.3698C84.7058 30.8395 84.9823 30.4114 85.3459 30.0857C85.7133 29.7561 86.1357 29.5175 86.6129 29.3698C87.0902 29.2182 87.5921 29.1425 88.1186 29.1425C88.4671 29.1425 88.8364 29.1842 89.2266 29.2675C89.6205 29.347 89.9879 29.4948 90.3289 29.7107C90.6736 29.9266 90.9558 30.2353 91.1754 30.6368C91.3951 31.0345 91.505 31.5516 91.505 32.1879V37.9834H89.8459V36.7902H89.7777C89.6679 37.0099 89.5031 37.2258 89.2834 37.4379C89.0637 37.6501 88.7815 37.8262 88.4368 37.9664C88.0921 38.1065 87.6792 38.1766 87.1982 38.1766ZM87.5675 36.8129C88.0372 36.8129 88.4387 36.7201 88.772 36.5345C89.1092 36.3489 89.3648 36.1065 89.5391 35.8073C89.7171 35.5042 89.8061 35.1804 89.8061 34.8357V33.7107C89.7455 33.7713 89.6281 33.8281 89.4539 33.8811C89.2834 33.9304 89.0883 33.9739 88.8686 34.0118C88.6489 34.0459 88.4349 34.0781 88.2266 34.1084C88.0183 34.1349 87.844 34.1576 87.7039 34.1766C87.3743 34.2182 87.0732 34.2883 86.8004 34.3868C86.5315 34.4853 86.3156 34.6273 86.1527 34.8129C85.9936 34.9948 85.9141 35.2372 85.9141 35.5402C85.9141 35.9607 86.0694 36.2789 86.38 36.4948C86.6906 36.7069 87.0864 36.8129 87.5675 36.8129ZM100.308 31.3868L98.7678 31.6595C98.7034 31.4626 98.6011 31.2751 98.461 31.097C98.3246 30.919 98.139 30.7732 97.9041 30.6595C97.6693 30.5459 97.3757 30.4891 97.0235 30.4891C96.5424 30.4891 96.1409 30.597 95.8189 30.8129C95.4969 31.0251 95.336 31.2997 95.336 31.6368C95.336 31.9285 95.4439 32.1633 95.6598 32.3414C95.8757 32.5194 96.2242 32.6652 96.7053 32.7789L98.0916 33.097C98.8947 33.2826 99.4932 33.5686 99.8871 33.955C100.281 34.3414 100.478 34.8432 100.478 35.4607C100.478 35.9834 100.326 36.4493 100.023 36.8584C99.7242 37.2637 99.3057 37.5819 98.7678 37.8129C98.2337 38.044 97.6144 38.1595 96.9098 38.1595C95.9326 38.1595 95.1352 37.9512 94.5178 37.5345C93.9004 37.1141 93.5216 36.5175 93.3814 35.7448L95.0235 35.4948C95.1257 35.9228 95.336 36.2467 95.6541 36.4664C95.9723 36.6823 96.3871 36.7902 96.8985 36.7902C97.4553 36.7902 97.9004 36.6747 98.2337 36.4436C98.567 36.2088 98.7337 35.9228 98.7337 35.5857C98.7337 35.3129 98.6314 35.0838 98.4269 34.8982C98.2261 34.7126 97.9174 34.5724 97.5007 34.4777L96.0235 34.1539C95.2091 33.9682 94.6068 33.6728 94.2166 33.2675C93.8303 32.8622 93.6371 32.3489 93.6371 31.7277C93.6371 31.2126 93.781 30.7618 94.0689 30.3754C94.3568 29.9891 94.7545 29.6879 95.2621 29.472C95.7697 29.2523 96.3511 29.1425 97.0064 29.1425C97.9496 29.1425 98.692 29.347 99.2337 29.7561C99.7754 30.1614 100.133 30.705 100.308 31.3868ZM106.42 29.2561V30.6198H101.653V29.2561H106.42ZM102.931 27.1652H104.63V35.4209C104.63 35.7504 104.679 35.9985 104.778 36.1652C104.876 36.3281 105.003 36.4398 105.158 36.5004C105.317 36.5573 105.49 36.5857 105.675 36.5857C105.812 36.5857 105.931 36.5762 106.033 36.5573C106.136 36.5383 106.215 36.5232 106.272 36.5118L106.579 37.9152C106.48 37.9531 106.34 37.991 106.158 38.0289C105.977 38.0705 105.749 38.0932 105.477 38.097C105.03 38.1046 104.613 38.0251 104.227 37.8584C103.84 37.6917 103.528 37.4342 103.289 37.0857C103.05 36.7372 102.931 36.2997 102.931 35.7732V27.1652ZM111.967 38.1595C111.107 38.1595 110.366 37.9758 109.745 37.6084C109.128 37.2372 108.65 36.7164 108.313 36.0459C107.98 35.3717 107.813 34.5819 107.813 33.6766C107.813 32.7826 107.98 31.9948 108.313 31.3129C108.65 30.6311 109.12 30.0989 109.722 29.7164C110.328 29.3338 111.037 29.1425 111.847 29.1425C112.34 29.1425 112.817 29.2239 113.279 29.3868C113.741 29.5497 114.156 29.8054 114.523 30.1539C114.891 30.5023 115.181 30.955 115.393 31.5118C115.605 32.0648 115.711 32.7372 115.711 33.5289V34.1311H108.773V32.8584H114.046C114.046 32.4114 113.955 32.0156 113.773 31.6709C113.592 31.3224 113.336 31.0478 113.006 30.847C112.681 30.6463 112.298 30.5459 111.859 30.5459C111.381 30.5459 110.965 30.6633 110.609 30.8982C110.256 31.1292 109.984 31.4323 109.791 31.8073C109.601 32.1785 109.506 32.5819 109.506 33.0175V34.0118C109.506 34.5951 109.609 35.0914 109.813 35.5004C110.022 35.9095 110.311 36.222 110.683 36.4379C111.054 36.6501 111.487 36.7561 111.984 36.7561C112.306 36.7561 112.599 36.7107 112.864 36.6198C113.13 36.5251 113.359 36.3849 113.552 36.1993C113.745 36.0137 113.893 35.7845 113.995 35.5118L115.603 35.8016C115.474 36.2751 115.243 36.6898 114.91 37.0459C114.58 37.3982 114.166 37.6728 113.666 37.8698C113.169 38.0629 112.603 38.1595 111.967 38.1595ZM117.596 37.9834V29.2561H119.238V30.6425H119.329C119.488 30.1728 119.768 29.8035 120.17 29.5345C120.575 29.2618 121.033 29.1254 121.545 29.1254C121.651 29.1254 121.776 29.1292 121.92 29.1368C122.067 29.1444 122.183 29.1539 122.266 29.1652V30.7902C122.198 30.7713 122.077 30.7504 121.903 30.7277C121.728 30.7012 121.554 30.6879 121.38 30.6879C120.978 30.6879 120.621 30.7732 120.306 30.9436C119.996 31.1103 119.749 31.3432 119.567 31.6425C119.386 31.9379 119.295 32.2751 119.295 32.6539V37.9834H117.596ZM131.874 37.9834H128.107V26.347H131.994C133.134 26.347 134.113 26.58 134.931 27.0459C135.749 27.508 136.376 28.1728 136.812 29.0402C137.251 29.9039 137.471 30.9398 137.471 32.1482C137.471 33.3603 137.249 34.402 136.806 35.2732C136.367 36.1444 135.73 36.8148 134.897 37.2845C134.064 37.7504 133.056 37.9834 131.874 37.9834ZM129.863 36.4493H131.778C132.664 36.4493 133.401 36.2826 133.988 35.9493C134.575 35.6122 135.014 35.1254 135.306 34.4891C135.598 33.8489 135.744 33.0686 135.744 32.1482C135.744 31.2353 135.598 30.4607 135.306 29.8243C135.018 29.1879 134.588 28.705 134.016 28.3754C133.444 28.0459 132.734 27.8811 131.886 27.8811H129.863V36.4493ZM143.279 38.1595C142.419 38.1595 141.679 37.9758 141.058 37.6084C140.44 37.2372 139.963 36.7164 139.626 36.0459C139.292 35.3717 139.126 34.5819 139.126 33.6766C139.126 32.7826 139.292 31.9948 139.626 31.3129C139.963 30.6311 140.433 30.0989 141.035 29.7164C141.641 29.3338 142.349 29.1425 143.16 29.1425C143.652 29.1425 144.13 29.2239 144.592 29.3868C145.054 29.5497 145.469 29.8054 145.836 30.1539C146.203 30.5023 146.493 30.955 146.705 31.5118C146.917 32.0648 147.023 32.7372 147.023 33.5289V34.1311H140.086V32.8584H145.359C145.359 32.4114 145.268 32.0156 145.086 31.6709C144.904 31.3224 144.648 31.0478 144.319 30.847C143.993 30.6463 143.611 30.5459 143.171 30.5459C142.694 30.5459 142.277 30.6633 141.921 30.8982C141.569 31.1292 141.296 31.4323 141.103 31.8073C140.914 32.1785 140.819 32.5819 140.819 33.0175V34.0118C140.819 34.5951 140.921 35.0914 141.126 35.5004C141.334 35.9095 141.624 36.222 141.995 36.4379C142.366 36.6501 142.8 36.7561 143.296 36.7561C143.618 36.7561 143.912 36.7107 144.177 36.6198C144.442 36.5251 144.671 36.3849 144.864 36.1993C145.058 36.0137 145.205 35.7845 145.308 35.5118L146.916 35.8016C146.787 36.2751 146.556 36.6898 146.222 37.0459C145.893 37.3982 145.478 37.6728 144.978 37.8698C144.482 38.0629 143.916 38.1595 143.279 38.1595ZM149.045 37.9834V26.347H150.744V30.6709H150.846C150.944 30.4891 151.086 30.2789 151.272 30.0402C151.458 29.8016 151.715 29.5932 152.045 29.4152C152.374 29.2334 152.81 29.1425 153.352 29.1425C154.056 29.1425 154.685 29.3205 155.238 29.6766C155.791 30.0326 156.225 30.5459 156.539 31.2164C156.857 31.8868 157.016 32.6936 157.016 33.6368C157.016 34.58 156.859 35.3887 156.545 36.0629C156.23 36.7334 155.799 37.2504 155.249 37.6141C154.7 37.9739 154.073 38.1539 153.369 38.1539C152.838 38.1539 152.405 38.0648 152.067 37.8868C151.734 37.7088 151.473 37.5004 151.283 37.2618C151.094 37.0232 150.948 36.811 150.846 36.6254H150.704V37.9834H149.045ZM150.71 33.6198C150.71 34.2334 150.799 34.7713 150.977 35.2334C151.155 35.6955 151.412 36.0573 151.749 36.3186C152.086 36.5762 152.499 36.705 152.988 36.705C153.496 36.705 153.92 36.5705 154.261 36.3016C154.602 36.0289 154.859 35.6595 155.033 35.1936C155.211 34.7277 155.3 34.2031 155.3 33.6198C155.3 33.044 155.213 32.527 155.039 32.0686C154.869 31.6103 154.611 31.2485 154.266 30.9834C153.925 30.7182 153.499 30.5857 152.988 30.5857C152.496 30.5857 152.079 30.7126 151.738 30.9664C151.401 31.2201 151.145 31.5743 150.971 32.0289C150.797 32.4834 150.71 33.0137 150.71 33.6198ZM158.924 37.9834V29.2561H160.623V37.9834H158.924ZM159.782 27.9095C159.487 27.9095 159.233 27.811 159.021 27.6141C158.812 27.4133 158.708 27.1747 158.708 26.8982C158.708 26.6179 158.812 26.3792 159.021 26.1823C159.233 25.9815 159.487 25.8811 159.782 25.8811C160.077 25.8811 160.329 25.9815 160.538 26.1823C160.75 26.3792 160.856 26.6179 160.856 26.8982C160.856 27.1747 160.75 27.4133 160.538 27.6141C160.329 27.811 160.077 27.9095 159.782 27.9095ZM166.982 29.2561V30.6198H162.215V29.2561H166.982ZM163.494 27.1652H165.192V35.4209C165.192 35.7504 165.242 35.9985 165.34 36.1652C165.439 36.3281 165.566 36.4398 165.721 36.5004C165.88 36.5573 166.052 36.5857 166.238 36.5857C166.374 36.5857 166.494 36.5762 166.596 36.5573C166.698 36.5383 166.778 36.5232 166.835 36.5118L167.141 37.9152C167.043 37.9531 166.903 37.991 166.721 38.0289C166.539 38.0705 166.312 38.0932 166.039 38.097C165.592 38.1046 165.175 38.0251 164.789 37.8584C164.403 37.6917 164.09 37.4342 163.852 37.0857C163.613 36.7372 163.494 36.2997 163.494 35.7732V27.1652ZM173.293 25.8016L169.543 39.7334H168.026L171.776 25.8016H173.293ZM184.538 30.1311H182.765C182.697 29.7523 182.57 29.419 182.384 29.1311C182.199 28.8432 181.971 28.5989 181.702 28.3982C181.433 28.1974 181.132 28.0459 180.799 27.9436C180.469 27.8414 180.119 27.7902 179.748 27.7902C179.077 27.7902 178.477 27.9588 177.947 28.2959C177.42 28.633 177.004 29.1273 176.697 29.7789C176.394 30.4304 176.242 31.2258 176.242 32.1652C176.242 33.1122 176.394 33.9114 176.697 34.5629C177.004 35.2145 177.422 35.7069 177.952 36.0402C178.483 36.3735 179.079 36.5402 179.742 36.5402C180.11 36.5402 180.458 36.491 180.788 36.3925C181.121 36.2902 181.422 36.1406 181.691 35.9436C181.96 35.7467 182.187 35.5061 182.373 35.222C182.562 34.9342 182.693 34.6046 182.765 34.2334L184.538 34.2391C184.443 34.811 184.259 35.3376 183.987 35.8186C183.718 36.2959 183.371 36.7088 182.947 37.0573C182.526 37.402 182.045 37.669 181.504 37.8584C180.962 38.0478 180.371 38.1425 179.731 38.1425C178.723 38.1425 177.826 37.9039 177.038 37.4266C176.25 36.9455 175.629 36.258 175.174 35.3641C174.723 34.4701 174.498 33.4039 174.498 32.1652C174.498 30.9228 174.725 29.8565 175.18 28.9664C175.634 28.0724 176.255 27.3868 177.043 26.9095C177.831 26.4285 178.727 26.1879 179.731 26.1879C180.348 26.1879 180.924 26.277 181.458 26.455C181.996 26.6292 182.479 26.8868 182.907 27.2277C183.335 27.5648 183.689 27.9777 183.969 28.4664C184.25 28.9512 184.439 29.5061 184.538 30.1311ZM186.502 37.9834V29.2561H188.144V30.6425H188.235C188.394 30.1728 188.675 29.8035 189.076 29.5345C189.481 29.2618 189.94 29.1254 190.451 29.1254C190.557 29.1254 190.682 29.1292 190.826 29.1368C190.974 29.1444 191.089 29.1539 191.173 29.1652V30.7902C191.104 30.7713 190.983 30.7504 190.809 30.7277C190.635 30.7012 190.46 30.6879 190.286 30.6879C189.885 30.6879 189.527 30.7732 189.212 30.9436C188.902 31.1103 188.656 31.3432 188.474 31.6425C188.292 31.9379 188.201 32.2751 188.201 32.6539V37.9834H186.502ZM196.092 38.1595C195.232 38.1595 194.491 37.9758 193.87 37.6084C193.253 37.2372 192.775 36.7164 192.438 36.0459C192.105 35.3717 191.938 34.5819 191.938 33.6766C191.938 32.7826 192.105 31.9948 192.438 31.3129C192.775 30.6311 193.245 30.0989 193.847 29.7164C194.453 29.3338 195.162 29.1425 195.972 29.1425C196.465 29.1425 196.942 29.2239 197.404 29.3868C197.866 29.5497 198.281 29.8054 198.648 30.1539C199.016 30.5023 199.306 30.955 199.518 31.5118C199.73 32.0648 199.836 32.7372 199.836 33.5289V34.1311H192.898V32.8584H198.171C198.171 32.4114 198.08 32.0156 197.898 31.6709C197.717 31.3224 197.461 31.0478 197.131 30.847C196.806 30.6463 196.423 30.5459 195.984 30.5459C195.506 30.5459 195.09 30.6633 194.734 30.8982C194.381 31.1292 194.109 31.4323 193.916 31.8073C193.726 32.1785 193.631 32.5819 193.631 33.0175V34.0118C193.631 34.5951 193.734 35.0914 193.938 35.5004C194.147 35.9095 194.436 36.222 194.808 36.4379C195.179 36.6501 195.612 36.7561 196.109 36.7561C196.431 36.7561 196.724 36.7107 196.989 36.6198C197.255 36.5251 197.484 36.3849 197.677 36.1993C197.87 36.0137 198.018 35.7845 198.12 35.5118L199.728 35.8016C199.599 36.2751 199.368 36.6898 199.035 37.0459C198.705 37.3982 198.291 37.6728 197.791 37.8698C197.294 38.0629 196.728 38.1595 196.092 38.1595ZM204.988 38.1539C204.283 38.1539 203.655 37.9739 203.102 37.6141C202.552 37.2504 202.121 36.7334 201.806 36.0629C201.496 35.3887 201.34 34.58 201.34 33.6368C201.34 32.6936 201.497 31.8868 201.812 31.2164C202.13 30.5459 202.566 30.0326 203.119 29.6766C203.672 29.3205 204.299 29.1425 204.999 29.1425C205.541 29.1425 205.977 29.2334 206.306 29.4152C206.639 29.5932 206.897 29.8016 207.079 30.0402C207.264 30.2789 207.408 30.4891 207.511 30.6709H207.613V26.347H209.312V37.9834H207.653V36.6254H207.511C207.408 36.811 207.261 37.0232 207.067 37.2618C206.878 37.5004 206.617 37.7088 206.283 37.8868C205.95 38.0648 205.518 38.1539 204.988 38.1539ZM205.363 36.705C205.852 36.705 206.264 36.5762 206.602 36.3186C206.942 36.0573 207.2 35.6955 207.374 35.2334C207.552 34.7713 207.641 34.2334 207.641 33.6198C207.641 33.0137 207.554 32.4834 207.38 32.0289C207.206 31.5743 206.95 31.2201 206.613 30.9664C206.276 30.7126 205.859 30.5857 205.363 30.5857C204.852 30.5857 204.425 30.7182 204.085 30.9834C203.744 31.2485 203.486 31.6103 203.312 32.0686C203.141 32.527 203.056 33.044 203.056 33.6198C203.056 34.2031 203.143 34.7277 203.317 35.1936C203.492 35.6595 203.749 36.0289 204.09 36.3016C204.435 36.5705 204.859 36.705 205.363 36.705ZM211.737 37.9834V29.2561H213.435V37.9834H211.737ZM212.594 27.9095C212.299 27.9095 212.045 27.811 211.833 27.6141C211.625 27.4133 211.521 27.1747 211.521 26.8982C211.521 26.6179 211.625 26.3792 211.833 26.1823C212.045 25.9815 212.299 25.8811 212.594 25.8811C212.89 25.8811 213.142 25.9815 213.35 26.1823C213.562 26.3792 213.668 26.6179 213.668 26.8982C213.668 27.1747 213.562 27.4133 213.35 27.6141C213.142 27.811 212.89 27.9095 212.594 27.9095ZM219.795 29.2561V30.6198H215.028V29.2561H219.795ZM216.306 27.1652H218.005V35.4209C218.005 35.7504 218.054 35.9985 218.153 36.1652C218.251 36.3281 218.378 36.4398 218.533 36.5004C218.692 36.5573 218.865 36.5857 219.05 36.5857C219.187 36.5857 219.306 36.5762 219.408 36.5573C219.511 36.5383 219.59 36.5232 219.647 36.5118L219.954 37.9152C219.855 37.9531 219.715 37.991 219.533 38.0289C219.352 38.0705 219.124 38.0932 218.852 38.097C218.405 38.1046 217.988 38.0251 217.602 37.8584C217.215 37.6917 216.903 37.4342 216.664 37.0857C216.425 36.7372 216.306 36.2997 216.306 35.7732V27.1652ZM235.71 30.1311H233.937C233.869 29.7523 233.742 29.419 233.556 29.1311C233.371 28.8432 233.143 28.5989 232.874 28.3982C232.605 28.1974 232.304 28.0459 231.971 27.9436C231.641 27.8414 231.291 27.7902 230.92 27.7902C230.249 27.7902 229.649 27.9588 229.119 28.2959C228.592 28.633 228.175 29.1273 227.869 29.7789C227.566 30.4304 227.414 31.2258 227.414 32.1652C227.414 33.1122 227.566 33.9114 227.869 34.5629C228.175 35.2145 228.594 35.7069 229.124 36.0402C229.655 36.3735 230.251 36.5402 230.914 36.5402C231.282 36.5402 231.63 36.491 231.96 36.3925C232.293 36.2902 232.594 36.1406 232.863 35.9436C233.132 35.7467 233.359 35.5061 233.545 35.222C233.734 34.9342 233.865 34.6046 233.937 34.2334L235.71 34.2391C235.615 34.811 235.431 35.3376 235.158 35.8186C234.889 36.2959 234.543 36.7088 234.119 37.0573C233.698 37.402 233.217 37.669 232.675 37.8584C232.134 38.0478 231.543 38.1425 230.903 38.1425C229.895 38.1425 228.997 37.9039 228.21 37.4266C227.422 36.9455 226.8 36.258 226.346 35.3641C225.895 34.4701 225.67 33.4039 225.67 32.1652C225.67 30.9228 225.897 29.8565 226.352 28.9664C226.806 28.0724 227.427 27.3868 228.215 26.9095C229.003 26.4285 229.899 26.1879 230.903 26.1879C231.52 26.1879 232.096 26.277 232.63 26.455C233.168 26.6292 233.651 26.8868 234.079 27.2277C234.507 27.5648 234.861 27.9777 235.141 28.4664C235.422 28.9512 235.611 29.5061 235.71 30.1311ZM240.214 38.1766C239.661 38.1766 239.161 38.0743 238.714 37.8698C238.267 37.6614 237.913 37.3603 237.651 36.9664C237.394 36.5724 237.265 36.0895 237.265 35.5175C237.265 35.0251 237.36 34.6198 237.549 34.3016C237.738 33.9834 237.994 33.7315 238.316 33.5459C238.638 33.3603 238.998 33.2201 239.396 33.1254C239.793 33.0307 240.199 32.9588 240.612 32.9095C241.134 32.8489 241.558 32.7997 241.884 32.7618C242.21 32.7201 242.447 32.6539 242.594 32.5629C242.742 32.472 242.816 32.3243 242.816 32.1198V32.08C242.816 31.5838 242.676 31.1993 242.396 30.9266C242.119 30.6539 241.706 30.5175 241.157 30.5175C240.585 30.5175 240.134 30.6444 239.805 30.8982C239.479 31.1482 239.254 31.4266 239.129 31.7334L237.532 31.3698C237.721 30.8395 237.998 30.4114 238.362 30.0857C238.729 29.7561 239.151 29.5175 239.629 29.3698C240.106 29.2182 240.608 29.1425 241.134 29.1425C241.483 29.1425 241.852 29.1842 242.242 29.2675C242.636 29.347 243.004 29.4948 243.344 29.7107C243.689 29.9266 243.971 30.2353 244.191 30.6368C244.411 31.0345 244.521 31.5516 244.521 32.1879V37.9834H242.862V36.7902H242.793C242.683 37.0099 242.519 37.2258 242.299 37.4379C242.079 37.6501 241.797 37.8262 241.452 37.9664C241.108 38.1065 240.695 38.1766 240.214 38.1766ZM240.583 36.8129C241.053 36.8129 241.454 36.7201 241.788 36.5345C242.125 36.3489 242.38 36.1065 242.555 35.8073C242.733 35.5042 242.822 35.1804 242.822 34.8357V33.7107C242.761 33.7713 242.644 33.8281 242.469 33.8811C242.299 33.9304 242.104 33.9739 241.884 34.0118C241.665 34.0459 241.451 34.0781 241.242 34.1084C241.034 34.1349 240.86 34.1576 240.719 34.1766C240.39 34.2182 240.089 34.2883 239.816 34.3868C239.547 34.4853 239.331 34.6273 239.168 34.8129C239.009 34.9948 238.93 35.2372 238.93 35.5402C238.93 35.9607 239.085 36.2789 239.396 36.4948C239.706 36.7069 240.102 36.8129 240.583 36.8129ZM246.783 37.9834V29.2561H248.425V30.6425H248.516C248.675 30.1728 248.956 29.8035 249.357 29.5345C249.763 29.2618 250.221 29.1254 250.732 29.1254C250.838 29.1254 250.963 29.1292 251.107 29.1368C251.255 29.1444 251.371 29.1539 251.454 29.1652V30.7902C251.386 30.7713 251.264 30.7504 251.09 30.7277C250.916 30.7012 250.742 30.6879 250.567 30.6879C250.166 30.6879 249.808 30.7732 249.494 30.9436C249.183 31.1103 248.937 31.3432 248.755 31.6425C248.573 31.9379 248.482 32.2751 248.482 32.6539V37.9834H246.783ZM255.879 38.1539C255.174 38.1539 254.545 37.9739 253.992 37.6141C253.443 37.2504 253.011 36.7334 252.697 36.0629C252.386 35.3887 252.231 34.58 252.231 33.6368C252.231 32.6936 252.388 31.8868 252.702 31.2164C253.021 30.5459 253.456 30.0326 254.009 29.6766C254.562 29.3205 255.189 29.1425 255.89 29.1425C256.432 29.1425 256.867 29.2334 257.197 29.4152C257.53 29.5932 257.788 29.8016 257.969 30.0402C258.155 30.2789 258.299 30.4891 258.401 30.6709H258.504V26.347H260.202V37.9834H258.543V36.6254H258.401C258.299 36.811 258.151 37.0232 257.958 37.2618C257.769 37.5004 257.507 37.7088 257.174 37.8868C256.841 38.0648 256.409 38.1539 255.879 38.1539ZM256.254 36.705C256.742 36.705 257.155 36.5762 257.492 36.3186C257.833 36.0573 258.091 35.6955 258.265 35.2334C258.443 34.7713 258.532 34.2334 258.532 33.6198C258.532 33.0137 258.445 32.4834 258.271 32.0289C258.096 31.5743 257.841 31.2201 257.504 30.9664C257.166 30.7126 256.75 30.5857 256.254 30.5857C255.742 30.5857 255.316 30.7182 254.975 30.9834C254.634 31.2485 254.377 31.6103 254.202 32.0686C254.032 32.527 253.947 33.044 253.947 33.6198C253.947 34.2031 254.034 34.7277 254.208 35.1936C254.382 35.6595 254.64 36.0289 254.981 36.3016C255.326 36.5705 255.75 36.705 256.254 36.705Z" fill="black"/>
<path d="M387.717 30.1176L383.371 34.4642C382.857 34.9776 382.017 34.9776 381.504 34.4642L377.157 30.1176" stroke="#292D32" stroke-width="2" stroke-miterlimit="10" stroke-linecap="round" stroke-linejoin="round"/>
<rect x="0.6" y="0.583398" width="419.8" height="63.8" rx="9.9" stroke="#F3A615" stroke-width="0.2"/>
<defs>
<clipPath id="clip0_307_37248">
<rect width="30.8744" height="24" fill="white" transform="translate(33.2827 20.4834)"/>
</clipPath>
</defs>
</svg>
