<svg width="352" height="88" viewBox="0 0 352 88" fill="none" xmlns="http://www.w3.org/2000/svg">
<g filter="url(#filter0_dd_307_36681)">
<rect x="11.9238" y="0.429688" width="328" height="64" rx="3.82779" fill="#F3A615"/>
<path d="M151.867 30.0774H150.094C150.026 29.6986 149.899 29.3653 149.714 29.0774C149.528 28.7895 149.301 28.5452 149.032 28.3445C148.763 28.1437 148.462 27.9922 148.128 27.8899C147.799 27.7876 147.448 27.7365 147.077 27.7365C146.407 27.7365 145.806 27.9051 145.276 28.2422C144.75 28.5793 144.333 29.0736 144.026 29.7251C143.723 30.3767 143.572 31.1721 143.572 32.1115C143.572 33.0585 143.723 33.8577 144.026 34.5092C144.333 35.1607 144.751 35.6532 145.282 35.9865C145.812 36.3198 146.409 36.4865 147.072 36.4865C147.439 36.4865 147.787 36.4373 148.117 36.3388C148.45 36.2365 148.751 36.0869 149.02 35.8899C149.289 35.6929 149.517 35.4524 149.702 35.1683C149.892 34.8804 150.022 34.5509 150.094 34.1797L151.867 34.1854C151.772 34.7573 151.589 35.2839 151.316 35.7649C151.047 36.2422 150.7 36.6551 150.276 37.0036C149.856 37.3482 149.375 37.6153 148.833 37.8047C148.291 37.9941 147.7 38.0888 147.06 38.0888C146.053 38.0888 145.155 37.8501 144.367 37.3729C143.579 36.8918 142.958 36.2043 142.503 35.3104C142.053 34.4164 141.827 33.3501 141.827 32.1115C141.827 30.8691 142.055 29.8028 142.509 28.9126C142.964 28.0187 143.585 27.3331 144.373 26.8558C145.161 26.3748 146.056 26.1342 147.06 26.1342C147.678 26.1342 148.253 26.2232 148.787 26.4013C149.325 26.5755 149.808 26.8331 150.236 27.174C150.664 27.5111 151.019 27.924 151.299 28.4126C151.579 28.8975 151.769 29.4524 151.867 30.0774ZM157.508 38.1058C156.689 38.1058 155.975 37.9183 155.366 37.5433C154.756 37.1683 154.282 36.6437 153.945 35.9695C153.608 35.2952 153.439 34.5073 153.439 33.6058C153.439 32.7005 153.608 31.9089 153.945 31.2308C154.282 30.5528 154.756 30.0263 155.366 29.6513C155.975 29.2763 156.689 29.0888 157.508 29.0888C158.326 29.0888 159.04 29.2763 159.65 29.6513C160.26 30.0263 160.733 30.5528 161.07 31.2308C161.407 31.9089 161.576 32.7005 161.576 33.6058C161.576 34.5073 161.407 35.2952 161.07 35.9695C160.733 36.6437 160.26 37.1683 159.65 37.5433C159.04 37.9183 158.326 38.1058 157.508 38.1058ZM157.513 36.6797C158.044 36.6797 158.483 36.5395 158.831 36.2592C159.18 35.9789 159.438 35.6058 159.604 35.1399C159.775 34.674 159.86 34.1607 159.86 33.6001C159.86 33.0433 159.775 32.532 159.604 32.0661C159.438 31.5964 159.18 31.2195 158.831 30.9354C158.483 30.6513 158.044 30.5092 157.513 30.5092C156.979 30.5092 156.536 30.6513 156.184 30.9354C155.835 31.2195 155.576 31.5964 155.405 32.0661C155.239 32.532 155.155 33.0433 155.155 33.6001C155.155 34.1607 155.239 34.674 155.405 35.1399C155.576 35.6058 155.835 35.9789 156.184 36.2592C156.536 36.5395 156.979 36.6797 157.513 36.6797ZM165.171 32.7479V37.9297H163.472V29.2024H165.103V30.6229H165.211C165.412 30.1607 165.726 29.7895 166.154 29.5092C166.586 29.2289 167.129 29.0888 167.785 29.0888C168.379 29.0888 168.9 29.2138 169.347 29.4638C169.794 29.71 170.141 30.0774 170.387 30.5661C170.633 31.0547 170.756 31.6589 170.756 32.3786V37.9297H169.057V32.5831C169.057 31.9505 168.893 31.4562 168.563 31.1001C168.233 30.7403 167.781 30.5604 167.205 30.5604C166.811 30.5604 166.461 30.6456 166.154 30.8161C165.851 30.9865 165.61 31.2365 165.432 31.5661C165.258 31.8918 165.171 32.2857 165.171 32.7479ZM177.108 29.2024V30.5661H172.341V29.2024H177.108ZM173.62 27.1115H175.319V35.3672C175.319 35.6967 175.368 35.9448 175.466 36.1115C175.565 36.2744 175.692 36.3861 175.847 36.4467C176.006 36.5036 176.179 36.532 176.364 36.532C176.501 36.532 176.62 36.5225 176.722 36.5036C176.824 36.4846 176.904 36.4695 176.961 36.4581L177.268 37.8615C177.169 37.8994 177.029 37.9373 176.847 37.9751C176.665 38.0168 176.438 38.0395 176.165 38.0433C175.718 38.0509 175.302 37.9714 174.915 37.8047C174.529 37.638 174.216 37.3804 173.978 37.032C173.739 36.6835 173.62 36.246 173.62 35.7195V27.1115ZM178.988 37.9297V29.2024H180.687V37.9297H178.988ZM179.846 27.8558C179.55 27.8558 179.296 27.7573 179.084 27.5604C178.876 27.3596 178.772 27.121 178.772 26.8445C178.772 26.5642 178.876 26.3255 179.084 26.1286C179.296 25.9278 179.55 25.8274 179.846 25.8274C180.141 25.8274 180.393 25.9278 180.601 26.1286C180.814 26.3255 180.92 26.5642 180.92 26.8445C180.92 27.121 180.814 27.3596 180.601 27.5604C180.393 27.7573 180.141 27.8558 179.846 27.8558ZM184.671 32.7479V37.9297H182.972V29.2024H184.603V30.6229H184.711C184.912 30.1607 185.226 29.7895 185.654 29.5092C186.086 29.2289 186.629 29.0888 187.285 29.0888C187.879 29.0888 188.4 29.2138 188.847 29.4638C189.294 29.71 189.641 30.0774 189.887 30.5661C190.133 31.0547 190.256 31.6589 190.256 32.3786V37.9297H188.557V32.5831C188.557 31.9505 188.393 31.4562 188.063 31.1001C187.733 30.7403 187.281 30.5604 186.705 30.5604C186.311 30.5604 185.961 30.6456 185.654 30.8161C185.351 30.9865 185.11 31.2365 184.932 31.5661C184.758 31.8918 184.671 32.2857 184.671 32.7479ZM198.063 34.3104V29.2024H199.768V37.9297H198.097V36.4183H198.006C197.805 36.8842 197.483 37.2725 197.04 37.5831C196.601 37.8899 196.054 38.0433 195.398 38.0433C194.838 38.0433 194.341 37.9202 193.91 37.674C193.482 37.424 193.144 37.0547 192.898 36.5661C192.656 36.0774 192.535 35.4732 192.535 34.7536V29.2024H194.233V34.549C194.233 35.1437 194.398 35.6172 194.728 35.9695C195.057 36.3217 195.485 36.4979 196.012 36.4979C196.33 36.4979 196.646 36.4183 196.961 36.2592C197.279 36.1001 197.542 35.8596 197.751 35.5376C197.963 35.2157 198.067 34.8066 198.063 34.3104ZM205.812 38.1058C204.952 38.1058 204.211 37.9221 203.59 37.5547C202.973 37.1835 202.495 36.6626 202.158 35.9922C201.825 35.3179 201.658 34.5282 201.658 33.6229C201.658 32.7289 201.825 31.9411 202.158 31.2592C202.495 30.5774 202.965 30.0452 203.567 29.6626C204.173 29.2801 204.882 29.0888 205.692 29.0888C206.185 29.0888 206.662 29.1702 207.124 29.3331C207.586 29.496 208.001 29.7517 208.368 30.1001C208.736 30.4486 209.026 30.9013 209.238 31.4581C209.45 32.0111 209.556 32.6835 209.556 33.4751V34.0774H202.618V32.8047H207.891C207.891 32.3577 207.8 31.9619 207.618 31.6172C207.437 31.2687 207.181 30.9941 206.851 30.7933C206.526 30.5926 206.143 30.4922 205.704 30.4922C205.226 30.4922 204.81 30.6096 204.454 30.8445C204.101 31.0755 203.829 31.3786 203.635 31.7536C203.446 32.1248 203.351 32.5282 203.351 32.9638V33.9581C203.351 34.5414 203.454 35.0376 203.658 35.4467C203.867 35.8558 204.156 36.1683 204.528 36.3842C204.899 36.5964 205.332 36.7024 205.829 36.7024C206.151 36.7024 206.444 36.657 206.709 36.5661C206.974 36.4714 207.204 36.3312 207.397 36.1456C207.59 35.96 207.738 35.7308 207.84 35.4581L209.448 35.7479C209.319 36.2214 209.088 36.6361 208.755 36.9922C208.425 37.3445 208.01 37.6191 207.51 37.8161C207.014 38.0092 206.448 38.1058 205.812 38.1058Z" fill="white"/>
</g>
<defs>
<filter id="filter0_dd_307_36681" x="0.440444" y="0.429686" width="350.967" height="86.9668" filterUnits="userSpaceOnUse" color-interpolation-filters="sRGB">
<feFlood flood-opacity="0" result="BackgroundImageFix"/>
<feColorMatrix in="SourceAlpha" type="matrix" values="0 0 0 0 0 0 0 0 0 0 0 0 0 0 0 0 0 0 127 0" result="hardAlpha"/>
<feMorphology radius="1.9139" operator="erode" in="SourceAlpha" result="effect1_dropShadow_307_36681"/>
<feOffset dy="3.82779"/>
<feGaussianBlur stdDeviation="2.87085"/>
<feColorMatrix type="matrix" values="0 0 0 0 0.0627451 0 0 0 0 0.0941176 0 0 0 0 0.156863 0 0 0 0.03 0"/>
<feBlend mode="normal" in2="BackgroundImageFix" result="effect1_dropShadow_307_36681"/>
<feColorMatrix in="SourceAlpha" type="matrix" values="0 0 0 0 0 0 0 0 0 0 0 0 0 0 0 0 0 0 127 0" result="hardAlpha"/>
<feMorphology radius="3.82779" operator="erode" in="SourceAlpha" result="effect2_dropShadow_307_36681"/>
<feOffset dy="11.4834"/>
<feGaussianBlur stdDeviation="7.65559"/>
<feColorMatrix type="matrix" values="0 0 0 0 0.0627451 0 0 0 0 0.0941176 0 0 0 0 0.156863 0 0 0 0.08 0"/>
<feBlend mode="normal" in2="effect1_dropShadow_307_36681" result="effect2_dropShadow_307_36681"/>
<feBlend mode="normal" in="SourceGraphic" in2="effect2_dropShadow_307_36681" result="shape"/>
</filter>
</defs>
</svg>
