<svg width="421" height="299" viewBox="0 0 421 299" fill="none" xmlns="http://www.w3.org/2000/svg">
<rect x="1.04992" y="0.128049" width="419.744" height="298.732" rx="12.6768" fill="white"/>
<path opacity="0.8" d="M30.1562 32.0302C30.0956 31.4923 29.8456 31.0756 29.4062 30.7802C28.9669 30.481 28.4138 30.3313 27.7472 30.3313C27.2699 30.3313 26.857 30.4071 26.5085 30.5586C26.16 30.7063 25.8892 30.9109 25.696 31.1722C25.5066 31.4298 25.4119 31.7234 25.4119 32.0529C25.4119 32.3294 25.4763 32.5681 25.6051 32.7688C25.7377 32.9696 25.91 33.1382 26.1222 33.2745C26.3381 33.4071 26.5691 33.5188 26.8153 33.6097C27.0616 33.6969 27.2983 33.7688 27.5256 33.8257L28.6619 34.1211C29.0331 34.212 29.4138 34.3351 29.804 34.4904C30.1941 34.6457 30.5559 34.8503 30.8892 35.1041C31.2225 35.3578 31.4915 35.6722 31.696 36.0472C31.9044 36.4222 32.0085 36.8711 32.0085 37.3938C32.0085 38.0529 31.8381 38.6382 31.4972 39.1495C31.16 39.6609 30.6695 40.0643 30.0256 40.3597C29.3854 40.6552 28.6108 40.8029 27.7017 40.8029C26.8305 40.8029 26.0767 40.6647 25.4403 40.3882C24.804 40.1116 24.3059 39.7196 23.946 39.212C23.5862 38.7007 23.3873 38.0946 23.3494 37.3938H25.1108C25.1449 37.8143 25.2813 38.1647 25.5199 38.445C25.7623 38.7215 26.071 38.9279 26.446 39.0643C26.8248 39.1969 27.2396 39.2632 27.6903 39.2632C28.1866 39.2632 28.6278 39.1855 29.0142 39.0302C29.4044 38.8711 29.7112 38.6514 29.9347 38.3711C30.1581 38.087 30.2699 37.7556 30.2699 37.3768C30.2699 37.0321 30.1714 36.7499 29.9744 36.5302C29.7813 36.3105 29.518 36.1287 29.1847 35.9847C28.8551 35.8408 28.482 35.7139 28.0653 35.6041L26.6903 35.2291C25.7585 34.9753 25.0199 34.6022 24.4744 34.1097C23.9328 33.6173 23.6619 32.9658 23.6619 32.1552C23.6619 31.4847 23.8438 30.8995 24.2074 30.3995C24.571 29.8995 25.0634 29.5113 25.6847 29.2347C26.3059 28.9544 27.0066 28.8143 27.7869 28.8143C28.5748 28.8143 29.2699 28.9525 29.8722 29.2291C30.4782 29.5056 30.9555 29.8863 31.304 30.3711C31.6525 30.8522 31.8343 31.4052 31.8494 32.0302H30.1562ZM33.9702 43.8825V31.8825H35.6293V33.2972H35.7713C35.8698 33.1154 36.0118 32.9052 36.1974 32.6666C36.383 32.4279 36.6406 32.2196 36.9702 32.0416C37.2997 31.8597 37.7353 31.7688 38.277 31.7688C38.9815 31.7688 39.6103 31.9469 40.1634 32.3029C40.7164 32.659 41.1501 33.1722 41.4645 33.8427C41.7827 34.5132 41.9418 35.32 41.9418 36.2632C41.9418 37.2063 41.7846 38.015 41.4702 38.6893C41.1558 39.3597 40.724 39.8768 40.1747 40.2404C39.6255 40.6003 38.9986 40.7802 38.294 40.7802C37.7637 40.7802 37.33 40.6912 36.9929 40.5132C36.6596 40.3351 36.3982 40.1268 36.2088 39.8882C36.0194 39.6495 35.8736 39.4374 35.7713 39.2518H35.669V43.8825H33.9702ZM35.6349 36.2461C35.6349 36.8597 35.724 37.3976 35.902 37.8597C36.08 38.3219 36.3376 38.6836 36.6747 38.945C37.0118 39.2025 37.4247 39.3313 37.9134 39.3313C38.4209 39.3313 38.8452 39.1969 39.1861 38.9279C39.527 38.6552 39.7846 38.2859 39.9588 37.82C40.1368 37.3541 40.2259 36.8294 40.2259 36.2461C40.2259 35.6703 40.1387 35.1533 39.9645 34.695C39.794 34.2366 39.5365 33.8749 39.1918 33.6097C38.8509 33.3446 38.4247 33.212 37.9134 33.212C37.4209 33.212 37.0043 33.3389 36.6634 33.5927C36.3262 33.8465 36.0705 34.2007 35.8963 34.6552C35.7221 35.1097 35.6349 35.64 35.6349 36.2461ZM47.6065 40.7859C46.7467 40.7859 46.0062 40.6022 45.3849 40.2347C44.7675 39.8635 44.2902 39.3427 43.9531 38.6722C43.6198 37.998 43.4531 37.2082 43.4531 36.3029C43.4531 35.409 43.6198 34.6211 43.9531 33.9393C44.2902 33.2575 44.7599 32.7253 45.3622 32.3427C45.9683 31.9601 46.6766 31.7688 47.4872 31.7688C47.9796 31.7688 48.4569 31.8503 48.919 32.0132C49.3812 32.176 49.7959 32.4317 50.1634 32.7802C50.5308 33.1287 50.8205 33.5813 51.0327 34.1382C51.2448 34.6912 51.3509 35.3635 51.3509 36.1552V36.7575H44.4134V35.4847H49.6861C49.6861 35.0378 49.5952 34.6419 49.4134 34.2972C49.2315 33.9488 48.9759 33.6741 48.6463 33.4734C48.3205 33.2726 47.938 33.1722 47.4986 33.1722C47.0213 33.1722 46.6046 33.2897 46.2486 33.5245C45.8963 33.7556 45.6236 34.0586 45.4304 34.4336C45.241 34.8048 45.1463 35.2082 45.1463 35.6438V36.6382C45.1463 37.2215 45.2486 37.7177 45.4531 38.1268C45.6615 38.5359 45.9512 38.8484 46.3224 39.0643C46.6937 39.2764 47.1274 39.3825 47.6236 39.3825C47.9455 39.3825 48.2391 39.337 48.5043 39.2461C48.7694 39.1514 48.9986 39.0113 49.1918 38.8257C49.3849 38.64 49.5327 38.4109 49.6349 38.1382L51.2429 38.4279C51.1141 38.9014 50.883 39.3162 50.5497 39.6722C50.2202 40.0245 49.8054 40.2991 49.3054 40.4961C48.8092 40.6893 48.2429 40.7859 47.6065 40.7859ZM54.9347 35.4279V40.6097H53.2358V31.8825H54.8665V33.3029H54.9744C55.1752 32.8408 55.4896 32.4696 55.9176 32.1893C56.3494 31.909 56.893 31.7688 57.5483 31.7688C58.143 31.7688 58.6638 31.8938 59.1108 32.1438C59.5578 32.39 59.9044 32.7575 60.1506 33.2461C60.3968 33.7347 60.5199 34.3389 60.5199 35.0586V40.6097H58.821V35.2632C58.821 34.6306 58.6563 34.1363 58.3267 33.7802C57.9972 33.4203 57.5445 33.2404 56.9688 33.2404C56.5748 33.2404 56.2244 33.3257 55.9176 33.4961C55.6146 33.6666 55.3741 33.9166 55.196 34.2461C55.0218 34.5719 54.9347 34.9658 54.9347 35.4279ZM66.0653 40.7802C65.3608 40.7802 64.732 40.6003 64.179 40.2404C63.6297 39.8768 63.1979 39.3597 62.8835 38.6893C62.5729 38.015 62.4176 37.2063 62.4176 36.2632C62.4176 35.32 62.5748 34.5132 62.8892 33.8427C63.2074 33.1722 63.643 32.659 64.196 32.3029C64.7491 31.9469 65.3759 31.7688 66.0767 31.7688C66.6184 31.7688 67.054 31.8597 67.3835 32.0416C67.7169 32.2196 67.9744 32.4279 68.1562 32.6666C68.3419 32.9052 68.4858 33.1154 68.5881 33.2972H68.6903V28.9734H70.3892V40.6097H68.7301V39.2518H68.5881C68.4858 39.4374 68.3381 39.6495 68.1449 39.8882C67.9555 40.1268 67.6941 40.3351 67.3608 40.5132C67.0275 40.6912 66.5956 40.7802 66.0653 40.7802ZM66.4403 39.3313C66.929 39.3313 67.3419 39.2025 67.679 38.945C68.0199 38.6836 68.2775 38.3219 68.4517 37.8597C68.6297 37.3976 68.7188 36.8597 68.7188 36.2461C68.7188 35.64 68.6316 35.1097 68.4574 34.6552C68.2831 34.2007 68.0275 33.8465 67.6903 33.5927C67.3532 33.3389 66.9366 33.212 66.4403 33.212C65.929 33.212 65.5028 33.3446 65.1619 33.6097C64.821 33.8749 64.5634 34.2366 64.3892 34.695C64.2188 35.1533 64.1335 35.6703 64.1335 36.2461C64.1335 36.8294 64.2206 37.3541 64.3949 37.82C64.5691 38.2859 64.8267 38.6552 65.1676 38.9279C65.5123 39.1969 65.9366 39.3313 66.4403 39.3313ZM72.8139 40.6097V31.8825H74.5128V40.6097H72.8139ZM73.6719 30.5359C73.3764 30.5359 73.1226 30.4374 72.9105 30.2404C72.7022 30.0397 72.598 29.801 72.598 29.5245C72.598 29.2442 72.7022 29.0056 72.9105 28.8086C73.1226 28.6078 73.3764 28.5075 73.6719 28.5075C73.9673 28.5075 74.2192 28.6078 74.4276 28.8086C74.6397 29.0056 74.7457 29.2442 74.7457 29.5245C74.7457 29.801 74.6397 30.0397 74.4276 30.2404C74.2192 30.4374 73.9673 30.5359 73.6719 30.5359ZM78.4972 35.4279V40.6097H76.7983V31.8825H78.429V33.3029H78.5369C78.7377 32.8408 79.0521 32.4696 79.4801 32.1893C79.9119 31.909 80.4555 31.7688 81.1108 31.7688C81.7055 31.7688 82.2263 31.8938 82.6733 32.1438C83.1203 32.39 83.4669 32.7575 83.7131 33.2461C83.9593 33.7347 84.0824 34.3389 84.0824 35.0586V40.6097H82.3835V35.2632C82.3835 34.6306 82.2188 34.1363 81.8892 33.7802C81.5597 33.4203 81.107 33.2404 80.5312 33.2404C80.1373 33.2404 79.7869 33.3257 79.4801 33.4961C79.1771 33.6666 78.9366 33.9166 78.7585 34.2461C78.5843 34.5719 78.4972 34.9658 78.4972 35.4279ZM90.0199 44.0643C89.3267 44.0643 88.7301 43.9734 88.2301 43.7916C87.7339 43.6097 87.3286 43.3692 87.0142 43.07C86.6998 42.7707 86.465 42.4431 86.3097 42.087L87.7699 41.4847C87.8722 41.6514 88.0085 41.8275 88.179 42.0132C88.3532 42.2025 88.5881 42.3635 88.8835 42.4961C89.1828 42.6287 89.5672 42.695 90.0369 42.695C90.6809 42.695 91.2131 42.5378 91.6335 42.2234C92.054 41.9128 92.2642 41.4166 92.2642 40.7347V39.0188H92.1562C92.054 39.2044 91.9063 39.4109 91.7131 39.6382C91.5237 39.8654 91.2623 40.0624 90.929 40.2291C90.5956 40.3957 90.1619 40.4791 89.6278 40.4791C88.9384 40.4791 88.3172 40.3181 87.7642 39.9961C87.215 39.6703 86.7794 39.1912 86.4574 38.5586C86.1392 37.9222 85.9801 37.14 85.9801 36.212C85.9801 35.284 86.1373 34.4885 86.4517 33.8257C86.7699 33.1628 87.2055 32.6552 87.7585 32.3029C88.3116 31.9469 88.9384 31.7688 89.6392 31.7688C90.1809 31.7688 90.6184 31.8597 90.9517 32.0416C91.285 32.2196 91.5445 32.4279 91.7301 32.6666C91.9195 32.9052 92.0653 33.1154 92.1676 33.2972H92.2926V31.8825H93.9574V40.8029C93.9574 41.5529 93.7831 42.1685 93.4347 42.6495C93.0862 43.1306 92.6146 43.4866 92.0199 43.7177C91.429 43.9488 90.7623 44.0643 90.0199 44.0643ZM90.0028 39.07C90.4915 39.07 90.9044 38.9563 91.2415 38.7291C91.5824 38.498 91.84 38.1685 92.0142 37.7404C92.1922 37.3086 92.2812 36.7916 92.2812 36.1893C92.2812 35.6022 92.1941 35.0851 92.0199 34.6382C91.8456 34.1912 91.59 33.8427 91.2528 33.5927C90.9157 33.3389 90.4991 33.212 90.0028 33.212C89.4915 33.212 89.0653 33.3446 88.7244 33.6097C88.3835 33.8711 88.1259 34.2272 87.9517 34.6779C87.7813 35.1287 87.696 35.6325 87.696 36.1893C87.696 36.7613 87.7831 37.2632 87.9574 37.695C88.1316 38.1268 88.3892 38.4639 88.7301 38.7063C89.0748 38.9488 89.4991 39.07 90.0028 39.07ZM97.3551 40.7177C97.0445 40.7177 96.7775 40.6078 96.554 40.3882C96.3305 40.1647 96.2188 39.8957 96.2188 39.5813C96.2188 39.2707 96.3305 39.0056 96.554 38.7859C96.7775 38.5624 97.0445 38.4507 97.3551 38.4507C97.6657 38.4507 97.9328 38.5624 98.1562 38.7859C98.3797 39.0056 98.4915 39.2707 98.4915 39.5813C98.4915 39.7897 98.4384 39.981 98.3324 40.1552C98.2301 40.3257 98.0938 40.462 97.9233 40.5643C97.7528 40.6666 97.5634 40.7177 97.3551 40.7177ZM97.3551 34.3654C97.0445 34.3654 96.7775 34.2537 96.554 34.0302C96.3305 33.8067 96.2188 33.5397 96.2188 33.2291C96.2188 32.9185 96.3305 32.6533 96.554 32.4336C96.7775 32.2101 97.0445 32.0984 97.3551 32.0984C97.6657 32.0984 97.9328 32.2101 98.1562 32.4336C98.3797 32.6533 98.4915 32.9185 98.4915 33.2291C98.4915 33.4374 98.4384 33.6287 98.3324 33.8029C98.2301 33.9734 98.0938 34.1097 97.9233 34.212C97.7528 34.3143 97.5634 34.3654 97.3551 34.3654Z" fill="black"/>
<g opacity="0.8">
<path d="M274.212 35.3768V36.7972H259.723V35.3768H274.212ZM274.212 38.445V39.8654H259.723V38.445H274.212ZM272.841 30.0643V44.6097H270.817L263.424 33.9421H263.296V44.6097H261.094V30.0643H263.133L270.526 40.7461H270.661V30.0643H272.841ZM280.824 44.8086C279.934 44.8086 279.134 44.6382 278.424 44.2972C277.718 43.9516 277.155 43.4781 276.733 42.8768C276.312 42.2755 276.087 41.5889 276.059 40.8171H278.189C278.241 41.4421 278.518 41.9559 279.02 42.3583C279.522 42.7608 280.124 42.962 280.824 42.962C281.383 42.962 281.878 42.8342 282.309 42.5785C282.744 42.3181 283.085 41.9606 283.331 41.506C283.582 41.0515 283.708 40.533 283.708 39.9507C283.708 39.3588 283.58 38.8309 283.324 38.3668C283.069 37.9028 282.716 37.5382 282.266 37.2731C281.821 37.0079 281.31 36.873 280.732 36.8683C280.292 36.8683 279.849 36.944 279.404 37.0955C278.959 37.2471 278.599 37.4459 278.324 37.6921L276.314 37.3938L277.131 30.0643H285.128V31.9464H278.956L278.495 36.016H278.58C278.864 35.7414 279.241 35.5117 279.709 35.3271C280.183 35.1424 280.689 35.0501 281.229 35.0501C282.115 35.0501 282.903 35.2608 283.594 35.6822C284.29 36.1036 284.837 36.6789 285.235 37.408C285.637 38.1325 285.836 38.9658 285.831 39.908C285.836 40.8503 285.623 41.6907 285.192 42.4293C284.766 43.168 284.174 43.7504 283.417 44.1765C282.664 44.5979 281.8 44.8086 280.824 44.8086ZM293.489 44.8512C292.367 44.8465 291.408 44.5506 290.613 43.9634C289.818 43.3763 289.209 42.5217 288.788 41.3995C288.366 40.2774 288.156 38.9256 288.156 37.3441C288.156 35.7674 288.366 34.4203 288.788 33.3029C289.214 32.1855 289.825 31.3332 290.62 30.7461C291.42 30.159 292.377 29.8654 293.489 29.8654C294.602 29.8654 295.556 30.1614 296.352 30.7532C297.147 31.3403 297.756 32.1926 298.177 33.31C298.603 34.4227 298.816 35.7674 298.816 37.3441C298.816 38.9303 298.605 40.2845 298.184 41.4066C297.763 42.524 297.154 43.3787 296.359 43.9705C295.563 44.5577 294.607 44.8512 293.489 44.8512ZM293.489 42.9549C294.474 42.9549 295.244 42.4743 295.798 41.5132C296.356 40.552 296.636 39.1623 296.636 37.3441C296.636 36.1367 296.508 35.1164 296.252 34.283C296.001 33.445 295.639 32.8105 295.166 32.3796C294.697 31.944 294.138 31.7262 293.489 31.7262C292.509 31.7262 291.74 32.2092 291.181 33.1751C290.622 34.141 290.341 35.5307 290.336 37.3441C290.336 38.5562 290.461 39.5813 290.712 40.4194C290.968 41.2527 291.33 41.8848 291.799 42.3157C292.268 42.7418 292.831 42.9549 293.489 42.9549ZM303.6 42.6211L303.493 43.3953C303.422 43.9634 303.301 44.5553 303.131 45.1708C302.965 45.7911 302.792 46.3664 302.612 46.8967C302.437 47.427 302.293 47.8484 302.179 48.1609H300.673C300.735 47.8673 300.82 47.4696 300.929 46.9677C301.038 46.4705 301.145 45.9142 301.249 45.2987C301.353 44.6831 301.431 44.0558 301.483 43.4166L301.554 42.6211H303.6ZM311.107 44.8512C309.984 44.8465 309.026 44.5506 308.23 43.9634C307.435 43.3763 306.826 42.5217 306.405 41.3995C305.984 40.2774 305.773 38.9256 305.773 37.3441C305.773 35.7674 305.984 34.4203 306.405 33.3029C306.831 32.1855 307.442 31.3332 308.237 30.7461C309.037 30.159 309.994 29.8654 311.107 29.8654C312.219 29.8654 313.173 30.1614 313.969 30.7532C314.764 31.3403 315.373 32.1926 315.794 33.31C316.22 34.4227 316.433 35.7674 316.433 37.3441C316.433 38.9303 316.223 40.2845 315.801 41.4066C315.38 42.524 314.771 43.3787 313.976 43.9705C313.18 44.5577 312.224 44.8512 311.107 44.8512ZM311.107 42.9549C312.091 42.9549 312.861 42.4743 313.415 41.5132C313.974 40.552 314.253 39.1623 314.253 37.3441C314.253 36.1367 314.125 35.1164 313.869 34.283C313.618 33.445 313.256 32.8105 312.783 32.3796C312.314 31.944 311.755 31.7262 311.107 31.7262C310.127 31.7262 309.357 32.2092 308.798 33.1751C308.24 34.141 307.958 35.5307 307.953 37.3441C307.953 38.5562 308.079 39.5813 308.33 40.4194C308.585 41.2527 308.948 41.8848 309.416 42.3157C309.885 42.7418 310.448 42.9549 311.107 42.9549ZM324.017 44.8512C322.895 44.8465 321.936 44.5506 321.14 43.9634C320.345 43.3763 319.736 42.5217 319.315 41.3995C318.894 40.2774 318.683 38.9256 318.683 37.3441C318.683 35.7674 318.894 34.4203 319.315 33.3029C319.741 32.1855 320.352 31.3332 321.147 30.7461C321.948 30.159 322.904 29.8654 324.017 29.8654C325.129 29.8654 326.084 30.1614 326.879 30.7532C327.674 31.3403 328.283 32.1926 328.704 33.31C329.13 34.4227 329.343 35.7674 329.343 37.3441C329.343 38.9303 329.133 40.2845 328.711 41.4066C328.29 42.524 327.682 43.3787 326.886 43.9705C326.091 44.5577 325.134 44.8512 324.017 44.8512ZM324.017 42.9549C325.002 42.9549 325.771 42.4743 326.325 41.5132C326.884 40.552 327.163 39.1623 327.163 37.3441C327.163 36.1367 327.035 35.1164 326.78 34.283C326.529 33.445 326.166 32.8105 325.693 32.3796C325.224 31.944 324.665 31.7262 324.017 31.7262C323.037 31.7262 322.267 32.2092 321.709 33.1751C321.15 34.141 320.868 35.5307 320.863 37.3441C320.863 38.5562 320.989 39.5813 321.24 40.4194C321.495 41.2527 321.858 41.8848 322.326 42.3157C322.795 42.7418 323.359 42.9549 324.017 42.9549ZM336.927 44.8512C335.805 44.8465 334.846 44.5506 334.051 43.9634C333.255 43.3763 332.647 42.5217 332.225 41.3995C331.804 40.2774 331.593 38.9256 331.593 37.3441C331.593 35.7674 331.804 34.4203 332.225 33.3029C332.651 32.1855 333.262 31.3332 334.058 30.7461C334.858 30.159 335.814 29.8654 336.927 29.8654C338.04 29.8654 338.994 30.1614 339.789 30.7532C340.585 31.3403 341.193 32.1926 341.614 33.31C342.041 34.4227 342.254 35.7674 342.254 37.3441C342.254 38.9303 342.043 40.2845 341.622 41.4066C341.2 42.524 340.592 43.3787 339.796 43.9705C339.001 44.5577 338.044 44.8512 336.927 44.8512ZM336.927 42.9549C337.912 42.9549 338.681 42.4743 339.235 41.5132C339.794 40.552 340.073 39.1623 340.073 37.3441C340.073 36.1367 339.945 35.1164 339.69 34.283C339.439 33.445 339.077 32.8105 338.603 32.3796C338.134 31.944 337.576 31.7262 336.927 31.7262C335.947 31.7262 335.177 32.2092 334.619 33.1751C334.06 34.141 333.778 35.5307 333.774 37.3441C333.774 38.5562 333.899 39.5813 334.15 40.4194C334.406 41.2527 334.768 41.8848 335.237 42.3157C335.705 42.7418 336.269 42.9549 336.927 42.9549Z" fill="black"/>
<path d="M362.005 30.0643V44.6097H359.988L352.595 33.9421H352.46V44.6097H350.265V30.0643H352.296L359.697 40.7461H359.832V30.0643H362.005ZM368.211 44.8512C367.519 44.8512 366.894 44.7234 366.336 44.4677C365.777 44.2073 365.334 43.8309 365.008 43.3384C364.686 42.846 364.525 42.2423 364.525 41.5274C364.525 40.9118 364.643 40.4052 364.88 40.0075C365.116 39.6097 365.436 39.2949 365.839 39.0629C366.241 38.8309 366.691 38.6557 367.188 38.5373C367.685 38.4189 368.192 38.329 368.708 38.2674C369.361 38.1917 369.892 38.1301 370.299 38.0828C370.706 38.0307 371.002 37.9478 371.187 37.8342C371.371 37.7205 371.464 37.5359 371.464 37.2802V37.2305C371.464 36.6102 371.288 36.1296 370.938 35.7887C370.592 35.4478 370.076 35.2774 369.39 35.2774C368.675 35.2774 368.111 35.436 367.699 35.7532C367.292 36.0657 367.01 36.4137 366.854 36.7972L364.858 36.3427C365.095 35.6798 365.441 35.1448 365.895 34.7376C366.355 34.3256 366.883 34.0274 367.479 33.8427C368.076 33.6533 368.703 33.5586 369.361 33.5586C369.797 33.5586 370.258 33.6107 370.746 33.7149C371.239 33.8143 371.698 33.9989 372.124 34.2688C372.555 34.5387 372.908 34.9246 373.182 35.4265C373.457 35.9237 373.594 36.57 373.594 37.3654V44.6097H371.52V43.1183H371.435C371.298 43.3929 371.092 43.6628 370.817 43.9279C370.543 44.1931 370.19 44.4132 369.759 44.5884C369.328 44.7636 368.812 44.8512 368.211 44.8512ZM368.672 43.1467C369.259 43.1467 369.761 43.0307 370.178 42.7987C370.599 42.5667 370.919 42.2636 371.137 41.8896C371.359 41.5108 371.471 41.106 371.471 40.6751V39.2688C371.395 39.3446 371.248 39.4156 371.03 39.4819C370.817 39.5435 370.573 39.5979 370.299 39.6453C370.024 39.6879 369.757 39.7281 369.496 39.766C369.236 39.7991 369.018 39.8275 368.843 39.8512C368.431 39.9033 368.054 39.9909 367.714 40.114C367.377 40.2371 367.107 40.4147 366.904 40.6467C366.705 40.8739 366.606 41.177 366.606 41.5558C366.606 42.0813 366.8 42.4791 367.188 42.7489C367.576 43.0141 368.071 43.1467 368.672 43.1467ZM376.423 44.6097V33.7006H378.546V44.6097H376.423ZM377.495 32.0174C377.126 32.0174 376.809 31.8943 376.543 31.6481C376.283 31.3971 376.153 31.0989 376.153 30.7532C376.153 30.4028 376.283 30.1045 376.543 29.8583C376.809 29.6074 377.126 29.4819 377.495 29.4819C377.864 29.4819 378.179 29.6074 378.44 29.8583C378.705 30.1045 378.837 30.4028 378.837 30.7532C378.837 31.0989 378.705 31.3971 378.44 31.6481C378.179 31.8943 377.864 32.0174 377.495 32.0174ZM381.403 44.6097V33.7006H383.456V35.4336H383.569C383.768 34.8465 384.119 34.3848 384.62 34.0487C385.127 33.7078 385.7 33.5373 386.339 33.5373C386.472 33.5373 386.628 33.542 386.808 33.5515C386.993 33.561 387.137 33.5728 387.241 33.587V35.6183C387.156 35.5946 387.004 35.5685 386.787 35.5401C386.569 35.507 386.351 35.4904 386.133 35.4904C385.631 35.4904 385.184 35.597 384.791 35.81C384.403 36.0184 384.095 36.3096 383.868 36.6836C383.64 37.0529 383.527 37.4743 383.527 37.9478V44.6097H381.403ZM392.156 44.8512C391.465 44.8512 390.84 44.7234 390.281 44.4677C389.722 44.2073 389.28 43.8309 388.953 43.3384C388.631 42.846 388.47 42.2423 388.47 41.5274C388.47 40.9118 388.588 40.4052 388.825 40.0075C389.062 39.6097 389.381 39.2949 389.784 39.0629C390.186 38.8309 390.636 38.6557 391.133 38.5373C391.63 38.4189 392.137 38.329 392.653 38.2674C393.307 38.1917 393.837 38.1301 394.244 38.0828C394.651 38.0307 394.947 37.9478 395.132 37.8342C395.316 37.7205 395.409 37.5359 395.409 37.2802V37.2305C395.409 36.6102 395.234 36.1296 394.883 35.7887C394.538 35.4478 394.022 35.2774 393.335 35.2774C392.62 35.2774 392.057 35.436 391.645 35.7532C391.237 36.0657 390.956 36.4137 390.799 36.7972L388.804 36.3427C389.04 35.6798 389.386 35.1448 389.841 34.7376C390.3 34.3256 390.828 34.0274 391.424 33.8427C392.021 33.6533 392.648 33.5586 393.307 33.5586C393.742 33.5586 394.204 33.6107 394.691 33.7149C395.184 33.8143 395.643 33.9989 396.069 34.2688C396.5 34.5387 396.853 34.9246 397.128 35.4265C397.402 35.9237 397.54 36.57 397.54 37.3654V44.6097H395.466V43.1183H395.38C395.243 43.3929 395.037 43.6628 394.763 43.9279C394.488 44.1931 394.135 44.4132 393.704 44.5884C393.273 44.7636 392.757 44.8512 392.156 44.8512ZM392.618 43.1467C393.205 43.1467 393.707 43.0307 394.123 42.7987C394.545 42.5667 394.864 42.2636 395.082 41.8896C395.305 41.5108 395.416 41.106 395.416 40.6751V39.2688C395.34 39.3446 395.193 39.4156 394.976 39.4819C394.763 39.5435 394.519 39.5979 394.244 39.6453C393.969 39.6879 393.702 39.7281 393.441 39.766C393.181 39.7991 392.963 39.8275 392.788 39.8512C392.376 39.9033 392 39.9909 391.659 40.114C391.323 40.2371 391.053 40.4147 390.849 40.6467C390.65 40.8739 390.551 41.177 390.551 41.5558C390.551 42.0813 390.745 42.4791 391.133 42.7489C391.522 43.0141 392.016 43.1467 392.618 43.1467Z" fill="#5B5B5B"/>
</g>
<path opacity="0.8" d="M22.8585 90.2195V78.5831H27.0062C27.9077 78.5831 28.6558 78.7384 29.2505 79.049C29.849 79.3596 30.296 79.7896 30.5914 80.3388C30.8869 80.8843 31.0346 81.5149 31.0346 82.2308C31.0346 82.943 30.885 83.5699 30.5858 84.1115C30.2903 84.6494 29.8433 85.068 29.2449 85.3672C28.6502 85.6665 27.902 85.8161 27.0005 85.8161H23.8585V84.3047H26.8414C27.4096 84.3047 27.8717 84.2233 28.2278 84.0604C28.5877 83.8975 28.8509 83.6608 29.0176 83.3502C29.1842 83.0396 29.2676 82.6665 29.2676 82.2308C29.2676 81.7915 29.1824 81.4108 29.0119 81.0888C28.8452 80.7668 28.582 80.5206 28.2221 80.3502C27.8661 80.1759 27.3983 80.0888 26.8187 80.0888H24.6142V90.2195H22.8585ZM28.6028 84.9695L31.4778 90.2195H29.4778L26.6596 84.9695H28.6028ZM36.6866 90.3956C35.8268 90.3956 35.0862 90.2119 34.465 89.8445C33.8476 89.4733 33.3703 88.9524 33.0332 88.282C32.6999 87.6077 32.5332 86.818 32.5332 85.9127C32.5332 85.0187 32.6999 84.2308 33.0332 83.549C33.3703 82.8672 33.84 82.335 34.4423 81.9524C35.0484 81.5699 35.7567 81.3786 36.5673 81.3786C37.0597 81.3786 37.537 81.46 37.9991 81.6229C38.4612 81.7858 38.876 82.0415 39.2434 82.3899C39.6109 82.7384 39.9006 83.1911 40.1127 83.7479C40.3249 84.3009 40.4309 84.9733 40.4309 85.7649V86.3672H33.4934V85.0945H38.7662C38.7662 84.6475 38.6752 84.2517 38.4934 83.907C38.3116 83.5585 38.0559 83.2839 37.7264 83.0831C37.4006 82.8824 37.0181 82.782 36.5787 82.782C36.1014 82.782 35.6847 82.8994 35.3287 83.1343C34.9764 83.3653 34.7037 83.6683 34.5105 84.0433C34.3211 84.4146 34.2264 84.818 34.2264 85.2536V86.2479C34.2264 86.8312 34.3287 87.3274 34.5332 87.7365C34.7415 88.1456 35.0313 88.4581 35.4025 88.674C35.7737 88.8861 36.2074 88.9922 36.7037 88.9922C37.0256 88.9922 37.3192 88.9468 37.5843 88.8558C37.8495 88.7611 38.0787 88.621 38.2718 88.4354C38.465 88.2498 38.6127 88.0206 38.715 87.7479L40.323 88.0377C40.1942 88.5111 39.9631 88.9259 39.6298 89.282C39.3002 89.6343 38.8855 89.9089 38.3855 90.1058C37.8893 90.299 37.323 90.3956 36.6866 90.3956ZM45.992 90.3956C45.1473 90.3956 44.42 90.2043 43.8102 89.8218C43.2041 89.4354 42.7382 88.9032 42.4125 88.2252C42.0867 87.5471 41.9238 86.7706 41.9238 85.8956C41.9238 85.0093 42.0905 84.2271 42.4238 83.549C42.7572 82.8672 43.2269 82.335 43.8329 81.9524C44.439 81.5699 45.153 81.3786 45.975 81.3786C46.6378 81.3786 47.2288 81.5017 47.7477 81.7479C48.2666 81.9903 48.6852 82.3312 49.0034 82.7706C49.3253 83.21 49.5166 83.7233 49.5772 84.3104H47.9238C47.8329 83.9013 47.6246 83.549 47.2988 83.2536C46.9769 82.9581 46.545 82.8104 46.0034 82.8104C45.5299 82.8104 45.1151 82.9354 44.7591 83.1854C44.4068 83.4316 44.1322 83.7839 43.9352 84.2422C43.7382 84.6968 43.6397 85.2346 43.6397 85.8558C43.6397 86.4922 43.7363 87.0415 43.9295 87.5036C44.1227 87.9657 44.3954 88.3236 44.7477 88.5774C45.1038 88.8312 45.5223 88.9581 46.0034 88.9581C46.3253 88.9581 46.617 88.8994 46.8784 88.782C47.1435 88.6608 47.3651 88.4884 47.5431 88.2649C47.725 88.0415 47.8519 87.7725 47.9238 87.4581H49.5772C49.5166 88.0225 49.3329 88.5263 49.0261 88.9695C48.7193 89.4127 48.3083 89.7611 47.7931 90.0149C47.2818 90.2687 46.6814 90.3956 45.992 90.3956ZM51.394 90.2195V81.4922H53.0929V90.2195H51.394ZM52.252 80.1456C51.9565 80.1456 51.7027 80.0471 51.4906 79.8502C51.2823 79.6494 51.1781 79.4108 51.1781 79.1343C51.1781 78.854 51.2823 78.6153 51.4906 78.4183C51.7027 78.2176 51.9565 78.1172 52.252 78.1172C52.5474 78.1172 52.7993 78.2176 53.0076 78.4183C53.2198 78.6153 53.3258 78.854 53.3258 79.1343C53.3258 79.4108 53.2198 79.6494 53.0076 79.8502C52.7993 80.0471 52.5474 80.1456 52.252 80.1456ZM59.1397 90.3956C58.2799 90.3956 57.5394 90.2119 56.9181 89.8445C56.3007 89.4733 55.8234 88.9524 55.4863 88.282C55.153 87.6077 54.9863 86.818 54.9863 85.9127C54.9863 85.0187 55.153 84.2308 55.4863 83.549C55.8234 82.8672 56.2931 82.335 56.8954 81.9524C57.5015 81.5699 58.2098 81.3786 59.0204 81.3786C59.5128 81.3786 59.9901 81.46 60.4522 81.6229C60.9144 81.7858 61.3291 82.0415 61.6966 82.3899C62.064 82.7384 62.3538 83.1911 62.5659 83.7479C62.778 84.3009 62.8841 84.9733 62.8841 85.7649V86.3672H55.9466V85.0945H61.2193C61.2193 84.6475 61.1284 84.2517 60.9466 83.907C60.7647 83.5585 60.5091 83.2839 60.1795 83.0831C59.8538 82.8824 59.4712 82.782 59.0318 82.782C58.5545 82.782 58.1378 82.8994 57.7818 83.1343C57.4295 83.3653 57.1568 83.6683 56.9636 84.0433C56.7742 84.4146 56.6795 84.818 56.6795 85.2536V86.2479C56.6795 86.8312 56.7818 87.3274 56.9863 87.7365C57.1947 88.1456 57.4844 88.4581 57.8556 88.674C58.2269 88.8861 58.6606 88.9922 59.1568 88.9922C59.4788 88.9922 59.7723 88.9468 60.0375 88.8558C60.3026 88.7611 60.5318 88.621 60.725 88.4354C60.9181 88.2498 61.0659 88.0206 61.1681 87.7479L62.7761 88.0377C62.6473 88.5111 62.4163 88.9259 62.0829 89.282C61.7534 89.6343 61.3386 89.9089 60.8386 90.1058C60.3424 90.299 59.7761 90.3956 59.1397 90.3956ZM71.9849 81.4922L68.8201 90.2195H67.002L63.8315 81.4922H65.6554L67.8656 88.2081H67.9565L70.161 81.4922H71.9849ZM73.5815 90.2195V81.4922H75.2804V90.2195H73.5815ZM74.4395 80.1456C74.144 80.1456 73.8902 80.0471 73.6781 79.8502C73.4698 79.6494 73.3656 79.4108 73.3656 79.1343C73.3656 78.854 73.4698 78.6153 73.6781 78.4183C73.8902 78.2176 74.144 78.1172 74.4395 78.1172C74.7349 78.1172 74.9868 78.2176 75.1951 78.4183C75.4073 78.6153 75.5133 78.854 75.5133 79.1343C75.5133 79.4108 75.4073 79.6494 75.1951 79.8502C74.9868 80.0471 74.7349 80.1456 74.4395 80.1456ZM79.2647 85.0377V90.2195H77.5659V81.4922H79.1966V82.9127H79.3045C79.5053 82.4505 79.8197 82.0793 80.2477 81.799C80.6795 81.5187 81.2231 81.3786 81.8784 81.3786C82.4731 81.3786 82.9939 81.5036 83.4409 81.7536C83.8878 81.9998 84.2344 82.3672 84.4806 82.8558C84.7269 83.3445 84.85 83.9486 84.85 84.6683V90.2195H83.1511V84.8729C83.1511 84.2403 82.9863 83.746 82.6568 83.3899C82.3272 83.0301 81.8746 82.8502 81.2988 82.8502C80.9049 82.8502 80.5545 82.9354 80.2477 83.1058C79.9447 83.2763 79.7041 83.5263 79.5261 83.8558C79.3519 84.1816 79.2647 84.5755 79.2647 85.0377ZM90.7875 93.674C90.0943 93.674 89.4977 93.5831 88.9977 93.4013C88.5015 93.2195 88.0962 92.979 87.7818 92.6797C87.4674 92.3805 87.2325 92.0528 87.0772 91.6968L88.5375 91.0945C88.6397 91.2611 88.7761 91.4373 88.9466 91.6229C89.1208 91.8123 89.3556 91.9733 89.6511 92.1058C89.9503 92.2384 90.3348 92.3047 90.8045 92.3047C91.4484 92.3047 91.9806 92.1475 92.4011 91.8331C92.8216 91.5225 93.0318 91.0263 93.0318 90.3445V88.6286H92.9238C92.8216 88.8142 92.6738 89.0206 92.4806 89.2479C92.2913 89.4752 92.0299 89.6721 91.6966 89.8388C91.3632 90.0055 90.9295 90.0888 90.3954 90.0888C89.706 90.0888 89.0848 89.9278 88.5318 89.6058C87.9825 89.2801 87.5469 88.8009 87.225 88.1683C86.9068 87.532 86.7477 86.7498 86.7477 85.8218C86.7477 84.8937 86.9049 84.0983 87.2193 83.4354C87.5375 82.7725 87.9731 82.2649 88.5261 81.9127C89.0791 81.5566 89.706 81.3786 90.4068 81.3786C90.9484 81.3786 91.3859 81.4695 91.7193 81.6513C92.0526 81.8293 92.3121 82.0377 92.4977 82.2763C92.6871 82.5149 92.8329 82.7252 92.9352 82.907H93.0602V81.4922H94.725V90.4127C94.725 91.1627 94.5507 91.7782 94.2022 92.2593C93.8538 92.7403 93.3822 93.0964 92.7875 93.3274C92.1966 93.5585 91.5299 93.674 90.7875 93.674ZM90.7704 88.6797C91.2591 88.6797 91.6719 88.5661 92.0091 88.3388C92.35 88.1077 92.6075 87.7782 92.7818 87.3502C92.9598 86.9183 93.0488 86.4013 93.0488 85.799C93.0488 85.2119 92.9617 84.6949 92.7875 84.2479C92.6132 83.8009 92.3575 83.4524 92.0204 83.2024C91.6833 82.9486 91.2666 82.8218 90.7704 82.8218C90.2591 82.8218 89.8329 82.9543 89.492 83.2195C89.1511 83.4808 88.8935 83.8369 88.7193 84.2877C88.5488 84.7384 88.4636 85.2422 88.4636 85.799C88.4636 86.371 88.5507 86.8729 88.725 87.3047C88.8992 87.7365 89.1568 88.0736 89.4977 88.3161C89.8424 88.5585 90.2666 88.6797 90.7704 88.6797ZM98.1227 90.3274C97.8121 90.3274 97.545 90.2176 97.3216 89.9979C97.0981 89.7744 96.9863 89.5055 96.9863 89.1911C96.9863 88.8805 97.0981 88.6153 97.3216 88.3956C97.545 88.1721 97.8121 88.0604 98.1227 88.0604C98.4333 88.0604 98.7003 88.1721 98.9238 88.3956C99.1473 88.6153 99.2591 88.8805 99.2591 89.1911C99.2591 89.3994 99.206 89.5907 99.1 89.7649C98.9977 89.9354 98.8613 90.0718 98.6909 90.174C98.5204 90.2763 98.331 90.3274 98.1227 90.3274ZM98.1227 83.9752C97.8121 83.9752 97.545 83.8634 97.3216 83.6399C97.0981 83.4165 96.9863 83.1494 96.9863 82.8388C96.9863 82.5282 97.0981 82.263 97.3216 82.0433C97.545 81.8199 97.8121 81.7081 98.1227 81.7081C98.4333 81.7081 98.7003 81.8199 98.9238 82.0433C99.1473 82.263 99.2591 82.5282 99.2591 82.8388C99.2591 83.0471 99.206 83.2384 99.1 83.4127C98.9977 83.5831 98.8613 83.7195 98.6909 83.8218C98.5204 83.924 98.331 83.9752 98.1227 83.9752Z" fill="black"/>
<g opacity="0.8">
<path d="M324.726 94.4183C323.751 94.4183 322.88 94.2503 322.113 93.9141C321.35 93.5779 320.747 93.1115 320.302 92.5149C319.861 91.9136 319.624 91.2176 319.591 90.4269H321.821C321.85 90.8577 321.994 91.2318 322.255 91.549C322.52 91.8615 322.865 92.103 323.292 92.2735C323.718 92.4439 324.191 92.5291 324.712 92.5291C325.285 92.5291 325.792 92.4297 326.232 92.2308C326.677 92.032 327.025 91.755 327.276 91.3999C327.527 91.04 327.652 90.6257 327.652 90.157C327.652 89.6693 327.527 89.2408 327.276 88.8715C327.03 88.4974 326.668 88.2039 326.189 87.9908C325.716 87.7777 325.143 87.6712 324.471 87.6712H323.242V85.8814H324.471C325.01 85.8814 325.484 85.7843 325.891 85.5902C326.303 85.3961 326.625 85.1262 326.857 84.7806C327.089 84.4302 327.205 84.0206 327.205 83.5519C327.205 83.1021 327.103 82.7114 326.9 82.38C326.701 82.0438 326.417 81.781 326.047 81.5916C325.683 81.4022 325.252 81.3075 324.755 81.3075C324.281 81.3075 323.838 81.3951 323.427 81.5703C323.019 81.7408 322.688 81.987 322.432 82.309C322.177 82.6262 322.039 83.0074 322.02 83.4524H319.897C319.92 82.6665 320.152 81.9752 320.593 81.3786C321.038 80.782 321.625 80.3156 322.354 79.9794C323.083 79.6433 323.893 79.4752 324.783 79.4752C325.716 79.4752 326.521 79.6575 327.198 80.022C327.88 80.3819 328.405 80.8625 328.775 81.4638C329.149 82.0651 329.333 82.7233 329.329 83.4382C329.333 84.2526 329.106 84.9439 328.647 85.5121C328.192 86.0803 327.586 86.4614 326.829 86.6556V86.7692C327.794 86.916 328.543 87.2995 329.073 87.9198C329.608 88.54 329.873 89.3094 329.868 90.228C329.873 91.0282 329.65 91.7455 329.201 92.38C328.756 93.0145 328.147 93.514 327.375 93.8786C326.604 94.2384 325.721 94.4183 324.726 94.4183ZM332.248 91.3786V89.603L338.533 79.674H339.932V82.2877H339.044L334.549 89.4041V89.5178H343.164V91.3786H332.248ZM339.144 94.2195V90.8388L339.158 90.0291V79.674H341.239V94.2195H339.144ZM345.639 94.2195V92.6286L350.561 87.5291C351.086 86.9752 351.52 86.4898 351.86 86.0732C352.206 85.6518 352.464 85.2517 352.635 84.8729C352.805 84.4941 352.89 84.0916 352.89 83.6655C352.89 83.1825 352.777 82.7659 352.549 82.4155C352.322 82.0604 352.012 81.7881 351.619 81.5987C351.226 81.4046 350.783 81.3075 350.291 81.3075C349.77 81.3075 349.316 81.4141 348.927 81.6272C348.539 81.8402 348.241 82.1409 348.032 82.5291C347.824 82.9174 347.72 83.3719 347.72 83.8928H345.625C345.625 83.0074 345.828 82.2332 346.235 81.5703C346.643 80.9075 347.201 80.3937 347.912 80.0291C348.622 79.6598 349.429 79.4752 350.333 79.4752C351.247 79.4752 352.052 79.6575 352.748 80.022C353.449 80.3819 353.996 80.8743 354.389 81.4993C354.782 82.1196 354.978 82.8203 354.978 83.6016C354.978 84.1414 354.877 84.6693 354.673 85.1854C354.474 85.7015 354.126 86.2768 353.629 86.9112C353.132 87.541 352.441 88.3057 351.555 89.2053L348.664 92.2308V92.3374H355.213V94.2195H345.639Z" fill="black"/>
<path d="M371.33 83.495C371.254 82.8227 370.941 82.3019 370.392 81.9325C369.843 81.5585 369.152 81.3715 368.318 81.3715C367.722 81.3715 367.206 81.4662 366.77 81.6556C366.334 81.8402 365.996 82.0959 365.754 82.4226C365.518 82.7446 365.399 83.1115 365.399 83.5235C365.399 83.8691 365.48 84.1674 365.641 84.4183C365.806 84.6693 366.022 84.88 366.287 85.0504C366.557 85.2162 366.846 85.3558 367.153 85.4695C367.461 85.5784 367.757 85.6683 368.041 85.7394L369.462 86.1087C369.926 86.2223 370.402 86.3762 370.889 86.5703C371.377 86.7645 371.829 87.0201 372.246 87.3374C372.662 87.6546 372.999 88.0476 373.254 88.5164C373.515 88.9851 373.645 89.5462 373.645 90.1996C373.645 91.0235 373.432 91.755 373.006 92.3942C372.584 93.0334 371.971 93.5377 371.166 93.907C370.366 94.2763 369.398 94.461 368.261 94.461C367.172 94.461 366.23 94.2881 365.435 93.9425C364.639 93.5968 364.017 93.1068 363.567 92.4723C363.117 91.8331 362.868 91.0755 362.821 90.1996H365.023C365.065 90.7252 365.236 91.1631 365.534 91.5135C365.837 91.8592 366.223 92.1172 366.692 92.2877C367.165 92.4534 367.684 92.5362 368.247 92.5362C368.867 92.5362 369.419 92.4392 369.902 92.2451C370.39 92.0462 370.773 91.7716 371.053 91.4212C371.332 91.0661 371.472 90.6518 371.472 90.1783C371.472 89.7474 371.349 89.3947 371.102 89.1201C370.861 88.8454 370.532 88.6182 370.115 88.4382C369.703 88.2583 369.237 88.0997 368.716 87.9624L366.997 87.4936C365.832 87.1764 364.909 86.71 364.227 86.0945C363.55 85.479 363.212 84.6646 363.212 83.6513C363.212 82.8132 363.439 82.0817 363.894 81.4567C364.348 80.8317 364.964 80.3464 365.74 80.0007C366.517 79.6504 367.393 79.4752 368.368 79.4752C369.353 79.4752 370.222 79.648 370.974 79.9936C371.732 80.3393 372.329 80.8151 372.764 81.4212C373.2 82.0225 373.427 82.7138 373.446 83.495H371.33ZM376.267 94.2195V79.674H378.462V92.3303H385.053V94.2195H376.267ZM389.083 79.674L392.564 85.3629H392.677L396.157 79.674H398.7L394.169 86.9468L398.728 94.2195H396.172L392.677 88.6087H392.564L389.069 94.2195H386.512L391.15 86.9468L386.541 79.674H389.083Z" fill="#5B5B5B"/>
</g>
<g clip-path="url(#clip0_307_37356)">
<path opacity="0.8" d="M24.7428 140.573V128.937H28.8905C29.7958 128.937 30.5458 129.102 31.1405 129.431C31.7352 129.761 32.1803 130.211 32.4757 130.783C32.7712 131.352 32.9189 131.992 32.9189 132.704C32.9189 133.42 32.7693 134.064 32.47 134.636C32.1746 135.204 31.7276 135.655 31.1291 135.988C30.5344 136.317 29.7863 136.482 28.8848 136.482H26.0325V134.994H28.7257C29.2977 134.994 29.7617 134.895 30.1178 134.698C30.4738 134.497 30.7352 134.225 30.9019 133.88C31.0685 133.535 31.1519 133.143 31.1519 132.704C31.1519 132.264 31.0685 131.874 30.9019 131.533C30.7352 131.192 30.4719 130.925 30.1121 130.732C29.756 130.539 29.2863 130.442 28.703 130.442H26.4984V140.573H24.7428ZM34.8408 140.573V131.846H36.4828V133.232H36.5737C36.7328 132.763 37.0131 132.393 37.4146 132.124C37.8199 131.852 38.2783 131.715 38.7896 131.715C38.8957 131.715 39.0207 131.719 39.1646 131.727C39.3124 131.734 39.4279 131.744 39.5112 131.755V133.38C39.443 133.361 39.3218 133.34 39.1476 133.317C38.9734 133.291 38.7991 133.278 38.6249 133.278C38.2234 133.278 37.8654 133.363 37.551 133.533C37.2404 133.7 36.9942 133.933 36.8124 134.232C36.6305 134.528 36.5396 134.865 36.5396 135.244V140.573H34.8408ZM44.345 140.749C43.5269 140.749 42.8128 140.562 42.203 140.187C41.5931 139.812 41.1197 139.287 40.7825 138.613C40.4454 137.939 40.2769 137.151 40.2769 136.249C40.2769 135.344 40.4454 134.552 40.7825 133.874C41.1197 133.196 41.5931 132.67 42.203 132.295C42.8128 131.92 43.5269 131.732 44.345 131.732C45.1632 131.732 45.8772 131.92 46.4871 132.295C47.0969 132.67 47.5704 133.196 47.9075 133.874C48.2447 134.552 48.4132 135.344 48.4132 136.249C48.4132 137.151 48.2447 137.939 47.9075 138.613C47.5704 139.287 47.0969 139.812 46.4871 140.187C45.8772 140.562 45.1632 140.749 44.345 140.749ZM44.3507 139.323C44.881 139.323 45.3204 139.183 45.6689 138.903C46.0174 138.622 46.275 138.249 46.4416 137.783C46.6121 137.317 46.6973 136.804 46.6973 136.244C46.6973 135.687 46.6121 135.175 46.4416 134.709C46.275 134.24 46.0174 133.863 45.6689 133.579C45.3204 133.295 44.881 133.153 44.3507 133.153C43.8166 133.153 43.3734 133.295 43.0212 133.579C42.6727 133.863 42.4132 134.24 42.2428 134.709C42.0761 135.175 41.9928 135.687 41.9928 136.244C41.9928 136.804 42.0761 137.317 42.2428 137.783C42.4132 138.249 42.6727 138.622 43.0212 138.903C43.3734 139.183 43.8166 139.323 44.3507 139.323ZM53.9857 140.749C53.141 140.749 52.4137 140.558 51.8038 140.175C51.1978 139.789 50.7319 139.257 50.4061 138.579C50.0804 137.901 49.9175 137.124 49.9175 136.249C49.9175 135.363 50.0841 134.581 50.4175 133.903C50.7508 133.221 51.2205 132.689 51.8266 132.306C52.4326 131.923 53.1466 131.732 53.9686 131.732C54.6315 131.732 55.2224 131.855 55.7413 132.102C56.2603 132.344 56.6788 132.685 56.997 133.124C57.319 133.564 57.5103 134.077 57.5709 134.664H55.9175C55.8266 134.255 55.6182 133.903 55.2925 133.607C54.9705 133.312 54.5387 133.164 53.997 133.164C53.5235 133.164 53.1088 133.289 52.7527 133.539C52.4004 133.785 52.1258 134.138 51.9288 134.596C51.7319 135.05 51.6334 135.588 51.6334 136.209C51.6334 136.846 51.73 137.395 51.9232 137.857C52.1163 138.319 52.3891 138.677 52.7413 138.931C53.0974 139.185 53.516 139.312 53.997 139.312C54.319 139.312 54.6107 139.253 54.872 139.136C55.1372 139.014 55.3588 138.842 55.5368 138.619C55.7186 138.395 55.8455 138.126 55.9175 137.812H57.5709C57.5103 138.376 57.3266 138.88 57.0198 139.323C56.7129 139.766 56.302 140.115 55.7868 140.369C55.2754 140.622 54.6751 140.749 53.9857 140.749ZM63.149 140.749C62.2892 140.749 61.5486 140.566 60.9274 140.198C60.31 139.827 59.8327 139.306 59.4956 138.636C59.1623 137.961 58.9956 137.172 58.9956 136.266C58.9956 135.372 59.1623 134.584 59.4956 133.903C59.8327 133.221 60.3024 132.689 60.9047 132.306C61.5108 131.923 62.2191 131.732 63.0297 131.732C63.5221 131.732 63.9994 131.814 64.4615 131.977C64.9236 132.139 65.3384 132.395 65.7058 132.744C66.0733 133.092 66.363 133.545 66.5752 134.102C66.7873 134.655 66.8933 135.327 66.8933 136.119V136.721H59.9558V135.448H65.2286C65.2286 135.001 65.1377 134.605 64.9558 134.261C64.774 133.912 64.5183 133.638 64.1888 133.437C63.863 133.236 63.4805 133.136 63.0411 133.136C62.5638 133.136 62.1471 133.253 61.7911 133.488C61.4388 133.719 61.1661 134.022 60.9729 134.397C60.7835 134.768 60.6888 135.172 60.6888 135.607V136.602C60.6888 137.185 60.7911 137.681 60.9956 138.09C61.2039 138.499 61.4937 138.812 61.8649 139.028C62.2361 139.24 62.6698 139.346 63.1661 139.346C63.488 139.346 63.7816 139.3 64.0467 139.209C64.3119 139.115 64.5411 138.975 64.7342 138.789C64.9274 138.603 65.0752 138.374 65.1774 138.102L66.7854 138.391C66.6566 138.865 66.4255 139.28 66.0922 139.636C65.7627 139.988 65.3479 140.263 64.8479 140.459C64.3517 140.653 63.7854 140.749 63.149 140.749ZM75.318 133.977L73.7783 134.249C73.7139 134.052 73.6116 133.865 73.4715 133.687C73.3351 133.509 73.1495 133.363 72.9146 133.249C72.6798 133.136 72.3862 133.079 72.034 133.079C71.5529 133.079 71.1514 133.187 70.8294 133.403C70.5074 133.615 70.3465 133.889 70.3465 134.227C70.3465 134.518 70.4544 134.753 70.6703 134.931C70.8862 135.109 71.2347 135.255 71.7158 135.369L73.1021 135.687C73.9052 135.872 74.5037 136.158 74.8976 136.545C75.2915 136.931 75.4885 137.433 75.4885 138.05C75.4885 138.573 75.337 139.039 75.034 139.448C74.7347 139.853 74.3162 140.172 73.7783 140.403C73.2442 140.634 72.6249 140.749 71.9203 140.749C70.943 140.749 70.1457 140.541 69.5283 140.124C68.9109 139.704 68.5321 139.107 68.3919 138.334L70.034 138.084C70.1362 138.513 70.3465 138.836 70.6646 139.056C70.9828 139.272 71.3976 139.38 71.909 139.38C72.4658 139.38 72.9109 139.264 73.2442 139.033C73.5775 138.798 73.7442 138.513 73.7442 138.175C73.7442 137.903 73.6419 137.673 73.4374 137.488C73.2366 137.302 72.9279 137.162 72.5112 137.067L71.034 136.744C70.2196 136.558 69.6173 136.263 69.2271 135.857C68.8408 135.452 68.6476 134.939 68.6476 134.317C68.6476 133.802 68.7915 133.352 69.0794 132.965C69.3673 132.579 69.765 132.278 70.2726 132.062C70.7802 131.842 71.3616 131.732 72.0169 131.732C72.9601 131.732 73.7025 131.937 74.2442 132.346C74.7859 132.751 75.1438 133.295 75.318 133.977ZM83.8962 133.977L82.3564 134.249C82.292 134.052 82.1897 133.865 82.0496 133.687C81.9132 133.509 81.7276 133.363 81.4928 133.249C81.2579 133.136 80.9644 133.079 80.6121 133.079C80.131 133.079 79.7295 133.187 79.4075 133.403C79.0856 133.615 78.9246 133.889 78.9246 134.227C78.9246 134.518 79.0325 134.753 79.2484 134.931C79.4644 135.109 79.8128 135.255 80.2939 135.369L81.6803 135.687C82.4833 135.872 83.0818 136.158 83.4757 136.545C83.8697 136.931 84.0666 137.433 84.0666 138.05C84.0666 138.573 83.9151 139.039 83.6121 139.448C83.3128 139.853 82.8943 140.172 82.3564 140.403C81.8223 140.634 81.203 140.749 80.4984 140.749C79.5212 140.749 78.7238 140.541 78.1064 140.124C77.489 139.704 77.1102 139.107 76.97 138.334L78.6121 138.084C78.7144 138.513 78.9246 138.836 79.2428 139.056C79.5609 139.272 79.9757 139.38 80.4871 139.38C81.0439 139.38 81.489 139.264 81.8223 139.033C82.1556 138.798 82.3223 138.513 82.3223 138.175C82.3223 137.903 82.22 137.673 82.0155 137.488C81.8147 137.302 81.506 137.162 81.0894 137.067L79.6121 136.744C78.7977 136.558 78.1954 136.263 77.8053 135.857C77.4189 135.452 77.2257 134.939 77.2257 134.317C77.2257 133.802 77.3697 133.352 77.6575 132.965C77.9454 132.579 78.3431 132.278 78.8507 132.062C79.3583 131.842 79.9397 131.732 80.595 131.732C81.5382 131.732 82.2806 131.937 82.8223 132.346C83.364 132.751 83.7219 133.295 83.8962 133.977ZM85.9345 140.573V131.846H87.6334V140.573H85.9345ZM86.7925 130.499C86.497 130.499 86.2432 130.401 86.0311 130.204C85.8228 130.003 85.7186 129.764 85.7186 129.488C85.7186 129.208 85.8228 128.969 86.0311 128.772C86.2432 128.571 86.497 128.471 86.7925 128.471C87.0879 128.471 87.3398 128.571 87.5482 128.772C87.7603 128.969 87.8663 129.208 87.8663 129.488C87.8663 129.764 87.7603 130.003 87.5482 130.204C87.3398 130.401 87.0879 130.499 86.7925 130.499ZM91.6178 135.391V140.573H89.9189V131.846H91.5496V133.266H91.6575C91.8583 132.804 92.1727 132.433 92.6007 132.153C93.0325 131.872 93.5761 131.732 94.2314 131.732C94.8261 131.732 95.3469 131.857 95.7939 132.107C96.2409 132.353 96.5875 132.721 96.8337 133.209C97.0799 133.698 97.203 134.302 97.203 135.022V140.573H95.5041V135.227C95.5041 134.594 95.3394 134.1 95.0098 133.744C94.6803 133.384 94.2276 133.204 93.6519 133.204C93.2579 133.204 92.9075 133.289 92.6007 133.459C92.2977 133.63 92.0572 133.88 91.8791 134.209C91.7049 134.535 91.6178 134.929 91.6178 135.391ZM103.14 144.028C102.447 144.028 101.851 143.937 101.351 143.755C100.855 143.573 100.449 143.333 100.135 143.033C99.8204 142.734 99.5856 142.406 99.4303 142.05L100.89 141.448C100.993 141.615 101.129 141.791 101.3 141.977C101.474 142.166 101.709 142.327 102.004 142.459C102.303 142.592 102.688 142.658 103.158 142.658C103.801 142.658 104.334 142.501 104.754 142.187C105.175 141.876 105.385 141.38 105.385 140.698V138.982H105.277C105.175 139.168 105.027 139.374 104.834 139.602C104.644 139.829 104.383 140.026 104.05 140.192C103.716 140.359 103.283 140.442 102.748 140.442C102.059 140.442 101.438 140.281 100.885 139.959C100.336 139.634 99.9 139.155 99.578 138.522C99.2598 137.886 99.1007 137.103 99.1007 136.175C99.1007 135.247 99.2579 134.452 99.5723 133.789C99.8905 133.126 100.326 132.619 100.879 132.266C101.432 131.91 102.059 131.732 102.76 131.732C103.301 131.732 103.739 131.823 104.072 132.005C104.406 132.183 104.665 132.391 104.851 132.63C105.04 132.869 105.186 133.079 105.288 133.261H105.413V131.846H107.078V140.766C107.078 141.516 106.904 142.132 106.555 142.613C106.207 143.094 105.735 143.45 105.14 143.681C104.55 143.912 103.883 144.028 103.14 144.028ZM103.123 139.033C103.612 139.033 104.025 138.92 104.362 138.692C104.703 138.461 104.961 138.132 105.135 137.704C105.313 137.272 105.402 136.755 105.402 136.153C105.402 135.566 105.315 135.048 105.14 134.602C104.966 134.155 104.711 133.806 104.373 133.556C104.036 133.302 103.62 133.175 103.123 133.175C102.612 133.175 102.186 133.308 101.845 133.573C101.504 133.834 101.247 134.191 101.072 134.641C100.902 135.092 100.817 135.596 100.817 136.153C100.817 136.725 100.904 137.227 101.078 137.658C101.252 138.09 101.51 138.427 101.851 138.67C102.195 138.912 102.62 139.033 103.123 139.033ZM113.727 140.573V128.937H120.943V130.448H115.483V133.994H120.426V135.499H115.483V140.573H113.727ZM126.087 140.749C125.227 140.749 124.486 140.566 123.865 140.198C123.247 139.827 122.77 139.306 122.433 138.636C122.1 137.961 121.933 137.172 121.933 136.266C121.933 135.372 122.1 134.584 122.433 133.903C122.77 133.221 123.24 132.689 123.842 132.306C124.448 131.923 125.157 131.732 125.967 131.732C126.46 131.732 126.937 131.814 127.399 131.977C127.861 132.139 128.276 132.395 128.643 132.744C129.011 133.092 129.301 133.545 129.513 134.102C129.725 134.655 129.831 135.327 129.831 136.119V136.721H122.893V135.448H128.166C128.166 135.001 128.075 134.605 127.893 134.261C127.712 133.912 127.456 133.638 127.126 133.437C126.801 133.236 126.418 133.136 125.979 133.136C125.501 133.136 125.085 133.253 124.729 133.488C124.376 133.719 124.104 134.022 123.91 134.397C123.721 134.768 123.626 135.172 123.626 135.607V136.602C123.626 137.185 123.729 137.681 123.933 138.09C124.141 138.499 124.431 138.812 124.802 139.028C125.174 139.24 125.607 139.346 126.104 139.346C126.426 139.346 126.719 139.3 126.984 139.209C127.249 139.115 127.479 138.975 127.672 138.789C127.865 138.603 128.013 138.374 128.115 138.102L129.723 138.391C129.594 138.865 129.363 139.28 129.03 139.636C128.7 139.988 128.285 140.263 127.785 140.459C127.289 140.653 126.723 140.749 126.087 140.749ZM135.477 140.749C134.617 140.749 133.877 140.566 133.256 140.198C132.638 139.827 132.161 139.306 131.824 138.636C131.49 137.961 131.324 137.172 131.324 136.266C131.324 135.372 131.49 134.584 131.824 133.903C132.161 133.221 132.631 132.689 133.233 132.306C133.839 131.923 134.547 131.732 135.358 131.732C135.85 131.732 136.328 131.814 136.79 131.977C137.252 132.139 137.667 132.395 138.034 132.744C138.401 133.092 138.691 133.545 138.903 134.102C139.115 134.655 139.221 135.327 139.221 136.119V136.721H132.284V135.448H137.557C137.557 135.001 137.466 134.605 137.284 134.261C137.102 133.912 136.846 133.638 136.517 133.437C136.191 133.236 135.809 133.136 135.369 133.136C134.892 133.136 134.475 133.253 134.119 133.488C133.767 133.719 133.494 134.022 133.301 134.397C133.112 134.768 133.017 135.172 133.017 135.607V136.602C133.017 137.185 133.119 137.681 133.324 138.09C133.532 138.499 133.822 138.812 134.193 139.028C134.564 139.24 134.998 139.346 135.494 139.346C135.816 139.346 136.11 139.3 136.375 139.209C136.64 139.115 136.869 138.975 137.062 138.789C137.256 138.603 137.403 138.374 137.506 138.102L139.114 138.391C138.985 138.865 138.754 139.28 138.42 139.636C138.091 139.988 137.676 140.263 137.176 140.459C136.68 140.653 136.114 140.749 135.477 140.749ZM142.226 140.681C141.915 140.681 141.648 140.571 141.425 140.352C141.201 140.128 141.089 139.859 141.089 139.545C141.089 139.234 141.201 138.969 141.425 138.749C141.648 138.526 141.915 138.414 142.226 138.414C142.536 138.414 142.803 138.526 143.027 138.749C143.25 138.969 143.362 139.234 143.362 139.545C143.362 139.753 143.309 139.944 143.203 140.119C143.101 140.289 142.964 140.425 142.794 140.528C142.623 140.63 142.434 140.681 142.226 140.681ZM142.226 134.329C141.915 134.329 141.648 134.217 141.425 133.994C141.201 133.77 141.089 133.503 141.089 133.192C141.089 132.882 141.201 132.617 141.425 132.397C141.648 132.173 141.915 132.062 142.226 132.062C142.536 132.062 142.803 132.173 143.027 132.397C143.25 132.617 143.362 132.882 143.362 133.192C143.362 133.401 143.309 133.592 143.203 133.766C143.101 133.937 142.964 134.073 142.794 134.175C142.623 134.278 142.434 134.329 142.226 134.329Z" fill="black"/>
<g opacity="0.7">
<path d="M160.831 132.512V136.78" stroke="#292D32" stroke-width="1.92073" stroke-linecap="round" stroke-linejoin="round"/>
<path d="M160.83 143.106H155.657C152.695 143.106 151.457 140.989 152.891 138.402L155.554 133.605L158.064 129.098C159.584 126.357 162.076 126.357 163.596 129.098L166.106 133.613L168.769 138.411C170.203 140.998 168.957 143.115 166.003 143.115H160.83V143.106Z" stroke="#292D32" stroke-width="1.92073" stroke-linecap="round" stroke-linejoin="round"/>
<path d="M160.826 139.341H160.834" stroke="#292D32" stroke-width="2.56098" stroke-linecap="round" stroke-linejoin="round"/>
</g>
<path opacity="0.8" d="M347.267 145.647V127.466H348.431V145.647H347.267ZM350.91 133.105C350.834 132.432 350.522 131.912 349.973 131.542C349.423 131.168 348.732 130.981 347.899 130.981C347.302 130.981 346.786 131.076 346.35 131.265C345.915 131.45 345.576 131.706 345.335 132.032C345.098 132.354 344.98 132.721 344.98 133.133C344.98 133.479 345.06 133.777 345.221 134.028C345.387 134.279 345.602 134.49 345.868 134.66C346.137 134.826 346.426 134.966 346.734 135.079C347.042 135.188 347.338 135.278 347.622 135.349L349.042 135.718C349.506 135.832 349.982 135.986 350.47 136.18C350.958 136.374 351.41 136.63 351.826 136.947C352.243 137.264 352.579 137.657 352.835 138.126C353.095 138.595 353.225 139.156 353.225 139.809C353.225 140.633 353.012 141.365 352.586 142.004C352.165 142.643 351.552 143.147 350.747 143.517C349.947 143.886 348.978 144.071 347.842 144.071C346.753 144.071 345.811 143.898 345.015 143.552C344.22 143.207 343.597 142.717 343.147 142.082C342.698 141.443 342.449 140.685 342.402 139.809H344.603C344.646 140.335 344.816 140.773 345.115 141.123C345.418 141.469 345.804 141.727 346.272 141.897C346.746 142.063 347.264 142.146 347.828 142.146C348.448 142.146 349 142.049 349.483 141.855C349.97 141.656 350.354 141.381 350.633 141.031C350.913 140.676 351.052 140.262 351.052 139.788C351.052 139.357 350.929 139.004 350.683 138.73C350.441 138.455 350.112 138.228 349.696 138.048C349.284 137.868 348.817 137.709 348.297 137.572L346.578 137.103C345.413 136.786 344.49 136.32 343.808 135.704C343.131 135.089 342.792 134.274 342.792 133.261C342.792 132.423 343.02 131.691 343.474 131.066C343.929 130.441 344.544 129.956 345.321 129.61C346.097 129.26 346.973 129.085 347.949 129.085C348.933 129.085 349.802 129.258 350.555 129.603C351.313 129.949 351.909 130.425 352.345 131.031C352.78 131.632 353.008 132.324 353.027 133.105H350.91ZM360.713 144.071C359.591 144.066 358.632 143.77 357.837 143.183C357.041 142.596 356.433 141.741 356.011 140.619C355.59 139.497 355.379 138.145 355.379 136.564C355.379 134.987 355.59 133.64 356.011 132.522C356.438 131.405 357.048 130.553 357.844 129.966C358.644 129.378 359.6 129.085 360.713 129.085C361.826 129.085 362.78 129.381 363.575 129.973C364.371 130.56 364.979 131.412 365.401 132.53C365.827 133.642 366.04 134.987 366.04 136.564C366.04 138.15 365.829 139.504 365.408 140.626C364.986 141.744 364.378 142.598 363.582 143.19C362.787 143.777 361.83 144.071 360.713 144.071ZM360.713 142.174C361.698 142.174 362.467 141.694 363.021 140.733C363.58 139.771 363.859 138.382 363.859 136.564C363.859 135.356 363.732 134.336 363.476 133.503C363.225 132.664 362.863 132.03 362.389 131.599C361.92 131.164 361.362 130.946 360.713 130.946C359.733 130.946 358.964 131.429 358.405 132.395C357.846 133.36 357.564 134.75 357.56 136.564C357.56 137.776 357.685 138.801 357.936 139.639C358.192 140.472 358.554 141.104 359.023 141.535C359.491 141.961 360.055 142.174 360.713 142.174ZM369.46 143.964C369.071 143.964 368.737 143.827 368.458 143.552C368.179 143.273 368.039 142.937 368.039 142.544C368.039 142.155 368.179 141.824 368.458 141.549C368.737 141.27 369.071 141.13 369.46 141.13C369.848 141.13 370.182 141.27 370.461 141.549C370.74 141.824 370.88 142.155 370.88 142.544C370.88 142.804 370.814 143.043 370.681 143.261C370.553 143.474 370.383 143.645 370.17 143.772C369.957 143.9 369.72 143.964 369.46 143.964ZM378.233 144.071C377.11 144.066 376.152 143.77 375.356 143.183C374.561 142.596 373.952 141.741 373.531 140.619C373.109 139.497 372.899 138.145 372.899 136.564C372.899 134.987 373.109 133.64 373.531 132.522C373.957 131.405 374.568 130.553 375.363 129.966C376.163 129.378 377.12 129.085 378.233 129.085C379.345 129.085 380.299 129.381 381.095 129.973C381.89 130.56 382.499 131.412 382.92 132.53C383.346 133.642 383.559 134.987 383.559 136.564C383.559 138.15 383.349 139.504 382.927 140.626C382.506 141.744 381.897 142.598 381.102 143.19C380.306 143.777 379.35 144.071 378.233 144.071ZM378.233 142.174C379.217 142.174 379.987 141.694 380.541 140.733C381.1 139.771 381.379 138.382 381.379 136.564C381.379 135.356 381.251 134.336 380.995 133.503C380.744 132.664 380.382 132.03 379.909 131.599C379.44 131.164 378.881 130.946 378.233 130.946C377.252 130.946 376.483 131.429 375.924 132.395C375.366 133.36 375.084 134.75 375.079 136.564C375.079 137.776 375.205 138.801 375.456 139.639C375.711 140.472 376.074 141.104 376.542 141.535C377.011 141.961 377.574 142.174 378.233 142.174ZM391.143 144.071C390.021 144.066 389.062 143.77 388.266 143.183C387.471 142.596 386.862 141.741 386.441 140.619C386.02 139.497 385.809 138.145 385.809 136.564C385.809 134.987 386.02 133.64 386.441 132.522C386.867 131.405 387.478 130.553 388.273 129.966C389.074 129.378 390.03 129.085 391.143 129.085C392.255 129.085 393.21 129.381 394.005 129.973C394.8 130.56 395.409 131.412 395.83 132.53C396.256 133.642 396.469 134.987 396.469 136.564C396.469 138.15 396.259 139.504 395.837 140.626C395.416 141.744 394.808 142.598 394.012 143.19C393.217 143.777 392.26 144.071 391.143 144.071ZM391.143 142.174C392.128 142.174 392.897 141.694 393.451 140.733C394.01 139.771 394.289 138.382 394.289 136.564C394.289 135.356 394.161 134.336 393.906 133.503C393.655 132.664 393.292 132.03 392.819 131.599C392.35 131.164 391.791 130.946 391.143 130.946C390.163 130.946 389.393 131.429 388.835 132.395C388.276 133.36 387.994 134.75 387.989 136.564C387.989 137.776 388.115 138.801 388.366 139.639C388.621 140.472 388.984 141.104 389.452 141.535C389.921 141.961 390.485 142.174 391.143 142.174Z" fill="black"/>
</g>
<g clip-path="url(#clip1_307_37356)">
<path opacity="0.8" d="M26.505 190.183V178.546H33.8004V180.058H28.2607V183.603H33.4197V185.109H28.2607V188.671H33.8686V190.183H26.505ZM42.549 183.586L41.0092 183.859C40.9448 183.662 40.8426 183.475 40.7024 183.296C40.5661 183.118 40.3804 182.973 40.1456 182.859C39.9107 182.745 39.6172 182.689 39.2649 182.689C38.7839 182.689 38.3823 182.796 38.0604 183.012C37.7384 183.225 37.5774 183.499 37.5774 183.836C37.5774 184.128 37.6854 184.363 37.9013 184.541C38.1172 184.719 38.4657 184.865 38.9467 184.978L40.3331 185.296C41.1361 185.482 41.7346 185.768 42.1286 186.154C42.5225 186.541 42.7195 187.043 42.7195 187.66C42.7195 188.183 42.5679 188.649 42.2649 189.058C41.9657 189.463 41.5471 189.781 41.0092 190.012C40.4751 190.243 39.8558 190.359 39.1513 190.359C38.174 190.359 37.3767 190.151 36.7592 189.734C36.1418 189.314 35.763 188.717 35.6229 187.944L37.2649 187.694C37.3672 188.122 37.5774 188.446 37.8956 188.666C38.2138 188.882 38.6286 188.99 39.1399 188.99C39.6967 188.99 40.1418 188.874 40.4751 188.643C40.8085 188.408 40.9751 188.122 40.9751 187.785C40.9751 187.512 40.8729 187.283 40.6683 187.098C40.4676 186.912 40.1589 186.772 39.7422 186.677L38.2649 186.353C37.4505 186.168 36.8482 185.872 36.4581 185.467C36.0717 185.062 35.8786 184.548 35.8786 183.927C35.8786 183.412 36.0225 182.961 36.3104 182.575C36.5982 182.189 36.996 181.887 37.5036 181.671C38.0111 181.452 38.5926 181.342 39.2479 181.342C40.1911 181.342 40.9335 181.546 41.4751 181.956C42.0168 182.361 42.3748 182.904 42.549 183.586ZM48.6612 181.456V182.819H43.8942V181.456H48.6612ZM45.1726 179.365H46.8714V187.62C46.8714 187.95 46.9207 188.198 47.0192 188.365C47.1177 188.528 47.2446 188.639 47.3999 188.7C47.5589 188.757 47.7313 188.785 47.9169 188.785C48.0533 188.785 48.1726 188.776 48.2749 188.757C48.3771 188.738 48.4567 188.723 48.5135 188.711L48.8203 190.115C48.7218 190.153 48.5817 190.19 48.3999 190.228C48.218 190.27 47.9908 190.293 47.718 190.296C47.2711 190.304 46.8544 190.225 46.468 190.058C46.0817 189.891 45.7692 189.634 45.5305 189.285C45.2919 188.937 45.1726 188.499 45.1726 187.973V179.365ZM50.5405 190.183V181.456H52.2393V190.183H50.5405ZM51.3984 180.109C51.103 180.109 50.8492 180.011 50.6371 179.814C50.4287 179.613 50.3246 179.374 50.3246 179.098C50.3246 178.817 50.4287 178.579 50.6371 178.382C50.8492 178.181 51.103 178.081 51.3984 178.081C51.6939 178.081 51.9458 178.181 52.1541 178.382C52.3662 178.579 52.4723 178.817 52.4723 179.098C52.4723 179.374 52.3662 179.613 52.1541 179.814C51.9458 180.011 51.6939 180.109 51.3984 180.109ZM54.5249 190.183V181.456H56.1555V182.876H56.2635C56.4453 182.395 56.7427 182.02 57.1555 181.751C57.5684 181.478 58.0627 181.342 58.6385 181.342C59.2218 181.342 59.7105 181.478 60.1044 181.751C60.5021 182.024 60.7957 182.399 60.9851 182.876H61.076C61.2843 182.41 61.6158 182.039 62.0703 181.762C62.5249 181.482 63.0665 181.342 63.6953 181.342C64.487 181.342 65.1328 181.59 65.6328 182.086C66.1366 182.582 66.3885 183.331 66.3885 184.331V190.183H64.6896V184.49C64.6896 183.899 64.5286 183.471 64.2067 183.206C63.8847 182.94 63.5002 182.808 63.0533 182.808C62.5002 182.808 62.0703 182.978 61.7635 183.319C61.4567 183.656 61.3033 184.09 61.3033 184.62V190.183H59.6101V184.382C59.6101 183.908 59.4624 183.528 59.1669 183.24C58.8714 182.952 58.487 182.808 58.0135 182.808C57.6915 182.808 57.3942 182.893 57.1214 183.064C56.8525 183.23 56.6347 183.463 56.468 183.762C56.3052 184.062 56.2237 184.408 56.2237 184.802V190.183H54.5249ZM71.2053 190.376C70.6522 190.376 70.1522 190.274 69.7053 190.069C69.2583 189.861 68.9041 189.56 68.6428 189.166C68.3852 188.772 68.2564 188.289 68.2564 187.717C68.2564 187.225 68.3511 186.819 68.5405 186.501C68.7299 186.183 68.9856 185.931 69.3075 185.745C69.6295 185.56 69.9893 185.42 70.3871 185.325C70.7848 185.23 71.1901 185.158 71.603 185.109C72.1257 185.048 72.55 184.999 72.8757 184.961C73.2015 184.92 73.4382 184.853 73.5859 184.762C73.7337 184.671 73.8075 184.524 73.8075 184.319V184.279C73.8075 183.783 73.6674 183.399 73.3871 183.126C73.1106 182.853 72.6977 182.717 72.1484 182.717C71.5765 182.717 71.1257 182.844 70.7962 183.098C70.4704 183.348 70.245 183.626 70.12 183.933L68.5234 183.569C68.7128 183.039 68.9893 182.611 69.353 182.285C69.7204 181.956 70.1428 181.717 70.62 181.569C71.0973 181.418 71.5992 181.342 72.1257 181.342C72.4742 181.342 72.8435 181.384 73.2337 181.467C73.6276 181.546 73.995 181.694 74.3359 181.91C74.6806 182.126 74.9628 182.435 75.1825 182.836C75.4022 183.234 75.5121 183.751 75.5121 184.387V190.183H73.853V188.99H73.7848C73.675 189.209 73.5102 189.425 73.2905 189.637C73.0708 189.85 72.7886 190.026 72.4439 190.166C72.0992 190.306 71.6863 190.376 71.2053 190.376ZM71.5746 189.012C72.0443 189.012 72.4458 188.92 72.7791 188.734C73.1162 188.548 73.3719 188.306 73.5462 188.007C73.7242 187.704 73.8132 187.38 73.8132 187.035V185.91C73.7526 185.971 73.6352 186.028 73.4609 186.081C73.2905 186.13 73.0954 186.173 72.8757 186.211C72.656 186.245 72.442 186.278 72.2337 186.308C72.0253 186.334 71.8511 186.357 71.7109 186.376C71.3814 186.418 71.0803 186.488 70.8075 186.586C70.5386 186.685 70.3227 186.827 70.1598 187.012C70.0007 187.194 69.9212 187.437 69.9212 187.74C69.9212 188.16 70.0765 188.478 70.3871 188.694C70.6977 188.906 71.0935 189.012 71.5746 189.012ZM81.8487 181.456V182.819H77.0817V181.456H81.8487ZM78.3601 179.365H80.0589V187.62C80.0589 187.95 80.1082 188.198 80.2067 188.365C80.3052 188.528 80.4321 188.639 80.5874 188.7C80.7464 188.757 80.9188 188.785 81.1044 188.785C81.2408 188.785 81.3601 188.776 81.4624 188.757C81.5646 188.738 81.6442 188.723 81.701 188.711L82.0078 190.115C81.9093 190.153 81.7692 190.19 81.5874 190.228C81.4055 190.27 81.1783 190.293 80.9055 190.296C80.4586 190.304 80.0419 190.225 79.6555 190.058C79.2692 189.891 78.9567 189.634 78.718 189.285C78.4794 188.937 78.3601 188.499 78.3601 187.973V179.365ZM87.3956 190.359C86.5357 190.359 85.7952 190.175 85.174 189.808C84.5566 189.437 84.0793 188.916 83.7422 188.245C83.4089 187.571 83.2422 186.781 83.2422 185.876C83.2422 184.982 83.4089 184.194 83.7422 183.512C84.0793 182.831 84.549 182.298 85.1513 181.916C85.7573 181.533 86.4657 181.342 87.2763 181.342C87.7687 181.342 88.246 181.423 88.7081 181.586C89.1702 181.749 89.585 182.005 89.9524 182.353C90.3198 182.702 90.6096 183.154 90.8217 183.711C91.0339 184.264 91.1399 184.937 91.1399 185.728V186.331H84.2024V185.058H89.4751C89.4751 184.611 89.3842 184.215 89.2024 183.87C89.0206 183.522 88.7649 183.247 88.4354 183.046C88.1096 182.846 87.727 182.745 87.2876 182.745C86.8104 182.745 86.3937 182.863 86.0376 183.098C85.6854 183.329 85.4126 183.632 85.2195 184.007C85.0301 184.378 84.9354 184.781 84.9354 185.217V186.211C84.9354 186.795 85.0376 187.291 85.2422 187.7C85.4505 188.109 85.7403 188.421 86.1115 188.637C86.4827 188.85 86.9164 188.956 87.4126 188.956C87.7346 188.956 88.0282 188.91 88.2933 188.819C88.5585 188.725 88.7876 188.584 88.9808 188.399C89.174 188.213 89.3217 187.984 89.424 187.711L91.032 188.001C90.9032 188.475 90.6721 188.889 90.3388 189.245C90.0092 189.598 89.5945 189.872 89.0945 190.069C88.5982 190.262 88.032 190.359 87.3956 190.359ZM96.2919 190.353C95.5874 190.353 94.9586 190.173 94.4055 189.814C93.8563 189.45 93.4245 188.933 93.1101 188.262C92.7995 187.588 92.6442 186.779 92.6442 185.836C92.6442 184.893 92.8014 184.086 93.1158 183.416C93.4339 182.745 93.8696 182.232 94.4226 181.876C94.9756 181.52 95.6025 181.342 96.3033 181.342C96.8449 181.342 97.2805 181.433 97.6101 181.615C97.9434 181.793 98.201 182.001 98.3828 182.24C98.5684 182.478 98.7124 182.689 98.8146 182.87H98.9169V178.546H100.616V190.183H98.9567V188.825H98.8146C98.7124 189.011 98.5646 189.223 98.3714 189.461C98.1821 189.7 97.9207 189.908 97.5874 190.086C97.254 190.264 96.8222 190.353 96.2919 190.353ZM96.6669 188.904C97.1555 188.904 97.5684 188.776 97.9055 188.518C98.2464 188.257 98.504 187.895 98.6783 187.433C98.8563 186.971 98.9453 186.433 98.9453 185.819C98.9453 185.213 98.8582 184.683 98.6839 184.228C98.5097 183.774 98.254 183.42 97.9169 183.166C97.5798 182.912 97.1631 182.785 96.6669 182.785C96.1555 182.785 95.7294 182.918 95.3885 183.183C95.0476 183.448 94.79 183.81 94.6158 184.268C94.4453 184.726 94.3601 185.243 94.3601 185.819C94.3601 186.403 94.4472 186.927 94.6214 187.393C94.7957 187.859 95.0533 188.228 95.3942 188.501C95.7389 188.77 96.1631 188.904 96.6669 188.904ZM111.349 181.456V182.819H106.582V181.456H111.349ZM107.86 179.365H109.559V187.62C109.559 187.95 109.608 188.198 109.707 188.365C109.805 188.528 109.932 188.639 110.087 188.7C110.246 188.757 110.419 188.785 110.604 188.785C110.741 188.785 110.86 188.776 110.962 188.757C111.065 188.738 111.144 188.723 111.201 188.711L111.508 190.115C111.409 190.153 111.269 190.19 111.087 190.228C110.906 190.27 110.678 190.293 110.406 190.296C109.959 190.304 109.542 190.225 109.156 190.058C108.769 189.891 108.457 189.634 108.218 189.285C107.979 188.937 107.86 188.499 107.86 187.973V179.365ZM113.228 190.183V181.456H114.927V190.183H113.228ZM114.086 180.109C113.79 180.109 113.537 180.011 113.325 179.814C113.116 179.613 113.012 179.374 113.012 179.098C113.012 178.817 113.116 178.579 113.325 178.382C113.537 178.181 113.79 178.081 114.086 178.081C114.381 178.081 114.633 178.181 114.842 178.382C115.054 178.579 115.16 178.817 115.16 179.098C115.16 179.374 115.054 179.613 114.842 179.814C114.633 180.011 114.381 180.109 114.086 180.109ZM117.212 190.183V181.456H118.843V182.876H118.951C119.133 182.395 119.43 182.02 119.843 181.751C120.256 181.478 120.75 181.342 121.326 181.342C121.909 181.342 122.398 181.478 122.792 181.751C123.19 182.024 123.483 182.399 123.673 182.876H123.763C123.972 182.41 124.303 182.039 124.758 181.762C125.212 181.482 125.754 181.342 126.383 181.342C127.174 181.342 127.82 181.59 128.32 182.086C128.824 182.582 129.076 183.331 129.076 184.331V190.183H127.377V184.49C127.377 183.899 127.216 183.471 126.894 183.206C126.572 182.94 126.188 182.808 125.741 182.808C125.188 182.808 124.758 182.978 124.451 183.319C124.144 183.656 123.991 184.09 123.991 184.62V190.183H122.298V184.382C122.298 183.908 122.15 183.528 121.854 183.24C121.559 182.952 121.174 182.808 120.701 182.808C120.379 182.808 120.082 182.893 119.809 183.064C119.54 183.23 119.322 183.463 119.156 183.762C118.993 184.062 118.911 184.408 118.911 184.802V190.183H117.212ZM135.114 190.359C134.254 190.359 133.514 190.175 132.893 189.808C132.275 189.437 131.798 188.916 131.461 188.245C131.128 187.571 130.961 186.781 130.961 185.876C130.961 184.982 131.128 184.194 131.461 183.512C131.798 182.831 132.268 182.298 132.87 181.916C133.476 181.533 134.184 181.342 134.995 181.342C135.487 181.342 135.965 181.423 136.427 181.586C136.889 181.749 137.304 182.005 137.671 182.353C138.039 182.702 138.328 183.154 138.54 183.711C138.753 184.264 138.859 184.937 138.859 185.728V186.331H131.921V185.058H137.194C137.194 184.611 137.103 184.215 136.921 183.87C136.739 183.522 136.484 183.247 136.154 183.046C135.828 182.846 135.446 182.745 135.006 182.745C134.529 182.745 134.112 182.863 133.756 183.098C133.404 183.329 133.131 183.632 132.938 184.007C132.749 184.378 132.654 184.781 132.654 185.217V186.211C132.654 186.795 132.756 187.291 132.961 187.7C133.169 188.109 133.459 188.421 133.83 188.637C134.201 188.85 134.635 188.956 135.131 188.956C135.453 188.956 135.747 188.91 136.012 188.819C136.277 188.725 136.506 188.584 136.7 188.399C136.893 188.213 137.04 187.984 137.143 187.711L138.751 188.001C138.622 188.475 138.391 188.889 138.058 189.245C137.728 189.598 137.313 189.872 136.813 190.069C136.317 190.262 135.751 190.359 135.114 190.359ZM141.863 190.291C141.552 190.291 141.285 190.181 141.062 189.961C140.838 189.738 140.727 189.469 140.727 189.154C140.727 188.844 140.838 188.579 141.062 188.359C141.285 188.136 141.552 188.024 141.863 188.024C142.174 188.024 142.441 188.136 142.664 188.359C142.888 188.579 142.999 188.844 142.999 189.154C142.999 189.363 142.946 189.554 142.84 189.728C142.738 189.899 142.602 190.035 142.431 190.137C142.261 190.24 142.071 190.291 141.863 190.291ZM141.863 183.939C141.552 183.939 141.285 183.827 141.062 183.603C140.838 183.38 140.727 183.113 140.727 182.802C140.727 182.492 140.838 182.226 141.062 182.007C141.285 181.783 141.552 181.671 141.863 181.671C142.174 181.671 142.441 181.783 142.664 182.007C142.888 182.226 142.999 182.492 142.999 182.802C142.999 183.011 142.946 183.202 142.84 183.376C142.738 183.546 142.602 183.683 142.431 183.785C142.261 183.887 142.071 183.939 141.863 183.939Z" fill="black"/>
<g opacity="0.7">
<path d="M160.873 182.122V186.39" stroke="#292D32" stroke-width="1.92073" stroke-linecap="round" stroke-linejoin="round"/>
<path d="M160.873 192.716H155.699C152.737 192.716 151.499 190.599 152.934 188.012L155.597 183.215L158.107 178.707C159.626 175.967 162.119 175.967 163.638 178.707L166.148 183.223L168.812 188.021C170.246 190.607 168.999 192.724 166.046 192.724H160.873V192.716Z" stroke="#292D32" stroke-width="1.92073" stroke-linecap="round" stroke-linejoin="round"/>
<path d="M160.868 188.951H160.875" stroke="#292D32" stroke-width="2.56098" stroke-linecap="round" stroke-linejoin="round"/>
</g>
<path opacity="0.8" d="M335.534 178.894V193.439H333.333V181.095H333.247L329.767 183.368V181.266L333.397 178.894H335.534ZM344.533 193.68C343.411 193.676 342.452 193.38 341.656 192.793C340.861 192.206 340.253 191.351 339.831 190.229C339.41 189.107 339.199 187.755 339.199 186.173C339.199 184.597 339.41 183.25 339.831 182.132C340.257 181.015 340.868 180.162 341.664 179.575C342.464 178.988 343.42 178.695 344.533 178.695C345.646 178.695 346.6 178.991 347.395 179.582C348.191 180.17 348.799 181.022 349.22 182.139C349.647 183.252 349.86 184.597 349.86 186.173C349.86 187.76 349.649 189.114 349.227 190.236C348.806 191.353 348.198 192.208 347.402 192.8C346.607 193.387 345.65 193.68 344.533 193.68ZM344.533 191.784C345.518 191.784 346.287 191.304 346.841 190.342C347.4 189.381 347.679 187.992 347.679 186.173C347.679 184.966 347.551 183.946 347.296 183.112C347.045 182.274 346.683 181.64 346.209 181.209C345.74 180.773 345.182 180.555 344.533 180.555C343.553 180.555 342.783 181.038 342.225 182.004C341.666 182.97 341.384 184.36 341.379 186.173C341.379 187.385 341.505 188.411 341.756 189.249C342.012 190.082 342.374 190.714 342.843 191.145C343.311 191.571 343.875 191.784 344.533 191.784ZM352.408 193.439V182.53H354.446V184.305H354.581C354.808 183.704 355.18 183.235 355.696 182.899C356.212 182.558 356.83 182.388 357.55 182.388C358.279 182.388 358.89 182.558 359.382 182.899C359.879 183.24 360.246 183.709 360.483 184.305H360.596C360.857 183.723 361.271 183.259 361.839 182.913C362.408 182.563 363.085 182.388 363.871 182.388C364.86 182.388 365.667 182.698 366.292 183.318C366.922 183.938 367.237 184.874 367.237 186.124V193.439H365.114V186.322C365.114 185.584 364.912 185.049 364.51 184.717C364.107 184.386 363.627 184.22 363.068 184.22C362.377 184.22 361.839 184.433 361.456 184.859C361.072 185.281 360.881 185.823 360.881 186.486V193.439H358.764V186.188C358.764 185.596 358.579 185.12 358.21 184.76C357.841 184.4 357.36 184.22 356.768 184.22C356.366 184.22 355.994 184.327 355.653 184.54C355.317 184.748 355.045 185.039 354.837 185.413C354.633 185.787 354.531 186.221 354.531 186.713V193.439H352.408ZM370.083 193.439V182.53H372.207V193.439H370.083ZM371.156 180.847C370.786 180.847 370.469 180.724 370.204 180.477C369.944 180.226 369.813 179.928 369.813 179.582C369.813 179.232 369.944 178.934 370.204 178.688C370.469 178.437 370.786 178.311 371.156 178.311C371.525 178.311 371.84 178.437 372.1 178.688C372.366 178.934 372.498 179.232 372.498 179.582C372.498 179.928 372.366 180.226 372.1 180.477C371.84 180.724 371.525 180.847 371.156 180.847ZM377.187 186.962V193.439H375.064V182.53H377.102V184.305H377.237C377.488 183.728 377.881 183.264 378.416 182.913C378.956 182.563 379.635 182.388 380.454 182.388C381.198 182.388 381.849 182.544 382.408 182.857C382.966 183.164 383.399 183.624 383.707 184.234C384.015 184.845 384.169 185.6 384.169 186.5V193.439H382.045V186.756C382.045 185.965 381.839 185.347 381.427 184.902C381.015 184.452 380.45 184.227 379.73 184.227C379.238 184.227 378.8 184.334 378.416 184.547C378.037 184.76 377.737 185.072 377.514 185.484C377.296 185.892 377.187 186.384 377.187 186.962ZM395.192 185.193L393.267 185.534C393.186 185.288 393.059 185.054 392.883 184.831C392.713 184.608 392.481 184.426 392.187 184.284C391.894 184.142 391.527 184.071 391.087 184.071C390.485 184.071 389.983 184.206 389.581 184.476C389.178 184.741 388.977 185.084 388.977 185.506C388.977 185.87 389.112 186.164 389.382 186.386C389.652 186.609 390.087 186.791 390.689 186.933L392.422 187.331C393.426 187.563 394.174 187.92 394.666 188.403C395.158 188.886 395.405 189.514 395.405 190.286C395.405 190.939 395.215 191.521 394.837 192.033C394.462 192.539 393.939 192.937 393.267 193.226C392.599 193.515 391.825 193.659 390.944 193.659C389.723 193.659 388.726 193.399 387.954 192.878C387.183 192.352 386.709 191.607 386.534 190.641L388.587 190.328C388.714 190.863 388.977 191.268 389.375 191.543C389.773 191.813 390.291 191.947 390.93 191.947C391.626 191.947 392.183 191.803 392.599 191.514C393.016 191.221 393.224 190.863 393.224 190.442C393.224 190.101 393.096 189.814 392.841 189.582C392.59 189.35 392.204 189.175 391.683 189.057L389.837 188.652C388.819 188.42 388.066 188.051 387.578 187.544C387.095 187.037 386.854 186.396 386.854 185.619C386.854 184.975 387.033 184.412 387.393 183.929C387.753 183.446 388.25 183.07 388.885 182.8C389.519 182.525 390.246 182.388 391.065 182.388C392.244 182.388 393.172 182.644 393.849 183.155C394.526 183.662 394.974 184.341 395.192 185.193Z" fill="black"/>
</g>
<g clip-path="url(#clip2_307_37356)">
<path opacity="0.8" d="M19.4677 240.448V238.937H28.4734V240.448H24.8427V250.573H23.0927V240.448H19.4677ZM32.7376 250.749C31.9194 250.749 31.2054 250.562 30.5956 250.187C29.9857 249.812 29.5122 249.287 29.1751 248.613C28.838 247.939 28.6694 247.151 28.6694 246.249C28.6694 245.344 28.838 244.552 29.1751 243.874C29.5122 243.196 29.9857 242.67 30.5956 242.295C31.2054 241.92 31.9194 241.732 32.7376 241.732C33.5558 241.732 34.2698 241.92 34.8797 242.295C35.4895 242.67 35.963 243.196 36.3001 243.874C36.6372 244.552 36.8058 245.344 36.8058 246.249C36.8058 247.151 36.6372 247.939 36.3001 248.613C35.963 249.287 35.4895 249.812 34.8797 250.187C34.2698 250.562 33.5558 250.749 32.7376 250.749ZM32.7433 249.323C33.2736 249.323 33.713 249.183 34.0615 248.903C34.41 248.622 34.6675 248.249 34.8342 247.783C35.0047 247.318 35.0899 246.804 35.0899 246.244C35.0899 245.687 35.0047 245.176 34.8342 244.71C34.6675 244.24 34.41 243.863 34.0615 243.579C33.713 243.295 33.2736 243.153 32.7433 243.153C32.2092 243.153 31.766 243.295 31.4138 243.579C31.0653 243.863 30.8058 244.24 30.6353 244.71C30.4687 245.176 30.3853 245.687 30.3853 246.244C30.3853 246.804 30.4687 247.318 30.6353 247.783C30.8058 248.249 31.0653 248.622 31.4138 248.903C31.766 249.183 32.2092 249.323 32.7433 249.323ZM42.776 241.846V243.21H38.0089V241.846H42.776ZM39.2873 239.755H40.9862V248.011C40.9862 248.34 41.0354 248.588 41.1339 248.755C41.2324 248.918 41.3593 249.03 41.5146 249.09C41.6737 249.147 41.846 249.176 42.0316 249.176C42.168 249.176 42.2873 249.166 42.3896 249.147C42.4919 249.128 42.5714 249.113 42.6282 249.102L42.9351 250.505C42.8366 250.543 42.6964 250.581 42.5146 250.619C42.3328 250.66 42.1055 250.683 41.8328 250.687C41.3858 250.694 40.9691 250.615 40.5828 250.448C40.1964 250.282 39.8839 250.024 39.6453 249.676C39.4066 249.327 39.2873 248.89 39.2873 248.363V239.755ZM47.195 250.766C46.642 250.766 46.142 250.664 45.695 250.46C45.248 250.251 44.8939 249.95 44.6325 249.556C44.3749 249.162 44.2461 248.679 44.2461 248.107C44.2461 247.615 44.3408 247.21 44.5302 246.891C44.7196 246.573 44.9753 246.321 45.2973 246.136C45.6192 245.95 45.9791 245.81 46.3768 245.715C46.7745 245.621 47.1799 245.549 47.5927 245.499C48.1155 245.439 48.5397 245.39 48.8655 245.352C49.1912 245.31 49.428 245.244 49.5757 245.153C49.7234 245.062 49.7973 244.914 49.7973 244.71V244.67C49.7973 244.174 49.6571 243.789 49.3768 243.516C49.1003 243.244 48.6874 243.107 48.1382 243.107C47.5662 243.107 47.1155 243.234 46.7859 243.488C46.4602 243.738 46.2348 244.016 46.1098 244.323L44.5132 243.96C44.7026 243.429 44.9791 243.001 45.3427 242.676C45.7102 242.346 46.1325 242.107 46.6098 241.96C47.087 241.808 47.5889 241.732 48.1155 241.732C48.4639 241.732 48.8333 241.774 49.2234 241.857C49.6174 241.937 49.9848 242.085 50.3257 242.301C50.6704 242.516 50.9526 242.825 51.1723 243.227C51.392 243.624 51.5018 244.141 51.5018 244.778V250.573H49.8427V249.38H49.7745C49.6647 249.6 49.4999 249.816 49.2802 250.028C49.0605 250.24 48.7783 250.416 48.4336 250.556C48.0889 250.696 47.6761 250.766 47.195 250.766ZM47.5643 249.403C48.034 249.403 48.4355 249.31 48.7689 249.124C49.106 248.939 49.3617 248.696 49.5359 248.397C49.7139 248.094 49.803 247.77 49.803 247.426V246.301C49.7424 246.361 49.6249 246.418 49.4507 246.471C49.2802 246.52 49.0852 246.564 48.8655 246.602C48.6458 246.636 48.4317 246.668 48.2234 246.698C48.0151 246.725 47.8408 246.747 47.7007 246.766C47.3711 246.808 47.07 246.878 46.7973 246.977C46.5283 247.075 46.3124 247.217 46.1495 247.403C45.9905 247.585 45.9109 247.827 45.9109 248.13C45.9109 248.551 46.0662 248.869 46.3768 249.085C46.6874 249.297 47.0833 249.403 47.5643 249.403ZM55.4635 238.937V250.573H53.7646V238.937H55.4635Z" fill="black"/>
<g opacity="0.8">
<path d="M274.344 246.115V247.57H259.502V246.115H274.344ZM274.344 249.258V250.713H259.502V249.258H274.344ZM272.94 240.673V255.573H270.866L263.293 244.645H263.162V255.573H260.906V240.673H262.994L270.568 251.615H270.706V240.673H272.94ZM281.118 255.777C280.206 255.777 279.386 255.602 278.658 255.253C277.936 254.899 277.359 254.414 276.927 253.798C276.495 253.182 276.265 252.479 276.236 251.688H278.418C278.472 252.328 278.755 252.855 279.27 253.267C279.784 253.679 280.4 253.885 281.118 253.885C281.69 253.885 282.197 253.754 282.638 253.492C283.084 253.226 283.434 252.859 283.686 252.394C283.943 251.928 284.071 251.397 284.071 250.801C284.071 250.194 283.94 249.653 283.679 249.178C283.417 248.703 283.055 248.329 282.594 248.058C282.139 247.786 281.615 247.648 281.023 247.643C280.572 247.643 280.118 247.721 279.662 247.876C279.207 248.031 278.838 248.235 278.557 248.487L276.498 248.181L277.334 240.673H285.527V242.601H279.204L278.731 246.77H278.819C279.11 246.489 279.495 246.253 279.975 246.064C280.46 245.875 280.979 245.78 281.532 245.78C282.439 245.78 283.247 245.996 283.955 246.428C284.668 246.86 285.228 247.449 285.636 248.196C286.048 248.938 286.252 249.792 286.247 250.757C286.252 251.722 286.033 252.583 285.592 253.34C285.155 254.096 284.549 254.693 283.773 255.129C283.002 255.561 282.117 255.777 281.118 255.777ZM294.092 255.821C292.942 255.816 291.96 255.513 291.145 254.911C290.33 254.31 289.707 253.434 289.275 252.285C288.844 251.135 288.628 249.75 288.628 248.13C288.628 246.515 288.844 245.135 289.275 243.991C289.712 242.846 290.337 241.973 291.152 241.371C291.972 240.77 292.952 240.469 294.092 240.469C295.231 240.469 296.209 240.772 297.024 241.379C297.838 241.98 298.462 242.853 298.893 243.998C299.33 245.138 299.548 246.515 299.548 248.13C299.548 249.755 299.332 251.142 298.901 252.292C298.469 253.437 297.846 254.312 297.031 254.918C296.216 255.52 295.236 255.821 294.092 255.821ZM294.092 253.878C295.1 253.878 295.889 253.386 296.456 252.401C297.028 251.417 297.315 249.993 297.315 248.13C297.315 246.894 297.184 245.848 296.922 244.995C296.665 244.136 296.294 243.486 295.809 243.045C295.328 242.599 294.756 242.375 294.092 242.375C293.088 242.375 292.299 242.87 291.727 243.86C291.155 244.849 290.866 246.273 290.861 248.13C290.861 249.372 290.99 250.422 291.247 251.281C291.509 252.134 291.88 252.782 292.36 253.223C292.84 253.66 293.417 253.878 294.092 253.878ZM304.448 253.536L304.339 254.329C304.266 254.911 304.143 255.517 303.968 256.148C303.798 256.783 303.621 257.373 303.437 257.916C303.258 258.459 303.11 258.891 302.993 259.211H301.451C301.514 258.91 301.601 258.503 301.713 257.989C301.824 257.479 301.933 256.91 302.04 256.279C302.147 255.648 302.227 255.006 302.28 254.351L302.353 253.536H304.448ZM312.138 255.821C310.989 255.816 310.007 255.513 309.192 254.911C308.377 254.31 307.754 253.434 307.322 252.285C306.89 251.135 306.675 249.75 306.675 248.13C306.675 246.515 306.89 245.135 307.322 243.991C307.759 242.846 308.384 241.973 309.199 241.371C310.019 240.77 310.999 240.469 312.138 240.469C313.278 240.469 314.256 240.772 315.07 241.379C315.885 241.98 316.509 242.853 316.94 243.998C317.377 245.138 317.595 246.515 317.595 248.13C317.595 249.755 317.379 251.142 316.948 252.292C316.516 253.437 315.893 254.312 315.078 254.918C314.263 255.52 313.283 255.821 312.138 255.821ZM312.138 253.878C313.147 253.878 313.936 253.386 314.503 252.401C315.075 251.417 315.362 249.993 315.362 248.13C315.362 246.894 315.231 245.848 314.969 244.995C314.712 244.136 314.341 243.486 313.855 243.045C313.375 242.599 312.803 242.375 312.138 242.375C311.134 242.375 310.346 242.87 309.774 243.86C309.202 244.849 308.913 246.273 308.908 248.13C308.908 249.372 309.037 250.422 309.294 251.281C309.556 252.134 309.927 252.782 310.407 253.223C310.887 253.66 311.464 253.878 312.138 253.878ZM325.364 255.821C324.214 255.816 323.232 255.513 322.417 254.911C321.602 254.31 320.979 253.434 320.547 252.285C320.115 251.135 319.9 249.75 319.9 248.13C319.9 246.515 320.115 245.135 320.547 243.991C320.984 242.846 321.609 241.973 322.424 241.371C323.244 240.77 324.224 240.469 325.364 240.469C326.503 240.469 327.481 240.772 328.296 241.379C329.11 241.98 329.734 242.853 330.165 243.998C330.602 245.138 330.82 246.515 330.82 248.13C330.82 249.755 330.604 251.142 330.173 252.292C329.741 253.437 329.118 254.312 328.303 254.918C327.488 255.52 326.508 255.821 325.364 255.821ZM325.364 253.878C326.372 253.878 327.161 253.386 327.728 252.401C328.3 251.417 328.587 249.993 328.587 248.13C328.587 246.894 328.456 245.848 328.194 244.995C327.937 244.136 327.566 243.486 327.081 243.045C326.6 242.599 326.028 242.375 325.364 242.375C324.359 242.375 323.571 242.87 322.999 243.86C322.427 244.849 322.138 246.273 322.133 248.13C322.133 249.372 322.262 250.422 322.519 251.281C322.781 252.134 323.152 252.782 323.632 253.223C324.112 253.66 324.689 253.878 325.364 253.878ZM338.589 255.821C337.439 255.816 336.457 255.513 335.642 254.911C334.827 254.31 334.204 253.434 333.772 252.285C333.34 251.135 333.125 249.75 333.125 248.13C333.125 246.515 333.34 245.135 333.772 243.991C334.209 242.846 334.834 241.973 335.649 241.371C336.469 240.77 337.449 240.469 338.589 240.469C339.728 240.469 340.706 240.772 341.521 241.379C342.335 241.98 342.959 242.853 343.39 243.998C343.827 245.138 344.045 246.515 344.045 248.13C344.045 249.755 343.829 251.142 343.398 252.292C342.966 253.437 342.343 254.312 341.528 254.918C340.713 255.52 339.733 255.821 338.589 255.821ZM338.589 253.878C339.597 253.878 340.386 253.386 340.953 252.401C341.525 251.417 341.812 249.993 341.812 248.13C341.812 246.894 341.681 245.848 341.419 244.995C341.162 244.136 340.791 243.486 340.306 243.045C339.825 242.599 339.253 242.375 338.589 242.375C337.585 242.375 336.796 242.87 336.224 243.86C335.652 244.849 335.363 246.273 335.358 248.13C335.358 249.372 335.487 250.422 335.744 251.281C336.006 252.134 336.377 252.782 336.857 253.223C337.337 253.66 337.914 253.878 338.589 253.878Z" fill="black"/>
<path d="M364.278 240.673V255.573H362.212L354.638 244.645H354.5V255.573H352.252V240.673H354.333L361.914 251.615H362.052V240.673H364.278ZM370.635 255.821C369.927 255.821 369.287 255.69 368.715 255.428C368.142 255.161 367.689 254.775 367.354 254.271C367.024 253.766 366.859 253.148 366.859 252.416C366.859 251.785 366.981 251.266 367.223 250.859C367.466 250.451 367.793 250.129 368.205 249.891C368.618 249.653 369.078 249.474 369.588 249.353C370.097 249.231 370.616 249.139 371.145 249.076C371.814 248.999 372.357 248.936 372.774 248.887C373.191 248.834 373.495 248.749 373.684 248.632C373.873 248.516 373.967 248.327 373.967 248.065V248.014C373.967 247.379 373.788 246.886 373.429 246.537C373.075 246.188 372.546 246.013 371.843 246.013C371.111 246.013 370.533 246.176 370.111 246.501C369.694 246.821 369.406 247.177 369.246 247.57L367.201 247.105C367.444 246.426 367.798 245.877 368.263 245.46C368.734 245.038 369.275 244.733 369.886 244.544C370.497 244.35 371.14 244.253 371.814 244.253C372.26 244.253 372.733 244.306 373.233 244.413C373.737 244.514 374.208 244.704 374.644 244.98C375.085 245.257 375.447 245.652 375.728 246.166C376.009 246.675 376.15 247.337 376.15 248.152V255.573H374.026V254.045H373.938C373.798 254.327 373.587 254.603 373.305 254.875C373.024 255.146 372.663 255.372 372.221 255.551C371.78 255.731 371.251 255.821 370.635 255.821ZM371.108 254.074C371.71 254.074 372.224 253.956 372.651 253.718C373.082 253.48 373.41 253.17 373.633 252.787C373.861 252.399 373.975 251.984 373.975 251.543V250.102C373.897 250.18 373.747 250.252 373.524 250.32C373.305 250.383 373.056 250.439 372.774 250.488C372.493 250.531 372.219 250.573 371.952 250.611C371.685 250.645 371.462 250.674 371.283 250.699C370.861 250.752 370.475 250.842 370.126 250.968C369.782 251.094 369.505 251.276 369.297 251.514C369.093 251.746 368.991 252.057 368.991 252.445C368.991 252.983 369.19 253.391 369.588 253.667C369.985 253.939 370.492 254.074 371.108 254.074ZM379.048 255.573V244.398H381.223V255.573H379.048ZM380.146 242.674C379.768 242.674 379.443 242.548 379.171 242.295C378.905 242.038 378.771 241.733 378.771 241.379C378.771 241.02 378.905 240.714 379.171 240.462C379.443 240.205 379.768 240.076 380.146 240.076C380.525 240.076 380.847 240.205 381.114 240.462C381.385 240.714 381.521 241.02 381.521 241.379C381.521 241.733 381.385 242.038 381.114 242.295C380.847 242.548 380.525 242.674 380.146 242.674ZM384.15 255.573V244.398H386.252V246.173H386.369C386.572 245.572 386.931 245.099 387.445 244.755C387.964 244.405 388.551 244.231 389.206 244.231C389.342 244.231 389.502 244.236 389.686 244.245C389.875 244.255 390.023 244.267 390.13 244.282V246.362C390.043 246.338 389.887 246.312 389.664 246.282C389.441 246.248 389.218 246.232 388.995 246.232C388.481 246.232 388.023 246.341 387.62 246.559C387.222 246.772 386.907 247.071 386.674 247.454C386.441 247.832 386.325 248.264 386.325 248.749V255.573H384.15ZM395.165 255.821C394.456 255.821 393.816 255.69 393.244 255.428C392.672 255.161 392.218 254.775 391.883 254.271C391.554 253.766 391.389 253.148 391.389 252.416C391.389 251.785 391.51 251.266 391.752 250.859C391.995 250.451 392.322 250.129 392.735 249.891C393.147 249.653 393.608 249.474 394.117 249.353C394.626 249.231 395.145 249.139 395.674 249.076C396.343 248.999 396.887 248.936 397.304 248.887C397.721 248.834 398.024 248.749 398.213 248.632C398.402 248.516 398.497 248.327 398.497 248.065V248.014C398.497 247.379 398.317 246.886 397.958 246.537C397.604 246.188 397.076 246.013 396.372 246.013C395.64 246.013 395.063 246.176 394.641 246.501C394.224 246.821 393.935 247.177 393.775 247.57L391.731 247.105C391.973 246.426 392.327 245.877 392.793 245.46C393.263 245.038 393.804 244.733 394.415 244.544C395.026 244.35 395.669 244.253 396.343 244.253C396.79 244.253 397.262 244.306 397.762 244.413C398.266 244.514 398.737 244.704 399.173 244.98C399.615 245.257 399.976 245.652 400.257 246.166C400.539 246.675 400.679 247.337 400.679 248.152V255.573H398.555V254.045H398.468C398.327 254.327 398.116 254.603 397.835 254.875C397.553 255.146 397.192 255.372 396.751 255.551C396.309 255.731 395.781 255.821 395.165 255.821ZM395.638 254.074C396.239 254.074 396.753 253.956 397.18 253.718C397.612 253.48 397.939 253.17 398.162 252.787C398.39 252.399 398.504 251.984 398.504 251.543V250.102C398.426 250.18 398.276 250.252 398.053 250.32C397.835 250.383 397.585 250.439 397.304 250.488C397.022 250.531 396.748 250.573 396.482 250.611C396.215 250.645 395.992 250.674 395.812 250.699C395.39 250.752 395.005 250.842 394.655 250.968C394.311 251.094 394.035 251.276 393.826 251.514C393.622 251.746 393.52 252.057 393.52 252.445C393.52 252.983 393.719 253.391 394.117 253.667C394.515 253.939 395.022 254.074 395.638 254.074Z" fill="#5B5B5B"/>
</g>
</g>
<path d="M18.7632 223.152H403.08V222.384H18.7632V223.152Z" fill="black" mask="url(#path-16-inside-1_307_37356)"/>
<rect x="1.04992" y="0.128049" width="419.744" height="298.732" rx="12.6768" stroke="#F3A615" stroke-width="0.256098"/>
<defs>
<clipPath id="clip0_307_37356">
<rect width="374.915" height="24" fill="white" transform="translate(23.4644 124.829)"/>
</clipPath>
<clipPath id="clip1_307_37356">
<rect width="371.39" height="24" fill="white" transform="translate(25.2266 174.439)"/>
</clipPath>
<clipPath id="clip2_307_37356">
<rect width="384.317" height="25" fill="white" transform="translate(18.7632 235.573)"/>
</clipPath>
</defs>
</svg>
