<svg width="25" height="24" viewBox="0 0 25 24" fill="none" xmlns="http://www.w3.org/2000/svg">
<path d="M15.5 22.75C15.23 22.75 14.98 22.6 14.85 22.37C14.72 22.14 14.72 21.85 14.86 21.62L15.91 19.87C16.12 19.51 16.58 19.4 16.94 19.61C17.3 19.82 17.41 20.28 17.2 20.64L16.93 21.09C19.69 20.44 21.76 17.96 21.76 15C21.76 14.59 22.1 14.25 22.51 14.25C22.92 14.25 23.26 14.59 23.26 15C23.25 19.27 19.77 22.75 15.5 22.75Z" fill="#F3A715"/>
<path d="M2.5 9.75C2.09 9.75 1.75 9.41 1.75 9C1.75 4.73 5.23 1.25 9.5 1.25C9.77 1.25 10.02 1.4 10.15 1.63C10.28 1.86 10.28 2.15 10.14 2.38L9.09 4.14C8.88 4.49 8.42 4.61 8.06 4.39C7.71 4.18 7.59 3.72 7.81 3.36L8.08 2.91C5.31 3.56 3.25 6.04 3.25 9C3.25 9.41 2.91 9.75 2.5 9.75Z" fill="#F3A715"/>
<path d="M11.17 13.85L8.03001 12.16C7.70001 11.98 7.30001 11.98 6.97001 12.16L3.83001 13.85C3.60001 13.97 3.46001 14.22 3.46001 14.49C3.46001 14.76 3.60001 15.01 3.83001 15.13L6.97001 16.82C7.14001 16.91 7.32001 16.95 7.50001 16.95C7.68001 16.95 7.86001 16.91 8.03001 16.82L11.17 15.13C11.4 15.01 11.54 14.76 11.54 14.49C11.54 14.22 11.39 13.98 11.17 13.85Z" fill="#F3A715"/>
<path d="M6.45 17.41L3.53 15.95C3.31 15.84 3.05 15.85 2.83 15.98C2.63 16.11 2.5 16.34 2.5 16.59V19.35C2.5 19.83 2.76 20.26 3.19 20.47L6.11 21.93C6.21 21.97 6.32 22 6.43 22C6.56 22 6.69 21.96 6.81 21.89C7.02 21.76 7.15 21.53 7.15 21.28V18.52C7.15 18.05 6.88 17.62 6.45 17.41Z" fill="#F3A715"/>
<path d="M12.16 15.98C11.95 15.85 11.69 15.84 11.46 15.95L8.54001 17.41C8.11001 17.62 7.85001 18.05 7.85001 18.53V21.29C7.85001 21.54 7.98001 21.77 8.19001 21.9C8.31001 21.96 8.44001 22 8.57001 22C8.68001 22 8.79001 21.97 8.89001 21.92L11.81 20.46C12.24 20.25 12.5 19.82 12.5 19.34V16.58C12.5 16.34 12.37 16.11 12.16 15.98Z" fill="#F3A715"/>
<path d="M21.17 3.83L18.03 2.14C17.7 1.96 17.3 1.96 16.97 2.14L13.83 3.83C13.6 3.95 13.46 4.2 13.46 4.47C13.46 4.74 13.6 4.99001 13.83 5.11L16.97 6.8C17.14 6.89001 17.32 6.93 17.5 6.93C17.68 6.93 17.86 6.89001 18.03 6.8L21.17 5.11C21.4 4.99001 21.54 4.74 21.54 4.47C21.54 4.19 21.39 3.95 21.17 3.83Z" fill="#F3A715"/>
<path d="M16.45 7.37999L13.53 5.91999C13.31 5.80999 13.05 5.81999 12.83 5.94999C12.63 6.07999 12.5 6.30999 12.5 6.55999V9.31999C12.5 9.79999 12.76 10.23 13.19 10.44L16.11 11.9C16.21 11.95 16.32 11.98 16.43 11.98C16.56 11.98 16.69 11.94 16.81 11.87C17.02 11.74 17.15 11.51 17.15 11.26V8.49999C17.15 8.01999 16.88 7.58999 16.45 7.37999Z" fill="#F3A715"/>
<path d="M22.16 5.94999C21.95 5.81999 21.69 5.80999 21.46 5.91999L18.54 7.37999C18.11 7.58999 17.85 8.01999 17.85 8.49999V11.26C17.85 11.51 17.98 11.74 18.19 11.87C18.31 11.94 18.44 11.98 18.57 11.98C18.68 11.98 18.79 11.95 18.89 11.9L21.81 10.44C22.24 10.22 22.5 9.78999 22.5 9.31999V6.55999C22.5 6.30999 22.37 6.07999 22.16 5.94999Z" fill="#F3A715"/>
</svg>
