<svg width="352" height="89" viewBox="0 0 352 89" fill="none" xmlns="http://www.w3.org/2000/svg">
<g filter="url(#filter0_dd_307_36718)">
<rect x="12.9238" y="0.199219" width="327" height="64" rx="10" fill="white"/>
<path d="M35.6738 36.1192H36.3238C36.9738 36.1192 37.5138 35.5392 37.5138 34.8392C37.5138 33.9692 37.2038 33.7992 36.6938 33.6192L35.6838 33.2692V36.1192H35.6738Z" fill="#313131"/>
<path d="M34.8939 22.0992C29.3739 22.1192 24.9039 26.6092 24.9239 32.1292C24.9439 37.6492 29.4339 42.1192 34.9539 42.0992C40.4739 42.0792 44.9439 37.5892 44.9239 32.0692C44.9039 26.5492 40.4139 22.0892 34.8939 22.0992ZM37.1839 32.1992C37.9639 32.4692 39.0139 33.0492 39.0139 34.8392C39.0139 36.3792 37.8039 37.6192 36.3239 37.6192H35.6739V38.1992C35.6739 38.6092 35.3339 38.9492 34.9239 38.9492C34.5139 38.9492 34.1739 38.6092 34.1739 38.1992V37.6192H33.8139C32.1739 37.6192 30.8439 36.2392 30.8439 34.5392C30.8439 34.1292 31.1839 33.7892 31.5939 33.7892C32.0039 33.7892 32.3439 34.1292 32.3439 34.5392C32.3439 35.4092 33.0039 36.1192 33.8139 36.1192H34.1739V32.7392L32.6639 32.1992C31.8839 31.9292 30.8339 31.3492 30.8339 29.5592C30.8339 28.0192 32.0439 26.7792 33.5239 26.7792H34.1739V26.1992C34.1739 25.7892 34.5139 25.4492 34.9239 25.4492C35.3339 25.4492 35.6739 25.7892 35.6739 26.1992V26.7792H36.0339C37.6739 26.7792 39.0039 28.1592 39.0039 29.8592C39.0039 30.2692 38.6639 30.6092 38.2539 30.6092C37.8439 30.6092 37.5039 30.2692 37.5039 29.8592C37.5039 28.9892 36.8439 28.2792 36.0339 28.2792H35.6739V31.6592L37.1839 32.1992Z" fill="#313131"/>
<path d="M32.3438 29.5692C32.3438 30.4392 32.6537 30.6092 33.1637 30.7892L34.1737 31.1392V28.2792H33.5238C32.8738 28.2792 32.3438 28.8592 32.3438 29.5692Z" fill="#313131"/>
<path opacity="0.8" d="M73.867 29.8469H72.0943C72.0261 29.4682 71.8992 29.1348 71.7136 28.8469C71.528 28.5591 71.3007 28.3147 71.0318 28.114C70.7628 27.9132 70.4617 27.7617 70.1284 27.6594C69.7988 27.5572 69.4484 27.506 69.0772 27.506C68.4068 27.506 67.8064 27.6746 67.2761 28.0117C66.7496 28.3488 66.3329 28.8432 66.0261 29.4947C65.7231 30.1462 65.5716 30.9416 65.5716 31.881C65.5716 32.828 65.7231 33.6272 66.0261 34.2788C66.3329 34.9303 66.7515 35.4227 67.2818 35.756C67.8121 36.0894 68.4087 36.256 69.0716 36.256C69.439 36.256 69.7875 36.2068 70.117 36.1083C70.4503 36.006 70.7515 35.8564 71.0204 35.6594C71.2894 35.4625 71.5166 35.2219 71.7022 34.9379C71.8916 34.65 72.0223 34.3204 72.0943 33.9492L73.867 33.9549C73.7723 34.5269 73.5886 35.0534 73.3159 35.5344C73.0469 36.0117 72.7003 36.4246 72.2761 36.7731C71.8556 37.1178 71.3746 37.3848 70.8329 37.5742C70.2913 37.7636 69.7003 37.8583 69.0602 37.8583C68.0526 37.8583 67.1549 37.6197 66.367 37.1424C65.5791 36.6613 64.9579 35.9738 64.5034 35.0799C64.0526 34.186 63.8272 33.1197 63.8272 31.881C63.8272 30.6386 64.0545 29.5723 64.5091 28.6822C64.9636 27.7882 65.5848 27.1026 66.3727 26.6254C67.1606 26.1443 68.0564 25.9038 69.0602 25.9038C69.6776 25.9038 70.2534 25.9928 70.7875 26.1708C71.3253 26.3451 71.8083 26.6026 72.2363 26.9435C72.6644 27.2807 73.0185 27.6935 73.2988 28.1822C73.5791 28.667 73.7685 29.2219 73.867 29.8469ZM81.3599 34.0799V28.9719H83.0645V37.6992H81.394V36.1879H81.3031C81.1023 36.6538 80.7804 37.042 80.3372 37.3526C79.8978 37.6594 79.3504 37.8129 78.6951 37.8129C78.1345 37.8129 77.6383 37.6897 77.2065 37.4435C76.7785 37.1935 76.4413 36.8242 76.1951 36.3356C75.9527 35.8469 75.8315 35.2428 75.8315 34.5231V28.9719H77.5304V34.3185C77.5304 34.9132 77.6951 35.3867 78.0247 35.739C78.3542 36.0913 78.7823 36.2674 79.3088 36.2674C79.627 36.2674 79.9432 36.1879 80.2576 36.0288C80.5758 35.8697 80.8391 35.6291 81.0474 35.3072C81.2595 34.9852 81.3637 34.5761 81.3599 34.0799ZM85.3471 37.6992V28.9719H86.9892V30.3583H87.0801C87.2392 29.8886 87.5195 29.5193 87.921 29.2504C88.3263 28.9776 88.7846 28.8413 89.296 28.8413C89.402 28.8413 89.527 28.8451 89.671 28.8526C89.8187 28.8602 89.9342 28.8697 90.0176 28.881V30.506C89.9494 30.4871 89.8282 30.4663 89.6539 30.4435C89.4797 30.417 89.3055 30.4038 89.1312 30.4038C88.7297 30.4038 88.3717 30.489 88.0574 30.6594C87.7467 30.8261 87.5005 31.0591 87.3187 31.3583C87.1369 31.6538 87.046 31.9909 87.046 32.3697V37.6992H85.3471ZM91.4877 37.6992V28.9719H93.1298V30.3583H93.2207C93.3798 29.8886 93.6601 29.5193 94.0616 29.2504C94.4669 28.9776 94.9252 28.8413 95.4366 28.8413C95.5427 28.8413 95.6677 28.8451 95.8116 28.8526C95.9593 28.8602 96.0749 28.8697 96.1582 28.881V30.506C96.09 30.4871 95.9688 30.4663 95.7946 30.4435C95.6203 30.417 95.4461 30.4038 95.2718 30.4038C94.8703 30.4038 94.5124 30.489 94.198 30.6594C93.8874 30.8261 93.6412 31.0591 93.4593 31.3583C93.2775 31.6538 93.1866 31.9909 93.1866 32.3697V37.6992H91.4877ZM101.077 37.8754C100.217 37.8754 99.4769 37.6916 98.8556 37.3242C98.2382 36.953 97.7609 36.4322 97.4238 35.7617C97.0905 35.0875 96.9238 34.2977 96.9238 33.3924C96.9238 32.4985 97.0905 31.7106 97.4238 31.0288C97.7609 30.3469 98.2306 29.8147 98.8329 29.4322C99.439 29.0496 100.147 28.8583 100.958 28.8583C101.45 28.8583 101.928 28.9397 102.39 29.1026C102.852 29.2655 103.267 29.5212 103.634 29.8697C104.001 30.2182 104.291 30.6708 104.503 31.2276C104.715 31.7807 104.822 32.453 104.822 33.2447V33.8469H97.8841V32.5742H103.157C103.157 32.1272 103.066 31.7314 102.884 31.3867C102.702 31.0382 102.447 30.7636 102.117 30.5629C101.791 30.3621 101.409 30.2617 100.969 30.2617C100.492 30.2617 100.075 30.3791 99.7193 30.614C99.367 30.8451 99.0943 31.1481 98.9011 31.5231C98.7117 31.8943 98.617 32.2977 98.617 32.7333V33.7276C98.617 34.311 98.7193 34.8072 98.9238 35.2163C99.1322 35.6254 99.4219 35.9379 99.7931 36.1538C100.164 36.3659 100.598 36.4719 101.094 36.4719C101.416 36.4719 101.71 36.4265 101.975 36.3356C102.24 36.2409 102.469 36.1007 102.662 35.9151C102.856 35.7295 103.003 35.5004 103.106 35.2276L104.714 35.5174C104.585 35.9909 104.354 36.4057 104.02 36.7617C103.691 37.114 103.276 37.3886 102.776 37.5856C102.28 37.7788 101.714 37.8754 101.077 37.8754ZM108.405 32.5174V37.6992H106.706V28.9719H108.337V30.3924H108.445C108.646 29.9303 108.96 29.5591 109.388 29.2788C109.82 28.9985 110.364 28.8583 111.019 28.8583C111.614 28.8583 112.135 28.9833 112.581 29.2333C113.028 29.4795 113.375 29.8469 113.621 30.3356C113.867 30.8242 113.991 31.4284 113.991 32.1481V37.6992H112.292V32.3526C112.292 31.7201 112.127 31.2257 111.797 30.8697C111.468 30.5098 111.015 30.3299 110.439 30.3299C110.046 30.3299 109.695 30.4151 109.388 30.5856C109.085 30.756 108.845 31.006 108.667 31.3356C108.492 31.6613 108.405 32.0553 108.405 32.5174ZM119.945 37.8754C119.1 37.8754 118.373 37.6841 117.763 37.3015C117.157 36.9151 116.691 36.3829 116.366 35.7049C116.04 35.0269 115.877 34.2504 115.877 33.3754C115.877 32.489 116.044 31.7068 116.377 31.0288C116.71 30.3469 117.18 29.8147 117.786 29.4322C118.392 29.0496 119.106 28.8583 119.928 28.8583C120.591 28.8583 121.182 28.9814 121.701 29.2276C122.22 29.4701 122.638 29.811 122.956 30.2504C123.278 30.6897 123.47 31.203 123.53 31.7901H121.877C121.786 31.381 121.578 31.0288 121.252 30.7333C120.93 30.4379 120.498 30.2901 119.956 30.2901C119.483 30.2901 119.068 30.4151 118.712 30.6651C118.36 30.9113 118.085 31.2636 117.888 31.7219C117.691 32.1765 117.593 32.7144 117.593 33.3356C117.593 33.9719 117.689 34.5212 117.883 34.9833C118.076 35.4454 118.349 35.8034 118.701 36.0572C119.057 36.311 119.475 36.4379 119.956 36.4379C120.278 36.4379 120.57 36.3791 120.831 36.2617C121.097 36.1405 121.318 35.9682 121.496 35.7447C121.678 35.5212 121.805 35.2522 121.877 34.9379H123.53C123.47 35.5022 123.286 36.006 122.979 36.4492C122.672 36.8924 122.261 37.2409 121.746 37.4947C121.235 37.7485 120.635 37.8754 119.945 37.8754ZM126.421 40.9719C126.167 40.9719 125.936 40.9511 125.728 40.9094C125.519 40.8716 125.364 40.8299 125.262 40.7844L125.671 39.3924C125.982 39.4757 126.258 39.5117 126.501 39.5004C126.743 39.489 126.957 39.3981 127.143 39.2276C127.332 39.0572 127.499 38.7788 127.643 38.3924L127.853 37.8129L124.66 28.9719H126.478L128.688 35.7447H128.779L130.989 28.9719H132.813L129.216 38.864C129.05 39.3185 128.838 39.703 128.58 40.0174C128.323 40.3356 128.016 40.5742 127.66 40.7333C127.304 40.8924 126.891 40.9719 126.421 40.9719Z" fill="black"/>
<path d="M319.89 26.9192L324.237 31.2659C324.75 31.7792 324.75 32.6192 324.237 33.1326L319.89 37.4792" stroke="#292D32" stroke-width="2" stroke-miterlimit="10" stroke-linecap="round" stroke-linejoin="round"/>
</g>
<defs>
<filter id="filter0_dd_307_36718" x="0.923828" y="0.199219" width="351" height="88" filterUnits="userSpaceOnUse" color-interpolation-filters="sRGB">
<feFlood flood-opacity="0" result="BackgroundImageFix"/>
<feColorMatrix in="SourceAlpha" type="matrix" values="0 0 0 0 0 0 0 0 0 0 0 0 0 0 0 0 0 0 127 0" result="hardAlpha"/>
<feMorphology radius="2" operator="erode" in="SourceAlpha" result="effect1_dropShadow_307_36718"/>
<feOffset dy="4"/>
<feGaussianBlur stdDeviation="3"/>
<feColorMatrix type="matrix" values="0 0 0 0 0.0627451 0 0 0 0 0.0941176 0 0 0 0 0.156863 0 0 0 0.03 0"/>
<feBlend mode="normal" in2="BackgroundImageFix" result="effect1_dropShadow_307_36718"/>
<feColorMatrix in="SourceAlpha" type="matrix" values="0 0 0 0 0 0 0 0 0 0 0 0 0 0 0 0 0 0 127 0" result="hardAlpha"/>
<feMorphology radius="4" operator="erode" in="SourceAlpha" result="effect2_dropShadow_307_36718"/>
<feOffset dy="12"/>
<feGaussianBlur stdDeviation="8"/>
<feColorMatrix type="matrix" values="0 0 0 0 0.0627451 0 0 0 0 0.0941176 0 0 0 0 0.156863 0 0 0 0.08 0"/>
<feBlend mode="normal" in2="effect1_dropShadow_307_36718" result="effect2_dropShadow_307_36718"/>
<feBlend mode="normal" in="SourceGraphic" in2="effect2_dropShadow_307_36718" result="shape"/>
</filter>
</defs>
</svg>
