<svg width="327" height="43" viewBox="0 0 327 43" fill="none" xmlns="http://www.w3.org/2000/svg">
<rect x="0.000244141" width="327" height="43" rx="4" fill="#F7F7F7"/>
<g filter="url(#filter0_dd_307_36924)">
<rect x="3.00024" y="4" width="72" height="35" rx="4" fill="white"/>
<path opacity="0.8" d="M25.0457 27H21.2787V15.3636H25.165C26.3052 15.3636 27.2843 15.5966 28.1025 16.0625C28.9207 16.5246 29.5476 17.1894 29.9832 18.0568C30.4226 18.9205 30.6423 19.9564 30.6423 21.1648C30.6423 22.3769 30.4207 23.4186 29.9775 24.2898C29.5381 25.161 28.9018 25.8314 28.0684 26.3011C27.2351 26.767 26.2275 27 25.0457 27ZM23.0343 25.4659H24.9491C25.8355 25.4659 26.5722 25.2992 27.1593 24.9659C27.7465 24.6288 28.1859 24.142 28.4775 23.5057C28.7692 22.8655 28.915 22.0852 28.915 21.1648C28.915 20.2519 28.7692 19.4773 28.4775 18.8409C28.1896 18.2045 27.7597 17.7216 27.1877 17.392C26.6158 17.0625 25.9055 16.8977 25.0571 16.8977H23.0343V25.4659ZM35.2289 27.1932C34.6759 27.1932 34.1759 27.0909 33.7289 26.8864C33.282 26.678 32.9278 26.3769 32.6664 25.983C32.4089 25.589 32.2801 25.1061 32.2801 24.5341C32.2801 24.0417 32.3748 23.6364 32.5642 23.3182C32.7536 23 33.0092 22.7481 33.3312 22.5625C33.6532 22.3769 34.013 22.2367 34.4108 22.142C34.8085 22.0473 35.2138 21.9754 35.6267 21.9261C36.1494 21.8655 36.5736 21.8163 36.8994 21.7784C37.2251 21.7367 37.4619 21.6705 37.6096 21.5795C37.7573 21.4886 37.8312 21.3409 37.8312 21.1364V21.0966C37.8312 20.6004 37.6911 20.2159 37.4108 19.9432C37.1342 19.6705 36.7214 19.5341 36.1721 19.5341C35.6001 19.5341 35.1494 19.661 34.8198 19.9148C34.4941 20.1648 34.2687 20.4432 34.1437 20.75L32.5471 20.3864C32.7365 19.8561 33.013 19.428 33.3767 19.1023C33.7441 18.7727 34.1664 18.5341 34.6437 18.3864C35.121 18.2348 35.6229 18.1591 36.1494 18.1591C36.4979 18.1591 36.8672 18.2008 37.2573 18.2841C37.6513 18.3636 38.0187 18.5114 38.3596 18.7273C38.7043 18.9432 38.9865 19.2519 39.2062 19.6534C39.4259 20.0511 39.5358 20.5682 39.5358 21.2045V27H37.8767V25.8068H37.8085C37.6986 26.0265 37.5339 26.2424 37.3142 26.4545C37.0945 26.6667 36.8123 26.8428 36.4676 26.983C36.1229 27.1231 35.71 27.1932 35.2289 27.1932ZM35.5983 25.8295C36.068 25.8295 36.4695 25.7367 36.8028 25.5511C37.1399 25.3655 37.3956 25.1231 37.5698 24.8239C37.7479 24.5208 37.8369 24.197 37.8369 23.8523V22.7273C37.7763 22.7879 37.6589 22.8447 37.4846 22.8977C37.3142 22.947 37.1191 22.9905 36.8994 23.0284C36.6797 23.0625 36.4657 23.0947 36.2573 23.125C36.049 23.1515 35.8748 23.1742 35.7346 23.1932C35.4051 23.2348 35.1039 23.3049 34.8312 23.4034C34.5623 23.5019 34.3464 23.6439 34.1835 23.8295C34.0244 24.0114 33.9448 24.2538 33.9448 24.5568C33.9448 24.9773 34.1001 25.2955 34.4108 25.5114C34.7214 25.7235 35.1172 25.8295 35.5983 25.8295ZM41.7985 27V18.2727H43.4974V27H41.7985ZM42.6565 16.9261C42.361 16.9261 42.1073 16.8277 41.8951 16.6307C41.6868 16.4299 41.5826 16.1913 41.5826 15.9148C41.5826 15.6345 41.6868 15.3958 41.8951 15.1989C42.1073 14.9981 42.361 14.8977 42.6565 14.8977C42.9519 14.8977 43.2038 14.9981 43.4122 15.1989C43.6243 15.3958 43.7304 15.6345 43.7304 15.9148C43.7304 16.1913 43.6243 16.4299 43.4122 16.6307C43.2038 16.8277 42.9519 16.9261 42.6565 16.9261ZM47.4818 15.3636V27H45.7829V15.3636H47.4818ZM50.8412 30.2727C50.5874 30.2727 50.3563 30.2519 50.148 30.2102C49.9396 30.1723 49.7843 30.1307 49.6821 30.0852L50.0912 28.6932C50.4018 28.7765 50.6783 28.8125 50.9207 28.8011C51.1631 28.7898 51.3771 28.6989 51.5627 28.5284C51.7521 28.358 51.9188 28.0795 52.0627 27.6932L52.273 27.1136L49.0798 18.2727H50.898L53.1082 25.0455H53.1991L55.4093 18.2727H57.2332L53.6366 28.1648C53.4699 28.6193 53.2578 29.0038 53.0002 29.3182C52.7427 29.6364 52.4359 29.875 52.0798 30.0341C51.7237 30.1932 51.3109 30.2727 50.8412 30.2727Z" fill="black"/>
</g>
<g filter="url(#filter1_dd_307_36924)">
<path opacity="0.8" d="M97.5571 27L94.3298 15.3636H96.1764L98.4434 24.375H98.5514L100.909 15.3636H102.739L105.097 24.3807H105.205L107.466 15.3636H109.318L106.085 27H104.318L101.87 18.2841H101.779L99.3298 27H97.5571ZM113.685 27.1761C112.825 27.1761 112.085 26.9924 111.463 26.625C110.846 26.2538 110.369 25.733 110.031 25.0625C109.698 24.3883 109.531 23.5985 109.531 22.6932C109.531 21.7992 109.698 21.0114 110.031 20.3295C110.369 19.6477 110.838 19.1155 111.441 18.733C112.047 18.3504 112.755 18.1591 113.566 18.1591C114.058 18.1591 114.535 18.2405 114.997 18.4034C115.46 18.5663 115.874 18.822 116.242 19.1705C116.609 19.5189 116.899 19.9716 117.111 20.5284C117.323 21.0814 117.429 21.7538 117.429 22.5455V23.1477H110.492V21.875H115.764C115.764 21.428 115.674 21.0322 115.492 20.6875C115.31 20.339 115.054 20.0644 114.725 19.8636C114.399 19.6629 114.016 19.5625 113.577 19.5625C113.1 19.5625 112.683 19.6799 112.327 19.9148C111.975 20.1458 111.702 20.4489 111.509 20.8239C111.319 21.1951 111.225 21.5985 111.225 22.0341V23.0284C111.225 23.6117 111.327 24.108 111.531 24.517C111.74 24.9261 112.03 25.2386 112.401 25.4545C112.772 25.6667 113.206 25.7727 113.702 25.7727C114.024 25.7727 114.317 25.7273 114.583 25.6364C114.848 25.5417 115.077 25.4015 115.27 25.2159C115.463 25.0303 115.611 24.8011 115.713 24.5284L117.321 24.8182C117.192 25.2917 116.961 25.7064 116.628 26.0625C116.299 26.4148 115.884 26.6894 115.384 26.8864C114.888 27.0795 114.321 27.1761 113.685 27.1761ZM123.076 27.1761C122.216 27.1761 121.475 26.9924 120.854 26.625C120.237 26.2538 119.759 25.733 119.422 25.0625C119.089 24.3883 118.922 23.5985 118.922 22.6932C118.922 21.7992 119.089 21.0114 119.422 20.3295C119.759 19.6477 120.229 19.1155 120.831 18.733C121.437 18.3504 122.146 18.1591 122.956 18.1591C123.449 18.1591 123.926 18.2405 124.388 18.4034C124.85 18.5663 125.265 18.822 125.632 19.1705C126 19.5189 126.29 19.9716 126.502 20.5284C126.714 21.0814 126.82 21.7538 126.82 22.5455V23.1477H119.882V21.875H125.155C125.155 21.428 125.064 21.0322 124.882 20.6875C124.701 20.339 124.445 20.0644 124.115 19.8636C123.79 19.6629 123.407 19.5625 122.968 19.5625C122.49 19.5625 122.074 19.6799 121.718 19.9148C121.365 20.1458 121.093 20.4489 120.899 20.8239C120.71 21.1951 120.615 21.5985 120.615 22.0341V23.0284C120.615 23.6117 120.718 24.108 120.922 24.517C121.13 24.9261 121.42 25.2386 121.791 25.4545C122.163 25.6667 122.596 25.7727 123.093 25.7727C123.415 25.7727 123.708 25.7273 123.973 25.6364C124.238 25.5417 124.468 25.4015 124.661 25.2159C124.854 25.0303 125.002 24.8011 125.104 24.5284L126.712 24.8182C126.583 25.2917 126.352 25.7064 126.019 26.0625C125.689 26.4148 125.274 26.6894 124.774 26.8864C124.278 27.0795 123.712 27.1761 123.076 27.1761ZM130.267 24.0398L130.256 21.9659H130.551L134.029 18.2727H136.063L132.097 22.4773H131.83L130.267 24.0398ZM128.705 27V15.3636H130.404V27H128.705ZM134.216 27L131.091 22.8523L132.262 21.6648L136.301 27H134.216ZM139.31 15.3636V27H137.611V15.3636H139.31ZM142.669 30.2727C142.415 30.2727 142.184 30.2519 141.976 30.2102C141.768 30.1723 141.612 30.1307 141.51 30.0852L141.919 28.6932C142.23 28.7765 142.506 28.8125 142.749 28.8011C142.991 28.7898 143.205 28.6989 143.391 28.5284C143.58 28.358 143.747 28.0795 143.891 27.6932L144.101 27.1136L140.908 18.2727H142.726L144.936 25.0455H145.027L147.237 18.2727H149.061L145.465 28.1648C145.298 28.6193 145.086 29.0038 144.828 29.3182C144.571 29.6364 144.264 29.875 143.908 30.0341C143.552 30.1932 143.139 30.2727 142.669 30.2727Z" fill="black"/>
</g>
<g filter="url(#filter2_dd_307_36924)">
<path opacity="0.8" d="M174.779 15.3636H176.909L180.614 24.4091H180.75L184.455 15.3636H186.585V27H184.915V18.5795H184.807L181.375 26.983H179.989L176.557 18.5739H176.449V27H174.779V15.3636ZM192.678 27.1761C191.86 27.1761 191.146 26.9886 190.536 26.6136C189.926 26.2386 189.452 25.714 189.115 25.0398C188.778 24.3655 188.61 23.5777 188.61 22.6761C188.61 21.7708 188.778 20.9792 189.115 20.3011C189.452 19.6231 189.926 19.0966 190.536 18.7216C191.146 18.3466 191.86 18.1591 192.678 18.1591C193.496 18.1591 194.21 18.3466 194.82 18.7216C195.43 19.0966 195.903 19.6231 196.24 20.3011C196.577 20.9792 196.746 21.7708 196.746 22.6761C196.746 23.5777 196.577 24.3655 196.24 25.0398C195.903 25.714 195.43 26.2386 194.82 26.6136C194.21 26.9886 193.496 27.1761 192.678 27.1761ZM192.683 25.75C193.214 25.75 193.653 25.6098 194.002 25.3295C194.35 25.0492 194.608 24.6761 194.774 24.2102C194.945 23.7443 195.03 23.2311 195.03 22.6705C195.03 22.1136 194.945 21.6023 194.774 21.1364C194.608 20.6667 194.35 20.2898 194.002 20.0057C193.653 19.7216 193.214 19.5795 192.683 19.5795C192.149 19.5795 191.706 19.7216 191.354 20.0057C191.005 20.2898 190.746 20.6667 190.576 21.1364C190.409 21.6023 190.326 22.1136 190.326 22.6705C190.326 23.2311 190.409 23.7443 190.576 24.2102C190.746 24.6761 191.005 25.0492 191.354 25.3295C191.706 25.6098 192.149 25.75 192.683 25.75ZM200.341 21.8182V27H198.642V18.2727H200.273V19.6932H200.381C200.582 19.2311 200.896 18.8598 201.324 18.5795C201.756 18.2992 202.299 18.1591 202.955 18.1591C203.549 18.1591 204.07 18.2841 204.517 18.5341C204.964 18.7803 205.311 19.1477 205.557 19.6364C205.803 20.125 205.926 20.7292 205.926 21.4489V27H204.228V21.6534C204.228 21.0208 204.063 20.5265 203.733 20.1705C203.404 19.8106 202.951 19.6307 202.375 19.6307C201.981 19.6307 201.631 19.7159 201.324 19.8864C201.021 20.0568 200.781 20.3068 200.603 20.6364C200.428 20.9621 200.341 21.3561 200.341 21.8182ZM212.279 18.2727V19.6364H207.512V18.2727H212.279ZM208.79 16.1818H210.489V24.4375C210.489 24.767 210.538 25.0152 210.637 25.1818C210.735 25.3447 210.862 25.4564 211.017 25.517C211.176 25.5739 211.349 25.6023 211.534 25.6023C211.671 25.6023 211.79 25.5928 211.892 25.5739C211.995 25.5549 212.074 25.5398 212.131 25.5284L212.438 26.9318C212.339 26.9697 212.199 27.0076 212.017 27.0455C211.835 27.0871 211.608 27.1098 211.335 27.1136C210.889 27.1212 210.472 27.0417 210.085 26.875C209.699 26.7083 209.387 26.4508 209.148 26.1023C208.909 25.7538 208.79 25.3163 208.79 24.7898V16.1818ZM216.044 21.8182V27H214.345V15.3636H216.022V19.6932H216.13C216.334 19.2235 216.647 18.8504 217.067 18.5739C217.487 18.2973 218.037 18.1591 218.715 18.1591C219.313 18.1591 219.836 18.2822 220.283 18.5284C220.734 18.7746 221.082 19.142 221.328 19.6307C221.578 20.1155 221.703 20.7216 221.703 21.4489V27H220.005V21.6534C220.005 21.0133 219.84 20.517 219.51 20.1648C219.181 19.8087 218.722 19.6307 218.135 19.6307C217.734 19.6307 217.374 19.7159 217.056 19.8864C216.741 20.0568 216.493 20.3068 216.311 20.6364C216.133 20.9621 216.044 21.3561 216.044 21.8182ZM225.669 15.3636V27H223.97V15.3636H225.669ZM229.029 30.2727C228.775 30.2727 228.544 30.2519 228.335 30.2102C228.127 30.1723 227.972 30.1307 227.87 30.0852L228.279 28.6932C228.589 28.7765 228.866 28.8125 229.108 28.8011C229.351 28.7898 229.565 28.6989 229.75 28.5284C229.94 28.358 230.106 28.0795 230.25 27.6932L230.46 27.1136L227.267 18.2727H229.085L231.296 25.0455H231.387L233.597 18.2727H235.421L231.824 28.1648C231.657 28.6193 231.445 29.0038 231.188 29.3182C230.93 29.6364 230.623 29.875 230.267 30.0341C229.911 30.1932 229.498 30.2727 229.029 30.2727Z" fill="black"/>
</g>
<g filter="url(#filter3_dd_307_36924)">
<path opacity="0.8" d="M264.381 15.3636H266.375L269.415 20.6534H269.54L272.58 15.3636H274.574L270.353 22.4318V27H268.603V22.4318L264.381 15.3636ZM278.419 27.1761C277.559 27.1761 276.819 26.9924 276.198 26.625C275.58 26.2538 275.103 25.733 274.766 25.0625C274.433 24.3883 274.266 23.5985 274.266 22.6932C274.266 21.7992 274.433 21.0114 274.766 20.3295C275.103 19.6477 275.573 19.1155 276.175 18.733C276.781 18.3504 277.489 18.1591 278.3 18.1591C278.792 18.1591 279.27 18.2405 279.732 18.4034C280.194 18.5663 280.609 18.822 280.976 19.1705C281.344 19.5189 281.633 19.9716 281.845 20.5284C282.058 21.0814 282.164 21.7538 282.164 22.5455V23.1477H275.226V21.875H280.499C280.499 21.428 280.408 21.0322 280.226 20.6875C280.044 20.339 279.789 20.0644 279.459 19.8636C279.133 19.6629 278.751 19.5625 278.311 19.5625C277.834 19.5625 277.417 19.6799 277.061 19.9148C276.709 20.1458 276.436 20.4489 276.243 20.8239C276.054 21.1951 275.959 21.5985 275.959 22.0341V23.0284C275.959 23.6117 276.061 24.108 276.266 24.517C276.474 24.9261 276.764 25.2386 277.135 25.4545C277.506 25.6667 277.94 25.7727 278.436 25.7727C278.758 25.7727 279.052 25.7273 279.317 25.6364C279.582 25.5417 279.811 25.4015 280.005 25.2159C280.198 25.0303 280.345 24.8011 280.448 24.5284L282.056 24.8182C281.927 25.2917 281.696 25.7064 281.362 26.0625C281.033 26.4148 280.618 26.6894 280.118 26.8864C279.622 27.0795 279.056 27.1761 278.419 27.1761ZM286.588 27.1932C286.035 27.1932 285.535 27.0909 285.088 26.8864C284.641 26.678 284.287 26.3769 284.026 25.983C283.768 25.589 283.639 25.1061 283.639 24.5341C283.639 24.0417 283.734 23.6364 283.924 23.3182C284.113 23 284.369 22.7481 284.691 22.5625C285.013 22.3769 285.372 22.2367 285.77 22.142C286.168 22.0473 286.573 21.9754 286.986 21.9261C287.509 21.8655 287.933 21.8163 288.259 21.7784C288.585 21.7367 288.821 21.6705 288.969 21.5795C289.117 21.4886 289.191 21.3409 289.191 21.1364V21.0966C289.191 20.6004 289.05 20.2159 288.77 19.9432C288.494 19.6705 288.081 19.5341 287.531 19.5341C286.96 19.5341 286.509 19.661 286.179 19.9148C285.853 20.1648 285.628 20.4432 285.503 20.75L283.906 20.3864C284.096 19.8561 284.372 19.428 284.736 19.1023C285.103 18.7727 285.526 18.5341 286.003 18.3864C286.48 18.2348 286.982 18.1591 287.509 18.1591C287.857 18.1591 288.227 18.2008 288.617 18.2841C289.011 18.3636 289.378 18.5114 289.719 18.7273C290.064 18.9432 290.346 19.2519 290.566 19.6534C290.785 20.0511 290.895 20.5682 290.895 21.2045V27H289.236V25.8068H289.168C289.058 26.0265 288.893 26.2424 288.674 26.4545C288.454 26.6667 288.172 26.8428 287.827 26.983C287.482 27.1231 287.069 27.1932 286.588 27.1932ZM286.958 25.8295C287.427 25.8295 287.829 25.7367 288.162 25.5511C288.499 25.3655 288.755 25.1231 288.929 24.8239C289.107 24.5208 289.196 24.197 289.196 23.8523V22.7273C289.136 22.7879 289.018 22.8447 288.844 22.8977C288.674 22.947 288.478 22.9905 288.259 23.0284C288.039 23.0625 287.825 23.0947 287.617 23.125C287.408 23.1515 287.234 23.1742 287.094 23.1932C286.764 23.2348 286.463 23.3049 286.191 23.4034C285.922 23.5019 285.706 23.6439 285.543 23.8295C285.384 24.0114 285.304 24.2538 285.304 24.5568C285.304 24.9773 285.46 25.2955 285.77 25.5114C286.081 25.7235 286.477 25.8295 286.958 25.8295ZM293.158 27V18.2727H294.8V19.6591H294.891C295.05 19.1894 295.33 18.8201 295.732 18.5511C296.137 18.2784 296.595 18.142 297.107 18.142C297.213 18.142 297.338 18.1458 297.482 18.1534C297.63 18.161 297.745 18.1705 297.828 18.1818V19.8068C297.76 19.7879 297.639 19.767 297.465 19.7443C297.29 19.7178 297.116 19.7045 296.942 19.7045C296.54 19.7045 296.183 19.7898 295.868 19.9602C295.558 20.1269 295.311 20.3598 295.13 20.6591C294.948 20.9545 294.857 21.2917 294.857 21.6705V27H293.158ZM300.997 15.3636V27H299.299V15.3636H300.997ZM304.357 30.2727C304.103 30.2727 303.872 30.2519 303.664 30.2102C303.455 30.1723 303.3 30.1307 303.198 30.0852L303.607 28.6932C303.917 28.7765 304.194 28.8125 304.436 28.8011C304.679 28.7898 304.893 28.6989 305.078 28.5284C305.268 28.358 305.434 28.0795 305.578 27.6932L305.789 27.1136L302.595 18.2727H304.414L306.624 25.0455H306.715L308.925 18.2727H310.749L307.152 28.1648C306.986 28.6193 306.773 29.0038 306.516 29.3182C306.258 29.6364 305.951 29.875 305.595 30.0341C305.239 30.1932 304.826 30.2727 304.357 30.2727Z" fill="black"/>
</g>
<defs>
<filter id="filter0_dd_307_36924" x="0.000244141" y="2" width="78" height="41" filterUnits="userSpaceOnUse" color-interpolation-filters="sRGB">
<feFlood flood-opacity="0" result="BackgroundImageFix"/>
<feColorMatrix in="SourceAlpha" type="matrix" values="0 0 0 0 0 0 0 0 0 0 0 0 0 0 0 0 0 0 127 0" result="hardAlpha"/>
<feOffset dy="1"/>
<feGaussianBlur stdDeviation="1"/>
<feColorMatrix type="matrix" values="0 0 0 0 0.0627451 0 0 0 0 0.0941176 0 0 0 0 0.156863 0 0 0 0.06 0"/>
<feBlend mode="normal" in2="BackgroundImageFix" result="effect1_dropShadow_307_36924"/>
<feColorMatrix in="SourceAlpha" type="matrix" values="0 0 0 0 0 0 0 0 0 0 0 0 0 0 0 0 0 0 127 0" result="hardAlpha"/>
<feOffset dy="1"/>
<feGaussianBlur stdDeviation="1.5"/>
<feColorMatrix type="matrix" values="0 0 0 0 0.0627451 0 0 0 0 0.0941176 0 0 0 0 0.156863 0 0 0 0.1 0"/>
<feBlend mode="normal" in2="effect1_dropShadow_307_36924" result="effect2_dropShadow_307_36924"/>
<feBlend mode="normal" in="SourceGraphic" in2="effect2_dropShadow_307_36924" result="shape"/>
</filter>
<filter id="filter1_dd_307_36924" x="83.0002" y="2" width="78" height="41" filterUnits="userSpaceOnUse" color-interpolation-filters="sRGB">
<feFlood flood-opacity="0" result="BackgroundImageFix"/>
<feColorMatrix in="SourceAlpha" type="matrix" values="0 0 0 0 0 0 0 0 0 0 0 0 0 0 0 0 0 0 127 0" result="hardAlpha"/>
<feOffset dy="1"/>
<feGaussianBlur stdDeviation="1"/>
<feColorMatrix type="matrix" values="0 0 0 0 0.0627451 0 0 0 0 0.0941176 0 0 0 0 0.156863 0 0 0 0.06 0"/>
<feBlend mode="normal" in2="BackgroundImageFix" result="effect1_dropShadow_307_36924"/>
<feColorMatrix in="SourceAlpha" type="matrix" values="0 0 0 0 0 0 0 0 0 0 0 0 0 0 0 0 0 0 127 0" result="hardAlpha"/>
<feOffset dy="1"/>
<feGaussianBlur stdDeviation="1.5"/>
<feColorMatrix type="matrix" values="0 0 0 0 0.0627451 0 0 0 0 0.0941176 0 0 0 0 0.156863 0 0 0 0.1 0"/>
<feBlend mode="normal" in2="effect1_dropShadow_307_36924" result="effect2_dropShadow_307_36924"/>
<feBlend mode="normal" in="SourceGraphic" in2="effect2_dropShadow_307_36924" result="shape"/>
</filter>
<filter id="filter2_dd_307_36924" x="166" y="2" width="78" height="41" filterUnits="userSpaceOnUse" color-interpolation-filters="sRGB">
<feFlood flood-opacity="0" result="BackgroundImageFix"/>
<feColorMatrix in="SourceAlpha" type="matrix" values="0 0 0 0 0 0 0 0 0 0 0 0 0 0 0 0 0 0 127 0" result="hardAlpha"/>
<feOffset dy="1"/>
<feGaussianBlur stdDeviation="1"/>
<feColorMatrix type="matrix" values="0 0 0 0 0.0627451 0 0 0 0 0.0941176 0 0 0 0 0.156863 0 0 0 0.06 0"/>
<feBlend mode="normal" in2="BackgroundImageFix" result="effect1_dropShadow_307_36924"/>
<feColorMatrix in="SourceAlpha" type="matrix" values="0 0 0 0 0 0 0 0 0 0 0 0 0 0 0 0 0 0 127 0" result="hardAlpha"/>
<feOffset dy="1"/>
<feGaussianBlur stdDeviation="1.5"/>
<feColorMatrix type="matrix" values="0 0 0 0 0.0627451 0 0 0 0 0.0941176 0 0 0 0 0.156863 0 0 0 0.1 0"/>
<feBlend mode="normal" in2="effect1_dropShadow_307_36924" result="effect2_dropShadow_307_36924"/>
<feBlend mode="normal" in="SourceGraphic" in2="effect2_dropShadow_307_36924" result="shape"/>
</filter>
<filter id="filter3_dd_307_36924" x="249" y="2" width="78" height="41" filterUnits="userSpaceOnUse" color-interpolation-filters="sRGB">
<feFlood flood-opacity="0" result="BackgroundImageFix"/>
<feColorMatrix in="SourceAlpha" type="matrix" values="0 0 0 0 0 0 0 0 0 0 0 0 0 0 0 0 0 0 127 0" result="hardAlpha"/>
<feOffset dy="1"/>
<feGaussianBlur stdDeviation="1"/>
<feColorMatrix type="matrix" values="0 0 0 0 0.0627451 0 0 0 0 0.0941176 0 0 0 0 0.156863 0 0 0 0.06 0"/>
<feBlend mode="normal" in2="BackgroundImageFix" result="effect1_dropShadow_307_36924"/>
<feColorMatrix in="SourceAlpha" type="matrix" values="0 0 0 0 0 0 0 0 0 0 0 0 0 0 0 0 0 0 127 0" result="hardAlpha"/>
<feOffset dy="1"/>
<feGaussianBlur stdDeviation="1.5"/>
<feColorMatrix type="matrix" values="0 0 0 0 0.0627451 0 0 0 0 0.0941176 0 0 0 0 0.156863 0 0 0 0.1 0"/>
<feBlend mode="normal" in2="effect1_dropShadow_307_36924" result="effect2_dropShadow_307_36924"/>
<feBlend mode="normal" in="SourceGraphic" in2="effect2_dropShadow_307_36924" result="shape"/>
</filter>
</defs>
</svg>
