<svg width="25" height="25" viewBox="0 0 25 25" fill="none" xmlns="http://www.w3.org/2000/svg">
<g clip-path="url(#clip0_307_36764)">
<path d="M20.7389 4.75672C19.1829 4.04256 17.5409 3.53331 15.8539 3.24172C15.8385 3.23872 15.8225 3.24069 15.8083 3.24734C15.7941 3.25399 15.7824 3.26498 15.7749 3.27872C15.5649 3.65372 15.3309 4.14272 15.1669 4.52872C13.3483 4.2525 11.4984 4.2525 9.67987 4.52872C9.49735 4.10102 9.29137 3.68372 9.06287 3.27872C9.05499 3.26529 9.04322 3.25456 9.02911 3.24795C9.01501 3.24135 8.99923 3.23918 8.98387 3.24172C7.29672 3.5327 5.6546 4.04198 4.09887 4.75672C4.0857 4.76225 4.07453 4.77167 4.06687 4.78372C0.954867 9.43272 0.101867 13.9667 0.520867 18.4437C0.521885 18.4548 0.525159 18.4656 0.53049 18.4754C0.53582 18.4852 0.543094 18.4938 0.551867 18.5007C2.36346 19.8429 4.38998 20.8675 6.54487 21.5307C6.56006 21.5351 6.57622 21.5348 6.59123 21.5298C6.60623 21.5248 6.61935 21.5154 6.62887 21.5027C7.09213 20.8732 7.50221 20.2062 7.85487 19.5087C7.85978 19.4992 7.86262 19.4887 7.86319 19.478C7.86376 19.4672 7.86206 19.4565 7.85818 19.4465C7.85431 19.4365 7.84836 19.4274 7.84072 19.4199C7.83308 19.4123 7.82393 19.4065 7.81387 19.4027C7.16729 19.1553 6.54133 18.857 5.94187 18.5107C5.93088 18.5044 5.92163 18.4954 5.91495 18.4846C5.90826 18.4738 5.90435 18.4615 5.90356 18.4489C5.90277 18.4362 5.90512 18.4235 5.91041 18.412C5.9157 18.4004 5.92376 18.3904 5.93387 18.3827C6.06011 18.2883 6.18414 18.1909 6.30587 18.0907C6.31652 18.0821 6.32935 18.0766 6.34295 18.0748C6.35655 18.073 6.37037 18.0751 6.38287 18.0807C10.3109 19.8737 14.5629 19.8737 18.4449 18.0807C18.4575 18.0749 18.4715 18.0727 18.4853 18.0745C18.4991 18.0763 18.5121 18.0819 18.5229 18.0907C18.6429 18.1887 18.7689 18.2887 18.8959 18.3827C18.9059 18.3903 18.9139 18.4001 18.9192 18.4115C18.9245 18.4228 18.927 18.4353 18.9264 18.4478C18.9258 18.4603 18.9222 18.4725 18.9158 18.4833C18.9094 18.4941 18.9005 18.5031 18.8899 18.5097C18.2918 18.8593 17.6652 19.1577 17.0169 19.4017C17.0068 19.4056 16.9976 19.4115 16.99 19.4192C16.9823 19.4268 16.9764 19.436 16.9725 19.4461C16.9686 19.4562 16.9669 19.467 16.9675 19.4778C16.9681 19.4886 16.9709 19.4991 16.9759 19.5087C17.3359 20.2067 17.7479 20.8707 18.2009 21.5017C18.2102 21.5146 18.2233 21.5242 18.2384 21.5292C18.2534 21.5342 18.2697 21.5344 18.2849 21.5297C20.4434 20.8686 22.4732 19.8438 24.2869 18.4997C24.2957 18.4935 24.3031 18.4854 24.3086 18.4761C24.3141 18.4668 24.3176 18.4565 24.3189 18.4457C24.8189 13.2687 23.4809 8.77172 20.7699 4.78572C20.7635 4.77228 20.7525 4.76261 20.7389 4.75672ZM8.44187 15.7167C7.25887 15.7167 6.28487 14.6317 6.28487 13.2977C6.28487 11.9647 7.24087 10.8787 8.44187 10.8787C9.65187 10.8787 10.6179 11.9747 10.5989 13.2987C10.5989 14.6317 9.64287 15.7167 8.44187 15.7167ZM16.4169 15.7167C15.2339 15.7167 14.2599 14.6317 14.2599 13.2977C14.2599 11.9647 15.2149 10.8787 16.4169 10.8787C17.6269 10.8787 18.5929 11.9747 18.5739 13.2987C18.5739 14.6317 17.6279 15.7167 16.4169 15.7167Z" fill="black"/>
</g>
<defs>
<clipPath id="clip0_307_36764">
<rect width="24" height="24" fill="white" transform="translate(0.421875 0.386719)"/>
</clipPath>
</defs>
</svg>
