<svg width="103" height="40" viewBox="0 0 103 40" fill="none" xmlns="http://www.w3.org/2000/svg">
<rect width="103" height="40" rx="6" fill="#F3A615"/>
<path d="M21.344 16.64V19.44H25.104V21.216H21.344V24.176H25.584V26H19.104V14.816H25.584V16.64H21.344ZM27.0436 21.536C27.0436 20.64 27.2196 19.8453 27.5716 19.152C27.9343 18.4587 28.425 17.9253 29.0436 17.552C29.6623 17.1787 30.3503 16.992 31.1076 16.992C31.6836 16.992 32.233 17.12 32.7556 17.376C33.2783 17.6213 33.6943 17.952 34.0036 18.368V14.16H36.2756V26H34.0036V24.688C33.7263 25.1253 33.337 25.4773 32.8356 25.744C32.3343 26.0107 31.753 26.144 31.0916 26.144C30.345 26.144 29.6623 25.952 29.0436 25.568C28.425 25.184 27.9343 24.6453 27.5716 23.952C27.2196 23.248 27.0436 22.4427 27.0436 21.536ZM34.0196 21.568C34.0196 21.024 33.913 20.56 33.6996 20.176C33.4863 19.7813 33.1983 19.4827 32.8356 19.28C32.473 19.0667 32.0836 18.96 31.6676 18.96C31.2516 18.96 30.8676 19.0613 30.5156 19.264C30.1636 19.4667 29.8756 19.7653 29.6516 20.16C29.4383 20.544 29.3316 21.0027 29.3316 21.536C29.3316 22.0693 29.4383 22.5387 29.6516 22.944C29.8756 23.3387 30.1636 23.6427 30.5156 23.856C30.8783 24.0693 31.2623 24.176 31.6676 24.176C32.0836 24.176 32.473 24.0747 32.8356 23.872C33.1983 23.6587 33.4863 23.36 33.6996 22.976C33.913 22.5813 34.0196 22.112 34.0196 21.568ZM39.5994 16.08C39.2047 16.08 38.874 15.9573 38.6074 15.712C38.3514 15.456 38.2234 15.1413 38.2234 14.768C38.2234 14.3947 38.3514 14.0853 38.6074 13.84C38.874 13.584 39.2047 13.456 39.5994 13.456C39.994 13.456 40.3194 13.584 40.5754 13.84C40.842 14.0853 40.9754 14.3947 40.9754 14.768C40.9754 15.1413 40.842 15.456 40.5754 15.712C40.3194 15.9573 39.994 16.08 39.5994 16.08ZM40.7034 17.136V26H38.4634V17.136H40.7034ZM45.5245 18.976V23.264C45.5245 23.5627 45.5938 23.7813 45.7325 23.92C45.8818 24.048 46.1272 24.112 46.4685 24.112H47.5085V26H46.1005C44.2125 26 43.2685 25.0827 43.2685 23.248V18.976H42.2125V17.136H43.2685V14.944H45.5245V17.136H47.5085V18.976H45.5245Z" fill="white"/>
<path d="M80 30H62C61.59 30 61.25 29.66 61.25 29.25C61.25 28.84 61.59 28.5 62 28.5H80C80.41 28.5 80.75 28.84 80.75 29.25C80.75 29.66 80.41 30 80 30Z" fill="white"/>
<path d="M78.0201 11.48C76.0801 9.54 74.1801 9.49 72.1901 11.48L70.9801 12.69C70.8801 12.79 70.8401 12.95 70.8801 13.09C71.6401 15.74 73.7601 17.86 76.4101 18.62C76.4501 18.63 76.4901 18.64 76.5301 18.64C76.6401 18.64 76.7401 18.6 76.8201 18.52L78.0201 17.31C79.0101 16.33 79.4901 15.38 79.4901 14.42C79.5001 13.43 79.0201 12.47 78.0201 11.48Z" fill="white"/>
<path d="M74.6101 19.53C74.3201 19.39 74.0401 19.25 73.7701 19.09C73.5501 18.96 73.3401 18.82 73.1301 18.67C72.9601 18.56 72.7601 18.4 72.5701 18.24C72.5501 18.23 72.4801 18.17 72.4001 18.09C72.0701 17.81 71.7001 17.45 71.3701 17.05C71.3401 17.03 71.2901 16.96 71.2201 16.87C71.1201 16.75 70.9501 16.55 70.8001 16.32C70.6801 16.17 70.5401 15.95 70.4101 15.73C70.2501 15.46 70.1101 15.19 69.9701 14.91C69.9489 14.8646 69.9284 14.8194 69.9085 14.7745C69.7609 14.4412 69.3263 14.3438 69.0685 14.6015L63.3401 20.33C63.2101 20.46 63.0901 20.71 63.0601 20.88L62.5201 24.71C62.4201 25.39 62.6101 26.03 63.0301 26.46C63.3901 26.81 63.8901 27 64.4301 27C64.5501 27 64.6701 26.99 64.7901 26.97L68.6301 26.43C68.8101 26.4 69.0601 26.28 69.1801 26.15L74.9014 20.4287C75.1609 20.1691 75.063 19.7237 74.7254 19.5796C74.6874 19.5634 74.649 19.5469 74.6101 19.53Z" fill="white"/>
</svg>
