<svg width="183" height="183" viewBox="0 0 183 183" fill="none" xmlns="http://www.w3.org/2000/svg">
<g filter="url(#filter0_dd_307_36461)">
<rect x="12.5" width="158" height="159" rx="8" fill="white"/>
<path opacity="0.8" d="M25.733 30V19.8182H31.8778V20.9119H26.9659V24.3523H31.5597V25.446H26.9659V28.9062H31.9574V30H25.733ZM35.1143 19.8182V30H33.9411V19.8182H35.1143ZM40.465 30.1591C39.7292 30.1591 39.0945 29.9967 38.5609 29.6719C38.0306 29.3438 37.6213 28.8864 37.3329 28.2997C37.0479 27.7098 36.9054 27.0237 36.9054 26.2415C36.9054 25.4593 37.0479 24.7699 37.3329 24.1733C37.6213 23.5734 38.0223 23.1061 38.536 22.7713C39.0531 22.4332 39.6563 22.2642 40.3457 22.2642C40.7434 22.2642 41.1362 22.3305 41.524 22.4631C41.9118 22.5956 42.2647 22.8111 42.5829 23.1094C42.9011 23.4044 43.1547 23.7955 43.3436 24.2827C43.5325 24.7699 43.627 25.3698 43.627 26.0824V26.5795H37.7406V25.5653H42.4338C42.4338 25.1345 42.3476 24.75 42.1752 24.4119C42.0062 24.0739 41.7643 23.8071 41.4494 23.6115C41.1378 23.416 40.7699 23.3182 40.3457 23.3182C39.8784 23.3182 39.474 23.4342 39.1326 23.6662C38.7946 23.8949 38.5344 24.1932 38.3521 24.5611C38.1698 24.929 38.0787 25.3234 38.0787 25.7443V26.4205C38.0787 26.9972 38.1781 27.486 38.377 27.8871C38.5791 28.2848 38.8592 28.5881 39.2172 28.7969C39.5751 29.0024 39.9911 29.1051 40.465 29.1051C40.7733 29.1051 41.0517 29.062 41.3002 28.9759C41.5521 28.8864 41.7692 28.7538 41.9515 28.5781C42.1338 28.3991 42.2747 28.1771 42.3741 27.9119L43.5076 28.2301C43.3883 28.6146 43.1878 28.9527 42.9061 29.2443C42.6243 29.5327 42.2763 29.758 41.862 29.9205C41.4477 30.0795 40.9821 30.1591 40.465 30.1591ZM48.514 30.1591C47.7981 30.1591 47.1816 29.9901 46.6646 29.652C46.1475 29.3139 45.7498 28.8482 45.4714 28.255C45.193 27.6617 45.0538 26.9839 45.0538 26.2216C45.0538 25.446 45.1963 24.7616 45.4814 24.1683C45.7697 23.5717 46.1708 23.1061 46.6845 22.7713C47.2015 22.4332 47.8047 22.2642 48.4941 22.2642C49.0311 22.2642 49.515 22.3636 49.9458 22.5625C50.3767 22.7614 50.7297 23.0398 51.0048 23.3977C51.2799 23.7557 51.4506 24.1733 51.5169 24.6506H50.3436C50.2541 24.3026 50.0552 23.9943 49.747 23.7259C49.4421 23.4541 49.0311 23.3182 48.514 23.3182C48.0566 23.3182 47.6556 23.4375 47.3109 23.6761C46.9695 23.9115 46.7027 24.2446 46.5105 24.6754C46.3216 25.103 46.2271 25.6051 46.2271 26.1818C46.2271 26.7718 46.3199 27.2855 46.5055 27.723C46.6944 28.1605 46.9596 28.5002 47.301 28.7422C47.6457 28.9841 48.05 29.1051 48.514 29.1051C48.819 29.1051 49.0957 29.0521 49.3443 28.946C49.5929 28.84 49.8033 28.6875 49.9757 28.4886C50.148 28.2898 50.2707 28.0511 50.3436 27.7727H51.5169C51.4506 28.2235 51.2865 28.6295 51.0247 28.9908C50.7662 29.3487 50.4231 29.6338 49.9956 29.8459C49.5713 30.0547 49.0775 30.1591 48.514 30.1591ZM56.5531 22.3636V23.358H52.5957V22.3636H56.5531ZM53.7491 20.5341H54.9224V27.8125C54.9224 28.1439 54.9705 28.3925 55.0666 28.5582C55.166 28.7206 55.292 28.83 55.4444 28.8864C55.6002 28.9394 55.7643 28.9659 55.9366 28.9659C56.0659 28.9659 56.1719 28.9593 56.2548 28.946C56.3377 28.9295 56.4039 28.9162 56.4537 28.9062L56.6923 29.9602C56.6127 29.9901 56.5017 30.0199 56.3592 30.0497C56.2167 30.0829 56.036 30.0994 55.8173 30.0994C55.4859 30.0994 55.161 30.0282 54.8429 29.8857C54.528 29.7431 54.2662 29.526 54.0574 29.2344C53.8519 28.9427 53.7491 28.5748 53.7491 28.1307V20.5341ZM58.318 30V22.3636H59.4515V23.517H59.5311C59.6703 23.1392 59.9222 22.8326 60.2868 22.5973C60.6513 22.362 61.0623 22.2443 61.5197 22.2443C61.6059 22.2443 61.7136 22.246 61.8429 22.2493C61.9721 22.2526 62.0699 22.2576 62.1362 22.2642V23.4574C62.0964 23.4474 62.0053 23.4325 61.8627 23.4126C61.7235 23.3894 61.5761 23.3778 61.4203 23.3778C61.0491 23.3778 60.7176 23.4557 60.426 23.6115C60.1376 23.764 59.9089 23.9761 59.7399 24.2479C59.5742 24.5163 59.4913 24.8229 59.4913 25.1676V30H58.318ZM63.527 30V22.3636H64.7003V30H63.527ZM64.1236 21.0909C63.8949 21.0909 63.6977 21.013 63.532 20.8572C63.3696 20.7015 63.2884 20.5142 63.2884 20.2955C63.2884 20.0767 63.3696 19.8894 63.532 19.7337C63.6977 19.5779 63.8949 19.5 64.1236 19.5C64.3523 19.5 64.5478 19.5779 64.7102 19.7337C64.8759 19.8894 64.9588 20.0767 64.9588 20.2955C64.9588 20.5142 64.8759 20.7015 64.7102 20.8572C64.5478 21.013 64.3523 21.0909 64.1236 21.0909ZM69.9515 30.1591C69.2356 30.1591 68.6191 29.9901 68.1021 29.652C67.585 29.3139 67.1873 28.8482 66.9089 28.255C66.6305 27.6617 66.4913 26.9839 66.4913 26.2216C66.4913 25.446 66.6338 24.7616 66.9189 24.1683C67.2072 23.5717 67.6083 23.1061 68.122 22.7713C68.639 22.4332 69.2422 22.2642 69.9316 22.2642C70.4686 22.2642 70.9525 22.3636 71.3833 22.5625C71.8142 22.7614 72.1672 23.0398 72.4423 23.3977C72.7174 23.7557 72.8881 24.1733 72.9544 24.6506H71.7811C71.6916 24.3026 71.4927 23.9943 71.1845 23.7259C70.8796 23.4541 70.4686 23.3182 69.9515 23.3182C69.4941 23.3182 69.0931 23.4375 68.7484 23.6761C68.407 23.9115 68.1402 24.2446 67.948 24.6754C67.7591 25.103 67.6646 25.6051 67.6646 26.1818C67.6646 26.7718 67.7574 27.2855 67.943 27.723C68.1319 28.1605 68.3971 28.5002 68.7385 28.7422C69.0832 28.9841 69.4875 29.1051 69.9515 29.1051C70.2565 29.1051 70.5332 29.0521 70.7818 28.946C71.0304 28.84 71.2408 28.6875 71.4132 28.4886C71.5855 28.2898 71.7082 28.0511 71.7811 27.7727H72.9544C72.8881 28.2235 72.724 28.6295 72.4622 28.9908C72.2037 29.3487 71.8606 29.6338 71.4331 29.8459C71.0088 30.0547 70.515 30.1591 69.9515 30.1591ZM74.6696 30V22.3636H75.8429V30H74.6696ZM75.2662 21.0909C75.0375 21.0909 74.8403 21.013 74.6745 20.8572C74.5121 20.7015 74.4309 20.5142 74.4309 20.2955C74.4309 20.0767 74.5121 19.8894 74.6745 19.7337C74.8403 19.5779 75.0375 19.5 75.2662 19.5C75.4949 19.5 75.6904 19.5779 75.8528 19.7337C76.0185 19.8894 76.1014 20.0767 76.1014 20.2955C76.1014 20.5142 76.0185 20.7015 75.8528 20.8572C75.6904 21.013 75.4949 21.0909 75.2662 21.0909ZM81.3129 22.3636V23.358H77.3555V22.3636H81.3129ZM78.5089 20.5341H79.6822V27.8125C79.6822 28.1439 79.7302 28.3925 79.8263 28.5582C79.9258 28.7206 80.0517 28.83 80.2042 28.8864C80.36 28.9394 80.524 28.9659 80.6964 28.9659C80.8256 28.9659 80.9317 28.9593 81.0146 28.946C81.0974 28.9295 81.1637 28.9162 81.2134 28.9062L81.4521 29.9602C81.3725 29.9901 81.2615 30.0199 81.119 30.0497C80.9764 30.0829 80.7958 30.0994 80.5771 30.0994C80.2456 30.0994 79.9208 30.0282 79.6026 29.8857C79.2878 29.7431 79.0259 29.526 78.8171 29.2344C78.6116 28.9427 78.5089 28.5748 78.5089 28.1307V20.5341ZM83.8335 32.8636C83.6346 32.8636 83.4573 32.8471 83.3015 32.8139C83.1457 32.7841 83.038 32.7543 82.9783 32.7244L83.2766 31.6903C83.5617 31.7633 83.8136 31.7898 84.0323 31.7699C84.2511 31.75 84.445 31.6522 84.614 31.4766C84.7863 31.3042 84.9438 31.0241 85.0863 30.6364L85.305 30.0398L82.4812 22.3636H83.7539L85.8619 28.4489H85.9414L88.0494 22.3636H89.3221L86.0806 31.1136C85.9348 31.508 85.7541 31.8345 85.5387 32.093C85.3233 32.3549 85.073 32.5488 84.788 32.6747C84.5063 32.8007 84.1881 32.8636 83.8335 32.8636ZM33.9261 40H32.6932C32.6203 39.6454 32.4927 39.3338 32.3104 39.0653C32.1314 38.7969 31.9126 38.5715 31.6541 38.3892C31.3989 38.2036 31.1155 38.0644 30.804 37.9716C30.4924 37.8788 30.1676 37.8324 29.8295 37.8324C29.2131 37.8324 28.6546 37.9882 28.1541 38.2997C27.657 38.6113 27.2609 39.0703 26.9659 39.6768C26.6742 40.2834 26.5284 41.0275 26.5284 41.9091C26.5284 42.7907 26.6742 43.5348 26.9659 44.1413C27.2609 44.7479 27.657 45.2069 28.1541 45.5185C28.6546 45.83 29.2131 45.9858 29.8295 45.9858C30.1676 45.9858 30.4924 45.9394 30.804 45.8466C31.1155 45.7538 31.3989 45.6162 31.6541 45.4339C31.9126 45.2483 32.1314 45.0213 32.3104 44.7528C32.4927 44.4811 32.6203 44.1695 32.6932 43.8182H33.9261C33.8333 44.3385 33.6643 44.8042 33.419 45.2152C33.1738 45.6262 32.8688 45.9759 32.5043 46.2642C32.1397 46.5492 31.7304 46.7663 31.2763 46.9155C30.8255 47.0646 30.3433 47.1392 29.8295 47.1392C28.9612 47.1392 28.1889 46.9271 27.5128 46.5028C26.8366 46.0786 26.3047 45.4754 25.9169 44.6932C25.5291 43.911 25.3352 42.983 25.3352 41.9091C25.3352 40.8352 25.5291 39.9072 25.9169 39.125C26.3047 38.3428 26.8366 37.7396 27.5128 37.3153C28.1889 36.8911 28.9612 36.679 29.8295 36.679C30.3433 36.679 30.8255 36.7536 31.2763 36.9027C31.7304 37.0518 32.1397 37.2706 32.5043 37.5589C32.8688 37.844 33.1738 38.192 33.419 38.603C33.6643 39.0107 33.8333 39.4763 33.9261 40ZM38.8617 47.1591C38.1723 47.1591 37.5674 46.995 37.0471 46.6669C36.53 46.3388 36.1257 45.8797 35.834 45.2898C35.5456 44.6998 35.4015 44.0104 35.4015 43.2216C35.4015 42.4261 35.5456 41.7318 35.834 41.1385C36.1257 40.5452 36.53 40.0845 37.0471 39.7564C37.5674 39.4283 38.1723 39.2642 38.8617 39.2642C39.5511 39.2642 40.1543 39.4283 40.6713 39.7564C41.1917 40.0845 41.5961 40.5452 41.8844 41.1385C42.1761 41.7318 42.3219 42.4261 42.3219 43.2216C42.3219 44.0104 42.1761 44.6998 41.8844 45.2898C41.5961 45.8797 41.1917 46.3388 40.6713 46.6669C40.1543 46.995 39.5511 47.1591 38.8617 47.1591ZM38.8617 46.1051C39.3854 46.1051 39.8162 45.9709 40.1543 45.7024C40.4924 45.4339 40.7426 45.081 40.905 44.6435C41.0674 44.206 41.1486 43.732 41.1486 43.2216C41.1486 42.7112 41.0674 42.2356 40.905 41.7947C40.7426 41.3539 40.4924 40.9976 40.1543 40.7259C39.8162 40.4541 39.3854 40.3182 38.8617 40.3182C38.338 40.3182 37.9071 40.4541 37.5691 40.7259C37.231 40.9976 36.9808 41.3539 36.8184 41.7947C36.656 42.2356 36.5748 42.7112 36.5748 43.2216C36.5748 43.732 36.656 44.206 36.8184 44.6435C36.9808 45.081 37.231 45.4339 37.5691 45.7024C37.9071 45.9709 38.338 46.1051 38.8617 46.1051ZM49.522 41.0739L48.468 41.3722C48.4018 41.1965 48.304 41.0258 48.1747 40.8601C48.0488 40.6911 47.8764 40.5518 47.6577 40.4425C47.4389 40.3331 47.1589 40.2784 46.8175 40.2784C46.3501 40.2784 45.9607 40.3861 45.6491 40.6016C45.3409 40.8137 45.1868 41.0838 45.1868 41.4119C45.1868 41.7036 45.2929 41.9339 45.505 42.103C45.7171 42.272 46.0485 42.4129 46.4993 42.5256L47.6328 42.804C48.3156 42.9697 48.8243 43.2232 49.1591 43.5646C49.4938 43.9027 49.6612 44.3385 49.6612 44.8722C49.6612 45.3097 49.5353 45.7008 49.2834 46.0455C49.0348 46.3902 48.6868 46.6619 48.2393 46.8608C47.7919 47.0597 47.2715 47.1591 46.6783 47.1591C45.8994 47.1591 45.2547 46.9901 44.7443 46.652C44.2339 46.3139 43.9107 45.8201 43.7749 45.1705L44.8885 44.892C44.9946 45.303 45.1951 45.6113 45.4901 45.8168C45.7884 46.0223 46.1778 46.125 46.6584 46.125C47.2053 46.125 47.6394 46.009 47.9609 45.777C48.2857 45.5417 48.4482 45.2599 48.4482 44.9318C48.4482 44.6667 48.3554 44.4446 48.1697 44.2656C47.9841 44.0833 47.6991 43.9474 47.3146 43.858L46.0419 43.5597C45.3426 43.3939 44.8288 43.1371 44.5007 42.7891C44.1759 42.4377 44.0135 41.9986 44.0135 41.4716C44.0135 41.0407 44.1345 40.6596 44.3764 40.3281C44.6217 39.9967 44.9548 39.7365 45.3757 39.5476C45.8 39.3587 46.2805 39.2642 46.8175 39.2642C47.5732 39.2642 48.1664 39.4299 48.5973 39.7614C49.0315 40.0928 49.3397 40.5303 49.522 41.0739ZM54.7484 39.3636V40.358H50.791V39.3636H54.7484ZM51.9444 37.5341H53.1177V44.8125C53.1177 45.1439 53.1658 45.3925 53.2619 45.5582C53.3613 45.7206 53.4873 45.83 53.6397 45.8864C53.7955 45.9394 53.9596 45.9659 54.1319 45.9659C54.2612 45.9659 54.3672 45.9593 54.4501 45.946C54.533 45.9295 54.5993 45.9162 54.649 45.9062L54.8876 46.9602C54.8081 46.9901 54.697 47.0199 54.5545 47.0497C54.412 47.0829 54.2314 47.0994 54.0126 47.0994C53.6812 47.0994 53.3564 47.0282 53.0382 46.8857C52.7233 46.7431 52.4615 46.526 52.2527 46.2344C52.0472 45.9427 51.9444 45.5748 51.9444 45.1307V37.5341ZM60.8684 41.9091C60.8684 40.6562 61.0308 39.5045 61.3556 38.4538C61.6838 37.3999 62.1511 36.4304 62.7576 35.5455H63.7917C63.5531 35.8736 63.3294 36.2779 63.1206 36.7585C62.9151 37.2358 62.7344 37.7611 62.5787 38.3345C62.4229 38.9046 62.3002 39.4946 62.2108 40.1044C62.1246 40.7143 62.0815 41.3158 62.0815 41.9091C62.0815 42.6979 62.1577 43.4983 62.3102 44.3104C62.4627 45.1224 62.6681 45.8764 62.9267 46.5724C63.1852 47.2685 63.4735 47.8352 63.7917 48.2727H62.7576C62.1511 47.3878 61.6838 46.42 61.3556 45.3693C61.0308 44.3153 60.8684 43.1619 60.8684 41.9091ZM65.6822 36.8182H67.1538L70.614 45.2699H70.7333L74.1935 36.8182H75.6651V47H74.5117V39.2642H74.4123L71.2305 47H70.1168L66.935 39.2642H66.8356V47H65.6822V36.8182ZM81.0804 47.1591C80.391 47.1591 79.7862 46.995 79.2658 46.6669C78.7488 46.3388 78.3444 45.8797 78.0527 45.2898C77.7644 44.6998 77.6202 44.0104 77.6202 43.2216C77.6202 42.4261 77.7644 41.7318 78.0527 41.1385C78.3444 40.5452 78.7488 40.0845 79.2658 39.7564C79.7862 39.4283 80.391 39.2642 81.0804 39.2642C81.7698 39.2642 82.373 39.4283 82.8901 39.7564C83.4105 40.0845 83.8148 40.5452 84.1032 41.1385C84.3948 41.7318 84.5407 42.4261 84.5407 43.2216C84.5407 44.0104 84.3948 44.6998 84.1032 45.2898C83.8148 45.8797 83.4105 46.3388 82.8901 46.6669C82.373 46.995 81.7698 47.1591 81.0804 47.1591ZM81.0804 46.1051C81.6041 46.1051 82.035 45.9709 82.373 45.7024C82.7111 45.4339 82.9614 45.081 83.1238 44.6435C83.2862 44.206 83.3674 43.732 83.3674 43.2216C83.3674 42.7112 83.2862 42.2356 83.1238 41.7947C82.9614 41.3539 82.7111 40.9976 82.373 40.7259C82.035 40.4541 81.6041 40.3182 81.0804 40.3182C80.5568 40.3182 80.1259 40.4541 79.7878 40.7259C79.4498 40.9976 79.1995 41.3539 79.0371 41.7947C78.8747 42.2356 78.7935 42.7112 78.7935 43.2216C78.7935 43.732 78.8747 44.206 79.0371 44.6435C79.1995 45.081 79.4498 45.4339 79.7878 45.7024C80.1259 45.9709 80.5568 46.1051 81.0804 46.1051ZM87.505 42.4062V47H86.3317V39.3636H87.4652V40.5568H87.5646C87.7436 40.169 88.0154 39.8575 88.38 39.6222C88.7446 39.3835 89.2152 39.2642 89.7919 39.2642C90.3089 39.2642 90.7614 39.3703 91.1491 39.5824C91.5369 39.7912 91.8385 40.1094 92.054 40.5369C92.2694 40.9612 92.3771 41.4981 92.3771 42.1477V47H91.2038V42.2273C91.2038 41.6274 91.0481 41.16 90.7365 40.8253C90.425 40.4872 89.9974 40.3182 89.4538 40.3182C89.0793 40.3182 88.7446 40.3994 88.4496 40.5618C88.1579 40.7242 87.9276 40.9612 87.7585 41.2727C87.5895 41.5843 87.505 41.9621 87.505 42.4062ZM97.8422 39.3636V40.358H93.8848V39.3636H97.8422ZM95.0382 37.5341H96.2115V44.8125C96.2115 45.1439 96.2595 45.3925 96.3556 45.5582C96.4551 45.7206 96.581 45.83 96.7335 45.8864C96.8893 45.9394 97.0533 45.9659 97.2257 45.9659C97.3549 45.9659 97.461 45.9593 97.5439 45.946C97.6267 45.9295 97.693 45.9162 97.7427 45.9062L97.9814 46.9602C97.9018 46.9901 97.7908 47.0199 97.6483 47.0497C97.5057 47.0829 97.3251 47.0994 97.1064 47.0994C96.7749 47.0994 96.4501 47.0282 96.1319 46.8857C95.8171 46.7431 95.5552 46.526 95.3464 46.2344C95.1409 45.9427 95.0382 45.5748 95.0382 45.1307V37.5341ZM100.944 42.4062V47H99.7711V36.8182H100.944V40.5568H101.044C101.223 40.1624 101.491 39.8492 101.849 39.6172C102.211 39.3819 102.691 39.2642 103.291 39.2642C103.811 39.2642 104.267 39.3686 104.658 39.5774C105.049 39.7829 105.353 40.0994 105.568 40.527C105.787 40.9512 105.896 41.4915 105.896 42.1477V47H104.723V42.2273C104.723 41.6207 104.565 41.1518 104.251 40.8203C103.939 40.4856 103.506 40.3182 102.953 40.3182C102.568 40.3182 102.224 40.3994 101.919 40.5618C101.617 40.7242 101.379 40.9612 101.203 41.2727C101.031 41.5843 100.944 41.9621 100.944 42.4062ZM109.216 36.8182V47H108.043V36.8182H109.216ZM112.121 49.8636C111.922 49.8636 111.744 49.8471 111.589 49.8139C111.433 49.7841 111.325 49.7543 111.265 49.7244L111.564 48.6903C111.849 48.7633 112.101 48.7898 112.319 48.7699C112.538 48.75 112.732 48.6522 112.901 48.4766C113.073 48.3042 113.231 48.0241 113.373 47.6364L113.592 47.0398L110.768 39.3636H112.041L114.149 45.4489H114.229L116.336 39.3636H117.609L114.368 48.1136C114.222 48.508 114.041 48.8345 113.826 49.093C113.61 49.3549 113.36 49.5488 113.075 49.6747C112.793 49.8007 112.475 49.8636 112.121 49.8636ZM121.664 42.7045C121.664 43.9574 121.499 45.1108 121.171 46.1648C120.847 47.2154 120.381 48.1832 119.774 49.0682H118.74C118.979 48.7401 119.201 48.3357 119.406 47.8551C119.615 47.3778 119.798 46.8542 119.953 46.2841C120.109 45.7107 120.23 45.1191 120.316 44.5092C120.406 43.8961 120.45 43.2945 120.45 42.7045C120.45 41.9157 120.374 41.1153 120.222 40.3033C120.069 39.4912 119.864 38.7372 119.605 38.0412C119.347 37.3452 119.058 36.7784 118.74 36.3409H119.774C120.381 37.2259 120.847 38.1953 121.171 39.2493C121.499 40.3 121.664 41.4517 121.664 42.7045Z" fill="#2C2C2C"/>
<path opacity="0.8" d="M26.179 87V85.0909L32.0852 78.9716C32.7159 78.3068 33.2358 77.7244 33.6449 77.2244C34.0597 76.7187 34.3693 76.2386 34.5739 75.7841C34.7784 75.3295 34.8807 74.8466 34.8807 74.3352C34.8807 73.7557 34.7443 73.2557 34.4716 72.8352C34.1989 72.4091 33.8267 72.0824 33.3551 71.8551C32.8835 71.6222 32.3523 71.5057 31.7614 71.5057C31.1364 71.5057 30.5909 71.6335 30.125 71.8892C29.6591 72.1449 29.3011 72.5057 29.0511 72.9716C28.8011 73.4375 28.6761 73.983 28.6761 74.608H26.1619C26.1619 73.5455 26.4063 72.6165 26.8949 71.821C27.3835 71.0256 28.054 70.4091 28.9062 69.9716C29.7585 69.5284 30.7273 69.3068 31.8125 69.3068C32.9091 69.3068 33.875 69.5256 34.7102 69.9631C35.5511 70.3949 36.2074 70.9858 36.679 71.7358C37.1506 72.4801 37.3864 73.321 37.3864 74.2585C37.3864 74.9062 37.2642 75.5398 37.0199 76.1591C36.7813 76.7784 36.3636 77.4687 35.767 78.2301C35.1705 78.9858 34.3409 79.9034 33.2784 80.983L29.8097 84.6136V84.7415H37.6676V87H26.179ZM46.6591 87.2386C45.5909 87.2386 44.6307 87.0341 43.7784 86.625C42.9318 86.2102 42.2557 85.642 41.75 84.9205C41.2443 84.1989 40.9744 83.375 40.9403 82.4489H43.4972C43.5597 83.1989 43.892 83.8153 44.4943 84.2983C45.0966 84.7812 45.8182 85.0227 46.6591 85.0227C47.3295 85.0227 47.9233 84.8693 48.4403 84.5625C48.9631 84.25 49.3722 83.821 49.6676 83.2756C49.9688 82.7301 50.1193 82.108 50.1193 81.4091C50.1193 80.6989 49.9659 80.0653 49.6591 79.5085C49.3523 78.9517 48.929 78.5142 48.3892 78.196C47.8551 77.8778 47.2415 77.7159 46.5483 77.7102C46.0199 77.7102 45.4886 77.8011 44.9545 77.983C44.4205 78.1648 43.9886 78.4034 43.6591 78.6989L41.2472 78.3409L42.2273 69.5455H51.8239V71.804H44.4176L43.8636 76.6875H43.9659C44.3068 76.358 44.7585 76.0824 45.321 75.8608C45.8892 75.6392 46.4972 75.5284 47.1449 75.5284C48.2074 75.5284 49.1534 75.7812 49.983 76.2869C50.8182 76.7926 51.4744 77.483 51.9517 78.358C52.4347 79.2273 52.6733 80.2273 52.6676 81.358C52.6733 82.4886 52.4176 83.4972 51.9006 84.3835C51.3892 85.2699 50.679 85.9687 49.7699 86.4801C48.8665 86.9858 47.8295 87.2386 46.6591 87.2386ZM61.8572 87.2898C60.5107 87.2841 59.3601 86.929 58.4055 86.2244C57.451 85.5199 56.7209 84.4943 56.2152 83.1477C55.7095 81.8011 55.4567 80.179 55.4567 78.2812C55.4567 76.3892 55.7095 74.7727 56.2152 73.4318C56.7266 72.0909 57.4595 71.0682 58.4141 70.3636C59.3743 69.6591 60.522 69.3068 61.8572 69.3068C63.1925 69.3068 64.3374 69.6619 65.2919 70.3722C66.2464 71.0767 66.9766 72.0994 67.4822 73.4403C67.9936 74.7756 68.2493 76.3892 68.2493 78.2812C68.2493 80.1847 67.9964 81.8097 67.4908 83.1562C66.9851 84.4972 66.255 85.5227 65.3004 86.233C64.3459 86.9375 63.1982 87.2898 61.8572 87.2898ZM61.8572 85.0142C63.0391 85.0142 63.9624 84.4375 64.6271 83.2841C65.2976 82.1307 65.6328 80.4631 65.6328 78.2812C65.6328 76.8324 65.4794 75.608 65.1726 74.608C64.8714 73.6023 64.4368 72.8409 63.8686 72.3239C63.3061 71.8011 62.6357 71.5398 61.8572 71.5398C60.6811 71.5398 59.7578 72.1193 59.0874 73.2784C58.4169 74.4375 58.0788 76.1051 58.0732 78.2812C58.0732 79.7358 58.2237 80.9659 58.5249 81.9716C58.8317 82.9716 59.2663 83.7301 59.8288 84.2472C60.3913 84.7585 61.0675 85.0142 61.8572 85.0142ZM83.0107 89.1818V67.3636H84.4084V89.1818H83.0107ZM87.3828 74.1307C87.2919 73.3239 86.9169 72.6989 86.2578 72.2557C85.5987 71.8068 84.7692 71.5824 83.7692 71.5824C83.0533 71.5824 82.4339 71.696 81.9112 71.9233C81.3885 72.1449 80.9822 72.4517 80.6925 72.8438C80.4084 73.2301 80.2663 73.6705 80.2663 74.1648C80.2663 74.5795 80.3629 74.9375 80.5561 75.2386C80.755 75.5398 81.0135 75.7926 81.3317 75.9972C81.6555 76.196 82.0021 76.3636 82.3714 76.5C82.7408 76.6307 83.0959 76.7386 83.4368 76.8239L85.1413 77.267C85.6982 77.4034 86.2692 77.5881 86.8544 77.821C87.4396 78.054 87.9822 78.3608 88.4822 78.7415C88.9822 79.1222 89.3857 79.5938 89.6925 80.1562C90.005 80.7188 90.1612 81.392 90.1612 82.1761C90.1612 83.1648 89.9055 84.0426 89.3942 84.8097C88.8885 85.5767 88.1527 86.1818 87.1868 86.625C86.2266 87.0682 85.0646 87.2898 83.701 87.2898C82.3942 87.2898 81.2635 87.0824 80.3089 86.6676C79.3544 86.2528 78.6072 85.6648 78.0675 84.9034C77.5277 84.1364 77.2294 83.2273 77.1726 82.1761H79.8146C79.8658 82.8068 80.0703 83.3324 80.4283 83.7528C80.7919 84.1676 81.255 84.4773 81.8175 84.6818C82.3857 84.8807 83.0078 84.9801 83.6839 84.9801C84.4283 84.9801 85.0902 84.8636 85.6697 84.6307C86.255 84.392 86.7152 84.0625 87.0504 83.642C87.3857 83.2159 87.5533 82.7187 87.5533 82.1506C87.5533 81.6335 87.4055 81.2102 87.1101 80.8807C86.8203 80.5511 86.4254 80.2784 85.9254 80.0625C85.4311 79.8466 84.8714 79.6562 84.2464 79.4915L82.1839 78.929C80.7862 78.5483 79.6783 77.9886 78.8601 77.25C78.0476 76.5114 77.6413 75.5341 77.6413 74.3182C77.6413 73.3125 77.9141 72.4347 78.4595 71.6847C79.005 70.9347 79.7436 70.3523 80.6754 69.9375C81.6072 69.517 82.6584 69.3068 83.8288 69.3068C85.0107 69.3068 86.0533 69.5142 86.9567 69.929C87.8658 70.3438 88.5817 70.9148 89.1044 71.642C89.6271 72.3636 89.8999 73.1932 89.9226 74.1307H87.3828ZM102.828 74.1307C102.737 73.3239 102.362 72.6989 101.703 72.2557C101.044 71.8068 100.214 71.5824 99.2145 71.5824C98.4986 71.5824 97.8793 71.696 97.3565 71.9233C96.8338 72.1449 96.4276 72.4517 96.1378 72.8438C95.8537 73.2301 95.7116 73.6705 95.7116 74.1648C95.7116 74.5795 95.8082 74.9375 96.0014 75.2386C96.2003 75.5398 96.4588 75.7926 96.777 75.9972C97.1009 76.196 97.4474 76.3636 97.8168 76.5C98.1861 76.6307 98.5412 76.7386 98.8821 76.8239L100.587 77.267C101.143 77.4034 101.714 77.5881 102.3 77.821C102.885 78.054 103.428 78.3608 103.928 78.7415C104.428 79.1222 104.831 79.5938 105.138 80.1562C105.45 80.7188 105.607 81.392 105.607 82.1761C105.607 83.1648 105.351 84.0426 104.839 84.8097C104.334 85.5767 103.598 86.1818 102.632 86.625C101.672 87.0682 100.51 87.2898 99.1463 87.2898C97.8395 87.2898 96.7088 87.0824 95.7543 86.6676C94.7997 86.2528 94.0526 85.6648 93.5128 84.9034C92.973 84.1364 92.6747 83.2273 92.6179 82.1761H95.2599C95.3111 82.8068 95.5156 83.3324 95.8736 83.7528C96.2372 84.1676 96.7003 84.4773 97.2628 84.6818C97.831 84.8807 98.4531 84.9801 99.1293 84.9801C99.8736 84.9801 100.536 84.8636 101.115 84.6307C101.7 84.392 102.161 84.0625 102.496 83.642C102.831 83.2159 102.999 82.7187 102.999 82.1506C102.999 81.6335 102.851 81.2102 102.555 80.8807C102.266 80.5511 101.871 80.2784 101.371 80.0625C100.876 79.8466 100.317 79.6562 99.6918 79.4915L97.6293 78.929C96.2315 78.5483 95.1236 77.9886 94.3054 77.25C93.4929 76.5114 93.0866 75.5341 93.0866 74.3182C93.0866 73.3125 93.3594 72.4347 93.9048 71.6847C94.4503 70.9347 95.1889 70.3523 96.1207 69.9375C97.0526 69.517 98.1037 69.3068 99.2741 69.3068C100.456 69.3068 101.499 69.5142 102.402 69.929C103.311 70.3438 104.027 70.9148 104.55 71.642C105.072 72.3636 105.345 73.1932 105.368 74.1307H102.828ZM108.754 87V69.5455H111.387V84.733H119.296V87H108.754ZM124.133 69.5455L128.309 76.3722H128.445L132.621 69.5455H135.673L130.235 78.2727L135.707 87H132.638L128.445 80.267H128.309L124.116 87H121.048L126.613 78.2727L121.082 69.5455H124.133Z" fill="#2C2C2C"/>
<path opacity="0.8" d="M32.5028 97.2727V106H31.2926L26.8565 99.5994H26.7756V106H25.4588V97.2727H26.6776L31.1179 103.682H31.1989V97.2727H32.5028ZM37.3427 106.119C36.7575 106.119 36.2347 106.018 35.7745 105.817C35.3171 105.615 34.9549 105.335 34.6879 104.977C34.4237 104.616 34.2816 104.199 34.2617 103.724H35.5998C35.6168 103.983 35.7035 104.207 35.8597 104.398C36.0188 104.585 36.2262 104.73 36.4819 104.832C36.7376 104.935 37.0217 104.986 37.3342 104.986C37.6779 104.986 37.9819 104.926 38.2461 104.807C38.5131 104.687 38.7219 104.521 38.8725 104.308C39.0231 104.092 39.0984 103.844 39.0984 103.562C39.0984 103.27 39.0231 103.013 38.8725 102.791C38.7248 102.567 38.5075 102.391 38.2205 102.263C37.9364 102.135 37.5927 102.071 37.1893 102.071H36.4521V100.997H37.1893C37.5131 100.997 37.7972 100.939 38.0415 100.822C38.2887 100.706 38.4819 100.544 38.6211 100.337C38.7603 100.126 38.8299 99.8807 38.8299 99.5994C38.8299 99.3295 38.7688 99.0952 38.6467 98.8963C38.5273 98.6946 38.3569 98.5369 38.1353 98.4233C37.9165 98.3097 37.658 98.2528 37.3597 98.2528C37.0756 98.2528 36.81 98.3054 36.5629 98.4105C36.3185 98.5128 36.1197 98.6605 35.9663 98.8537C35.8129 99.044 35.7305 99.2727 35.7191 99.5398H34.445C34.4592 99.0682 34.5984 98.6534 34.8626 98.2955C35.1296 97.9375 35.4819 97.6577 35.9194 97.456C36.3569 97.2543 36.8427 97.1534 37.3768 97.1534C37.9364 97.1534 38.4194 97.2628 38.8256 97.4815C39.2347 97.6974 39.5501 97.9858 39.7717 98.3466C39.9961 98.7074 40.1069 99.1023 40.104 99.5312C40.1069 100.02 39.9705 100.435 39.695 100.776C39.4222 101.116 39.0586 101.345 38.604 101.462V101.53C39.1836 101.618 39.6325 101.848 39.9506 102.22C40.2717 102.592 40.4308 103.054 40.4279 103.605C40.4308 104.085 40.2972 104.516 40.0273 104.896C39.7603 105.277 39.3952 105.577 38.9322 105.795C38.4691 106.011 37.9393 106.119 37.3427 106.119ZM43.4556 104.807L43.3917 105.271C43.3491 105.612 43.2766 105.967 43.1744 106.337C43.0749 106.709 42.9712 107.054 42.8633 107.372C42.7582 107.69 42.6715 107.943 42.6033 108.131H41.6999C41.7369 107.955 41.788 107.716 41.8533 107.415C41.9187 107.116 41.9826 106.783 42.0451 106.413C42.1076 106.044 42.1545 105.668 42.1857 105.284L42.2283 104.807H43.4556ZM48.0344 97.1534C48.4237 97.1562 48.8072 97.2273 49.185 97.3665C49.5629 97.5057 49.9038 97.733 50.2077 98.0483C50.5146 98.3636 50.7589 98.7898 50.9407 99.3267C51.1254 99.8608 51.2191 100.526 51.2219 101.321C51.2219 102.085 51.1452 102.766 50.9918 103.362C50.8384 103.956 50.6183 104.457 50.3313 104.866C50.0472 105.276 49.7021 105.587 49.2958 105.8C48.8896 106.013 48.4322 106.119 47.9237 106.119C47.4038 106.119 46.9421 106.017 46.5387 105.812C46.1353 105.608 45.8072 105.325 45.5543 104.964C45.3015 104.601 45.1438 104.183 45.0813 103.712H46.381C46.4663 104.087 46.6396 104.391 46.9009 104.624C47.1651 104.854 47.506 104.969 47.9237 104.969C48.5629 104.969 49.0614 104.69 49.4194 104.134C49.7773 103.574 49.9577 102.793 49.9606 101.79H49.8924C49.7447 102.034 49.56 102.244 49.3384 102.42C49.1197 102.597 48.8739 102.733 48.6012 102.83C48.3285 102.926 48.0373 102.974 47.7276 102.974C47.2248 102.974 46.7674 102.851 46.3555 102.604C45.9435 102.357 45.6154 102.017 45.3711 101.585C45.1268 101.153 45.0046 100.661 45.0046 100.107C45.0046 99.5554 45.1296 99.0554 45.3796 98.6065C45.6325 98.1577 45.9847 97.8026 46.4364 97.5412C46.891 97.277 47.4237 97.1477 48.0344 97.1534ZM48.0387 98.2614C47.7063 98.2614 47.4066 98.3437 47.1396 98.5085C46.8754 98.6705 46.6665 98.8906 46.5131 99.169C46.3597 99.4446 46.283 99.7514 46.283 100.089C46.283 100.428 46.3569 100.734 46.5046 101.01C46.6552 101.283 46.8597 101.5 47.1183 101.662C47.3796 101.821 47.6779 101.901 48.0131 101.901C48.2631 101.901 48.4961 101.852 48.712 101.756C48.9279 101.659 49.1168 101.526 49.2788 101.355C49.4407 101.182 49.5671 100.986 49.658 100.767C49.7489 100.548 49.7944 100.318 49.7944 100.077C49.7944 99.7557 49.7177 99.4574 49.5643 99.1818C49.4137 98.9062 49.2063 98.6847 48.9421 98.517C48.6779 98.3466 48.3768 98.2614 48.0387 98.2614ZM52.7614 106V105.045L55.7145 101.986C56.0298 101.653 56.2898 101.362 56.4943 101.112C56.7017 100.859 56.8565 100.619 56.9588 100.392C57.0611 100.165 57.1122 99.9233 57.1122 99.6676C57.1122 99.3778 57.044 99.1278 56.9077 98.9176C56.7713 98.7045 56.5852 98.5412 56.3494 98.4276C56.1136 98.3111 55.848 98.2528 55.5526 98.2528C55.2401 98.2528 54.9673 98.3168 54.7344 98.4446C54.5014 98.5724 54.3224 98.7528 54.1974 98.9858C54.0724 99.2187 54.0099 99.4915 54.0099 99.804H52.7528C52.7528 99.2727 52.875 98.8082 53.1193 98.4105C53.3636 98.0128 53.6989 97.7045 54.125 97.4858C54.5511 97.2642 55.0355 97.1534 55.5781 97.1534C56.1264 97.1534 56.6094 97.2628 57.027 97.4815C57.4474 97.6974 57.7756 97.9929 58.0114 98.3679C58.2472 98.7401 58.3651 99.1605 58.3651 99.6293C58.3651 99.9531 58.304 100.27 58.1818 100.58C58.0625 100.889 57.8537 101.234 57.5554 101.615C57.2571 101.993 56.8423 102.452 56.3111 102.991L54.5767 104.807V104.871H58.5057V106H52.7614ZM63.0696 106.119C62.4588 106.119 61.919 106.014 61.4503 105.804C60.9844 105.594 60.6193 105.304 60.3551 104.935C60.0909 104.565 59.9602 104.145 59.9631 103.673C59.9602 103.304 60.0355 102.964 60.1889 102.655C60.3452 102.342 60.5568 102.082 60.8239 101.875C61.0909 101.665 61.3892 101.531 61.7188 101.474V101.423C61.2841 101.318 60.9361 101.085 60.6747 100.724C60.4134 100.364 60.2841 99.9489 60.2869 99.4801C60.2841 99.0341 60.402 98.6364 60.6406 98.2869C60.8821 97.9347 61.2131 97.6577 61.6335 97.456C62.054 97.2543 62.5327 97.1534 63.0696 97.1534C63.6009 97.1534 64.0753 97.2557 64.4929 97.4602C64.9134 97.6619 65.2443 97.9389 65.4858 98.2912C65.7273 98.6406 65.8494 99.0369 65.8523 99.4801C65.8494 99.9489 65.7159 100.364 65.4517 100.724C65.1875 101.085 64.8438 101.318 64.4205 101.423V101.474C64.7472 101.531 65.0412 101.665 65.3026 101.875C65.5668 102.082 65.777 102.342 65.9332 102.655C66.0923 102.964 66.1733 103.304 66.1761 103.673C66.1733 104.145 66.0398 104.565 65.7756 104.935C65.5114 105.304 65.1449 105.594 64.6761 105.804C64.2102 106.014 63.6747 106.119 63.0696 106.119ZM63.0696 105.041C63.4304 105.041 63.7429 104.982 64.0071 104.862C64.2713 104.74 64.4759 104.571 64.6207 104.355C64.7656 104.136 64.8395 103.881 64.8423 103.588C64.8395 103.284 64.7599 103.016 64.6037 102.783C64.4503 102.55 64.2415 102.366 63.9773 102.233C63.7131 102.099 63.4105 102.033 63.0696 102.033C62.7259 102.033 62.4205 102.099 62.1534 102.233C61.8864 102.366 61.6761 102.55 61.5227 102.783C61.3693 103.016 61.294 103.284 61.2969 103.588C61.294 103.881 61.3636 104.136 61.5057 104.355C61.6506 104.571 61.8565 104.74 62.1236 104.862C62.3906 104.982 62.706 105.041 63.0696 105.041ZM63.0696 100.98C63.3594 100.98 63.6165 100.922 63.8409 100.805C64.0653 100.689 64.2415 100.527 64.3693 100.32C64.5 100.112 64.5668 99.8693 64.5696 99.5909C64.5668 99.3182 64.5014 99.0795 64.3736 98.875C64.2486 98.6705 64.0739 98.5128 63.8494 98.402C63.625 98.2884 63.3651 98.2315 63.0696 98.2315C62.7685 98.2315 62.5043 98.2884 62.277 98.402C62.0526 98.5128 61.8778 98.6705 61.7528 98.875C61.6278 99.0795 61.5668 99.3182 61.5696 99.5909C61.5668 99.8693 61.6293 100.112 61.7571 100.32C61.8849 100.527 62.0611 100.689 62.2855 100.805C62.5128 100.922 62.7741 100.98 63.0696 100.98Z" fill="#2C2C2C"/>
<path opacity="0.8" d="M25.6193 138.5V137.227L29.5568 133.148C29.9773 132.705 30.3239 132.316 30.5966 131.983C30.8731 131.646 31.0795 131.326 31.2159 131.023C31.3523 130.72 31.4205 130.398 31.4205 130.057C31.4205 129.67 31.3295 129.337 31.1477 129.057C30.9659 128.773 30.7178 128.555 30.4034 128.403C30.089 128.248 29.7348 128.17 29.3409 128.17C28.9242 128.17 28.5606 128.256 28.25 128.426C27.9394 128.597 27.7008 128.837 27.5341 129.148C27.3674 129.458 27.2841 129.822 27.2841 130.239H25.608C25.608 129.53 25.7708 128.911 26.0966 128.381C26.4223 127.85 26.8693 127.439 27.4375 127.148C28.0057 126.852 28.6515 126.705 29.375 126.705C30.1061 126.705 30.75 126.85 31.3068 127.142C31.8674 127.43 32.3049 127.824 32.6193 128.324C32.9337 128.82 33.0909 129.381 33.0909 130.006C33.0909 130.438 33.0095 130.86 32.8466 131.273C32.6875 131.686 32.4091 132.146 32.0114 132.653C31.6136 133.157 31.0606 133.769 30.3523 134.489L28.0398 136.909V136.994H33.2784V138.5H25.6193ZM39.483 138.693C38.5852 138.689 37.8182 138.453 37.1818 137.983C36.5455 137.513 36.0587 136.83 35.7216 135.932C35.3845 135.034 35.2159 133.953 35.2159 132.688C35.2159 131.426 35.3845 130.348 35.7216 129.455C36.0625 128.561 36.5511 127.879 37.1875 127.409C37.8277 126.939 38.5928 126.705 39.483 126.705C40.3731 126.705 41.1364 126.941 41.7727 127.415C42.4091 127.884 42.8958 128.566 43.233 129.46C43.5739 130.35 43.7443 131.426 43.7443 132.688C43.7443 133.956 43.5758 135.04 43.2386 135.938C42.9015 136.831 42.4148 137.515 41.7784 137.989C41.142 138.458 40.3769 138.693 39.483 138.693ZM39.483 137.176C40.2708 137.176 40.8864 136.792 41.3295 136.023C41.7765 135.254 42 134.142 42 132.688C42 131.722 41.8977 130.905 41.6932 130.239C41.4924 129.568 41.2027 129.061 40.8239 128.716C40.4489 128.367 40.0019 128.193 39.483 128.193C38.6989 128.193 38.0833 128.58 37.6364 129.352C37.1894 130.125 36.964 131.237 36.9602 132.688C36.9602 133.657 37.0606 134.477 37.2614 135.148C37.4659 135.814 37.7557 136.32 38.1307 136.665C38.5057 137.006 38.9564 137.176 39.483 137.176ZM51.8338 136.318V135.705C51.8338 135.265 51.9247 134.864 52.1065 134.5C52.2921 134.133 52.5611 133.839 52.9134 133.619C53.2694 133.396 53.6993 133.284 54.2031 133.284C54.7183 133.284 55.1501 133.394 55.4986 133.614C55.8471 133.833 56.1103 134.127 56.2884 134.494C56.4702 134.862 56.5611 135.265 56.5611 135.705V136.318C56.5611 136.758 56.4702 137.161 56.2884 137.528C56.1065 137.892 55.8395 138.186 55.4872 138.409C55.1387 138.629 54.7107 138.739 54.2031 138.739C53.6918 138.739 53.2599 138.629 52.9077 138.409C52.5554 138.186 52.2884 137.892 52.1065 137.528C51.9247 137.161 51.8338 136.758 51.8338 136.318ZM53.1577 135.705V136.318C53.1577 136.644 53.2353 136.939 53.3906 137.205C53.5459 137.47 53.8168 137.602 54.2031 137.602C54.5857 137.602 54.8527 137.47 55.0043 137.205C55.1558 136.939 55.2315 136.644 55.2315 136.318V135.705C55.2315 135.379 55.1577 135.083 55.0099 134.818C54.866 134.553 54.5971 134.42 54.2031 134.42C53.8243 134.42 53.5554 134.553 53.3963 134.818C53.2372 135.083 53.1577 135.379 53.1577 135.705ZM45.9815 129.659V129.045C45.9815 128.606 46.0724 128.203 46.2543 127.835C46.4399 127.468 46.7088 127.174 47.0611 126.955C47.4171 126.735 47.8471 126.625 48.3509 126.625C48.866 126.625 49.2978 126.735 49.6463 126.955C49.9948 127.174 50.258 127.468 50.4361 127.835C50.6141 128.203 50.7031 128.606 50.7031 129.045V129.659C50.7031 130.098 50.6122 130.502 50.4304 130.869C50.2524 131.233 49.9872 131.527 49.6349 131.75C49.2865 131.97 48.8584 132.08 48.3509 132.08C47.8357 132.08 47.402 131.97 47.0497 131.75C46.7012 131.527 46.4361 131.233 46.2543 130.869C46.0724 130.502 45.9815 130.098 45.9815 129.659ZM47.3111 129.045V129.659C47.3111 129.985 47.3868 130.28 47.5384 130.545C47.6937 130.811 47.9645 130.943 48.3509 130.943C48.7296 130.943 48.9948 130.811 49.1463 130.545C49.3016 130.28 49.3793 129.985 49.3793 129.659V129.045C49.3793 128.72 49.3054 128.424 49.1577 128.159C49.0099 127.894 48.741 127.761 48.3509 127.761C47.9721 127.761 47.7031 127.894 47.544 128.159C47.3887 128.424 47.3111 128.72 47.3111 129.045ZM46.5213 138.5L54.5213 126.864H55.8793L47.8793 138.5H46.5213Z" fill="#64B424"/>
<path d="M70.5667 136.183L75.7583 136.183L80.4333 136.183C81.2333 136.183 81.6333 135.217 81.0667 134.65L76.75 130.333C76.0583 129.642 74.9333 129.642 74.2417 130.333L72.6 131.975L69.925 134.65C69.3667 135.217 69.7667 136.183 70.5667 136.183Z" fill="#A0DF6E"/>
<rect x="12.65" y="0.15" width="157.7" height="158.7" rx="7.85" stroke="#F3A715" stroke-width="0.3"/>
</g>
<defs>
<filter id="filter0_dd_307_36461" x="0.5" y="0" width="182" height="183" filterUnits="userSpaceOnUse" color-interpolation-filters="sRGB">
<feFlood flood-opacity="0" result="BackgroundImageFix"/>
<feColorMatrix in="SourceAlpha" type="matrix" values="0 0 0 0 0 0 0 0 0 0 0 0 0 0 0 0 0 0 127 0" result="hardAlpha"/>
<feMorphology radius="2" operator="erode" in="SourceAlpha" result="effect1_dropShadow_307_36461"/>
<feOffset dy="4"/>
<feGaussianBlur stdDeviation="3"/>
<feColorMatrix type="matrix" values="0 0 0 0 0.0627451 0 0 0 0 0.0941176 0 0 0 0 0.156863 0 0 0 0.03 0"/>
<feBlend mode="normal" in2="BackgroundImageFix" result="effect1_dropShadow_307_36461"/>
<feColorMatrix in="SourceAlpha" type="matrix" values="0 0 0 0 0 0 0 0 0 0 0 0 0 0 0 0 0 0 127 0" result="hardAlpha"/>
<feMorphology radius="4" operator="erode" in="SourceAlpha" result="effect2_dropShadow_307_36461"/>
<feOffset dy="12"/>
<feGaussianBlur stdDeviation="8"/>
<feColorMatrix type="matrix" values="0 0 0 0 0.0627451 0 0 0 0 0.0941176 0 0 0 0 0.156863 0 0 0 0.08 0"/>
<feBlend mode="normal" in2="effect1_dropShadow_307_36461" result="effect2_dropShadow_307_36461"/>
<feBlend mode="normal" in="SourceGraphic" in2="effect2_dropShadow_307_36461" result="shape"/>
</filter>
</defs>
</svg>
