<svg width="17" height="16" viewBox="0 0 17 16" fill="none" xmlns="http://www.w3.org/2000/svg">
<path opacity="0.4" d="M14.776 6.09995C13.236 3.67995 10.9827 2.28662 8.60937 2.28662C7.42271 2.28662 6.26937 2.63329 5.21604 3.27995C4.16271 3.93329 3.21604 4.88662 2.44271 6.09995C1.77604 7.14662 1.77604 8.84662 2.44271 9.89329C3.98271 12.32 6.23604 13.7066 8.60937 13.7066C9.79604 13.7066 10.9494 13.36 12.0027 12.7133C13.056 12.06 14.0027 11.1066 14.776 9.89329C15.4427 8.85329 15.4427 7.14662 14.776 6.09995ZM8.60937 10.6933C7.11604 10.6933 5.91604 9.48662 5.91604 7.99995C5.91604 6.51329 7.11604 5.30662 8.60937 5.30662C10.1027 5.30662 11.3027 6.51329 11.3027 7.99995C11.3027 9.48662 10.1027 10.6933 8.60937 10.6933Z" fill="white"/>
<path d="M8.60937 6.09338C7.56271 6.09338 6.70937 6.94672 6.70937 8.00005C6.70937 9.04672 7.56271 9.90005 8.60937 9.90005C9.65604 9.90005 10.516 9.04672 10.516 8.00005C10.516 6.95338 9.65604 6.09338 8.60937 6.09338Z" fill="white"/>
</svg>
