<svg width="351" height="88" viewBox="0 0 351 88" fill="none" xmlns="http://www.w3.org/2000/svg">
<g filter="url(#filter0_dd_307_36496)">
<rect x="12" width="327" height="64" rx="10" fill="white"/>
<path d="M39 22.43H29C26 22.43 24 24.43 24 27.43V33.43C24 36.43 26 38.43 29 38.43V40.56C29 41.36 29.89 41.84 30.55 41.39L35 38.43H39C42 38.43 44 36.43 44 33.43V27.43C44 24.43 42 22.43 39 22.43ZM34 34.6C33.58 34.6 33.25 34.26 33.25 33.85C33.25 33.44 33.58 33.1 34 33.1C34.42 33.1 34.75 33.44 34.75 33.85C34.75 34.26 34.42 34.6 34 34.6ZM35.26 30.45C34.87 30.71 34.75 30.88 34.75 31.16V31.37C34.75 31.78 34.41 32.12 34 32.12C33.59 32.12 33.25 31.78 33.25 31.37V31.16C33.25 30 34.1 29.43 34.42 29.21C34.79 28.96 34.91 28.79 34.91 28.53C34.91 28.03 34.5 27.62 34 27.62C33.5 27.62 33.09 28.03 33.09 28.53C33.09 28.94 32.75 29.28 32.34 29.28C31.93 29.28 31.59 28.94 31.59 28.53C31.59 27.2 32.67 26.12 34 26.12C35.33 26.12 36.41 27.2 36.41 28.53C36.41 29.67 35.57 30.24 35.26 30.45Z" fill="#292D32"/>
<path opacity="0.8" d="M63.2784 37.5V25.8636H65.0341V30.9205H70.8352V25.8636H72.5966V37.5H70.8352V32.4261H65.0341V37.5H63.2784ZM78.7784 37.6761C77.9186 37.6761 77.178 37.4924 76.5568 37.125C75.9394 36.7538 75.4621 36.233 75.125 35.5625C74.7917 34.8883 74.625 34.0985 74.625 33.1932C74.625 32.2992 74.7917 31.5114 75.125 30.8295C75.4621 30.1477 75.9318 29.6155 76.5341 29.233C77.1402 28.8504 77.8485 28.6591 78.6591 28.6591C79.1515 28.6591 79.6288 28.7405 80.0909 28.9034C80.553 29.0663 80.9678 29.322 81.3352 29.6705C81.7027 30.0189 81.9924 30.4716 82.2045 31.0284C82.4167 31.5814 82.5227 32.2538 82.5227 33.0455V33.6477H75.5852V32.375H80.858C80.858 31.928 80.767 31.5322 80.5852 31.1875C80.4034 30.839 80.1477 30.5644 79.8182 30.3636C79.4924 30.1629 79.1098 30.0625 78.6705 30.0625C78.1932 30.0625 77.7765 30.1799 77.4205 30.4148C77.0682 30.6458 76.7955 30.9489 76.6023 31.3239C76.4129 31.6951 76.3182 32.0985 76.3182 32.5341V33.5284C76.3182 34.1117 76.4205 34.608 76.625 35.017C76.8333 35.4261 77.1231 35.7386 77.4943 35.9545C77.8655 36.1667 78.2992 36.2727 78.7955 36.2727C79.1174 36.2727 79.411 36.2273 79.6761 36.1364C79.9413 36.0417 80.1705 35.9015 80.3636 35.7159C80.5568 35.5303 80.7045 35.3011 80.8068 35.0284L82.4148 35.3182C82.286 35.7917 82.0549 36.2064 81.7216 36.5625C81.392 36.9148 80.9773 37.1894 80.4773 37.3864C79.9811 37.5795 79.4148 37.6761 78.7784 37.6761ZM86.1065 25.8636V37.5H84.4077V25.8636H86.1065ZM88.392 40.7727V28.7727H90.0511V30.1875H90.1932C90.2917 30.0057 90.4337 29.7955 90.6193 29.5568C90.8049 29.3182 91.0625 29.1098 91.392 28.9318C91.7216 28.75 92.1572 28.6591 92.6989 28.6591C93.4034 28.6591 94.0322 28.8371 94.5852 29.1932C95.1383 29.5492 95.572 30.0625 95.8864 30.733C96.2045 31.4034 96.3636 32.2102 96.3636 33.1534C96.3636 34.0966 96.2064 34.9053 95.892 35.5795C95.5777 36.25 95.1458 36.767 94.5966 37.1307C94.0473 37.4905 93.4205 37.6705 92.7159 37.6705C92.1856 37.6705 91.7519 37.5814 91.4148 37.4034C91.0814 37.2254 90.8201 37.017 90.6307 36.7784C90.4413 36.5398 90.2955 36.3277 90.1932 36.142H90.0909V40.7727H88.392ZM90.0568 33.1364C90.0568 33.75 90.1458 34.2879 90.3239 34.75C90.5019 35.2121 90.7595 35.5739 91.0966 35.8352C91.4337 36.0928 91.8466 36.2216 92.3352 36.2216C92.8428 36.2216 93.267 36.0871 93.608 35.8182C93.9489 35.5455 94.2064 35.1761 94.3807 34.7102C94.5587 34.2443 94.6477 33.7197 94.6477 33.1364C94.6477 32.5606 94.5606 32.0436 94.3864 31.5852C94.2159 31.1269 93.9583 30.7652 93.6136 30.5C93.2727 30.2348 92.8466 30.1023 92.3352 30.1023C91.8428 30.1023 91.4261 30.2292 91.0852 30.483C90.7481 30.7367 90.4924 31.0909 90.3182 31.5455C90.1439 32 90.0568 32.5303 90.0568 33.1364Z" fill="black"/>
<path d="M318.967 26.72L323.313 31.0667C323.827 31.58 323.827 32.42 323.313 32.9334L318.967 37.28" stroke="#292D32" stroke-width="2" stroke-miterlimit="10" stroke-linecap="round" stroke-linejoin="round"/>
</g>
<defs>
<filter id="filter0_dd_307_36496" x="0" y="0" width="351" height="88" filterUnits="userSpaceOnUse" color-interpolation-filters="sRGB">
<feFlood flood-opacity="0" result="BackgroundImageFix"/>
<feColorMatrix in="SourceAlpha" type="matrix" values="0 0 0 0 0 0 0 0 0 0 0 0 0 0 0 0 0 0 127 0" result="hardAlpha"/>
<feMorphology radius="2" operator="erode" in="SourceAlpha" result="effect1_dropShadow_307_36496"/>
<feOffset dy="4"/>
<feGaussianBlur stdDeviation="3"/>
<feColorMatrix type="matrix" values="0 0 0 0 0.0627451 0 0 0 0 0.0941176 0 0 0 0 0.156863 0 0 0 0.03 0"/>
<feBlend mode="normal" in2="BackgroundImageFix" result="effect1_dropShadow_307_36496"/>
<feColorMatrix in="SourceAlpha" type="matrix" values="0 0 0 0 0 0 0 0 0 0 0 0 0 0 0 0 0 0 127 0" result="hardAlpha"/>
<feMorphology radius="4" operator="erode" in="SourceAlpha" result="effect2_dropShadow_307_36496"/>
<feOffset dy="12"/>
<feGaussianBlur stdDeviation="8"/>
<feColorMatrix type="matrix" values="0 0 0 0 0.0627451 0 0 0 0 0.0941176 0 0 0 0 0.156863 0 0 0 0.08 0"/>
<feBlend mode="normal" in2="effect1_dropShadow_307_36496" result="effect2_dropShadow_307_36496"/>
<feBlend mode="normal" in="SourceGraphic" in2="effect2_dropShadow_307_36496" result="shape"/>
</filter>
</defs>
</svg>
