<svg width="25" height="24" viewBox="0 0 25 24" fill="none" xmlns="http://www.w3.org/2000/svg">
<path d="M21.33 8.01002L14.78 2.77002C13.5 1.75002 11.5 1.74002 10.23 2.76002L3.67999 8.01002C2.73999 8.76002 2.16999 10.26 2.36999 11.44L3.62999 18.98C3.91999 20.67 5.48999 22 7.19999 22H17.8C19.49 22 21.09 20.64 21.38 18.97L22.64 11.43C22.82 10.26 22.25 8.76002 21.33 8.01002Z" fill="white"/>
<path d="M12.5 18.75C12.09 18.75 11.75 18.41 11.75 18V15C11.75 14.59 12.09 14.25 12.5 14.25C12.91 14.25 13.25 14.59 13.25 15V18C13.25 18.41 12.91 18.75 12.5 18.75Z" fill="#F6A816"/>
</svg>
