<svg width="25" height="25" viewBox="0 0 25 25" fill="none" xmlns="http://www.w3.org/2000/svg">
<path d="M20.54 7.32201L14.78 3.29201C13.21 2.19201 10.8 2.25201 9.29001 3.42201L4.28001 7.33201C3.28001 8.11201 2.49001 9.71201 2.49001 10.972V17.872C2.49001 20.422 4.56001 22.502 7.11001 22.502H17.89C20.44 22.502 22.51 20.432 22.51 17.882V11.102C22.51 9.75201 21.64 8.09201 20.54 7.32201ZM13.25 18.502C13.25 18.912 12.91 19.252 12.5 19.252C12.09 19.252 11.75 18.912 11.75 18.502V15.502C11.75 15.092 12.09 14.752 12.5 14.752C12.91 14.752 13.25 15.092 13.25 15.502V18.502Z" fill="#F3A715"/>
</svg>
