<svg width="151" height="40" viewBox="0 0 151 40" fill="none" xmlns="http://www.w3.org/2000/svg">
<rect x="0.25" y="0.25" width="150.5" height="39.5" rx="3.75" fill="white"/>
<path d="M55.2784 25.5V13.8636H57.0341V23.9886H62.3068V25.5H55.2784ZM67.8494 25.6761C67.0313 25.6761 66.3172 25.4886 65.7074 25.1136C65.0975 24.7386 64.6241 24.214 64.2869 23.5398C63.9498 22.8655 63.7812 22.0777 63.7812 21.1761C63.7812 20.2708 63.9498 19.4792 64.2869 18.8011C64.6241 18.1231 65.0975 17.5966 65.7074 17.2216C66.3172 16.8466 67.0313 16.6591 67.8494 16.6591C68.6676 16.6591 69.3816 16.8466 69.9915 17.2216C70.6013 17.5966 71.0748 18.1231 71.4119 18.8011C71.7491 19.4792 71.9176 20.2708 71.9176 21.1761C71.9176 22.0777 71.7491 22.8655 71.4119 23.5398C71.0748 24.214 70.6013 24.7386 69.9915 25.1136C69.3816 25.4886 68.6676 25.6761 67.8494 25.6761ZM67.8551 24.25C68.3854 24.25 68.8248 24.1098 69.1733 23.8295C69.5218 23.5492 69.7794 23.1761 69.946 22.7102C70.1165 22.2443 70.2017 21.7311 70.2017 21.1705C70.2017 20.6136 70.1165 20.1023 69.946 19.6364C69.7794 19.1667 69.5218 18.7898 69.1733 18.5057C68.8248 18.2216 68.3854 18.0795 67.8551 18.0795C67.321 18.0795 66.8778 18.2216 66.5256 18.5057C66.1771 18.7898 65.9176 19.1667 65.7472 19.6364C65.5805 20.1023 65.4972 20.6136 65.4972 21.1705C65.4972 21.7311 65.5805 22.2443 65.7472 22.7102C65.9176 23.1761 66.1771 23.5492 66.5256 23.8295C66.8778 24.1098 67.321 24.25 67.8551 24.25ZM77.473 28.9545C76.7798 28.9545 76.1832 28.8636 75.6832 28.6818C75.187 28.5 74.7817 28.2595 74.4673 27.9602C74.1529 27.661 73.9181 27.3333 73.7628 26.9773L75.223 26.375C75.3253 26.5417 75.4616 26.7178 75.6321 26.9034C75.8063 27.0928 76.0412 27.2538 76.3366 27.3864C76.6359 27.5189 77.0204 27.5852 77.4901 27.5852C78.134 27.5852 78.6662 27.428 79.0866 27.1136C79.5071 26.803 79.7173 26.3068 79.7173 25.625V23.9091H79.6094C79.5071 24.0947 79.3594 24.3011 79.1662 24.5284C78.9768 24.7557 78.7154 24.9527 78.3821 25.1193C78.0488 25.286 77.6151 25.3693 77.081 25.3693C76.3916 25.3693 75.7704 25.2083 75.2173 24.8864C74.6681 24.5606 74.2325 24.0814 73.9105 23.4489C73.5923 22.8125 73.4332 22.0303 73.4332 21.1023C73.4332 20.1742 73.5904 19.3788 73.9048 18.7159C74.223 18.053 74.6586 17.5455 75.2116 17.1932C75.7647 16.8371 76.3916 16.6591 77.0923 16.6591C77.634 16.6591 78.0715 16.75 78.4048 16.9318C78.7382 17.1098 78.9976 17.3182 79.1832 17.5568C79.3726 17.7955 79.5185 18.0057 79.6207 18.1875H79.7457V16.7727H81.4105V25.6932C81.4105 26.4432 81.2363 27.0587 80.8878 27.5398C80.5393 28.0208 80.0677 28.3769 79.473 28.608C78.8821 28.839 78.2154 28.9545 77.473 28.9545ZM77.456 23.9602C77.9446 23.9602 78.3575 23.8466 78.6946 23.6193C79.0355 23.3883 79.2931 23.0587 79.4673 22.6307C79.6454 22.1989 79.7344 21.6818 79.7344 21.0795C79.7344 20.4924 79.6473 19.9754 79.473 19.5284C79.2988 19.0814 79.0431 18.733 78.706 18.483C78.3688 18.2292 77.9522 18.1023 77.456 18.1023C76.9446 18.1023 76.5185 18.2348 76.1776 18.5C75.8366 18.7614 75.5791 19.1174 75.4048 19.5682C75.2344 20.0189 75.1491 20.5227 75.1491 21.0795C75.1491 21.6515 75.2363 22.1534 75.4105 22.5852C75.5848 23.017 75.8423 23.3542 76.1832 23.5966C76.5279 23.839 76.9522 23.9602 77.456 23.9602ZM83.6889 25.5V16.7727H85.3878V25.5H83.6889ZM84.5469 15.4261C84.2514 15.4261 83.9976 15.3277 83.7855 15.1307C83.5772 14.9299 83.473 14.6913 83.473 14.4148C83.473 14.1345 83.5772 13.8958 83.7855 13.6989C83.9976 13.4981 84.2514 13.3977 84.5469 13.3977C84.8423 13.3977 85.0942 13.4981 85.3026 13.6989C85.5147 13.8958 85.6207 14.1345 85.6207 14.4148C85.6207 14.6913 85.5147 14.9299 85.3026 15.1307C85.0942 15.3277 84.8423 15.4261 84.5469 15.4261ZM89.3722 20.3182V25.5H87.6733V16.7727H89.304V18.1932H89.4119C89.6127 17.7311 89.9271 17.3598 90.3551 17.0795C90.7869 16.7992 91.3305 16.6591 91.9858 16.6591C92.5805 16.6591 93.1013 16.7841 93.5483 17.0341C93.9953 17.2803 94.3419 17.6477 94.5881 18.1364C94.8343 18.625 94.9574 19.2292 94.9574 19.9489V25.5H93.2585V20.1534C93.2585 19.5208 93.0938 19.0265 92.7642 18.6705C92.4347 18.3106 91.982 18.1307 91.4062 18.1307C91.0123 18.1307 90.6619 18.2159 90.3551 18.3864C90.0521 18.5568 89.8116 18.8068 89.6335 19.1364C89.4593 19.4621 89.3722 19.8561 89.3722 20.3182Z" fill="#646464"/>
<rect x="0.25" y="0.25" width="150.5" height="39.5" rx="3.75" stroke="#F3A615" stroke-width="0.5"/>
</svg>
