<svg width="335" height="274" viewBox="0 0 335 274" fill="none" xmlns="http://www.w3.org/2000/svg">
<path d="M5.44602 23L0.451705 5.54545H4.48295L7.37216 17.6733H7.51705L10.7045 5.54545H14.1562L17.3352 17.6989H17.4886L20.3778 5.54545H24.4091L19.4148 23H15.8182L12.4943 11.5881H12.358L9.04261 23H5.44602ZM30.8757 23.2557C29.5291 23.2557 28.37 22.983 27.3984 22.4375C26.4325 21.8864 25.6882 21.108 25.1655 20.1023C24.6428 19.0909 24.3814 17.8949 24.3814 16.5142C24.3814 15.1676 24.6428 13.9858 25.1655 12.9688C25.6882 11.9517 26.424 11.1591 27.3729 10.5909C28.3274 10.0227 29.4467 9.73864 30.7308 9.73864C31.5945 9.73864 32.3984 9.87784 33.1428 10.1562C33.8928 10.429 34.5462 10.8409 35.103 11.392C35.6655 11.9432 36.103 12.6364 36.4155 13.4716C36.728 14.3011 36.8842 15.2727 36.8842 16.3864V17.3835H25.8303V15.1335H33.4666C33.4666 14.6108 33.353 14.1477 33.1257 13.7443C32.8984 13.3409 32.5831 13.0256 32.1797 12.7983C31.782 12.5653 31.3189 12.4489 30.7905 12.4489C30.2393 12.4489 29.7507 12.5767 29.3246 12.8324C28.9041 13.0824 28.5746 13.4205 28.3359 13.8466C28.0973 14.267 27.9751 14.7358 27.9695 15.2528V17.392C27.9695 18.0398 28.0888 18.5994 28.3274 19.071C28.5717 19.5426 28.9155 19.9062 29.3587 20.1619C29.8018 20.4176 30.3274 20.5455 30.9354 20.5455C31.3388 20.5455 31.7081 20.4886 32.0433 20.375C32.3786 20.2614 32.6655 20.0909 32.9041 19.8636C33.1428 19.6364 33.3246 19.358 33.4496 19.0284L36.8075 19.25C36.6371 20.0568 36.2876 20.7614 35.7592 21.3636C35.2365 21.9602 34.5604 22.4261 33.7308 22.7614C32.907 23.0909 31.9553 23.2557 30.8757 23.2557ZM42.8842 5.54545V23H39.2536V5.54545H42.8842ZM51.7074 23.2557C50.3665 23.2557 49.2131 22.9716 48.2472 22.4034C47.2869 21.8295 46.5483 21.0341 46.0312 20.017C45.5199 19 45.2642 17.8295 45.2642 16.5057C45.2642 15.1648 45.5227 13.9886 46.0398 12.9773C46.5625 11.9602 47.304 11.1676 48.2642 10.5994C49.2244 10.0256 50.3665 9.73864 51.6903 9.73864C52.8324 9.73864 53.8324 9.94602 54.6903 10.3608C55.5483 10.7756 56.2273 11.358 56.7273 12.108C57.2273 12.858 57.5028 13.7386 57.554 14.75H54.1278C54.0313 14.0966 53.7756 13.571 53.3608 13.1733C52.9517 12.7699 52.4148 12.5682 51.75 12.5682C51.1875 12.5682 50.696 12.7216 50.2756 13.0284C49.8608 13.3295 49.5369 13.7699 49.304 14.3494C49.071 14.929 48.9545 15.6307 48.9545 16.4545C48.9545 17.2898 49.0682 18 49.2955 18.5852C49.5284 19.1705 49.8551 19.6165 50.2756 19.9233C50.696 20.2301 51.1875 20.3835 51.75 20.3835C52.1648 20.3835 52.5369 20.2983 52.8665 20.1278C53.2017 19.9574 53.4773 19.7102 53.6932 19.3864C53.9148 19.0568 54.0597 18.6619 54.1278 18.2017H57.554C57.4972 19.2017 57.2244 20.0824 56.7358 20.8438C56.2528 21.5994 55.5852 22.1903 54.733 22.6165C53.8807 23.0426 52.8722 23.2557 51.7074 23.2557ZM65.7933 23.2557C64.4695 23.2557 63.3246 22.9744 62.3587 22.4119C61.3984 21.8437 60.657 21.054 60.1342 20.0426C59.6115 19.0256 59.3501 17.8466 59.3501 16.5057C59.3501 15.1534 59.6115 13.9716 60.1342 12.9602C60.657 11.9432 61.3984 11.1534 62.3587 10.5909C63.3246 10.0227 64.4695 9.73864 65.7933 9.73864C67.1172 9.73864 68.2592 10.0227 69.2195 10.5909C70.1854 11.1534 70.9297 11.9432 71.4524 12.9602C71.9751 13.9716 72.2365 15.1534 72.2365 16.5057C72.2365 17.8466 71.9751 19.0256 71.4524 20.0426C70.9297 21.054 70.1854 21.8437 69.2195 22.4119C68.2592 22.9744 67.1172 23.2557 65.7933 23.2557ZM65.8104 20.4432C66.4126 20.4432 66.9155 20.2727 67.3189 19.9318C67.7223 19.5852 68.0263 19.1136 68.2308 18.517C68.4411 17.9205 68.5462 17.2415 68.5462 16.4801C68.5462 15.7188 68.4411 15.0398 68.2308 14.4432C68.0263 13.8466 67.7223 13.375 67.3189 13.0284C66.9155 12.6818 66.4126 12.5085 65.8104 12.5085C65.2024 12.5085 64.6911 12.6818 64.2763 13.0284C63.8672 13.375 63.5575 13.8466 63.3473 14.4432C63.1428 15.0398 63.0405 15.7188 63.0405 16.4801C63.0405 17.2415 63.1428 17.9205 63.3473 18.517C63.5575 19.1136 63.8672 19.5852 64.2763 19.9318C64.6911 20.2727 65.2024 20.4432 65.8104 20.4432ZM74.5973 23V9.90909H78.0575V12.2188H78.2109C78.4837 11.4517 78.9382 10.8466 79.5746 10.4034C80.2109 9.96023 80.9723 9.73864 81.8587 9.73864C82.7564 9.73864 83.5206 9.96307 84.1513 10.4119C84.782 10.8551 85.2024 11.4574 85.4126 12.2188H85.549C85.8161 11.4688 86.299 10.8693 86.9979 10.4205C87.7024 9.96591 88.5348 9.73864 89.495 9.73864C90.7166 9.73864 91.7081 10.1278 92.4695 10.9062C93.2365 11.679 93.62 12.7756 93.62 14.196V23H89.9979V14.9119C89.9979 14.1847 89.8047 13.6392 89.4183 13.2756C89.032 12.9119 88.549 12.7301 87.9695 12.7301C87.3104 12.7301 86.7962 12.9403 86.4268 13.3608C86.0575 13.7756 85.8729 14.3239 85.8729 15.0057V23H82.353V14.8352C82.353 14.1932 82.1683 13.6818 81.799 13.3011C81.4354 12.9205 80.9553 12.7301 80.3587 12.7301C79.9553 12.7301 79.5916 12.8324 79.2678 13.0369C78.9496 13.2358 78.6967 13.517 78.5092 13.8807C78.3217 14.2386 78.228 14.6591 78.228 15.142V23H74.5973ZM102.454 23.2557C101.107 23.2557 99.9482 22.983 98.9766 22.4375C98.0107 21.8864 97.2663 21.108 96.7436 20.1023C96.2209 19.0909 95.9595 17.8949 95.9595 16.5142C95.9595 15.1676 96.2209 13.9858 96.7436 12.9688C97.2663 11.9517 98.0021 11.1591 98.951 10.5909C99.9055 10.0227 101.025 9.73864 102.309 9.73864C103.173 9.73864 103.977 9.87784 104.721 10.1562C105.471 10.429 106.124 10.8409 106.681 11.392C107.244 11.9432 107.681 12.6364 107.994 13.4716C108.306 14.3011 108.462 15.2727 108.462 16.3864V17.3835H97.4084V15.1335H105.045C105.045 14.6108 104.931 14.1477 104.704 13.7443C104.477 13.3409 104.161 13.0256 103.758 12.7983C103.36 12.5653 102.897 12.4489 102.369 12.4489C101.817 12.4489 101.329 12.5767 100.903 12.8324C100.482 13.0824 100.153 13.4205 99.9141 13.8466C99.6754 14.267 99.5533 14.7358 99.5476 15.2528V17.392C99.5476 18.0398 99.6669 18.5994 99.9055 19.071C100.15 19.5426 100.494 19.9062 100.937 20.1619C101.38 20.4176 101.906 20.5455 102.513 20.5455C102.917 20.5455 103.286 20.4886 103.621 20.375C103.957 20.2614 104.244 20.0909 104.482 19.8636C104.721 19.6364 104.903 19.358 105.028 19.0284L108.386 19.25C108.215 20.0568 107.866 20.7614 107.337 21.3636C106.815 21.9602 106.138 22.4261 105.309 22.7614C104.485 23.0909 103.533 23.2557 102.454 23.2557ZM116.455 23V5.54545H120.085V12.108H120.196C120.355 11.7557 120.585 11.3977 120.886 11.0341C121.193 10.6648 121.591 10.358 122.08 10.1136C122.574 9.86364 123.188 9.73864 123.92 9.73864C124.875 9.73864 125.756 9.98864 126.562 10.4886C127.369 10.983 128.014 11.7301 128.497 12.7301C128.98 13.7244 129.222 14.9716 129.222 16.4716C129.222 17.9318 128.986 19.1648 128.514 20.1705C128.048 21.1705 127.412 21.929 126.605 22.446C125.804 22.9574 124.906 23.2131 123.912 23.2131C123.207 23.2131 122.608 23.0966 122.114 22.8636C121.625 22.6307 121.224 22.3381 120.912 21.9858C120.599 21.6278 120.361 21.267 120.196 20.9034H120.034V23H116.455ZM120.009 16.4545C120.009 17.233 120.116 17.9119 120.332 18.4915C120.548 19.071 120.861 19.5227 121.27 19.8466C121.679 20.1648 122.176 20.3239 122.761 20.3239C123.352 20.3239 123.852 20.1619 124.261 19.8381C124.67 19.5085 124.98 19.054 125.19 18.4744C125.406 17.8892 125.514 17.2159 125.514 16.4545C125.514 15.6989 125.409 15.0341 125.199 14.4602C124.989 13.8864 124.679 13.4375 124.27 13.1136C123.861 12.7898 123.358 12.6278 122.761 12.6278C122.17 12.6278 121.67 12.7841 121.261 13.0966C120.858 13.4091 120.548 13.8523 120.332 14.4261C120.116 15 120.009 15.6761 120.009 16.4545ZM135.377 23.2472C134.542 23.2472 133.798 23.1023 133.144 22.8125C132.491 22.517 131.974 22.0824 131.593 21.5085C131.218 20.929 131.031 20.2074 131.031 19.3438C131.031 18.6165 131.164 18.0057 131.431 17.5114C131.698 17.017 132.062 16.6193 132.522 16.3182C132.982 16.017 133.505 15.7898 134.09 15.6364C134.681 15.483 135.3 15.375 135.948 15.3125C136.71 15.233 137.323 15.1591 137.789 15.0909C138.255 15.017 138.593 14.9091 138.803 14.767C139.013 14.625 139.119 14.4148 139.119 14.1364V14.0852C139.119 13.5455 138.948 13.1278 138.607 12.8324C138.272 12.5369 137.795 12.3892 137.175 12.3892C136.522 12.3892 136.002 12.5341 135.616 12.8239C135.229 13.108 134.974 13.4659 134.849 13.8977L131.491 13.625C131.661 12.8295 131.996 12.142 132.496 11.5625C132.996 10.9773 133.641 10.5284 134.431 10.2159C135.227 9.89773 136.147 9.73864 137.192 9.73864C137.92 9.73864 138.616 9.82386 139.281 9.99432C139.951 10.1648 140.545 10.429 141.062 10.7869C141.585 11.1449 141.996 11.6051 142.298 12.1676C142.599 12.7244 142.749 13.392 142.749 14.1705V23H139.306V21.1847H139.204C138.994 21.5938 138.712 21.9545 138.36 22.267C138.008 22.5739 137.585 22.8153 137.09 22.9915C136.596 23.1619 136.025 23.2472 135.377 23.2472ZM136.417 20.7415C136.951 20.7415 137.423 20.6364 137.832 20.4261C138.241 20.2102 138.562 19.9205 138.795 19.5568C139.028 19.1932 139.144 18.7812 139.144 18.321V16.9318C139.031 17.0057 138.874 17.0739 138.675 17.1364C138.482 17.1932 138.263 17.2472 138.019 17.2983C137.775 17.3437 137.531 17.3864 137.286 17.4261C137.042 17.4602 136.82 17.4915 136.621 17.5199C136.195 17.5824 135.823 17.6818 135.505 17.8182C135.187 17.9545 134.94 18.1392 134.763 18.3722C134.587 18.5994 134.499 18.8835 134.499 19.2244C134.499 19.7188 134.678 20.0966 135.036 20.358C135.4 20.6136 135.86 20.7415 136.417 20.7415ZM151.481 23.2557C150.14 23.2557 148.987 22.9716 148.021 22.4034C147.06 21.8295 146.322 21.0341 145.805 20.017C145.293 19 145.038 17.8295 145.038 16.5057C145.038 15.1648 145.296 13.9886 145.813 12.9773C146.336 11.9602 147.077 11.1676 148.038 10.5994C148.998 10.0256 150.14 9.73864 151.464 9.73864C152.606 9.73864 153.606 9.94602 154.464 10.3608C155.322 10.7756 156.001 11.358 156.501 12.108C157.001 12.858 157.276 13.7386 157.327 14.75H153.901C153.805 14.0966 153.549 13.571 153.134 13.1733C152.725 12.7699 152.188 12.5682 151.523 12.5682C150.961 12.5682 150.469 12.7216 150.049 13.0284C149.634 13.3295 149.31 13.7699 149.077 14.3494C148.844 14.929 148.728 15.6307 148.728 16.4545C148.728 17.2898 148.842 18 149.069 18.5852C149.302 19.1705 149.629 19.6165 150.049 19.9233C150.469 20.2301 150.961 20.3835 151.523 20.3835C151.938 20.3835 152.31 20.2983 152.64 20.1278C152.975 19.9574 153.251 19.7102 153.467 19.3864C153.688 19.0568 153.833 18.6619 153.901 18.2017H157.327C157.271 19.2017 156.998 20.0824 156.509 20.8438C156.026 21.5994 155.359 22.1903 154.506 22.6165C153.654 23.0426 152.646 23.2557 151.481 23.2557ZM162.942 19.233L162.95 14.8778H163.479L167.672 9.90909H171.839L166.206 16.4886H165.345L162.942 19.233ZM159.652 23V5.54545H163.283V23H159.652ZM167.834 23L163.982 17.2983L166.402 14.733L172.087 23H167.834Z" fill="#1E1E1E"/>
<path d="M1.11861 59H2.65483V54.5604H7.73082V59H9.27202V48.8182H7.73082V53.2429H2.65483V48.8182H1.11861V59ZM14.6811 59.1541C16.3466 59.1541 17.5249 58.3338 17.8629 57.0909L16.456 56.8374C16.1875 57.5582 15.5412 57.9261 14.696 57.9261C13.4233 57.9261 12.5682 57.1009 12.5284 55.6293H17.9574V55.1023C17.9574 52.343 16.3068 51.2642 14.5767 51.2642C12.4489 51.2642 11.0469 52.8849 11.0469 55.2315C11.0469 57.603 12.429 59.1541 14.6811 59.1541ZM12.5334 54.5156C12.593 53.4318 13.3786 52.4922 14.5866 52.4922C15.7401 52.4922 16.4957 53.3473 16.5007 54.5156H12.5334ZM20.3139 61.8636C21.5419 61.8636 22.3175 61.2223 22.7599 60.0192L25.9169 51.3786L24.3111 51.3636L22.3771 57.2898H22.2976L20.3636 51.3636H18.7727L21.5668 59.0994L21.3828 59.6065C21.005 60.6207 20.473 60.7053 19.6577 60.4815L19.2997 61.6996C19.4787 61.7791 19.8665 61.8636 20.3139 61.8636ZM31.9624 61.8636C33.1903 61.8636 33.9659 61.2223 34.4084 60.0192L37.5653 51.3786L35.9595 51.3636L34.0256 57.2898H33.946L32.0121 51.3636H30.4212L33.2152 59.0994L33.0312 59.6065C32.6534 60.6207 32.1214 60.7053 31.3061 60.4815L30.9482 61.6996C31.1271 61.7791 31.5149 61.8636 31.9624 61.8636ZM41.9093 59.1541C44.062 59.1541 45.4689 57.5781 45.4689 55.2166C45.4689 52.8402 44.062 51.2642 41.9093 51.2642C39.7566 51.2642 38.3496 52.8402 38.3496 55.2166C38.3496 57.5781 39.7566 59.1541 41.9093 59.1541ZM41.9142 57.9062C40.5073 57.9062 39.851 56.6783 39.851 55.2116C39.851 53.75 40.5073 52.5071 41.9142 52.5071C43.3113 52.5071 43.9675 53.75 43.9675 55.2116C43.9675 56.6783 43.3113 57.9062 41.9142 57.9062ZM51.9656 55.8331C51.9705 57.1307 51.006 57.7472 50.1708 57.7472C49.2511 57.7472 48.6147 57.081 48.6147 56.0419V51.3636H47.1282V56.2209C47.1282 58.1151 48.1673 59.0994 49.6339 59.0994C50.7823 59.0994 51.5629 58.4929 51.9158 57.6776H51.9954V59H53.457V51.3636H51.9656V55.8331ZM56.9371 48.8182H55.6644V49.7876C55.6644 50.5582 55.3263 51.1896 54.9386 51.7614L55.6744 52.2884C56.44 51.6719 56.9371 50.6179 56.9371 49.7727V48.8182ZM58.1477 59H59.6342V54.3366C59.6342 53.3374 60.4048 52.6165 61.4588 52.6165C61.767 52.6165 62.1151 52.6712 62.2344 52.706V51.2841C62.0852 51.2642 61.7919 51.2493 61.603 51.2493C60.7081 51.2493 59.9425 51.7564 59.6641 52.5767H59.5845V51.3636H58.1477V59ZM66.5385 59.1541C68.204 59.1541 69.3823 58.3338 69.7203 57.0909L68.3134 56.8374C68.0449 57.5582 67.3986 57.9261 66.5534 57.9261C65.2807 57.9261 64.4256 57.1009 64.3858 55.6293H69.8148V55.1023C69.8148 52.343 68.1642 51.2642 66.4341 51.2642C64.3063 51.2642 62.9043 52.8849 62.9043 55.2315C62.9043 57.603 64.2864 59.1541 66.5385 59.1541ZM64.3908 54.5156C64.4505 53.4318 65.236 52.4922 66.4441 52.4922C67.5975 52.4922 68.3532 53.3473 68.3581 54.5156H64.3908ZM75.2885 59H76.7402V57.8118H76.8645C77.133 58.299 77.6799 59.1491 79.0719 59.1491C80.9213 59.1491 82.2637 57.6676 82.2637 55.1967C82.2637 52.7209 80.9015 51.2642 79.057 51.2642C77.6401 51.2642 77.128 52.1293 76.8645 52.6016H76.775V48.8182H75.2885V59ZM76.7452 55.1818C76.7452 53.5859 77.4412 52.527 78.7388 52.527C80.0861 52.527 80.7623 53.6655 80.7623 55.1818C80.7623 56.7131 80.0662 57.8814 78.7388 57.8814C77.4611 57.8814 76.7452 56.7876 76.7452 55.1818ZM86.1552 59.169C87.418 59.169 88.1289 58.5277 88.4123 57.956H88.4719V59H89.9237V53.929C89.9237 51.7067 88.1737 51.2642 86.9606 51.2642C85.5785 51.2642 84.3058 51.821 83.8086 53.2131L85.2056 53.5312C85.4244 52.9893 85.9812 52.4673 86.9805 52.4673C87.94 52.4673 88.4322 52.9695 88.4322 53.8345V53.8693C88.4322 54.4112 87.8754 54.4013 86.5032 54.5604C85.0565 54.7294 83.5749 55.1072 83.5749 56.8423C83.5749 58.3438 84.7035 59.169 86.1552 59.169ZM86.4783 57.9759C85.6381 57.9759 85.0316 57.598 85.0316 56.8622C85.0316 56.0668 85.7376 55.7834 86.5977 55.669C87.0799 55.6044 88.2234 55.4751 88.4371 55.2614V56.2457C88.4371 57.1506 87.7163 57.9759 86.4783 57.9759ZM95.1202 59.1541C96.9249 59.1541 98.0932 58.0703 98.2573 56.5838H96.8105C96.6216 57.4091 95.9803 57.8963 95.1301 57.8963C93.8723 57.8963 93.062 56.8473 93.062 55.1818C93.062 53.5462 93.8873 52.517 95.1301 52.517C96.0748 52.517 96.6515 53.1136 96.8105 53.8295H98.2573C98.0982 52.2884 96.8404 51.2642 95.1053 51.2642C92.9526 51.2642 91.5605 52.8849 91.5605 55.2166C91.5605 57.5185 92.9029 59.1541 95.1202 59.1541ZM99.8469 59H101.333V56.2905L102.074 55.5497L104.669 59H106.494L103.193 54.6399L106.285 51.3636H104.505L101.463 54.5952H101.333V48.8182H99.8469V59ZM109.574 57.608H108.142L108.092 58.1648C107.978 59.5121 107.66 60.8693 107.526 61.4858H108.58C108.818 60.8345 109.345 59.343 109.499 58.1499L109.574 57.608ZM118.848 51.3636H117.203V50.6776C117.203 50.0014 117.481 49.6335 118.207 49.6335C118.515 49.6335 118.734 49.7031 118.873 49.7479L119.221 48.5447C119.012 48.4652 118.58 48.3409 117.978 48.3409C116.77 48.3409 115.711 49.0469 115.711 50.4787V51.3636H114.533V52.5568H115.711V59H117.203V52.5568H118.848V51.3636ZM120.382 59H121.869V51.3636H120.382V59ZM121.133 50.1854C121.645 50.1854 122.072 49.7876 122.072 49.3004C122.072 48.8132 121.645 48.4105 121.133 48.4105C120.616 48.4105 120.193 48.8132 120.193 49.3004C120.193 49.7876 120.616 50.1854 121.133 50.1854ZM125.355 48.8182H123.868V59H125.355V48.8182ZM128.841 48.8182H127.355V59H128.841V48.8182ZM134.546 59H136.033V51.3636H134.546V59ZM135.297 50.1854C135.809 50.1854 136.237 49.7876 136.237 49.3004C136.237 48.8132 135.809 48.4105 135.297 48.4105C134.78 48.4105 134.357 48.8132 134.357 49.3004C134.357 49.7876 134.78 50.1854 135.297 50.1854ZM139.519 54.4659C139.519 53.2479 140.265 52.5518 141.299 52.5518C142.308 52.5518 142.92 53.2131 142.92 54.3217V59H144.406V54.1428C144.406 52.2536 143.367 51.2642 141.806 51.2642C140.657 51.2642 139.907 51.7962 139.554 52.6065H139.459V51.3636H138.032V59H139.519V54.4659ZM151.044 61.8636C152.272 61.8636 153.048 61.2223 153.49 60.0192L156.647 51.3786L155.042 51.3636L153.108 57.2898H153.028L151.094 51.3636H149.503L152.297 59.0994L152.113 59.6065C151.735 60.6207 151.203 60.7053 150.388 60.4815L150.03 61.6996C150.209 61.7791 150.597 61.8636 151.044 61.8636ZM160.991 59.1541C163.144 59.1541 164.551 57.5781 164.551 55.2166C164.551 52.8402 163.144 51.2642 160.991 51.2642C158.839 51.2642 157.432 52.8402 157.432 55.2166C157.432 57.5781 158.839 59.1541 160.991 59.1541ZM160.996 57.9062C159.589 57.9062 158.933 56.6783 158.933 55.2116C158.933 53.75 159.589 52.5071 160.996 52.5071C162.393 52.5071 163.05 53.75 163.05 55.2116C163.05 56.6783 162.393 57.9062 160.996 57.9062ZM171.048 55.8331C171.053 57.1307 170.088 57.7472 169.253 57.7472C168.333 57.7472 167.697 57.081 167.697 56.0419V51.3636H166.21V56.2209C166.21 58.1151 167.249 59.0994 168.716 59.0994C169.864 59.0994 170.645 58.4929 170.998 57.6776H171.077V59H172.539V51.3636H171.048V55.8331ZM174.536 59H176.023V54.3366C176.023 53.3374 176.794 52.6165 177.847 52.6165C178.156 52.6165 178.504 52.6712 178.623 52.706V51.2841C178.474 51.2642 178.181 51.2493 177.992 51.2493C177.097 51.2493 176.331 51.7564 176.053 52.5767H175.973V51.3636H174.536V59ZM186.473 59.1491C187.865 59.1491 188.412 58.299 188.681 57.8118H188.805V59H190.257V48.8182H188.77V52.6016H188.681C188.412 52.1293 187.905 51.2642 186.483 51.2642C184.639 51.2642 183.281 52.7209 183.281 55.1967C183.281 57.6676 184.619 59.1491 186.473 59.1491ZM186.801 57.8814C185.474 57.8814 184.783 56.7131 184.783 55.1818C184.783 53.6655 185.459 52.527 186.801 52.527C188.099 52.527 188.795 53.5859 188.795 55.1818C188.795 56.7876 188.084 57.8814 186.801 57.8814ZM195.669 59.1541C197.335 59.1541 198.513 58.3338 198.851 57.0909L197.444 56.8374C197.176 57.5582 196.529 57.9261 195.684 57.9261C194.412 57.9261 193.556 57.1009 193.517 55.6293H198.946V55.1023C198.946 52.343 197.295 51.2642 195.565 51.2642C193.437 51.2642 192.035 52.8849 192.035 55.2315C192.035 57.603 193.417 59.1541 195.669 59.1541ZM193.522 54.5156C193.581 53.4318 194.367 52.4922 195.575 52.4922C196.728 52.4922 197.484 53.3473 197.489 54.5156H193.522ZM204.16 51.3636H202.594V49.5341H201.107V51.3636H199.988V52.5568H201.107V57.0661C201.102 58.4531 202.161 59.1243 203.334 59.0994C203.807 59.0945 204.125 59.005 204.299 58.9403L204.03 57.7124C203.931 57.7322 203.747 57.777 203.508 57.777C203.026 57.777 202.594 57.6179 202.594 56.7578V52.5568H204.16V51.3636ZM208.026 59.169C209.289 59.169 210 58.5277 210.283 57.956H210.343V59H211.795V53.929C211.795 51.7067 210.045 51.2642 208.832 51.2642C207.45 51.2642 206.177 51.821 205.68 53.2131L207.077 53.5312C207.295 52.9893 207.852 52.4673 208.852 52.4673C209.811 52.4673 210.303 52.9695 210.303 53.8345V53.8693C210.303 54.4112 209.746 54.4013 208.374 54.5604C206.928 54.7294 205.446 55.1072 205.446 56.8423C205.446 58.3438 206.575 59.169 208.026 59.169ZM208.349 57.9759C207.509 57.9759 206.903 57.598 206.903 56.8622C206.903 56.0668 207.609 55.7834 208.469 55.669C208.951 55.6044 210.094 55.4751 210.308 55.2614V56.2457C210.308 57.1506 209.587 57.9759 208.349 57.9759ZM213.775 59H215.261V51.3636H213.775V59ZM214.525 50.1854C215.037 50.1854 215.465 49.7876 215.465 49.3004C215.465 48.8132 215.037 48.4105 214.525 48.4105C214.008 48.4105 213.586 48.8132 213.586 49.3004C213.586 49.7876 214.008 50.1854 214.525 50.1854ZM218.748 48.8182H217.261V59H218.748V48.8182ZM226.47 53.228C226.161 52.0398 225.232 51.2642 223.581 51.2642C221.856 51.2642 220.633 52.174 220.633 53.5263C220.633 54.6101 221.289 55.331 222.721 55.6491L224.014 55.9325C224.749 56.0966 225.093 56.4247 225.093 56.902C225.093 57.4936 224.461 57.956 223.487 57.956C222.597 57.956 222.025 57.5732 221.846 56.8224L220.409 57.0412C220.658 58.3935 221.781 59.1541 223.497 59.1541C225.341 59.1541 226.619 58.1747 226.619 56.7926C226.619 55.7138 225.933 55.0476 224.531 54.7244L223.318 54.446C222.477 54.2472 222.115 53.9638 222.119 53.4467C222.115 52.8601 222.751 52.4425 223.596 52.4425C224.521 52.4425 224.948 52.9545 225.122 53.4666L226.47 53.228ZM235.523 51.3636H233.957V49.5341H232.47V51.3636H231.352V52.5568H232.47V57.0661C232.465 58.4531 233.524 59.1243 234.698 59.0994C235.17 59.0945 235.488 59.005 235.662 58.9403L235.394 57.7124C235.294 57.7322 235.11 57.777 234.872 57.777C234.389 57.777 233.957 57.6179 233.957 56.7578V52.5568H235.523V51.3636ZM240.302 59.1541C242.455 59.1541 243.862 57.5781 243.862 55.2166C243.862 52.8402 242.455 51.2642 240.302 51.2642C238.149 51.2642 236.742 52.8402 236.742 55.2166C236.742 57.5781 238.149 59.1541 240.302 59.1541ZM240.307 57.9062C238.9 57.9062 238.244 56.6783 238.244 55.2116C238.244 53.75 238.9 52.5071 240.307 52.5071C241.704 52.5071 242.36 53.75 242.36 55.2116C242.36 56.6783 241.704 57.9062 240.307 57.9062ZM252.428 62.0227C254.371 62.0227 255.873 61.1328 255.873 59.169V51.3636H254.416V52.6016H254.307C254.043 52.1293 253.516 51.2642 252.094 51.2642C250.25 51.2642 248.893 52.7209 248.893 55.152C248.893 57.5881 250.28 58.8857 252.085 58.8857C253.487 58.8857 254.028 58.0952 254.297 57.608H254.391V59.1094C254.391 60.3075 253.571 60.8246 252.442 60.8246C251.205 60.8246 250.722 60.2031 250.459 59.7656L249.181 60.2926C249.584 61.2273 250.603 62.0227 252.428 62.0227ZM252.413 57.6527C251.085 57.6527 250.394 56.6335 250.394 55.1321C250.394 53.6655 251.07 52.527 252.413 52.527C253.71 52.527 254.406 53.5859 254.406 55.1321C254.406 56.7081 253.695 57.6527 252.413 57.6527ZM261.158 59.1541C262.823 59.1541 264.001 58.3338 264.339 57.0909L262.933 56.8374C262.664 57.5582 262.018 57.9261 261.173 57.9261C259.9 57.9261 259.045 57.1009 259.005 55.6293H264.434V55.1023C264.434 52.343 262.783 51.2642 261.053 51.2642C258.925 51.2642 257.523 52.8849 257.523 55.2315C257.523 57.603 258.906 59.1541 261.158 59.1541ZM259.01 54.5156C259.07 53.4318 259.855 52.4922 261.063 52.4922C262.217 52.4922 262.972 53.3473 262.977 54.5156H259.01ZM269.648 51.3636H268.082V49.5341H266.595V51.3636H265.477V52.5568H266.595V57.0661C266.59 58.4531 267.649 59.1243 268.823 59.0994C269.295 59.0945 269.613 59.005 269.787 58.9403L269.519 57.7124C269.419 57.7322 269.235 57.777 268.997 57.777C268.514 57.777 268.082 57.6179 268.082 56.7578V52.5568H269.648V51.3636ZM275.117 59H276.568V57.8118H276.693C276.961 58.299 277.508 59.1491 278.9 59.1491C280.749 59.1491 282.092 57.6676 282.092 55.1967C282.092 52.7209 280.73 51.2642 278.885 51.2642C277.468 51.2642 276.956 52.1293 276.693 52.6016H276.603V48.8182H275.117V59ZM276.573 55.1818C276.573 53.5859 277.269 52.527 278.567 52.527C279.914 52.527 280.59 53.6655 280.59 55.1818C280.59 56.7131 279.894 57.8814 278.567 57.8814C277.289 57.8814 276.573 56.7876 276.573 55.1818ZM285.983 59.169C287.246 59.169 287.957 58.5277 288.24 57.956H288.3V59H289.752V53.929C289.752 51.7067 288.002 51.2642 286.789 51.2642C285.407 51.2642 284.134 51.821 283.637 53.2131L285.034 53.5312C285.252 52.9893 285.809 52.4673 286.809 52.4673C287.768 52.4673 288.26 52.9695 288.26 53.8345V53.8693C288.26 54.4112 287.703 54.4013 286.331 54.5604C284.885 54.7294 283.403 55.1072 283.403 56.8423C283.403 58.3438 284.532 59.169 285.983 59.169ZM286.306 57.9759C285.466 57.9759 284.86 57.598 284.86 56.8622C284.86 56.0668 285.566 55.7834 286.426 55.669C286.908 55.6044 288.051 55.4751 288.265 55.2614V56.2457C288.265 57.1506 287.544 57.9759 286.306 57.9759ZM294.948 59.1541C296.753 59.1541 297.921 58.0703 298.085 56.5838H296.639C296.45 57.4091 295.808 57.8963 294.958 57.8963C293.7 57.8963 292.89 56.8473 292.89 55.1818C292.89 53.5462 293.715 52.517 294.958 52.517C295.903 52.517 296.48 53.1136 296.639 53.8295H298.085C297.926 52.2884 296.669 51.2642 294.933 51.2642C292.781 51.2642 291.389 52.8849 291.389 55.2166C291.389 57.5185 292.731 59.1541 294.948 59.1541ZM299.675 59H301.162V56.2905L301.902 55.5497L304.498 59H306.322L303.021 54.6399L306.113 51.3636H304.333L301.291 54.5952H301.162V48.8182H299.675V59ZM311.173 59H312.66V51.3636H311.173V59ZM311.924 50.1854C312.436 50.1854 312.863 49.7876 312.863 49.3004C312.863 48.8132 312.436 48.4105 311.924 48.4105C311.407 48.4105 310.984 48.8132 310.984 49.3004C310.984 49.7876 311.407 50.1854 311.924 50.1854ZM316.146 54.4659C316.146 53.2479 316.892 52.5518 317.926 52.5518C318.935 52.5518 319.547 53.2131 319.547 54.3217V59H321.033V54.1428C321.033 52.2536 319.994 51.2642 318.433 51.2642C317.284 51.2642 316.534 51.7962 316.181 52.6065H316.086V51.3636H314.659V59H316.146V54.4659Z" fill="#292B2D"/>
<rect x="0.25" y="94.25" width="334.5" height="60.5" rx="9.75" fill="white" stroke="#F3A615" stroke-width="0.5"/>
<path d="M21.1186 140H27.2685V138.678H22.6548V129.818H21.1186V140ZM31.7183 140.154C33.871 140.154 35.2779 138.578 35.2779 136.217C35.2779 133.84 33.871 132.264 31.7183 132.264C29.5656 132.264 28.1586 133.84 28.1586 136.217C28.1586 138.578 29.5656 140.154 31.7183 140.154ZM31.7232 138.906C30.3163 138.906 29.66 137.678 29.66 136.212C29.66 134.75 30.3163 133.507 31.7232 133.507C33.1202 133.507 33.7765 134.75 33.7765 136.212C33.7765 137.678 33.1202 138.906 31.7232 138.906ZM41.3745 136.833C41.3795 138.131 40.415 138.747 39.5798 138.747C38.66 138.747 38.0237 138.081 38.0237 137.042V132.364H36.5372V137.221C36.5372 139.115 37.5762 140.099 39.0429 140.099C40.1913 140.099 40.9718 139.493 41.3248 138.678H41.4044V140H42.866V132.364H41.3745V136.833ZM44.4634 140H45.9499V132.364H44.4634V140ZM45.2141 131.185C45.7261 131.185 46.1537 130.788 46.1537 130.3C46.1537 129.813 45.7261 129.411 45.2141 129.411C44.697 129.411 44.2744 129.813 44.2744 130.3C44.2744 130.788 44.697 131.185 45.2141 131.185ZM53.272 134.228C52.9637 133.04 52.0341 132.264 50.3835 132.264C48.6583 132.264 47.4353 133.174 47.4353 134.526C47.4353 135.61 48.0916 136.331 49.5234 136.649L50.816 136.933C51.5518 137.097 51.8949 137.425 51.8949 137.902C51.8949 138.494 51.2635 138.956 50.289 138.956C49.3991 138.956 48.8274 138.573 48.6484 137.822L47.2116 138.041C47.4602 139.393 48.5838 140.154 50.299 140.154C52.1434 140.154 53.4211 139.175 53.4211 137.793C53.4211 136.714 52.735 136.048 51.3331 135.724L50.12 135.446C49.2798 135.247 48.9169 134.964 48.9218 134.447C48.9169 133.86 49.5532 133.442 50.3984 133.442C51.3231 133.442 51.7507 133.955 51.9247 134.467L53.272 134.228ZM58.1804 140.169C60.532 140.169 61.9091 138.25 61.9091 134.914C61.9091 131.603 60.5121 129.679 58.1804 129.679C55.8438 129.679 54.4517 131.598 54.4467 134.914C54.4467 138.245 55.8239 140.164 58.1804 140.169ZM58.1804 138.842C56.8033 138.842 55.973 137.46 55.973 134.914C55.978 132.379 56.8082 130.982 58.1804 130.982C59.5476 130.982 60.3828 132.379 60.3828 134.914C60.3828 137.46 59.5526 138.842 58.1804 138.842ZM63.059 138.011H67.8864V140H69.353V138.011H70.7003V136.709H69.353V129.818H67.4588L63.059 136.768V138.011ZM67.8963 136.709H64.6698V136.629L67.8168 131.648H67.8963V136.709ZM72.0528 140H73.5393V135.337C73.5393 134.337 74.3099 133.616 75.3639 133.616C75.6721 133.616 76.0201 133.671 76.1395 133.706V132.284C75.9903 132.264 75.697 132.249 75.5081 132.249C74.6132 132.249 73.8476 132.756 73.5691 133.577H73.4896V132.364H72.0528V140ZM80.0436 140.154C81.7091 140.154 82.8874 139.334 83.2254 138.091L81.8185 137.837C81.55 138.558 80.9037 138.926 80.0585 138.926C78.7858 138.926 77.9307 138.101 77.8909 136.629H83.3199V136.102C83.3199 133.343 81.6693 132.264 79.9392 132.264C77.8114 132.264 76.4094 133.885 76.4094 136.232C76.4094 138.603 77.7915 140.154 80.0436 140.154ZM77.8959 135.516C77.9555 134.432 78.7411 133.492 79.9491 133.492C81.1026 133.492 81.8582 134.347 81.8632 135.516H77.8959ZM86.7915 140.169C88.0543 140.169 88.7652 139.528 89.0486 138.956H89.1083V140H90.56V134.929C90.56 132.707 88.81 132.264 87.5969 132.264C86.2148 132.264 84.9421 132.821 84.4449 134.213L85.8419 134.531C86.0607 133.989 86.6175 133.467 87.6168 133.467C88.5763 133.467 89.0685 133.969 89.0685 134.835V134.869C89.0685 135.411 88.5117 135.401 87.1395 135.56C85.6928 135.729 84.2113 136.107 84.2113 137.842C84.2113 139.344 85.3398 140.169 86.7915 140.169ZM87.1147 138.976C86.2745 138.976 85.6679 138.598 85.6679 137.862C85.6679 137.067 86.3739 136.783 87.234 136.669C87.7162 136.604 88.8597 136.475 89.0735 136.261V137.246C89.0735 138.151 88.3526 138.976 87.1147 138.976ZM93.6264 129.818H92.1399V140H93.6264V129.818ZM101.356 142.769C102.505 142.769 103.832 142.456 104.449 142.168L104.101 141.079C103.683 141.228 102.534 141.591 101.421 141.591C98.075 141.591 96.2802 139.746 96.2802 136.445C96.2802 133.283 98.0551 131.24 101.237 131.24C104.145 131.24 105.88 133.109 105.875 135.635C105.88 137.793 105.602 138.762 104.697 138.762C104.185 138.762 103.902 138.344 103.902 137.822V133.209H102.679V133.766H102.614C102.465 133.328 101.6 132.935 100.561 133.06C99.124 133.229 97.891 134.417 97.891 136.376C97.891 138.419 98.935 139.786 100.61 139.851C101.744 139.901 102.48 139.374 102.713 138.787H102.773C102.892 139.587 103.757 139.94 104.608 139.911C106.731 139.871 107.133 137.783 107.133 135.685C107.133 132.692 105.085 130.087 101.287 130.087C97.3044 130.087 94.9627 132.518 94.9578 136.435C94.9627 140.467 97.2447 142.769 101.356 142.769ZM100.899 138.633C99.6012 138.633 99.1538 137.519 99.1488 136.316C99.1538 135.173 99.7951 134.263 100.919 134.263C102.137 134.263 102.684 134.8 102.689 136.311C102.694 137.862 102.191 138.633 100.899 138.633ZM111.577 143.023C113.521 143.023 115.022 142.133 115.022 140.169V132.364H113.565V133.602H113.456C113.193 133.129 112.666 132.264 111.244 132.264C109.399 132.264 108.042 133.721 108.042 136.152C108.042 138.588 109.429 139.886 111.234 139.886C112.636 139.886 113.178 139.095 113.446 138.608H113.541V140.109C113.541 141.308 112.72 141.825 111.592 141.825C110.354 141.825 109.872 141.203 109.608 140.766L108.33 141.293C108.733 142.227 109.752 143.023 111.577 143.023ZM111.562 138.653C110.234 138.653 109.543 137.634 109.543 136.132C109.543 134.665 110.22 133.527 111.562 133.527C112.859 133.527 113.555 134.586 113.555 136.132C113.555 137.708 112.845 138.653 111.562 138.653ZM116.616 140H118.102V135.292C118.102 134.263 118.823 133.547 119.668 133.547C120.494 133.547 121.065 134.094 121.065 134.924V140H122.547V135.133C122.547 134.213 123.109 133.547 124.078 133.547C124.864 133.547 125.51 133.984 125.51 135.018V140H126.996V134.879C126.996 133.134 126.022 132.264 124.64 132.264C123.541 132.264 122.716 132.791 122.348 133.607H122.268C121.935 132.771 121.234 132.264 120.215 132.264C119.206 132.264 118.455 132.766 118.137 133.607H118.043V132.364H116.616V140ZM130.811 140.169C132.074 140.169 132.785 139.528 133.068 138.956H133.128V140H134.58V134.929C134.58 132.707 132.83 132.264 131.616 132.264C130.234 132.264 128.962 132.821 128.464 134.213L129.861 134.531C130.08 133.989 130.637 133.467 131.636 133.467C132.596 133.467 133.088 133.969 133.088 134.835V134.869C133.088 135.411 132.531 135.401 131.159 135.56C129.712 135.729 128.231 136.107 128.231 137.842C128.231 139.344 129.359 140.169 130.811 140.169ZM131.134 138.976C130.294 138.976 129.687 138.598 129.687 137.862C129.687 137.067 130.393 136.783 131.254 136.669C131.736 136.604 132.879 136.475 133.093 136.261V137.246C133.093 138.151 132.372 138.976 131.134 138.976ZM136.159 140H137.646V132.364H136.159V140ZM136.91 131.185C137.422 131.185 137.85 130.788 137.85 130.3C137.85 129.813 137.422 129.411 136.91 129.411C136.393 129.411 135.971 129.813 135.971 130.3C135.971 130.788 136.393 131.185 136.91 131.185ZM140.732 129.818H139.246V140H140.732V129.818ZM143.312 140.094C143.853 140.094 144.306 139.652 144.306 139.1C144.306 138.558 143.853 138.111 143.312 138.111C142.765 138.111 142.317 138.558 142.317 139.1C142.317 139.652 142.765 140.094 143.312 140.094ZM149.114 140.154C150.918 140.154 152.087 139.07 152.251 137.584H150.804C150.615 138.409 149.974 138.896 149.124 138.896C147.866 138.896 147.055 137.847 147.055 136.182C147.055 134.546 147.881 133.517 149.124 133.517C150.068 133.517 150.645 134.114 150.804 134.83H152.251C152.092 133.288 150.834 132.264 149.099 132.264C146.946 132.264 145.554 133.885 145.554 136.217C145.554 138.518 146.896 140.154 149.114 140.154ZM156.657 140.154C158.81 140.154 160.217 138.578 160.217 136.217C160.217 133.84 158.81 132.264 156.657 132.264C154.504 132.264 153.097 133.84 153.097 136.217C153.097 138.578 154.504 140.154 156.657 140.154ZM156.662 138.906C155.255 138.906 154.599 137.678 154.599 136.212C154.599 134.75 155.255 133.507 156.662 133.507C158.059 133.507 158.715 134.75 158.715 136.212C158.715 137.678 158.059 138.906 156.662 138.906ZM161.476 140H162.962V135.292C162.962 134.263 163.683 133.547 164.528 133.547C165.354 133.547 165.925 134.094 165.925 134.924V140H167.407V135.133C167.407 134.213 167.969 133.547 168.938 133.547C169.724 133.547 170.37 133.984 170.37 135.018V140H171.857V134.879C171.857 133.134 170.882 132.264 169.5 132.264C168.401 132.264 167.576 132.791 167.208 133.607H167.129C166.795 132.771 166.094 132.264 165.075 132.264C164.066 132.264 163.315 132.766 162.997 133.607H162.903V132.364H161.476V140Z" fill="#1E1E1E"/>
<path d="M20.7173 116H25.4759V114.896H22.0348V112.911H25.2024V111.806H22.0348V109.832H25.4474V108.727H20.7173V116ZM26.6147 116H27.9002V112.683C27.9002 112.012 28.3477 111.558 28.9017 111.558C29.445 111.558 29.8179 111.923 29.8179 112.484V116H31.0785V112.598C31.0785 111.984 31.4443 111.558 32.0657 111.558C32.5842 111.558 32.9961 111.863 32.9961 112.538V116H34.2852V112.339C34.2852 111.121 33.5821 110.474 32.5806 110.474C31.7887 110.474 31.185 110.865 30.9436 111.472H30.8867C30.6772 110.854 30.1481 110.474 29.413 110.474C28.6815 110.474 28.1346 110.851 27.9073 111.472H27.8434V110.545H26.6147V116ZM37.0389 116.11C37.8948 116.11 38.4061 115.709 38.6405 115.251H38.6831V116H39.9189V112.349C39.9189 110.908 38.7435 110.474 37.703 110.474C36.556 110.474 35.6753 110.986 35.3912 111.98L36.5915 112.151C36.7193 111.778 37.0816 111.458 37.7101 111.458C38.3067 111.458 38.6334 111.763 38.6334 112.3V112.321C38.6334 112.69 38.2463 112.708 37.284 112.811C36.2257 112.925 35.2137 113.241 35.2137 114.469C35.2137 115.542 35.9985 116.11 37.0389 116.11ZM37.3727 115.165C36.8365 115.165 36.453 114.92 36.453 114.448C36.453 113.955 36.8827 113.749 37.458 113.667C37.7953 113.621 38.47 113.536 38.637 113.401V114.043C38.637 114.651 38.1469 115.165 37.3727 115.165ZM41.0915 116H42.377V110.545H41.0915V116ZM41.7378 109.771C42.1462 109.771 42.48 109.459 42.48 109.075C42.48 108.688 42.1462 108.376 41.7378 108.376C41.3259 108.376 40.9921 108.688 40.9921 109.075C40.9921 109.459 41.3259 109.771 41.7378 109.771ZM44.8645 108.727H43.5789V116H44.8645V108.727Z" fill="#8F94A3"/>
<rect x="0.25" y="171.25" width="334.5" height="60.5" rx="9.75" fill="white" stroke="#F3A615" stroke-width="0.5"/>
<path fill-rule="evenodd" clip-rule="evenodd" d="M299.098 201C299.098 203.133 300.844 204.869 303 204.869C305.146 204.869 306.893 203.133 306.893 201C306.893 198.857 305.146 197.121 303 197.121C300.844 197.121 299.098 198.857 299.098 201ZM308.737 195.046C310.444 196.365 311.898 198.295 312.941 200.709C313.02 200.893 313.02 201.107 312.941 201.281C310.854 206.11 307.137 209 303 209H302.99C298.863 209 295.146 206.11 293.059 201.281C292.98 201.107 292.98 200.893 293.059 200.709C295.146 195.88 298.863 193 302.99 193H303C305.068 193 307.029 193.718 308.737 195.046ZM303.001 203.412C304.338 203.412 305.43 202.326 305.43 200.998C305.43 199.66 304.338 198.574 303.001 198.574C302.884 198.574 302.767 198.583 302.66 198.603C302.621 199.669 301.743 200.523 300.66 200.523H300.611C300.582 200.678 300.562 200.833 300.562 200.998C300.562 202.326 301.655 203.412 303.001 203.412Z" fill="#F3A615"/>
<path d="M20.7173 193H22.0348V190.543H23.4268C25.1065 190.543 26.0085 189.534 26.0085 188.135C26.0085 186.746 25.1172 185.727 23.4446 185.727H20.7173V193ZM22.0348 189.46V186.828H23.2422C24.2294 186.828 24.6662 187.361 24.6662 188.135C24.6662 188.909 24.2294 189.46 23.2493 189.46H22.0348ZM28.448 193.11C29.3038 193.11 29.8152 192.709 30.0496 192.251H30.0922V193H31.328V189.349C31.328 187.908 30.1525 187.474 29.1121 187.474C27.965 187.474 27.0844 187.986 26.8003 188.98L28.0006 189.151C28.1284 188.778 28.4906 188.458 29.1192 188.458C29.7158 188.458 30.0425 188.763 30.0425 189.3V189.321C30.0425 189.69 29.6554 189.708 28.693 189.811C27.6348 189.925 26.6227 190.241 26.6227 191.469C26.6227 192.542 27.4075 193.11 28.448 193.11ZM28.7818 192.165C28.2456 192.165 27.8621 191.92 27.8621 191.448C27.8621 190.955 28.2918 190.749 28.867 190.667C29.2044 190.621 29.8791 190.536 30.046 190.401V191.043C30.046 191.651 29.556 192.165 28.7818 192.165ZM36.8117 188.987C36.6341 188.064 35.8955 187.474 34.6171 187.474C33.3031 187.474 32.4083 188.121 32.4118 189.129C32.4083 189.925 32.8983 190.45 33.9459 190.667L34.8763 190.862C35.377 190.972 35.6114 191.175 35.6114 191.484C35.6114 191.857 35.2066 192.137 34.5958 192.137C34.0063 192.137 33.6227 191.881 33.5127 191.391L32.2591 191.512C32.4189 192.513 33.2605 193.107 34.5993 193.107C35.9629 193.107 36.9253 192.4 36.9289 191.366C36.9253 190.589 36.4246 190.113 35.3948 189.889L34.4644 189.69C33.9104 189.566 33.6902 189.374 33.6938 189.058C33.6902 188.689 34.0986 188.433 34.6348 188.433C35.2279 188.433 35.5404 188.756 35.6398 189.115L36.8117 188.987ZM42.1799 188.987C42.0024 188.064 41.2638 187.474 39.9853 187.474C38.6714 187.474 37.7765 188.121 37.7801 189.129C37.7765 189.925 38.2666 190.45 39.3142 190.667L40.2446 190.862C40.7453 190.972 40.9797 191.175 40.9797 191.484C40.9797 191.857 40.5748 192.137 39.964 192.137C39.3746 192.137 38.991 191.881 38.8809 191.391L37.6274 191.512C37.7872 192.513 38.6288 193.107 39.9676 193.107C41.3312 193.107 42.2936 192.4 42.2971 191.366C42.2936 190.589 41.7929 190.113 40.763 189.889L39.8326 189.69C39.2787 189.566 39.0585 189.374 39.0621 189.058C39.0585 188.689 39.4669 188.433 40.0031 188.433C40.5961 188.433 40.9086 188.756 41.0081 189.115L42.1799 188.987ZM44.3629 193H45.7052L46.7279 189.314H46.8025L47.8252 193H49.164L50.7087 187.545H49.3948L48.4502 191.359H48.397L47.4168 187.545H46.1207L45.1406 191.381H45.0908L44.132 187.545H42.8217L44.3629 193ZM53.7191 193.107C55.3171 193.107 56.3327 191.981 56.3327 190.294C56.3327 188.604 55.3171 187.474 53.7191 187.474C52.1211 187.474 51.1054 188.604 51.1054 190.294C51.1054 191.981 52.1211 193.107 53.7191 193.107ZM53.7262 192.077C52.8419 192.077 52.4087 191.288 52.4087 190.29C52.4087 189.293 52.8419 188.494 53.7262 188.494C54.5962 188.494 55.0294 189.293 55.0294 190.29C55.0294 191.288 54.5962 192.077 53.7262 192.077ZM57.3038 193H58.5893V189.793C58.5893 189.101 59.1113 188.611 59.818 188.611C60.0346 188.611 60.3045 188.65 60.4146 188.685V187.503C60.2974 187.482 60.095 187.467 59.9529 187.467C59.3279 187.467 58.8059 187.822 58.6071 188.455H58.5502V187.545H57.3038V193ZM62.9482 193.096C63.8857 193.096 64.3083 192.538 64.5107 192.141H64.5888V193H65.853V185.727H64.5639V188.447H64.5107C64.3154 188.053 63.9141 187.474 62.9517 187.474C61.6911 187.474 60.7003 188.462 60.7003 190.28C60.7003 192.077 61.6627 193.096 62.9482 193.096ZM63.3068 192.041C62.4581 192.041 62.0107 191.295 62.0107 190.273C62.0107 189.257 62.451 188.529 63.3068 188.529C64.1343 188.529 64.5888 189.214 64.5888 190.273C64.5888 191.331 64.1272 192.041 63.3068 192.041Z" fill="#8F94A3"/>
<path d="M23.2464 215.131C24.4545 215.131 25.4339 214.151 25.4339 212.943C25.4339 211.735 24.4545 210.756 23.2464 210.756C22.0384 210.756 21.0589 211.735 21.0589 212.943C21.0589 214.151 22.0384 215.131 23.2464 215.131ZM31.1406 215.131C32.3487 215.131 33.3281 214.151 33.3281 212.943C33.3281 211.735 32.3487 210.756 31.1406 210.756C29.9325 210.756 28.9531 211.735 28.9531 212.943C28.9531 214.151 29.9325 215.131 31.1406 215.131ZM39.0347 215.131C40.2428 215.131 41.2222 214.151 41.2222 212.943C41.2222 211.735 40.2428 210.756 39.0347 210.756C37.8266 210.756 36.8472 211.735 36.8472 212.943C36.8472 214.151 37.8266 215.131 39.0347 215.131ZM46.9289 215.131C48.137 215.131 49.1164 214.151 49.1164 212.943C49.1164 211.735 48.137 210.756 46.9289 210.756C45.7208 210.756 44.7414 211.735 44.7414 212.943C44.7414 214.151 45.7208 215.131 46.9289 215.131ZM54.823 215.131C56.0311 215.131 57.0105 214.151 57.0105 212.943C57.0105 211.735 56.0311 210.756 54.823 210.756C53.6149 210.756 52.6355 211.735 52.6355 212.943C52.6355 214.151 53.6149 215.131 54.823 215.131ZM62.7172 215.131C63.9252 215.131 64.9047 214.151 64.9047 212.943C64.9047 211.735 63.9252 210.756 62.7172 210.756C61.5091 210.756 60.5297 211.735 60.5297 212.943C60.5297 214.151 61.5091 215.131 62.7172 215.131ZM70.6113 215.131C71.8194 215.131 72.7988 214.151 72.7988 212.943C72.7988 211.735 71.8194 210.756 70.6113 210.756C69.4032 210.756 68.4238 211.735 68.4238 212.943C68.4238 214.151 69.4032 215.131 70.6113 215.131ZM78.5054 215.131C79.7135 215.131 80.6929 214.151 80.6929 212.943C80.6929 211.735 79.7135 210.756 78.5054 210.756C77.2973 210.756 76.3179 211.735 76.3179 212.943C76.3179 214.151 77.2973 215.131 78.5054 215.131ZM86.3996 215.131C87.6077 215.131 88.5871 214.151 88.5871 212.943C88.5871 211.735 87.6077 210.756 86.3996 210.756C85.1915 210.756 84.2121 211.735 84.2121 212.943C84.2121 214.151 85.1915 215.131 86.3996 215.131ZM94.2937 215.131C95.5018 215.131 96.4812 214.151 96.4812 212.943C96.4812 211.735 95.5018 210.756 94.2937 210.756C93.0856 210.756 92.1062 211.735 92.1062 212.943C92.1062 214.151 93.0856 215.131 94.2937 215.131ZM102.188 215.131C103.396 215.131 104.375 214.151 104.375 212.943C104.375 211.735 103.396 210.756 102.188 210.756C100.98 210.756 100 211.735 100 212.943C100 214.151 100.98 215.131 102.188 215.131ZM110.082 215.131C111.29 215.131 112.269 214.151 112.269 212.943C112.269 211.735 111.29 210.756 110.082 210.756C108.874 210.756 107.894 211.735 107.894 212.943C107.894 214.151 108.874 215.131 110.082 215.131Z" fill="#1E1E1E"/>
<path d="M215.119 270H216.655V265.56H220.98V264.243H216.655V261.141H221.433V259.818H215.119V270ZM225.858 270.154C228.011 270.154 229.418 268.578 229.418 266.217C229.418 263.84 228.011 262.264 225.858 262.264C223.706 262.264 222.299 263.84 222.299 266.217C222.299 268.578 223.706 270.154 225.858 270.154ZM225.863 268.906C224.456 268.906 223.8 267.678 223.8 266.212C223.8 264.75 224.456 263.507 225.863 263.507C227.26 263.507 227.917 264.75 227.917 266.212C227.917 267.678 227.26 268.906 225.863 268.906ZM231.077 270H232.564V265.337C232.564 264.337 233.335 263.616 234.388 263.616C234.697 263.616 235.045 263.671 235.164 263.706V262.284C235.015 262.264 234.722 262.249 234.533 262.249C233.638 262.249 232.872 262.756 232.594 263.577H232.514V262.364H231.077V270ZM239.379 273.023C241.323 273.023 242.824 272.133 242.824 270.169V262.364H241.367V263.602H241.258C240.994 263.129 240.468 262.264 239.046 262.264C237.201 262.264 235.844 263.721 235.844 266.152C235.844 268.588 237.231 269.886 239.036 269.886C240.438 269.886 240.98 269.095 241.248 268.608H241.343V270.109C241.343 271.308 240.522 271.825 239.394 271.825C238.156 271.825 237.673 271.203 237.41 270.766L236.132 271.293C236.535 272.227 237.554 273.023 239.379 273.023ZM239.364 268.653C238.036 268.653 237.345 267.634 237.345 266.132C237.345 264.665 238.021 263.527 239.364 263.527C240.661 263.527 241.357 264.586 241.357 266.132C241.357 267.708 240.646 268.653 239.364 268.653ZM248.034 270.154C250.187 270.154 251.594 268.578 251.594 266.217C251.594 263.84 250.187 262.264 248.034 262.264C245.882 262.264 244.475 263.84 244.475 266.217C244.475 268.578 245.882 270.154 248.034 270.154ZM248.039 268.906C246.632 268.906 245.976 267.678 245.976 266.212C245.976 264.75 246.632 263.507 248.039 263.507C249.436 263.507 250.093 264.75 250.093 266.212C250.093 267.678 249.436 268.906 248.039 268.906ZM256.818 262.364H255.252V260.534H253.765V262.364H252.647V263.557H253.765V268.066C253.76 269.453 254.819 270.124 255.993 270.099C256.465 270.094 256.783 270.005 256.957 269.94L256.689 268.712C256.589 268.732 256.405 268.777 256.167 268.777C255.684 268.777 255.252 268.618 255.252 267.758V263.557H256.818V262.364ZM262.287 270H263.823V266.42H265.911C268.272 266.42 269.441 264.994 269.441 263.114C269.441 261.24 268.282 259.818 265.916 259.818H262.287V270ZM263.823 265.118V261.136H265.752C267.273 261.136 267.895 261.961 267.895 263.114C267.895 264.268 267.273 265.118 265.772 265.118H263.823ZM273.276 270.169C274.539 270.169 275.25 269.528 275.533 268.956H275.593V270H277.045V264.929C277.045 262.707 275.295 262.264 274.082 262.264C272.7 262.264 271.427 262.821 270.93 264.213L272.327 264.531C272.545 263.989 273.102 263.467 274.102 263.467C275.061 263.467 275.553 263.969 275.553 264.835V264.869C275.553 265.411 274.996 265.401 273.624 265.56C272.178 265.729 270.696 266.107 270.696 267.842C270.696 269.344 271.825 270.169 273.276 270.169ZM273.599 268.976C272.759 268.976 272.153 268.598 272.153 267.862C272.153 267.067 272.859 266.783 273.719 266.669C274.201 266.604 275.344 266.475 275.558 266.261V267.246C275.558 268.151 274.837 268.976 273.599 268.976ZM284.747 264.228C284.439 263.04 283.509 262.264 281.858 262.264C280.133 262.264 278.91 263.174 278.91 264.526C278.91 265.61 279.567 266.331 280.998 266.649L282.291 266.933C283.027 267.097 283.37 267.425 283.37 267.902C283.37 268.494 282.738 268.956 281.764 268.956C280.874 268.956 280.302 268.573 280.123 267.822L278.687 268.041C278.935 269.393 280.059 270.154 281.774 270.154C283.618 270.154 284.896 269.175 284.896 267.793C284.896 266.714 284.21 266.048 282.808 265.724L281.595 265.446C280.755 265.247 280.392 264.964 280.397 264.447C280.392 263.86 281.028 263.442 281.873 263.442C282.798 263.442 283.226 263.955 283.4 264.467L284.747 264.228ZM292.253 264.228C291.945 263.04 291.015 262.264 289.364 262.264C287.639 262.264 286.416 263.174 286.416 264.526C286.416 265.61 287.072 266.331 288.504 266.649L289.797 266.933C290.533 267.097 290.876 267.425 290.876 267.902C290.876 268.494 290.244 268.956 289.27 268.956C288.38 268.956 287.808 268.573 287.629 267.822L286.192 268.041C286.441 269.393 287.565 270.154 289.28 270.154C291.124 270.154 292.402 269.175 292.402 267.793C292.402 266.714 291.716 266.048 290.314 265.724L289.101 265.446C288.261 265.247 287.898 264.964 287.903 264.447C287.898 263.86 288.534 263.442 289.379 263.442C290.304 263.442 290.732 263.955 290.906 264.467L292.253 264.228ZM295.692 270H297.203L298.754 264.487H298.869L300.42 270H301.936L304.178 262.364H302.642L301.156 267.947H301.081L299.59 262.364H298.053L296.552 267.972H296.477L294.981 262.364H293.445L295.692 270ZM308.573 270.154C310.726 270.154 312.133 268.578 312.133 266.217C312.133 263.84 310.726 262.264 308.573 262.264C306.421 262.264 305.014 263.84 305.014 266.217C305.014 268.578 306.421 270.154 308.573 270.154ZM308.578 268.906C307.171 268.906 306.515 267.678 306.515 266.212C306.515 264.75 307.171 263.507 308.578 263.507C309.975 263.507 310.632 264.75 310.632 266.212C310.632 267.678 309.975 268.906 308.578 268.906ZM313.792 270H315.279V265.337C315.279 264.337 316.049 263.616 317.103 263.616C317.412 263.616 317.76 263.671 317.879 263.706V262.284C317.73 262.264 317.436 262.249 317.248 262.249C316.353 262.249 315.587 262.756 315.309 263.577H315.229V262.364H313.792V270ZM321.751 270.149C323.143 270.149 323.689 269.299 323.958 268.812H324.082V270H325.534V259.818H324.047V263.602H323.958C323.689 263.129 323.182 262.264 321.76 262.264C319.916 262.264 318.559 263.721 318.559 266.197C318.559 268.668 319.896 270.149 321.751 270.149ZM322.079 268.881C320.751 268.881 320.06 267.713 320.06 266.182C320.06 264.665 320.736 263.527 322.079 263.527C323.376 263.527 324.072 264.586 324.072 266.182C324.072 267.788 323.361 268.881 322.079 268.881ZM329.281 267.072H330.703V266.977C330.723 265.834 331.051 265.322 331.896 264.8C332.786 264.263 333.333 263.507 333.333 262.388C333.333 260.773 332.11 259.679 330.286 259.679C328.61 259.679 327.268 260.658 327.203 262.448H328.714C328.774 261.394 329.525 260.932 330.286 260.932C331.131 260.932 331.817 261.494 331.817 262.374C331.817 263.114 331.354 263.636 330.763 264.004C329.838 264.571 329.291 265.133 329.281 266.977V267.072ZM330.032 270.094C330.574 270.094 331.026 269.652 331.026 269.1C331.026 268.558 330.574 268.111 330.032 268.111C329.485 268.111 329.038 268.558 329.038 269.1C329.038 269.652 329.485 270.094 330.032 270.094Z" fill="#1E1E1E"/>
</svg>
