<svg width="339" height="63" viewBox="0 0 339 63" fill="none" xmlns="http://www.w3.org/2000/svg">
<rect x="0.25" y="0.25" width="150.5" height="39.5" rx="3.75" fill="white"/>
<path d="M55.2784 25.5V13.8636H57.0341V23.9886H62.3068V25.5H55.2784ZM67.8494 25.6761C67.0313 25.6761 66.3172 25.4886 65.7074 25.1136C65.0975 24.7386 64.6241 24.214 64.2869 23.5398C63.9498 22.8655 63.7812 22.0777 63.7812 21.1761C63.7812 20.2708 63.9498 19.4792 64.2869 18.8011C64.6241 18.1231 65.0975 17.5966 65.7074 17.2216C66.3172 16.8466 67.0313 16.6591 67.8494 16.6591C68.6676 16.6591 69.3816 16.8466 69.9915 17.2216C70.6013 17.5966 71.0748 18.1231 71.4119 18.8011C71.7491 19.4792 71.9176 20.2708 71.9176 21.1761C71.9176 22.0777 71.7491 22.8655 71.4119 23.5398C71.0748 24.214 70.6013 24.7386 69.9915 25.1136C69.3816 25.4886 68.6676 25.6761 67.8494 25.6761ZM67.8551 24.25C68.3854 24.25 68.8248 24.1098 69.1733 23.8295C69.5218 23.5492 69.7794 23.1761 69.946 22.7102C70.1165 22.2443 70.2017 21.7311 70.2017 21.1705C70.2017 20.6136 70.1165 20.1023 69.946 19.6364C69.7794 19.1667 69.5218 18.7898 69.1733 18.5057C68.8248 18.2216 68.3854 18.0795 67.8551 18.0795C67.321 18.0795 66.8778 18.2216 66.5256 18.5057C66.1771 18.7898 65.9176 19.1667 65.7472 19.6364C65.5805 20.1023 65.4972 20.6136 65.4972 21.1705C65.4972 21.7311 65.5805 22.2443 65.7472 22.7102C65.9176 23.1761 66.1771 23.5492 66.5256 23.8295C66.8778 24.1098 67.321 24.25 67.8551 24.25ZM77.473 28.9545C76.7798 28.9545 76.1832 28.8636 75.6832 28.6818C75.187 28.5 74.7817 28.2595 74.4673 27.9602C74.1529 27.661 73.9181 27.3333 73.7628 26.9773L75.223 26.375C75.3253 26.5417 75.4616 26.7178 75.6321 26.9034C75.8063 27.0928 76.0412 27.2538 76.3366 27.3864C76.6359 27.5189 77.0204 27.5852 77.4901 27.5852C78.134 27.5852 78.6662 27.428 79.0866 27.1136C79.5071 26.803 79.7173 26.3068 79.7173 25.625V23.9091H79.6094C79.5071 24.0947 79.3594 24.3011 79.1662 24.5284C78.9768 24.7557 78.7154 24.9527 78.3821 25.1193C78.0488 25.286 77.6151 25.3693 77.081 25.3693C76.3916 25.3693 75.7704 25.2083 75.2173 24.8864C74.6681 24.5606 74.2325 24.0814 73.9105 23.4489C73.5923 22.8125 73.4332 22.0303 73.4332 21.1023C73.4332 20.1742 73.5904 19.3788 73.9048 18.7159C74.223 18.053 74.6586 17.5455 75.2116 17.1932C75.7647 16.8371 76.3916 16.6591 77.0923 16.6591C77.634 16.6591 78.0715 16.75 78.4048 16.9318C78.7382 17.1098 78.9976 17.3182 79.1832 17.5568C79.3726 17.7955 79.5185 18.0057 79.6207 18.1875H79.7457V16.7727H81.4105V25.6932C81.4105 26.4432 81.2363 27.0587 80.8878 27.5398C80.5393 28.0208 80.0677 28.3769 79.473 28.608C78.8821 28.839 78.2154 28.9545 77.473 28.9545ZM77.456 23.9602C77.9446 23.9602 78.3575 23.8466 78.6946 23.6193C79.0355 23.3883 79.2931 23.0587 79.4673 22.6307C79.6454 22.1989 79.7344 21.6818 79.7344 21.0795C79.7344 20.4924 79.6473 19.9754 79.473 19.5284C79.2988 19.0814 79.0431 18.733 78.706 18.483C78.3688 18.2292 77.9522 18.1023 77.456 18.1023C76.9446 18.1023 76.5185 18.2348 76.1776 18.5C75.8366 18.7614 75.5791 19.1174 75.4048 19.5682C75.2344 20.0189 75.1491 20.5227 75.1491 21.0795C75.1491 21.6515 75.2363 22.1534 75.4105 22.5852C75.5848 23.017 75.8423 23.3542 76.1832 23.5966C76.5279 23.839 76.9522 23.9602 77.456 23.9602ZM83.6889 25.5V16.7727H85.3878V25.5H83.6889ZM84.5469 15.4261C84.2514 15.4261 83.9976 15.3277 83.7855 15.1307C83.5772 14.9299 83.473 14.6913 83.473 14.4148C83.473 14.1345 83.5772 13.8958 83.7855 13.6989C83.9976 13.4981 84.2514 13.3977 84.5469 13.3977C84.8423 13.3977 85.0942 13.4981 85.3026 13.6989C85.5147 13.8958 85.6207 14.1345 85.6207 14.4148C85.6207 14.6913 85.5147 14.9299 85.3026 15.1307C85.0942 15.3277 84.8423 15.4261 84.5469 15.4261ZM89.3722 20.3182V25.5H87.6733V16.7727H89.304V18.1932H89.4119C89.6127 17.7311 89.9271 17.3598 90.3551 17.0795C90.7869 16.7992 91.3305 16.6591 91.9858 16.6591C92.5805 16.6591 93.1013 16.7841 93.5483 17.0341C93.9953 17.2803 94.3419 17.6477 94.5881 18.1364C94.8343 18.625 94.9574 19.2292 94.9574 19.9489V25.5H93.2585V20.1534C93.2585 19.5208 93.0938 19.0265 92.7642 18.6705C92.4347 18.3106 91.982 18.1307 91.4062 18.1307C91.0123 18.1307 90.6619 18.2159 90.3551 18.3864C90.0521 18.5568 89.8116 18.8068 89.6335 19.1364C89.4593 19.4621 89.3722 19.8561 89.3722 20.3182Z" fill="#646464"/>
<rect x="0.25" y="0.25" width="150.5" height="39.5" rx="3.75" stroke="#F3A615" stroke-width="0.5"/>
<g filter="url(#filter0_dd_352_39942)">
<rect x="187" width="140" height="40" rx="4" fill="#F3A615"/>
<path d="M226.278 25.5V13.8636H230.426C231.328 13.8636 232.076 14.0189 232.67 14.3295C233.269 14.6402 233.716 15.0701 234.011 15.6193C234.307 16.1648 234.455 16.7955 234.455 17.5114C234.455 18.2235 234.305 18.8504 234.006 19.392C233.71 19.9299 233.263 20.3485 232.665 20.6477C232.07 20.947 231.322 21.0966 230.42 21.0966H227.278V19.5852H230.261C230.83 19.5852 231.292 19.5038 231.648 19.3409C232.008 19.178 232.271 18.9413 232.438 18.6307C232.604 18.3201 232.688 17.947 232.688 17.5114C232.688 17.072 232.602 16.6913 232.432 16.3693C232.265 16.0473 232.002 15.8011 231.642 15.6307C231.286 15.4564 230.818 15.3693 230.239 15.3693H228.034V25.5H226.278ZM232.023 20.25L234.898 25.5H232.898L230.08 20.25H232.023ZM240.107 25.6761C239.247 25.6761 238.506 25.4924 237.885 25.125C237.268 24.7538 236.79 24.233 236.453 23.5625C236.12 22.8883 235.953 22.0985 235.953 21.1932C235.953 20.2992 236.12 19.5114 236.453 18.8295C236.79 18.1477 237.26 17.6155 237.862 17.233C238.468 16.8504 239.177 16.6591 239.987 16.6591C240.48 16.6591 240.957 16.7405 241.419 16.9034C241.881 17.0663 242.296 17.322 242.663 17.6705C243.031 18.0189 243.321 18.4716 243.533 19.0284C243.745 19.5814 243.851 20.2538 243.851 21.0455V21.6477H236.913V20.375H242.186C242.186 19.928 242.095 19.5322 241.913 19.1875C241.732 18.839 241.476 18.5644 241.146 18.3636C240.821 18.1629 240.438 18.0625 239.999 18.0625C239.521 18.0625 239.105 18.1799 238.749 18.4148C238.396 18.6458 238.124 18.9489 237.93 19.3239C237.741 19.6951 237.646 20.0985 237.646 20.5341V21.5284C237.646 22.1117 237.749 22.608 237.953 23.017C238.161 23.4261 238.451 23.7386 238.822 23.9545C239.194 24.1667 239.627 24.2727 240.124 24.2727C240.446 24.2727 240.739 24.2273 241.004 24.1364C241.269 24.0417 241.499 23.9015 241.692 23.7159C241.885 23.5303 242.033 23.3011 242.135 23.0284L243.743 23.3182C243.614 23.7917 243.383 24.2064 243.05 24.5625C242.72 24.9148 242.305 25.1894 241.805 25.3864C241.309 25.5795 240.743 25.6761 240.107 25.6761ZM249.395 28.9545C248.702 28.9545 248.105 28.8636 247.605 28.6818C247.109 28.5 246.704 28.2595 246.389 27.9602C246.075 27.661 245.84 27.3333 245.685 26.9773L247.145 26.375C247.247 26.5417 247.384 26.7178 247.554 26.9034C247.728 27.0928 247.963 27.2538 248.259 27.3864C248.558 27.5189 248.942 27.5852 249.412 27.5852C250.056 27.5852 250.588 27.428 251.009 27.1136C251.429 26.803 251.639 26.3068 251.639 25.625V23.9091H251.531C251.429 24.0947 251.281 24.3011 251.088 24.5284C250.899 24.7557 250.637 24.9527 250.304 25.1193C249.971 25.286 249.537 25.3693 249.003 25.3693C248.313 25.3693 247.692 25.2083 247.139 24.8864C246.59 24.5606 246.154 24.0814 245.832 23.4489C245.514 22.8125 245.355 22.0303 245.355 21.1023C245.355 20.1742 245.512 19.3788 245.827 18.7159C246.145 18.053 246.58 17.5455 247.134 17.1932C247.687 16.8371 248.313 16.6591 249.014 16.6591C249.556 16.6591 249.993 16.75 250.327 16.9318C250.66 17.1098 250.92 17.3182 251.105 17.5568C251.295 17.7955 251.44 18.0057 251.543 18.1875H251.668V16.7727H253.332V25.6932C253.332 26.4432 253.158 27.0587 252.81 27.5398C252.461 28.0208 251.99 28.3769 251.395 28.608C250.804 28.839 250.137 28.9545 249.395 28.9545ZM249.378 23.9602C249.866 23.9602 250.279 23.8466 250.616 23.6193C250.957 23.3883 251.215 23.0587 251.389 22.6307C251.567 22.1989 251.656 21.6818 251.656 21.0795C251.656 20.4924 251.569 19.9754 251.395 19.5284C251.221 19.0814 250.965 18.733 250.628 18.483C250.291 18.2292 249.874 18.1023 249.378 18.1023C248.866 18.1023 248.44 18.2348 248.099 18.5C247.759 18.7614 247.501 19.1174 247.327 19.5682C247.156 20.0189 247.071 20.5227 247.071 21.0795C247.071 21.6515 247.158 22.1534 247.332 22.5852C247.507 23.017 247.764 23.3542 248.105 23.5966C248.45 23.839 248.874 23.9602 249.378 23.9602ZM255.611 25.5V16.7727H257.31V25.5H255.611ZM256.469 15.4261C256.173 15.4261 255.92 15.3277 255.707 15.1307C255.499 14.9299 255.395 14.6913 255.395 14.4148C255.395 14.1345 255.499 13.8958 255.707 13.6989C255.92 13.4981 256.173 13.3977 256.469 13.3977C256.764 13.3977 257.016 13.4981 257.224 13.6989C257.437 13.8958 257.543 14.1345 257.543 14.4148C257.543 14.6913 257.437 14.9299 257.224 15.1307C257.016 15.3277 256.764 15.4261 256.469 15.4261ZM266.135 18.9034L264.595 19.1761C264.531 18.9792 264.429 18.7917 264.288 18.6136C264.152 18.4356 263.966 18.2898 263.732 18.1761C263.497 18.0625 263.203 18.0057 262.851 18.0057C262.37 18.0057 261.968 18.1136 261.646 18.3295C261.324 18.5417 261.163 18.8163 261.163 19.1534C261.163 19.4451 261.271 19.6799 261.487 19.858C261.703 20.036 262.052 20.1818 262.533 20.2955L263.919 20.6136C264.722 20.7992 265.321 21.0852 265.714 21.4716C266.108 21.858 266.305 22.3598 266.305 22.9773C266.305 23.5 266.154 23.9659 265.851 24.375C265.552 24.7803 265.133 25.0985 264.595 25.3295C264.061 25.5606 263.442 25.6761 262.737 25.6761C261.76 25.6761 260.963 25.4678 260.345 25.0511C259.728 24.6307 259.349 24.0341 259.209 23.2614L260.851 23.0114C260.953 23.4394 261.163 23.7633 261.482 23.983C261.8 24.1989 262.214 24.3068 262.726 24.3068C263.283 24.3068 263.728 24.1913 264.061 23.9602C264.394 23.7254 264.561 23.4394 264.561 23.1023C264.561 22.8295 264.459 22.6004 264.254 22.4148C264.054 22.2292 263.745 22.089 263.328 21.9943L261.851 21.6705C261.036 21.4848 260.434 21.1894 260.044 20.7841C259.658 20.3788 259.464 19.8655 259.464 19.2443C259.464 18.7292 259.608 18.2784 259.896 17.892C260.184 17.5057 260.582 17.2045 261.089 16.9886C261.597 16.7689 262.179 16.6591 262.834 16.6591C263.777 16.6591 264.519 16.8636 265.061 17.2727C265.603 17.678 265.961 18.2216 266.135 18.9034ZM272.247 16.7727V18.1364H267.48V16.7727H272.247ZM268.759 14.6818H270.457V22.9375C270.457 23.267 270.507 23.5152 270.605 23.6818C270.704 23.8447 270.83 23.9564 270.986 24.017C271.145 24.0739 271.317 24.1023 271.503 24.1023C271.639 24.1023 271.759 24.0928 271.861 24.0739C271.963 24.0549 272.043 24.0398 272.099 24.0284L272.406 25.4318C272.308 25.4697 272.168 25.5076 271.986 25.5455C271.804 25.5871 271.577 25.6098 271.304 25.6136C270.857 25.6212 270.44 25.5417 270.054 25.375C269.668 25.2083 269.355 24.9508 269.116 24.6023C268.878 24.2538 268.759 23.8163 268.759 23.2898V14.6818ZM277.794 25.6761C276.934 25.6761 276.194 25.4924 275.572 25.125C274.955 24.7538 274.478 24.233 274.141 23.5625C273.807 22.8883 273.641 22.0985 273.641 21.1932C273.641 20.2992 273.807 19.5114 274.141 18.8295C274.478 18.1477 274.947 17.6155 275.55 17.233C276.156 16.8504 276.864 16.6591 277.675 16.6591C278.167 16.6591 278.644 16.7405 279.107 16.9034C279.569 17.0663 279.983 17.322 280.351 17.6705C280.718 18.0189 281.008 18.4716 281.22 19.0284C281.432 19.5814 281.538 20.2538 281.538 21.0455V21.6477H274.601V20.375H279.874C279.874 19.928 279.783 19.5322 279.601 19.1875C279.419 18.839 279.163 18.5644 278.834 18.3636C278.508 18.1629 278.125 18.0625 277.686 18.0625C277.209 18.0625 276.792 18.1799 276.436 18.4148C276.084 18.6458 275.811 18.9489 275.618 19.3239C275.429 19.6951 275.334 20.0985 275.334 20.5341V21.5284C275.334 22.1117 275.436 22.608 275.641 23.017C275.849 23.4261 276.139 23.7386 276.51 23.9545C276.881 24.1667 277.315 24.2727 277.811 24.2727C278.133 24.2727 278.427 24.2273 278.692 24.1364C278.957 24.0417 279.186 23.9015 279.379 23.7159C279.572 23.5303 279.72 23.3011 279.822 23.0284L281.43 23.3182C281.302 23.7917 281.071 24.2064 280.737 24.5625C280.408 24.9148 279.993 25.1894 279.493 25.3864C278.997 25.5795 278.43 25.6761 277.794 25.6761ZM283.423 25.5V16.7727H285.065V18.1591H285.156C285.315 17.6894 285.596 17.3201 285.997 17.0511C286.402 16.7784 286.861 16.642 287.372 16.642C287.478 16.642 287.603 16.6458 287.747 16.6534C287.895 16.661 288.01 16.6705 288.094 16.6818V18.3068C288.026 18.2879 287.904 18.267 287.73 18.2443C287.556 18.2178 287.382 18.2045 287.207 18.2045C286.806 18.2045 286.448 18.2898 286.134 18.4602C285.823 18.6269 285.577 18.8598 285.395 19.1591C285.213 19.4545 285.122 19.7917 285.122 20.1705V25.5H283.423Z" fill="white"/>
</g>
<defs>
<filter id="filter0_dd_352_39942" x="175.517" y="-1.19209e-06" width="162.967" height="62.9668" filterUnits="userSpaceOnUse" color-interpolation-filters="sRGB">
<feFlood flood-opacity="0" result="BackgroundImageFix"/>
<feColorMatrix in="SourceAlpha" type="matrix" values="0 0 0 0 0 0 0 0 0 0 0 0 0 0 0 0 0 0 127 0" result="hardAlpha"/>
<feMorphology radius="1.9139" operator="erode" in="SourceAlpha" result="effect1_dropShadow_352_39942"/>
<feOffset dy="3.82779"/>
<feGaussianBlur stdDeviation="2.87085"/>
<feColorMatrix type="matrix" values="0 0 0 0 0.0627451 0 0 0 0 0.0941176 0 0 0 0 0.156863 0 0 0 0.03 0"/>
<feBlend mode="normal" in2="BackgroundImageFix" result="effect1_dropShadow_352_39942"/>
<feColorMatrix in="SourceAlpha" type="matrix" values="0 0 0 0 0 0 0 0 0 0 0 0 0 0 0 0 0 0 127 0" result="hardAlpha"/>
<feMorphology radius="3.82779" operator="erode" in="SourceAlpha" result="effect2_dropShadow_352_39942"/>
<feOffset dy="11.4834"/>
<feGaussianBlur stdDeviation="7.65559"/>
<feColorMatrix type="matrix" values="0 0 0 0 0.0627451 0 0 0 0 0.0941176 0 0 0 0 0.156863 0 0 0 0.08 0"/>
<feBlend mode="normal" in2="effect1_dropShadow_352_39942" result="effect2_dropShadow_352_39942"/>
<feBlend mode="normal" in="SourceGraphic" in2="effect2_dropShadow_352_39942" result="shape"/>
</filter>
</defs>
</svg>
