<svg width="349" height="87" viewBox="0 0 349 87" fill="none" xmlns="http://www.w3.org/2000/svg">
<g filter="url(#filter0_dd_352_40001)">
<rect x="12" width="325" height="64" rx="4" fill="#F3A615"/>
<path d="M154.278 37.5V25.8636H156.034V35.9886H161.307V37.5H154.278ZM166.849 37.6761C166.031 37.6761 165.317 37.4886 164.707 37.1136C164.098 36.7386 163.624 36.214 163.287 35.5398C162.95 34.8655 162.781 34.0777 162.781 33.1761C162.781 32.2708 162.95 31.4792 163.287 30.8011C163.624 30.1231 164.098 29.5966 164.707 29.2216C165.317 28.8466 166.031 28.6591 166.849 28.6591C167.668 28.6591 168.382 28.8466 168.991 29.2216C169.601 29.5966 170.075 30.1231 170.412 30.8011C170.749 31.4792 170.918 32.2708 170.918 33.1761C170.918 34.0777 170.749 34.8655 170.412 35.5398C170.075 36.214 169.601 36.7386 168.991 37.1136C168.382 37.4886 167.668 37.6761 166.849 37.6761ZM166.855 36.25C167.385 36.25 167.825 36.1098 168.173 35.8295C168.522 35.5492 168.779 35.1761 168.946 34.7102C169.116 34.2443 169.202 33.7311 169.202 33.1705C169.202 32.6136 169.116 32.1023 168.946 31.6364C168.779 31.1667 168.522 30.7898 168.173 30.5057C167.825 30.2216 167.385 30.0795 166.855 30.0795C166.321 30.0795 165.878 30.2216 165.526 30.5057C165.177 30.7898 164.918 31.1667 164.747 31.6364C164.58 32.1023 164.497 32.6136 164.497 33.1705C164.497 33.7311 164.58 34.2443 164.747 34.7102C164.918 35.1761 165.177 35.5492 165.526 35.8295C165.878 36.1098 166.321 36.25 166.855 36.25ZM176.473 40.9545C175.78 40.9545 175.183 40.8636 174.683 40.6818C174.187 40.5 173.782 40.2595 173.467 39.9602C173.153 39.661 172.918 39.3333 172.763 38.9773L174.223 38.375C174.325 38.5417 174.462 38.7178 174.632 38.9034C174.806 39.0928 175.041 39.2538 175.337 39.3864C175.636 39.5189 176.02 39.5852 176.49 39.5852C177.134 39.5852 177.666 39.428 178.087 39.1136C178.507 38.803 178.717 38.3068 178.717 37.625V35.9091H178.609C178.507 36.0947 178.359 36.3011 178.166 36.5284C177.977 36.7557 177.715 36.9527 177.382 37.1193C177.049 37.286 176.615 37.3693 176.081 37.3693C175.392 37.3693 174.77 37.2083 174.217 36.8864C173.668 36.5606 173.232 36.0814 172.911 35.4489C172.592 34.8125 172.433 34.0303 172.433 33.1023C172.433 32.1742 172.59 31.3788 172.905 30.7159C173.223 30.053 173.659 29.5455 174.212 29.1932C174.765 28.8371 175.392 28.6591 176.092 28.6591C176.634 28.6591 177.071 28.75 177.405 28.9318C177.738 29.1098 177.998 29.3182 178.183 29.5568C178.373 29.7955 178.518 30.0057 178.621 30.1875H178.746V28.7727H180.411V37.6932C180.411 38.4432 180.236 39.0587 179.888 39.5398C179.539 40.0208 179.068 40.3769 178.473 40.608C177.882 40.839 177.215 40.9545 176.473 40.9545ZM176.456 35.9602C176.945 35.9602 177.357 35.8466 177.695 35.6193C178.036 35.3883 178.293 35.0587 178.467 34.6307C178.645 34.1989 178.734 33.6818 178.734 33.0795C178.734 32.4924 178.647 31.9754 178.473 31.5284C178.299 31.0814 178.043 30.733 177.706 30.483C177.369 30.2292 176.952 30.1023 176.456 30.1023C175.945 30.1023 175.518 30.2348 175.178 30.5C174.837 30.7614 174.579 31.1174 174.405 31.5682C174.234 32.0189 174.149 32.5227 174.149 33.0795C174.149 33.6515 174.236 34.1534 174.411 34.5852C174.585 35.017 174.842 35.3542 175.183 35.5966C175.528 35.839 175.952 35.9602 176.456 35.9602ZM182.689 37.5V28.7727H184.388V37.5H182.689ZM183.547 27.4261C183.251 27.4261 182.998 27.3277 182.786 27.1307C182.577 26.9299 182.473 26.6913 182.473 26.4148C182.473 26.1345 182.577 25.8958 182.786 25.6989C182.998 25.4981 183.251 25.3977 183.547 25.3977C183.842 25.3977 184.094 25.4981 184.303 25.6989C184.515 25.8958 184.621 26.1345 184.621 26.4148C184.621 26.6913 184.515 26.9299 184.303 27.1307C184.094 27.3277 183.842 27.4261 183.547 27.4261ZM188.372 32.3182V37.5H186.673V28.7727H188.304V30.1932H188.412C188.613 29.7311 188.927 29.3598 189.355 29.0795C189.787 28.7992 190.33 28.6591 190.986 28.6591C191.58 28.6591 192.101 28.7841 192.548 29.0341C192.995 29.2803 193.342 29.6477 193.588 30.1364C193.834 30.625 193.957 31.2292 193.957 31.9489V37.5H192.259V32.1534C192.259 31.5208 192.094 31.0265 191.764 30.6705C191.435 30.3106 190.982 30.1307 190.406 30.1307C190.012 30.1307 189.662 30.2159 189.355 30.3864C189.052 30.5568 188.812 30.8068 188.634 31.1364C188.459 31.4621 188.372 31.8561 188.372 32.3182Z" fill="white"/>
</g>
<defs>
<filter id="filter0_dd_352_40001" x="0.516616" y="-1.19209e-06" width="347.967" height="86.9668" filterUnits="userSpaceOnUse" color-interpolation-filters="sRGB">
<feFlood flood-opacity="0" result="BackgroundImageFix"/>
<feColorMatrix in="SourceAlpha" type="matrix" values="0 0 0 0 0 0 0 0 0 0 0 0 0 0 0 0 0 0 127 0" result="hardAlpha"/>
<feMorphology radius="1.9139" operator="erode" in="SourceAlpha" result="effect1_dropShadow_352_40001"/>
<feOffset dy="3.82779"/>
<feGaussianBlur stdDeviation="2.87085"/>
<feColorMatrix type="matrix" values="0 0 0 0 0.0627451 0 0 0 0 0.0941176 0 0 0 0 0.156863 0 0 0 0.03 0"/>
<feBlend mode="normal" in2="BackgroundImageFix" result="effect1_dropShadow_352_40001"/>
<feColorMatrix in="SourceAlpha" type="matrix" values="0 0 0 0 0 0 0 0 0 0 0 0 0 0 0 0 0 0 127 0" result="hardAlpha"/>
<feMorphology radius="3.82779" operator="erode" in="SourceAlpha" result="effect2_dropShadow_352_40001"/>
<feOffset dy="11.4834"/>
<feGaussianBlur stdDeviation="7.65559"/>
<feColorMatrix type="matrix" values="0 0 0 0 0.0627451 0 0 0 0 0.0941176 0 0 0 0 0.156863 0 0 0 0.08 0"/>
<feBlend mode="normal" in2="effect1_dropShadow_352_40001" result="effect2_dropShadow_352_40001"/>
<feBlend mode="normal" in="SourceGraphic" in2="effect2_dropShadow_352_40001" result="shape"/>
</filter>
</defs>
</svg>
