<svg width="351" height="88" viewBox="0 0 351 88" fill="none" xmlns="http://www.w3.org/2000/svg">
<g filter="url(#filter0_dd_307_36508)">
<rect x="12" width="327" height="64" rx="10" fill="white"/>
<path d="M38.8 22H36.2C33 22 31 24 31 27.2V31.25H37.25C37.66 31.25 38 31.59 38 32C38 32.41 37.66 32.75 37.25 32.75H31V36.8C31 40 33 42 36.2 42H38.79C41.99 42 43.99 40 43.99 36.8V27.2C44 24 42 22 38.8 22Z" fill="#292D32"/>
<path d="M26.5599 31.25L28.6299 29.18C28.7799 29.03 28.8499 28.84 28.8499 28.65C28.8499 28.46 28.7799 28.26 28.6299 28.12C28.3399 27.83 27.8599 27.83 27.5699 28.12L24.2199 31.47C23.9299 31.76 23.9299 32.24 24.2199 32.53L27.5699 35.88C27.8599 36.17 28.3399 36.17 28.6299 35.88C28.9199 35.59 28.9199 35.11 28.6299 34.82L26.5599 32.75H30.9999V31.25H26.5599Z" fill="#292D32"/>
<path opacity="0.8" d="M63.2784 37.5V25.8636H65.0341V35.9886H70.3068V37.5H63.2784ZM75.8494 37.6761C75.0313 37.6761 74.3172 37.4886 73.7074 37.1136C73.0975 36.7386 72.6241 36.214 72.2869 35.5398C71.9498 34.8655 71.7812 34.0777 71.7812 33.1761C71.7812 32.2708 71.9498 31.4792 72.2869 30.8011C72.6241 30.1231 73.0975 29.5966 73.7074 29.2216C74.3172 28.8466 75.0313 28.6591 75.8494 28.6591C76.6676 28.6591 77.3816 28.8466 77.9915 29.2216C78.6013 29.5966 79.0748 30.1231 79.4119 30.8011C79.7491 31.4792 79.9176 32.2708 79.9176 33.1761C79.9176 34.0777 79.7491 34.8655 79.4119 35.5398C79.0748 36.214 78.6013 36.7386 77.9915 37.1136C77.3816 37.4886 76.6676 37.6761 75.8494 37.6761ZM75.8551 36.25C76.3854 36.25 76.8248 36.1098 77.1733 35.8295C77.5218 35.5492 77.7794 35.1761 77.946 34.7102C78.1165 34.2443 78.2017 33.7311 78.2017 33.1705C78.2017 32.6136 78.1165 32.1023 77.946 31.6364C77.7794 31.1667 77.5218 30.7898 77.1733 30.5057C76.8248 30.2216 76.3854 30.0795 75.8551 30.0795C75.321 30.0795 74.8778 30.2216 74.5256 30.5057C74.1771 30.7898 73.9176 31.1667 73.7472 31.6364C73.5805 32.1023 73.4972 32.6136 73.4972 33.1705C73.4972 33.7311 73.5805 34.2443 73.7472 34.7102C73.9176 35.1761 74.1771 35.5492 74.5256 35.8295C74.8778 36.1098 75.321 36.25 75.8551 36.25ZM85.473 40.9545C84.7798 40.9545 84.1832 40.8636 83.6832 40.6818C83.187 40.5 82.7817 40.2595 82.4673 39.9602C82.1529 39.661 81.9181 39.3333 81.7628 38.9773L83.223 38.375C83.3253 38.5417 83.4616 38.7178 83.6321 38.9034C83.8063 39.0928 84.0412 39.2538 84.3366 39.3864C84.6359 39.5189 85.0204 39.5852 85.4901 39.5852C86.134 39.5852 86.6662 39.428 87.0866 39.1136C87.5071 38.803 87.7173 38.3068 87.7173 37.625V35.9091H87.6094C87.5071 36.0947 87.3594 36.3011 87.1662 36.5284C86.9768 36.7557 86.7154 36.9527 86.3821 37.1193C86.0488 37.286 85.6151 37.3693 85.081 37.3693C84.3916 37.3693 83.7704 37.2083 83.2173 36.8864C82.6681 36.5606 82.2325 36.0814 81.9105 35.4489C81.5923 34.8125 81.4332 34.0303 81.4332 33.1023C81.4332 32.1742 81.5904 31.3788 81.9048 30.7159C82.223 30.053 82.6586 29.5455 83.2116 29.1932C83.7647 28.8371 84.3916 28.6591 85.0923 28.6591C85.634 28.6591 86.0715 28.75 86.4048 28.9318C86.7382 29.1098 86.9976 29.3182 87.1832 29.5568C87.3726 29.7955 87.5185 30.0057 87.6207 30.1875H87.7457V28.7727H89.4105V37.6932C89.4105 38.4432 89.2363 39.0587 88.8878 39.5398C88.5393 40.0208 88.0677 40.3769 87.473 40.608C86.8821 40.839 86.2154 40.9545 85.473 40.9545ZM85.456 35.9602C85.9446 35.9602 86.3575 35.8466 86.6946 35.6193C87.0355 35.3883 87.2931 35.0587 87.4673 34.6307C87.6454 34.1989 87.7344 33.6818 87.7344 33.0795C87.7344 32.4924 87.6473 31.9754 87.473 31.5284C87.2988 31.0814 87.0431 30.733 86.706 30.483C86.3688 30.2292 85.9522 30.1023 85.456 30.1023C84.9446 30.1023 84.5185 30.2348 84.1776 30.5C83.8366 30.7614 83.5791 31.1174 83.4048 31.5682C83.2344 32.0189 83.1491 32.5227 83.1491 33.0795C83.1491 33.6515 83.2363 34.1534 83.4105 34.5852C83.5848 35.017 83.8423 35.3542 84.1832 35.5966C84.5279 35.839 84.9522 35.9602 85.456 35.9602ZM95.3651 37.6761C94.5469 37.6761 93.8329 37.4886 93.223 37.1136C92.6132 36.7386 92.1397 36.214 91.8026 35.5398C91.4654 34.8655 91.2969 34.0777 91.2969 33.1761C91.2969 32.2708 91.4654 31.4792 91.8026 30.8011C92.1397 30.1231 92.6132 29.5966 93.223 29.2216C93.8329 28.8466 94.5469 28.6591 95.3651 28.6591C96.1832 28.6591 96.8973 28.8466 97.5071 29.2216C98.117 29.5966 98.5904 30.1231 98.9276 30.8011C99.2647 31.4792 99.4332 32.2708 99.4332 33.1761C99.4332 34.0777 99.2647 34.8655 98.9276 35.5398C98.5904 36.214 98.117 36.7386 97.5071 37.1136C96.8973 37.4886 96.1832 37.6761 95.3651 37.6761ZM95.3707 36.25C95.901 36.25 96.3404 36.1098 96.6889 35.8295C97.0374 35.5492 97.295 35.1761 97.4616 34.7102C97.6321 34.2443 97.7173 33.7311 97.7173 33.1705C97.7173 32.6136 97.6321 32.1023 97.4616 31.6364C97.295 31.1667 97.0374 30.7898 96.6889 30.5057C96.3404 30.2216 95.901 30.0795 95.3707 30.0795C94.8366 30.0795 94.3935 30.2216 94.0412 30.5057C93.6927 30.7898 93.4332 31.1667 93.2628 31.6364C93.0961 32.1023 93.0128 32.6136 93.0128 33.1705C93.0128 33.7311 93.0961 34.2443 93.2628 34.7102C93.4332 35.1761 93.6927 35.5492 94.0412 35.8295C94.3935 36.1098 94.8366 36.25 95.3707 36.25ZM106.858 33.8807V28.7727H108.562V37.5H106.892V35.9886H106.801C106.6 36.4545 106.278 36.8428 105.835 37.1534C105.396 37.4602 104.848 37.6136 104.193 37.6136C103.633 37.6136 103.136 37.4905 102.705 37.2443C102.277 36.9943 101.939 36.625 101.693 36.1364C101.451 35.6477 101.33 35.0436 101.33 34.3239V28.7727H103.028V34.1193C103.028 34.714 103.193 35.1875 103.523 35.5398C103.852 35.892 104.28 36.0682 104.807 36.0682C105.125 36.0682 105.441 35.9886 105.756 35.8295C106.074 35.6705 106.337 35.4299 106.545 35.108C106.758 34.786 106.862 34.3769 106.858 33.8807ZM114.919 28.7727V30.1364H110.152V28.7727H114.919ZM111.43 26.6818H113.129V34.9375C113.129 35.267 113.179 35.5152 113.277 35.6818C113.375 35.8447 113.502 35.9564 113.658 36.017C113.817 36.0739 113.989 36.1023 114.175 36.1023C114.311 36.1023 114.43 36.0928 114.533 36.0739C114.635 36.0549 114.714 36.0398 114.771 36.0284L115.078 37.4318C114.98 37.4697 114.839 37.5076 114.658 37.5455C114.476 37.5871 114.249 37.6098 113.976 37.6136C113.529 37.6212 113.112 37.5417 112.726 37.375C112.339 37.2083 112.027 36.9508 111.788 36.6023C111.55 36.2538 111.43 35.8163 111.43 35.2898V26.6818Z" fill="black"/>
<path d="M318.967 26.72L323.313 31.0667C323.827 31.58 323.827 32.42 323.313 32.9334L318.967 37.28" stroke="#292D32" stroke-width="2" stroke-miterlimit="10" stroke-linecap="round" stroke-linejoin="round"/>
</g>
<defs>
<filter id="filter0_dd_307_36508" x="0" y="0" width="351" height="88" filterUnits="userSpaceOnUse" color-interpolation-filters="sRGB">
<feFlood flood-opacity="0" result="BackgroundImageFix"/>
<feColorMatrix in="SourceAlpha" type="matrix" values="0 0 0 0 0 0 0 0 0 0 0 0 0 0 0 0 0 0 127 0" result="hardAlpha"/>
<feMorphology radius="2" operator="erode" in="SourceAlpha" result="effect1_dropShadow_307_36508"/>
<feOffset dy="4"/>
<feGaussianBlur stdDeviation="3"/>
<feColorMatrix type="matrix" values="0 0 0 0 0.0627451 0 0 0 0 0.0941176 0 0 0 0 0.156863 0 0 0 0.03 0"/>
<feBlend mode="normal" in2="BackgroundImageFix" result="effect1_dropShadow_307_36508"/>
<feColorMatrix in="SourceAlpha" type="matrix" values="0 0 0 0 0 0 0 0 0 0 0 0 0 0 0 0 0 0 127 0" result="hardAlpha"/>
<feMorphology radius="4" operator="erode" in="SourceAlpha" result="effect2_dropShadow_307_36508"/>
<feOffset dy="12"/>
<feGaussianBlur stdDeviation="8"/>
<feColorMatrix type="matrix" values="0 0 0 0 0.0627451 0 0 0 0 0.0941176 0 0 0 0 0.156863 0 0 0 0.08 0"/>
<feBlend mode="normal" in2="effect1_dropShadow_307_36508" result="effect2_dropShadow_307_36508"/>
<feBlend mode="normal" in="SourceGraphic" in2="effect2_dropShadow_307_36508" result="shape"/>
</filter>
</defs>
</svg>
