<svg width="444" height="88" viewBox="0 0 444 88" fill="none" xmlns="http://www.w3.org/2000/svg">
<g filter="url(#filter0_dd_307_37385)">
<rect x="11.9219" y="0.987793" width="420" height="64" rx="3.82779" fill="white"/>
<path d="M144.331 38.4878V26.8514H148.399C149.21 26.8514 149.878 26.9916 150.405 27.2719C150.931 27.5484 151.323 27.9215 151.581 28.3912C151.839 28.8571 151.967 29.3742 151.967 29.9423C151.967 30.4423 151.878 30.8552 151.7 31.181C151.526 31.5067 151.295 31.7643 151.007 31.9537C150.723 32.1431 150.414 32.2832 150.081 32.3742V32.4878C150.437 32.5105 150.795 32.6355 151.155 32.8628C151.515 33.0901 151.816 33.4158 152.058 33.8401C152.301 34.2643 152.422 34.7832 152.422 35.3969C152.422 35.9802 152.289 36.5048 152.024 36.9707C151.759 37.4367 151.34 37.806 150.768 38.0787C150.196 38.3514 149.452 38.4878 148.536 38.4878H144.331ZM145.74 37.2378H148.536C149.456 37.2378 150.109 37.0598 150.496 36.7037C150.886 36.3439 151.081 35.9082 151.081 35.3969C151.081 35.0029 150.981 34.6393 150.78 34.306C150.579 33.9689 150.293 33.6999 149.922 33.4992C149.551 33.2946 149.111 33.1923 148.604 33.1923H145.74V37.2378ZM145.74 31.9651H148.354C148.778 31.9651 149.161 31.8817 149.501 31.7151C149.846 31.5484 150.119 31.3136 150.32 31.0105C150.524 30.7075 150.626 30.3514 150.626 29.9423C150.626 29.431 150.448 28.9973 150.092 28.6412C149.736 28.2814 149.172 28.1014 148.399 28.1014H145.74V31.9651ZM160.055 34.9196V29.7605H161.396V38.4878H160.055V37.0105H159.964C159.76 37.4537 159.442 37.8306 159.01 38.1412C158.578 38.448 158.033 38.6014 157.374 38.6014C156.828 38.6014 156.343 38.4821 155.919 38.2435C155.495 38.0011 155.161 37.6374 154.919 37.1526C154.677 36.6639 154.555 36.0484 154.555 35.306V29.7605H155.896V35.2151C155.896 35.8514 156.074 36.359 156.43 36.7378C156.79 37.1166 157.249 37.306 157.805 37.306C158.139 37.306 158.478 37.2207 158.822 37.0503C159.171 36.8798 159.463 36.6185 159.697 36.2662C159.936 35.9139 160.055 35.4651 160.055 34.9196ZM164.716 41.7605C164.489 41.7605 164.286 41.7416 164.108 41.7037C163.93 41.6696 163.807 41.6355 163.739 41.6014L164.08 40.4196C164.405 40.5029 164.693 40.5332 164.943 40.5105C165.193 40.4878 165.415 40.3761 165.608 40.1753C165.805 39.9783 165.985 39.6582 166.148 39.2151L166.398 38.5332L163.17 29.7605H164.625L167.034 36.7151H167.125L169.534 29.7605H170.989L167.284 39.7605C167.117 40.2113 166.911 40.5844 166.665 40.8798C166.419 41.1791 166.133 41.4007 165.807 41.5446C165.485 41.6886 165.121 41.7605 164.716 41.7605ZM181.145 29.7605V30.8969H176.44V29.7605H181.145ZM177.849 38.4878V28.556C177.849 28.056 177.967 27.6393 178.202 27.306C178.437 26.9726 178.741 26.7226 179.116 26.556C179.491 26.3893 179.887 26.306 180.304 26.306C180.634 26.306 180.902 26.3325 181.111 26.3855C181.319 26.4385 181.474 26.4878 181.577 26.5332L181.19 27.6923C181.122 27.6696 181.027 27.6412 180.906 27.6071C180.789 27.573 180.634 27.556 180.44 27.556C179.997 27.556 179.677 27.6677 179.48 27.8912C179.287 28.1147 179.19 28.4423 179.19 28.8742V38.4878H177.849ZM183.024 38.4878V29.7605H184.32V31.0787H184.411C184.57 30.6469 184.857 30.2965 185.274 30.0276C185.691 29.7586 186.161 29.6242 186.683 29.6242C186.782 29.6242 186.905 29.626 187.053 29.6298C187.2 29.6336 187.312 29.6393 187.388 29.6469V31.0105C187.342 30.9992 187.238 30.9821 187.075 30.9594C186.916 30.9329 186.748 30.9196 186.57 30.9196C186.145 30.9196 185.767 31.0086 185.433 31.1867C185.104 31.3609 184.842 31.6033 184.649 31.9139C184.46 32.2207 184.365 32.5711 184.365 32.9651V38.4878H183.024ZM192.257 38.6696C191.469 38.6696 190.778 38.4821 190.183 38.1071C189.592 37.7321 189.13 37.2075 188.797 36.5332C188.467 35.859 188.303 35.0711 188.303 34.1696C188.303 33.2605 188.467 32.467 188.797 31.7889C189.13 31.1109 189.592 30.5844 190.183 30.2094C190.778 29.8344 191.469 29.6469 192.257 29.6469C193.045 29.6469 193.734 29.8344 194.325 30.2094C194.92 30.5844 195.382 31.1109 195.712 31.7889C196.045 32.467 196.212 33.2605 196.212 34.1696C196.212 35.0711 196.045 35.859 195.712 36.5332C195.382 37.2075 194.92 37.7321 194.325 38.1071C193.734 38.4821 193.045 38.6696 192.257 38.6696ZM192.257 37.4651C192.856 37.4651 193.348 37.3117 193.734 37.0048C194.121 36.698 194.407 36.2946 194.592 35.7946C194.778 35.2946 194.871 34.7529 194.871 34.1696C194.871 33.5863 194.778 33.0427 194.592 32.5389C194.407 32.0351 194.121 31.6279 193.734 31.3173C193.348 31.0067 192.856 30.8514 192.257 30.8514C191.659 30.8514 191.166 31.0067 190.78 31.3173C190.393 31.6279 190.107 32.0351 189.922 32.5389C189.736 33.0427 189.643 33.5863 189.643 34.1696C189.643 34.7529 189.736 35.2946 189.922 35.7946C190.107 36.2946 190.393 36.698 190.78 37.0048C191.166 37.3117 191.659 37.4651 192.257 37.4651ZM198.259 38.4878V29.7605H199.554V31.1242H199.668C199.849 30.6582 200.143 30.2965 200.548 30.0389C200.954 29.7776 201.44 29.6469 202.009 29.6469C202.584 29.6469 203.063 29.7776 203.446 30.0389C203.832 30.2965 204.134 30.6582 204.349 31.1242H204.44C204.664 30.6734 204.999 30.3154 205.446 30.0503C205.893 29.7814 206.429 29.6469 207.054 29.6469C207.834 29.6469 208.473 29.8912 208.969 30.3798C209.465 30.8647 209.713 31.6204 209.713 32.6469V38.4878H208.372V32.6469C208.372 32.0029 208.196 31.5427 207.844 31.2662C207.491 30.9897 207.077 30.8514 206.599 30.8514C205.986 30.8514 205.51 31.037 205.173 31.4082C204.836 31.7757 204.668 32.2416 204.668 32.806V38.4878H203.304V32.5105C203.304 32.0143 203.143 31.6147 202.821 31.3117C202.499 31.0048 202.084 30.8514 201.577 30.8514C201.228 30.8514 200.902 30.9442 200.599 31.1298C200.3 31.3154 200.058 31.573 199.872 31.9026C199.69 32.2283 199.599 32.6052 199.599 33.0332V38.4878H198.259ZM219.233 38.6923C218.68 38.6923 218.178 38.5882 217.727 38.3798C217.277 38.1677 216.919 37.8628 216.653 37.4651C216.388 37.0636 216.256 36.5787 216.256 36.0105C216.256 35.5105 216.354 35.1052 216.551 34.7946C216.748 34.4802 217.011 34.234 217.341 34.056C217.67 33.8779 218.034 33.7454 218.432 33.6582C218.833 33.5673 219.237 33.4954 219.642 33.4423C220.172 33.3742 220.602 33.323 220.932 33.2889C221.265 33.2511 221.508 33.1886 221.659 33.1014C221.814 33.0143 221.892 32.8628 221.892 32.6469V32.6014C221.892 32.0408 221.739 31.6052 221.432 31.2946C221.129 30.984 220.669 30.8287 220.051 30.8287C219.411 30.8287 218.909 30.9689 218.545 31.2492C218.182 31.5295 217.926 31.8287 217.778 32.1469L216.506 31.6923C216.733 31.162 217.036 30.7492 217.415 30.4537C217.797 30.1545 218.214 29.9461 218.665 29.8287C219.119 29.7075 219.566 29.6469 220.006 29.6469C220.286 29.6469 220.608 29.681 220.972 29.7492C221.339 29.8135 221.693 29.948 222.034 30.1526C222.379 30.3571 222.665 30.6658 222.892 31.0787C223.119 31.4916 223.233 32.0446 223.233 32.7378V38.4878H221.892V37.306H221.824C221.733 37.4954 221.581 37.698 221.369 37.9139C221.157 38.1298 220.875 38.3136 220.523 38.4651C220.17 38.6166 219.741 38.6923 219.233 38.6923ZM219.438 37.4878C219.968 37.4878 220.415 37.3836 220.778 37.1753C221.146 36.967 221.422 36.698 221.608 36.3685C221.797 36.0389 221.892 35.6923 221.892 35.3287V34.1014C221.835 34.1696 221.71 34.2321 221.517 34.2889C221.328 34.342 221.108 34.3893 220.858 34.431C220.612 34.4689 220.371 34.5029 220.136 34.5332C219.905 34.5598 219.718 34.5825 219.574 34.6014C219.225 34.6469 218.9 34.7207 218.597 34.823C218.297 34.9215 218.055 35.0711 217.869 35.2719C217.688 35.4689 217.597 35.7378 217.597 36.0787C217.597 36.5446 217.769 36.8969 218.114 37.1355C218.462 37.3704 218.903 37.4878 219.438 37.4878ZM230.18 38.4878V29.7605H231.476V31.1242H231.589C231.771 30.6582 232.065 30.2965 232.47 30.0389C232.875 29.7776 233.362 29.6469 233.93 29.6469C234.506 29.6469 234.985 29.7776 235.368 30.0389C235.754 30.2965 236.055 30.6582 236.271 31.1242H236.362C236.586 30.6734 236.921 30.3154 237.368 30.0503C237.815 29.7814 238.351 29.6469 238.976 29.6469C239.756 29.6469 240.394 29.8912 240.891 30.3798C241.387 30.8647 241.635 31.6204 241.635 32.6469V38.4878H240.294V32.6469C240.294 32.0029 240.118 31.5427 239.766 31.2662C239.413 30.9897 238.999 30.8514 238.521 30.8514C237.908 30.8514 237.432 31.037 237.095 31.4082C236.758 31.7757 236.589 32.2416 236.589 32.806V38.4878H235.226V32.5105C235.226 32.0143 235.065 31.6147 234.743 31.3117C234.421 31.0048 234.006 30.8514 233.499 30.8514C233.15 30.8514 232.824 30.9442 232.521 31.1298C232.222 31.3154 231.98 31.573 231.794 31.9026C231.612 32.2283 231.521 32.6052 231.521 33.0332V38.4878H230.18ZM247.746 38.6696C246.905 38.6696 246.179 38.484 245.57 38.1128C244.964 37.7378 244.496 37.2151 244.166 36.5446C243.84 35.8704 243.678 35.0863 243.678 34.1923C243.678 33.2984 243.84 32.5105 244.166 31.8287C244.496 31.1431 244.954 30.609 245.541 30.2264C246.132 29.8401 246.821 29.6469 247.609 29.6469C248.064 29.6469 248.513 29.7226 248.956 29.8742C249.399 30.0257 249.803 30.2719 250.166 30.6128C250.53 30.9499 250.82 31.3969 251.036 31.9537C251.251 32.5105 251.359 33.1961 251.359 34.0105V34.5787H244.632V33.4196H249.996C249.996 32.9272 249.897 32.4878 249.7 32.1014C249.507 31.7151 249.231 31.4101 248.871 31.1867C248.515 30.9632 248.094 30.8514 247.609 30.8514C247.075 30.8514 246.613 30.984 246.223 31.2492C245.837 31.5105 245.539 31.8514 245.331 32.2719C245.123 32.6923 245.018 33.1431 245.018 33.6242V34.3969C245.018 35.056 245.132 35.6147 245.359 36.073C245.59 36.5276 245.911 36.8742 246.32 37.1128C246.729 37.3476 247.204 37.4651 247.746 37.4651C248.098 37.4651 248.416 37.4158 248.7 37.3173C248.988 37.2151 249.236 37.0636 249.445 36.8628C249.653 36.6582 249.814 36.4045 249.928 36.1014L251.223 36.4651C251.087 36.9045 250.857 37.2908 250.536 37.6242C250.214 37.9537 249.816 38.2113 249.342 38.3969C248.869 38.5787 248.337 38.6696 247.746 38.6696ZM253.399 38.4878V29.7605H254.695V31.0787H254.786C254.945 30.6469 255.232 30.2965 255.649 30.0276C256.066 29.7586 256.536 29.6242 257.058 29.6242C257.157 29.6242 257.28 29.626 257.428 29.6298C257.575 29.6336 257.687 29.6393 257.763 29.6469V31.0105C257.717 30.9992 257.613 30.9821 257.45 30.9594C257.291 30.9329 257.123 30.9196 256.945 30.9196C256.52 30.9196 256.142 31.0086 255.808 31.1867C255.479 31.3609 255.217 31.6033 255.024 31.9139C254.835 32.2207 254.74 32.5711 254.74 32.9651V38.4878H253.399ZM262.632 38.6696C261.814 38.6696 261.109 38.4764 260.518 38.0901C259.928 37.7037 259.473 37.1715 259.155 36.4935C258.837 35.8154 258.678 35.0408 258.678 34.1696C258.678 33.2832 258.84 32.5011 259.166 31.823C259.496 31.1412 259.954 30.609 260.541 30.2264C261.132 29.8401 261.821 29.6469 262.609 29.6469C263.223 29.6469 263.776 29.7605 264.268 29.9878C264.761 30.2151 265.164 30.5332 265.479 30.9423C265.793 31.3514 265.988 31.8287 266.064 32.3742H264.723C264.621 31.9764 264.393 31.6242 264.041 31.3173C263.693 31.0067 263.223 30.8514 262.632 30.8514C262.109 30.8514 261.651 30.9878 261.257 31.2605C260.867 31.5295 260.562 31.9101 260.342 32.4026C260.126 32.8912 260.018 33.4651 260.018 34.1242C260.018 34.7984 260.125 35.3855 260.337 35.8855C260.553 36.3855 260.856 36.7738 261.246 37.0503C261.64 37.3268 262.102 37.4651 262.632 37.4651C262.981 37.4651 263.297 37.4045 263.581 37.2832C263.865 37.162 264.106 36.9878 264.303 36.7605C264.5 36.5332 264.64 36.2605 264.723 35.9423H266.064C265.988 36.4575 265.801 36.9215 265.501 37.3344C265.206 37.7435 264.814 38.0692 264.325 38.3117C263.84 38.5503 263.276 38.6696 262.632 38.6696ZM269.365 33.2378V38.4878H268.024V26.8514H269.365V31.1242H269.479C269.683 30.6734 269.99 30.3154 270.399 30.0503C270.812 29.7814 271.361 29.6469 272.047 29.6469C272.642 29.6469 273.162 29.7662 273.609 30.0048C274.056 30.2397 274.403 30.6014 274.649 31.0901C274.899 31.5749 275.024 32.1923 275.024 32.9423V38.4878H273.683V33.0332C273.683 32.3401 273.503 31.8041 273.143 31.4253C272.787 31.0427 272.293 30.8514 271.661 30.8514C271.221 30.8514 270.827 30.9442 270.479 31.1298C270.134 31.3154 269.861 31.5863 269.661 31.9423C269.464 32.2984 269.365 32.7302 269.365 33.2378ZM280.045 38.6923C279.492 38.6923 278.991 38.5882 278.54 38.3798C278.089 38.1677 277.731 37.8628 277.466 37.4651C277.201 37.0636 277.068 36.5787 277.068 36.0105C277.068 35.5105 277.167 35.1052 277.364 34.7946C277.561 34.4802 277.824 34.234 278.153 34.056C278.483 33.8779 278.847 33.7454 279.244 33.6582C279.646 33.5673 280.049 33.4954 280.455 33.4423C280.985 33.3742 281.415 33.323 281.744 33.2889C282.078 33.2511 282.32 33.1886 282.472 33.1014C282.627 33.0143 282.705 32.8628 282.705 32.6469V32.6014C282.705 32.0408 282.551 31.6052 282.244 31.2946C281.941 30.984 281.481 30.8287 280.864 30.8287C280.223 30.8287 279.722 30.9689 279.358 31.2492C278.994 31.5295 278.739 31.8287 278.591 32.1469L277.318 31.6923C277.545 31.162 277.848 30.7492 278.227 30.4537C278.61 30.1545 279.027 29.9461 279.477 29.8287C279.932 29.7075 280.379 29.6469 280.818 29.6469C281.098 29.6469 281.42 29.681 281.784 29.7492C282.152 29.8135 282.506 29.948 282.847 30.1526C283.191 30.3571 283.477 30.6658 283.705 31.0787C283.932 31.4916 284.045 32.0446 284.045 32.7378V38.4878H282.705V37.306H282.636C282.545 37.4954 282.394 37.698 282.182 37.9139C281.97 38.1298 281.688 38.3136 281.335 38.4651C280.983 38.6166 280.553 38.6923 280.045 38.6923ZM280.25 37.4878C280.78 37.4878 281.227 37.3836 281.591 37.1753C281.958 36.967 282.235 36.698 282.42 36.3685C282.61 36.0389 282.705 35.6923 282.705 35.3287V34.1014C282.648 34.1696 282.523 34.2321 282.33 34.2889C282.14 34.342 281.92 34.3893 281.67 34.431C281.424 34.4689 281.184 34.5029 280.949 34.5332C280.718 34.5598 280.53 34.5825 280.386 34.6014C280.038 34.6469 279.712 34.7207 279.409 34.823C279.11 34.9215 278.867 35.0711 278.682 35.2719C278.5 35.4689 278.409 35.7378 278.409 36.0787C278.409 36.5446 278.581 36.8969 278.926 37.1355C279.275 37.3704 279.716 37.4878 280.25 37.4878ZM287.834 33.2378V38.4878H286.493V29.7605H287.788V31.1242H287.902C288.107 30.681 288.417 30.3249 288.834 30.056C289.25 29.7832 289.788 29.6469 290.447 29.6469C291.038 29.6469 291.555 29.7681 291.999 30.0105C292.442 30.2492 292.786 30.6128 293.033 31.1014C293.279 31.5863 293.402 32.1999 293.402 32.9423V38.4878H292.061V33.0332C292.061 32.3476 291.883 31.8136 291.527 31.431C291.171 31.0446 290.682 30.8514 290.061 30.8514C289.633 30.8514 289.25 30.9442 288.913 31.1298C288.58 31.3154 288.317 31.5863 288.124 31.9423C287.93 32.2984 287.834 32.7302 287.834 33.2378ZM299.648 29.7605V30.8969H295.125V29.7605H299.648ZM296.443 27.6696H297.784V35.9878C297.784 36.3666 297.839 36.6507 297.949 36.8401C298.063 37.0257 298.206 37.1507 298.381 37.2151C298.559 37.2757 298.746 37.306 298.943 37.306C299.091 37.306 299.212 37.2984 299.307 37.2832C299.402 37.2643 299.477 37.2492 299.534 37.2378L299.807 38.4423C299.716 38.4764 299.589 38.5105 299.426 38.5446C299.263 38.5825 299.057 38.6014 298.807 38.6014C298.428 38.6014 298.057 38.52 297.693 38.3571C297.333 38.1942 297.034 37.9461 296.795 37.6128C296.561 37.2795 296.443 36.859 296.443 36.3514V27.6696Z" fill="#333333"/>
<rect x="12.4219" y="1.48779" width="419" height="63" rx="3.32779" stroke="#F3A615"/>
</g>
<defs>
<filter id="filter0_dd_307_37385" x="0.438491" y="0.987792" width="442.967" height="86.9668" filterUnits="userSpaceOnUse" color-interpolation-filters="sRGB">
<feFlood flood-opacity="0" result="BackgroundImageFix"/>
<feColorMatrix in="SourceAlpha" type="matrix" values="0 0 0 0 0 0 0 0 0 0 0 0 0 0 0 0 0 0 127 0" result="hardAlpha"/>
<feMorphology radius="1.9139" operator="erode" in="SourceAlpha" result="effect1_dropShadow_307_37385"/>
<feOffset dy="3.82779"/>
<feGaussianBlur stdDeviation="2.87085"/>
<feColorMatrix type="matrix" values="0 0 0 0 0.0627451 0 0 0 0 0.0941176 0 0 0 0 0.156863 0 0 0 0.03 0"/>
<feBlend mode="normal" in2="BackgroundImageFix" result="effect1_dropShadow_307_37385"/>
<feColorMatrix in="SourceAlpha" type="matrix" values="0 0 0 0 0 0 0 0 0 0 0 0 0 0 0 0 0 0 127 0" result="hardAlpha"/>
<feMorphology radius="3.82779" operator="erode" in="SourceAlpha" result="effect2_dropShadow_307_37385"/>
<feOffset dy="11.4834"/>
<feGaussianBlur stdDeviation="7.65559"/>
<feColorMatrix type="matrix" values="0 0 0 0 0.0627451 0 0 0 0 0.0941176 0 0 0 0 0.156863 0 0 0 0.08 0"/>
<feBlend mode="normal" in2="effect1_dropShadow_307_37385" result="effect2_dropShadow_307_37385"/>
<feBlend mode="normal" in="SourceGraphic" in2="effect2_dropShadow_307_37385" result="shape"/>
</filter>
</defs>
</svg>
