<svg width="443" height="88" viewBox="0 0 443 88" fill="none" xmlns="http://www.w3.org/2000/svg">
<g filter="url(#filter0_dd_307_37264)">
<rect x="11.5" y="0.483398" width="420" height="64" rx="3.82779" fill="white"/>
<path d="M143.909 37.9834V26.347H147.977C148.788 26.347 149.456 26.4872 149.983 26.7675C150.509 27.044 150.902 27.4171 151.159 27.8868C151.417 28.3527 151.545 28.8698 151.545 29.4379C151.545 29.9379 151.456 30.3508 151.278 30.6766C151.104 31.0023 150.873 31.2599 150.585 31.4493C150.301 31.6387 149.992 31.7789 149.659 31.8698V31.9834C150.015 32.0061 150.373 32.1311 150.733 32.3584C151.093 32.5857 151.394 32.9114 151.636 33.3357C151.879 33.7599 152 34.2789 152 34.8925C152 35.4758 151.867 36.0004 151.602 36.4664C151.337 36.9323 150.919 37.3016 150.347 37.5743C149.775 37.847 149.03 37.9834 148.114 37.9834H143.909ZM145.318 36.7334H148.114C149.034 36.7334 149.688 36.5554 150.074 36.1993C150.464 35.8395 150.659 35.4039 150.659 34.8925C150.659 34.4985 150.559 34.1349 150.358 33.8016C150.157 33.4645 149.871 33.1955 149.5 32.9948C149.129 32.7902 148.689 32.6879 148.182 32.6879H145.318V36.7334ZM145.318 31.4607H147.932C148.356 31.4607 148.739 31.3773 149.08 31.2107C149.424 31.044 149.697 30.8092 149.898 30.5061C150.102 30.2031 150.205 29.847 150.205 29.4379C150.205 28.9266 150.027 28.4929 149.67 28.1368C149.314 27.777 148.75 27.597 147.977 27.597H145.318V31.4607ZM159.634 34.4152V29.2561H160.974V37.9834H159.634V36.5061H159.543C159.338 36.9493 159.02 37.3262 158.588 37.6368C158.156 37.9436 157.611 38.097 156.952 38.097C156.406 38.097 155.921 37.9777 155.497 37.7391C155.073 37.4967 154.74 37.133 154.497 36.6482C154.255 36.1595 154.134 35.544 154.134 34.8016V29.2561H155.474V34.7107C155.474 35.347 155.652 35.8546 156.009 36.2334C156.368 36.6122 156.827 36.8016 157.384 36.8016C157.717 36.8016 158.056 36.7164 158.401 36.5459C158.749 36.3754 159.041 36.1141 159.276 35.7618C159.514 35.4095 159.634 34.9607 159.634 34.4152ZM164.294 41.2561C164.067 41.2561 163.864 41.2372 163.686 41.1993C163.508 41.1652 163.385 41.1311 163.317 41.097L163.658 39.9152C163.983 39.9986 164.271 40.0289 164.521 40.0061C164.771 39.9834 164.993 39.8717 165.186 39.6709C165.383 39.4739 165.563 39.1539 165.726 38.7107L165.976 38.0289L162.749 29.2561H164.203L166.612 36.2107H166.703L169.112 29.2561H170.567L166.862 39.2561C166.696 39.7069 166.489 40.08 166.243 40.3754C165.997 40.6747 165.711 40.8963 165.385 41.0402C165.063 41.1842 164.699 41.2561 164.294 41.2561ZM180.723 29.2561V30.3925H176.018V29.2561H180.723ZM177.428 37.9834V28.0516C177.428 27.5516 177.545 27.1349 177.78 26.8016C178.015 26.4682 178.32 26.2182 178.695 26.0516C179.07 25.8849 179.465 25.8016 179.882 25.8016C180.212 25.8016 180.481 25.8281 180.689 25.8811C180.897 25.9342 181.053 25.9834 181.155 26.0289L180.768 27.1879C180.7 27.1652 180.606 27.1368 180.484 27.1027C180.367 27.0686 180.212 27.0516 180.018 27.0516C179.575 27.0516 179.255 27.1633 179.058 27.3868C178.865 27.6103 178.768 27.9379 178.768 28.3698V37.9834H177.428ZM182.602 37.9834V29.2561H183.898V30.5743H183.989C184.148 30.1425 184.436 29.7921 184.852 29.5232C185.269 29.2542 185.739 29.1198 186.261 29.1198C186.36 29.1198 186.483 29.1217 186.631 29.1254C186.778 29.1292 186.89 29.1349 186.966 29.1425V30.5061C186.92 30.4948 186.816 30.4777 186.653 30.455C186.494 30.4285 186.326 30.4152 186.148 30.4152C185.723 30.4152 185.345 30.5042 185.011 30.6823C184.682 30.8565 184.42 31.0989 184.227 31.4095C184.038 31.7164 183.943 32.0667 183.943 32.4607V37.9834H182.602ZM191.835 38.1652C191.047 38.1652 190.356 37.9777 189.761 37.6027C189.17 37.2277 188.708 36.7031 188.375 36.0289C188.045 35.3546 187.881 34.5667 187.881 33.6652C187.881 32.7561 188.045 31.9626 188.375 31.2845C188.708 30.6065 189.17 30.08 189.761 29.705C190.356 29.33 191.047 29.1425 191.835 29.1425C192.623 29.1425 193.313 29.33 193.903 29.705C194.498 30.08 194.96 30.6065 195.29 31.2845C195.623 31.9626 195.79 32.7561 195.79 33.6652C195.79 34.5667 195.623 35.3546 195.29 36.0289C194.96 36.7031 194.498 37.2277 193.903 37.6027C193.313 37.9777 192.623 38.1652 191.835 38.1652ZM191.835 36.9607C192.434 36.9607 192.926 36.8073 193.312 36.5004C193.699 36.1936 193.985 35.7902 194.17 35.2902C194.356 34.7902 194.449 34.2485 194.449 33.6652C194.449 33.0819 194.356 32.5383 194.17 32.0345C193.985 31.5307 193.699 31.1235 193.312 30.8129C192.926 30.5023 192.434 30.347 191.835 30.347C191.237 30.347 190.744 30.5023 190.358 30.8129C189.972 31.1235 189.686 31.5307 189.5 32.0345C189.314 32.5383 189.222 33.0819 189.222 33.6652C189.222 34.2485 189.314 34.7902 189.5 35.2902C189.686 35.7902 189.972 36.1936 190.358 36.5004C190.744 36.8073 191.237 36.9607 191.835 36.9607ZM197.837 37.9834V29.2561H199.132V30.6198H199.246C199.428 30.1539 199.721 29.7921 200.126 29.5345C200.532 29.2732 201.018 29.1425 201.587 29.1425C202.162 29.1425 202.642 29.2732 203.024 29.5345C203.411 29.7921 203.712 30.1539 203.928 30.6198H204.018C204.242 30.169 204.577 29.811 205.024 29.5459C205.471 29.277 206.007 29.1425 206.632 29.1425C207.412 29.1425 208.051 29.3868 208.547 29.8754C209.043 30.3603 209.291 31.116 209.291 32.1425V37.9834H207.95V32.1425C207.95 31.4985 207.774 31.0383 207.422 30.7618C207.07 30.4853 206.655 30.347 206.178 30.347C205.564 30.347 205.089 30.5326 204.751 30.9039C204.414 31.2713 204.246 31.7372 204.246 32.3016V37.9834H202.882V32.0061C202.882 31.5099 202.721 31.1103 202.399 30.8073C202.077 30.5004 201.662 30.347 201.155 30.347C200.806 30.347 200.481 30.4398 200.178 30.6254C199.878 30.811 199.636 31.0686 199.45 31.3982C199.268 31.7239 199.178 32.1008 199.178 32.5289V37.9834H197.837ZM218.811 38.1879C218.258 38.1879 217.756 38.0838 217.305 37.8754C216.855 37.6633 216.497 37.3584 216.232 36.9607C215.966 36.5592 215.834 36.0743 215.834 35.5061C215.834 35.0061 215.932 34.6008 216.129 34.2902C216.326 33.9758 216.589 33.7296 216.919 33.5516C217.249 33.3735 217.612 33.241 218.01 33.1539C218.411 33.0629 218.815 32.991 219.22 32.9379C219.75 32.8698 220.18 32.8186 220.51 32.7845C220.843 32.7467 221.086 32.6842 221.237 32.597C221.393 32.5099 221.47 32.3584 221.47 32.1425V32.097C221.47 31.5364 221.317 31.1008 221.01 30.7902C220.707 30.4796 220.247 30.3243 219.629 30.3243C218.989 30.3243 218.487 30.4645 218.124 30.7448C217.76 31.0251 217.504 31.3243 217.357 31.6425L216.084 31.1879C216.311 30.6576 216.614 30.2448 216.993 29.9493C217.375 29.6501 217.792 29.4417 218.243 29.3243C218.697 29.2031 219.144 29.1425 219.584 29.1425C219.864 29.1425 220.186 29.1766 220.55 29.2448C220.917 29.3092 221.271 29.4436 221.612 29.6482C221.957 29.8527 222.243 30.1614 222.47 30.5743C222.697 30.9872 222.811 31.5402 222.811 32.2334V37.9834H221.47V36.8016H221.402C221.311 36.991 221.16 37.1936 220.947 37.4095C220.735 37.6254 220.453 37.8092 220.101 37.9607C219.749 38.1122 219.319 38.1879 218.811 38.1879ZM219.016 36.9834C219.546 36.9834 219.993 36.8792 220.357 36.6709C220.724 36.4626 221 36.1936 221.186 35.8641C221.375 35.5345 221.47 35.1879 221.47 34.8243V33.597C221.413 33.6652 221.288 33.7277 221.095 33.7845C220.906 33.8376 220.686 33.8849 220.436 33.9266C220.19 33.9645 219.949 33.9985 219.714 34.0289C219.483 34.0554 219.296 34.0781 219.152 34.097C218.804 34.1425 218.478 34.2164 218.175 34.3186C217.875 34.4171 217.633 34.5667 217.447 34.7675C217.266 34.9645 217.175 35.2334 217.175 35.5743C217.175 36.0402 217.347 36.3925 217.692 36.6311C218.04 36.866 218.482 36.9834 219.016 36.9834ZM229.759 37.9834V29.2561H231.054V30.6198H231.168C231.349 30.1539 231.643 29.7921 232.048 29.5345C232.454 29.2732 232.94 29.1425 233.509 29.1425C234.084 29.1425 234.563 29.2732 234.946 29.5345C235.332 29.7921 235.634 30.1539 235.849 30.6198H235.94C236.164 30.169 236.499 29.811 236.946 29.5459C237.393 29.277 237.929 29.1425 238.554 29.1425C239.334 29.1425 239.973 29.3868 240.469 29.8754C240.965 30.3603 241.213 31.116 241.213 32.1425V37.9834H239.872V32.1425C239.872 31.4985 239.696 31.0383 239.344 30.7618C238.991 30.4853 238.577 30.347 238.099 30.347C237.486 30.347 237.01 30.5326 236.673 30.9039C236.336 31.2713 236.168 31.7372 236.168 32.3016V37.9834H234.804V32.0061C234.804 31.5099 234.643 31.1103 234.321 30.8073C233.999 30.5004 233.584 30.347 233.077 30.347C232.728 30.347 232.402 30.4398 232.099 30.6254C231.8 30.811 231.558 31.0686 231.372 31.3982C231.19 31.7239 231.099 32.1008 231.099 32.5289V37.9834H229.759ZM247.324 38.1652C246.483 38.1652 245.758 37.9796 245.148 37.6084C244.542 37.2334 244.074 36.7107 243.744 36.0402C243.419 35.366 243.256 34.5819 243.256 33.6879C243.256 32.794 243.419 32.0061 243.744 31.3243C244.074 30.6387 244.532 30.1046 245.119 29.722C245.71 29.3357 246.4 29.1425 247.188 29.1425C247.642 29.1425 248.091 29.2182 248.534 29.3698C248.977 29.5213 249.381 29.7675 249.744 30.1084C250.108 30.4455 250.398 30.8925 250.614 31.4493C250.83 32.0061 250.938 32.6917 250.938 33.5061V34.0743H244.21V32.9152H249.574C249.574 32.4228 249.475 31.9834 249.278 31.597C249.085 31.2107 248.809 30.9057 248.449 30.6823C248.093 30.4588 247.672 30.347 247.188 30.347C246.653 30.347 246.191 30.4796 245.801 30.7448C245.415 31.0061 245.117 31.347 244.909 31.7675C244.701 32.1879 244.597 32.6387 244.597 33.1198V33.8925C244.597 34.5516 244.71 35.1103 244.938 35.5686C245.169 36.0232 245.489 36.3698 245.898 36.6084C246.307 36.8432 246.782 36.9607 247.324 36.9607C247.676 36.9607 247.994 36.9114 248.278 36.8129C248.566 36.7107 248.814 36.5592 249.023 36.3584C249.231 36.1539 249.392 35.9001 249.506 35.597L250.801 35.9607C250.665 36.4001 250.436 36.7864 250.114 37.1198C249.792 37.4493 249.394 37.7069 248.92 37.8925C248.447 38.0743 247.915 38.1652 247.324 38.1652ZM252.977 37.9834V29.2561H254.273V30.5743H254.364C254.523 30.1425 254.811 29.7921 255.227 29.5232C255.644 29.2542 256.114 29.1198 256.636 29.1198C256.735 29.1198 256.858 29.1217 257.006 29.1254C257.153 29.1292 257.265 29.1349 257.341 29.1425V30.5061C257.295 30.4948 257.191 30.4777 257.028 30.455C256.869 30.4285 256.701 30.4152 256.523 30.4152C256.098 30.4152 255.72 30.5042 255.386 30.6823C255.057 30.8565 254.795 31.0989 254.602 31.4095C254.413 31.7164 254.318 32.0667 254.318 32.4607V37.9834H252.977ZM262.21 38.1652C261.392 38.1652 260.688 37.972 260.097 37.5857C259.506 37.1993 259.051 36.6671 258.733 35.9891C258.415 35.311 258.256 34.5364 258.256 33.6652C258.256 32.7789 258.419 31.9967 258.744 31.3186C259.074 30.6368 259.532 30.1046 260.119 29.722C260.71 29.3357 261.4 29.1425 262.188 29.1425C262.801 29.1425 263.354 29.2561 263.847 29.4834C264.339 29.7107 264.742 30.0289 265.057 30.4379C265.371 30.847 265.566 31.3243 265.642 31.8698H264.301C264.199 31.472 263.972 31.1198 263.619 30.8129C263.271 30.5023 262.801 30.347 262.21 30.347C261.688 30.347 261.229 30.4834 260.835 30.7561C260.445 31.0251 260.14 31.4057 259.92 31.8982C259.705 32.3868 259.597 32.9607 259.597 33.6198C259.597 34.294 259.703 34.8811 259.915 35.3811C260.131 35.8811 260.434 36.2694 260.824 36.5459C261.218 36.8224 261.68 36.9607 262.21 36.9607C262.559 36.9607 262.875 36.9001 263.159 36.7789C263.443 36.6576 263.684 36.4834 263.881 36.2561C264.078 36.0289 264.218 35.7561 264.301 35.4379H265.642C265.566 35.9531 265.379 36.4171 265.08 36.83C264.784 37.2391 264.392 37.5648 263.903 37.8073C263.419 38.0459 262.854 38.1652 262.21 38.1652ZM268.943 32.7334V37.9834H267.602V26.347H268.943V30.6198H269.057C269.261 30.169 269.568 29.811 269.977 29.5459C270.39 29.277 270.939 29.1425 271.625 29.1425C272.22 29.1425 272.741 29.2618 273.188 29.5004C273.634 29.7353 273.981 30.097 274.227 30.5857C274.477 31.0705 274.602 31.6879 274.602 32.4379V37.9834H273.261V32.5289C273.261 31.8357 273.081 31.2997 272.722 30.9209C272.366 30.5383 271.871 30.347 271.239 30.347C270.799 30.347 270.405 30.4398 270.057 30.6254C269.712 30.811 269.439 31.0819 269.239 31.4379C269.042 31.794 268.943 32.2258 268.943 32.7334ZM279.624 38.1879C279.071 38.1879 278.569 38.0838 278.118 37.8754C277.667 37.6633 277.309 37.3584 277.044 36.9607C276.779 36.5592 276.646 36.0743 276.646 35.5061C276.646 35.0061 276.745 34.6008 276.942 34.2902C277.139 33.9758 277.402 33.7296 277.732 33.5516C278.061 33.3735 278.425 33.241 278.822 33.1539C279.224 33.0629 279.627 32.991 280.033 32.9379C280.563 32.8698 280.993 32.8186 281.322 32.7845C281.656 32.7467 281.898 32.6842 282.05 32.597C282.205 32.5099 282.283 32.3584 282.283 32.1425V32.097C282.283 31.5364 282.129 31.1008 281.822 30.7902C281.519 30.4796 281.059 30.3243 280.442 30.3243C279.802 30.3243 279.3 30.4645 278.936 30.7448C278.572 31.0251 278.317 31.3243 278.169 31.6425L276.896 31.1879C277.124 30.6576 277.427 30.2448 277.805 29.9493C278.188 29.6501 278.605 29.4417 279.055 29.3243C279.51 29.2031 279.957 29.1425 280.396 29.1425C280.677 29.1425 280.999 29.1766 281.362 29.2448C281.73 29.3092 282.084 29.4436 282.425 29.6482C282.769 29.8527 283.055 30.1614 283.283 30.5743C283.51 30.9872 283.624 31.5402 283.624 32.2334V37.9834H282.283V36.8016H282.214C282.124 36.991 281.972 37.1936 281.76 37.4095C281.548 37.6254 281.266 37.8092 280.913 37.9607C280.561 38.1122 280.131 38.1879 279.624 38.1879ZM279.828 36.9834C280.358 36.9834 280.805 36.8792 281.169 36.6709C281.536 36.4626 281.813 36.1936 281.999 35.8641C282.188 35.5345 282.283 35.1879 282.283 34.8243V33.597C282.226 33.6652 282.101 33.7277 281.908 33.7845C281.718 33.8376 281.499 33.8849 281.249 33.9266C281.002 33.9645 280.762 33.9985 280.527 34.0289C280.296 34.0554 280.108 34.0781 279.964 34.097C279.616 34.1425 279.29 34.2164 278.987 34.3186C278.688 34.4171 278.446 34.5667 278.26 34.7675C278.078 34.9645 277.987 35.2334 277.987 35.5743C277.987 36.0402 278.16 36.3925 278.504 36.6311C278.853 36.866 279.294 36.9834 279.828 36.9834ZM287.412 32.7334V37.9834H286.071V29.2561H287.366V30.6198H287.48C287.685 30.1766 287.995 29.8205 288.412 29.5516C288.829 29.2789 289.366 29.1425 290.026 29.1425C290.616 29.1425 291.134 29.2637 291.577 29.5061C292.02 29.7448 292.365 30.1084 292.611 30.597C292.857 31.0819 292.98 31.6955 292.98 32.4379V37.9834H291.639V32.5289C291.639 31.8432 291.461 31.3092 291.105 30.9266C290.749 30.5402 290.26 30.347 289.639 30.347C289.211 30.347 288.829 30.4398 288.491 30.6254C288.158 30.811 287.895 31.0819 287.702 31.4379C287.509 31.794 287.412 32.2258 287.412 32.7334ZM299.226 29.2561V30.3925H294.703V29.2561H299.226ZM296.021 27.1652H297.362V35.4834C297.362 35.8622 297.417 36.1463 297.527 36.3357C297.641 36.5213 297.785 36.6463 297.959 36.7107C298.137 36.7713 298.324 36.8016 298.521 36.8016C298.669 36.8016 298.79 36.794 298.885 36.7789C298.98 36.7599 299.055 36.7448 299.112 36.7334L299.385 37.9379C299.294 37.972 299.167 38.0061 299.004 38.0402C298.841 38.0781 298.635 38.097 298.385 38.097C298.006 38.097 297.635 38.0156 297.271 37.8527C296.911 37.6898 296.612 37.4417 296.374 37.1084C296.139 36.7751 296.021 36.3546 296.021 35.847V27.1652Z" fill="#333333"/>
<rect x="12" y="0.983398" width="419" height="63" rx="3.32779" stroke="#F3A615"/>
</g>
<defs>
<filter id="filter0_dd_307_37264" x="0.0166156" y="0.483397" width="442.967" height="86.9668" filterUnits="userSpaceOnUse" color-interpolation-filters="sRGB">
<feFlood flood-opacity="0" result="BackgroundImageFix"/>
<feColorMatrix in="SourceAlpha" type="matrix" values="0 0 0 0 0 0 0 0 0 0 0 0 0 0 0 0 0 0 127 0" result="hardAlpha"/>
<feMorphology radius="1.9139" operator="erode" in="SourceAlpha" result="effect1_dropShadow_307_37264"/>
<feOffset dy="3.82779"/>
<feGaussianBlur stdDeviation="2.87085"/>
<feColorMatrix type="matrix" values="0 0 0 0 0.0627451 0 0 0 0 0.0941176 0 0 0 0 0.156863 0 0 0 0.03 0"/>
<feBlend mode="normal" in2="BackgroundImageFix" result="effect1_dropShadow_307_37264"/>
<feColorMatrix in="SourceAlpha" type="matrix" values="0 0 0 0 0 0 0 0 0 0 0 0 0 0 0 0 0 0 127 0" result="hardAlpha"/>
<feMorphology radius="3.82779" operator="erode" in="SourceAlpha" result="effect2_dropShadow_307_37264"/>
<feOffset dy="11.4834"/>
<feGaussianBlur stdDeviation="7.65559"/>
<feColorMatrix type="matrix" values="0 0 0 0 0.0627451 0 0 0 0 0.0941176 0 0 0 0 0.156863 0 0 0 0.08 0"/>
<feBlend mode="normal" in2="effect1_dropShadow_307_37264" result="effect2_dropShadow_307_37264"/>
<feBlend mode="normal" in="SourceGraphic" in2="effect2_dropShadow_307_37264" result="shape"/>
</filter>
</defs>
</svg>
