<svg width="421" height="65" viewBox="0 0 421 65" fill="none" xmlns="http://www.w3.org/2000/svg">
<rect x="0.6" y="0.927759" width="419.8" height="63.8" rx="9.9" fill="white"/>
<g opacity="0.8">
<path d="M44.9205 30.9414V32.0778H33.3295V30.9414H44.9205ZM44.9205 33.3959V34.5323H33.3295V33.3959H44.9205ZM43.8239 26.6914V38.3278H42.2045L36.2898 29.7937H36.1875V38.3278H34.4261V26.6914H36.0568L41.9716 35.2368H42.0795V26.6914H43.8239ZM50.2102 38.4868C49.4981 38.4868 48.858 38.3505 48.2898 38.0778C47.7254 37.8012 47.2746 37.4225 46.9375 36.9414C46.6004 36.4603 46.4205 35.9111 46.3977 35.2937H48.1023C48.1439 35.7937 48.3655 36.2047 48.767 36.5266C49.1686 36.8486 49.6496 37.0096 50.2102 37.0096C50.6572 37.0096 51.053 36.9073 51.3977 36.7028C51.7462 36.4944 52.0189 36.2084 52.2159 35.8448C52.4167 35.4812 52.517 35.0664 52.517 34.6005C52.517 34.127 52.4148 33.7047 52.2102 33.3334C52.0057 32.9622 51.7235 32.6706 51.3636 32.4584C51.0076 32.2463 50.5985 32.1384 50.1364 32.1346C49.7841 32.1346 49.4299 32.1952 49.0739 32.3164C48.7178 32.4376 48.4299 32.5967 48.2102 32.7937L46.6023 32.555L47.2557 26.6914H53.6534V28.1971H48.7159L48.3466 31.4528H48.4148C48.642 31.2331 48.9432 31.0493 49.3182 30.9016C49.697 30.7539 50.1023 30.68 50.5341 30.68C51.2424 30.68 51.8731 30.8486 52.4261 31.1857C52.983 31.5228 53.4205 31.9831 53.7386 32.5664C54.0606 33.1459 54.2197 33.8126 54.2159 34.5664C54.2197 35.3202 54.0492 35.9925 53.7045 36.5834C53.3636 37.1743 52.8902 37.6403 52.2841 37.9812C51.6818 38.3183 50.9905 38.4868 50.2102 38.4868ZM60.3423 38.5209C59.4446 38.5172 58.6776 38.2804 58.0412 37.8107C57.4048 37.341 56.9181 36.6573 56.581 35.7596C56.2438 34.8618 56.0753 33.7804 56.0753 32.5153C56.0753 31.2539 56.2438 30.1762 56.581 29.2823C56.9219 28.3884 57.4105 27.7065 58.0469 27.2368C58.687 26.7672 59.4522 26.5323 60.3423 26.5323C61.2325 26.5323 61.9957 26.769 62.6321 27.2425C63.2685 27.7122 63.7552 28.394 64.0923 29.288C64.4332 30.1781 64.6037 31.2539 64.6037 32.5153C64.6037 33.7842 64.4351 34.8675 64.098 35.7653C63.7609 36.6592 63.2741 37.3429 62.6378 37.8164C62.0014 38.2861 61.2363 38.5209 60.3423 38.5209ZM60.3423 37.0039C61.1302 37.0039 61.7457 36.6194 62.1889 35.8505C62.6359 35.0815 62.8594 33.9698 62.8594 32.5153C62.8594 31.5493 62.7571 30.7331 62.5526 30.0664C62.3518 29.3959 62.062 28.8884 61.6832 28.5437C61.3082 28.1952 60.8613 28.0209 60.3423 28.0209C59.5582 28.0209 58.9427 28.4073 58.4957 29.18C58.0488 29.9528 57.8234 31.0645 57.8196 32.5153C57.8196 33.485 57.92 34.305 58.1207 34.9755C58.3253 35.6422 58.6151 36.1478 58.9901 36.4925C59.3651 36.8334 59.8158 37.0039 60.3423 37.0039ZM68.4304 36.7368L68.3452 37.3562C68.2884 37.8107 68.1918 38.2842 68.0554 38.7766C67.9228 39.2728 67.7846 39.7331 67.6406 40.1573C67.5005 40.5815 67.3849 40.9187 67.294 41.1687H66.0895C66.1387 40.9338 66.2069 40.6156 66.294 40.2141C66.3812 39.8164 66.4664 39.3713 66.5497 38.8789C66.633 38.3865 66.6955 37.8846 66.7372 37.3732L66.794 36.7368H68.4304ZM74.4361 38.5209C73.5384 38.5172 72.7713 38.2804 72.1349 37.8107C71.4986 37.341 71.0118 36.6573 70.6747 35.7596C70.3376 34.8618 70.169 33.7804 70.169 32.5153C70.169 31.2539 70.3376 30.1762 70.6747 29.2823C71.0156 28.3884 71.5043 27.7065 72.1406 27.2368C72.7808 26.7672 73.5459 26.5323 74.4361 26.5323C75.3262 26.5323 76.0895 26.769 76.7259 27.2425C77.3622 27.7122 77.849 28.394 78.1861 29.288C78.527 30.1781 78.6974 31.2539 78.6974 32.5153C78.6974 33.7842 78.5289 34.8675 78.1918 35.7653C77.8546 36.6592 77.3679 37.3429 76.7315 37.8164C76.0952 38.2861 75.33 38.5209 74.4361 38.5209ZM74.4361 37.0039C75.224 37.0039 75.8395 36.6194 76.2827 35.8505C76.7296 35.0815 76.9531 33.9698 76.9531 32.5153C76.9531 31.5493 76.8509 30.7331 76.6463 30.0664C76.4455 29.3959 76.1558 28.8884 75.777 28.5437C75.402 28.1952 74.955 28.0209 74.4361 28.0209C73.652 28.0209 73.0365 28.4073 72.5895 29.18C72.1425 29.9528 71.9171 31.0645 71.9134 32.5153C71.9134 33.485 72.0137 34.305 72.2145 34.9755C72.419 35.6422 72.7088 36.1478 73.0838 36.4925C73.4588 36.8334 73.9096 37.0039 74.4361 37.0039ZM84.7642 38.5209C83.8665 38.5172 83.0994 38.2804 82.4631 37.8107C81.8267 37.341 81.34 36.6573 81.0028 35.7596C80.6657 34.8618 80.4972 33.7804 80.4972 32.5153C80.4972 31.2539 80.6657 30.1762 81.0028 29.2823C81.3438 28.3884 81.8324 27.7065 82.4688 27.2368C83.1089 26.7672 83.8741 26.5323 84.7642 26.5323C85.6544 26.5323 86.4176 26.769 87.054 27.2425C87.6903 27.7122 88.1771 28.394 88.5142 29.288C88.8551 30.1781 89.0256 31.2539 89.0256 32.5153C89.0256 33.7842 88.857 34.8675 88.5199 35.7653C88.1828 36.6592 87.696 37.3429 87.0597 37.8164C86.4233 38.2861 85.6581 38.5209 84.7642 38.5209ZM84.7642 37.0039C85.5521 37.0039 86.1676 36.6194 86.6108 35.8505C87.0578 35.0815 87.2812 33.9698 87.2812 32.5153C87.2812 31.5493 87.179 30.7331 86.9744 30.0664C86.7737 29.3959 86.4839 28.8884 86.1051 28.5437C85.7301 28.1952 85.2831 28.0209 84.7642 28.0209C83.9801 28.0209 83.3646 28.4073 82.9176 29.18C82.4706 29.9528 82.2453 31.0645 82.2415 32.5153C82.2415 33.485 82.3419 34.305 82.5426 34.9755C82.7472 35.6422 83.0369 36.1478 83.4119 36.4925C83.7869 36.8334 84.2377 37.0039 84.7642 37.0039ZM95.0923 38.5209C94.1946 38.5172 93.4276 38.2804 92.7912 37.8107C92.1548 37.341 91.6681 36.6573 91.331 35.7596C90.9938 34.8618 90.8253 33.7804 90.8253 32.5153C90.8253 31.2539 90.9938 30.1762 91.331 29.2823C91.6719 28.3884 92.1605 27.7065 92.7969 27.2368C93.437 26.7672 94.2022 26.5323 95.0923 26.5323C95.9825 26.5323 96.7457 26.769 97.3821 27.2425C98.0185 27.7122 98.5052 28.394 98.8423 29.288C99.1832 30.1781 99.3537 31.2539 99.3537 32.5153C99.3537 33.7842 99.1851 34.8675 98.848 35.7653C98.5109 36.6592 98.0241 37.3429 97.3878 37.8164C96.7514 38.2861 95.9863 38.5209 95.0923 38.5209ZM95.0923 37.0039C95.8802 37.0039 96.4957 36.6194 96.9389 35.8505C97.3859 35.0815 97.6094 33.9698 97.6094 32.5153C97.6094 31.5493 97.5071 30.7331 97.3026 30.0664C97.1018 29.3959 96.812 28.8884 96.4332 28.5437C96.0582 28.1952 95.6113 28.0209 95.0923 28.0209C94.3082 28.0209 93.6927 28.4073 93.2457 29.18C92.7988 29.9528 92.5734 31.0645 92.5696 32.5153C92.5696 33.485 92.67 34.305 92.8707 34.9755C93.0753 35.6422 93.3651 36.1478 93.7401 36.4925C94.1151 36.8334 94.5658 37.0039 95.0923 37.0039Z" fill="black"/>
<path d="M115.155 26.6914V38.3278H113.541L107.626 29.7937H107.518V38.3278H105.763V26.6914H107.388L113.308 35.2368H113.416V26.6914H115.155ZM120.119 38.5209C119.566 38.5209 119.066 38.4187 118.619 38.2141C118.172 38.0058 117.818 37.7047 117.557 37.3107C117.299 36.9168 117.17 36.4338 117.17 35.8618C117.17 35.3694 117.265 34.9641 117.455 34.6459C117.644 34.3278 117.9 34.0759 118.222 33.8903C118.544 33.7047 118.903 33.5645 119.301 33.4698C119.699 33.3751 120.104 33.3031 120.517 33.2539C121.04 33.1933 121.464 33.144 121.79 33.1062C122.116 33.0645 122.352 32.9982 122.5 32.9073C122.648 32.8164 122.722 32.6687 122.722 32.4641V32.4243C122.722 31.9281 122.581 31.5437 122.301 31.2709C122.025 30.9982 121.612 30.8618 121.062 30.8618C120.491 30.8618 120.04 30.9887 119.71 31.2425C119.384 31.4925 119.159 31.7709 119.034 32.0778L117.438 31.7141C117.627 31.1838 117.903 30.7558 118.267 30.43C118.634 30.1005 119.057 29.8618 119.534 29.7141C120.011 29.5626 120.513 29.4868 121.04 29.4868C121.388 29.4868 121.758 29.5285 122.148 29.6118C122.542 29.6914 122.909 29.8391 123.25 30.055C123.595 30.2709 123.877 30.5797 124.097 30.9812C124.316 31.3789 124.426 31.8959 124.426 32.5323V38.3278H122.767V37.1346H122.699C122.589 37.3543 122.424 37.5702 122.205 37.7823C121.985 37.9944 121.703 38.1706 121.358 38.3107C121.013 38.4509 120.6 38.5209 120.119 38.5209ZM120.489 37.1573C120.958 37.1573 121.36 37.0645 121.693 36.8789C122.03 36.6933 122.286 36.4509 122.46 36.1516C122.638 35.8486 122.727 35.5247 122.727 35.18V34.055C122.667 34.1156 122.549 34.1725 122.375 34.2255C122.205 34.2747 122.009 34.3183 121.79 34.3562C121.57 34.3903 121.356 34.4225 121.148 34.4528C120.939 34.4793 120.765 34.502 120.625 34.5209C120.295 34.5626 119.994 34.6327 119.722 34.7312C119.453 34.8297 119.237 34.9717 119.074 35.1573C118.915 35.3391 118.835 35.5815 118.835 35.8846C118.835 36.305 118.991 36.6232 119.301 36.8391C119.612 37.0512 120.008 37.1573 120.489 37.1573ZM126.689 38.3278V29.6005H128.388V38.3278H126.689ZM127.547 28.2539C127.251 28.2539 126.998 28.1554 126.786 27.9584C126.577 27.7577 126.473 27.519 126.473 27.2425C126.473 26.9622 126.577 26.7236 126.786 26.5266C126.998 26.3259 127.251 26.2255 127.547 26.2255C127.842 26.2255 128.094 26.3259 128.303 26.5266C128.515 26.7236 128.621 26.9622 128.621 27.2425C128.621 27.519 128.515 27.7577 128.303 27.9584C128.094 28.1554 127.842 28.2539 127.547 28.2539ZM130.673 38.3278V29.6005H132.315V30.9868H132.406C132.565 30.5172 132.846 30.1478 133.247 29.8789C133.652 29.6062 134.111 29.4698 134.622 29.4698C134.728 29.4698 134.853 29.4736 134.997 29.4812C135.145 29.4887 135.26 29.4982 135.344 29.5096V31.1346C135.276 31.1156 135.154 31.0948 134.98 31.0721C134.806 31.0456 134.632 31.0323 134.457 31.0323C134.056 31.0323 133.698 31.1175 133.384 31.288C133.073 31.4547 132.827 31.6876 132.645 31.9868C132.463 32.2823 132.372 32.6194 132.372 32.9982V38.3278H130.673ZM139.276 38.5209C138.723 38.5209 138.223 38.4187 137.776 38.2141C137.329 38.0058 136.974 37.7047 136.713 37.3107C136.455 36.9168 136.327 36.4338 136.327 35.8618C136.327 35.3694 136.421 34.9641 136.611 34.6459C136.8 34.3278 137.056 34.0759 137.378 33.8903C137.7 33.7047 138.06 33.5645 138.457 33.4698C138.855 33.3751 139.26 33.3031 139.673 33.2539C140.196 33.1933 140.62 33.144 140.946 33.1062C141.272 33.0645 141.509 32.9982 141.656 32.9073C141.804 32.8164 141.878 32.6687 141.878 32.4641V32.4243C141.878 31.9281 141.738 31.5437 141.457 31.2709C141.181 30.9982 140.768 30.8618 140.219 30.8618C139.647 30.8618 139.196 30.9887 138.866 31.2425C138.541 31.4925 138.315 31.7709 138.19 32.0778L136.594 31.7141C136.783 31.1838 137.06 30.7558 137.423 30.43C137.791 30.1005 138.213 29.8618 138.69 29.7141C139.168 29.5626 139.67 29.4868 140.196 29.4868C140.545 29.4868 140.914 29.5285 141.304 29.6118C141.698 29.6914 142.065 29.8391 142.406 30.055C142.751 30.2709 143.033 30.5797 143.253 30.9812C143.473 31.3789 143.582 31.8959 143.582 32.5323V38.3278H141.923V37.1346H141.855C141.745 37.3543 141.58 37.5702 141.361 37.7823C141.141 37.9944 140.859 38.1706 140.514 38.3107C140.17 38.4509 139.757 38.5209 139.276 38.5209ZM139.645 37.1573C140.115 37.1573 140.516 37.0645 140.849 36.8789C141.187 36.6933 141.442 36.4509 141.616 36.1516C141.795 35.8486 141.884 35.5247 141.884 35.18V34.055C141.823 34.1156 141.705 34.1725 141.531 34.2255C141.361 34.2747 141.166 34.3183 140.946 34.3562C140.726 34.3903 140.512 34.4225 140.304 34.4528C140.096 34.4793 139.921 34.502 139.781 34.5209C139.452 34.5626 139.151 34.6327 138.878 34.7312C138.609 34.8297 138.393 34.9717 138.23 35.1573C138.071 35.3391 137.991 35.5815 137.991 35.8846C137.991 36.305 138.147 36.6232 138.457 36.8391C138.768 37.0512 139.164 37.1573 139.645 37.1573Z" fill="#5B5B5B"/>
</g>
<path d="M299.562 25.2653H306.438V40.3903H299.562V25.2653Z" fill="#E6E7E8"/>
<path d="M295.438 25.2653C293.159 25.2653 292 26.9582 292 29.0465V36.609C292 38.6973 293.159 40.3903 295.438 40.3903H299.562V25.2653H295.438ZM310.562 25.2653H306.438V40.3903H310.562C312.841 40.3903 314 38.6973 314 36.609V29.0465C314 26.9582 312.841 25.2653 310.562 25.2653Z" fill="#128807"/>
<path opacity="0.8" d="M333.67 26.6914V38.3278H332.057L326.142 29.7937H326.034V38.3278H324.278V26.6914H325.903L331.824 35.2368H331.932V26.6914H333.67ZM344.107 30.3675C343.997 30.0228 343.849 29.7141 343.663 29.4414C343.482 29.1649 343.264 28.93 343.01 28.7368C342.756 28.5399 342.466 28.3903 342.141 28.288C341.819 28.1857 341.464 28.1346 341.078 28.1346C340.423 28.1346 339.832 28.3031 339.305 28.6403C338.779 28.9774 338.362 29.4717 338.055 30.1232C337.752 30.7709 337.601 31.5645 337.601 32.5039C337.601 33.4471 337.754 34.2444 338.061 34.8959C338.368 35.5475 338.788 36.0418 339.322 36.3789C339.857 36.716 340.464 36.8846 341.146 36.8846C341.779 36.8846 342.33 36.7558 342.8 36.4982C343.273 36.2406 343.639 35.877 343.896 35.4073C344.158 34.9338 344.288 34.377 344.288 33.7368L344.743 33.8221H341.413V32.3732H345.987V33.6971C345.987 34.6743 345.779 35.5228 345.362 36.2425C344.949 36.9584 344.377 37.5115 343.646 37.9016C342.919 38.2918 342.086 38.4868 341.146 38.4868C340.093 38.4868 339.169 38.2444 338.374 37.7596C337.582 37.2747 336.964 36.5872 336.521 35.6971C336.078 34.8031 335.857 33.7425 335.857 32.5153C335.857 31.5872 335.985 30.7539 336.243 30.0153C336.5 29.2766 336.862 28.6497 337.328 28.1346C337.798 27.6156 338.349 27.2198 338.982 26.9471C339.618 26.6706 340.313 26.5323 341.067 26.5323C341.696 26.5323 342.281 26.6251 342.822 26.8107C343.368 26.9963 343.853 27.2596 344.277 27.6005C344.705 27.9414 345.059 28.3467 345.339 28.8164C345.62 29.2823 345.809 29.7993 345.908 30.3675H344.107ZM357.608 26.6914V38.3278H355.994L350.08 29.7937H349.972V38.3278H348.216V26.6914H349.841L355.761 35.2368H355.869V26.6914H357.608Z" fill="black"/>
<path d="M385.28 30.7944L380.933 35.1411C380.42 35.6544 379.58 35.6544 379.067 35.1411L374.72 30.7944" stroke="#292D32" stroke-width="2" stroke-miterlimit="10" stroke-linecap="round" stroke-linejoin="round"/>
<rect x="0.6" y="0.927759" width="419.8" height="63.8" rx="9.9" stroke="#F3A615" stroke-width="0.2"/>
</svg>
