<svg width="32" height="32" viewBox="0 0 32 32" fill="none" xmlns="http://www.w3.org/2000/svg">
<circle cx="16" cy="16" r="16" fill="#F4F7FE"/>
<path d="M23.9058 21.0164C23.6423 21.7223 23.087 22.2588 22.3623 22.5035C21.3458 22.8423 20.3011 23.0964 19.247 23.2752C19.1435 23.2941 19.04 23.3129 18.9364 23.3223C18.767 23.3505 18.5976 23.3694 18.4282 23.3882C18.2211 23.4164 18.0047 23.4352 17.7882 23.4541C17.1953 23.5011 16.6117 23.5294 16.0188 23.5294C15.4164 23.5294 14.8141 23.5011 14.2211 23.4447C13.967 23.4258 13.7223 23.3976 13.4776 23.3599C13.3364 23.3411 13.1953 23.3223 13.0635 23.3035C12.96 23.2847 12.8564 23.2752 12.7529 23.2564C11.7082 23.087 10.6729 22.8329 9.66585 22.4941C8.91291 22.2399 8.33879 21.7035 8.08467 21.0164C7.83056 20.3388 7.92467 19.5482 8.32938 18.8705L9.39291 17.1011C9.61879 16.7152 9.82585 15.9717 9.82585 15.5199V13.7694C9.82585 10.3529 12.6023 7.57642 16.0188 7.57642C19.4258 7.57642 22.2023 10.3529 22.2023 13.7694V15.5199C22.2023 15.9717 22.4094 16.7152 22.6447 17.1011L23.7082 18.8705C24.0941 19.5294 24.1694 20.3011 23.9058 21.0164Z" fill="#FBBD0B"/>
<path d="M16 15.774C15.6047 15.774 15.2847 15.454 15.2847 15.0588V12.1411C15.2847 11.7458 15.6047 11.4258 16 11.4258C16.3953 11.4258 16.7153 11.7458 16.7153 12.1411V15.0588C16.7058 15.454 16.3858 15.774 16 15.774Z" fill="white"/>
<path d="M18.6635 24.4799C18.2682 25.5717 17.2235 26.3529 16 26.3529C15.2564 26.3529 14.5223 26.0517 14.0047 25.5152C13.7035 25.2329 13.4776 24.8564 13.3458 24.4705C13.4682 24.4893 13.5906 24.4988 13.7223 24.5176C13.9388 24.5458 14.1647 24.574 14.3906 24.5929C14.927 24.6399 15.4729 24.6682 16.0188 24.6682C16.5553 24.6682 17.0917 24.6399 17.6188 24.5929C17.8164 24.574 18.0141 24.5646 18.2023 24.5364C18.3529 24.5176 18.5035 24.4988 18.6635 24.4799Z" fill="#FBBD0B"/>
<path d="M22.9019 12.8627C24.6346 12.8627 26.0392 11.4581 26.0392 9.72542C26.0392 7.99276 24.6346 6.58817 22.9019 6.58817C21.1693 6.58817 19.7647 7.99276 19.7647 9.72542C19.7647 11.4581 21.1693 12.8627 22.9019 12.8627Z" fill="#FF0000"/>
</svg>
