<svg width="351" height="88" viewBox="0 0 351 88" fill="none" xmlns="http://www.w3.org/2000/svg">
<g filter="url(#filter0_dd_307_36490)">
<rect x="12" width="327" height="64" rx="10" fill="white"/>
<path d="M39.75 35.92H40.4C41.05 35.92 41.59 35.34 41.59 34.64C41.59 33.77 41.28 33.6 40.77 33.42L39.76 33.07V35.92H39.75Z" fill="#313131"/>
<path d="M38.9701 21.9C33.4501 21.92 28.9801 26.41 29.0001 31.93C29.0201 37.45 33.5101 41.92 39.0301 41.9C44.5501 41.88 49.0201 37.39 49.0001 31.87C48.9801 26.35 44.4901 21.89 38.9701 21.9ZM41.2601 32C42.0401 32.27 43.0901 32.85 43.0901 34.64C43.0901 36.18 41.8801 37.42 40.4001 37.42H39.7501V38C39.7501 38.41 39.4101 38.75 39.0001 38.75C38.5901 38.75 38.2501 38.41 38.2501 38V37.42H37.8901C36.2501 37.42 34.9201 36.04 34.9201 34.34C34.9201 33.93 35.2601 33.59 35.6701 33.59C36.0801 33.59 36.4201 33.93 36.4201 34.34C36.4201 35.21 37.0801 35.92 37.8901 35.92H38.2501V32.54L36.7401 32C35.9601 31.73 34.9101 31.15 34.9101 29.36C34.9101 27.82 36.1201 26.58 37.6001 26.58H38.2501V26C38.2501 25.59 38.5901 25.25 39.0001 25.25C39.4101 25.25 39.7501 25.59 39.7501 26V26.58H40.1101C41.7501 26.58 43.0801 27.96 43.0801 29.66C43.0801 30.07 42.7401 30.41 42.3301 30.41C41.9201 30.41 41.5801 30.07 41.5801 29.66C41.5801 28.79 40.9201 28.08 40.1101 28.08H39.7501V31.46L41.2601 32Z" fill="#313131"/>
<path d="M36.4199 29.37C36.4199 30.24 36.7299 30.41 37.2399 30.59L38.2499 30.94V28.08H37.5999C36.9499 28.08 36.4199 28.66 36.4199 29.37Z" fill="#313131"/>
<path opacity="0.8" d="M68.2784 37.5V25.8636H72.4261C73.3314 25.8636 74.0814 26.0284 74.6761 26.358C75.2708 26.6875 75.7159 27.1383 76.0114 27.7102C76.3068 28.2784 76.4545 28.9186 76.4545 29.6307C76.4545 30.3466 76.3049 30.9905 76.0057 31.5625C75.7102 32.1307 75.2633 32.5814 74.6648 32.9148C74.0701 33.2443 73.322 33.4091 72.4205 33.4091H69.5682V31.9205H72.2614C72.8333 31.9205 73.2973 31.822 73.6534 31.625C74.0095 31.4242 74.2708 31.1515 74.4375 30.8068C74.6042 30.4621 74.6875 30.0701 74.6875 29.6307C74.6875 29.1913 74.6042 28.8011 74.4375 28.4602C74.2708 28.1193 74.0076 27.8523 73.6477 27.6591C73.2917 27.4659 72.822 27.3693 72.2386 27.3693H70.0341V37.5H68.2784ZM80.8381 37.6932C80.285 37.6932 79.785 37.5909 79.3381 37.3864C78.8911 37.178 78.5369 36.8769 78.2756 36.483C78.018 36.089 77.8892 35.6061 77.8892 35.0341C77.8892 34.5417 77.9839 34.1364 78.1733 33.8182C78.3627 33.5 78.6184 33.2481 78.9403 33.0625C79.2623 32.8769 79.6222 32.7367 80.0199 32.642C80.4176 32.5473 80.8229 32.4754 81.2358 32.4261C81.7585 32.3655 82.1828 32.3163 82.5085 32.2784C82.8343 32.2367 83.071 32.1705 83.2188 32.0795C83.3665 31.9886 83.4403 31.8409 83.4403 31.6364V31.5966C83.4403 31.1004 83.3002 30.7159 83.0199 30.4432C82.7434 30.1705 82.3305 30.0341 81.7812 30.0341C81.2093 30.0341 80.7585 30.161 80.429 30.4148C80.1032 30.6648 79.8778 30.9432 79.7528 31.25L78.1562 30.8864C78.3456 30.3561 78.6222 29.928 78.9858 29.6023C79.3532 29.2727 79.7756 29.0341 80.2528 28.8864C80.7301 28.7348 81.232 28.6591 81.7585 28.6591C82.107 28.6591 82.4763 28.7008 82.8665 28.7841C83.2604 28.8636 83.6278 29.0114 83.9688 29.2273C84.3134 29.4432 84.5956 29.7519 84.8153 30.1534C85.035 30.5511 85.1449 31.0682 85.1449 31.7045V37.5H83.4858V36.3068H83.4176C83.3078 36.5265 83.143 36.7424 82.9233 36.9545C82.7036 37.1667 82.4214 37.3428 82.0767 37.483C81.732 37.6231 81.3191 37.6932 80.8381 37.6932ZM81.2074 36.3295C81.6771 36.3295 82.0786 36.2367 82.4119 36.0511C82.7491 35.8655 83.0047 35.6231 83.179 35.3239C83.357 35.0208 83.446 34.697 83.446 34.3523V33.2273C83.3854 33.2879 83.268 33.3447 83.0938 33.3977C82.9233 33.447 82.7282 33.4905 82.5085 33.5284C82.2888 33.5625 82.0748 33.5947 81.8665 33.625C81.6581 33.6515 81.4839 33.6742 81.3438 33.6932C81.0142 33.7348 80.7131 33.8049 80.4403 33.9034C80.1714 34.0019 79.9555 34.1439 79.7926 34.3295C79.6335 34.5114 79.554 34.7538 79.554 35.0568C79.554 35.4773 79.7093 35.7955 80.0199 36.0114C80.3305 36.2235 80.7263 36.3295 81.2074 36.3295ZM88.169 40.7727C87.9152 40.7727 87.6842 40.7519 87.4759 40.7102C87.2675 40.6723 87.1122 40.6307 87.0099 40.5852L87.419 39.1932C87.7296 39.2765 88.0062 39.3125 88.2486 39.3011C88.491 39.2898 88.705 39.1989 88.8906 39.0284C89.08 38.858 89.2467 38.5795 89.3906 38.1932L89.6009 37.6136L86.4077 28.7727H88.2259L90.4361 35.5455H90.527L92.7372 28.7727H94.5611L90.9645 38.6648C90.7978 39.1193 90.5857 39.5038 90.3281 39.8182C90.0705 40.1364 89.7637 40.375 89.4077 40.5341C89.0516 40.6932 88.6387 40.7727 88.169 40.7727ZM96.1577 37.5V28.7727H97.7884V30.1932H97.8963C98.0781 29.7121 98.3755 29.3371 98.7884 29.0682C99.2012 28.7955 99.6955 28.6591 100.271 28.6591C100.855 28.6591 101.343 28.7955 101.737 29.0682C102.135 29.3409 102.429 29.7159 102.618 30.1932H102.709C102.917 29.7273 103.249 29.3561 103.703 29.0795C104.158 28.7992 104.699 28.6591 105.328 28.6591C106.12 28.6591 106.766 28.9072 107.266 29.4034C107.769 29.8996 108.021 30.6477 108.021 31.6477V37.5H106.322V31.8068C106.322 31.2159 106.161 30.7879 105.839 30.5227C105.518 30.2576 105.133 30.125 104.686 30.125C104.133 30.125 103.703 30.2955 103.396 30.6364C103.089 30.9735 102.936 31.4072 102.936 31.9375V37.5H101.243V31.6989C101.243 31.2254 101.095 30.8447 100.8 30.5568C100.504 30.2689 100.12 30.125 99.6463 30.125C99.3243 30.125 99.027 30.2102 98.7543 30.3807C98.4853 30.5473 98.2675 30.7803 98.1009 31.0795C97.938 31.3788 97.8565 31.7254 97.8565 32.1193V37.5H96.1577ZM114.06 37.6761C113.2 37.6761 112.459 37.4924 111.838 37.125C111.221 36.7538 110.743 36.233 110.406 35.5625C110.073 34.8883 109.906 34.0985 109.906 33.1932C109.906 32.2992 110.073 31.5114 110.406 30.8295C110.743 30.1477 111.213 29.6155 111.815 29.233C112.421 28.8504 113.13 28.6591 113.94 28.6591C114.433 28.6591 114.91 28.7405 115.372 28.9034C115.834 29.0663 116.249 29.322 116.616 29.6705C116.984 30.0189 117.274 30.4716 117.486 31.0284C117.698 31.5814 117.804 32.2538 117.804 33.0455V33.6477H110.866V32.375H116.139C116.139 31.928 116.048 31.5322 115.866 31.1875C115.685 30.839 115.429 30.5644 115.099 30.3636C114.774 30.1629 114.391 30.0625 113.952 30.0625C113.474 30.0625 113.058 30.1799 112.702 30.4148C112.349 30.6458 112.077 30.9489 111.884 31.3239C111.694 31.6951 111.599 32.0985 111.599 32.5341V33.5284C111.599 34.1117 111.702 34.608 111.906 35.017C112.115 35.4261 112.404 35.7386 112.776 35.9545C113.147 36.1667 113.58 36.2727 114.077 36.2727C114.399 36.2727 114.692 36.2273 114.957 36.1364C115.223 36.0417 115.452 35.9015 115.645 35.7159C115.838 35.5303 115.986 35.3011 116.088 35.0284L117.696 35.3182C117.567 35.7917 117.336 36.2064 117.003 36.5625C116.673 36.9148 116.259 37.1894 115.759 37.3864C115.262 37.5795 114.696 37.6761 114.06 37.6761ZM121.388 32.3182V37.5H119.689V28.7727H121.32V30.1932H121.428C121.628 29.7311 121.943 29.3598 122.371 29.0795C122.803 28.7992 123.346 28.6591 124.001 28.6591C124.596 28.6591 125.117 28.7841 125.564 29.0341C126.011 29.2803 126.357 29.6477 126.604 30.1364C126.85 30.625 126.973 31.2292 126.973 31.9489V37.5H125.274V32.1534C125.274 31.5208 125.109 31.0265 124.78 30.6705C124.45 30.3106 123.998 30.1307 123.422 30.1307C123.028 30.1307 122.678 30.2159 122.371 30.3864C122.068 30.5568 121.827 30.8068 121.649 31.1364C121.475 31.4621 121.388 31.8561 121.388 32.3182ZM133.325 28.7727V30.1364H128.558V28.7727H133.325ZM129.837 26.6818H131.536V34.9375C131.536 35.267 131.585 35.5152 131.683 35.6818C131.782 35.8447 131.909 35.9564 132.064 36.017C132.223 36.0739 132.395 36.1023 132.581 36.1023C132.717 36.1023 132.837 36.0928 132.939 36.0739C133.041 36.0549 133.121 36.0398 133.178 36.0284L133.484 37.4318C133.386 37.4697 133.246 37.5076 133.064 37.5455C132.882 37.5871 132.655 37.6098 132.382 37.6136C131.935 37.6212 131.518 37.5417 131.132 37.375C130.746 37.2083 130.433 36.9508 130.195 36.6023C129.956 36.2538 129.837 35.8163 129.837 35.2898V26.6818ZM139.439 37.5V28.7727H141.07V30.1932H141.178C141.359 29.7121 141.657 29.3371 142.07 29.0682C142.482 28.7955 142.977 28.6591 143.553 28.6591C144.136 28.6591 144.625 28.7955 145.018 29.0682C145.416 29.3409 145.71 29.7159 145.899 30.1932H145.99C146.198 29.7273 146.53 29.3561 146.984 29.0795C147.439 28.7992 147.981 28.6591 148.609 28.6591C149.401 28.6591 150.047 28.9072 150.547 29.4034C151.051 29.8996 151.303 30.6477 151.303 31.6477V37.5H149.604V31.8068C149.604 31.2159 149.443 30.7879 149.121 30.5227C148.799 30.2576 148.414 30.125 147.967 30.125C147.414 30.125 146.984 30.2955 146.678 30.6364C146.371 30.9735 146.217 31.4072 146.217 31.9375V37.5H144.524V31.6989C144.524 31.2254 144.376 30.8447 144.081 30.5568C143.786 30.2689 143.401 30.125 142.928 30.125C142.606 30.125 142.308 30.2102 142.036 30.3807C141.767 30.5473 141.549 30.7803 141.382 31.0795C141.219 31.3788 141.138 31.7254 141.138 32.1193V37.5H139.439ZM157.341 37.6761C156.481 37.6761 155.741 37.4924 155.119 37.125C154.502 36.7538 154.025 36.233 153.688 35.5625C153.354 34.8883 153.188 34.0985 153.188 33.1932C153.188 32.2992 153.354 31.5114 153.688 30.8295C154.025 30.1477 154.494 29.6155 155.097 29.233C155.703 28.8504 156.411 28.6591 157.222 28.6591C157.714 28.6591 158.191 28.7405 158.653 28.9034C159.116 29.0663 159.53 29.322 159.898 29.6705C160.265 30.0189 160.555 30.4716 160.767 31.0284C160.979 31.5814 161.085 32.2538 161.085 33.0455V33.6477H154.148V32.375H159.42C159.42 31.928 159.33 31.5322 159.148 31.1875C158.966 30.839 158.71 30.5644 158.381 30.3636C158.055 30.1629 157.672 30.0625 157.233 30.0625C156.756 30.0625 156.339 30.1799 155.983 30.4148C155.631 30.6458 155.358 30.9489 155.165 31.3239C154.975 31.6951 154.881 32.0985 154.881 32.5341V33.5284C154.881 34.1117 154.983 34.608 155.188 35.017C155.396 35.4261 155.686 35.7386 156.057 35.9545C156.428 36.1667 156.862 36.2727 157.358 36.2727C157.68 36.2727 157.973 36.2273 158.239 36.1364C158.504 36.0417 158.733 35.9015 158.926 35.7159C159.119 35.5303 159.267 35.3011 159.369 35.0284L160.977 35.3182C160.848 35.7917 160.617 36.2064 160.284 36.5625C159.955 36.9148 159.54 37.1894 159.04 37.3864C158.544 37.5795 157.977 37.6761 157.341 37.6761ZM167.044 28.7727V30.1364H162.277V28.7727H167.044ZM163.555 26.6818H165.254V34.9375C165.254 35.267 165.304 35.5152 165.402 35.6818C165.5 35.8447 165.627 35.9564 165.783 36.017C165.942 36.0739 166.114 36.1023 166.3 36.1023C166.436 36.1023 166.555 36.0928 166.658 36.0739C166.76 36.0549 166.839 36.0398 166.896 36.0284L167.203 37.4318C167.105 37.4697 166.964 37.5076 166.783 37.5455C166.601 37.5871 166.374 37.6098 166.101 37.6136C165.654 37.6212 165.237 37.5417 164.851 37.375C164.464 37.2083 164.152 36.9508 163.913 36.6023C163.675 36.2538 163.555 35.8163 163.555 35.2898V26.6818ZM170.81 32.3182V37.5H169.111V25.8636H170.787V30.1932H170.895C171.099 29.7235 171.412 29.3504 171.832 29.0739C172.253 28.7973 172.802 28.6591 173.48 28.6591C174.079 28.6591 174.601 28.7822 175.048 29.0284C175.499 29.2746 175.848 29.642 176.094 30.1307C176.344 30.6155 176.469 31.2216 176.469 31.9489V37.5H174.77V32.1534C174.77 31.5133 174.605 31.017 174.276 30.6648C173.946 30.3087 173.488 30.1307 172.901 30.1307C172.499 30.1307 172.139 30.2159 171.821 30.3864C171.507 30.5568 171.259 30.8068 171.077 31.1364C170.899 31.4621 170.81 31.8561 170.81 32.3182ZM182.412 37.6761C181.594 37.6761 180.88 37.4886 180.27 37.1136C179.66 36.7386 179.187 36.214 178.849 35.5398C178.512 34.8655 178.344 34.0777 178.344 33.1761C178.344 32.2708 178.512 31.4792 178.849 30.8011C179.187 30.1231 179.66 29.5966 180.27 29.2216C180.88 28.8466 181.594 28.6591 182.412 28.6591C183.23 28.6591 183.944 28.8466 184.554 29.2216C185.164 29.5966 185.637 30.1231 185.974 30.8011C186.312 31.4792 186.48 32.2708 186.48 33.1761C186.48 34.0777 186.312 34.8655 185.974 35.5398C185.637 36.214 185.164 36.7386 184.554 37.1136C183.944 37.4886 183.23 37.6761 182.412 37.6761ZM182.418 36.25C182.948 36.25 183.387 36.1098 183.736 35.8295C184.084 35.5492 184.342 35.1761 184.509 34.7102C184.679 34.2443 184.764 33.7311 184.764 33.1705C184.764 32.6136 184.679 32.1023 184.509 31.6364C184.342 31.1667 184.084 30.7898 183.736 30.5057C183.387 30.2216 182.948 30.0795 182.418 30.0795C181.884 30.0795 181.44 30.2216 181.088 30.5057C180.74 30.7898 180.48 31.1667 180.31 31.6364C180.143 32.1023 180.06 32.6136 180.06 33.1705C180.06 33.7311 180.143 34.2443 180.31 34.7102C180.48 35.1761 180.74 35.5492 181.088 35.8295C181.44 36.1098 181.884 36.25 182.418 36.25ZM191.643 37.6705C190.939 37.6705 190.31 37.4905 189.757 37.1307C189.208 36.767 188.776 36.25 188.462 35.5795C188.151 34.9053 187.996 34.0966 187.996 33.1534C187.996 32.2102 188.153 31.4034 188.467 30.733C188.786 30.0625 189.221 29.5492 189.774 29.1932C190.327 28.8371 190.954 28.6591 191.655 28.6591C192.196 28.6591 192.632 28.75 192.962 28.9318C193.295 29.1098 193.553 29.3182 193.734 29.5568C193.92 29.7955 194.064 30.0057 194.166 30.1875H194.268V25.8636H195.967V37.5H194.308V36.142H194.166C194.064 36.3277 193.916 36.5398 193.723 36.7784C193.534 37.017 193.272 37.2254 192.939 37.4034C192.606 37.5814 192.174 37.6705 191.643 37.6705ZM192.018 36.2216C192.507 36.2216 192.92 36.0928 193.257 35.8352C193.598 35.5739 193.856 35.2121 194.03 34.75C194.208 34.2879 194.297 33.75 194.297 33.1364C194.297 32.5303 194.21 32 194.036 31.5455C193.861 31.0909 193.606 30.7367 193.268 30.483C192.931 30.2292 192.515 30.1023 192.018 30.1023C191.507 30.1023 191.081 30.2348 190.74 30.5C190.399 30.7652 190.142 31.1269 189.967 31.5852C189.797 32.0436 189.712 32.5606 189.712 33.1364C189.712 33.7197 189.799 34.2443 189.973 34.7102C190.147 35.1761 190.405 35.5455 190.746 35.8182C191.09 36.0871 191.515 36.2216 192.018 36.2216Z" fill="black"/>
<path d="M313.967 26.72L318.313 31.0667C318.827 31.58 318.827 32.42 318.313 32.9334L313.967 37.28" stroke="#292D32" stroke-width="2" stroke-miterlimit="10" stroke-linecap="round" stroke-linejoin="round"/>
</g>
<defs>
<filter id="filter0_dd_307_36490" x="0" y="0" width="351" height="88" filterUnits="userSpaceOnUse" color-interpolation-filters="sRGB">
<feFlood flood-opacity="0" result="BackgroundImageFix"/>
<feColorMatrix in="SourceAlpha" type="matrix" values="0 0 0 0 0 0 0 0 0 0 0 0 0 0 0 0 0 0 127 0" result="hardAlpha"/>
<feMorphology radius="2" operator="erode" in="SourceAlpha" result="effect1_dropShadow_307_36490"/>
<feOffset dy="4"/>
<feGaussianBlur stdDeviation="3"/>
<feColorMatrix type="matrix" values="0 0 0 0 0.0627451 0 0 0 0 0.0941176 0 0 0 0 0.156863 0 0 0 0.03 0"/>
<feBlend mode="normal" in2="BackgroundImageFix" result="effect1_dropShadow_307_36490"/>
<feColorMatrix in="SourceAlpha" type="matrix" values="0 0 0 0 0 0 0 0 0 0 0 0 0 0 0 0 0 0 127 0" result="hardAlpha"/>
<feMorphology radius="4" operator="erode" in="SourceAlpha" result="effect2_dropShadow_307_36490"/>
<feOffset dy="12"/>
<feGaussianBlur stdDeviation="8"/>
<feColorMatrix type="matrix" values="0 0 0 0 0.0627451 0 0 0 0 0.0941176 0 0 0 0 0.156863 0 0 0 0.08 0"/>
<feBlend mode="normal" in2="effect1_dropShadow_307_36490" result="effect2_dropShadow_307_36490"/>
<feBlend mode="normal" in="SourceGraphic" in2="effect2_dropShadow_307_36490" result="shape"/>
</filter>
</defs>
</svg>
