<svg width="352" height="91" viewBox="0 0 352 91" fill="none" xmlns="http://www.w3.org/2000/svg">
<g filter="url(#filter0_dd_307_36147)">
<rect x="12.5" y="0.714844" width="327" height="66" rx="8" fill="white"/>
<rect x="33.4998" y="17.7144" width="31.0004" height="32.0009" rx="4" fill="#2C2C2C"/>
<path d="M52.251 25.7829C52.3489 25.8396 52.4246 25.9278 52.4658 26.0332C52.5071 26.1385 52.5114 26.2548 52.478 26.3629L50.677 32.2149H54C54.0977 32.2148 54.1932 32.2434 54.2748 32.297C54.3564 32.3506 54.4205 32.427 54.4592 32.5167C54.4979 32.6063 54.5096 32.7053 54.4926 32.8015C54.4757 32.8977 54.431 32.9868 54.364 33.0579L46.364 41.5579C46.2866 41.6402 46.1836 41.6938 46.0718 41.7101C45.96 41.7264 45.8459 41.7043 45.7483 41.6475C45.6506 41.5906 45.5751 41.5024 45.534 41.3972C45.4929 41.2919 45.4887 41.1758 45.522 41.0679L47.323 35.2149H44C43.9023 35.2149 43.8068 35.1863 43.7252 35.1327C43.6436 35.0791 43.5795 35.0027 43.5408 34.9131C43.5021 34.8234 43.4904 34.7244 43.5074 34.6282C43.5243 34.532 43.569 34.4429 43.636 34.3719L51.636 25.8719C51.7133 25.7897 51.8162 25.736 51.9278 25.7197C52.0395 25.7033 52.1534 25.7253 52.251 25.7819V25.7829Z" fill="#F3A615"/>
<path opacity="0.8" d="M77.3542 25.8828C77.3542 26.3775 77.2375 26.8442 77.0042 27.2828C76.7709 27.7215 76.3975 28.0808 75.8842 28.3608C75.3709 28.6315 74.7129 28.7668 73.9102 28.7668H72.1462V32.7148H70.5502V22.9848H73.9102C74.6569 22.9848 75.2869 23.1155 75.8002 23.3768C76.3229 23.6288 76.7102 23.9742 76.9622 24.4128C77.2235 24.8515 77.3542 25.3415 77.3542 25.8828ZM73.9102 27.4648C74.5169 27.4648 74.9695 27.3295 75.2682 27.0588C75.5669 26.7788 75.7162 26.3868 75.7162 25.8828C75.7162 24.8188 75.1142 24.2868 73.9102 24.2868H72.1462V27.4648H73.9102ZM82.2224 32.8408C81.4944 32.8408 80.8364 32.6775 80.2484 32.3508C79.6604 32.0148 79.1984 31.5482 78.8624 30.9508C78.5264 30.3442 78.3584 29.6442 78.3584 28.8508C78.3584 28.0668 78.531 27.3715 78.8764 26.7648C79.2217 26.1582 79.693 25.6915 80.2904 25.3648C80.8877 25.0382 81.555 24.8748 82.2924 24.8748C83.0297 24.8748 83.697 25.0382 84.2944 25.3648C84.8917 25.6915 85.363 26.1582 85.7084 26.7648C86.0537 27.3715 86.2264 28.0668 86.2264 28.8508C86.2264 29.6348 86.049 30.3302 85.6944 30.9368C85.3397 31.5435 84.8544 32.0148 84.2384 32.3508C83.6317 32.6775 82.9597 32.8408 82.2224 32.8408ZM82.2224 31.4548C82.633 31.4548 83.0157 31.3568 83.3704 31.1608C83.7344 30.9648 84.0284 30.6708 84.2524 30.2788C84.4764 29.8868 84.5884 29.4108 84.5884 28.8508C84.5884 28.2908 84.481 27.8195 84.2664 27.4368C84.0517 27.0448 83.767 26.7508 83.4124 26.5548C83.0577 26.3588 82.675 26.2608 82.2644 26.2608C81.8537 26.2608 81.471 26.3588 81.1164 26.5548C80.771 26.7508 80.4957 27.0448 80.2904 27.4368C80.085 27.8195 79.9824 28.2908 79.9824 28.8508C79.9824 29.6815 80.1924 30.3255 80.6124 30.7828C81.0417 31.2308 81.5784 31.4548 82.2224 31.4548ZM98.1641 25.0008L95.7701 32.7148H94.0901L92.5361 27.0168L90.9821 32.7148H89.3021L86.8941 25.0008H88.5181L90.1281 31.2028L91.7661 25.0008H93.4321L95.0001 31.1748L96.5961 25.0008H98.1641ZM106.427 28.6688C106.427 28.9582 106.408 29.2195 106.371 29.4528H100.477C100.524 30.0688 100.752 30.5635 101.163 30.9368C101.574 31.3102 102.078 31.4968 102.675 31.4968C103.534 31.4968 104.14 31.1375 104.495 30.4188H106.217C105.984 31.1282 105.559 31.7115 104.943 32.1688C104.336 32.6168 103.58 32.8408 102.675 32.8408C101.938 32.8408 101.275 32.6775 100.687 32.3508C100.108 32.0148 99.6508 31.5482 99.3148 30.9508C98.9882 30.3442 98.8248 29.6442 98.8248 28.8508C98.8248 28.0575 98.9835 27.3622 99.3008 26.7648C99.6275 26.1582 100.08 25.6915 100.659 25.3648C101.247 25.0382 101.919 24.8748 102.675 24.8748C103.403 24.8748 104.052 25.0335 104.621 25.3508C105.19 25.6682 105.634 26.1162 105.951 26.6948C106.268 27.2642 106.427 27.9222 106.427 28.6688ZM104.761 28.1648C104.752 27.5768 104.542 27.1055 104.131 26.7508C103.72 26.3962 103.212 26.2188 102.605 26.2188C102.054 26.2188 101.583 26.3962 101.191 26.7508C100.799 27.0962 100.566 27.5675 100.491 28.1648H104.761ZM109.593 26.1208C109.827 25.7288 110.135 25.4255 110.517 25.2108C110.909 24.9868 111.371 24.8748 111.903 24.8748V26.5268H111.497C110.872 26.5268 110.396 26.6855 110.069 27.0028C109.752 27.3202 109.593 27.8708 109.593 28.6548V32.7148H107.997V25.0008H109.593V26.1208ZM118.589 22.9848V29.1868C118.589 29.9242 118.781 30.4795 119.163 30.8528C119.555 31.2262 120.097 31.4128 120.787 31.4128C121.487 31.4128 122.029 31.2262 122.411 30.8528C122.803 30.4795 122.999 29.9242 122.999 29.1868V22.9848H124.595V29.1588C124.595 29.9522 124.423 30.6242 124.077 31.1748C123.732 31.7255 123.27 32.1362 122.691 32.4068C122.113 32.6775 121.473 32.8128 120.773 32.8128C120.073 32.8128 119.434 32.6775 118.855 32.4068C118.286 32.1362 117.833 31.7255 117.497 31.1748C117.161 30.6242 116.993 29.9522 116.993 29.1588V22.9848H118.589ZM129.473 32.8408C128.867 32.8408 128.321 32.7335 127.835 32.5188C127.359 32.2948 126.981 31.9962 126.701 31.6228C126.421 31.2402 126.272 30.8155 126.253 30.3488H127.905C127.933 30.6755 128.087 30.9508 128.367 31.1748C128.657 31.3895 129.016 31.4968 129.445 31.4968C129.893 31.4968 130.239 31.4128 130.481 31.2448C130.733 31.0675 130.859 30.8435 130.859 30.5728C130.859 30.2835 130.719 30.0688 130.439 29.9288C130.169 29.7888 129.735 29.6348 129.137 29.4668C128.559 29.3082 128.087 29.1542 127.723 29.0048C127.359 28.8555 127.042 28.6268 126.771 28.3188C126.51 28.0108 126.379 27.6048 126.379 27.1008C126.379 26.6902 126.501 26.3168 126.743 25.9808C126.986 25.6355 127.331 25.3648 127.779 25.1688C128.237 24.9728 128.759 24.8748 129.347 24.8748C130.225 24.8748 130.929 25.0988 131.461 25.5468C132.003 25.9855 132.292 26.5875 132.329 27.3528H130.733C130.705 27.0075 130.565 26.7322 130.313 26.5268C130.061 26.3215 129.721 26.2188 129.291 26.2188C128.871 26.2188 128.549 26.2982 128.325 26.4568C128.101 26.6155 127.989 26.8255 127.989 27.0868C127.989 27.2922 128.064 27.4648 128.213 27.6048C128.363 27.7448 128.545 27.8568 128.759 27.9408C128.974 28.0155 129.291 28.1135 129.711 28.2348C130.271 28.3842 130.729 28.5382 131.083 28.6968C131.447 28.8462 131.76 29.0702 132.021 29.3688C132.283 29.6675 132.418 30.0642 132.427 30.5588C132.427 30.9975 132.306 31.3895 132.063 31.7348C131.821 32.0802 131.475 32.3508 131.027 32.5468C130.589 32.7428 130.071 32.8408 129.473 32.8408ZM133.62 28.8228C133.62 28.0482 133.778 27.3622 134.096 26.7648C134.422 26.1675 134.861 25.7055 135.412 25.3788C135.972 25.0428 136.588 24.8748 137.26 24.8748C137.866 24.8748 138.394 24.9962 138.842 25.2388C139.299 25.4722 139.663 25.7662 139.934 26.1208V25.0008H141.544V32.7148H139.934V31.5668C139.663 31.9308 139.294 32.2342 138.828 32.4768C138.361 32.7195 137.829 32.8408 137.232 32.8408C136.569 32.8408 135.962 32.6728 135.412 32.3368C134.861 31.9915 134.422 31.5155 134.096 30.9088C133.778 30.2928 133.62 29.5975 133.62 28.8228ZM139.934 28.8508C139.934 28.3188 139.822 27.8568 139.598 27.4648C139.383 27.0728 139.098 26.7742 138.744 26.5688C138.389 26.3635 138.006 26.2608 137.596 26.2608C137.185 26.2608 136.802 26.3635 136.448 26.5688C136.093 26.7648 135.804 27.0588 135.58 27.4508C135.365 27.8335 135.258 28.2908 135.258 28.8228C135.258 29.3548 135.365 29.8215 135.58 30.2228C135.804 30.6242 136.093 30.9322 136.448 31.1468C136.812 31.3522 137.194 31.4548 137.596 31.4548C138.006 31.4548 138.389 31.3522 138.744 31.1468C139.098 30.9415 139.383 30.6428 139.598 30.2508C139.822 29.8495 139.934 29.3828 139.934 28.8508ZM146.748 24.8748C147.345 24.8748 147.873 24.9962 148.33 25.2388C148.797 25.4722 149.161 25.7662 149.422 26.1208V25.0008H151.032V32.8408C151.032 33.5502 150.883 34.1802 150.584 34.7308C150.285 35.2908 149.851 35.7295 149.282 36.0468C148.722 36.3642 148.05 36.5228 147.266 36.5228C146.221 36.5228 145.353 36.2755 144.662 35.7808C143.971 35.2955 143.579 34.6328 143.486 33.7928H145.068C145.189 34.1942 145.446 34.5162 145.838 34.7588C146.239 35.0108 146.715 35.1368 147.266 35.1368C147.91 35.1368 148.428 34.9408 148.82 34.5488C149.221 34.1568 149.422 33.5875 149.422 32.8408V31.5528C149.151 31.9168 148.783 32.2248 148.316 32.4768C147.859 32.7195 147.336 32.8408 146.748 32.8408C146.076 32.8408 145.46 32.6728 144.9 32.3368C144.349 31.9915 143.911 31.5155 143.584 30.9088C143.267 30.2928 143.108 29.5975 143.108 28.8228C143.108 28.0482 143.267 27.3622 143.584 26.7648C143.911 26.1675 144.349 25.7055 144.9 25.3788C145.46 25.0428 146.076 24.8748 146.748 24.8748ZM149.422 28.8508C149.422 28.3188 149.31 27.8568 149.086 27.4648C148.871 27.0728 148.587 26.7742 148.232 26.5688C147.877 26.3635 147.495 26.2608 147.084 26.2608C146.673 26.2608 146.291 26.3635 145.936 26.5688C145.581 26.7648 145.292 27.0588 145.068 27.4508C144.853 27.8335 144.746 28.2908 144.746 28.8228C144.746 29.3548 144.853 29.8215 145.068 30.2228C145.292 30.6242 145.581 30.9322 145.936 31.1468C146.3 31.3522 146.683 31.4548 147.084 31.4548C147.495 31.4548 147.877 31.3522 148.232 31.1468C148.587 30.9415 148.871 30.6428 149.086 30.2508C149.31 29.8495 149.422 29.3828 149.422 28.8508ZM160.198 28.6688C160.198 28.9582 160.18 29.2195 160.142 29.4528H154.248C154.295 30.0688 154.524 30.5635 154.934 30.9368C155.345 31.3102 155.849 31.4968 156.446 31.4968C157.305 31.4968 157.912 31.1375 158.266 30.4188H159.988C159.755 31.1282 159.33 31.7115 158.714 32.1688C158.108 32.6168 157.352 32.8408 156.446 32.8408C155.709 32.8408 155.046 32.6775 154.458 32.3508C153.88 32.0148 153.422 31.5482 153.086 30.9508C152.76 30.3442 152.596 29.6442 152.596 28.8508C152.596 28.0575 152.755 27.3622 153.072 26.7648C153.399 26.1582 153.852 25.6915 154.43 25.3648C155.018 25.0382 155.69 24.8748 156.446 24.8748C157.174 24.8748 157.823 25.0335 158.392 25.3508C158.962 25.6682 159.405 26.1162 159.722 26.6948C160.04 27.2642 160.198 27.9222 160.198 28.6688ZM158.532 28.1648C158.523 27.5768 158.313 27.1055 157.902 26.7508C157.492 26.3962 156.983 26.2188 156.376 26.2188C155.826 26.2188 155.354 26.3962 154.962 26.7508C154.57 27.0962 154.337 27.5675 154.262 28.1648H158.532Z" fill="black"/>
<path opacity="0.8" d="M77.3402 38.7948V45.7148H76.4302V40.5548L74.1302 45.7148H73.4902L71.1802 40.5448V45.7148H70.2702V38.7948H71.2502L73.8102 44.5148L76.3702 38.7948H77.3402ZM81.2735 45.8048C80.7601 45.8048 80.2935 45.6882 79.8735 45.4548C79.4601 45.2215 79.1335 44.8915 78.8935 44.4648C78.6601 44.0315 78.5435 43.5315 78.5435 42.9648C78.5435 42.4048 78.6635 41.9115 78.9035 41.4848C79.1501 41.0515 79.4835 40.7215 79.9035 40.4948C80.3235 40.2615 80.7935 40.1448 81.3135 40.1448C81.8335 40.1448 82.3035 40.2615 82.7235 40.4948C83.1435 40.7215 83.4735 41.0482 83.7135 41.4748C83.9601 41.9015 84.0835 42.3982 84.0835 42.9648C84.0835 43.5315 83.9568 44.0315 83.7035 44.4648C83.4568 44.8915 83.1201 45.2215 82.6935 45.4548C82.2668 45.6882 81.7935 45.8048 81.2735 45.8048ZM81.2735 45.0048C81.6001 45.0048 81.9068 44.9282 82.1935 44.7748C82.4801 44.6215 82.7101 44.3915 82.8835 44.0848C83.0635 43.7782 83.1535 43.4048 83.1535 42.9648C83.1535 42.5248 83.0668 42.1515 82.8935 41.8448C82.7201 41.5382 82.4935 41.3115 82.2135 41.1648C81.9335 41.0115 81.6301 40.9348 81.3035 40.9348C80.9701 40.9348 80.6635 41.0115 80.3835 41.1648C80.1101 41.3115 79.8901 41.5382 79.7235 41.8448C79.5568 42.1515 79.4735 42.5248 79.4735 42.9648C79.4735 43.4115 79.5535 43.7882 79.7135 44.0948C79.8801 44.4015 80.1001 44.6315 80.3735 44.7848C80.6468 44.9315 80.9468 45.0048 81.2735 45.0048ZM87.95 40.1348C88.6166 40.1348 89.1566 40.3382 89.57 40.7448C89.9833 41.1448 90.19 41.7248 90.19 42.4848V45.7148H89.29V42.6148C89.29 42.0682 89.1533 41.6515 88.88 41.3648C88.6066 41.0715 88.2333 40.9248 87.76 40.9248C87.28 40.9248 86.8966 41.0748 86.61 41.3748C86.33 41.6748 86.19 42.1115 86.19 42.6848V45.7148H85.28V40.2348H86.19V41.0148C86.37 40.7348 86.6133 40.5182 86.92 40.3648C87.2333 40.2115 87.5766 40.1348 87.95 40.1348ZM91.3364 42.9548C91.3364 42.3948 91.4498 41.9048 91.6764 41.4848C91.9031 41.0582 92.2131 40.7282 92.6064 40.4948C93.0064 40.2615 93.4531 40.1448 93.9464 40.1448C94.3731 40.1448 94.7698 40.2448 95.1364 40.4448C95.5031 40.6382 95.7831 40.8948 95.9764 41.2148V38.3148H96.8964V45.7148H95.9764V44.6848C95.7964 45.0115 95.5298 45.2815 95.1764 45.4948C94.8231 45.7015 94.4098 45.8048 93.9364 45.8048C93.4498 45.8048 93.0064 45.6848 92.6064 45.4448C92.2131 45.2048 91.9031 44.8682 91.6764 44.4348C91.4498 44.0015 91.3364 43.5082 91.3364 42.9548ZM95.9764 42.9648C95.9764 42.5515 95.8931 42.1915 95.7264 41.8848C95.5598 41.5782 95.3331 41.3448 95.0464 41.1848C94.7664 41.0182 94.4564 40.9348 94.1164 40.9348C93.7764 40.9348 93.4664 41.0148 93.1864 41.1748C92.9064 41.3348 92.6831 41.5682 92.5164 41.8748C92.3498 42.1815 92.2664 42.5415 92.2664 42.9548C92.2664 43.3748 92.3498 43.7415 92.5164 44.0548C92.6831 44.3615 92.9064 44.5982 93.1864 44.7648C93.4664 44.9248 93.7764 45.0048 94.1164 45.0048C94.4564 45.0048 94.7664 44.9248 95.0464 44.7648C95.3331 44.5982 95.5598 44.3615 95.7264 44.0548C95.8931 43.7415 95.9764 43.3782 95.9764 42.9648ZM98.0943 42.9548C98.0943 42.3948 98.2076 41.9048 98.4343 41.4848C98.6609 41.0582 98.9709 40.7282 99.3643 40.4948C99.7643 40.2615 100.208 40.1448 100.694 40.1448C101.174 40.1448 101.591 40.2482 101.944 40.4548C102.298 40.6615 102.561 40.9215 102.734 41.2348V40.2348H103.654V45.7148H102.734V44.6948C102.554 45.0148 102.284 45.2815 101.924 45.4948C101.571 45.7015 101.158 45.8048 100.684 45.8048C100.198 45.8048 99.7576 45.6848 99.3643 45.4448C98.9709 45.2048 98.6609 44.8682 98.4343 44.4348C98.2076 44.0015 98.0943 43.5082 98.0943 42.9548ZM102.734 42.9648C102.734 42.5515 102.651 42.1915 102.484 41.8848C102.318 41.5782 102.091 41.3448 101.804 41.1848C101.524 41.0182 101.214 40.9348 100.874 40.9348C100.534 40.9348 100.224 41.0148 99.9443 41.1748C99.6643 41.3348 99.4409 41.5682 99.2743 41.8748C99.1076 42.1815 99.0243 42.5415 99.0243 42.9548C99.0243 43.3748 99.1076 43.7415 99.2743 44.0548C99.4409 44.3615 99.6643 44.5982 99.9443 44.7648C100.224 44.9248 100.534 45.0048 100.874 45.0048C101.214 45.0048 101.524 44.9248 101.804 44.7648C102.091 44.5982 102.318 44.3615 102.484 44.0548C102.651 43.7415 102.734 43.3782 102.734 42.9648ZM109.912 40.2348L106.612 48.2948H105.672L106.752 45.6548L104.542 40.2348H105.552L107.272 44.6748L108.972 40.2348H109.912ZM111.767 44.4548L110.647 47.1448H110.037L110.767 44.4548H111.767ZM121.301 45.7848C120.655 45.7848 120.065 45.6348 119.531 45.3348C118.998 45.0282 118.575 44.6048 118.261 44.0648C117.955 43.5182 117.801 42.9048 117.801 42.2248C117.801 41.5448 117.955 40.9348 118.261 40.3948C118.575 39.8482 118.998 39.4248 119.531 39.1248C120.065 38.8182 120.655 38.6648 121.301 38.6648C121.955 38.6648 122.548 38.8182 123.081 39.1248C123.615 39.4248 124.035 39.8448 124.341 40.3848C124.648 40.9248 124.801 41.5382 124.801 42.2248C124.801 42.9115 124.648 43.5248 124.341 44.0648C124.035 44.6048 123.615 45.0282 123.081 45.3348C122.548 45.6348 121.955 45.7848 121.301 45.7848ZM121.301 44.9948C121.788 44.9948 122.225 44.8815 122.611 44.6548C123.005 44.4282 123.311 44.1048 123.531 43.6848C123.758 43.2648 123.871 42.7782 123.871 42.2248C123.871 41.6648 123.758 41.1782 123.531 40.7648C123.311 40.3448 123.008 40.0215 122.621 39.7948C122.235 39.5682 121.795 39.4548 121.301 39.4548C120.808 39.4548 120.368 39.5682 119.981 39.7948C119.595 40.0215 119.288 40.3448 119.061 40.7648C118.841 41.1782 118.731 41.6648 118.731 42.2248C118.731 42.7782 118.841 43.2648 119.061 43.6848C119.288 44.1048 119.595 44.4282 119.981 44.6548C120.375 44.8815 120.815 44.9948 121.301 44.9948ZM125.663 42.9648C125.663 42.3982 125.776 41.9048 126.003 41.4848C126.229 41.0582 126.543 40.7282 126.943 40.4948C127.349 40.2615 127.813 40.1448 128.333 40.1448C129.006 40.1448 129.559 40.3082 129.993 40.6348C130.433 40.9615 130.723 41.4148 130.863 41.9948H129.883C129.789 41.6615 129.606 41.3982 129.333 41.2048C129.066 41.0115 128.733 40.9148 128.333 40.9148C127.813 40.9148 127.393 41.0948 127.073 41.4548C126.753 41.8082 126.593 42.3115 126.593 42.9648C126.593 43.6248 126.753 44.1348 127.073 44.4948C127.393 44.8548 127.813 45.0348 128.333 45.0348C128.733 45.0348 129.066 44.9415 129.333 44.7548C129.599 44.5682 129.783 44.3015 129.883 43.9548H130.863C130.716 44.5148 130.423 44.9648 129.983 45.3048C129.543 45.6382 128.993 45.8048 128.333 45.8048C127.813 45.8048 127.349 45.6882 126.943 45.4548C126.543 45.2215 126.229 44.8915 126.003 44.4648C125.776 44.0382 125.663 43.5382 125.663 42.9648ZM133.187 40.9848V44.2148C133.187 44.4815 133.244 44.6715 133.357 44.7848C133.47 44.8915 133.667 44.9448 133.947 44.9448H134.617V45.7148H133.797C133.29 45.7148 132.91 45.5982 132.657 45.3648C132.404 45.1315 132.277 44.7482 132.277 44.2148V40.9848H131.567V40.2348H132.277V38.8548H133.187V40.2348H134.617V40.9848H133.187ZM138.125 44.9848C138.972 44.3048 139.635 43.7482 140.115 43.3148C140.595 42.8748 140.999 42.4182 141.325 41.9448C141.659 41.4648 141.825 40.9948 141.825 40.5348C141.825 40.1015 141.719 39.7615 141.505 39.5148C141.299 39.2615 140.962 39.1348 140.495 39.1348C140.042 39.1348 139.689 39.2782 139.435 39.5648C139.189 39.8448 139.055 40.2215 139.035 40.6948H138.155C138.182 39.9482 138.409 39.3715 138.835 38.9648C139.262 38.5582 139.812 38.3548 140.485 38.3548C141.172 38.3548 141.715 38.5448 142.115 38.9248C142.522 39.3048 142.725 39.8282 142.725 40.4948C142.725 41.0482 142.559 41.5882 142.225 42.1148C141.899 42.6348 141.525 43.0948 141.105 43.4948C140.685 43.8882 140.149 44.3482 139.495 44.8748H142.935V45.6348H138.125V44.9848ZM143.767 44.1048V43.4148L147.277 38.5548H148.367V43.3148H149.367V44.1048H148.367V45.7148H147.467V44.1048H143.767ZM147.507 39.5048L144.817 43.3148H147.507V39.5048Z" fill="black"/>
<path opacity="0.8" d="M259.472 26.9748V28.3188H253.718V26.9748H259.472ZM262.412 30.5448C263.308 29.7702 264.012 29.1355 264.526 28.6408C265.048 28.1368 265.482 27.6142 265.828 27.0728C266.173 26.5315 266.346 25.9902 266.346 25.4488C266.346 24.8888 266.21 24.4502 265.94 24.1328C265.678 23.8155 265.263 23.6568 264.694 23.6568C264.143 23.6568 263.714 23.8342 263.406 24.1888C263.107 24.5342 262.948 25.0008 262.93 25.5888H261.39C261.418 24.5248 261.735 23.7128 262.342 23.1528C262.958 22.5835 263.737 22.2988 264.68 22.2988C265.697 22.2988 266.49 22.5788 267.06 23.1388C267.638 23.6988 267.928 24.4455 267.928 25.3788C267.928 26.0508 267.755 26.6995 267.41 27.3248C267.074 27.9408 266.668 28.4962 266.192 28.9908C265.725 29.4762 265.128 30.0408 264.4 30.6848L263.77 31.2448H268.208V32.5748H261.404V31.4128L262.412 30.5448ZM269.61 27.4788C269.61 25.8642 269.88 24.6042 270.422 23.6988C270.972 22.7842 271.915 22.3268 273.25 22.3268C274.584 22.3268 275.522 22.7842 276.064 23.6988C276.614 24.6042 276.89 25.8642 276.89 27.4788C276.89 29.1122 276.614 30.3908 276.064 31.3148C275.522 32.2295 274.584 32.6868 273.25 32.6868C271.915 32.6868 270.972 32.2295 270.422 31.3148C269.88 30.3908 269.61 29.1122 269.61 27.4788ZM275.322 27.4788C275.322 26.7228 275.27 26.0835 275.168 25.5608C275.074 25.0382 274.878 24.6135 274.58 24.2868C274.281 23.9508 273.838 23.7828 273.25 23.7828C272.662 23.7828 272.218 23.9508 271.92 24.2868C271.621 24.6135 271.42 25.0382 271.318 25.5608C271.224 26.0835 271.178 26.7228 271.178 27.4788C271.178 28.2628 271.224 28.9208 271.318 29.4528C271.411 29.9848 271.607 30.4142 271.906 30.7408C272.214 31.0675 272.662 31.2308 273.25 31.2308C273.838 31.2308 274.281 31.0675 274.58 30.7408C274.888 30.4142 275.088 29.9848 275.182 29.4528C275.275 28.9208 275.322 28.2628 275.322 27.4788ZM278.578 27.4788C278.578 25.8642 278.849 24.6042 279.39 23.6988C279.941 22.7842 280.884 22.3268 282.218 22.3268C283.553 22.3268 284.491 22.7842 285.032 23.6988C285.583 24.6042 285.858 25.8642 285.858 27.4788C285.858 29.1122 285.583 30.3908 285.032 31.3148C284.491 32.2295 283.553 32.6868 282.218 32.6868C280.884 32.6868 279.941 32.2295 279.39 31.3148C278.849 30.3908 278.578 29.1122 278.578 27.4788ZM284.29 27.4788C284.29 26.7228 284.239 26.0835 284.136 25.5608C284.043 25.0382 283.847 24.6135 283.548 24.2868C283.25 23.9508 282.806 23.7828 282.218 23.7828C281.63 23.7828 281.187 23.9508 280.888 24.2868C280.59 24.6135 280.389 25.0382 280.286 25.5608C280.193 26.0835 280.146 26.7228 280.146 27.4788C280.146 28.2628 280.193 28.9208 280.286 29.4528C280.38 29.9848 280.576 30.4142 280.874 30.7408C281.182 31.0675 281.63 31.2308 282.218 31.2308C282.806 31.2308 283.25 31.0675 283.548 30.7408C283.856 30.4142 284.057 29.9848 284.15 29.4528C284.244 28.9208 284.29 28.2628 284.29 27.4788ZM290.809 28.8648L294.365 32.7148H292.209L289.353 29.3968V32.7148H287.757V22.3548H289.353V28.3748L292.153 25.0008H294.365L290.809 28.8648ZM308.179 22.9848L305.295 32.7148H303.489L301.445 25.3508L299.275 32.7148L297.483 32.7288L294.725 22.9848H296.419L298.435 30.9088L300.619 22.9848H302.411L304.441 30.8668L306.471 22.9848H308.179ZM313.486 24.8748C314.074 24.8748 314.596 25.0008 315.054 25.2528C315.52 25.5048 315.884 25.8782 316.146 26.3728C316.416 26.8675 316.552 27.4648 316.552 28.1648V32.7148H314.97V28.4028C314.97 27.7122 314.797 27.1848 314.452 26.8208C314.106 26.4475 313.635 26.2608 313.038 26.2608C312.44 26.2608 311.964 26.4475 311.61 26.8208C311.264 27.1848 311.092 27.7122 311.092 28.4028V32.7148H309.496V22.3548H311.092V25.8968C311.362 25.5702 311.703 25.3182 312.114 25.1408C312.534 24.9635 312.991 24.8748 313.486 24.8748Z" fill="#C53356"/>
<path opacity="0.8" d="M282.07 41.6648V42.4348H278.08V41.6648H282.07ZM283.518 44.9848C284.365 44.3048 285.028 43.7482 285.508 43.3148C285.988 42.8748 286.391 42.4182 286.718 41.9448C287.051 41.4648 287.218 40.9948 287.218 40.5348C287.218 40.1015 287.111 39.7615 286.898 39.5148C286.691 39.2615 286.355 39.1348 285.888 39.1348C285.435 39.1348 285.081 39.2782 284.828 39.5648C284.581 39.8448 284.448 40.2215 284.428 40.6948H283.548C283.575 39.9482 283.801 39.3715 284.228 38.9648C284.655 38.5582 285.205 38.3548 285.878 38.3548C286.565 38.3548 287.108 38.5448 287.508 38.9248C287.915 39.3048 288.118 39.8282 288.118 40.4948C288.118 41.0482 287.951 41.5882 287.618 42.1148C287.291 42.6348 286.918 43.0948 286.498 43.4948C286.078 43.8882 285.541 44.3482 284.888 44.8748H288.328V45.6348H283.518V44.9848ZM289.16 44.1048V43.4148L292.67 38.5548H293.76V43.3148H294.76V44.1048H293.76V45.7148H292.86V44.1048H289.16ZM292.9 39.5048L290.21 43.3148H292.9V39.5048ZM295.669 42.0248C295.669 40.8782 295.856 39.9848 296.229 39.3448C296.602 38.6982 297.256 38.3748 298.189 38.3748C299.116 38.3748 299.766 38.6982 300.139 39.3448C300.512 39.9848 300.699 40.8782 300.699 42.0248C300.699 43.1915 300.512 44.0982 300.139 44.7448C299.766 45.3915 299.116 45.7148 298.189 45.7148C297.256 45.7148 296.602 45.3915 296.229 44.7448C295.856 44.0982 295.669 43.1915 295.669 42.0248ZM299.799 42.0248C299.799 41.4448 299.759 40.9548 299.679 40.5548C299.606 40.1482 299.449 39.8215 299.209 39.5748C298.976 39.3282 298.636 39.2048 298.189 39.2048C297.736 39.2048 297.389 39.3282 297.149 39.5748C296.916 39.8215 296.759 40.1482 296.679 40.5548C296.606 40.9548 296.569 41.4448 296.569 42.0248C296.569 42.6248 296.606 43.1282 296.679 43.5348C296.759 43.9415 296.916 44.2682 297.149 44.5148C297.389 44.7615 297.736 44.8848 298.189 44.8848C298.636 44.8848 298.976 44.7615 299.209 44.5148C299.449 44.2682 299.606 43.9415 299.679 43.5348C299.759 43.1282 299.799 42.6248 299.799 42.0248ZM304.308 45.7848C303.848 45.7848 303.435 45.7048 303.068 45.5448C302.708 45.3782 302.425 45.1515 302.218 44.8648C302.012 44.5715 301.905 44.2348 301.898 43.8548H302.868C302.902 44.1815 303.035 44.4582 303.268 44.6848C303.508 44.9048 303.855 45.0148 304.308 45.0148C304.742 45.0148 305.082 44.9082 305.328 44.6948C305.582 44.4748 305.708 44.1948 305.708 43.8548C305.708 43.5882 305.635 43.3715 305.488 43.2048C305.342 43.0382 305.158 42.9115 304.938 42.8248C304.718 42.7382 304.422 42.6448 304.048 42.5448C303.588 42.4248 303.218 42.3048 302.938 42.1848C302.665 42.0648 302.428 41.8782 302.228 41.6248C302.035 41.3648 301.938 41.0182 301.938 40.5848C301.938 40.2048 302.035 39.8682 302.228 39.5748C302.422 39.2815 302.692 39.0548 303.038 38.8948C303.392 38.7348 303.795 38.6548 304.248 38.6548C304.902 38.6548 305.435 38.8182 305.848 39.1448C306.268 39.4715 306.505 39.9048 306.558 40.4448H305.558C305.525 40.1782 305.385 39.9448 305.138 39.7448C304.892 39.5382 304.565 39.4348 304.158 39.4348C303.778 39.4348 303.468 39.5348 303.228 39.7348C302.988 39.9282 302.868 40.2015 302.868 40.5548C302.868 40.8082 302.938 41.0148 303.078 41.1748C303.225 41.3348 303.402 41.4582 303.608 41.5448C303.822 41.6248 304.118 41.7182 304.498 41.8248C304.958 41.9515 305.328 42.0782 305.608 42.2048C305.888 42.3248 306.128 42.5148 306.328 42.7748C306.528 43.0282 306.628 43.3748 306.628 43.8148C306.628 44.1548 306.538 44.4748 306.358 44.7748C306.178 45.0748 305.912 45.3182 305.558 45.5048C305.205 45.6915 304.788 45.7848 304.308 45.7848ZM308.877 44.9748H311.317V45.7148H307.967V38.7448H308.877V44.9748ZM315.134 42.2348L317.274 45.7148H316.244L314.574 42.9948L312.984 45.7148H311.974L314.104 42.2348L311.964 38.7448H312.984L314.664 41.4748L316.264 38.7448H317.284L315.134 42.2348Z" fill="black"/>
</g>
<defs>
<filter id="filter0_dd_307_36147" x="0.5" y="0.714844" width="351" height="90" filterUnits="userSpaceOnUse" color-interpolation-filters="sRGB">
<feFlood flood-opacity="0" result="BackgroundImageFix"/>
<feColorMatrix in="SourceAlpha" type="matrix" values="0 0 0 0 0 0 0 0 0 0 0 0 0 0 0 0 0 0 127 0" result="hardAlpha"/>
<feMorphology radius="2" operator="erode" in="SourceAlpha" result="effect1_dropShadow_307_36147"/>
<feOffset dy="4"/>
<feGaussianBlur stdDeviation="3"/>
<feColorMatrix type="matrix" values="0 0 0 0 0.0627451 0 0 0 0 0.0941176 0 0 0 0 0.156863 0 0 0 0.03 0"/>
<feBlend mode="normal" in2="BackgroundImageFix" result="effect1_dropShadow_307_36147"/>
<feColorMatrix in="SourceAlpha" type="matrix" values="0 0 0 0 0 0 0 0 0 0 0 0 0 0 0 0 0 0 127 0" result="hardAlpha"/>
<feMorphology radius="4" operator="erode" in="SourceAlpha" result="effect2_dropShadow_307_36147"/>
<feOffset dy="12"/>
<feGaussianBlur stdDeviation="8"/>
<feColorMatrix type="matrix" values="0 0 0 0 0.0627451 0 0 0 0 0.0941176 0 0 0 0 0.156863 0 0 0 0.08 0"/>
<feBlend mode="normal" in2="effect1_dropShadow_307_36147" result="effect2_dropShadow_307_36147"/>
<feBlend mode="normal" in="SourceGraphic" in2="effect2_dropShadow_307_36147" result="shape"/>
</filter>
</defs>
</svg>
