<svg width="352" height="91" viewBox="0 0 352 91" fill="none" xmlns="http://www.w3.org/2000/svg">
<g filter="url(#filter0_dd_307_36158)">
<rect x="12.5" y="0.714844" width="327" height="66" rx="8" fill="white"/>
<rect x="32.4998" y="17.7144" width="31.0004" height="32.0009" rx="4" fill="#2C2C2C"/>
<path d="M51.251 25.7829C51.3489 25.8396 51.4246 25.9278 51.4658 26.0332C51.5071 26.1385 51.5114 26.2548 51.478 26.3629L49.677 32.2149H53C53.0977 32.2148 53.1932 32.2434 53.2748 32.297C53.3564 32.3506 53.4205 32.427 53.4592 32.5167C53.4979 32.6063 53.5096 32.7053 53.4926 32.8015C53.4757 32.8977 53.431 32.9868 53.364 33.0579L45.364 41.5579C45.2866 41.6402 45.1836 41.6938 45.0718 41.7101C44.96 41.7264 44.8459 41.7043 44.7483 41.6475C44.6506 41.5906 44.5751 41.5024 44.534 41.3972C44.4929 41.2919 44.4887 41.1758 44.522 41.0679L46.323 35.2149H43C42.9023 35.2149 42.8068 35.1863 42.7252 35.1327C42.6436 35.0791 42.5795 35.0027 42.5408 34.9131C42.5021 34.8234 42.4904 34.7244 42.5074 34.6282C42.5243 34.532 42.569 34.4429 42.636 34.3719L50.636 25.8719C50.7133 25.7897 50.8162 25.736 50.9278 25.7197C51.0395 25.7033 51.1534 25.7253 51.251 25.7819V25.7829Z" fill="#F3A615"/>
<path opacity="0.8" d="M76.3542 25.8828C76.3542 26.3775 76.2375 26.8442 76.0042 27.2828C75.7709 27.7215 75.3975 28.0808 74.8842 28.3608C74.3709 28.6315 73.7129 28.7668 72.9102 28.7668H71.1462V32.7148H69.5502V22.9848H72.9102C73.6569 22.9848 74.2869 23.1155 74.8002 23.3768C75.3229 23.6288 75.7102 23.9742 75.9622 24.4128C76.2235 24.8515 76.3542 25.3415 76.3542 25.8828ZM72.9102 27.4648C73.5169 27.4648 73.9695 27.3295 74.2682 27.0588C74.5669 26.7788 74.7162 26.3868 74.7162 25.8828C74.7162 24.8188 74.1142 24.2868 72.9102 24.2868H71.1462V27.4648H72.9102ZM81.2224 32.8408C80.4944 32.8408 79.8364 32.6775 79.2484 32.3508C78.6604 32.0148 78.1984 31.5482 77.8624 30.9508C77.5264 30.3442 77.3584 29.6442 77.3584 28.8508C77.3584 28.0668 77.531 27.3715 77.8764 26.7648C78.2217 26.1582 78.693 25.6915 79.2904 25.3648C79.8877 25.0382 80.555 24.8748 81.2924 24.8748C82.0297 24.8748 82.697 25.0382 83.2944 25.3648C83.8917 25.6915 84.363 26.1582 84.7084 26.7648C85.0537 27.3715 85.2264 28.0668 85.2264 28.8508C85.2264 29.6348 85.049 30.3302 84.6944 30.9368C84.3397 31.5435 83.8544 32.0148 83.2384 32.3508C82.6317 32.6775 81.9597 32.8408 81.2224 32.8408ZM81.2224 31.4548C81.633 31.4548 82.0157 31.3568 82.3704 31.1608C82.7344 30.9648 83.0284 30.6708 83.2524 30.2788C83.4764 29.8868 83.5884 29.4108 83.5884 28.8508C83.5884 28.2908 83.481 27.8195 83.2664 27.4368C83.0517 27.0448 82.767 26.7508 82.4124 26.5548C82.0577 26.3588 81.675 26.2608 81.2644 26.2608C80.8537 26.2608 80.471 26.3588 80.1164 26.5548C79.771 26.7508 79.4957 27.0448 79.2904 27.4368C79.085 27.8195 78.9824 28.2908 78.9824 28.8508C78.9824 29.6815 79.1924 30.3255 79.6124 30.7828C80.0417 31.2308 80.5784 31.4548 81.2224 31.4548ZM97.1641 25.0008L94.7701 32.7148H93.0901L91.5361 27.0168L89.9821 32.7148H88.3021L85.8941 25.0008H87.5181L89.1281 31.2028L90.7661 25.0008H92.4321L94.0001 31.1748L95.5961 25.0008H97.1641ZM105.427 28.6688C105.427 28.9582 105.408 29.2195 105.371 29.4528H99.4768C99.5235 30.0688 99.7522 30.5635 100.163 30.9368C100.574 31.3102 101.078 31.4968 101.675 31.4968C102.534 31.4968 103.14 31.1375 103.495 30.4188H105.217C104.984 31.1282 104.559 31.7115 103.943 32.1688C103.336 32.6168 102.58 32.8408 101.675 32.8408C100.938 32.8408 100.275 32.6775 99.6868 32.3508C99.1082 32.0148 98.6508 31.5482 98.3148 30.9508C97.9882 30.3442 97.8248 29.6442 97.8248 28.8508C97.8248 28.0575 97.9835 27.3622 98.3008 26.7648C98.6275 26.1582 99.0802 25.6915 99.6588 25.3648C100.247 25.0382 100.919 24.8748 101.675 24.8748C102.403 24.8748 103.052 25.0335 103.621 25.3508C104.19 25.6682 104.634 26.1162 104.951 26.6948C105.268 27.2642 105.427 27.9222 105.427 28.6688ZM103.761 28.1648C103.752 27.5768 103.542 27.1055 103.131 26.7508C102.72 26.3962 102.212 26.2188 101.605 26.2188C101.054 26.2188 100.583 26.3962 100.191 26.7508C99.7988 27.0962 99.5655 27.5675 99.4908 28.1648H103.761ZM108.593 26.1208C108.827 25.7288 109.135 25.4255 109.517 25.2108C109.909 24.9868 110.371 24.8748 110.903 24.8748V26.5268H110.497C109.872 26.5268 109.396 26.6855 109.069 27.0028C108.752 27.3202 108.593 27.8708 108.593 28.6548V32.7148H106.997V25.0008H108.593V26.1208ZM117.589 22.9848V29.1868C117.589 29.9242 117.781 30.4795 118.163 30.8528C118.555 31.2262 119.097 31.4128 119.787 31.4128C120.487 31.4128 121.029 31.2262 121.411 30.8528C121.803 30.4795 121.999 29.9242 121.999 29.1868V22.9848H123.595V29.1588C123.595 29.9522 123.423 30.6242 123.077 31.1748C122.732 31.7255 122.27 32.1362 121.691 32.4068C121.113 32.6775 120.473 32.8128 119.773 32.8128C119.073 32.8128 118.434 32.6775 117.855 32.4068C117.286 32.1362 116.833 31.7255 116.497 31.1748C116.161 30.6242 115.993 29.9522 115.993 29.1588V22.9848H117.589ZM128.473 32.8408C127.867 32.8408 127.321 32.7335 126.835 32.5188C126.359 32.2948 125.981 31.9962 125.701 31.6228C125.421 31.2402 125.272 30.8155 125.253 30.3488H126.905C126.933 30.6755 127.087 30.9508 127.367 31.1748C127.657 31.3895 128.016 31.4968 128.445 31.4968C128.893 31.4968 129.239 31.4128 129.481 31.2448C129.733 31.0675 129.859 30.8435 129.859 30.5728C129.859 30.2835 129.719 30.0688 129.439 29.9288C129.169 29.7888 128.735 29.6348 128.137 29.4668C127.559 29.3082 127.087 29.1542 126.723 29.0048C126.359 28.8555 126.042 28.6268 125.771 28.3188C125.51 28.0108 125.379 27.6048 125.379 27.1008C125.379 26.6902 125.501 26.3168 125.743 25.9808C125.986 25.6355 126.331 25.3648 126.779 25.1688C127.237 24.9728 127.759 24.8748 128.347 24.8748C129.225 24.8748 129.929 25.0988 130.461 25.5468C131.003 25.9855 131.292 26.5875 131.329 27.3528H129.733C129.705 27.0075 129.565 26.7322 129.313 26.5268C129.061 26.3215 128.721 26.2188 128.291 26.2188C127.871 26.2188 127.549 26.2982 127.325 26.4568C127.101 26.6155 126.989 26.8255 126.989 27.0868C126.989 27.2922 127.064 27.4648 127.213 27.6048C127.363 27.7448 127.545 27.8568 127.759 27.9408C127.974 28.0155 128.291 28.1135 128.711 28.2348C129.271 28.3842 129.729 28.5382 130.083 28.6968C130.447 28.8462 130.76 29.0702 131.021 29.3688C131.283 29.6675 131.418 30.0642 131.427 30.5588C131.427 30.9975 131.306 31.3895 131.063 31.7348C130.821 32.0802 130.475 32.3508 130.027 32.5468C129.589 32.7428 129.071 32.8408 128.473 32.8408ZM132.62 28.8228C132.62 28.0482 132.778 27.3622 133.096 26.7648C133.422 26.1675 133.861 25.7055 134.412 25.3788C134.972 25.0428 135.588 24.8748 136.26 24.8748C136.866 24.8748 137.394 24.9962 137.842 25.2388C138.299 25.4722 138.663 25.7662 138.934 26.1208V25.0008H140.544V32.7148H138.934V31.5668C138.663 31.9308 138.294 32.2342 137.828 32.4768C137.361 32.7195 136.829 32.8408 136.232 32.8408C135.569 32.8408 134.962 32.6728 134.412 32.3368C133.861 31.9915 133.422 31.5155 133.096 30.9088C132.778 30.2928 132.62 29.5975 132.62 28.8228ZM138.934 28.8508C138.934 28.3188 138.822 27.8568 138.598 27.4648C138.383 27.0728 138.098 26.7742 137.744 26.5688C137.389 26.3635 137.006 26.2608 136.596 26.2608C136.185 26.2608 135.802 26.3635 135.448 26.5688C135.093 26.7648 134.804 27.0588 134.58 27.4508C134.365 27.8335 134.258 28.2908 134.258 28.8228C134.258 29.3548 134.365 29.8215 134.58 30.2228C134.804 30.6242 135.093 30.9322 135.448 31.1468C135.812 31.3522 136.194 31.4548 136.596 31.4548C137.006 31.4548 137.389 31.3522 137.744 31.1468C138.098 30.9415 138.383 30.6428 138.598 30.2508C138.822 29.8495 138.934 29.3828 138.934 28.8508ZM145.748 24.8748C146.345 24.8748 146.873 24.9962 147.33 25.2388C147.797 25.4722 148.161 25.7662 148.422 26.1208V25.0008H150.032V32.8408C150.032 33.5502 149.883 34.1802 149.584 34.7308C149.285 35.2908 148.851 35.7295 148.282 36.0468C147.722 36.3642 147.05 36.5228 146.266 36.5228C145.221 36.5228 144.353 36.2755 143.662 35.7808C142.971 35.2955 142.579 34.6328 142.486 33.7928H144.068C144.189 34.1942 144.446 34.5162 144.838 34.7588C145.239 35.0108 145.715 35.1368 146.266 35.1368C146.91 35.1368 147.428 34.9408 147.82 34.5488C148.221 34.1568 148.422 33.5875 148.422 32.8408V31.5528C148.151 31.9168 147.783 32.2248 147.316 32.4768C146.859 32.7195 146.336 32.8408 145.748 32.8408C145.076 32.8408 144.46 32.6728 143.9 32.3368C143.349 31.9915 142.911 31.5155 142.584 30.9088C142.267 30.2928 142.108 29.5975 142.108 28.8228C142.108 28.0482 142.267 27.3622 142.584 26.7648C142.911 26.1675 143.349 25.7055 143.9 25.3788C144.46 25.0428 145.076 24.8748 145.748 24.8748ZM148.422 28.8508C148.422 28.3188 148.31 27.8568 148.086 27.4648C147.871 27.0728 147.587 26.7742 147.232 26.5688C146.877 26.3635 146.495 26.2608 146.084 26.2608C145.673 26.2608 145.291 26.3635 144.936 26.5688C144.581 26.7648 144.292 27.0588 144.068 27.4508C143.853 27.8335 143.746 28.2908 143.746 28.8228C143.746 29.3548 143.853 29.8215 144.068 30.2228C144.292 30.6242 144.581 30.9322 144.936 31.1468C145.3 31.3522 145.683 31.4548 146.084 31.4548C146.495 31.4548 146.877 31.3522 147.232 31.1468C147.587 30.9415 147.871 30.6428 148.086 30.2508C148.31 29.8495 148.422 29.3828 148.422 28.8508ZM159.198 28.6688C159.198 28.9582 159.18 29.2195 159.142 29.4528H153.248C153.295 30.0688 153.524 30.5635 153.934 30.9368C154.345 31.3102 154.849 31.4968 155.446 31.4968C156.305 31.4968 156.912 31.1375 157.266 30.4188H158.988C158.755 31.1282 158.33 31.7115 157.714 32.1688C157.108 32.6168 156.352 32.8408 155.446 32.8408C154.709 32.8408 154.046 32.6775 153.458 32.3508C152.88 32.0148 152.422 31.5482 152.086 30.9508C151.76 30.3442 151.596 29.6442 151.596 28.8508C151.596 28.0575 151.755 27.3622 152.072 26.7648C152.399 26.1582 152.852 25.6915 153.43 25.3648C154.018 25.0382 154.69 24.8748 155.446 24.8748C156.174 24.8748 156.823 25.0335 157.392 25.3508C157.962 25.6682 158.405 26.1162 158.722 26.6948C159.04 27.2642 159.198 27.9222 159.198 28.6688ZM157.532 28.1648C157.523 27.5768 157.313 27.1055 156.902 26.7508C156.492 26.3962 155.983 26.2188 155.376 26.2188C154.826 26.2188 154.354 26.3962 153.962 26.7508C153.57 27.0962 153.337 27.5675 153.262 28.1648H157.532Z" fill="black"/>
<path opacity="0.8" d="M71.4802 45.7848C71.0202 45.7848 70.6069 45.7048 70.2402 45.5448C69.8802 45.3782 69.5969 45.1515 69.3902 44.8648C69.1835 44.5715 69.0769 44.2348 69.0702 43.8548H70.0402C70.0735 44.1815 70.2069 44.4582 70.4402 44.6848C70.6802 44.9048 71.0269 45.0148 71.4802 45.0148C71.9135 45.0148 72.2535 44.9082 72.5002 44.6948C72.7535 44.4748 72.8802 44.1948 72.8802 43.8548C72.8802 43.5882 72.8069 43.3715 72.6602 43.2048C72.5135 43.0382 72.3302 42.9115 72.1102 42.8248C71.8902 42.7382 71.5935 42.6448 71.2202 42.5448C70.7602 42.4248 70.3902 42.3048 70.1102 42.1848C69.8369 42.0648 69.6002 41.8782 69.4002 41.6248C69.2069 41.3648 69.1102 41.0182 69.1102 40.5848C69.1102 40.2048 69.2069 39.8682 69.4002 39.5748C69.5935 39.2815 69.8635 39.0548 70.2102 38.8948C70.5635 38.7348 70.9669 38.6548 71.4202 38.6548C72.0735 38.6548 72.6069 38.8182 73.0202 39.1448C73.4402 39.4715 73.6769 39.9048 73.7302 40.4448H72.7302C72.6969 40.1782 72.5569 39.9448 72.3102 39.7448C72.0635 39.5382 71.7369 39.4348 71.3302 39.4348C70.9502 39.4348 70.6402 39.5348 70.4002 39.7348C70.1602 39.9282 70.0402 40.2015 70.0402 40.5548C70.0402 40.8082 70.1102 41.0148 70.2502 41.1748C70.3969 41.3348 70.5735 41.4582 70.7802 41.5448C70.9935 41.6248 71.2902 41.7182 71.6702 41.8248C72.1302 41.9515 72.5002 42.0782 72.7802 42.2048C73.0602 42.3248 73.3002 42.5148 73.5002 42.7748C73.7002 43.0282 73.8002 43.3748 73.8002 43.8148C73.8002 44.1548 73.7102 44.4748 73.5302 44.7748C73.3502 45.0748 73.0835 45.3182 72.7302 45.5048C72.3769 45.6915 71.9602 45.7848 71.4802 45.7848ZM79.9993 40.2348V45.7148H79.0893V44.9048C78.916 45.1848 78.6727 45.4048 78.3593 45.5648C78.0527 45.7182 77.7127 45.7948 77.3393 45.7948C76.9127 45.7948 76.5293 45.7082 76.1893 45.5348C75.8493 45.3548 75.5793 45.0882 75.3793 44.7348C75.186 44.3815 75.0893 43.9515 75.0893 43.4448V40.2348H75.9893V43.3248C75.9893 43.8648 76.126 44.2815 76.3993 44.5748C76.6727 44.8615 77.046 45.0048 77.5193 45.0048C78.006 45.0048 78.3893 44.8548 78.6693 44.5548C78.9493 44.2548 79.0893 43.8182 79.0893 43.2448V40.2348H79.9993ZM84.2058 40.1348C84.8725 40.1348 85.4125 40.3382 85.8258 40.7448C86.2392 41.1448 86.4458 41.7248 86.4458 42.4848V45.7148H85.5458V42.6148C85.5458 42.0682 85.4092 41.6515 85.1358 41.3648C84.8625 41.0715 84.4892 40.9248 84.0158 40.9248C83.5358 40.9248 83.1525 41.0748 82.8658 41.3748C82.5858 41.6748 82.4458 42.1115 82.4458 42.6848V45.7148H81.5358V40.2348H82.4458V41.0148C82.6258 40.7348 82.8692 40.5182 83.1758 40.3648C83.4892 40.2115 83.8325 40.1348 84.2058 40.1348ZM87.5923 42.9548C87.5923 42.3948 87.7056 41.9048 87.9323 41.4848C88.159 41.0582 88.469 40.7282 88.8623 40.4948C89.2623 40.2615 89.709 40.1448 90.2023 40.1448C90.629 40.1448 91.0256 40.2448 91.3923 40.4448C91.759 40.6382 92.039 40.8948 92.2323 41.2148V38.3148H93.1523V45.7148H92.2323V44.6848C92.0523 45.0115 91.7856 45.2815 91.4323 45.4948C91.079 45.7015 90.6656 45.8048 90.1923 45.8048C89.7056 45.8048 89.2623 45.6848 88.8623 45.4448C88.469 45.2048 88.159 44.8682 87.9323 44.4348C87.7056 44.0015 87.5923 43.5082 87.5923 42.9548ZM92.2323 42.9648C92.2323 42.5515 92.149 42.1915 91.9823 41.8848C91.8156 41.5782 91.589 41.3448 91.3023 41.1848C91.0223 41.0182 90.7123 40.9348 90.3723 40.9348C90.0323 40.9348 89.7223 41.0148 89.4423 41.1748C89.1623 41.3348 88.939 41.5682 88.7723 41.8748C88.6056 42.1815 88.5223 42.5415 88.5223 42.9548C88.5223 43.3748 88.6056 43.7415 88.7723 44.0548C88.939 44.3615 89.1623 44.5982 89.4423 44.7648C89.7223 44.9248 90.0323 45.0048 90.3723 45.0048C90.7123 45.0048 91.0223 44.9248 91.3023 44.7648C91.589 44.5982 91.8156 44.3615 91.9823 44.0548C92.149 43.7415 92.2323 43.3782 92.2323 42.9648ZM94.3501 42.9548C94.3501 42.3948 94.4635 41.9048 94.6901 41.4848C94.9168 41.0582 95.2268 40.7282 95.6201 40.4948C96.0201 40.2615 96.4635 40.1448 96.9501 40.1448C97.4301 40.1448 97.8468 40.2482 98.2001 40.4548C98.5535 40.6615 98.8168 40.9215 98.9901 41.2348V40.2348H99.9101V45.7148H98.9901V44.6948C98.8101 45.0148 98.5401 45.2815 98.1801 45.4948C97.8268 45.7015 97.4135 45.8048 96.9401 45.8048C96.4535 45.8048 96.0135 45.6848 95.6201 45.4448C95.2268 45.2048 94.9168 44.8682 94.6901 44.4348C94.4635 44.0015 94.3501 43.5082 94.3501 42.9548ZM98.9901 42.9648C98.9901 42.5515 98.9068 42.1915 98.7401 41.8848C98.5735 41.5782 98.3468 41.3448 98.0601 41.1848C97.7801 41.0182 97.4701 40.9348 97.1301 40.9348C96.7901 40.9348 96.4801 41.0148 96.2001 41.1748C95.9201 41.3348 95.6968 41.5682 95.5301 41.8748C95.3635 42.1815 95.2801 42.5415 95.2801 42.9548C95.2801 43.3748 95.3635 43.7415 95.5301 44.0548C95.6968 44.3615 95.9201 44.5982 96.2001 44.7648C96.4801 44.9248 96.7901 45.0048 97.1301 45.0048C97.4701 45.0048 97.7801 44.9248 98.0601 44.7648C98.3468 44.5982 98.5735 44.3615 98.7401 44.0548C98.9068 43.7415 98.9901 43.3782 98.9901 42.9648ZM106.168 40.2348L102.868 48.2948H101.928L103.008 45.6548L100.798 40.2348H101.808L103.528 44.6748L105.228 40.2348H106.168ZM108.023 44.4548L106.903 47.1448H106.293L107.023 44.4548H108.023ZM117.557 45.7848C116.91 45.7848 116.32 45.6348 115.787 45.3348C115.254 45.0282 114.83 44.6048 114.517 44.0648C114.21 43.5182 114.057 42.9048 114.057 42.2248C114.057 41.5448 114.21 40.9348 114.517 40.3948C114.83 39.8482 115.254 39.4248 115.787 39.1248C116.32 38.8182 116.91 38.6648 117.557 38.6648C118.21 38.6648 118.804 38.8182 119.337 39.1248C119.87 39.4248 120.29 39.8448 120.597 40.3848C120.904 40.9248 121.057 41.5382 121.057 42.2248C121.057 42.9115 120.904 43.5248 120.597 44.0648C120.29 44.6048 119.87 45.0282 119.337 45.3348C118.804 45.6348 118.21 45.7848 117.557 45.7848ZM117.557 44.9948C118.044 44.9948 118.48 44.8815 118.867 44.6548C119.26 44.4282 119.567 44.1048 119.787 43.6848C120.014 43.2648 120.127 42.7782 120.127 42.2248C120.127 41.6648 120.014 41.1782 119.787 40.7648C119.567 40.3448 119.264 40.0215 118.877 39.7948C118.49 39.5682 118.05 39.4548 117.557 39.4548C117.064 39.4548 116.624 39.5682 116.237 39.7948C115.85 40.0215 115.544 40.3448 115.317 40.7648C115.097 41.1782 114.987 41.6648 114.987 42.2248C114.987 42.7782 115.097 43.2648 115.317 43.6848C115.544 44.1048 115.85 44.4282 116.237 44.6548C116.63 44.8815 117.07 44.9948 117.557 44.9948ZM121.918 42.9648C121.918 42.3982 122.032 41.9048 122.258 41.4848C122.485 41.0582 122.798 40.7282 123.198 40.4948C123.605 40.2615 124.068 40.1448 124.588 40.1448C125.262 40.1448 125.815 40.3082 126.248 40.6348C126.688 40.9615 126.978 41.4148 127.118 41.9948H126.138C126.045 41.6615 125.862 41.3982 125.588 41.2048C125.322 41.0115 124.988 40.9148 124.588 40.9148C124.068 40.9148 123.648 41.0948 123.328 41.4548C123.008 41.8082 122.848 42.3115 122.848 42.9648C122.848 43.6248 123.008 44.1348 123.328 44.4948C123.648 44.8548 124.068 45.0348 124.588 45.0348C124.988 45.0348 125.322 44.9415 125.588 44.7548C125.855 44.5682 126.038 44.3015 126.138 43.9548H127.118C126.972 44.5148 126.678 44.9648 126.238 45.3048C125.798 45.6382 125.248 45.8048 124.588 45.8048C124.068 45.8048 123.605 45.6882 123.198 45.4548C122.798 45.2215 122.485 44.8915 122.258 44.4648C122.032 44.0382 121.918 43.5382 121.918 42.9648ZM129.443 40.9848V44.2148C129.443 44.4815 129.499 44.6715 129.613 44.7848C129.726 44.8915 129.923 44.9448 130.203 44.9448H130.873V45.7148H130.053C129.546 45.7148 129.166 45.5982 128.913 45.3648C128.659 45.1315 128.533 44.7482 128.533 44.2148V40.9848H127.823V40.2348H128.533V38.8548H129.443V40.2348H130.873V40.9848H129.443ZM134.381 44.9848C135.228 44.3048 135.891 43.7482 136.371 43.3148C136.851 42.8748 137.255 42.4182 137.581 41.9448C137.915 41.4648 138.081 40.9948 138.081 40.5348C138.081 40.1015 137.975 39.7615 137.761 39.5148C137.555 39.2615 137.218 39.1348 136.751 39.1348C136.298 39.1348 135.945 39.2782 135.691 39.5648C135.445 39.8448 135.311 40.2215 135.291 40.6948H134.411C134.438 39.9482 134.665 39.3715 135.091 38.9648C135.518 38.5582 136.068 38.3548 136.741 38.3548C137.428 38.3548 137.971 38.5448 138.371 38.9248C138.778 39.3048 138.981 39.8282 138.981 40.4948C138.981 41.0482 138.815 41.5882 138.481 42.1148C138.155 42.6348 137.781 43.0948 137.361 43.4948C136.941 43.8882 136.405 44.3482 135.751 44.8748H139.191V45.6348H134.381V44.9848ZM140.223 40.3048C140.27 39.6915 140.507 39.2115 140.933 38.8648C141.36 38.5182 141.913 38.3448 142.593 38.3448C143.047 38.3448 143.437 38.4282 143.763 38.5948C144.097 38.7548 144.347 38.9748 144.513 39.2548C144.687 39.5348 144.773 39.8515 144.773 40.2048C144.773 40.6182 144.653 40.9748 144.413 41.2748C144.18 41.5748 143.873 41.7682 143.493 41.8548V41.9048C143.927 42.0115 144.27 42.2215 144.523 42.5348C144.777 42.8482 144.903 43.2582 144.903 43.7648C144.903 44.1448 144.817 44.4882 144.643 44.7948C144.47 45.0948 144.21 45.3315 143.863 45.5048C143.517 45.6782 143.1 45.7648 142.613 45.7648C141.907 45.7648 141.327 45.5815 140.873 45.2148C140.42 44.8415 140.167 44.3148 140.113 43.6348H140.993C141.04 44.0348 141.203 44.3615 141.483 44.6148C141.763 44.8682 142.137 44.9948 142.603 44.9948C143.07 44.9948 143.423 44.8748 143.663 44.6348C143.91 44.3882 144.033 44.0715 144.033 43.6848C144.033 43.1848 143.867 42.8248 143.533 42.6048C143.2 42.3848 142.697 42.2748 142.023 42.2748H141.793V41.5148H142.033C142.647 41.5082 143.11 41.4082 143.423 41.2148C143.737 41.0148 143.893 40.7082 143.893 40.2948C143.893 39.9415 143.777 39.6582 143.543 39.4448C143.317 39.2315 142.99 39.1248 142.563 39.1248C142.15 39.1248 141.817 39.2315 141.563 39.4448C141.31 39.6582 141.16 39.9448 141.113 40.3048H140.223Z" fill="black"/>
<path opacity="0.8" d="M260.068 28.3328H257.24V31.2308H255.756V28.3328H252.928V26.9888H255.756V24.0908H257.24V26.9888H260.068V28.3328ZM268.914 23.8808H264.224V26.6668C264.42 26.4055 264.71 26.1862 265.092 26.0088C265.484 25.8315 265.9 25.7428 266.338 25.7428C267.122 25.7428 267.757 25.9108 268.242 26.2468C268.737 26.5828 269.087 27.0075 269.292 27.5208C269.507 28.0342 269.614 28.5755 269.614 29.1448C269.614 29.8355 269.479 30.4515 269.208 30.9928C268.947 31.5248 268.55 31.9448 268.018 32.2528C267.496 32.5608 266.852 32.7148 266.086 32.7148C265.069 32.7148 264.252 32.4628 263.636 31.9588C263.02 31.4548 262.652 30.7875 262.53 29.9568H264.084C264.187 30.3955 264.416 30.7455 264.77 31.0068C265.125 31.2588 265.568 31.3848 266.1 31.3848C266.763 31.3848 267.258 31.1842 267.584 30.7828C267.92 30.3815 268.088 29.8495 268.088 29.1868C268.088 28.5148 267.92 28.0015 267.584 27.6468C267.248 27.2828 266.754 27.1008 266.1 27.1008C265.643 27.1008 265.256 27.2175 264.938 27.4508C264.63 27.6748 264.406 27.9828 264.266 28.3748H262.754V22.4808H268.914V23.8808ZM271.276 27.4788C271.276 25.8642 271.546 24.6042 272.088 23.6988C272.638 22.7842 273.581 22.3268 274.916 22.3268C276.25 22.3268 277.188 22.7842 277.73 23.6988C278.28 24.6042 278.556 25.8642 278.556 27.4788C278.556 29.1122 278.28 30.3908 277.73 31.3148C277.188 32.2295 276.25 32.6868 274.916 32.6868C273.581 32.6868 272.638 32.2295 272.088 31.3148C271.546 30.3908 271.276 29.1122 271.276 27.4788ZM276.988 27.4788C276.988 26.7228 276.936 26.0835 276.834 25.5608C276.74 25.0382 276.544 24.6135 276.246 24.2868C275.947 23.9508 275.504 23.7828 274.916 23.7828C274.328 23.7828 273.884 23.9508 273.586 24.2868C273.287 24.6135 273.086 25.0382 272.984 25.5608C272.89 26.0835 272.844 26.7228 272.844 27.4788C272.844 28.2628 272.89 28.9208 272.984 29.4528C273.077 29.9848 273.273 30.4142 273.572 30.7408C273.88 31.0675 274.328 31.2308 274.916 31.2308C275.504 31.2308 275.947 31.0675 276.246 30.7408C276.554 30.4142 276.754 29.9848 276.848 29.4528C276.941 28.9208 276.988 28.2628 276.988 27.4788ZM280.244 27.4788C280.244 25.8642 280.515 24.6042 281.056 23.6988C281.607 22.7842 282.55 22.3268 283.884 22.3268C285.219 22.3268 286.157 22.7842 286.698 23.6988C287.249 24.6042 287.524 25.8642 287.524 27.4788C287.524 29.1122 287.249 30.3908 286.698 31.3148C286.157 32.2295 285.219 32.6868 283.884 32.6868C282.55 32.6868 281.607 32.2295 281.056 31.3148C280.515 30.3908 280.244 29.1122 280.244 27.4788ZM285.956 27.4788C285.956 26.7228 285.905 26.0835 285.802 25.5608C285.709 25.0382 285.513 24.6135 285.214 24.2868C284.916 23.9508 284.472 23.7828 283.884 23.7828C283.296 23.7828 282.853 23.9508 282.554 24.2868C282.256 24.6135 282.055 25.0382 281.952 25.5608C281.859 26.0835 281.812 26.7228 281.812 27.4788C281.812 28.2628 281.859 28.9208 281.952 29.4528C282.046 29.9848 282.242 30.4142 282.54 30.7408C282.848 31.0675 283.296 31.2308 283.884 31.2308C284.472 31.2308 284.916 31.0675 285.214 30.7408C285.522 30.4142 285.723 29.9848 285.816 29.4528C285.91 28.9208 285.956 28.2628 285.956 27.4788ZM292.475 28.8648L296.031 32.7148H293.875L291.019 29.3968V32.7148H289.423V22.3548H291.019V28.3748L293.819 25.0008H296.031L292.475 28.8648ZM309.845 22.9848L306.961 32.7148H305.155L303.111 25.3508L300.941 32.7148L299.149 32.7288L296.391 22.9848H298.085L300.101 30.9088L302.285 22.9848H304.077L306.107 30.8668L308.137 22.9848H309.845ZM315.152 24.8748C315.74 24.8748 316.262 25.0008 316.72 25.2528C317.186 25.5048 317.55 25.8782 317.812 26.3728C318.082 26.8675 318.218 27.4648 318.218 28.1648V32.7148H316.636V28.4028C316.636 27.7122 316.463 27.1848 316.118 26.8208C315.772 26.4475 315.301 26.2608 314.704 26.2608C314.106 26.2608 313.63 26.4475 313.276 26.8208C312.93 27.1848 312.758 27.7122 312.758 28.4028V32.7148H311.162V22.3548H312.758V25.8968C313.028 25.5702 313.369 25.3182 313.78 25.1408C314.2 24.9635 314.657 24.8748 315.152 24.8748Z" fill="#7FBB51"/>
<path opacity="0.8" d="M283.07 41.6648V42.4348H279.08V41.6648H283.07ZM284.408 44.1048V43.4148L287.918 38.5548H289.008V43.3148H290.008V44.1048H289.008V45.7148H288.108V44.1048H284.408ZM288.148 39.5048L285.458 43.3148H288.148V39.5048ZM292.237 41.9548C291.864 41.8082 291.577 41.5948 291.377 41.3148C291.177 41.0348 291.077 40.6948 291.077 40.2948C291.077 39.9348 291.167 39.6115 291.347 39.3248C291.527 39.0315 291.794 38.8015 292.147 38.6348C292.507 38.4615 292.94 38.3748 293.447 38.3748C293.954 38.3748 294.384 38.4615 294.737 38.6348C295.097 38.8015 295.367 39.0315 295.547 39.3248C295.734 39.6115 295.827 39.9348 295.827 40.2948C295.827 40.6815 295.724 41.0215 295.517 41.3148C295.31 41.6015 295.027 41.8148 294.667 41.9548C295.08 42.0815 295.407 42.3048 295.647 42.6248C295.894 42.9382 296.017 43.3182 296.017 43.7648C296.017 44.1982 295.91 44.5782 295.697 44.9048C295.484 45.2248 295.18 45.4748 294.787 45.6548C294.4 45.8282 293.954 45.9148 293.447 45.9148C292.94 45.9148 292.494 45.8282 292.107 45.6548C291.727 45.4748 291.43 45.2248 291.217 44.9048C291.004 44.5782 290.897 44.1982 290.897 43.7648C290.897 43.3182 291.017 42.9348 291.257 42.6148C291.497 42.2948 291.824 42.0748 292.237 41.9548ZM294.947 40.4048C294.947 39.9982 294.814 39.6848 294.547 39.4648C294.28 39.2448 293.914 39.1348 293.447 39.1348C292.987 39.1348 292.624 39.2448 292.357 39.4648C292.09 39.6848 291.957 40.0015 291.957 40.4148C291.957 40.7882 292.094 41.0882 292.367 41.3148C292.647 41.5415 293.007 41.6548 293.447 41.6548C293.894 41.6548 294.254 41.5415 294.527 41.3148C294.807 41.0815 294.947 40.7782 294.947 40.4048ZM293.447 42.3548C292.954 42.3548 292.55 42.4715 292.237 42.7048C291.924 42.9315 291.767 43.2748 291.767 43.7348C291.767 44.1615 291.917 44.5048 292.217 44.7648C292.524 45.0248 292.934 45.1548 293.447 45.1548C293.96 45.1548 294.367 45.0248 294.667 44.7648C294.967 44.5048 295.117 44.1615 295.117 43.7348C295.117 43.2882 294.964 42.9482 294.657 42.7148C294.35 42.4748 293.947 42.3548 293.447 42.3548ZM297.226 42.0248C297.226 40.8782 297.412 39.9848 297.786 39.3448C298.159 38.6982 298.812 38.3748 299.746 38.3748C300.672 38.3748 301.322 38.6982 301.696 39.3448C302.069 39.9848 302.256 40.8782 302.256 42.0248C302.256 43.1915 302.069 44.0982 301.696 44.7448C301.322 45.3915 300.672 45.7148 299.746 45.7148C298.812 45.7148 298.159 45.3915 297.786 44.7448C297.412 44.0982 297.226 43.1915 297.226 42.0248ZM301.356 42.0248C301.356 41.4448 301.316 40.9548 301.236 40.5548C301.162 40.1482 301.006 39.8215 300.766 39.5748C300.532 39.3282 300.192 39.2048 299.746 39.2048C299.292 39.2048 298.946 39.3282 298.706 39.5748C298.472 39.8215 298.316 40.1482 298.236 40.5548C298.162 40.9548 298.126 41.4448 298.126 42.0248C298.126 42.6248 298.162 43.1282 298.236 43.5348C298.316 43.9415 298.472 44.2682 298.706 44.5148C298.946 44.7615 299.292 44.8848 299.746 44.8848C300.192 44.8848 300.532 44.7615 300.766 44.5148C301.006 44.2682 301.162 43.9415 301.236 43.5348C301.316 43.1282 301.356 42.6248 301.356 42.0248ZM305.865 45.7848C305.405 45.7848 304.992 45.7048 304.625 45.5448C304.265 45.3782 303.982 45.1515 303.775 44.8648C303.568 44.5715 303.462 44.2348 303.455 43.8548H304.425C304.458 44.1815 304.592 44.4582 304.825 44.6848C305.065 44.9048 305.412 45.0148 305.865 45.0148C306.298 45.0148 306.638 44.9082 306.885 44.6948C307.138 44.4748 307.265 44.1948 307.265 43.8548C307.265 43.5882 307.192 43.3715 307.045 43.2048C306.898 43.0382 306.715 42.9115 306.495 42.8248C306.275 42.7382 305.978 42.6448 305.605 42.5448C305.145 42.4248 304.775 42.3048 304.495 42.1848C304.222 42.0648 303.985 41.8782 303.785 41.6248C303.592 41.3648 303.495 41.0182 303.495 40.5848C303.495 40.2048 303.592 39.8682 303.785 39.5748C303.978 39.2815 304.248 39.0548 304.595 38.8948C304.948 38.7348 305.352 38.6548 305.805 38.6548C306.458 38.6548 306.992 38.8182 307.405 39.1448C307.825 39.4715 308.062 39.9048 308.115 40.4448H307.115C307.082 40.1782 306.942 39.9448 306.695 39.7448C306.448 39.5382 306.122 39.4348 305.715 39.4348C305.335 39.4348 305.025 39.5348 304.785 39.7348C304.545 39.9282 304.425 40.2015 304.425 40.5548C304.425 40.8082 304.495 41.0148 304.635 41.1748C304.782 41.3348 304.958 41.4582 305.165 41.5448C305.378 41.6248 305.675 41.7182 306.055 41.8248C306.515 41.9515 306.885 42.0782 307.165 42.2048C307.445 42.3248 307.685 42.5148 307.885 42.7748C308.085 43.0282 308.185 43.3748 308.185 43.8148C308.185 44.1548 308.095 44.4748 307.915 44.7748C307.735 45.0748 307.468 45.3182 307.115 45.5048C306.762 45.6915 306.345 45.7848 305.865 45.7848ZM310.434 44.9748H312.874V45.7148H309.524V38.7448H310.434V44.9748ZM316.691 42.2348L318.831 45.7148H317.801L316.131 42.9948L314.541 45.7148H313.531L315.661 42.2348L313.521 38.7448H314.541L316.221 41.4748L317.821 38.7448H318.841L316.691 42.2348Z" fill="black"/>
</g>
<defs>
<filter id="filter0_dd_307_36158" x="0.5" y="0.714844" width="351" height="90" filterUnits="userSpaceOnUse" color-interpolation-filters="sRGB">
<feFlood flood-opacity="0" result="BackgroundImageFix"/>
<feColorMatrix in="SourceAlpha" type="matrix" values="0 0 0 0 0 0 0 0 0 0 0 0 0 0 0 0 0 0 127 0" result="hardAlpha"/>
<feMorphology radius="2" operator="erode" in="SourceAlpha" result="effect1_dropShadow_307_36158"/>
<feOffset dy="4"/>
<feGaussianBlur stdDeviation="3"/>
<feColorMatrix type="matrix" values="0 0 0 0 0.0627451 0 0 0 0 0.0941176 0 0 0 0 0.156863 0 0 0 0.03 0"/>
<feBlend mode="normal" in2="BackgroundImageFix" result="effect1_dropShadow_307_36158"/>
<feColorMatrix in="SourceAlpha" type="matrix" values="0 0 0 0 0 0 0 0 0 0 0 0 0 0 0 0 0 0 127 0" result="hardAlpha"/>
<feMorphology radius="4" operator="erode" in="SourceAlpha" result="effect2_dropShadow_307_36158"/>
<feOffset dy="12"/>
<feGaussianBlur stdDeviation="8"/>
<feColorMatrix type="matrix" values="0 0 0 0 0.0627451 0 0 0 0 0.0941176 0 0 0 0 0.156863 0 0 0 0.08 0"/>
<feBlend mode="normal" in2="effect1_dropShadow_307_36158" result="effect2_dropShadow_307_36158"/>
<feBlend mode="normal" in="SourceGraphic" in2="effect2_dropShadow_307_36158" result="shape"/>
</filter>
</defs>
</svg>
