<svg width="421" height="64" viewBox="0 0 421 64" fill="none" xmlns="http://www.w3.org/2000/svg">
<rect x="0.6" y="0.1" width="419.8" height="63.8" rx="9.9" fill="white"/>
<rect x="45" y="13.9993" width="37.5006" height="36.0014" rx="6" fill="#2C2C2C"/>
<path d="M68.6268 20.1019C68.7736 20.187 68.8872 20.3194 68.9491 20.4774C69.0109 20.6355 69.0173 20.8098 68.9673 20.9719L66.2658 29.7499H71.2503C71.3968 29.7499 71.5401 29.7927 71.6625 29.8732C71.7849 29.9536 71.8811 30.0681 71.9392 30.2026C71.9972 30.3371 72.0146 30.4856 71.9893 30.6299C71.9639 30.7742 71.8968 30.9078 71.7963 31.0144L59.7963 43.7644C59.6802 43.8879 59.5257 43.9684 59.358 43.9928C59.1902 44.0172 59.0192 43.9841 58.8727 43.8989C58.7262 43.8136 58.6129 43.6813 58.5513 43.5234C58.4897 43.3655 58.4833 43.1914 58.5333 43.0294L61.2348 34.2499H56.2503C56.1038 34.25 55.9605 34.2071 55.8381 34.1267C55.7157 34.0463 55.6195 33.9317 55.5614 33.7972C55.5034 33.6628 55.486 33.5142 55.5113 33.37C55.5367 33.2257 55.6038 33.092 55.7043 32.9854L67.7043 20.2354C67.8203 20.1121 67.9745 20.0317 68.142 20.0072C68.3095 19.9827 68.4804 20.0155 68.6268 20.1004V20.1019Z" fill="#F3A615"/>
<path d="M91.779 38.3875V26.7511H95.9267C96.832 26.7511 97.582 26.9159 98.1767 27.2454C98.7714 27.575 99.2165 28.0257 99.512 28.5977C99.8074 29.1659 99.9552 29.806 99.9552 30.5181C99.9552 31.234 99.8055 31.878 99.5063 32.45C99.2108 33.0181 98.7639 33.4689 98.1654 33.8022C97.5707 34.1318 96.8226 34.2965 95.9211 34.2965H93.0688V32.8079H95.762C96.3339 32.8079 96.798 32.7094 97.154 32.5125C97.5101 32.3117 97.7714 32.039 97.9381 31.6943C98.1048 31.3496 98.1881 30.9575 98.1881 30.5181C98.1881 30.0787 98.1048 29.6886 97.9381 29.3477C97.7714 29.0068 97.5082 28.7397 97.1483 28.5465C96.7923 28.3534 96.3226 28.2568 95.7392 28.2568H93.5347V38.3875H91.779ZM105.444 38.5636C104.626 38.5636 103.912 38.3761 103.302 38.0011C102.692 37.6261 102.218 37.1015 101.881 36.4272C101.544 35.753 101.376 34.9651 101.376 34.0636C101.376 33.1583 101.544 32.3666 101.881 31.6886C102.218 31.0106 102.692 30.484 103.302 30.109C103.912 29.734 104.626 29.5465 105.444 29.5465C106.262 29.5465 106.976 29.734 107.586 30.109C108.196 30.484 108.669 31.0106 109.006 31.6886C109.343 32.3666 109.512 33.1583 109.512 34.0636C109.512 34.9651 109.343 35.753 109.006 36.4272C108.669 37.1015 108.196 37.6261 107.586 38.0011C106.976 38.3761 106.262 38.5636 105.444 38.5636ZM105.449 37.1375C105.98 37.1375 106.419 36.9973 106.768 36.717C107.116 36.4367 107.374 36.0636 107.54 35.5977C107.711 35.1318 107.796 34.6185 107.796 34.0579C107.796 33.5011 107.711 32.9897 107.54 32.5238C107.374 32.0541 107.116 31.6772 106.768 31.3931C106.419 31.109 105.98 30.967 105.449 30.967C104.915 30.967 104.472 31.109 104.12 31.3931C103.771 31.6772 103.512 32.0541 103.342 32.5238C103.175 32.9897 103.092 33.5011 103.092 34.0579C103.092 34.6185 103.175 35.1318 103.342 35.5977C103.512 36.0636 103.771 36.4367 104.12 36.717C104.472 36.9973 104.915 37.1375 105.449 37.1375ZM113.035 38.3875L110.467 29.6602H112.222L113.932 36.0693H114.018L115.734 29.6602H117.489L119.194 36.0409H119.279L120.978 29.6602H122.734L120.171 38.3875H118.438L116.665 32.0863H116.535L114.762 38.3875H113.035ZM127.842 38.5636C126.982 38.5636 126.241 38.3799 125.62 38.0125C125.003 37.6412 124.525 37.1204 124.188 36.45C123.855 35.7757 123.688 34.9859 123.688 34.0806C123.688 33.1867 123.855 32.3988 124.188 31.717C124.525 31.0352 124.995 30.503 125.597 30.1204C126.203 29.7378 126.912 29.5465 127.722 29.5465C128.215 29.5465 128.692 29.628 129.154 29.7909C129.616 29.9537 130.031 30.2094 130.398 30.5579C130.766 30.9064 131.056 31.359 131.268 31.9159C131.48 32.4689 131.586 33.1412 131.586 33.9329V34.5352H124.648V33.2625H129.921C129.921 32.8155 129.83 32.4196 129.648 32.075C129.467 31.7265 129.211 31.4518 128.881 31.2511C128.556 31.0503 128.173 30.95 127.734 30.95C127.256 30.95 126.84 31.0674 126.484 31.3022C126.131 31.5333 125.859 31.8363 125.665 32.2113C125.476 32.5825 125.381 32.9859 125.381 33.4215V34.4159C125.381 34.9992 125.484 35.4954 125.688 35.9045C125.896 36.3136 126.186 36.6261 126.557 36.842C126.929 37.0541 127.362 37.1602 127.859 37.1602C128.181 37.1602 128.474 37.1147 128.739 37.0238C129.004 36.9291 129.234 36.789 129.427 36.6034C129.62 36.4178 129.768 36.1886 129.87 35.9159L131.478 36.2056C131.349 36.6791 131.118 37.0939 130.785 37.45C130.455 37.8022 130.04 38.0768 129.54 38.2738C129.044 38.467 128.478 38.5636 127.842 38.5636ZM133.471 38.3875V29.6602H135.113V31.0465H135.204C135.363 30.5768 135.643 30.2075 136.045 29.9386C136.45 29.6659 136.908 29.5295 137.42 29.5295C137.526 29.5295 137.651 29.5333 137.795 29.5409C137.942 29.5484 138.058 29.5579 138.141 29.5693V31.1943C138.073 31.1753 137.952 31.1545 137.778 31.1318C137.603 31.1053 137.429 31.092 137.255 31.092C136.853 31.092 136.495 31.1772 136.181 31.3477C135.87 31.5143 135.624 31.7473 135.442 32.0465C135.261 32.342 135.17 32.6791 135.17 33.0579V38.3875H133.471Z" fill="#646464"/>
<path d="M289.329 37.1618C288.578 37.1586 287.935 36.9604 287.403 36.5671C286.87 36.1738 286.462 35.6013 286.18 34.8496C285.898 34.0979 285.756 33.1924 285.756 32.133C285.756 31.0768 285.898 30.1745 286.18 29.426C286.465 28.6774 286.874 28.1065 287.407 27.7132C287.943 27.32 288.584 27.1233 289.329 27.1233C290.075 27.1233 290.714 27.3215 291.247 27.718C291.78 28.1113 292.187 28.6822 292.469 29.4307C292.755 30.1761 292.898 31.0768 292.898 32.133C292.898 33.1955 292.756 34.1026 292.474 34.8543C292.192 35.6029 291.784 36.1754 291.251 36.5718C290.719 36.9651 290.078 37.1618 289.329 37.1618ZM289.329 35.8915C289.989 35.8915 290.504 35.5696 290.876 34.9257C291.25 34.2818 291.437 33.351 291.437 32.133C291.437 31.3242 291.351 30.6407 291.18 30.0825C291.012 29.5211 290.769 29.0961 290.452 28.8075C290.138 28.5157 289.764 28.3698 289.329 28.3698C288.673 28.3698 288.157 28.6933 287.783 29.3403C287.409 29.9874 287.22 30.9183 287.217 32.133C287.217 32.945 287.301 33.6316 287.469 34.193C287.64 34.7513 287.883 35.1747 288.197 35.4633C288.511 35.7488 288.889 35.8915 289.329 35.8915ZM295.188 37.0904C294.928 37.0904 294.705 36.9984 294.517 36.8145C294.33 36.6273 294.237 36.4021 294.237 36.1389C294.237 35.8788 294.33 35.6568 294.517 35.4728C294.705 35.2857 294.928 35.1921 295.188 35.1921C295.448 35.1921 295.672 35.2857 295.859 35.4728C296.046 35.6568 296.14 35.8788 296.14 36.1389C296.14 36.3133 296.095 36.4735 296.007 36.6194C295.921 36.7621 295.807 36.8763 295.664 36.9619C295.521 37.0476 295.363 37.0904 295.188 37.0904ZM301.065 37.1618C300.313 37.1586 299.671 36.9604 299.138 36.5671C298.605 36.1738 298.198 35.6013 297.916 34.8496C297.633 34.0979 297.492 33.1924 297.492 32.133C297.492 31.0768 297.633 30.1745 297.916 29.426C298.201 28.6774 298.61 28.1065 299.143 27.7132C299.679 27.32 300.32 27.1233 301.065 27.1233C301.81 27.1233 302.45 27.3215 302.982 27.718C303.515 28.1113 303.923 28.6822 304.205 29.4307C304.491 30.1761 304.633 31.0768 304.633 32.133C304.633 33.1955 304.492 34.1026 304.21 34.8543C303.928 35.6029 303.52 36.1754 302.987 36.5718C302.454 36.9651 301.814 37.1618 301.065 37.1618ZM301.065 35.8915C301.725 35.8915 302.24 35.5696 302.611 34.9257C302.986 34.2818 303.173 33.351 303.173 32.133C303.173 31.3242 303.087 30.6407 302.916 30.0825C302.748 29.5211 302.505 29.0961 302.188 28.8075C301.874 28.5157 301.5 28.3698 301.065 28.3698C300.409 28.3698 299.893 28.6933 299.519 29.3403C299.145 29.9874 298.956 30.9183 298.953 32.133C298.953 32.945 299.037 33.6316 299.205 34.193C299.376 34.7513 299.619 35.1747 299.933 35.4633C300.247 35.7488 300.624 35.8915 301.065 35.8915ZM309.713 37.1618C308.961 37.1586 308.319 36.9604 307.786 36.5671C307.253 36.1738 306.846 35.6013 306.564 34.8496C306.281 34.0979 306.14 33.1924 306.14 32.133C306.14 31.0768 306.281 30.1745 306.564 29.426C306.849 28.6774 307.258 28.1065 307.791 27.7132C308.327 27.32 308.968 27.1233 309.713 27.1233C310.458 27.1233 311.098 27.3215 311.63 27.718C312.163 28.1113 312.571 28.6822 312.853 29.4307C313.139 30.1761 313.281 31.0768 313.281 32.133C313.281 33.1955 313.14 34.1026 312.858 34.8543C312.576 35.6029 312.168 36.1754 311.635 36.5718C311.102 36.9651 310.462 37.1618 309.713 37.1618ZM309.713 35.8915C310.373 35.8915 310.888 35.5696 311.259 34.9257C311.634 34.2818 311.821 33.351 311.821 32.133C311.821 31.3242 311.735 30.6407 311.564 30.0825C311.396 29.5211 311.153 29.0961 310.836 28.8075C310.522 28.5157 310.148 28.3698 309.713 28.3698C309.057 28.3698 308.541 28.6933 308.167 29.3403C307.793 29.9874 307.604 30.9183 307.601 32.133C307.601 32.945 307.685 33.6316 307.853 34.193C308.024 34.7513 308.267 35.1747 308.581 35.4633C308.895 35.7488 309.272 35.8915 309.713 35.8915ZM316.296 34.5213L316.287 32.7848H316.534L319.446 29.6924H321.149L317.828 33.213H317.605L316.296 34.5213ZM314.988 37V27.2565H316.411V37H314.988ZM319.603 37L316.986 33.527L317.966 32.5327L321.349 37H319.603ZM324.468 37L321.765 27.2565H323.311L325.21 34.802H325.3L327.274 27.2565H328.806L330.781 34.8068H330.871L332.765 27.2565H334.316L331.609 37H330.129L328.078 29.7019H328.002L325.952 37H324.468ZM336.964 32.6611V37H335.542V27.2565H336.945V30.8818H337.036C337.207 30.4885 337.469 30.1761 337.821 29.9445C338.173 29.713 338.633 29.5972 339.2 29.5972C339.702 29.5972 340.139 29.7003 340.514 29.9065C340.891 30.1126 341.183 30.4203 341.389 30.8294C341.598 31.2354 341.703 31.7429 341.703 32.3519V37H340.28V32.5231C340.28 31.9871 340.142 31.5716 339.867 31.2767C339.591 30.9785 339.207 30.8294 338.715 30.8294C338.379 30.8294 338.078 30.9008 337.811 31.0435C337.548 31.1863 337.34 31.3956 337.188 31.6715C337.039 31.9443 336.964 32.2742 336.964 32.6611Z" fill="#2C2C2C"/>
<rect x="224.1" y="10.1" width="179.8" height="43.8" rx="3.72779" stroke="#909090" stroke-width="0.2"/>
<rect x="0.6" y="0.1" width="419.8" height="63.8" rx="9.9" stroke="#F3A615" stroke-width="0.2"/>
</svg>
