<svg width="38" height="36" viewBox="0 0 38 36" fill="none" xmlns="http://www.w3.org/2000/svg">
<rect y="-0.000732422" width="37.5006" height="36.0014" rx="6" fill="#2C2C2C"/>
<path d="M23.6268 6.10193C23.7736 6.18704 23.8872 6.31942 23.9491 6.47744C24.0109 6.63546 24.0173 6.80978 23.9673 6.97193L21.2658 15.7499H26.2503C26.3968 15.7499 26.5401 15.7927 26.6625 15.8732C26.7849 15.9536 26.8811 16.0681 26.9392 16.2026C26.9972 16.3371 27.0146 16.4856 26.9893 16.6299C26.9639 16.7742 26.8968 16.9078 26.7963 17.0144L14.7963 29.7644C14.6802 29.8879 14.5257 29.9684 14.358 29.9928C14.1902 30.0172 14.0192 29.9841 13.8727 29.8989C13.7262 29.8136 13.6129 29.6813 13.5513 29.5234C13.4897 29.3655 13.4833 29.1914 13.5333 29.0294L16.2348 20.2499H11.2503C11.1038 20.25 10.9605 20.2071 10.8381 20.1267C10.7157 20.0463 10.6195 19.9317 10.5614 19.7972C10.5034 19.6628 10.486 19.5142 10.5113 19.37C10.5367 19.2257 10.6038 19.092 10.7043 18.9854L22.7043 6.23543C22.8203 6.11213 22.9745 6.03168 23.142 6.00717C23.3095 5.98266 23.4804 6.01553 23.6268 6.10043V6.10193Z" fill="#F3A615"/>
</svg>
