<svg width="351" height="88" viewBox="0 0 351 88" fill="none" xmlns="http://www.w3.org/2000/svg">
<g filter="url(#filter0_dd_307_36484)">
<rect x="12" width="327" height="64" rx="10" fill="white"/>
<path d="M44 32.62V34.68C44 35.24 43.54 35.7 42.97 35.7H41.04C39.96 35.7 38.97 34.91 38.88 33.83C38.82 33.2 39.06 32.61 39.48 32.2C39.85 31.82 40.36 31.6 40.92 31.6H42.97C43.54 31.6 44 32.06 44 32.62Z" fill="#292D32"/>
<path d="M37.38 33.96C37.29 32.91 37.67 31.88 38.43 31.13C39.07 30.48 39.96 30.1 40.92 30.1H41.49C41.77 30.1 42 29.87 41.96 29.59C41.69 27.65 40.01 26.15 38 26.15H28C25.79 26.15 24 27.94 24 30.15V37.15C24 39.36 25.79 41.15 28 41.15H38C40.02 41.15 41.69 39.65 41.96 37.71C42 37.43 41.77 37.2 41.49 37.2H41.04C39.14 37.2 37.54 35.78 37.38 33.96ZM35 31.9H29C28.59 31.9 28.25 31.57 28.25 31.15C28.25 30.73 28.59 30.4 29 30.4H35C35.41 30.4 35.75 30.74 35.75 31.15C35.75 31.56 35.41 31.9 35 31.9Z" fill="#292D32"/>
<path d="M36.2099 23.98C36.4699 24.25 36.2399 24.65 35.8599 24.65H28.0299C26.9399 24.65 25.9199 24.97 25.0699 25.52C24.6799 25.77 24.1499 25.5 24.3399 25.07C24.8999 23.76 26.2099 22.85 27.7199 22.85H33.3399C34.4999 22.85 35.5299 23.26 36.2099 23.98Z" fill="#292D32"/>
<path opacity="0.8" d="M65.5568 37.5L62.3295 25.8636H64.1761L66.4432 34.875H66.5511L68.9091 25.8636H70.7386L73.0966 34.8807H73.2045L75.4659 25.8636H77.3182L74.0852 37.5H72.3182L69.8693 28.7841H69.7784L67.3295 37.5H65.5568ZM80.4631 37.6932C79.91 37.6932 79.41 37.5909 78.9631 37.3864C78.5161 37.178 78.1619 36.8769 77.9006 36.483C77.643 36.089 77.5142 35.6061 77.5142 35.0341C77.5142 34.5417 77.6089 34.1364 77.7983 33.8182C77.9877 33.5 78.2434 33.2481 78.5653 33.0625C78.8873 32.8769 79.2472 32.7367 79.6449 32.642C80.0426 32.5473 80.4479 32.4754 80.8608 32.4261C81.3835 32.3655 81.8078 32.3163 82.1335 32.2784C82.4593 32.2367 82.696 32.1705 82.8438 32.0795C82.9915 31.9886 83.0653 31.8409 83.0653 31.6364V31.5966C83.0653 31.1004 82.9252 30.7159 82.6449 30.4432C82.3684 30.1705 81.9555 30.0341 81.4062 30.0341C80.8343 30.0341 80.3835 30.161 80.054 30.4148C79.7282 30.6648 79.5028 30.9432 79.3778 31.25L77.7812 30.8864C77.9706 30.3561 78.2472 29.928 78.6108 29.6023C78.9782 29.2727 79.4006 29.0341 79.8778 28.8864C80.3551 28.7348 80.857 28.6591 81.3835 28.6591C81.732 28.6591 82.1013 28.7008 82.4915 28.7841C82.8854 28.8636 83.2528 29.0114 83.5938 29.2273C83.9384 29.4432 84.2206 29.7519 84.4403 30.1534C84.66 30.5511 84.7699 31.0682 84.7699 31.7045V37.5H83.1108V36.3068H83.0426C82.9328 36.5265 82.768 36.7424 82.5483 36.9545C82.3286 37.1667 82.0464 37.3428 81.7017 37.483C81.357 37.6231 80.9441 37.6932 80.4631 37.6932ZM80.8324 36.3295C81.3021 36.3295 81.7036 36.2367 82.0369 36.0511C82.3741 35.8655 82.6297 35.6231 82.804 35.3239C82.982 35.0208 83.071 34.697 83.071 34.3523V33.2273C83.0104 33.2879 82.893 33.3447 82.7188 33.3977C82.5483 33.447 82.3532 33.4905 82.1335 33.5284C81.9138 33.5625 81.6998 33.5947 81.4915 33.625C81.2831 33.6515 81.1089 33.6742 80.9688 33.6932C80.6392 33.7348 80.3381 33.8049 80.0653 33.9034C79.7964 34.0019 79.5805 34.1439 79.4176 34.3295C79.2585 34.5114 79.179 34.7538 79.179 35.0568C79.179 35.4773 79.3343 35.7955 79.6449 36.0114C79.9555 36.2235 80.3513 36.3295 80.8324 36.3295ZM88.7315 25.8636V37.5H87.0327V25.8636H88.7315ZM92.7159 25.8636V37.5H91.017V25.8636H92.7159ZM98.7628 37.6761C97.9029 37.6761 97.1624 37.4924 96.5412 37.125C95.9238 36.7538 95.4465 36.233 95.1094 35.5625C94.776 34.8883 94.6094 34.0985 94.6094 33.1932C94.6094 32.2992 94.776 31.5114 95.1094 30.8295C95.4465 30.1477 95.9162 29.6155 96.5185 29.233C97.1245 28.8504 97.8329 28.6591 98.6435 28.6591C99.1359 28.6591 99.6132 28.7405 100.075 28.9034C100.537 29.0663 100.952 29.322 101.32 29.6705C101.687 30.0189 101.977 30.4716 102.189 31.0284C102.401 31.5814 102.507 32.2538 102.507 33.0455V33.6477H95.5696V32.375H100.842C100.842 31.928 100.751 31.5322 100.57 31.1875C100.388 30.839 100.132 30.5644 99.8026 30.3636C99.4768 30.1629 99.0942 30.0625 98.6548 30.0625C98.1776 30.0625 97.7609 30.1799 97.4048 30.4148C97.0526 30.6458 96.7798 30.9489 96.5866 31.3239C96.3973 31.6951 96.3026 32.0985 96.3026 32.5341V33.5284C96.3026 34.1117 96.4048 34.608 96.6094 35.017C96.8177 35.4261 97.1075 35.7386 97.4787 35.9545C97.8499 36.1667 98.2836 36.2727 98.7798 36.2727C99.1018 36.2727 99.3954 36.2273 99.6605 36.1364C99.9257 36.0417 100.155 35.9015 100.348 35.7159C100.541 35.5303 100.689 35.3011 100.791 35.0284L102.399 35.3182C102.27 35.7917 102.039 36.2064 101.706 36.5625C101.376 36.9148 100.962 37.1894 100.462 37.3864C99.9654 37.5795 99.3991 37.6761 98.7628 37.6761ZM108.466 28.7727V30.1364H103.699V28.7727H108.466ZM104.977 26.6818H106.676V34.9375C106.676 35.267 106.725 35.5152 106.824 35.6818C106.922 35.8447 107.049 35.9564 107.205 36.017C107.364 36.0739 107.536 36.1023 107.722 36.1023C107.858 36.1023 107.977 36.0928 108.08 36.0739C108.182 36.0549 108.261 36.0398 108.318 36.0284L108.625 37.4318C108.527 37.4697 108.386 37.5076 108.205 37.5455C108.023 37.5871 107.795 37.6098 107.523 37.6136C107.076 37.6212 106.659 37.5417 106.273 37.375C105.886 37.2083 105.574 36.9508 105.335 36.6023C105.097 36.2538 104.977 35.8163 104.977 35.2898V26.6818Z" fill="black"/>
<path d="M318.967 26.72L323.313 31.0667C323.827 31.58 323.827 32.42 323.313 32.9334L318.967 37.28" stroke="#292D32" stroke-width="2" stroke-miterlimit="10" stroke-linecap="round" stroke-linejoin="round"/>
</g>
<defs>
<filter id="filter0_dd_307_36484" x="0" y="0" width="351" height="88" filterUnits="userSpaceOnUse" color-interpolation-filters="sRGB">
<feFlood flood-opacity="0" result="BackgroundImageFix"/>
<feColorMatrix in="SourceAlpha" type="matrix" values="0 0 0 0 0 0 0 0 0 0 0 0 0 0 0 0 0 0 127 0" result="hardAlpha"/>
<feMorphology radius="2" operator="erode" in="SourceAlpha" result="effect1_dropShadow_307_36484"/>
<feOffset dy="4"/>
<feGaussianBlur stdDeviation="3"/>
<feColorMatrix type="matrix" values="0 0 0 0 0.0627451 0 0 0 0 0.0941176 0 0 0 0 0.156863 0 0 0 0.03 0"/>
<feBlend mode="normal" in2="BackgroundImageFix" result="effect1_dropShadow_307_36484"/>
<feColorMatrix in="SourceAlpha" type="matrix" values="0 0 0 0 0 0 0 0 0 0 0 0 0 0 0 0 0 0 127 0" result="hardAlpha"/>
<feMorphology radius="4" operator="erode" in="SourceAlpha" result="effect2_dropShadow_307_36484"/>
<feOffset dy="12"/>
<feGaussianBlur stdDeviation="8"/>
<feColorMatrix type="matrix" values="0 0 0 0 0.0627451 0 0 0 0 0.0941176 0 0 0 0 0.156863 0 0 0 0.08 0"/>
<feBlend mode="normal" in2="effect1_dropShadow_307_36484" result="effect2_dropShadow_307_36484"/>
<feBlend mode="normal" in="SourceGraphic" in2="effect2_dropShadow_307_36484" result="shape"/>
</filter>
</defs>
</svg>
