<svg width="352" height="87" viewBox="0 0 352 87" fill="none" xmlns="http://www.w3.org/2000/svg">
<g filter="url(#filter0_dd_307_36730)">
<rect x="12.9238" y="0.199219" width="327" height="62.5882" rx="10" fill="white"/>
<path d="M42.1238 35.5686C41.8602 36.2745 41.3049 36.811 40.5802 37.0557C39.5638 37.3945 38.5191 37.6486 37.4649 37.8274C37.3614 37.8462 37.2579 37.8651 37.1543 37.8745C36.9849 37.9027 36.8155 37.9215 36.6461 37.9404C36.4391 37.9686 36.2226 37.9874 36.0061 38.0062C35.4132 38.0533 34.8296 38.0815 34.2367 38.0815C33.6343 38.0815 33.032 38.0533 32.4391 37.9968C32.1849 37.978 31.9402 37.9498 31.6955 37.9121C31.5543 37.8933 31.4132 37.8745 31.2814 37.8557C31.1779 37.8368 31.0743 37.8274 30.9708 37.8086C29.9261 37.6392 28.8908 37.3851 27.8838 37.0462C27.1308 36.7921 26.5567 36.2557 26.3026 35.5686C26.0485 34.891 26.1426 34.1004 26.5473 33.4227L27.6108 31.6533C27.8367 31.2674 28.0438 30.5239 28.0438 30.0721V28.3215C28.0438 24.9051 30.8202 22.1286 34.2367 22.1286C37.6438 22.1286 40.4202 24.9051 40.4202 28.3215V30.0721C40.4202 30.5239 40.6273 31.2674 40.8626 31.6533L41.9261 33.4227C42.312 34.0815 42.3873 34.8533 42.1238 35.5686Z" fill="#292D32"/>
<path d="M34.218 30.3263C33.8227 30.3263 33.5027 30.0063 33.5027 29.611V26.6933C33.5027 26.298 33.8227 25.978 34.218 25.978C34.6133 25.978 34.9333 26.298 34.9333 26.6933V29.611C34.9239 30.0063 34.6039 30.3263 34.218 30.3263Z" fill="white"/>
<path d="M36.8814 39.0322C36.4861 40.1239 35.4414 40.9051 34.2178 40.9051C33.4743 40.9051 32.7402 40.6039 32.2225 40.0675C31.9214 39.7851 31.6955 39.4086 31.5637 39.0228C31.6861 39.0416 31.8084 39.051 31.9402 39.0698C32.1567 39.0981 32.3825 39.1263 32.6084 39.1451C33.1449 39.1922 33.6908 39.2204 34.2367 39.2204C34.7731 39.2204 35.3096 39.1922 35.8367 39.1451C36.0343 39.1263 36.232 39.1169 36.4202 39.0886C36.5708 39.0698 36.7214 39.051 36.8814 39.0322Z" fill="#292D32"/>
<path opacity="0.8" d="M62.7904 36.9933V25.357H66.9381C67.8434 25.357 68.5934 25.5218 69.1881 25.8513C69.7828 26.1808 70.2279 26.6316 70.5233 27.2036C70.8188 27.7718 70.9665 28.4119 70.9665 29.124C70.9665 29.8399 70.8169 30.4839 70.5176 31.0558C70.2222 31.624 69.7752 32.0748 69.1767 32.4081C68.582 32.7377 67.8339 32.9024 66.9324 32.9024H64.0801V31.4138H66.7733C67.3453 31.4138 67.8093 31.3153 68.1654 31.1183C68.5214 30.9176 68.7828 30.6449 68.9495 30.3002C69.1161 29.9555 69.1995 29.5634 69.1995 29.124C69.1995 28.6846 69.1161 28.2945 68.9495 27.9536C68.7828 27.6127 68.5195 27.3456 68.1597 27.1524C67.8036 26.9593 67.3339 26.8627 66.7506 26.8627H64.5461V36.9933H62.7904ZM78.4168 33.374V28.2661H80.1213V36.9933H78.4509V35.482H78.36C78.1592 35.9479 77.8372 36.3362 77.3941 36.6468C76.9547 36.9536 76.4073 37.107 75.752 37.107C75.1914 37.107 74.6952 36.9839 74.2634 36.7377C73.8354 36.4877 73.4982 36.1183 73.252 35.6297C73.0096 35.1411 72.8884 34.5369 72.8884 33.8172V28.2661H74.5872V33.6127C74.5872 34.2074 74.752 34.6808 75.0816 35.0331C75.4111 35.3854 75.8391 35.5615 76.3657 35.5615C76.6838 35.5615 77.0001 35.482 77.3145 35.3229C77.6327 35.1638 77.896 34.9233 78.1043 34.6013C78.3164 34.2793 78.4206 33.8702 78.4168 33.374ZM88.9438 30.3968L87.404 30.6695C87.3396 30.4725 87.2373 30.285 87.0972 30.107C86.9608 29.929 86.7752 29.7831 86.5404 29.6695C86.3055 29.5558 86.012 29.499 85.6597 29.499C85.1786 29.499 84.7771 29.607 84.4551 29.8229C84.1332 30.035 83.9722 30.3096 83.9722 30.6468C83.9722 30.9384 84.0801 31.1733 84.2961 31.3513C84.512 31.5293 84.8604 31.6752 85.3415 31.7888L86.7279 32.107C87.5309 32.2926 88.1294 32.5786 88.5233 32.9649C88.9173 33.3513 89.1142 33.8532 89.1142 34.4706C89.1142 34.9933 88.9627 35.4593 88.6597 35.8683C88.3604 36.2737 87.9419 36.5918 87.404 36.8229C86.8699 37.054 86.2506 37.1695 85.5461 37.1695C84.5688 37.1695 83.7714 36.9612 83.154 36.5445C82.5366 36.124 82.1578 35.5274 82.0176 34.7547L83.6597 34.5047C83.762 34.9327 83.9722 35.2566 84.2904 35.4763C84.6086 35.6922 85.0233 35.8002 85.5347 35.8002C86.0915 35.8002 86.5366 35.6846 86.8699 35.4536C87.2033 35.2187 87.3699 34.9327 87.3699 34.5956C87.3699 34.3229 87.2676 34.0937 87.0631 33.9081C86.8623 33.7225 86.5536 33.5824 86.137 33.4877L84.6597 33.1638C83.8453 32.9782 83.243 32.6827 82.8529 32.2774C82.4665 31.8721 82.2733 31.3589 82.2733 30.7377C82.2733 30.2225 82.4173 29.7718 82.7051 29.3854C82.993 28.999 83.3908 28.6979 83.8983 28.482C84.4059 28.2623 84.9873 28.1524 85.6426 28.1524C86.5858 28.1524 87.3283 28.357 87.8699 28.7661C88.4116 29.1714 88.7695 29.7149 88.9438 30.3968ZM92.681 31.8115V36.9933H90.9821V25.357H92.6583V29.6865H92.7662C92.9708 29.2168 93.2833 28.8437 93.7037 28.5672C94.1242 28.2907 94.6734 28.1524 95.3515 28.1524C95.9499 28.1524 96.4727 28.2755 96.9196 28.5218C97.3704 28.768 97.7189 29.1354 97.9651 29.624C98.2151 30.1089 98.3401 30.7149 98.3401 31.4422V36.9933H96.6412V31.6468C96.6412 31.0066 96.4765 30.5104 96.1469 30.1581C95.8174 29.8021 95.359 29.624 94.7719 29.624C94.3704 29.624 94.0105 29.7093 93.6924 29.8797C93.378 30.0502 93.1299 30.3002 92.948 30.6297C92.77 30.9555 92.681 31.3494 92.681 31.8115ZM114.37 25.357V36.9933H112.756L106.842 28.4593H106.734V36.9933H104.978V25.357H106.603L112.523 33.9024H112.631V25.357H114.37ZM120.471 37.1695C119.653 37.1695 118.939 36.982 118.329 36.607C117.719 36.232 117.245 35.7074 116.908 35.0331C116.571 34.3589 116.403 33.571 116.403 32.6695C116.403 31.7642 116.571 30.9725 116.908 30.2945C117.245 29.6165 117.719 29.0899 118.329 28.7149C118.939 28.3399 119.653 28.1524 120.471 28.1524C121.289 28.1524 122.003 28.3399 122.613 28.7149C123.223 29.0899 123.696 29.6165 124.033 30.2945C124.37 30.9725 124.539 31.7642 124.539 32.6695C124.539 33.571 124.37 34.3589 124.033 35.0331C123.696 35.7074 123.223 36.232 122.613 36.607C122.003 36.982 121.289 37.1695 120.471 37.1695ZM120.476 35.7433C121.007 35.7433 121.446 35.6032 121.795 35.3229C122.143 35.0426 122.401 34.6695 122.567 34.2036C122.738 33.7377 122.823 33.2244 122.823 32.6638C122.823 32.107 122.738 31.5956 122.567 31.1297C122.401 30.66 122.143 30.2831 121.795 29.999C121.446 29.7149 121.007 29.5729 120.476 29.5729C119.942 29.5729 119.499 29.7149 119.147 29.999C118.798 30.2831 118.539 30.66 118.368 31.1297C118.202 31.5956 118.118 32.107 118.118 32.6638C118.118 33.2244 118.202 33.7377 118.368 34.2036C118.539 34.6695 118.798 35.0426 119.147 35.3229C119.499 35.6032 119.942 35.7433 120.476 35.7433ZM130.509 28.2661V29.6297H125.742V28.2661H130.509ZM127.02 26.1752H128.719V34.4308C128.719 34.7604 128.769 35.0085 128.867 35.1752C128.966 35.338 129.092 35.4498 129.248 35.5104C129.407 35.5672 129.579 35.5956 129.765 35.5956C129.901 35.5956 130.02 35.5862 130.123 35.5672C130.225 35.5483 130.305 35.5331 130.361 35.5218L130.668 36.9252C130.57 36.963 130.43 37.0009 130.248 37.0388C130.066 37.0805 129.839 37.1032 129.566 37.107C129.119 37.1146 128.702 37.035 128.316 36.8683C127.93 36.7017 127.617 36.4441 127.378 36.0956C127.14 35.7471 127.02 35.3096 127.02 34.7831V26.1752ZM132.388 36.9933V28.2661H134.087V36.9933H132.388ZM133.246 26.9195C132.951 26.9195 132.697 26.821 132.485 26.624C132.277 26.4233 132.172 26.1846 132.172 25.9081C132.172 25.6278 132.277 25.3892 132.485 25.1922C132.697 24.9915 132.951 24.8911 133.246 24.8911C133.542 24.8911 133.794 24.9915 134.002 25.1922C134.214 25.3892 134.32 25.6278 134.32 25.9081C134.32 26.1846 134.214 26.4233 134.002 26.624C133.794 26.821 133.542 26.9195 133.246 26.9195ZM140.526 28.2661V29.6297H135.594V28.2661H140.526ZM136.947 36.9933V27.2547C136.947 26.7093 137.066 26.2566 137.305 25.8968C137.543 25.5331 137.86 25.2623 138.253 25.0843C138.647 24.9024 139.075 24.8115 139.538 24.8115C139.878 24.8115 140.17 24.8399 140.413 24.8968C140.655 24.9498 140.835 24.999 140.952 25.0445L140.555 26.4195C140.475 26.3968 140.373 26.3702 140.248 26.3399C140.123 26.3058 139.971 26.2888 139.793 26.2888C139.38 26.2888 139.085 26.3911 138.907 26.5956C138.733 26.8002 138.645 27.0956 138.645 27.482V36.9933H136.947ZM142.279 36.9933V28.2661H143.978V36.9933H142.279ZM143.137 26.9195C142.842 26.9195 142.588 26.821 142.376 26.624C142.167 26.4233 142.063 26.1846 142.063 25.9081C142.063 25.6278 142.167 25.3892 142.376 25.1922C142.588 24.9915 142.842 24.8911 143.137 24.8911C143.432 24.8911 143.684 24.9915 143.893 25.1922C144.105 25.3892 144.211 25.6278 144.211 25.9081C144.211 26.1846 144.105 26.4233 143.893 26.624C143.684 26.821 143.432 26.9195 143.137 26.9195ZM149.94 37.1695C149.095 37.1695 148.368 36.9782 147.758 36.5956C147.152 36.2093 146.686 35.6771 146.36 34.999C146.034 34.321 145.871 33.5445 145.871 32.6695C145.871 31.7831 146.038 31.0009 146.371 30.3229C146.705 29.6411 147.174 29.1089 147.78 28.7263C148.386 28.3437 149.101 28.1524 149.922 28.1524C150.585 28.1524 151.176 28.2755 151.695 28.5218C152.214 28.7642 152.633 29.1051 152.951 29.5445C153.273 29.9839 153.464 30.4971 153.525 31.0843H151.871C151.78 30.6752 151.572 30.3229 151.246 30.0274C150.924 29.732 150.493 29.5843 149.951 29.5843C149.477 29.5843 149.063 29.7093 148.707 29.9593C148.354 30.2055 148.08 30.5577 147.883 31.0161C147.686 31.4706 147.587 32.0085 147.587 32.6297C147.587 33.2661 147.684 33.8153 147.877 34.2774C148.07 34.7396 148.343 35.0975 148.695 35.3513C149.051 35.6051 149.47 35.732 149.951 35.732C150.273 35.732 150.565 35.6733 150.826 35.5558C151.091 35.4346 151.313 35.2623 151.491 35.0388C151.672 34.8153 151.799 34.5464 151.871 34.232H153.525C153.464 34.7964 153.28 35.3002 152.974 35.7433C152.667 36.1865 152.256 36.535 151.741 36.7888C151.229 37.0426 150.629 37.1695 149.94 37.1695ZM157.881 37.1865C157.328 37.1865 156.828 37.0843 156.381 36.8797C155.934 36.6714 155.58 36.3702 155.319 35.9763C155.061 35.5824 154.932 35.0994 154.932 34.5274C154.932 34.035 155.027 33.6297 155.217 33.3115C155.406 32.9933 155.662 32.7415 155.984 32.5558C156.306 32.3702 156.665 32.2301 157.063 32.1354C157.461 32.0407 157.866 31.9687 158.279 31.9195C158.802 31.8589 159.226 31.8096 159.552 31.7718C159.877 31.7301 160.114 31.6638 160.262 31.5729C160.41 31.482 160.484 31.3343 160.484 31.1297V31.0899C160.484 30.5937 160.343 30.2093 160.063 29.9365C159.787 29.6638 159.374 29.5274 158.824 29.5274C158.252 29.5274 157.802 29.6543 157.472 29.9081C157.146 30.1581 156.921 30.4365 156.796 30.7433L155.199 30.3797C155.389 29.8494 155.665 29.4214 156.029 29.0956C156.396 28.7661 156.819 28.5274 157.296 28.3797C157.773 28.2282 158.275 28.1524 158.802 28.1524C159.15 28.1524 159.52 28.1941 159.91 28.2774C160.304 28.357 160.671 28.5047 161.012 28.7206C161.357 28.9365 161.639 29.2452 161.859 29.6468C162.078 30.0445 162.188 30.5615 162.188 31.1979V36.9933H160.529V35.8002H160.461C160.351 36.0199 160.186 36.2358 159.967 36.4479C159.747 36.66 159.465 36.8362 159.12 36.9763C158.775 37.1165 158.362 37.1865 157.881 37.1865ZM158.251 35.8229C158.72 35.8229 159.122 35.7301 159.455 35.5445C159.792 35.3589 160.048 35.1165 160.222 34.8172C160.4 34.5142 160.489 34.1903 160.489 33.8456V32.7206C160.429 32.7812 160.311 32.838 160.137 32.8911C159.967 32.9403 159.771 32.9839 159.552 33.0218C159.332 33.0558 159.118 33.088 158.91 33.1183C158.701 33.1449 158.527 33.1676 158.387 33.1865C158.057 33.2282 157.756 33.2983 157.484 33.3968C157.215 33.4952 156.999 33.6373 156.836 33.8229C156.677 34.0047 156.597 34.2471 156.597 34.5502C156.597 34.9706 156.752 35.2888 157.063 35.5047C157.374 35.7168 157.77 35.8229 158.251 35.8229ZM168.525 28.2661V29.6297H163.758V28.2661H168.525ZM165.036 26.1752H166.735V34.4308C166.735 34.7604 166.784 35.0085 166.883 35.1752C166.981 35.338 167.108 35.4498 167.263 35.5104C167.422 35.5672 167.595 35.5956 167.78 35.5956C167.917 35.5956 168.036 35.5862 168.138 35.5672C168.241 35.5483 168.32 35.5331 168.377 35.5218L168.684 36.9252C168.585 36.963 168.445 37.0009 168.263 37.0388C168.082 37.0805 167.854 37.1032 167.582 37.107C167.135 37.1146 166.718 37.035 166.332 36.8683C165.945 36.7017 165.633 36.4441 165.394 36.0956C165.155 35.7471 165.036 35.3096 165.036 34.7831V26.1752ZM170.404 36.9933V28.2661H172.103V36.9933H170.404ZM171.262 26.9195C170.967 26.9195 170.713 26.821 170.501 26.624C170.292 26.4233 170.188 26.1846 170.188 25.9081C170.188 25.6278 170.292 25.3892 170.501 25.1922C170.713 24.9915 170.967 24.8911 171.262 24.8911C171.557 24.8911 171.809 24.9915 172.018 25.1922C172.23 25.3892 172.336 25.6278 172.336 25.9081C172.336 26.1846 172.23 26.4233 172.018 26.624C171.809 26.821 171.557 26.9195 171.262 26.9195ZM178.065 37.1695C177.246 37.1695 176.532 36.982 175.922 36.607C175.313 36.232 174.839 35.7074 174.502 35.0331C174.165 34.3589 173.996 33.571 173.996 32.6695C173.996 31.7642 174.165 30.9725 174.502 30.2945C174.839 29.6165 175.313 29.0899 175.922 28.7149C176.532 28.3399 177.246 28.1524 178.065 28.1524C178.883 28.1524 179.597 28.3399 180.207 28.7149C180.816 29.0899 181.29 29.6165 181.627 30.2945C181.964 30.9725 182.133 31.7642 182.133 32.6695C182.133 33.571 181.964 34.3589 181.627 35.0331C181.29 35.7074 180.816 36.232 180.207 36.607C179.597 36.982 178.883 37.1695 178.065 37.1695ZM178.07 35.7433C178.601 35.7433 179.04 35.6032 179.388 35.3229C179.737 35.0426 179.994 34.6695 180.161 34.2036C180.332 33.7377 180.417 33.2244 180.417 32.6638C180.417 32.107 180.332 31.5956 180.161 31.1297C179.994 30.66 179.737 30.2831 179.388 29.999C179.04 29.7149 178.601 29.5729 178.07 29.5729C177.536 29.5729 177.093 29.7149 176.741 29.999C176.392 30.2831 176.133 30.66 175.962 31.1297C175.796 31.5956 175.712 32.107 175.712 32.6638C175.712 33.2244 175.796 33.7377 175.962 34.2036C176.133 34.6695 176.392 35.0426 176.741 35.3229C177.093 35.6032 177.536 35.7433 178.07 35.7433ZM185.728 31.8115V36.9933H184.029V28.2661H185.66V29.6865H185.768C185.968 29.2244 186.283 28.8532 186.711 28.5729C187.143 28.2926 187.686 28.1524 188.342 28.1524C188.936 28.1524 189.457 28.2774 189.904 28.5274C190.351 28.7737 190.698 29.1411 190.944 29.6297C191.19 30.1183 191.313 30.7225 191.313 31.4422V36.9933H189.614V31.6468C189.614 31.0142 189.449 30.5199 189.12 30.1638C188.79 29.804 188.338 29.624 187.762 29.624C187.368 29.624 187.018 29.7093 186.711 29.8797C186.408 30.0502 186.167 30.3002 185.989 30.6297C185.815 30.9555 185.728 31.3494 185.728 31.8115ZM200.131 30.3968L198.592 30.6695C198.527 30.4725 198.425 30.285 198.285 30.107C198.148 29.929 197.963 29.7831 197.728 29.6695C197.493 29.5558 197.199 29.499 196.847 29.499C196.366 29.499 195.965 29.607 195.643 29.8229C195.321 30.035 195.16 30.3096 195.16 30.6468C195.16 30.9384 195.268 31.1733 195.484 31.3513C195.699 31.5293 196.048 31.6752 196.529 31.7888L197.915 32.107C198.718 32.2926 199.317 32.5786 199.711 32.9649C200.105 33.3513 200.302 33.8532 200.302 34.4706C200.302 34.9933 200.15 35.4593 199.847 35.8683C199.548 36.2737 199.129 36.5918 198.592 36.8229C198.057 37.054 197.438 37.1695 196.734 37.1695C195.756 37.1695 194.959 36.9612 194.342 36.5445C193.724 36.124 193.345 35.5274 193.205 34.7547L194.847 34.5047C194.949 34.9327 195.16 35.2566 195.478 35.4763C195.796 35.6922 196.211 35.8002 196.722 35.8002C197.279 35.8002 197.724 35.6846 198.057 35.4536C198.391 35.2187 198.557 34.9327 198.557 34.5956C198.557 34.3229 198.455 34.0937 198.251 33.9081C198.05 33.7225 197.741 33.5824 197.324 33.4877L195.847 33.1638C195.033 32.9782 194.431 32.6827 194.04 32.2774C193.654 31.8721 193.461 31.3589 193.461 30.7377C193.461 30.2225 193.605 29.7718 193.893 29.3854C194.181 28.999 194.578 28.6979 195.086 28.482C195.593 28.2623 196.175 28.1524 196.83 28.1524C197.773 28.1524 198.516 28.357 199.057 28.7661C199.599 29.1714 199.957 29.7149 200.131 30.3968Z" fill="black"/>
<path d="M319.89 26.2134L324.237 30.56C324.75 31.0734 324.75 31.9134 324.237 32.4267L319.89 36.7734" stroke="#292D32" stroke-width="2" stroke-miterlimit="10" stroke-linecap="round" stroke-linejoin="round"/>
</g>
<defs>
<filter id="filter0_dd_307_36730" x="0.923828" y="0.199219" width="351" height="86.5883" filterUnits="userSpaceOnUse" color-interpolation-filters="sRGB">
<feFlood flood-opacity="0" result="BackgroundImageFix"/>
<feColorMatrix in="SourceAlpha" type="matrix" values="0 0 0 0 0 0 0 0 0 0 0 0 0 0 0 0 0 0 127 0" result="hardAlpha"/>
<feMorphology radius="2" operator="erode" in="SourceAlpha" result="effect1_dropShadow_307_36730"/>
<feOffset dy="4"/>
<feGaussianBlur stdDeviation="3"/>
<feColorMatrix type="matrix" values="0 0 0 0 0.0627451 0 0 0 0 0.0941176 0 0 0 0 0.156863 0 0 0 0.03 0"/>
<feBlend mode="normal" in2="BackgroundImageFix" result="effect1_dropShadow_307_36730"/>
<feColorMatrix in="SourceAlpha" type="matrix" values="0 0 0 0 0 0 0 0 0 0 0 0 0 0 0 0 0 0 127 0" result="hardAlpha"/>
<feMorphology radius="4" operator="erode" in="SourceAlpha" result="effect2_dropShadow_307_36730"/>
<feOffset dy="12"/>
<feGaussianBlur stdDeviation="8"/>
<feColorMatrix type="matrix" values="0 0 0 0 0.0627451 0 0 0 0 0.0941176 0 0 0 0 0.156863 0 0 0 0.08 0"/>
<feBlend mode="normal" in2="effect1_dropShadow_307_36730" result="effect2_dropShadow_307_36730"/>
<feBlend mode="normal" in="SourceGraphic" in2="effect2_dropShadow_307_36730" result="shape"/>
</filter>
</defs>
</svg>
