<svg width="324" height="34" viewBox="0 0 324 34" fill="none" xmlns="http://www.w3.org/2000/svg">
<path opacity="0.8" d="M8.222 23.7148L5.45 18.8188H4.262V23.7148H1.742V11.1508H6.458C7.43 11.1508 8.258 11.3248 8.942 11.6728C9.626 12.0088 10.136 12.4708 10.472 13.0588C10.82 13.6348 10.994 14.2828 10.994 15.0028C10.994 15.8308 10.754 16.5808 10.274 17.2528C9.794 17.9128 9.08 18.3688 8.132 18.6208L11.138 23.7148H8.222ZM4.262 16.9288H6.368C7.052 16.9288 7.562 16.7668 7.898 16.4428C8.234 16.1068 8.402 15.6448 8.402 15.0568C8.402 14.4808 8.234 14.0368 7.898 13.7248C7.562 13.4008 7.052 13.2388 6.368 13.2388H4.262V16.9288ZM22.5433 18.5128C22.5433 18.8728 22.5193 19.1968 22.4713 19.4848H15.1813C15.2413 20.2048 15.4933 20.7688 15.9373 21.1768C16.3813 21.5848 16.9273 21.7888 17.5753 21.7888C18.5113 21.7888 19.1773 21.3868 19.5733 20.5828H22.2913C22.0033 21.5428 21.4513 22.3348 20.6353 22.9588C19.8193 23.5708 18.8173 23.8768 17.6293 23.8768C16.6693 23.8768 15.8053 23.6668 15.0373 23.2468C14.2813 22.8148 13.6873 22.2088 13.2553 21.4288C12.8353 20.6488 12.6252 19.7488 12.6252 18.7288C12.6252 17.6968 12.8353 16.7908 13.2553 16.0108C13.6753 15.2308 14.2633 14.6308 15.0193 14.2108C15.7753 13.7908 16.6453 13.5808 17.6293 13.5808C18.5773 13.5808 19.4233 13.7848 20.1673 14.1928C20.9233 14.6008 21.5053 15.1828 21.9133 15.9388C22.3333 16.6828 22.5433 17.5408 22.5433 18.5128ZM19.9333 17.7928C19.9213 17.1448 19.6873 16.6288 19.2313 16.2448C18.7753 15.8488 18.2173 15.6508 17.5573 15.6508C16.9333 15.6508 16.4053 15.8428 15.9733 16.2268C15.5533 16.5988 15.2953 17.1208 15.1993 17.7928H19.9333ZM23.7346 18.7288C23.7346 17.6968 23.9446 16.7968 24.3646 16.0288C24.7846 15.2488 25.3666 14.6488 26.1106 14.2288C26.8546 13.7968 27.7066 13.5808 28.6666 13.5808C29.9026 13.5808 30.9226 13.8928 31.7266 14.5168C32.5426 15.1288 33.0886 15.9928 33.3646 17.1088H30.6466C30.5026 16.6768 30.2566 16.3408 29.9086 16.1008C29.5726 15.8488 29.1526 15.7228 28.6486 15.7228C27.9286 15.7228 27.3586 15.9868 26.9386 16.5148C26.5186 17.0308 26.3086 17.7688 26.3086 18.7288C26.3086 19.6768 26.5186 20.4148 26.9386 20.9428C27.3586 21.4588 27.9286 21.7168 28.6486 21.7168C29.6686 21.7168 30.3346 21.2608 30.6466 20.3488H33.3646C33.0886 21.4288 32.5426 22.2868 31.7266 22.9228C30.9106 23.5588 29.8906 23.8768 28.6666 23.8768C27.7066 23.8768 26.8546 23.6668 26.1106 23.2468C25.3666 22.8148 24.7846 22.2148 24.3646 21.4468C23.9446 20.6668 23.7346 19.7608 23.7346 18.7288ZM44.4808 18.5128C44.4808 18.8728 44.4568 19.1968 44.4088 19.4848H37.1188C37.1788 20.2048 37.4308 20.7688 37.8748 21.1768C38.3188 21.5848 38.8648 21.7888 39.5128 21.7888C40.4488 21.7888 41.1148 21.3868 41.5108 20.5828H44.2288C43.9408 21.5428 43.3888 22.3348 42.5728 22.9588C41.7568 23.5708 40.7548 23.8768 39.5668 23.8768C38.6068 23.8768 37.7428 23.6668 36.9748 23.2468C36.2188 22.8148 35.6248 22.2088 35.1928 21.4288C34.7728 20.6488 34.5627 19.7488 34.5627 18.7288C34.5627 17.6968 34.7728 16.7908 35.1928 16.0108C35.6128 15.2308 36.2008 14.6308 36.9568 14.2108C37.7128 13.7908 38.5828 13.5808 39.5668 13.5808C40.5148 13.5808 41.3608 13.7848 42.1048 14.1928C42.8608 14.6008 43.4428 15.1828 43.8508 15.9388C44.2708 16.6828 44.4808 17.5408 44.4808 18.5128ZM41.8708 17.7928C41.8588 17.1448 41.6248 16.6288 41.1688 16.2448C40.7128 15.8488 40.1548 15.6508 39.4948 15.6508C38.8708 15.6508 38.3428 15.8428 37.9108 16.2268C37.4908 16.5988 37.2328 17.1208 37.1368 17.7928H41.8708ZM51.8461 13.5988C53.0341 13.5988 53.9941 13.9768 54.7261 14.7328C55.4581 15.4768 55.8241 16.5208 55.8241 17.8648V23.7148H53.3041V18.2068C53.3041 17.4148 53.1061 16.8088 52.7101 16.3888C52.3141 15.9568 51.7741 15.7408 51.0901 15.7408C50.3941 15.7408 49.8421 15.9568 49.4341 16.3888C49.0381 16.8088 48.8401 17.4148 48.8401 18.2068V23.7148H46.3201V13.7428H48.8401V14.9848C49.1761 14.5528 49.6021 14.2168 50.1181 13.9768C50.6461 13.7248 51.2221 13.5988 51.8461 13.5988ZM61.1545 15.8128V20.6368C61.1545 20.9728 61.2325 21.2188 61.3885 21.3748C61.5565 21.5188 61.8325 21.5908 62.2165 21.5908H63.3865V23.7148H61.8025C59.6785 23.7148 58.6165 22.6828 58.6165 20.6188V15.8128H57.4285V13.7428H58.6165V11.2768H61.1545V13.7428H63.3865V15.8128H61.1545ZM69.015 23.8768C68.199 23.8768 67.467 23.7328 66.819 23.4448C66.171 23.1448 65.655 22.7428 65.271 22.2388C64.899 21.7348 64.695 21.1768 64.659 20.5648H67.197C67.245 20.9488 67.431 21.2668 67.755 21.5188C68.091 21.7708 68.505 21.8968 68.997 21.8968C69.477 21.8968 69.849 21.8008 70.113 21.6088C70.389 21.4168 70.527 21.1708 70.527 20.8708C70.527 20.5468 70.359 20.3068 70.023 20.1508C69.699 19.9828 69.177 19.8028 68.457 19.6108C67.713 19.4308 67.101 19.2448 66.621 19.0528C66.153 18.8608 65.745 18.5668 65.397 18.1708C65.061 17.7748 64.893 17.2408 64.893 16.5688C64.893 16.0168 65.049 15.5128 65.361 15.0568C65.685 14.6008 66.141 14.2408 66.729 13.9768C67.329 13.7128 68.031 13.5808 68.835 13.5808C70.023 13.5808 70.971 13.8808 71.679 14.4808C72.387 15.0688 72.777 15.8668 72.849 16.8748H70.437C70.401 16.4788 70.233 16.1668 69.933 15.9388C69.645 15.6988 69.255 15.5788 68.763 15.5788C68.307 15.5788 67.953 15.6628 67.701 15.8308C67.461 15.9988 67.341 16.2328 67.341 16.5328C67.341 16.8688 67.509 17.1268 67.845 17.3068C68.181 17.4748 68.703 17.6488 69.411 17.8288C70.131 18.0088 70.725 18.1948 71.193 18.3868C71.661 18.5788 72.063 18.8788 72.399 19.2868C72.747 19.6828 72.927 20.2108 72.939 20.8708C72.939 21.4468 72.777 21.9628 72.453 22.4188C72.141 22.8748 71.685 23.2348 71.085 23.4988C70.497 23.7508 69.807 23.8768 69.015 23.8768Z" fill="black"/>
<rect x="235.5" y="1.71484" width="88" height="31" rx="6" fill="#F3A615"/>
<path d="M248.477 14.3129V12.9876H255.44V14.3129H252.743V21.7148H251.175V14.3129H248.477ZM258.62 21.8427C257.981 21.8427 257.427 21.7021 256.958 21.4208C256.49 21.1396 256.126 20.7461 255.868 20.2404C255.612 19.7347 255.484 19.1438 255.484 18.4677C255.484 17.7915 255.612 17.1992 255.868 16.6907C256.126 16.1822 256.49 15.7873 256.958 15.506C257.427 15.2248 257.981 15.0842 258.62 15.0842C259.26 15.0842 259.814 15.2248 260.282 15.506C260.751 15.7873 261.113 16.1822 261.369 16.6907C261.627 17.1992 261.757 17.7915 261.757 18.4677C261.757 19.1438 261.627 19.7347 261.369 20.2404C261.113 20.7461 260.751 21.1396 260.282 21.4208C259.814 21.7021 259.26 21.8427 258.62 21.8427ZM258.629 20.6069C258.975 20.6069 259.265 20.5117 259.498 20.3214C259.731 20.1282 259.904 19.8697 260.018 19.5458C260.135 19.2219 260.193 18.8612 260.193 18.4634C260.193 18.0629 260.135 17.7006 260.018 17.3768C259.904 17.0501 259.731 16.7901 259.498 16.5969C259.265 16.4038 258.975 16.3072 258.629 16.3072C258.274 16.3072 257.978 16.4038 257.743 16.5969C257.51 16.7901 257.335 17.0501 257.218 17.3768C257.105 17.7006 257.048 18.0629 257.048 18.4634C257.048 18.8612 257.105 19.2219 257.218 19.5458C257.335 19.8697 257.51 20.1282 257.743 20.3214C257.978 20.5117 258.274 20.6069 258.629 20.6069ZM266.335 15.1694V16.3626H262.572V15.1694H266.335ZM263.501 13.6012H265.043V19.7461C265.043 19.9535 265.075 20.1126 265.137 20.2234C265.202 20.3313 265.288 20.4052 265.393 20.445C265.498 20.4847 265.614 20.5046 265.742 20.5046C265.839 20.5046 265.927 20.4975 266.006 20.4833C266.089 20.4691 266.151 20.4563 266.194 20.445L266.454 21.6509C266.371 21.6793 266.254 21.7106 266.1 21.7447C265.95 21.7788 265.765 21.7987 265.546 21.8043C265.16 21.8157 264.812 21.7575 264.502 21.6296C264.192 21.4989 263.947 21.2972 263.765 21.0245C263.586 20.7518 263.498 20.4109 263.501 20.0018V13.6012ZM269.508 21.8469C269.093 21.8469 268.72 21.7731 268.387 21.6254C268.058 21.4748 267.797 21.2532 267.603 20.9606C267.413 20.668 267.318 20.3072 267.318 19.8782C267.318 19.5089 267.386 19.2035 267.522 18.962C267.659 18.7205 267.845 18.5273 268.081 18.3825C268.316 18.2376 268.582 18.1282 268.877 18.0543C269.176 17.9776 269.484 17.9222 269.802 17.8881C270.186 17.8484 270.497 17.8129 270.735 17.7816C270.974 17.7475 271.147 17.6964 271.255 17.6282C271.366 17.5572 271.422 17.4478 271.422 17.3001V17.2745C271.422 16.9535 271.326 16.7049 271.136 16.5288C270.946 16.3526 270.672 16.2646 270.314 16.2646C269.936 16.2646 269.636 16.3469 269.414 16.5117C269.196 16.6765 269.048 16.8711 268.971 17.0955L267.531 16.891C267.645 16.4933 267.832 16.1609 268.093 15.8938C268.355 15.6239 268.674 15.4222 269.052 15.2887C269.43 15.1523 269.848 15.0842 270.305 15.0842C270.62 15.0842 270.934 15.1211 271.247 15.195C271.559 15.2688 271.845 15.391 272.103 15.5614C272.362 15.729 272.569 15.9577 272.725 16.2475C272.885 16.5373 272.964 16.8995 272.964 17.3342V21.7148H271.481V20.8157H271.43C271.336 20.9975 271.204 21.168 271.034 21.3271C270.866 21.4833 270.654 21.6097 270.399 21.7063C270.146 21.8001 269.849 21.8469 269.508 21.8469ZM269.909 20.7134C270.218 20.7134 270.487 20.6523 270.714 20.5302C270.941 20.4052 271.116 20.2404 271.238 20.0359C271.363 19.8313 271.426 19.6083 271.426 19.3668V18.5955C271.377 18.6353 271.295 18.6722 271.179 18.7063C271.065 18.7404 270.937 18.7702 270.795 18.7958C270.653 18.8214 270.512 18.8441 270.373 18.864C270.234 18.8839 270.113 18.9009 270.011 18.9151C269.781 18.9464 269.575 18.9975 269.393 19.0685C269.211 19.1396 269.068 19.239 268.963 19.3668C268.858 19.4918 268.805 19.6538 268.805 19.8526C268.805 20.1367 268.909 20.3512 269.116 20.4961C269.324 20.641 269.588 20.7134 269.909 20.7134ZM276.058 12.9876V21.7148H274.515V12.9876H276.058ZM285.432 15.3867C285.392 15.0146 285.224 14.7248 284.929 14.5174C284.636 14.31 284.256 14.2063 283.787 14.2063C283.457 14.2063 283.175 14.256 282.939 14.3555C282.703 14.4549 282.523 14.5898 282.398 14.7603C282.273 14.9308 282.209 15.1254 282.206 15.3441C282.206 15.5259 282.247 15.6836 282.33 15.8171C282.415 15.9506 282.53 16.0643 282.675 16.158C282.82 16.2489 282.98 16.3256 283.156 16.3881C283.332 16.4506 283.51 16.5032 283.689 16.5458L284.507 16.7504C284.837 16.8271 285.153 16.9308 285.457 17.0614C285.764 17.1921 286.038 17.3569 286.28 17.5558C286.524 17.7546 286.717 17.9947 286.859 18.2759C287.001 18.5572 287.072 18.8867 287.072 19.2646C287.072 19.7759 286.942 20.2262 286.68 20.6154C286.419 21.0018 286.041 21.3043 285.547 21.5231C285.055 21.739 284.46 21.8469 283.761 21.8469C283.082 21.8469 282.493 21.7418 281.993 21.5316C281.496 21.3214 281.107 21.0146 280.825 20.6112C280.547 20.2077 280.396 19.7163 280.374 19.1367H281.929C281.952 19.4407 282.045 19.6935 282.21 19.8952C282.375 20.0969 282.589 20.2475 282.854 20.3469C283.121 20.4464 283.419 20.4961 283.749 20.4961C284.092 20.4961 284.393 20.445 284.652 20.3427C284.913 20.2376 285.118 20.0927 285.266 19.908C285.413 19.7205 285.489 19.5018 285.491 19.2518C285.489 19.0245 285.422 18.837 285.291 18.6893C285.161 18.5387 284.977 18.4137 284.741 18.3143C284.509 18.212 284.236 18.1211 283.923 18.0415L282.93 17.7859C282.212 17.6012 281.643 17.3214 281.226 16.9464C280.811 16.5685 280.604 16.0671 280.604 15.4421C280.604 14.9279 280.743 14.4776 281.021 14.0913C281.303 13.7049 281.685 13.4052 282.168 13.1921C282.651 12.9762 283.197 12.8683 283.808 12.8683C284.428 12.8683 284.97 12.9762 285.436 13.1921C285.905 13.4052 286.273 13.7021 286.54 14.0827C286.807 14.4606 286.945 14.8952 286.953 15.3867H285.432ZM291.682 15.1694V16.3626H287.919V15.1694H291.682ZM288.848 13.6012H290.391V19.7461C290.391 19.9535 290.422 20.1126 290.485 20.2234C290.55 20.3313 290.635 20.4052 290.74 20.445C290.846 20.4847 290.962 20.5046 291.09 20.5046C291.186 20.5046 291.275 20.4975 291.354 20.4833C291.436 20.4691 291.499 20.4563 291.542 20.445L291.801 21.6509C291.719 21.6793 291.601 21.7106 291.448 21.7447C291.297 21.7788 291.113 21.7987 290.894 21.8043C290.507 21.8157 290.159 21.7575 289.85 21.6296C289.54 21.4989 289.294 21.2972 289.113 21.0245C288.934 20.7518 288.846 20.4109 288.848 20.0018V13.6012ZM294.856 21.8469C294.441 21.8469 294.067 21.7731 293.735 21.6254C293.406 21.4748 293.144 21.2532 292.951 20.9606C292.761 20.668 292.665 20.3072 292.665 19.8782C292.665 19.5089 292.734 19.2035 292.87 18.962C293.006 18.7205 293.192 18.5273 293.428 18.3825C293.664 18.2376 293.93 18.1282 294.225 18.0543C294.523 17.9776 294.832 17.9222 295.15 17.8881C295.533 17.8484 295.844 17.8129 296.083 17.7816C296.322 17.7475 296.495 17.6964 296.603 17.6282C296.714 17.5572 296.769 17.4478 296.769 17.3001V17.2745C296.769 16.9535 296.674 16.7049 296.484 16.5288C296.293 16.3526 296.019 16.2646 295.661 16.2646C295.283 16.2646 294.984 16.3469 294.762 16.5117C294.543 16.6765 294.396 16.8711 294.319 17.0955L292.879 16.891C292.992 16.4933 293.18 16.1609 293.441 15.8938C293.702 15.6239 294.022 15.4222 294.4 15.2887C294.778 15.1523 295.195 15.0842 295.653 15.0842C295.968 15.0842 296.282 15.1211 296.594 15.195C296.907 15.2688 297.192 15.391 297.451 15.5614C297.71 15.729 297.917 15.9577 298.073 16.2475C298.232 16.5373 298.312 16.8995 298.312 17.3342V21.7148H296.829V20.8157H296.778C296.684 20.9975 296.552 21.168 296.381 21.3271C296.214 21.4833 296.002 21.6097 295.746 21.7063C295.494 21.8001 295.197 21.8469 294.856 21.8469ZM295.256 20.7134C295.566 20.7134 295.835 20.6523 296.062 20.5302C296.289 20.4052 296.464 20.2404 296.586 20.0359C296.711 19.8313 296.773 19.6083 296.773 19.3668V18.5955C296.725 18.6353 296.643 18.6722 296.526 18.7063C296.413 18.7404 296.285 18.7702 296.143 18.7958C296.001 18.8214 295.86 18.8441 295.721 18.864C295.582 18.8839 295.461 18.9009 295.359 18.9151C295.129 18.9464 294.923 18.9975 294.741 19.0685C294.559 19.1396 294.415 19.239 294.31 19.3668C294.205 19.4918 294.153 19.6538 294.153 19.8526C294.153 20.1367 294.256 20.3512 294.464 20.4961C294.671 20.641 294.935 20.7134 295.256 20.7134ZM303.131 15.1694V16.3626H299.369V15.1694H303.131ZM300.298 13.6012H301.84V19.7461C301.84 19.9535 301.871 20.1126 301.934 20.2234C301.999 20.3313 302.085 20.4052 302.19 20.445C302.295 20.4847 302.411 20.5046 302.539 20.5046C302.636 20.5046 302.724 20.4975 302.803 20.4833C302.886 20.4691 302.948 20.4563 302.991 20.445L303.251 21.6509C303.168 21.6793 303.05 21.7106 302.897 21.7447C302.746 21.7788 302.562 21.7987 302.343 21.8043C301.957 21.8157 301.609 21.7575 301.299 21.6296C300.989 21.4989 300.744 21.2972 300.562 21.0245C300.383 20.7518 300.295 20.4109 300.298 20.0018V13.6012ZM309.501 16.8995L308.095 17.0529C308.055 16.9109 307.985 16.7773 307.886 16.6523C307.789 16.5273 307.659 16.4265 307.494 16.3498C307.329 16.2731 307.127 16.2347 306.889 16.2347C306.568 16.2347 306.298 16.3043 306.079 16.4435C305.863 16.5827 305.757 16.7631 305.76 16.9847C305.757 17.1751 305.826 17.3299 305.968 17.4492C306.113 17.5685 306.352 17.6665 306.684 17.7433L307.801 17.9819C308.42 18.1154 308.88 18.3271 309.181 18.6168C309.485 18.9066 309.639 19.2859 309.642 19.7546C309.639 20.1665 309.518 20.5302 309.279 20.8455C309.044 21.158 308.716 21.4023 308.295 21.5785C307.875 21.7546 307.392 21.8427 306.846 21.8427C306.045 21.8427 305.4 21.6751 304.912 21.3398C304.423 21.0018 304.132 20.5316 304.038 19.9293L305.542 19.7844C305.61 20.0799 305.755 20.3029 305.977 20.4535C306.199 20.604 306.487 20.6793 306.842 20.6793C307.208 20.6793 307.502 20.604 307.724 20.4535C307.949 20.3029 308.061 20.1168 308.061 19.8952C308.061 19.7077 307.988 19.5529 307.843 19.4308C307.701 19.3086 307.48 19.2148 307.179 19.1495L306.062 18.9151C305.434 18.7844 304.97 18.5643 304.669 18.2546C304.368 17.9421 304.218 17.5472 304.221 17.07C304.218 16.6665 304.328 16.3171 304.549 16.0217C304.774 15.7234 305.085 15.4933 305.483 15.3313C305.883 15.1665 306.345 15.0842 306.868 15.0842C307.635 15.0842 308.238 15.2475 308.679 15.5742C309.122 15.9009 309.396 16.3427 309.501 16.8995Z" fill="white"/>
</svg>
