<svg width="606" height="47" viewBox="0 0 606 47" fill="none" xmlns="http://www.w3.org/2000/svg">
<rect width="606" height="47" rx="23.5" fill="#F3F3F3"/>
<path d="M26.8542 35.125C33.6312 35.125 39.125 29.6312 39.125 22.8542C39.125 16.0772 33.6312 10.5834 26.8542 10.5834C20.0772 10.5834 14.5833 16.0772 14.5833 22.8542C14.5833 29.6312 20.0772 35.125 26.8542 35.125Z" stroke="#292D32" stroke-width="1.5" stroke-linecap="round" stroke-linejoin="round"/>
<path d="M40.4167 36.4167L37.8333 33.8334" stroke="#292D32" stroke-width="1.5" stroke-linecap="round" stroke-linejoin="round"/>
<path opacity="0.8" d="M56.768 29.612C56.032 29.612 55.3707 29.484 54.784 29.228C54.208 28.9613 53.7547 28.5987 53.424 28.14C53.0933 27.6707 52.9227 27.132 52.912 26.524H54.464C54.5173 27.0467 54.7307 27.4893 55.104 27.852C55.488 28.204 56.0427 28.38 56.768 28.38C57.4613 28.38 58.0053 28.2093 58.4 27.868C58.8053 27.516 59.008 27.068 59.008 26.524C59.008 26.0973 58.8907 25.7507 58.656 25.484C58.4213 25.2173 58.128 25.0147 57.776 24.876C57.424 24.7373 56.9493 24.588 56.352 24.428C55.616 24.236 55.024 24.044 54.576 23.852C54.1387 23.66 53.76 23.3613 53.44 22.956C53.1307 22.54 52.976 21.9853 52.976 21.292C52.976 20.684 53.1307 20.1453 53.44 19.676C53.7493 19.2067 54.1813 18.844 54.736 18.588C55.3013 18.332 55.9467 18.204 56.672 18.204C57.7173 18.204 58.5707 18.4653 59.232 18.988C59.904 19.5107 60.2827 20.204 60.368 21.068H58.768C58.7147 20.6413 58.4907 20.268 58.096 19.948C57.7013 19.6173 57.1787 19.452 56.528 19.452C55.92 19.452 55.424 19.612 55.04 19.932C54.656 20.2413 54.464 20.6787 54.464 21.244C54.464 21.6493 54.576 21.98 54.8 22.236C55.0347 22.492 55.3173 22.6893 55.648 22.828C55.9893 22.956 56.464 23.1053 57.072 23.276C57.808 23.4787 58.4 23.6813 58.848 23.884C59.296 24.076 59.68 24.38 60 24.796C60.32 25.2013 60.48 25.756 60.48 26.46C60.48 27.004 60.336 27.516 60.048 27.996C59.76 28.476 59.3333 28.8653 58.768 29.164C58.2027 29.4627 57.536 29.612 56.768 29.612ZM70.6226 24.78C70.6226 25.0573 70.6066 25.3507 70.5746 25.66H63.5666C63.62 26.524 63.9133 27.2013 64.4466 27.692C64.9906 28.172 65.6466 28.412 66.4146 28.412C67.044 28.412 67.5666 28.268 67.9826 27.98C68.4093 27.6813 68.708 27.2867 68.8786 26.796H70.4466C70.212 27.6387 69.7426 28.3267 69.0386 28.86C68.3346 29.3827 67.46 29.644 66.4146 29.644C65.5826 29.644 64.836 29.4573 64.1746 29.084C63.524 28.7107 63.012 28.1827 62.6386 27.5C62.2653 26.8067 62.0786 26.0067 62.0786 25.1C62.0786 24.1933 62.26 23.3987 62.6226 22.716C62.9853 22.0333 63.492 21.5107 64.1426 21.148C64.804 20.7747 65.5613 20.588 66.4146 20.588C67.2466 20.588 67.9826 20.7693 68.6226 21.132C69.2626 21.4947 69.7533 21.996 70.0946 22.636C70.4466 23.2653 70.6226 23.98 70.6226 24.78ZM69.1186 24.476C69.1186 23.9213 68.996 23.4467 68.7506 23.052C68.5053 22.6467 68.1693 22.3427 67.7426 22.14C67.3266 21.9267 66.8626 21.82 66.3506 21.82C65.6146 21.82 64.9853 22.0547 64.4626 22.524C63.9506 22.9933 63.6573 23.644 63.5826 24.476H69.1186ZM72.0005 25.084C72.0005 24.188 72.1818 23.404 72.5445 22.732C72.9072 22.0493 73.4032 21.5213 74.0325 21.148C74.6725 20.7747 75.3818 20.588 76.1605 20.588C76.9285 20.588 77.5952 20.7533 78.1605 21.084C78.7258 21.4147 79.1472 21.8307 79.4245 22.332V20.732H80.8965V29.5H79.4245V27.868C79.1365 28.38 78.7045 28.8067 78.1285 29.148C77.5632 29.4787 76.9018 29.644 76.1445 29.644C75.3658 29.644 74.6618 29.452 74.0325 29.068C73.4032 28.684 72.9072 28.1453 72.5445 27.452C72.1818 26.7587 72.0005 25.9693 72.0005 25.084ZM79.4245 25.1C79.4245 24.4387 79.2912 23.8627 79.0245 23.372C78.7578 22.8813 78.3952 22.508 77.9365 22.252C77.4885 21.9853 76.9925 21.852 76.4485 21.852C75.9045 21.852 75.4085 21.98 74.9605 22.236C74.5125 22.492 74.1552 22.8653 73.8885 23.356C73.6218 23.8467 73.4885 24.4227 73.4885 25.084C73.4885 25.756 73.6218 26.3427 73.8885 26.844C74.1552 27.3347 74.5125 27.7133 74.9605 27.98C75.4085 28.236 75.9045 28.364 76.4485 28.364C76.9925 28.364 77.4885 28.236 77.9365 27.98C78.3952 27.7133 78.7578 27.3347 79.0245 26.844C79.2912 26.3427 79.4245 25.7613 79.4245 25.1ZM84.813 22.156C85.069 21.6547 85.4317 21.2653 85.901 20.988C86.381 20.7107 86.9623 20.572 87.645 20.572V22.076H87.261C85.629 22.076 84.813 22.9613 84.813 24.732V29.5H83.357V20.732H84.813V22.156ZM88.7818 25.1C88.7818 24.1933 88.9631 23.404 89.3258 22.732C89.6884 22.0493 90.1898 21.5213 90.8298 21.148C91.4804 20.7747 92.2218 20.588 93.0538 20.588C94.1311 20.588 95.0164 20.8493 95.7098 21.372C96.4138 21.8947 96.8778 22.62 97.1018 23.548H95.5338C95.3844 23.0147 95.0911 22.5933 94.6538 22.284C94.2271 21.9747 93.6938 21.82 93.0538 21.82C92.2218 21.82 91.5498 22.108 91.0378 22.684C90.5258 23.2493 90.2698 24.0547 90.2698 25.1C90.2698 26.156 90.5258 26.972 91.0378 27.548C91.5498 28.124 92.2218 28.412 93.0538 28.412C93.6938 28.412 94.2271 28.2627 94.6538 27.964C95.0804 27.6653 95.3738 27.2387 95.5338 26.684H97.1018C96.8671 27.58 96.3978 28.3 95.6938 28.844C94.9898 29.3773 94.1098 29.644 93.0538 29.644C92.2218 29.644 91.4804 29.4573 90.8298 29.084C90.1898 28.7107 89.6884 28.1827 89.3258 27.5C88.9631 26.8173 88.7818 26.0173 88.7818 25.1ZM103.397 20.572C104.058 20.572 104.655 20.716 105.189 21.004C105.722 21.2813 106.138 21.7027 106.437 22.268C106.746 22.8333 106.901 23.5213 106.901 24.332V29.5H105.461V24.54C105.461 23.6653 105.242 22.9987 104.805 22.54C104.367 22.0707 103.77 21.836 103.013 21.836C102.245 21.836 101.631 22.076 101.173 22.556C100.725 23.036 100.501 23.7347 100.501 24.652V29.5H99.0445V17.66H100.501V21.98C100.789 21.532 101.183 21.1853 101.685 20.94C102.197 20.6947 102.767 20.572 103.397 20.572ZM117.113 21.932H115.273V29.5H113.817V21.932H112.681V20.732H113.817V20.108C113.817 19.1267 114.067 18.412 114.569 17.964C115.081 17.5053 115.897 17.276 117.016 17.276V18.492C116.377 18.492 115.923 18.62 115.657 18.876C115.401 19.1213 115.273 19.532 115.273 20.108V20.732H117.113V21.932ZM122.634 29.644C121.813 29.644 121.066 29.4573 120.394 29.084C119.733 28.7107 119.21 28.1827 118.826 27.5C118.453 26.8067 118.266 26.0067 118.266 25.1C118.266 24.204 118.458 23.4147 118.842 22.732C119.237 22.0387 119.77 21.5107 120.442 21.148C121.114 20.7747 121.866 20.588 122.698 20.588C123.53 20.588 124.282 20.7747 124.954 21.148C125.626 21.5107 126.154 22.0333 126.538 22.716C126.933 23.3987 127.13 24.1933 127.13 25.1C127.13 26.0067 126.927 26.8067 126.522 27.5C126.127 28.1827 125.589 28.7107 124.906 29.084C124.223 29.4573 123.466 29.644 122.634 29.644ZM122.634 28.364C123.157 28.364 123.647 28.2413 124.106 27.996C124.565 27.7507 124.933 27.3827 125.21 26.892C125.498 26.4013 125.642 25.804 125.642 25.1C125.642 24.396 125.503 23.7987 125.226 23.308C124.949 22.8173 124.586 22.4547 124.138 22.22C123.69 21.9747 123.205 21.852 122.682 21.852C122.149 21.852 121.658 21.9747 121.21 22.22C120.773 22.4547 120.421 22.8173 120.154 23.308C119.887 23.7987 119.754 24.396 119.754 25.1C119.754 25.8147 119.882 26.4173 120.138 26.908C120.405 27.3987 120.757 27.7667 121.194 28.012C121.631 28.2467 122.111 28.364 122.634 28.364ZM130.501 22.156C130.757 21.6547 131.119 21.2653 131.589 20.988C132.069 20.7107 132.65 20.572 133.333 20.572V22.076H132.949C131.317 22.076 130.501 22.9613 130.501 24.732V29.5H129.045V20.732H130.501V22.156ZM138.735 25.084C138.735 24.188 138.916 23.404 139.279 22.732C139.642 22.0493 140.138 21.5213 140.767 21.148C141.407 20.7747 142.116 20.588 142.895 20.588C143.663 20.588 144.33 20.7533 144.895 21.084C145.46 21.4147 145.882 21.8307 146.159 22.332V20.732H147.631V29.5H146.159V27.868C145.871 28.38 145.439 28.8067 144.863 29.148C144.298 29.4787 143.636 29.644 142.879 29.644C142.1 29.644 141.396 29.452 140.767 29.068C140.138 28.684 139.642 28.1453 139.279 27.452C138.916 26.7587 138.735 25.9693 138.735 25.084ZM146.159 25.1C146.159 24.4387 146.026 23.8627 145.759 23.372C145.492 22.8813 145.13 22.508 144.671 22.252C144.223 21.9853 143.727 21.852 143.183 21.852C142.639 21.852 142.143 21.98 141.695 22.236C141.247 22.492 140.89 22.8653 140.623 23.356C140.356 23.8467 140.223 24.4227 140.223 25.084C140.223 25.756 140.356 26.3427 140.623 26.844C140.89 27.3347 141.247 27.7133 141.695 27.98C142.143 28.236 142.639 28.364 143.183 28.364C143.727 28.364 144.223 28.236 144.671 27.98C145.13 27.7133 145.492 27.3347 145.759 26.844C146.026 26.3427 146.159 25.7613 146.159 25.1ZM154.363 20.572C155.43 20.572 156.294 20.8973 156.955 21.548C157.617 22.188 157.947 23.116 157.947 24.332V29.5H156.507V24.54C156.507 23.6653 156.289 22.9987 155.851 22.54C155.414 22.0707 154.817 21.836 154.059 21.836C153.291 21.836 152.678 22.076 152.219 22.556C151.771 23.036 151.547 23.7347 151.547 24.652V29.5H150.091V20.732H151.547V21.98C151.835 21.532 152.225 21.1853 152.715 20.94C153.217 20.6947 153.766 20.572 154.363 20.572ZM164.047 25.084C164.047 24.188 164.229 23.404 164.591 22.732C164.954 22.0493 165.45 21.5213 166.079 21.148C166.719 20.7747 167.429 20.588 168.207 20.588C168.975 20.588 169.642 20.7533 170.207 21.084C170.773 21.4147 171.194 21.8307 171.471 22.332V20.732H172.943V29.5H171.471V27.868C171.183 28.38 170.751 28.8067 170.175 29.148C169.61 29.4787 168.949 29.644 168.191 29.644C167.413 29.644 166.709 29.452 166.079 29.068C165.45 28.684 164.954 28.1453 164.591 27.452C164.229 26.7587 164.047 25.9693 164.047 25.084ZM171.471 25.1C171.471 24.4387 171.338 23.8627 171.071 23.372C170.805 22.8813 170.442 22.508 169.983 22.252C169.535 21.9853 169.039 21.852 168.495 21.852C167.951 21.852 167.455 21.98 167.007 22.236C166.559 22.492 166.202 22.8653 165.935 23.356C165.669 23.8467 165.535 24.4227 165.535 25.084C165.535 25.756 165.669 26.3427 165.935 26.844C166.202 27.3347 166.559 27.7133 167.007 27.98C167.455 28.236 167.951 28.364 168.495 28.364C169.039 28.364 169.535 28.236 169.983 27.98C170.442 27.7133 170.805 27.3347 171.071 26.844C171.338 26.3427 171.471 25.7613 171.471 25.1ZM178.508 29.644C177.836 29.644 177.233 29.532 176.7 29.308C176.167 29.0733 175.745 28.7533 175.436 28.348C175.127 27.932 174.956 27.4573 174.924 26.924H176.428C176.471 27.3613 176.673 27.7187 177.036 27.996C177.409 28.2733 177.895 28.412 178.492 28.412C179.047 28.412 179.484 28.2893 179.804 28.044C180.124 27.7987 180.284 27.4893 180.284 27.116C180.284 26.732 180.113 26.4493 179.772 26.268C179.431 26.076 178.903 25.8893 178.188 25.708C177.537 25.5373 177.004 25.3667 176.588 25.196C176.183 25.0147 175.831 24.7533 175.532 24.412C175.244 24.06 175.1 23.6013 175.1 23.036C175.1 22.588 175.233 22.1773 175.5 21.804C175.767 21.4307 176.145 21.1373 176.636 20.924C177.127 20.7 177.687 20.588 178.316 20.588C179.287 20.588 180.071 20.8333 180.668 21.324C181.265 21.8147 181.585 22.4867 181.628 23.34H180.172C180.14 22.8813 179.953 22.5133 179.612 22.236C179.281 21.9587 178.833 21.82 178.268 21.82C177.745 21.82 177.329 21.932 177.02 22.156C176.711 22.38 176.556 22.6733 176.556 23.036C176.556 23.324 176.647 23.564 176.828 23.756C177.02 23.9373 177.255 24.0867 177.532 24.204C177.82 24.3107 178.215 24.4333 178.716 24.572C179.345 24.7427 179.857 24.9133 180.252 25.084C180.647 25.244 180.983 25.4893 181.26 25.82C181.548 26.1507 181.697 26.5827 181.708 27.116C181.708 27.596 181.575 28.028 181.308 28.412C181.041 28.796 180.663 29.1 180.172 29.324C179.692 29.5373 179.137 29.644 178.508 29.644ZM186.867 29.644C186.195 29.644 185.593 29.532 185.059 29.308C184.526 29.0733 184.105 28.7533 183.795 28.348C183.486 27.932 183.315 27.4573 183.283 26.924H184.787C184.83 27.3613 185.033 27.7187 185.395 27.996C185.769 28.2733 186.254 28.412 186.851 28.412C187.406 28.412 187.843 28.2893 188.163 28.044C188.483 27.7987 188.643 27.4893 188.643 27.116C188.643 26.732 188.473 26.4493 188.131 26.268C187.79 26.076 187.262 25.8893 186.547 25.708C185.897 25.5373 185.363 25.3667 184.947 25.196C184.542 25.0147 184.19 24.7533 183.891 24.412C183.603 24.06 183.459 23.6013 183.459 23.036C183.459 22.588 183.593 22.1773 183.859 21.804C184.126 21.4307 184.505 21.1373 184.995 20.924C185.486 20.7 186.046 20.588 186.675 20.588C187.646 20.588 188.43 20.8333 189.027 21.324C189.625 21.8147 189.945 22.4867 189.987 23.34H188.531C188.499 22.8813 188.313 22.5133 187.971 22.236C187.641 21.9587 187.193 21.82 186.627 21.82C186.105 21.82 185.689 21.932 185.379 22.156C185.07 22.38 184.915 22.6733 184.915 23.036C184.915 23.324 185.006 23.564 185.187 23.756C185.379 23.9373 185.614 24.0867 185.891 24.204C186.179 24.3107 186.574 24.4333 187.075 24.572C187.705 24.7427 188.217 24.9133 188.611 25.084C189.006 25.244 189.342 25.4893 189.619 25.82C189.907 26.1507 190.057 26.5827 190.067 27.116C190.067 27.596 189.934 28.028 189.667 28.412C189.401 28.796 189.022 29.1 188.531 29.324C188.051 29.5373 187.497 29.644 186.867 29.644ZM200.123 24.78C200.123 25.0573 200.107 25.3507 200.075 25.66H193.067C193.12 26.524 193.413 27.2013 193.947 27.692C194.491 28.172 195.147 28.412 195.915 28.412C196.544 28.412 197.067 28.268 197.483 27.98C197.909 27.6813 198.208 27.2867 198.379 26.796H199.947C199.712 27.6387 199.243 28.3267 198.539 28.86C197.835 29.3827 196.96 29.644 195.915 29.644C195.083 29.644 194.336 29.4573 193.675 29.084C193.024 28.7107 192.512 28.1827 192.139 27.5C191.765 26.8067 191.579 26.0067 191.579 25.1C191.579 24.1933 191.76 23.3987 192.123 22.716C192.485 22.0333 192.992 21.5107 193.643 21.148C194.304 20.7747 195.061 20.588 195.915 20.588C196.747 20.588 197.483 20.7693 198.123 21.132C198.763 21.4947 199.253 21.996 199.595 22.636C199.947 23.2653 200.123 23.98 200.123 24.78ZM198.619 24.476C198.619 23.9213 198.496 23.4467 198.251 23.052C198.005 22.6467 197.669 22.3427 197.243 22.14C196.827 21.9267 196.363 21.82 195.851 21.82C195.115 21.82 194.485 22.0547 193.963 22.524C193.451 22.9933 193.157 23.644 193.083 24.476H198.619ZM203.821 21.932V27.1C203.821 27.5267 203.911 27.8307 204.093 28.012C204.274 28.1827 204.589 28.268 205.036 28.268H206.109V29.5H204.797C203.986 29.5 203.378 29.3133 202.973 28.94C202.567 28.5667 202.365 27.9533 202.365 27.1V21.932H201.229V20.732H202.365V18.524H203.821V20.732H206.109V21.932H203.821Z" fill="black"/>
</svg>
