<svg width="352" height="89" viewBox="0 0 352 89" fill="none" xmlns="http://www.w3.org/2000/svg">
<g filter="url(#filter0_dd_307_36724)">
<rect x="12.9238" y="0.199219" width="327" height="64" rx="10" fill="white"/>
<path d="M43.8339 31.3192V26.9292C43.8339 26.1092 43.2139 25.1792 42.4439 24.8692L36.8739 22.5892C35.6239 22.0792 34.2139 22.0792 32.9639 22.5892L27.3939 24.8692C26.6339 25.1792 26.0139 26.1092 26.0139 26.9292V31.3192C26.0139 36.2092 29.5639 40.7892 34.4139 42.1292C34.7439 42.2192 35.1039 42.2192 35.4339 42.1292C40.2839 40.7892 43.8339 36.2092 43.8339 31.3192ZM35.6739 33.0692V35.6992C35.6739 36.1092 35.3339 36.4492 34.9239 36.4492C34.5139 36.4492 34.1739 36.1092 34.1739 35.6992V33.0692C33.1639 32.7492 32.4239 31.8092 32.4239 30.6992C32.4239 29.3192 33.5439 28.1992 34.9239 28.1992C36.3039 28.1992 37.4239 29.3192 37.4239 30.6992C37.4239 31.8192 36.6839 32.7492 35.6739 33.0692Z" fill="#292D32"/>
<path opacity="0.8" d="M70.5488 29.1197C70.4882 28.5818 70.2382 28.1651 69.7988 27.8697C69.3594 27.5704 68.8064 27.4208 68.1397 27.4208C67.6625 27.4208 67.2496 27.4966 66.9011 27.6481C66.5526 27.7958 66.2818 28.0004 66.0886 28.2617C65.8992 28.5193 65.8045 28.8129 65.8045 29.1424C65.8045 29.4189 65.8689 29.6576 65.9977 29.8583C66.1303 30.0591 66.3026 30.2276 66.5147 30.364C66.7306 30.4966 66.9617 30.6083 67.2079 30.6992C67.4541 30.7863 67.6909 30.8583 67.9181 30.9151L69.0545 31.2106C69.4257 31.3015 69.8064 31.4246 70.1966 31.5799C70.5867 31.7352 70.9484 31.9397 71.2818 32.1935C71.6151 32.4473 71.8841 32.7617 72.0886 33.1367C72.2969 33.5117 72.4011 33.9606 72.4011 34.4833C72.4011 35.1424 72.2306 35.7276 71.8897 36.239C71.5526 36.7504 71.0621 37.1538 70.4181 37.4492C69.778 37.7447 69.0034 37.8924 68.0943 37.8924C67.2231 37.8924 66.4693 37.7541 65.8329 37.4776C65.1966 37.2011 64.6984 36.8091 64.3386 36.3015C63.9788 35.7901 63.7799 35.1841 63.742 34.4833H65.5034C65.5375 34.9038 65.6738 35.2541 65.9125 35.5344C66.1549 35.811 66.4636 36.0174 66.8386 36.1538C67.2174 36.2863 67.6322 36.3526 68.0829 36.3526C68.5791 36.3526 69.0204 36.275 69.4068 36.1197C69.7969 35.9606 70.1038 35.7409 70.3272 35.4606C70.5507 35.1765 70.6625 34.8451 70.6625 34.4663C70.6625 34.1216 70.564 33.8394 70.367 33.6197C70.1738 33.4 69.9106 33.2182 69.5772 33.0742C69.2477 32.9303 68.8746 32.8034 68.4579 32.6935L67.0829 32.3185C66.1511 32.0647 65.4125 31.6916 64.867 31.1992C64.3253 30.7068 64.0545 30.0553 64.0545 29.2447C64.0545 28.5742 64.2363 27.989 64.6 27.489C64.9636 26.989 65.456 26.6007 66.0772 26.3242C66.6984 26.0439 67.3992 25.9038 68.1795 25.9038C68.9674 25.9038 69.6625 26.042 70.2647 26.3185C70.8708 26.5951 71.3481 26.9757 71.6966 27.4606C72.045 27.9416 72.2269 28.4947 72.242 29.1197H70.5488ZM78.1241 37.8754C77.2643 37.8754 76.5237 37.6916 75.9025 37.3242C75.2851 36.953 74.8078 36.4322 74.4707 35.7617C74.1374 35.0875 73.9707 34.2977 73.9707 33.3924C73.9707 32.4985 74.1374 31.7106 74.4707 31.0288C74.8078 30.3469 75.2775 29.8147 75.8798 29.4322C76.4859 29.0496 77.1942 28.8583 78.0048 28.8583C78.4972 28.8583 78.9745 28.9397 79.4366 29.1026C79.8987 29.2655 80.3135 29.5212 80.6809 29.8697C81.0484 30.2182 81.3381 30.6708 81.5502 31.2276C81.7624 31.7807 81.8684 32.453 81.8684 33.2447V33.8469H74.9309V32.5742H80.2037C80.2037 32.1272 80.1127 31.7314 79.9309 31.3867C79.7491 31.0382 79.4934 30.7636 79.1639 30.5629C78.8381 30.3621 78.4556 30.2617 78.0162 30.2617C77.5389 30.2617 77.1222 30.3791 76.7662 30.614C76.4139 30.8451 76.1412 31.1481 75.948 31.5231C75.7586 31.8943 75.6639 32.2977 75.6639 32.7333V33.7276C75.6639 34.311 75.7662 34.8072 75.9707 35.2163C76.179 35.6254 76.4688 35.9379 76.84 36.1538C77.2112 36.3659 77.6449 36.4719 78.1412 36.4719C78.4631 36.4719 78.7567 36.4265 79.0218 36.3356C79.287 36.2409 79.5162 36.1007 79.7093 35.9151C79.9025 35.7295 80.0502 35.5004 80.1525 35.2276L81.7605 35.5174C81.6317 35.9909 81.4006 36.4057 81.0673 36.7617C80.7377 37.114 80.323 37.3886 79.823 37.5856C79.3268 37.7788 78.7605 37.8754 78.1241 37.8754ZM87.4295 37.8754C86.5848 37.8754 85.8575 37.6841 85.2477 37.3015C84.6416 36.9151 84.1757 36.3829 83.85 35.7049C83.5242 35.0269 83.3613 34.2504 83.3613 33.3754C83.3613 32.489 83.528 31.7068 83.8613 31.0288C84.1947 30.3469 84.6644 29.8147 85.2704 29.4322C85.8765 29.0496 86.5905 28.8583 87.4125 28.8583C88.0753 28.8583 88.6663 28.9814 89.1852 29.2276C89.7041 29.4701 90.1227 29.811 90.4409 30.2504C90.7628 30.6897 90.9541 31.203 91.0147 31.7901H89.3613C89.2704 31.381 89.0621 31.0288 88.7363 30.7333C88.4144 30.4379 87.9825 30.2901 87.4409 30.2901C86.9674 30.2901 86.5526 30.4151 86.1966 30.6651C85.8443 30.9113 85.5697 31.2636 85.3727 31.7219C85.1757 32.1765 85.0772 32.7144 85.0772 33.3356C85.0772 33.9719 85.1738 34.5212 85.367 34.9833C85.5602 35.4454 85.8329 35.8034 86.1852 36.0572C86.5413 36.311 86.9598 36.4379 87.4409 36.4379C87.7628 36.4379 88.0545 36.3791 88.3159 36.2617C88.581 36.1405 88.8026 35.9682 88.9806 35.7447C89.1625 35.5212 89.2894 35.2522 89.3613 34.9379H91.0147C90.9541 35.5022 90.7704 36.006 90.4636 36.4492C90.1568 36.8924 89.7458 37.2409 89.2306 37.4947C88.7193 37.7485 88.1189 37.8754 87.4295 37.8754ZM98.3599 34.0799V28.9719H100.064V37.6992H98.394V36.1879H98.3031C98.1023 36.6538 97.7804 37.042 97.3372 37.3526C96.8978 37.6594 96.3504 37.8129 95.6951 37.8129C95.1345 37.8129 94.6383 37.6897 94.2065 37.4435C93.7785 37.1935 93.4413 36.8242 93.1951 36.3356C92.9527 35.8469 92.8315 35.2428 92.8315 34.5231V28.9719H94.5304V34.3185C94.5304 34.9132 94.6951 35.3867 95.0247 35.739C95.3542 36.0913 95.7823 36.2674 96.3088 36.2674C96.627 36.2674 96.9432 36.1879 97.2576 36.0288C97.5758 35.8697 97.8391 35.6291 98.0474 35.3072C98.2595 34.9852 98.3637 34.5761 98.3599 34.0799ZM102.347 37.6992V28.9719H103.989V30.3583H104.08C104.239 29.8886 104.519 29.5193 104.921 29.2504C105.326 28.9776 105.785 28.8413 106.296 28.8413C106.402 28.8413 106.527 28.8451 106.671 28.8526C106.819 28.8602 106.934 28.8697 107.018 28.881V30.506C106.949 30.4871 106.828 30.4663 106.654 30.4435C106.48 30.417 106.305 30.4038 106.131 30.4038C105.73 30.4038 105.372 30.489 105.057 30.6594C104.747 30.8261 104.501 31.0591 104.319 31.3583C104.137 31.6538 104.046 31.9909 104.046 32.3697V37.6992H102.347ZM108.488 37.6992V28.9719H110.187V37.6992H108.488ZM109.346 27.6254C109.05 27.6254 108.796 27.5269 108.584 27.3299C108.376 27.1291 108.272 26.8905 108.272 26.614C108.272 26.3337 108.376 26.0951 108.584 25.8981C108.796 25.6973 109.05 25.5969 109.346 25.5969C109.641 25.5969 109.893 25.6973 110.101 25.8981C110.314 26.0951 110.42 26.3337 110.42 26.614C110.42 26.8905 110.314 27.1291 110.101 27.3299C109.893 27.5269 109.641 27.6254 109.346 27.6254ZM116.546 28.9719V30.3356H111.779V28.9719H116.546ZM113.057 26.881H114.756V35.1367C114.756 35.4663 114.805 35.7144 114.904 35.881C115.002 36.0439 115.129 36.1557 115.285 36.2163C115.444 36.2731 115.616 36.3015 115.802 36.3015C115.938 36.3015 116.057 36.292 116.16 36.2731C116.262 36.2541 116.341 36.239 116.398 36.2276L116.705 37.631C116.607 37.6689 116.466 37.7068 116.285 37.7447C116.103 37.7863 115.876 37.8091 115.603 37.8129C115.156 37.8204 114.739 37.7409 114.353 37.5742C113.966 37.4076 113.654 37.15 113.415 36.8015C113.177 36.453 113.057 36.0155 113.057 35.489V26.881ZM119.499 40.9719C119.245 40.9719 119.014 40.9511 118.806 40.9094C118.598 40.8716 118.442 40.8299 118.34 40.7844L118.749 39.3924C119.06 39.4757 119.336 39.5117 119.579 39.5004C119.821 39.489 120.035 39.3981 120.221 39.2276C120.41 39.0572 120.577 38.7788 120.721 38.3924L120.931 37.8129L117.738 28.9719H119.556L121.766 35.7447H121.857L124.067 28.9719H125.891L122.295 38.864C122.128 39.3185 121.916 39.703 121.658 40.0174C121.401 40.3356 121.094 40.5742 120.738 40.7333C120.382 40.8924 119.969 40.9719 119.499 40.9719Z" fill="black"/>
<path d="M319.89 26.9192L324.237 31.2659C324.75 31.7792 324.75 32.6192 324.237 33.1326L319.89 37.4792" stroke="#292D32" stroke-width="2" stroke-miterlimit="10" stroke-linecap="round" stroke-linejoin="round"/>
</g>
<defs>
<filter id="filter0_dd_307_36724" x="0.923828" y="0.199219" width="351" height="88" filterUnits="userSpaceOnUse" color-interpolation-filters="sRGB">
<feFlood flood-opacity="0" result="BackgroundImageFix"/>
<feColorMatrix in="SourceAlpha" type="matrix" values="0 0 0 0 0 0 0 0 0 0 0 0 0 0 0 0 0 0 127 0" result="hardAlpha"/>
<feMorphology radius="2" operator="erode" in="SourceAlpha" result="effect1_dropShadow_307_36724"/>
<feOffset dy="4"/>
<feGaussianBlur stdDeviation="3"/>
<feColorMatrix type="matrix" values="0 0 0 0 0.0627451 0 0 0 0 0.0941176 0 0 0 0 0.156863 0 0 0 0.03 0"/>
<feBlend mode="normal" in2="BackgroundImageFix" result="effect1_dropShadow_307_36724"/>
<feColorMatrix in="SourceAlpha" type="matrix" values="0 0 0 0 0 0 0 0 0 0 0 0 0 0 0 0 0 0 127 0" result="hardAlpha"/>
<feMorphology radius="4" operator="erode" in="SourceAlpha" result="effect2_dropShadow_307_36724"/>
<feOffset dy="12"/>
<feGaussianBlur stdDeviation="8"/>
<feColorMatrix type="matrix" values="0 0 0 0 0.0627451 0 0 0 0 0.0941176 0 0 0 0 0.156863 0 0 0 0.08 0"/>
<feBlend mode="normal" in2="effect1_dropShadow_307_36724" result="effect2_dropShadow_307_36724"/>
<feBlend mode="normal" in="SourceGraphic" in2="effect2_dropShadow_307_36724" result="shape"/>
</filter>
</defs>
</svg>
