<svg width="351" height="88" viewBox="0 0 351 88" fill="none" xmlns="http://www.w3.org/2000/svg">
<g filter="url(#filter0_dd_307_36502)">
<rect x="12" width="327" height="64" rx="10" fill="white"/>
<path d="M42.1 29.22C40.29 29.22 39.55 27.94 40.45 26.37C40.97 25.46 40.66 24.3 39.75 23.78L38.02 22.79C37.23 22.32 36.21 22.6 35.74 23.39L35.63 23.58C34.73 25.15 33.25 25.15 32.34 23.58L32.23 23.39C31.78 22.6 30.76 22.32 29.97 22.79L28.24 23.78C27.33 24.3 27.02 25.47 27.54 26.38C28.45 27.94 27.71 29.22 25.9 29.22C24.86 29.22 24 30.07 24 31.12V32.88C24 33.92 24.85 34.78 25.9 34.78C27.71 34.78 28.45 36.06 27.54 37.63C27.02 38.54 27.33 39.7 28.24 40.22L29.97 41.21C30.76 41.68 31.78 41.4 32.25 40.61L32.36 40.42C33.26 38.85 34.74 38.85 35.65 40.42L35.76 40.61C36.23 41.4 37.25 41.68 38.04 41.21L39.77 40.22C40.68 39.7 40.99 38.53 40.47 37.63C39.56 36.06 40.3 34.78 42.11 34.78C43.15 34.78 44.01 33.93 44.01 32.88V31.12C44 30.08 43.15 29.22 42.1 29.22ZM34 35.25C32.21 35.25 30.75 33.79 30.75 32C30.75 30.21 32.21 28.75 34 28.75C35.79 28.75 37.25 30.21 37.25 32C37.25 33.79 35.79 35.25 34 35.25Z" fill="#292D32"/>
<path opacity="0.8" d="M69.625 28.9205C69.5644 28.3826 69.3144 27.9659 68.875 27.6705C68.4356 27.3712 67.8826 27.2216 67.2159 27.2216C66.7386 27.2216 66.3258 27.2973 65.9773 27.4489C65.6288 27.5966 65.358 27.8011 65.1648 28.0625C64.9754 28.3201 64.8807 28.6136 64.8807 28.9432C64.8807 29.2197 64.9451 29.4583 65.0739 29.6591C65.2064 29.8598 65.3788 30.0284 65.5909 30.1648C65.8068 30.2973 66.0379 30.4091 66.2841 30.5C66.5303 30.5871 66.767 30.6591 66.9943 30.7159L68.1307 31.0114C68.5019 31.1023 68.8826 31.2254 69.2727 31.3807C69.6629 31.536 70.0246 31.7405 70.358 31.9943C70.6913 32.2481 70.9602 32.5625 71.1648 32.9375C71.3731 33.3125 71.4773 33.7614 71.4773 34.2841C71.4773 34.9432 71.3068 35.5284 70.9659 36.0398C70.6288 36.5511 70.1383 36.9545 69.4943 37.25C68.8542 37.5455 68.0795 37.6932 67.1705 37.6932C66.2992 37.6932 65.5455 37.5549 64.9091 37.2784C64.2727 37.0019 63.7746 36.6098 63.4148 36.1023C63.0549 35.5909 62.8561 34.9848 62.8182 34.2841H64.5795C64.6136 34.7045 64.75 35.0549 64.9886 35.3352C65.2311 35.6117 65.5398 35.8182 65.9148 35.9545C66.2936 36.0871 66.7083 36.1534 67.1591 36.1534C67.6553 36.1534 68.0966 36.0758 68.483 35.9205C68.8731 35.7614 69.1799 35.5417 69.4034 35.2614C69.6269 34.9773 69.7386 34.6458 69.7386 34.267C69.7386 33.9223 69.6402 33.6402 69.4432 33.4205C69.25 33.2008 68.9867 33.0189 68.6534 32.875C68.3239 32.7311 67.9508 32.6042 67.5341 32.4943L66.1591 32.1193C65.2273 31.8655 64.4886 31.4924 63.9432 31C63.4015 30.5076 63.1307 29.8561 63.1307 29.0455C63.1307 28.375 63.3125 27.7898 63.6761 27.2898C64.0398 26.7898 64.5322 26.4015 65.1534 26.125C65.7746 25.8447 66.4754 25.7045 67.2557 25.7045C68.0436 25.7045 68.7386 25.8428 69.3409 26.1193C69.947 26.3958 70.4242 26.7765 70.7727 27.2614C71.1212 27.7424 71.303 28.2955 71.3182 28.9205H69.625ZM77.2003 37.6761C76.3404 37.6761 75.5999 37.4924 74.9787 37.125C74.3613 36.7538 73.884 36.233 73.5469 35.5625C73.2135 34.8883 73.0469 34.0985 73.0469 33.1932C73.0469 32.2992 73.2135 31.5114 73.5469 30.8295C73.884 30.1477 74.3537 29.6155 74.956 29.233C75.562 28.8504 76.2704 28.6591 77.081 28.6591C77.5734 28.6591 78.0507 28.7405 78.5128 28.9034C78.9749 29.0663 79.3897 29.322 79.7571 29.6705C80.1245 30.0189 80.4143 30.4716 80.6264 31.0284C80.8385 31.5814 80.9446 32.2538 80.9446 33.0455V33.6477H74.0071V32.375H79.2798C79.2798 31.928 79.1889 31.5322 79.0071 31.1875C78.8253 30.839 78.5696 30.5644 78.2401 30.3636C77.9143 30.1629 77.5317 30.0625 77.0923 30.0625C76.6151 30.0625 76.1984 30.1799 75.8423 30.4148C75.4901 30.6458 75.2173 30.9489 75.0241 31.3239C74.8348 31.6951 74.7401 32.0985 74.7401 32.5341V33.5284C74.7401 34.1117 74.8423 34.608 75.0469 35.017C75.2552 35.4261 75.545 35.7386 75.9162 35.9545C76.2874 36.1667 76.7211 36.2727 77.2173 36.2727C77.5393 36.2727 77.8329 36.2273 78.098 36.1364C78.3632 36.0417 78.5923 35.9015 78.7855 35.7159C78.9787 35.5303 79.1264 35.3011 79.2287 35.0284L80.8366 35.3182C80.7079 35.7917 80.4768 36.2064 80.1435 36.5625C79.8139 36.9148 79.3991 37.1894 78.8991 37.3864C78.4029 37.5795 77.8366 37.6761 77.2003 37.6761ZM86.9034 28.7727V30.1364H82.1364V28.7727H86.9034ZM83.4148 26.6818H85.1136V34.9375C85.1136 35.267 85.1629 35.5152 85.2614 35.6818C85.3598 35.8447 85.4867 35.9564 85.642 36.017C85.8011 36.0739 85.9735 36.1023 86.1591 36.1023C86.2955 36.1023 86.4148 36.0928 86.517 36.0739C86.6193 36.0549 86.6989 36.0398 86.7557 36.0284L87.0625 37.4318C86.964 37.4697 86.8239 37.5076 86.642 37.5455C86.4602 37.5871 86.233 37.6098 85.9602 37.6136C85.5133 37.6212 85.0966 37.5417 84.7102 37.375C84.3239 37.2083 84.0114 36.9508 83.7727 36.6023C83.5341 36.2538 83.4148 35.8163 83.4148 35.2898V26.6818ZM92.8565 28.7727V30.1364H88.0895V28.7727H92.8565ZM89.3679 26.6818H91.0668V34.9375C91.0668 35.267 91.116 35.5152 91.2145 35.6818C91.313 35.8447 91.4399 35.9564 91.5952 36.017C91.7543 36.0739 91.9266 36.1023 92.1122 36.1023C92.2486 36.1023 92.3679 36.0928 92.4702 36.0739C92.5724 36.0549 92.652 36.0398 92.7088 36.0284L93.0156 37.4318C92.9171 37.4697 92.777 37.5076 92.5952 37.5455C92.4134 37.5871 92.1861 37.6098 91.9134 37.6136C91.4664 37.6212 91.0497 37.5417 90.6634 37.375C90.277 37.2083 89.9645 36.9508 89.7259 36.6023C89.4872 36.2538 89.3679 35.8163 89.3679 35.2898V26.6818ZM94.7358 37.5V28.7727H96.4347V37.5H94.7358ZM95.5938 27.4261C95.2983 27.4261 95.0445 27.3277 94.8324 27.1307C94.6241 26.9299 94.5199 26.6913 94.5199 26.4148C94.5199 26.1345 94.6241 25.8958 94.8324 25.6989C95.0445 25.4981 95.2983 25.3977 95.5938 25.3977C95.8892 25.3977 96.1411 25.4981 96.3494 25.6989C96.5616 25.8958 96.6676 26.1345 96.6676 26.4148C96.6676 26.6913 96.5616 26.9299 96.3494 27.1307C96.1411 27.3277 95.8892 27.4261 95.5938 27.4261ZM100.419 32.3182V37.5H98.7202V28.7727H100.351V30.1932H100.459C100.66 29.7311 100.974 29.3598 101.402 29.0795C101.834 28.7992 102.377 28.6591 103.033 28.6591C103.627 28.6591 104.148 28.7841 104.595 29.0341C105.042 29.2803 105.389 29.6477 105.635 30.1364C105.881 30.625 106.004 31.2292 106.004 31.9489V37.5H104.305V32.1534C104.305 31.5208 104.141 31.0265 103.811 30.6705C103.482 30.3106 103.029 30.1307 102.453 30.1307C102.059 30.1307 101.709 30.2159 101.402 30.3864C101.099 30.5568 100.858 30.8068 100.68 31.1364C100.506 31.4621 100.419 31.8561 100.419 32.3182ZM111.942 40.9545C111.249 40.9545 110.652 40.8636 110.152 40.6818C109.656 40.5 109.25 40.2595 108.936 39.9602C108.622 39.661 108.387 39.3333 108.232 38.9773L109.692 38.375C109.794 38.5417 109.93 38.7178 110.101 38.9034C110.275 39.0928 110.51 39.2538 110.805 39.3864C111.105 39.5189 111.489 39.5852 111.959 39.5852C112.603 39.5852 113.135 39.428 113.555 39.1136C113.976 38.803 114.186 38.3068 114.186 37.625V35.9091H114.078C113.976 36.0947 113.828 36.3011 113.635 36.5284C113.446 36.7557 113.184 36.9527 112.851 37.1193C112.518 37.286 112.084 37.3693 111.55 37.3693C110.86 37.3693 110.239 37.2083 109.686 36.8864C109.137 36.5606 108.701 36.0814 108.379 35.4489C108.061 34.8125 107.902 34.0303 107.902 33.1023C107.902 32.1742 108.059 31.3788 108.374 30.7159C108.692 30.053 109.127 29.5455 109.68 29.1932C110.233 28.8371 110.86 28.6591 111.561 28.6591C112.103 28.6591 112.54 28.75 112.874 28.9318C113.207 29.1098 113.466 29.3182 113.652 29.5568C113.841 29.7955 113.987 30.0057 114.089 30.1875H114.214V28.7727H115.879V37.6932C115.879 38.4432 115.705 39.0587 115.357 39.5398C115.008 40.0208 114.536 40.3769 113.942 40.608C113.351 40.839 112.684 40.9545 111.942 40.9545ZM111.925 35.9602C112.413 35.9602 112.826 35.8466 113.163 35.6193C113.504 35.3883 113.762 35.0587 113.936 34.6307C114.114 34.1989 114.203 33.6818 114.203 33.0795C114.203 32.4924 114.116 31.9754 113.942 31.5284C113.768 31.0814 113.512 30.733 113.175 30.483C112.838 30.2292 112.421 30.1023 111.925 30.1023C111.413 30.1023 110.987 30.2348 110.646 30.5C110.305 30.7614 110.048 31.1174 109.874 31.5682C109.703 32.0189 109.618 32.5227 109.618 33.0795C109.618 33.6515 109.705 34.1534 109.879 34.5852C110.054 35.017 110.311 35.3542 110.652 35.5966C110.997 35.839 111.421 35.9602 111.925 35.9602ZM124.697 30.9034L123.158 31.1761C123.093 30.9792 122.991 30.7917 122.851 30.6136C122.714 30.4356 122.529 30.2898 122.294 30.1761C122.059 30.0625 121.766 30.0057 121.413 30.0057C120.932 30.0057 120.531 30.1136 120.209 30.3295C119.887 30.5417 119.726 30.8163 119.726 31.1534C119.726 31.4451 119.834 31.6799 120.05 31.858C120.266 32.036 120.614 32.1818 121.095 32.2955L122.482 32.6136C123.285 32.7992 123.883 33.0852 124.277 33.4716C124.671 33.858 124.868 34.3598 124.868 34.9773C124.868 35.5 124.716 35.9659 124.413 36.375C124.114 36.7803 123.696 37.0985 123.158 37.3295C122.624 37.5606 122.004 37.6761 121.3 37.6761C120.322 37.6761 119.525 37.4678 118.908 37.0511C118.29 36.6307 117.911 36.0341 117.771 35.2614L119.413 35.0114C119.516 35.4394 119.726 35.7633 120.044 35.983C120.362 36.1989 120.777 36.3068 121.288 36.3068C121.845 36.3068 122.29 36.1913 122.624 35.9602C122.957 35.7254 123.124 35.4394 123.124 35.1023C123.124 34.8295 123.021 34.6004 122.817 34.4148C122.616 34.2292 122.307 34.089 121.891 33.9943L120.413 33.6705C119.599 33.4848 118.997 33.1894 118.607 32.7841C118.22 32.3788 118.027 31.8655 118.027 31.2443C118.027 30.7292 118.171 30.2784 118.459 29.892C118.747 29.5057 119.144 29.2045 119.652 28.9886C120.16 28.7689 120.741 28.6591 121.396 28.6591C122.339 28.6591 123.082 28.8636 123.624 29.2727C124.165 29.678 124.523 30.2216 124.697 30.9034Z" fill="black"/>
<path d="M318.967 26.72L323.313 31.0667C323.827 31.58 323.827 32.42 323.313 32.9334L318.967 37.28" stroke="#292D32" stroke-width="2" stroke-miterlimit="10" stroke-linecap="round" stroke-linejoin="round"/>
</g>
<defs>
<filter id="filter0_dd_307_36502" x="0" y="0" width="351" height="88" filterUnits="userSpaceOnUse" color-interpolation-filters="sRGB">
<feFlood flood-opacity="0" result="BackgroundImageFix"/>
<feColorMatrix in="SourceAlpha" type="matrix" values="0 0 0 0 0 0 0 0 0 0 0 0 0 0 0 0 0 0 127 0" result="hardAlpha"/>
<feMorphology radius="2" operator="erode" in="SourceAlpha" result="effect1_dropShadow_307_36502"/>
<feOffset dy="4"/>
<feGaussianBlur stdDeviation="3"/>
<feColorMatrix type="matrix" values="0 0 0 0 0.0627451 0 0 0 0 0.0941176 0 0 0 0 0.156863 0 0 0 0.03 0"/>
<feBlend mode="normal" in2="BackgroundImageFix" result="effect1_dropShadow_307_36502"/>
<feColorMatrix in="SourceAlpha" type="matrix" values="0 0 0 0 0 0 0 0 0 0 0 0 0 0 0 0 0 0 127 0" result="hardAlpha"/>
<feMorphology radius="4" operator="erode" in="SourceAlpha" result="effect2_dropShadow_307_36502"/>
<feOffset dy="12"/>
<feGaussianBlur stdDeviation="8"/>
<feColorMatrix type="matrix" values="0 0 0 0 0.0627451 0 0 0 0 0.0941176 0 0 0 0 0.156863 0 0 0 0.08 0"/>
<feBlend mode="normal" in2="effect1_dropShadow_307_36502" result="effect2_dropShadow_307_36502"/>
<feBlend mode="normal" in="SourceGraphic" in2="effect2_dropShadow_307_36502" result="shape"/>
</filter>
</defs>
</svg>
