<svg width="335" height="389" viewBox="0 0 335 389" fill="none" xmlns="http://www.w3.org/2000/svg">
<path d="M5.39489 23.4336L0.46875 5.97905H3.86932L7.0142 18.8058H7.17614L10.5341 5.97905H13.6278L16.9943 18.8143H17.1477L20.2926 5.97905H23.6932L18.767 23.4336H15.6477L12.1534 11.1864H12.017L8.5142 23.4336H5.39489ZM30.2088 23.6893C28.8963 23.6893 27.7628 23.4165 26.8082 22.8711C25.8594 22.32 25.1293 21.5415 24.6179 20.5359C24.1065 19.5245 23.8509 18.3342 23.8509 16.9648C23.8509 15.6183 24.1065 14.4364 24.6179 13.4194C25.1349 12.3967 25.8565 11.6012 26.7827 11.033C27.7088 10.4592 28.7969 10.1722 30.0469 10.1722C30.8537 10.1722 31.6151 10.3029 32.331 10.5643C33.0526 10.82 33.6889 11.2177 34.2401 11.7575C34.7969 12.2972 35.2344 12.9847 35.5526 13.82C35.8707 14.6495 36.0298 15.6381 36.0298 16.7859V17.7319H25.2997V15.6523H33.0724C33.0668 15.0614 32.9389 14.5359 32.6889 14.0756C32.4389 13.6097 32.0895 13.2433 31.6406 12.9762C31.1974 12.7092 30.6804 12.5756 30.0895 12.5756C29.4588 12.5756 28.9048 12.729 28.4276 13.0359C27.9503 13.337 27.5781 13.7347 27.3111 14.229C27.0497 14.7177 26.9162 15.2546 26.9105 15.8398V17.6552C26.9105 18.4165 27.0497 19.07 27.3281 19.6154C27.6065 20.1552 27.9957 20.57 28.4957 20.8597C28.9957 21.1438 29.581 21.2859 30.2514 21.2859C30.7003 21.2859 31.1065 21.2234 31.4702 21.0984C31.8338 20.9677 32.1491 20.7773 32.4162 20.5273C32.6832 20.2773 32.8849 19.9677 33.0213 19.5984L35.902 19.9222C35.7202 20.6836 35.3736 21.3484 34.8622 21.9165C34.3565 22.479 33.7088 22.9165 32.919 23.229C32.1293 23.5359 31.2259 23.6893 30.2088 23.6893ZM41.7251 5.97905V23.4336H38.6399V5.97905H41.7251ZM50.608 23.6893C49.3011 23.6893 48.179 23.4023 47.2415 22.8285C46.3097 22.2546 45.5909 21.462 45.0852 20.4506C44.5852 19.4336 44.3352 18.2631 44.3352 16.9393C44.3352 15.6097 44.5909 14.4364 45.1023 13.4194C45.6136 12.3967 46.3352 11.6012 47.267 11.033C48.2045 10.4592 49.3125 10.1722 50.5909 10.1722C51.6534 10.1722 52.5938 10.3683 53.4119 10.7603C54.2358 11.1467 54.892 11.695 55.3807 12.4052C55.8693 13.1097 56.1477 13.9336 56.2159 14.8768H53.267C53.1477 14.2461 52.8636 13.7205 52.4148 13.3001C51.9716 12.8739 51.3778 12.6609 50.6335 12.6609C50.0028 12.6609 49.4489 12.8313 48.9716 13.1722C48.4943 13.5075 48.1222 13.9904 47.8551 14.6211C47.5938 15.2518 47.4631 16.0075 47.4631 16.8881C47.4631 17.7802 47.5938 18.5472 47.8551 19.1893C48.1165 19.8256 48.483 20.3171 48.9545 20.6637C49.4318 21.0046 49.9915 21.1751 50.6335 21.1751C51.0881 21.1751 51.4943 21.0898 51.8523 20.9194C52.2159 20.7433 52.5199 20.4904 52.7642 20.1609C53.0085 19.8313 53.1761 19.4308 53.267 18.9592H56.2159C56.142 19.8853 55.8693 20.7063 55.3977 21.4222C54.9261 22.1325 54.2841 22.6893 53.4716 23.0927C52.6591 23.4904 51.7045 23.6893 50.608 23.6893ZM64.4595 23.6893C63.1811 23.6893 62.0732 23.408 61.1357 22.8455C60.1982 22.283 59.4709 21.4961 58.9538 20.4847C58.4425 19.4734 58.1868 18.2915 58.1868 16.9393C58.1868 15.587 58.4425 14.4023 58.9538 13.3853C59.4709 12.3683 60.1982 11.5785 61.1357 11.016C62.0732 10.4535 63.1811 10.1722 64.4595 10.1722C65.7379 10.1722 66.8459 10.4535 67.7834 11.016C68.7209 11.5785 69.4453 12.3683 69.9567 13.3853C70.4737 14.4023 70.7322 15.587 70.7322 16.9393C70.7322 18.2915 70.4737 19.4734 69.9567 20.4847C69.4453 21.4961 68.7209 22.283 67.7834 22.8455C66.8459 23.408 65.7379 23.6893 64.4595 23.6893ZM64.4766 21.2177C65.1697 21.2177 65.7493 21.0273 66.2152 20.6467C66.6811 20.2603 67.0277 19.7433 67.255 19.0955C67.4879 18.4478 67.6044 17.7262 67.6044 16.9308C67.6044 16.1296 67.4879 15.4052 67.255 14.7575C67.0277 14.104 66.6811 13.5842 66.2152 13.1978C65.7493 12.8114 65.1697 12.6183 64.4766 12.6183C63.7663 12.6183 63.1754 12.8114 62.7038 13.1978C62.2379 13.5842 61.8885 14.104 61.6555 14.7575C61.4283 15.4052 61.3146 16.1296 61.3146 16.9308C61.3146 17.7262 61.4283 18.4478 61.6555 19.0955C61.8885 19.7433 62.2379 20.2603 62.7038 20.6467C63.1754 21.0273 63.7663 21.2177 64.4766 21.2177ZM73.3509 23.4336V10.3427H76.2997V12.5671H76.4531C76.7259 11.8171 77.1776 11.2319 77.8082 10.8114C78.4389 10.3853 79.1918 10.1722 80.0668 10.1722C80.9531 10.1722 81.7003 10.3881 82.3082 10.82C82.9219 11.2461 83.3537 11.8285 83.6037 12.5671H83.7401C84.0298 11.8398 84.5185 11.2603 85.206 10.8285C85.8991 10.391 86.7202 10.1722 87.669 10.1722C88.8736 10.1722 89.8565 10.5529 90.6179 11.3143C91.3793 12.0756 91.7599 13.1864 91.7599 14.6467V23.4336H88.6662V15.1239C88.6662 14.3114 88.4503 13.7177 88.0185 13.3427C87.5866 12.962 87.0582 12.7717 86.4332 12.7717C85.6889 12.7717 85.1065 13.0046 84.6861 13.4705C84.2713 13.9308 84.0639 14.5302 84.0639 15.2688V23.4336H81.0384V14.9961C81.0384 14.32 80.8338 13.7802 80.4247 13.3768C80.0213 12.9734 79.4929 12.7717 78.8395 12.7717C78.3963 12.7717 77.9929 12.8853 77.6293 13.1126C77.2656 13.3342 76.9759 13.6495 76.7599 14.0586C76.544 14.462 76.4361 14.9336 76.4361 15.4734V23.4336H73.3509ZM100.685 23.6893C99.3729 23.6893 98.2393 23.4165 97.2848 22.8711C96.3359 22.32 95.6058 21.5415 95.0945 20.5359C94.5831 19.5245 94.3274 18.3342 94.3274 16.9648C94.3274 15.6183 94.5831 14.4364 95.0945 13.4194C95.6115 12.3967 96.3331 11.6012 97.2592 11.033C98.1854 10.4592 99.2734 10.1722 100.523 10.1722C101.33 10.1722 102.092 10.3029 102.808 10.5643C103.529 10.82 104.165 11.2177 104.717 11.7575C105.273 12.2972 105.711 12.9847 106.029 13.82C106.347 14.6495 106.506 15.6381 106.506 16.7859V17.7319H95.7763V15.6523H103.549C103.543 15.0614 103.415 14.5359 103.165 14.0756C102.915 13.6097 102.566 13.2433 102.117 12.9762C101.674 12.7092 101.157 12.5756 100.566 12.5756C99.9354 12.5756 99.3814 12.729 98.9041 13.0359C98.4268 13.337 98.0547 13.7347 97.7876 14.229C97.5263 14.7177 97.3928 15.2546 97.3871 15.8398V17.6552C97.3871 18.4165 97.5263 19.07 97.8047 19.6154C98.0831 20.1552 98.4723 20.57 98.9723 20.8597C99.4723 21.1438 100.058 21.2859 100.728 21.2859C101.177 21.2859 101.583 21.2234 101.947 21.0984C102.31 20.9677 102.626 20.7773 102.893 20.5273C103.16 20.2773 103.362 19.9677 103.498 19.5984L106.379 19.9222C106.197 20.6836 105.85 21.3484 105.339 21.9165C104.833 22.479 104.185 22.9165 103.396 23.229C102.606 23.5359 101.702 23.6893 100.685 23.6893ZM121.607 10.3427V12.729H114.081V10.3427H121.607ZM115.939 7.20632H119.024V19.4961C119.024 19.9109 119.087 20.229 119.212 20.4506C119.342 20.6665 119.513 20.8143 119.723 20.8938C119.933 20.9734 120.166 21.0131 120.422 21.0131C120.615 21.0131 120.791 20.9989 120.95 20.9705C121.115 20.9421 121.24 20.9165 121.325 20.8938L121.845 23.3058C121.68 23.3626 121.445 23.4251 121.138 23.4933C120.837 23.5614 120.467 23.6012 120.03 23.6126C119.257 23.6353 118.561 23.5188 117.942 23.2631C117.322 23.0018 116.831 22.5984 116.467 22.0529C116.109 21.5075 115.933 20.8256 115.939 20.0075V7.20632ZM129.756 23.6893C128.478 23.6893 127.37 23.408 126.433 22.8455C125.495 22.283 124.768 21.4961 124.251 20.4847C123.739 19.4734 123.484 18.2915 123.484 16.9393C123.484 15.587 123.739 14.4023 124.251 13.3853C124.768 12.3683 125.495 11.5785 126.433 11.016C127.37 10.4535 128.478 10.1722 129.756 10.1722C131.035 10.1722 132.143 10.4535 133.08 11.016C134.018 11.5785 134.742 12.3683 135.254 13.3853C135.771 14.4023 136.029 15.587 136.029 16.9393C136.029 18.2915 135.771 19.4734 135.254 20.4847C134.742 21.4961 134.018 22.283 133.08 22.8455C132.143 23.408 131.035 23.6893 129.756 23.6893ZM129.773 21.2177C130.467 21.2177 131.046 21.0273 131.512 20.6467C131.978 20.2603 132.325 19.7433 132.552 19.0955C132.785 18.4478 132.901 17.7262 132.901 16.9308C132.901 16.1296 132.785 15.4052 132.552 14.7575C132.325 14.104 131.978 13.5842 131.512 13.1978C131.046 12.8114 130.467 12.6183 129.773 12.6183C129.063 12.6183 128.472 12.8114 128.001 13.1978C127.535 13.5842 127.185 14.104 126.952 14.7575C126.725 15.4052 126.612 16.1296 126.612 16.9308C126.612 17.7262 126.725 18.4478 126.952 19.0955C127.185 19.7433 127.535 20.2603 128.001 20.6467C128.472 21.0273 129.063 21.2177 129.773 21.2177ZM154.223 10.7773C154.143 10.033 153.808 9.45348 153.217 9.03871C152.632 8.62393 151.871 8.41655 150.933 8.41655C150.274 8.41655 149.709 8.51598 149.237 8.71484C148.766 8.91371 148.405 9.18359 148.155 9.5245C147.905 9.86541 147.777 10.2546 147.771 10.6921C147.771 11.0558 147.854 11.3711 148.018 11.6381C148.189 11.9052 148.419 12.1325 148.709 12.32C148.999 12.5018 149.32 12.6552 149.672 12.7802C150.024 12.9052 150.379 13.0103 150.737 13.0955L152.374 13.5046C153.033 13.658 153.666 13.8654 154.274 14.1268C154.888 14.3881 155.436 14.7177 155.919 15.1154C156.408 15.5131 156.794 15.9933 157.078 16.5558C157.362 17.1183 157.504 17.7773 157.504 18.533C157.504 19.5558 157.243 20.4563 156.72 21.2347C156.197 22.0075 155.442 22.6126 154.453 23.0501C153.47 23.4819 152.28 23.6978 150.882 23.6978C149.524 23.6978 148.345 23.4876 147.345 23.0671C146.351 22.6467 145.572 22.033 145.01 21.2262C144.453 20.4194 144.152 19.4364 144.107 18.2773H147.217C147.263 18.8853 147.45 19.391 147.78 19.7944C148.109 20.1978 148.538 20.4989 149.067 20.6978C149.601 20.8967 150.197 20.9961 150.857 20.9961C151.544 20.9961 152.146 20.8938 152.663 20.6893C153.186 20.479 153.595 20.1893 153.891 19.82C154.186 19.445 154.337 19.0075 154.342 18.5075C154.337 18.0529 154.203 17.6779 153.942 17.3825C153.68 17.0813 153.314 16.8313 152.842 16.6325C152.376 16.4279 151.831 16.2461 151.206 16.087L149.22 15.5756C147.783 15.2063 146.646 14.6467 145.811 13.8967C144.982 13.141 144.567 12.1381 144.567 10.8881C144.567 9.85973 144.845 8.95916 145.402 8.18643C145.964 7.41371 146.729 6.81428 147.695 6.38814C148.661 5.95632 149.754 5.74041 150.976 5.74041C152.214 5.74041 153.3 5.95632 154.232 6.38814C155.169 6.81428 155.905 7.40803 156.439 8.16939C156.973 8.92507 157.249 9.79439 157.266 10.7773H154.223ZM165.897 23.6893C164.619 23.6893 163.511 23.408 162.573 22.8455C161.636 22.283 160.908 21.4961 160.391 20.4847C159.88 19.4734 159.624 18.2915 159.624 16.9393C159.624 15.587 159.88 14.4023 160.391 13.3853C160.908 12.3683 161.636 11.5785 162.573 11.016C163.511 10.4535 164.619 10.1722 165.897 10.1722C167.175 10.1722 168.283 10.4535 169.221 11.016C170.158 11.5785 170.883 12.3683 171.394 13.3853C171.911 14.4023 172.17 15.587 172.17 16.9393C172.17 18.2915 171.911 19.4734 171.394 20.4847C170.883 21.4961 170.158 22.283 169.221 22.8455C168.283 23.408 167.175 23.6893 165.897 23.6893ZM165.914 21.2177C166.607 21.2177 167.187 21.0273 167.653 20.6467C168.119 20.2603 168.465 19.7433 168.692 19.0955C168.925 18.4478 169.042 17.7262 169.042 16.9308C169.042 16.1296 168.925 15.4052 168.692 14.7575C168.465 14.104 168.119 13.5842 167.653 13.1978C167.187 12.8114 166.607 12.6183 165.914 12.6183C165.204 12.6183 164.613 12.8114 164.141 13.1978C163.675 13.5842 163.326 14.104 163.093 14.7575C162.866 15.4052 162.752 16.1296 162.752 16.9308C162.752 17.7262 162.866 18.4478 163.093 19.0955C163.326 19.7433 163.675 20.2603 164.141 20.6467C164.613 21.0273 165.204 21.2177 165.914 21.2177ZM177.874 5.97905V23.4336H174.788V5.97905H177.874ZM184.813 23.6978C183.984 23.6978 183.237 23.5501 182.572 23.2546C181.913 22.9535 181.39 22.5103 181.004 21.9251C180.623 21.3398 180.433 20.6183 180.433 19.7603C180.433 19.0217 180.569 18.4109 180.842 17.9279C181.114 17.445 181.487 17.0586 181.958 16.7688C182.43 16.479 182.961 16.2603 183.552 16.1126C184.148 15.9592 184.765 15.8484 185.401 15.7802C186.168 15.7006 186.79 15.6296 187.268 15.5671C187.745 15.4989 188.092 15.3967 188.308 15.2603C188.529 15.1183 188.64 14.8995 188.64 14.604V14.5529C188.64 13.9109 188.45 13.4137 188.069 13.0614C187.688 12.7092 187.14 12.533 186.424 12.533C185.668 12.533 185.069 12.6978 184.626 13.0273C184.188 13.3569 183.893 13.7461 183.739 14.195L180.859 13.7859C181.086 12.9904 181.461 12.3256 181.984 11.7915C182.506 11.2518 183.146 10.8484 183.901 10.5813C184.657 10.3086 185.492 10.1722 186.407 10.1722C187.038 10.1722 187.665 10.2461 188.29 10.3938C188.915 10.5415 189.487 10.7859 190.004 11.1268C190.521 11.462 190.935 11.9194 191.248 12.4989C191.566 13.0785 191.725 13.8029 191.725 14.6722V23.4336H188.759V21.6353H188.657C188.469 21.9989 188.205 22.3398 187.864 22.658C187.529 22.9705 187.106 23.2234 186.594 23.4165C186.089 23.604 185.495 23.6978 184.813 23.6978ZM185.614 21.4308C186.234 21.4308 186.771 21.3086 187.225 21.0643C187.68 20.8143 188.029 20.4847 188.273 20.0756C188.523 19.6665 188.648 19.2205 188.648 18.7376V17.195C188.552 17.2745 188.387 17.3484 188.154 17.4165C187.927 17.4847 187.671 17.5444 187.387 17.5955C187.103 17.6467 186.822 17.6921 186.543 17.7319C186.265 17.7717 186.023 17.8058 185.819 17.8342C185.359 17.8967 184.947 17.9989 184.583 18.141C184.219 18.283 183.933 18.4819 183.722 18.7376C183.512 18.9876 183.407 19.3114 183.407 19.7092C183.407 20.2773 183.614 20.7063 184.029 20.9961C184.444 21.2859 184.972 21.4308 185.614 21.4308ZM197.35 10.3427L199.992 15.1751L202.677 10.3427H205.941L201.995 16.8881L206.009 23.4336H202.762L199.992 18.7205L197.248 23.4336H193.975L197.964 16.8881L194.077 10.3427H197.35ZM210.245 28.3427C209.825 28.3427 209.435 28.3086 209.077 28.2404C208.725 28.1779 208.444 28.104 208.234 28.0188L208.95 25.6154C209.398 25.7461 209.799 25.8086 210.151 25.8029C210.504 25.7972 210.813 25.6864 211.08 25.4705C211.353 25.2603 211.583 24.908 211.771 24.4137L212.035 23.7063L207.288 10.3427H210.56L213.577 20.229H213.714L216.739 10.3427H220.021L214.779 25.0188C214.535 25.712 214.211 26.3058 213.808 26.8001C213.404 27.3001 212.91 27.6808 212.325 27.9421C211.745 28.2092 211.052 28.3427 210.245 28.3427Z" fill="#1E1E1E"/>
<path d="M9.57528 54.5629C9.22727 52.3853 7.52202 51.1126 5.36932 51.1126C2.73438 51.1126 0.790483 53.0863 0.790483 56.3427C0.790483 59.5991 2.72443 61.5728 5.36932 61.5728C7.60653 61.5728 9.24219 60.1708 9.57528 58.1573L8.02415 58.1523C7.76065 59.4549 6.6669 60.1708 5.37926 60.1708C3.63423 60.1708 2.31676 58.8335 2.31676 56.3427C2.31676 53.8718 3.62926 52.5146 5.38423 52.5146C6.68182 52.5146 7.7706 53.2454 8.02415 54.5629H9.57528ZM14.5108 61.5877C16.6635 61.5877 18.0705 60.0117 18.0705 57.6502C18.0705 55.2738 16.6635 53.6978 14.5108 53.6978C12.3581 53.6978 10.9512 55.2738 10.9512 57.6502C10.9512 60.0117 12.3581 61.5877 14.5108 61.5877ZM14.5158 60.3398C13.1088 60.3398 12.4526 59.1119 12.4526 57.6452C12.4526 56.1836 13.1088 54.9407 14.5158 54.9407C15.9128 54.9407 16.5691 56.1836 16.5691 57.6452C16.5691 59.1119 15.9128 60.3398 14.5158 60.3398ZM19.7298 61.4336H21.2163V56.7255C21.2163 55.6964 21.9371 54.9805 22.7823 54.9805C23.6076 54.9805 24.1793 55.5273 24.1793 56.3576V61.4336H25.6609V56.5664C25.6609 55.6467 26.2227 54.9805 27.1921 54.9805C27.9776 54.9805 28.6239 55.418 28.6239 56.4521V61.4336H30.1104V56.3129C30.1104 54.5678 29.136 53.6978 27.7539 53.6978C26.6552 53.6978 25.8299 54.2248 25.462 55.0401H25.3825C25.0494 54.2049 24.3484 53.6978 23.3292 53.6978C22.32 53.6978 21.5692 54.1999 21.2511 55.0401H21.1566V53.7972H19.7298V61.4336ZM32.1028 64.2972H33.5893V60.2454H33.6788C33.9473 60.7326 34.4941 61.5827 35.8862 61.5827C37.7356 61.5827 39.0779 60.1012 39.0779 57.6303C39.0779 55.1545 37.7157 53.6978 35.8713 53.6978C34.4544 53.6978 33.9423 54.5629 33.6788 55.0352H33.5545V53.7972H32.1028V64.2972ZM33.5595 57.6154C33.5595 56.0195 34.2555 54.9606 35.5531 54.9606C36.9004 54.9606 37.5765 56.0991 37.5765 57.6154C37.5765 59.1467 36.8805 60.315 35.5531 60.315C34.2754 60.315 33.5595 59.2212 33.5595 57.6154ZM42.2299 51.2518H40.7434V61.4336H42.2299V51.2518ZM47.521 61.5877C49.1864 61.5877 50.3647 60.7674 50.7028 59.5245L49.2958 59.271C49.0273 59.9918 48.381 60.3597 47.5359 60.3597C46.2631 60.3597 45.408 59.5344 45.3683 58.0629H50.7972V57.5359C50.7972 54.7766 49.1467 53.6978 47.4165 53.6978C45.2887 53.6978 43.8867 55.3185 43.8867 57.6651C43.8867 60.0366 45.2688 61.5877 47.521 61.5877ZM45.3732 56.9492C45.4329 55.8654 46.2184 54.9258 47.4265 54.9258C48.5799 54.9258 49.3356 55.7809 49.3406 56.9492H45.3732ZM56.0112 53.7972H54.4451V51.9677H52.9586V53.7972H51.84V54.9904H52.9586V59.4996C52.9537 60.8867 54.0126 61.5579 55.1859 61.533C55.6582 61.5281 55.9764 61.4386 56.1504 61.3739L55.8819 60.146C55.7825 60.1658 55.5985 60.2106 55.3599 60.2106C54.8777 60.2106 54.4451 60.0515 54.4451 59.1914V54.9904H56.0112V53.7972ZM60.8647 61.5877C62.5302 61.5877 63.7085 60.7674 64.0465 59.5245L62.6396 59.271C62.3711 59.9918 61.7248 60.3597 60.8796 60.3597C59.6069 60.3597 58.7518 59.5344 58.712 58.0629H64.141V57.5359C64.141 54.7766 62.4904 53.6978 60.7603 53.6978C58.6325 53.6978 57.2305 55.3185 57.2305 57.6651C57.2305 60.0366 58.6126 61.5877 60.8647 61.5877ZM58.717 56.9492C58.7766 55.8654 59.5621 54.9258 60.7702 54.9258C61.9237 54.9258 62.6793 55.7809 62.6843 56.9492H58.717ZM73.06 53.7972H71.494V51.9677H70.0075V53.7972H68.8888V54.9904H70.0075V59.4996C70.0025 60.8867 71.0614 61.5579 72.2347 61.533C72.707 61.5281 73.0252 61.4386 73.1992 61.3739L72.9308 60.146C72.8313 60.1658 72.6474 60.2106 72.4087 60.2106C71.9265 60.2106 71.494 60.0515 71.494 59.1914V54.9904H73.06V53.7972ZM76.3549 56.8995C76.3549 55.6815 77.1255 54.9854 78.1845 54.9854C79.2086 54.9854 79.8201 55.6367 79.8201 56.7553V61.4336H81.3066V56.5763C81.3066 54.6722 80.2626 53.6978 78.6916 53.6978C77.5034 53.6978 76.7875 54.2148 76.4295 55.0401H76.335V51.2518H74.8684V61.4336H76.3549V56.8995ZM86.5815 61.5877C88.247 61.5877 89.4252 60.7674 89.7633 59.5245L88.3564 59.271C88.0879 59.9918 87.4416 60.3597 86.5964 60.3597C85.3237 60.3597 84.4686 59.5344 84.4288 58.0629H89.8578V57.5359C89.8578 54.7766 88.2072 53.6978 86.4771 53.6978C84.3493 53.6978 82.9473 55.3185 82.9473 57.6651C82.9473 60.0366 84.3294 61.5877 86.5815 61.5877ZM84.4338 56.9492C84.4934 55.8654 85.2789 54.9258 86.487 54.9258C87.6404 54.9258 88.3961 55.7809 88.4011 56.9492H84.4338ZM100.934 55.6616C100.626 54.4734 99.6966 53.6978 98.046 53.6978C96.3208 53.6978 95.0978 54.6076 95.0978 55.9599C95.0978 57.0437 95.7541 57.7646 97.1859 58.0827L98.4785 58.3661C99.2143 58.5302 99.5574 58.8583 99.5574 59.3356C99.5574 59.9272 98.926 60.3896 97.9515 60.3896C97.0616 60.3896 96.4899 60.0067 96.3109 59.256L94.8741 59.4748C95.1227 60.8271 96.2463 61.5877 97.9615 61.5877C99.8059 61.5877 101.084 60.6083 101.084 59.2262C101.084 58.1474 100.398 57.4812 98.9956 57.158L97.7825 56.8796C96.9423 56.6808 96.5794 56.3974 96.5843 55.8803C96.5794 55.2937 97.2157 54.8761 98.0609 54.8761C98.9856 54.8761 99.4132 55.3881 99.5872 55.9002L100.934 55.6616ZM102.718 61.4336H104.205V53.7972H102.718V61.4336ZM103.469 52.619C103.981 52.619 104.408 52.2212 104.408 51.734C104.408 51.2468 103.981 50.8441 103.469 50.8441C102.952 50.8441 102.529 51.2468 102.529 51.734C102.529 52.2212 102.952 52.619 103.469 52.619ZM109.406 64.4563C111.35 64.4563 112.851 63.5664 112.851 61.6026V53.7972H111.395V55.0352H111.285C111.022 54.5629 110.495 53.6978 109.073 53.6978C107.229 53.6978 105.871 55.1545 105.871 57.5856C105.871 60.0217 107.258 61.3192 109.063 61.3192C110.465 61.3192 111.007 60.5288 111.275 60.0415H111.37V61.543C111.37 62.7411 110.55 63.2582 109.421 63.2582C108.183 63.2582 107.701 62.6367 107.437 62.1992L106.16 62.7262C106.562 63.6609 107.581 64.4563 109.406 64.4563ZM109.391 60.0863C108.064 60.0863 107.373 59.0671 107.373 57.5657C107.373 56.0991 108.049 54.9606 109.391 54.9606C110.689 54.9606 111.385 56.0195 111.385 57.5657C111.385 59.1417 110.674 60.0863 109.391 60.0863ZM116.331 56.8995C116.331 55.6815 117.077 54.9854 118.111 54.9854C119.121 54.9854 119.732 55.6467 119.732 56.7553V61.4336H121.219V56.5763C121.219 54.6871 120.18 53.6978 118.618 53.6978C117.47 53.6978 116.719 54.2298 116.366 55.0401H116.272V53.7972H114.845V61.4336H116.331V56.8995ZM131.755 58.2667C131.76 59.5643 130.795 60.1808 129.96 60.1808C129.04 60.1808 128.404 59.5146 128.404 58.4755V53.7972H126.917V58.6545C126.917 60.5487 127.956 61.533 129.423 61.533C130.571 61.533 131.352 60.9265 131.705 60.1112H131.784V61.4336H133.246V53.7972H131.755V58.2667ZM135.243 64.2972H136.73V60.2454H136.819C137.088 60.7326 137.635 61.5827 139.027 61.5827C140.876 61.5827 142.219 60.1012 142.219 57.6303C142.219 55.1545 140.856 53.6978 139.012 53.6978C137.595 53.6978 137.083 54.5629 136.819 55.0352H136.695V53.7972H135.243V64.2972ZM136.7 57.6154C136.7 56.0195 137.396 54.9606 138.694 54.9606C140.041 54.9606 140.717 56.0991 140.717 57.6154C140.717 59.1467 140.021 60.315 138.694 60.315C137.416 60.315 136.7 59.2212 136.7 57.6154ZM151.154 53.7972H149.588V51.9677H148.101V53.7972H146.983V54.9904H148.101V59.4996C148.096 60.8867 149.155 61.5579 150.328 61.533C150.801 61.5281 151.119 61.4386 151.293 61.3739L151.025 60.146C150.925 60.1658 150.741 60.2106 150.502 60.2106C150.02 60.2106 149.588 60.0515 149.588 59.1914V54.9904H151.154V53.7972ZM155.933 61.5877C158.085 61.5877 159.492 60.0117 159.492 57.6502C159.492 55.2738 158.085 53.6978 155.933 53.6978C153.78 53.6978 152.373 55.2738 152.373 57.6502C152.373 60.0117 153.78 61.5877 155.933 61.5877ZM155.938 60.3398C154.531 60.3398 153.874 59.1119 153.874 57.6452C153.874 56.1836 154.531 54.9407 155.938 54.9407C157.335 54.9407 157.991 56.1836 157.991 57.6452C157.991 59.1119 157.335 60.3398 155.938 60.3398ZM168.058 64.4563C170.002 64.4563 171.504 63.5664 171.504 61.6026V53.7972H170.047V55.0352H169.938C169.674 54.5629 169.147 53.6978 167.725 53.6978C165.881 53.6978 164.524 55.1545 164.524 57.5856C164.524 60.0217 165.911 61.3192 167.715 61.3192C169.117 61.3192 169.659 60.5288 169.928 60.0415H170.022V61.543C170.022 62.7411 169.202 63.2582 168.073 63.2582C166.835 63.2582 166.353 62.6367 166.09 62.1992L164.812 62.7262C165.215 63.6609 166.234 64.4563 168.058 64.4563ZM168.044 60.0863C166.716 60.0863 166.025 59.0671 166.025 57.5657C166.025 56.0991 166.701 54.9606 168.044 54.9606C169.341 54.9606 170.037 56.0195 170.037 57.5657C170.037 59.1417 169.326 60.0863 168.044 60.0863ZM176.789 61.5877C178.454 61.5877 179.632 60.7674 179.97 59.5245L178.563 59.271C178.295 59.9918 177.649 60.3597 176.803 60.3597C175.531 60.3597 174.676 59.5344 174.636 58.0629H180.065V57.5359C180.065 54.7766 178.414 53.6978 176.684 53.6978C174.556 53.6978 173.154 55.3185 173.154 57.6651C173.154 60.0366 174.536 61.5877 176.789 61.5877ZM174.641 56.9492C174.7 55.8654 175.486 54.9258 176.694 54.9258C177.847 54.9258 178.603 55.7809 178.608 56.9492H174.641ZM185.279 53.7972H183.713V51.9677H182.226V53.7972H181.108V54.9904H182.226V59.4996C182.221 60.8867 183.28 61.5579 184.453 61.533C184.926 61.5281 185.244 61.4386 185.418 61.3739L185.15 60.146C185.05 60.1658 184.866 60.2106 184.627 60.2106C184.145 60.2106 183.713 60.0515 183.713 59.1914V54.9904H185.279V53.7972ZM196.35 55.6616C196.042 54.4734 195.113 53.6978 193.462 53.6978C191.737 53.6978 190.514 54.6076 190.514 55.9599C190.514 57.0437 191.17 57.7646 192.602 58.0827L193.895 58.3661C194.63 58.5302 194.973 58.8583 194.973 59.3356C194.973 59.9272 194.342 60.3896 193.368 60.3896C192.478 60.3896 191.906 60.0067 191.727 59.256L190.29 59.4748C190.539 60.8271 191.662 61.5877 193.377 61.5877C195.222 61.5877 196.5 60.6083 196.5 59.2262C196.5 58.1474 195.814 57.4812 194.412 57.158L193.199 56.8796C192.358 56.6808 191.995 56.3974 192 55.8803C191.995 55.2937 192.632 54.8761 193.477 54.8761C194.402 54.8761 194.829 55.3881 195.003 55.9002L196.35 55.6616ZM201.699 53.7972H200.133V51.9677H198.646V53.7972H197.528V54.9904H198.646V59.4996C198.641 60.8867 199.7 61.5579 200.873 61.533C201.346 61.5281 201.664 61.4386 201.838 61.3739L201.569 60.146C201.47 60.1658 201.286 60.2106 201.047 60.2106C200.565 60.2106 200.133 60.0515 200.133 59.1914V54.9904H201.699V53.7972ZM205.565 61.6026C206.828 61.6026 207.539 60.9613 207.822 60.3896H207.882V61.4336H209.334V56.3626C209.334 54.1403 207.584 53.6978 206.371 53.6978C204.989 53.6978 203.716 54.2546 203.219 55.6467L204.616 55.9648C204.835 55.4229 205.391 54.9009 206.391 54.9009C207.35 54.9009 207.842 55.4031 207.842 56.2681V56.3029C207.842 56.8448 207.286 56.8349 205.913 56.994C204.467 57.163 202.985 57.5408 202.985 59.2759C202.985 60.7773 204.114 61.6026 205.565 61.6026ZM205.888 60.4094C205.048 60.4094 204.442 60.0316 204.442 59.2958C204.442 58.5004 205.148 58.217 206.008 58.1026C206.49 58.038 207.634 57.9087 207.847 57.695V58.6793C207.847 59.5842 207.126 60.4094 205.888 60.4094ZM211.314 61.4336H212.8V56.7702C212.8 55.771 213.571 55.0501 214.625 55.0501C214.933 55.0501 215.281 55.1048 215.4 55.1396V53.7177C215.251 53.6978 214.958 53.6829 214.769 53.6829C213.874 53.6829 213.108 54.19 212.83 55.0103H212.751V53.7972H211.314V61.4336ZM220.703 53.7972H219.137V51.9677H217.65V53.7972H216.531V54.9904H217.65V59.4996C217.645 60.8867 218.704 61.5579 219.877 61.533C220.35 61.5281 220.668 61.4386 220.842 61.3739L220.573 60.146C220.474 60.1658 220.29 60.2106 220.051 60.2106C219.569 60.2106 219.137 60.0515 219.137 59.1914V54.9904H220.703V53.7972ZM225.556 61.5877C227.222 61.5877 228.4 60.7674 228.738 59.5245L227.331 59.271C227.062 59.9918 226.416 60.3597 225.571 60.3597C224.298 60.3597 223.443 59.5344 223.403 58.0629H228.832V57.5359C228.832 54.7766 227.182 53.6978 225.452 53.6978C223.324 53.6978 221.922 55.3185 221.922 57.6651C221.922 60.0366 223.304 61.5877 225.556 61.5877ZM223.408 56.9492C223.468 55.8654 224.254 54.9258 225.462 54.9258C226.615 54.9258 227.371 55.7809 227.376 56.9492H223.408ZM233.34 61.5827C234.732 61.5827 235.279 60.7326 235.548 60.2454H235.672V61.4336H237.124V51.2518H235.637V55.0352H235.548C235.279 54.5629 234.772 53.6978 233.35 53.6978C231.506 53.6978 230.149 55.1545 230.149 57.6303C230.149 60.1012 231.486 61.5827 233.34 61.5827ZM233.669 60.315C232.341 60.315 231.65 59.1467 231.65 57.6154C231.65 56.0991 232.326 54.9606 233.669 54.9606C234.966 54.9606 235.662 56.0195 235.662 57.6154C235.662 59.2212 234.951 60.315 233.669 60.315Z" fill="#292B2D"/>
<rect x="0.25" y="97.6836" width="334.5" height="60.5" rx="9.75" fill="white" stroke="#F3A615" stroke-width="0.5"/>
<path d="M21.1186 143.434H27.2685V142.111H22.6548V133.252H21.1186V143.434ZM31.7183 143.588C33.871 143.588 35.2779 142.012 35.2779 139.65C35.2779 137.274 33.871 135.698 31.7183 135.698C29.5656 135.698 28.1586 137.274 28.1586 139.65C28.1586 142.012 29.5656 143.588 31.7183 143.588ZM31.7232 142.34C30.3163 142.34 29.66 141.112 29.66 139.645C29.66 138.184 30.3163 136.941 31.7232 136.941C33.1202 136.941 33.7765 138.184 33.7765 139.645C33.7765 141.112 33.1202 142.34 31.7232 142.34ZM41.3745 140.267C41.3795 141.564 40.415 142.181 39.5798 142.181C38.66 142.181 38.0237 141.515 38.0237 140.475V135.797H36.5372V140.654C36.5372 142.549 37.5762 143.533 39.0429 143.533C40.1913 143.533 40.9718 142.926 41.3248 142.111H41.4044V143.434H42.866V135.797H41.3745V140.267ZM44.4634 143.434H45.9499V135.797H44.4634V143.434ZM45.2141 134.619C45.7261 134.619 46.1537 134.221 46.1537 133.734C46.1537 133.247 45.7261 132.844 45.2141 132.844C44.697 132.844 44.2744 133.247 44.2744 133.734C44.2744 134.221 44.697 134.619 45.2141 134.619ZM53.272 137.662C52.9637 136.473 52.0341 135.698 50.3835 135.698C48.6583 135.698 47.4353 136.608 47.4353 137.96C47.4353 139.044 48.0916 139.765 49.5234 140.083L50.816 140.366C51.5518 140.53 51.8949 140.858 51.8949 141.336C51.8949 141.927 51.2635 142.39 50.289 142.39C49.3991 142.39 48.8274 142.007 48.6484 141.256L47.2116 141.475C47.4602 142.827 48.5838 143.588 50.299 143.588C52.1434 143.588 53.4211 142.608 53.4211 141.226C53.4211 140.147 52.735 139.481 51.3331 139.158L50.12 138.88C49.2798 138.681 48.9169 138.397 48.9218 137.88C48.9169 137.294 49.5532 136.876 50.3984 136.876C51.3231 136.876 51.7507 137.388 51.9247 137.9L53.272 137.662ZM58.0799 143.434H59.6162V139.581H61.7042C61.739 139.581 61.7689 139.581 61.8037 139.581L63.8718 143.434H65.6218L63.3647 139.312C64.6126 138.85 65.2341 137.811 65.2341 136.444C65.2341 134.569 64.0707 133.252 61.7092 133.252H58.0799V143.434ZM59.6162 138.258V134.569H61.5451C63.0615 134.569 63.6879 135.29 63.6879 136.444C63.6879 137.592 63.0615 138.258 61.565 138.258H59.6162ZM69.7795 143.588C71.445 143.588 72.6233 142.767 72.9614 141.525L71.5544 141.271C71.2859 141.992 70.6396 142.36 69.7945 142.36C68.5217 142.36 67.6666 141.534 67.6268 140.063H73.0558V139.536C73.0558 136.777 71.4053 135.698 69.6751 135.698C67.5473 135.698 66.1453 137.319 66.1453 139.665C66.1453 142.037 67.5274 143.588 69.7795 143.588ZM67.6318 138.949C67.6915 137.865 68.477 136.926 69.6851 136.926C70.8385 136.926 71.5942 137.781 71.5991 138.949H67.6318ZM76.5274 143.603C77.7902 143.603 78.5012 142.961 78.7846 142.39H78.8442V143.434H80.2959V138.363C80.2959 136.14 78.5459 135.698 77.3328 135.698C75.9507 135.698 74.678 136.255 74.1809 137.647L75.5779 137.965C75.7966 137.423 76.3534 136.901 77.3527 136.901C78.3123 136.901 78.8044 137.403 78.8044 138.268V138.303C78.8044 138.845 78.2476 138.835 76.8755 138.994C75.4287 139.163 73.9472 139.541 73.9472 141.276C73.9472 142.777 75.0757 143.603 76.5274 143.603ZM76.8506 142.409C76.0104 142.409 75.4039 142.032 75.4039 141.296C75.4039 140.5 76.1098 140.217 76.9699 140.103C77.4522 140.038 78.5956 139.909 78.8094 139.695V140.679C78.8094 141.584 78.0885 142.409 76.8506 142.409ZM83.3624 133.252H81.8759V143.434H83.3624V133.252Z" fill="#040C22"/>
<path d="M26.6939 112.161H25.3835V117.118H25.3196L21.8963 112.161H20.7173V119.434H22.0348V114.48H22.0952L25.522 119.434H26.6939V112.161ZM29.5222 119.544C30.378 119.544 30.8894 119.142 31.1238 118.684H31.1664V119.434H32.4022V115.783C32.4022 114.341 31.2268 113.908 30.1863 113.908C29.0393 113.908 28.1586 114.419 27.8745 115.414L29.0748 115.584C29.2026 115.211 29.5648 114.892 30.1934 114.892C30.79 114.892 31.1167 115.197 31.1167 115.733V115.755C31.1167 116.124 30.7296 116.142 29.7673 116.245C28.709 116.358 27.6969 116.674 27.6969 117.903C27.6969 118.975 28.4817 119.544 29.5222 119.544ZM29.856 118.599C29.3198 118.599 28.9363 118.354 28.9363 117.882C28.9363 117.388 29.366 117.182 29.9413 117.1C30.2786 117.054 30.9533 116.969 31.1202 116.834V117.477C31.1202 118.084 30.6302 118.599 29.856 118.599ZM33.5748 119.434H34.8603V116.117C34.8603 115.446 35.3078 114.991 35.8617 114.991C36.4051 114.991 36.7779 115.357 36.7779 115.918V119.434H38.0386V116.032C38.0386 115.417 38.4044 114.991 39.0258 114.991C39.5443 114.991 39.9562 115.297 39.9562 115.971V119.434H41.2453V115.772C41.2453 114.554 40.5421 113.908 39.5407 113.908C38.7488 113.908 38.1451 114.299 37.9036 114.906H37.8468C37.6373 114.288 37.1082 113.908 36.3731 113.908C35.6416 113.908 35.0947 114.284 34.8674 114.906H34.8035V113.979H33.5748V119.434ZM44.8442 119.54C46.1155 119.54 46.9891 118.919 47.2163 117.971L46.0161 117.836C45.8421 118.297 45.4159 118.539 44.8619 118.539C44.031 118.539 43.4806 117.992 43.4699 117.058H47.2696V116.664C47.2696 114.75 46.119 113.908 44.7767 113.908C43.2142 113.908 42.195 115.055 42.195 116.738C42.195 118.45 43.2 119.54 44.8442 119.54ZM43.4735 116.191C43.5125 115.495 44.0274 114.909 44.7945 114.909C45.5331 114.909 46.0303 115.449 46.0374 116.191H43.4735Z" fill="#8F94A3"/>
<rect x="0.25" y="174.684" width="334.5" height="60.5" rx="9.75" fill="white" stroke="#F3A615" stroke-width="0.5"/>
<path d="M21.1186 220.434H27.2685V219.111H22.6548V210.252H21.1186V220.434ZM31.7183 220.588C33.871 220.588 35.2779 219.012 35.2779 216.65C35.2779 214.274 33.871 212.698 31.7183 212.698C29.5656 212.698 28.1586 214.274 28.1586 216.65C28.1586 219.012 29.5656 220.588 31.7183 220.588ZM31.7232 219.34C30.3163 219.34 29.66 218.112 29.66 216.645C29.66 215.184 30.3163 213.941 31.7232 213.941C33.1202 213.941 33.7765 215.184 33.7765 216.645C33.7765 218.112 33.1202 219.34 31.7232 219.34ZM41.3745 217.267C41.3795 218.564 40.415 219.181 39.5798 219.181C38.66 219.181 38.0237 218.515 38.0237 217.475V212.797H36.5372V217.654C36.5372 219.549 37.5762 220.533 39.0429 220.533C40.1913 220.533 40.9718 219.926 41.3248 219.111H41.4044V220.434H42.866V212.797H41.3745V217.267ZM44.4634 220.434H45.9499V212.797H44.4634V220.434ZM45.2141 211.619C45.7261 211.619 46.1537 211.221 46.1537 210.734C46.1537 210.247 45.7261 209.844 45.2141 209.844C44.697 209.844 44.2744 210.247 44.2744 210.734C44.2744 211.221 44.697 211.619 45.2141 211.619ZM53.272 214.662C52.9637 213.473 52.0341 212.698 50.3835 212.698C48.6583 212.698 47.4353 213.608 47.4353 214.96C47.4353 216.044 48.0916 216.765 49.5234 217.083L50.816 217.366C51.5518 217.53 51.8949 217.858 51.8949 218.336C51.8949 218.927 51.2635 219.39 50.289 219.39C49.3991 219.39 48.8274 219.007 48.6484 218.256L47.2116 218.475C47.4602 219.827 48.5838 220.588 50.299 220.588C52.1434 220.588 53.4211 219.608 53.4211 218.226C53.4211 217.147 52.735 216.481 51.3331 216.158L50.12 215.88C49.2798 215.681 48.9169 215.397 48.9218 214.88C48.9169 214.294 49.5532 213.876 50.3984 213.876C51.3231 213.876 51.7507 214.388 51.9247 214.9L53.272 214.662ZM58.1804 220.603C60.532 220.603 61.9091 218.684 61.9091 215.348C61.9091 212.037 60.5121 210.113 58.1804 210.113C55.8438 210.113 54.4517 212.032 54.4467 215.348C54.4467 218.679 55.8239 220.598 58.1804 220.603ZM58.1804 219.275C56.8033 219.275 55.973 217.893 55.973 215.348C55.978 212.812 56.8082 211.415 58.1804 211.415C59.5476 211.415 60.3828 212.812 60.3828 215.348C60.3828 217.893 59.5526 219.275 58.1804 219.275ZM63.059 218.445H67.8864V220.434H69.353V218.445H70.7003V217.142H69.353V210.252H67.4588L63.059 217.202V218.445ZM67.8963 217.142H64.6698V217.063L67.8168 212.081H67.8963V217.142ZM72.0528 220.434H73.5393V215.77C73.5393 214.771 74.3099 214.05 75.3639 214.05C75.6721 214.05 76.0201 214.105 76.1395 214.14V212.718C75.9903 212.698 75.697 212.683 75.5081 212.683C74.6132 212.683 73.8476 213.19 73.5691 214.01H73.4896V212.797H72.0528V220.434ZM80.0436 220.588C81.7091 220.588 82.8874 219.767 83.2254 218.525L81.8185 218.271C81.55 218.992 80.9037 219.36 80.0585 219.36C78.7858 219.36 77.9307 218.534 77.8909 217.063H83.3199V216.536C83.3199 213.777 81.6693 212.698 79.9392 212.698C77.8114 212.698 76.4094 214.319 76.4094 216.665C76.4094 219.037 77.7915 220.588 80.0436 220.588ZM77.8959 215.949C77.9555 214.865 78.7411 213.926 79.9491 213.926C81.1026 213.926 81.8582 214.781 81.8632 215.949H77.8959ZM86.7915 220.603C88.0543 220.603 88.7652 219.961 89.0486 219.39H89.1083V220.434H90.56V215.363C90.56 213.14 88.81 212.698 87.5969 212.698C86.2148 212.698 84.9421 213.255 84.4449 214.647L85.8419 214.965C86.0607 214.423 86.6175 213.901 87.6168 213.901C88.5763 213.901 89.0685 214.403 89.0685 215.268V215.303C89.0685 215.845 88.5117 215.835 87.1395 215.994C85.6928 216.163 84.2113 216.541 84.2113 218.276C84.2113 219.777 85.3398 220.603 86.7915 220.603ZM87.1147 219.409C86.2745 219.409 85.6679 219.032 85.6679 218.296C85.6679 217.5 86.3739 217.217 87.234 217.103C87.7162 217.038 88.8597 216.909 89.0735 216.695V217.679C89.0735 218.584 88.3526 219.409 87.1147 219.409ZM93.6264 210.252H92.1399V220.434H93.6264V210.252ZM101.356 223.203C102.505 223.203 103.832 222.89 104.449 222.601L104.101 221.512C103.683 221.662 102.534 222.025 101.421 222.025C98.075 222.025 96.2802 220.18 96.2802 216.879C96.2802 213.717 98.0551 211.674 101.237 211.674C104.145 211.674 105.88 213.543 105.875 216.069C105.88 218.226 105.602 219.196 104.697 219.196C104.185 219.196 103.902 218.778 103.902 218.256V213.642H102.679V214.199H102.614C102.465 213.762 101.6 213.369 100.561 213.493C99.124 213.662 97.891 214.85 97.891 216.809C97.891 218.853 98.935 220.22 100.61 220.284C101.744 220.334 102.48 219.807 102.713 219.221H102.773C102.892 220.021 103.757 220.374 104.608 220.344C106.731 220.304 107.133 218.216 107.133 216.118C107.133 213.125 105.085 210.52 101.287 210.52C97.3044 210.52 94.9627 212.951 94.9578 216.869C94.9627 220.901 97.2447 223.203 101.356 223.203ZM100.899 219.066C99.6012 219.066 99.1538 217.953 99.1488 216.75C99.1538 215.606 99.7951 214.696 100.919 214.696C102.137 214.696 102.684 215.233 102.689 216.745C102.694 218.296 102.191 219.066 100.899 219.066ZM111.577 223.456C113.521 223.456 115.022 222.566 115.022 220.603V212.797H113.565V214.035H113.456C113.193 213.563 112.666 212.698 111.244 212.698C109.399 212.698 108.042 214.154 108.042 216.586C108.042 219.022 109.429 220.319 111.234 220.319C112.636 220.319 113.178 219.529 113.446 219.042H113.541V220.543C113.541 221.741 112.72 222.258 111.592 222.258C110.354 222.258 109.872 221.637 109.608 221.199L108.33 221.726C108.733 222.661 109.752 223.456 111.577 223.456ZM111.562 219.086C110.234 219.086 109.543 218.067 109.543 216.566C109.543 215.099 110.22 213.961 111.562 213.961C112.859 213.961 113.555 215.02 113.555 216.566C113.555 218.142 112.845 219.086 111.562 219.086ZM116.616 220.434H118.102V215.725C118.102 214.696 118.823 213.98 119.668 213.98C120.494 213.98 121.065 214.527 121.065 215.358V220.434H122.547V215.566C122.547 214.647 123.109 213.98 124.078 213.98C124.864 213.98 125.51 214.418 125.51 215.452V220.434H126.996V215.313C126.996 213.568 126.022 212.698 124.64 212.698C123.541 212.698 122.716 213.225 122.348 214.04H122.268C121.935 213.205 121.234 212.698 120.215 212.698C119.206 212.698 118.455 213.2 118.137 214.04H118.043V212.797H116.616V220.434ZM130.811 220.603C132.074 220.603 132.785 219.961 133.068 219.39H133.128V220.434H134.58V215.363C134.58 213.14 132.83 212.698 131.616 212.698C130.234 212.698 128.962 213.255 128.464 214.647L129.861 214.965C130.08 214.423 130.637 213.901 131.636 213.901C132.596 213.901 133.088 214.403 133.088 215.268V215.303C133.088 215.845 132.531 215.835 131.159 215.994C129.712 216.163 128.231 216.541 128.231 218.276C128.231 219.777 129.359 220.603 130.811 220.603ZM131.134 219.409C130.294 219.409 129.687 219.032 129.687 218.296C129.687 217.5 130.393 217.217 131.254 217.103C131.736 217.038 132.879 216.909 133.093 216.695V217.679C133.093 218.584 132.372 219.409 131.134 219.409ZM136.159 220.434H137.646V212.797H136.159V220.434ZM136.91 211.619C137.422 211.619 137.85 211.221 137.85 210.734C137.85 210.247 137.422 209.844 136.91 209.844C136.393 209.844 135.971 210.247 135.971 210.734C135.971 211.221 136.393 211.619 136.91 211.619ZM140.732 210.252H139.246V220.434H140.732V210.252ZM143.312 220.528C143.853 220.528 144.306 220.086 144.306 219.534C144.306 218.992 143.853 218.544 143.312 218.544C142.765 218.544 142.317 218.992 142.317 219.534C142.317 220.086 142.765 220.528 143.312 220.528ZM149.114 220.588C150.918 220.588 152.087 219.504 152.251 218.017H150.804C150.615 218.843 149.974 219.33 149.124 219.33C147.866 219.33 147.055 218.281 147.055 216.615C147.055 214.98 147.881 213.951 149.124 213.951C150.068 213.951 150.645 214.547 150.804 215.263H152.251C152.092 213.722 150.834 212.698 149.099 212.698C146.946 212.698 145.554 214.319 145.554 216.65C145.554 218.952 146.896 220.588 149.114 220.588ZM156.657 220.588C158.81 220.588 160.217 219.012 160.217 216.65C160.217 214.274 158.81 212.698 156.657 212.698C154.504 212.698 153.097 214.274 153.097 216.65C153.097 219.012 154.504 220.588 156.657 220.588ZM156.662 219.34C155.255 219.34 154.599 218.112 154.599 216.645C154.599 215.184 155.255 213.941 156.662 213.941C158.059 213.941 158.715 215.184 158.715 216.645C158.715 218.112 158.059 219.34 156.662 219.34ZM161.476 220.434H162.962V215.725C162.962 214.696 163.683 213.98 164.528 213.98C165.354 213.98 165.925 214.527 165.925 215.358V220.434H167.407V215.566C167.407 214.647 167.969 213.98 168.938 213.98C169.724 213.98 170.37 214.418 170.37 215.452V220.434H171.857V215.313C171.857 213.568 170.882 212.698 169.5 212.698C168.401 212.698 167.576 213.225 167.208 214.04H167.129C166.795 213.205 166.094 212.698 165.075 212.698C164.066 212.698 163.315 213.2 162.997 214.04H162.903V212.797H161.476V220.434Z" fill="#040C22"/>
<path d="M20.7173 196.434H25.4759V195.329H22.0348V193.344H25.2024V192.24H22.0348V190.265H25.4474V189.161H20.7173V196.434ZM26.6147 196.434H27.9002V193.117C27.9002 192.446 28.3477 191.991 28.9017 191.991C29.445 191.991 29.8179 192.357 29.8179 192.918V196.434H31.0785V193.032C31.0785 192.417 31.4443 191.991 32.0657 191.991C32.5842 191.991 32.9961 192.297 32.9961 192.971V196.434H34.2852V192.772C34.2852 191.554 33.5821 190.908 32.5806 190.908C31.7887 190.908 31.185 191.299 30.9436 191.906H30.8867C30.6772 191.288 30.1481 190.908 29.413 190.908C28.6815 190.908 28.1346 191.284 27.9073 191.906H27.8434V190.979H26.6147V196.434ZM37.0389 196.544C37.8948 196.544 38.4061 196.142 38.6405 195.684H38.6831V196.434H39.9189V192.783C39.9189 191.341 38.7435 190.908 37.703 190.908C36.556 190.908 35.6753 191.419 35.3912 192.414L36.5915 192.584C36.7193 192.211 37.0816 191.892 37.7101 191.892C38.3067 191.892 38.6334 192.197 38.6334 192.733V192.755C38.6334 193.124 38.2463 193.142 37.284 193.245C36.2257 193.358 35.2137 193.674 35.2137 194.903C35.2137 195.975 35.9985 196.544 37.0389 196.544ZM37.3727 195.599C36.8365 195.599 36.453 195.354 36.453 194.882C36.453 194.388 36.8827 194.182 37.458 194.1C37.7953 194.054 38.47 193.969 38.637 193.834V194.477C38.637 195.084 38.1469 195.599 37.3727 195.599ZM41.0915 196.434H42.377V190.979H41.0915V196.434ZM41.7378 190.205C42.1462 190.205 42.48 189.892 42.48 189.509C42.48 189.122 42.1462 188.809 41.7378 188.809C41.3259 188.809 40.9921 189.122 40.9921 189.509C40.9921 189.892 41.3259 190.205 41.7378 190.205ZM44.8645 189.161H43.5789V196.434H44.8645V189.161Z" fill="#8F94A3"/>
<rect x="0.25" y="251.684" width="334.5" height="60.5" rx="9.75" fill="white" stroke="#F3A615" stroke-width="0.5"/>
<path fill-rule="evenodd" clip-rule="evenodd" d="M299.098 281.434C299.098 283.567 300.844 285.303 303 285.303C305.146 285.303 306.893 283.567 306.893 281.434C306.893 279.291 305.146 277.555 303 277.555C300.844 277.555 299.098 279.291 299.098 281.434ZM308.737 275.48C310.444 276.798 311.898 278.728 312.941 281.143C313.02 281.327 313.02 281.54 312.941 281.715C310.854 286.544 307.137 289.434 303 289.434H302.99C298.863 289.434 295.146 286.544 293.059 281.715C292.98 281.54 292.98 281.327 293.059 281.143C295.146 276.314 298.863 273.434 302.99 273.434H303C305.068 273.434 307.029 274.151 308.737 275.48ZM303.001 283.846C304.338 283.846 305.43 282.76 305.43 281.431C305.43 280.093 304.338 279.007 303.001 279.007C302.884 279.007 302.767 279.017 302.66 279.036C302.621 280.103 301.743 280.956 300.66 280.956H300.611C300.582 281.111 300.562 281.267 300.562 281.431C300.562 282.76 301.655 283.846 303.001 283.846Z" fill="#F3A615"/>
<path d="M20.7173 273.434H22.0348V270.976H23.4268C25.1065 270.976 26.0085 269.968 26.0085 268.569C26.0085 267.18 25.1172 266.161 23.4446 266.161H20.7173V273.434ZM22.0348 269.893V267.262H23.2422C24.2294 267.262 24.6662 267.794 24.6662 268.569C24.6662 269.343 24.2294 269.893 23.2493 269.893H22.0348ZM28.448 273.544C29.3038 273.544 29.8152 273.142 30.0496 272.684H30.0922V273.434H31.328V269.783C31.328 268.341 30.1525 267.908 29.1121 267.908C27.965 267.908 27.0844 268.419 26.8003 269.414L28.0006 269.584C28.1284 269.211 28.4906 268.892 29.1192 268.892C29.7158 268.892 30.0425 269.197 30.0425 269.733V269.755C30.0425 270.124 29.6554 270.142 28.693 270.245C27.6348 270.358 26.6227 270.674 26.6227 271.903C26.6227 272.975 27.4075 273.544 28.448 273.544ZM28.7818 272.599C28.2456 272.599 27.8621 272.354 27.8621 271.882C27.8621 271.388 28.2918 271.182 28.867 271.1C29.2044 271.054 29.8791 270.969 30.046 270.834V271.477C30.046 272.084 29.556 272.599 28.7818 272.599ZM36.8117 269.421C36.6341 268.498 35.8955 267.908 34.6171 267.908C33.3031 267.908 32.4083 268.554 32.4118 269.563C32.4083 270.358 32.8983 270.884 33.9459 271.1L34.8763 271.296C35.377 271.406 35.6114 271.608 35.6114 271.917C35.6114 272.29 35.2066 272.571 34.5958 272.571C34.0063 272.571 33.6227 272.315 33.5127 271.825L32.2591 271.946C32.4189 272.947 33.2605 273.54 34.5993 273.54C35.9629 273.54 36.9253 272.833 36.9289 271.8C36.9253 271.022 36.4246 270.547 35.3948 270.323L34.4644 270.124C33.9104 270 33.6902 269.808 33.6938 269.492C33.6902 269.123 34.0986 268.867 34.6348 268.867C35.2279 268.867 35.5404 269.19 35.6398 269.549L36.8117 269.421ZM42.1799 269.421C42.0024 268.498 41.2638 267.908 39.9853 267.908C38.6714 267.908 37.7765 268.554 37.7801 269.563C37.7765 270.358 38.2666 270.884 39.3142 271.1L40.2446 271.296C40.7453 271.406 40.9797 271.608 40.9797 271.917C40.9797 272.29 40.5748 272.571 39.964 272.571C39.3746 272.571 38.991 272.315 38.8809 271.825L37.6274 271.946C37.7872 272.947 38.6288 273.54 39.9676 273.54C41.3312 273.54 42.2936 272.833 42.2971 271.8C42.2936 271.022 41.7929 270.547 40.763 270.323L39.8326 270.124C39.2787 270 39.0585 269.808 39.0621 269.492C39.0585 269.123 39.4669 268.867 40.0031 268.867C40.5961 268.867 40.9086 269.19 41.0081 269.549L42.1799 269.421ZM44.3629 273.434H45.7052L46.7279 269.748H46.8025L47.8252 273.434H49.164L50.7087 267.979H49.3948L48.4502 271.793H48.397L47.4168 267.979H46.1207L45.1406 271.814H45.0908L44.132 267.979H42.8217L44.3629 273.434ZM53.7191 273.54C55.3171 273.54 56.3327 272.414 56.3327 270.728C56.3327 269.037 55.3171 267.908 53.7191 267.908C52.1211 267.908 51.1054 269.037 51.1054 270.728C51.1054 272.414 52.1211 273.54 53.7191 273.54ZM53.7262 272.51C52.8419 272.51 52.4087 271.722 52.4087 270.724C52.4087 269.726 52.8419 268.927 53.7262 268.927C54.5962 268.927 55.0294 269.726 55.0294 270.724C55.0294 271.722 54.5962 272.51 53.7262 272.51ZM57.3038 273.434H58.5893V270.227C58.5893 269.534 59.1113 269.044 59.818 269.044C60.0346 269.044 60.3045 269.083 60.4146 269.119V267.936C60.2974 267.915 60.095 267.901 59.9529 267.901C59.3279 267.901 58.8059 268.256 58.6071 268.888H58.5502V267.979H57.3038V273.434ZM62.9482 273.529C63.8857 273.529 64.3083 272.972 64.5107 272.574H64.5888V273.434H65.853V266.161H64.5639V268.881H64.5107C64.3154 268.487 63.9141 267.908 62.9517 267.908C61.6911 267.908 60.7003 268.895 60.7003 270.713C60.7003 272.51 61.6627 273.529 62.9482 273.529ZM63.3068 272.475C62.4581 272.475 62.0107 271.729 62.0107 270.706C62.0107 269.691 62.451 268.963 63.3068 268.963C64.1343 268.963 64.5888 269.648 64.5888 270.706C64.5888 271.765 64.1272 272.475 63.3068 272.475Z" fill="#8F94A3"/>
<path d="M23.2464 295.564C24.4545 295.564 25.4339 294.585 25.4339 293.377C25.4339 292.169 24.4545 291.189 23.2464 291.189C22.0384 291.189 21.0589 292.169 21.0589 293.377C21.0589 294.585 22.0384 295.564 23.2464 295.564ZM31.1406 295.564C32.3487 295.564 33.3281 294.585 33.3281 293.377C33.3281 292.169 32.3487 291.189 31.1406 291.189C29.9325 291.189 28.9531 292.169 28.9531 293.377C28.9531 294.585 29.9325 295.564 31.1406 295.564ZM39.0347 295.564C40.2428 295.564 41.2222 294.585 41.2222 293.377C41.2222 292.169 40.2428 291.189 39.0347 291.189C37.8266 291.189 36.8472 292.169 36.8472 293.377C36.8472 294.585 37.8266 295.564 39.0347 295.564ZM46.9289 295.564C48.137 295.564 49.1164 294.585 49.1164 293.377C49.1164 292.169 48.137 291.189 46.9289 291.189C45.7208 291.189 44.7414 292.169 44.7414 293.377C44.7414 294.585 45.7208 295.564 46.9289 295.564ZM54.823 295.564C56.0311 295.564 57.0105 294.585 57.0105 293.377C57.0105 292.169 56.0311 291.189 54.823 291.189C53.6149 291.189 52.6355 292.169 52.6355 293.377C52.6355 294.585 53.6149 295.564 54.823 295.564ZM62.7172 295.564C63.9252 295.564 64.9047 294.585 64.9047 293.377C64.9047 292.169 63.9252 291.189 62.7172 291.189C61.5091 291.189 60.5297 292.169 60.5297 293.377C60.5297 294.585 61.5091 295.564 62.7172 295.564ZM70.6113 295.564C71.8194 295.564 72.7988 294.585 72.7988 293.377C72.7988 292.169 71.8194 291.189 70.6113 291.189C69.4032 291.189 68.4238 292.169 68.4238 293.377C68.4238 294.585 69.4032 295.564 70.6113 295.564ZM78.5054 295.564C79.7135 295.564 80.6929 294.585 80.6929 293.377C80.6929 292.169 79.7135 291.189 78.5054 291.189C77.2973 291.189 76.3179 292.169 76.3179 293.377C76.3179 294.585 77.2973 295.564 78.5054 295.564ZM86.3996 295.564C87.6077 295.564 88.5871 294.585 88.5871 293.377C88.5871 292.169 87.6077 291.189 86.3996 291.189C85.1915 291.189 84.2121 292.169 84.2121 293.377C84.2121 294.585 85.1915 295.564 86.3996 295.564ZM94.2937 295.564C95.5018 295.564 96.4812 294.585 96.4812 293.377C96.4812 292.169 95.5018 291.189 94.2937 291.189C93.0856 291.189 92.1062 292.169 92.1062 293.377C92.1062 294.585 93.0856 295.564 94.2937 295.564ZM102.188 295.564C103.396 295.564 104.375 294.585 104.375 293.377C104.375 292.169 103.396 291.189 102.188 291.189C100.98 291.189 100 292.169 100 293.377C100 294.585 100.98 295.564 102.188 295.564ZM110.082 295.564C111.29 295.564 112.269 294.585 112.269 293.377C112.269 292.169 111.29 291.189 110.082 291.189C108.874 291.189 107.894 292.169 107.894 293.377C107.894 294.585 108.874 295.564 110.082 295.564Z" fill="#040C22"/>
<path d="M15.8125 364.684H6.1875C5.27582 364.684 4.40148 364.321 3.75682 363.677C3.11216 363.032 2.75 362.158 2.75 361.246V351.621C2.75 350.709 3.11216 349.835 3.75682 349.19C4.40148 348.546 5.27582 348.184 6.1875 348.184H15.8125C16.7242 348.184 17.5985 348.546 18.2432 349.19C18.8878 349.835 19.25 350.709 19.25 351.621V361.246C19.25 362.158 18.8878 363.032 18.2432 363.677C17.5985 364.321 16.7242 364.684 15.8125 364.684ZM6.1875 349.559C5.64049 349.559 5.11589 349.776 4.72909 350.163C4.3423 350.549 4.125 351.074 4.125 351.621V361.246C4.125 361.793 4.3423 362.318 4.72909 362.705C5.11589 363.091 5.64049 363.309 6.1875 363.309H15.8125C16.3595 363.309 16.8841 363.091 17.2709 362.705C17.6577 362.318 17.875 361.793 17.875 361.246V351.621C17.875 351.074 17.6577 350.549 17.2709 350.163C16.8841 349.776 16.3595 349.559 15.8125 349.559H6.1875Z" fill="#F3A615"/>
<path d="M31.1186 360.434V350.252H34.8473C35.5698 350.252 36.1681 350.371 36.642 350.61C37.116 350.845 37.4706 351.165 37.706 351.569C37.9413 351.97 38.0589 352.423 38.0589 352.926C38.0589 353.351 37.9811 353.709 37.8253 354C37.6695 354.289 37.4607 354.521 37.1989 354.696C36.9403 354.869 36.6553 354.995 36.3438 355.074V355.174C36.6818 355.19 37.0116 355.3 37.3331 355.502C37.6579 355.701 37.9264 355.984 38.1385 356.352C38.3506 356.72 38.4567 357.167 38.4567 357.694C38.4567 358.215 38.334 358.682 38.0888 359.096C37.8468 359.507 37.4723 359.834 36.9652 360.076C36.4581 360.314 35.8101 360.434 35.0213 360.434H31.1186ZM32.6548 359.116H34.8722C35.608 359.116 36.1349 358.974 36.4531 358.689C36.7713 358.404 36.9304 358.047 36.9304 357.62C36.9304 357.298 36.8492 357.003 36.6868 356.735C36.5244 356.466 36.2924 356.252 35.9908 356.093C35.6925 355.934 35.3378 355.855 34.9268 355.855H32.6548V359.116ZM32.6548 354.657H34.7131C35.0578 354.657 35.3677 354.59 35.6428 354.458C35.9212 354.325 36.1416 354.14 36.304 353.901C36.4697 353.659 36.5526 353.374 36.5526 353.046C36.5526 352.625 36.4051 352.272 36.1101 351.987C35.8151 351.702 35.3627 351.559 34.7528 351.559H32.6548V354.657ZM41.0991 363.297C40.877 363.297 40.6748 363.279 40.4925 363.243C40.3103 363.209 40.1744 363.173 40.0849 363.133L40.4428 361.915C40.7146 361.988 40.9566 362.02 41.1687 362.01C41.3808 362 41.5681 361.92 41.7305 361.771C41.8962 361.622 42.042 361.378 42.168 361.04L42.3519 360.533L39.5579 352.797H41.1488L43.0827 358.723H43.1623L45.0962 352.797H46.6921L43.5451 361.453C43.3993 361.85 43.2137 362.187 42.9883 362.462C42.7629 362.74 42.4944 362.949 42.1829 363.088C41.8713 363.228 41.5101 363.297 41.0991 363.297ZM57.5165 354.662L56.1692 354.9C56.1129 354.728 56.0234 354.564 55.9007 354.408C55.7814 354.252 55.619 354.125 55.4135 354.025C55.208 353.926 54.9512 353.876 54.6429 353.876C54.222 353.876 53.8707 353.971 53.589 354.159C53.3072 354.345 53.1664 354.585 53.1664 354.88C53.1664 355.136 53.2608 355.341 53.4498 355.497C53.6387 355.653 53.9436 355.78 54.3645 355.88L55.5776 356.158C56.2802 356.32 56.8039 356.571 57.1486 356.909C57.4933 357.247 57.6657 357.686 57.6657 358.226C57.6657 358.684 57.5331 359.091 57.2679 359.449C57.0061 359.804 56.6399 360.082 56.1692 360.284C55.7019 360.487 55.16 360.588 54.5435 360.588C53.6884 360.588 52.9907 360.405 52.4505 360.041C51.9102 359.673 51.5788 359.151 51.4561 358.475L52.8929 358.256C52.9824 358.631 53.1664 358.914 53.4448 359.106C53.7232 359.295 54.0861 359.39 54.5336 359.39C55.0208 359.39 55.4102 359.288 55.7019 359.086C55.9935 358.881 56.1394 358.631 56.1394 358.336C56.1394 358.097 56.0499 357.896 55.8709 357.734C55.6953 357.572 55.4251 357.449 55.0605 357.366L53.7679 357.083C53.0553 356.92 52.5283 356.662 52.187 356.307C51.8489 355.953 51.6799 355.503 51.6799 354.96C51.6799 354.509 51.8058 354.115 52.0577 353.777C52.3096 353.439 52.6576 353.175 53.1017 352.986C53.5459 352.794 54.0546 352.698 54.628 352.698C55.4533 352.698 56.1029 352.877 56.5769 353.235C57.0508 353.589 57.3641 354.065 57.5165 354.662ZM59.3001 360.434V352.797H60.7866V360.434H59.3001ZM60.0508 351.619C59.7923 351.619 59.5702 351.533 59.3846 351.36C59.2023 351.185 59.1112 350.976 59.1112 350.734C59.1112 350.489 59.2023 350.28 59.3846 350.108C59.5702 349.932 59.7923 349.844 60.0508 349.844C60.3093 349.844 60.5297 349.932 60.712 350.108C60.8976 350.28 60.9904 350.489 60.9904 350.734C60.9904 350.976 60.8976 351.185 60.712 351.36C60.5297 351.533 60.3093 351.619 60.0508 351.619ZM65.9881 363.456C65.3816 363.456 64.8596 363.377 64.4221 363.218C63.9879 363.059 63.6332 362.848 63.3581 362.586C63.083 362.324 62.8775 362.038 62.7417 361.726L64.0194 361.199C64.1088 361.345 64.2282 361.499 64.3773 361.662C64.5298 361.827 64.7353 361.968 64.9938 362.084C65.2556 362.2 65.592 362.258 66.003 362.258C66.5665 362.258 67.0321 362.121 67.4 361.846C67.7679 361.574 67.9519 361.14 67.9519 360.543V359.042H67.8574C67.7679 359.204 67.6387 359.385 67.4696 359.583C67.3039 359.782 67.0752 359.955 66.7836 360.1C66.4919 360.246 66.1124 360.319 65.6451 360.319C65.0418 360.319 64.4983 360.178 64.0144 359.897C63.5338 359.612 63.1526 359.192 62.8709 358.639C62.5925 358.082 62.4533 357.398 62.4533 356.586C62.4533 355.774 62.5908 355.078 62.8659 354.498C63.1444 353.917 63.5255 353.473 64.0094 353.165C64.4933 352.854 65.0418 352.698 65.655 352.698C66.129 352.698 66.5118 352.777 66.8034 352.936C67.0951 353.092 67.3221 353.275 67.4846 353.483C67.6503 353.692 67.7779 353.876 67.8674 354.035H67.9767V352.797H69.4334V360.603C69.4334 361.259 69.281 361.797 68.976 362.218C68.6711 362.639 68.2585 362.951 67.7381 363.153C67.2211 363.355 66.6377 363.456 65.9881 363.456ZM65.9732 359.086C66.4007 359.086 66.762 358.987 67.057 358.788C67.3553 358.586 67.5807 358.297 67.7331 357.923C67.8889 357.545 67.9668 357.093 67.9668 356.566C67.9668 356.052 67.8906 355.6 67.7381 355.208C67.5856 354.817 67.3619 354.512 67.0669 354.294C66.772 354.072 66.4074 353.961 65.9732 353.961C65.5257 353.961 65.1529 354.077 64.8546 354.309C64.5563 354.537 64.3309 354.849 64.1784 355.243C64.0293 355.638 63.9547 356.078 63.9547 356.566C63.9547 357.066 64.031 357.505 64.1834 357.883C64.3359 358.261 64.5613 358.556 64.8596 358.768C65.1612 358.98 65.5324 359.086 65.9732 359.086ZM72.9135 355.9V360.434H71.427V352.797H72.8539V354.04H72.9483C73.124 353.636 73.3991 353.311 73.7736 353.066C74.1515 352.82 74.6271 352.698 75.2005 352.698C75.7208 352.698 76.1766 352.807 76.5676 353.026C76.9587 353.241 77.262 353.563 77.4775 353.99C77.6929 354.418 77.8006 354.947 77.8006 355.576V360.434H76.3141V355.755C76.3141 355.202 76.1699 354.769 75.8816 354.458C75.5932 354.143 75.1971 353.985 74.6934 353.985C74.3487 353.985 74.0421 354.06 73.7736 354.209C73.5085 354.358 73.298 354.577 73.1422 354.865C72.9898 355.15 72.9135 355.495 72.9135 355.9ZM79.7942 360.434V352.797H81.2807V360.434H79.7942ZM80.5449 351.619C80.2864 351.619 80.0643 351.533 79.8787 351.36C79.6964 351.185 79.6053 350.976 79.6053 350.734C79.6053 350.489 79.6964 350.28 79.8787 350.108C80.0643 349.932 80.2864 349.844 80.5449 349.844C80.8034 349.844 81.0239 349.932 81.2061 350.108C81.3917 350.28 81.4846 350.489 81.4846 350.734C81.4846 350.976 81.3917 351.185 81.2061 351.36C81.0239 351.533 80.8034 351.619 80.5449 351.619ZM84.767 355.9V360.434H83.2805V352.797H84.7074V354.04H84.8018C84.9775 353.636 85.2526 353.311 85.6271 353.066C86.005 352.82 86.4806 352.698 87.054 352.698C87.5743 352.698 88.0301 352.807 88.4212 353.026C88.8123 353.241 89.1155 353.563 89.331 353.99C89.5464 354.418 89.6541 354.947 89.6541 355.576V360.434H88.1676V355.755C88.1676 355.202 88.0234 354.769 87.7351 354.458C87.4467 354.143 87.0507 353.985 86.5469 353.985C86.2022 353.985 85.8956 354.06 85.6271 354.209C85.362 354.358 85.1515 354.577 84.9957 354.865C84.8433 355.15 84.767 355.495 84.767 355.9ZM94.8494 363.456C94.2429 363.456 93.7209 363.377 93.2834 363.218C92.8492 363.059 92.4946 362.848 92.2195 362.586C91.9444 362.324 91.7389 362.038 91.603 361.726L92.8807 361.199C92.9702 361.345 93.0895 361.499 93.2386 361.662C93.3911 361.827 93.5966 361.968 93.8551 362.084C94.117 362.2 94.4534 362.258 94.8643 362.258C95.4278 362.258 95.8935 362.121 96.2614 361.846C96.6293 361.574 96.8132 361.14 96.8132 360.543V359.042H96.7188C96.6293 359.204 96.5 359.385 96.331 359.583C96.1652 359.782 95.9366 359.955 95.6449 360.1C95.3532 360.246 94.9737 360.319 94.5064 360.319C93.9032 360.319 93.3596 360.178 92.8757 359.897C92.3951 359.612 92.014 359.192 91.7322 358.639C91.4538 358.082 91.3146 357.398 91.3146 356.586C91.3146 355.774 91.4522 355.078 91.7273 354.498C92.0057 353.917 92.3868 353.473 92.8707 353.165C93.3546 352.854 93.9032 352.698 94.5163 352.698C94.9903 352.698 95.3731 352.777 95.6648 352.936C95.9564 353.092 96.1835 353.275 96.3459 353.483C96.5116 353.692 96.6392 353.876 96.7287 354.035H96.8381V352.797H98.2947V360.603C98.2947 361.259 98.1423 361.797 97.8374 362.218C97.5324 362.639 97.1198 362.951 96.5994 363.153C96.0824 363.355 95.4991 363.456 94.8494 363.456ZM94.8345 359.086C95.2621 359.086 95.6233 358.987 95.9183 358.788C96.2166 358.586 96.442 358.297 96.5945 357.923C96.7502 357.545 96.8281 357.093 96.8281 356.566C96.8281 356.052 96.7519 355.6 96.5994 355.208C96.447 354.817 96.2232 354.512 95.9283 354.294C95.6333 354.072 95.2687 353.961 94.8345 353.961C94.3871 353.961 94.0142 354.077 93.7159 354.309C93.4176 354.537 93.1922 354.849 93.0398 355.243C92.8906 355.638 92.8161 356.078 92.8161 356.566C92.8161 357.066 92.8923 357.505 93.0447 357.883C93.1972 358.261 93.4226 358.556 93.7209 358.768C94.0225 358.98 94.3937 359.086 94.8345 359.086ZM108.831 357.267V352.797H110.322V360.434H108.861V359.111H108.781C108.605 359.519 108.324 359.859 107.936 360.13C107.551 360.399 107.073 360.533 106.499 360.533C106.009 360.533 105.574 360.425 105.197 360.21C104.822 359.991 104.527 359.668 104.312 359.24C104.099 358.813 103.993 358.284 103.993 357.654V352.797H105.48V357.475C105.48 357.996 105.624 358.41 105.912 358.718C106.201 359.027 106.575 359.181 107.036 359.181C107.314 359.181 107.591 359.111 107.866 358.972C108.145 358.833 108.375 358.622 108.557 358.341C108.743 358.059 108.834 357.701 108.831 357.267ZM112.32 363.297V352.797H113.771V354.035H113.896C113.982 353.876 114.106 353.692 114.268 353.483C114.431 353.275 114.656 353.092 114.945 352.936C115.233 352.777 115.614 352.698 116.088 352.698C116.705 352.698 117.255 352.854 117.739 353.165C118.223 353.477 118.602 353.926 118.877 354.512C119.156 355.099 119.295 355.805 119.295 356.63C119.295 357.456 119.157 358.163 118.882 358.753C118.607 359.34 118.229 359.792 117.749 360.11C117.268 360.425 116.719 360.583 116.103 360.583C115.639 360.583 115.259 360.505 114.964 360.349C114.673 360.193 114.444 360.011 114.278 359.802C114.113 359.593 113.985 359.408 113.896 359.245H113.806V363.297H112.32ZM113.776 356.615C113.776 357.152 113.854 357.623 114.01 358.027C114.166 358.432 114.391 358.748 114.686 358.977C114.981 359.202 115.342 359.315 115.77 359.315C116.214 359.315 116.585 359.197 116.884 358.962C117.182 358.723 117.407 358.4 117.56 357.993C117.715 357.585 117.793 357.126 117.793 356.615C117.793 356.112 117.717 355.659 117.565 355.258C117.415 354.857 117.19 354.541 116.888 354.309C116.59 354.077 116.217 353.961 115.77 353.961C115.339 353.961 114.974 354.072 114.676 354.294C114.381 354.516 114.157 354.826 114.005 355.223C113.853 355.621 113.776 356.085 113.776 356.615ZM122.894 359.042L122.82 359.583C122.77 359.981 122.685 360.395 122.566 360.826C122.45 361.261 122.329 361.663 122.203 362.034C122.08 362.406 121.979 362.701 121.9 362.919H120.846C120.889 362.714 120.949 362.435 121.025 362.084C121.101 361.736 121.176 361.347 121.249 360.916C121.321 360.485 121.376 360.046 121.413 359.598L121.462 359.042H122.894ZM129.474 363.297C129.252 363.297 129.05 363.279 128.868 363.243C128.685 363.209 128.549 363.173 128.46 363.133L128.818 361.915C129.09 361.988 129.332 362.02 129.544 362.01C129.756 362 129.943 361.92 130.105 361.771C130.271 361.622 130.417 361.378 130.543 361.04L130.727 360.533L127.933 352.797H129.524L131.458 358.723H131.537L133.471 352.797H135.067L131.92 361.453C131.774 361.85 131.589 362.187 131.363 362.462C131.138 362.74 130.869 362.949 130.558 363.088C130.246 363.228 129.885 363.297 129.474 363.297ZM139.421 360.588C138.705 360.588 138.08 360.424 137.547 360.096C137.013 359.767 136.599 359.308 136.304 358.718C136.009 358.128 135.861 357.439 135.861 356.65C135.861 355.858 136.009 355.165 136.304 354.572C136.599 353.979 137.013 353.518 137.547 353.19C138.08 352.862 138.705 352.698 139.421 352.698C140.137 352.698 140.762 352.862 141.295 353.19C141.829 353.518 142.243 353.979 142.538 354.572C142.833 355.165 142.981 355.858 142.981 356.65C142.981 357.439 142.833 358.128 142.538 358.718C142.243 359.308 141.829 359.767 141.295 360.096C140.762 360.424 140.137 360.588 139.421 360.588ZM139.426 359.34C139.89 359.34 140.274 359.217 140.579 358.972C140.884 358.727 141.11 358.4 141.256 357.993C141.405 357.585 141.479 357.136 141.479 356.645C141.479 356.158 141.405 355.711 141.256 355.303C141.11 354.892 140.884 354.562 140.579 354.314C140.274 354.065 139.89 353.941 139.426 353.941C138.959 353.941 138.571 354.065 138.263 354.314C137.958 354.562 137.731 354.892 137.581 355.303C137.436 355.711 137.363 356.158 137.363 356.645C137.363 357.136 137.436 357.585 137.581 357.993C137.731 358.4 137.958 358.727 138.263 358.972C138.571 359.217 138.959 359.34 139.426 359.34ZM149.477 357.267V352.797H150.969V360.434H149.507V359.111H149.428C149.252 359.519 148.97 359.859 148.582 360.13C148.198 360.399 147.719 360.533 147.146 360.533C146.655 360.533 146.221 360.425 145.843 360.21C145.469 359.991 145.174 359.668 144.958 359.24C144.746 358.813 144.64 358.284 144.64 357.654V352.797H146.126V357.475C146.126 357.996 146.271 358.41 146.559 358.718C146.847 359.027 147.222 359.181 147.683 359.181C147.961 359.181 148.238 359.111 148.513 358.972C148.791 358.833 149.022 358.622 149.204 358.341C149.389 358.059 149.481 357.701 149.477 357.267ZM158.893 360.603C158.41 360.603 157.972 360.513 157.581 360.334C157.19 360.152 156.88 359.888 156.651 359.544C156.426 359.199 156.313 358.776 156.313 358.276C156.313 357.845 156.396 357.49 156.562 357.212C156.728 356.934 156.951 356.713 157.233 356.551C157.515 356.388 157.83 356.266 158.178 356.183C158.526 356.1 158.88 356.037 159.241 355.994C159.699 355.941 160.07 355.898 160.355 355.865C160.64 355.828 160.847 355.77 160.977 355.691C161.106 355.611 161.17 355.482 161.17 355.303V355.268C161.17 354.834 161.048 354.498 160.803 354.259C160.561 354.02 160.199 353.901 159.719 353.901C159.218 353.901 158.824 354.012 158.536 354.234C158.25 354.453 158.053 354.696 157.944 354.965L156.547 354.647C156.713 354.183 156.955 353.808 157.273 353.523C157.594 353.235 157.964 353.026 158.381 352.897C158.799 352.764 159.238 352.698 159.699 352.698C160.004 352.698 160.327 352.734 160.668 352.807C161.013 352.877 161.335 353.006 161.633 353.195C161.934 353.384 162.181 353.654 162.374 354.005C162.566 354.353 162.662 354.806 162.662 355.363V360.434H161.21V359.39H161.151C161.054 359.582 160.91 359.771 160.718 359.956C160.526 360.142 160.279 360.296 159.977 360.419C159.676 360.541 159.314 360.603 158.893 360.603ZM159.217 359.409C159.628 359.409 159.979 359.328 160.271 359.166C160.566 359.003 160.789 358.791 160.942 358.529C161.098 358.264 161.175 357.981 161.175 357.679V356.695C161.122 356.748 161.02 356.798 160.867 356.844C160.718 356.887 160.547 356.925 160.355 356.958C160.163 356.988 159.976 357.016 159.793 357.043C159.611 357.066 159.459 357.086 159.336 357.103C159.048 357.139 158.784 357.2 158.545 357.287C158.31 357.373 158.121 357.497 157.979 357.659C157.839 357.819 157.77 358.031 157.77 358.296C157.77 358.664 157.906 358.942 158.178 359.131C158.449 359.317 158.796 359.409 159.217 359.409ZM167.844 363.456C167.237 363.456 166.715 363.377 166.278 363.218C165.843 363.059 165.489 362.848 165.214 362.586C164.939 362.324 164.733 362.038 164.597 361.726L165.875 361.199C165.964 361.345 166.084 361.499 166.233 361.662C166.385 361.827 166.591 361.968 166.849 362.084C167.111 362.2 167.448 362.258 167.858 362.258C168.422 362.258 168.888 362.121 169.256 361.846C169.623 361.574 169.807 361.14 169.807 360.543V359.042H169.713C169.623 359.204 169.494 359.385 169.325 359.583C169.159 359.782 168.931 359.955 168.639 360.1C168.347 360.246 167.968 360.319 167.501 360.319C166.897 360.319 166.354 360.178 165.87 359.897C165.389 359.612 165.008 359.192 164.726 358.639C164.448 358.082 164.309 357.398 164.309 356.586C164.309 355.774 164.446 355.078 164.721 354.498C165 353.917 165.381 353.473 165.865 353.165C166.349 352.854 166.897 352.698 167.51 352.698C167.984 352.698 168.367 352.777 168.659 352.936C168.951 353.092 169.178 353.275 169.34 353.483C169.506 353.692 169.633 353.876 169.723 354.035H169.832V352.797H171.289V360.603C171.289 361.259 171.136 361.797 170.831 362.218C170.527 362.639 170.114 362.951 169.594 363.153C169.077 363.355 168.493 363.456 167.844 363.456ZM167.829 359.086C168.256 359.086 168.617 358.987 168.912 358.788C169.211 358.586 169.436 358.297 169.589 357.923C169.744 357.545 169.822 357.093 169.822 356.566C169.822 356.052 169.746 355.6 169.594 355.208C169.441 354.817 169.217 354.512 168.922 354.294C168.627 354.072 168.263 353.961 167.829 353.961C167.381 353.961 167.008 354.077 166.71 354.309C166.412 354.537 166.186 354.849 166.034 355.243C165.885 355.638 165.81 356.078 165.81 356.566C165.81 357.066 165.886 357.505 166.039 357.883C166.191 358.261 166.417 358.556 166.715 358.768C167.017 358.98 167.388 359.086 167.829 359.086ZM173.282 360.434V352.797H174.719V354.01H174.799C174.938 353.599 175.183 353.276 175.535 353.041C175.889 352.802 176.29 352.683 176.738 352.683C176.831 352.683 176.94 352.686 177.066 352.693C177.195 352.699 177.296 352.708 177.369 352.718V354.14C177.309 354.123 177.203 354.105 177.051 354.085C176.898 354.062 176.746 354.05 176.594 354.05C176.242 354.05 175.929 354.125 175.654 354.274C175.382 354.42 175.167 354.623 175.008 354.885C174.849 355.144 174.769 355.439 174.769 355.77V360.434H173.282ZM181.673 360.588C180.921 360.588 180.273 360.427 179.729 360.105C179.189 359.781 178.772 359.325 178.477 358.738C178.185 358.148 178.039 357.457 178.039 356.665C178.039 355.883 178.185 355.194 178.477 354.597C178.772 354 179.183 353.535 179.71 353.2C180.24 352.865 180.86 352.698 181.569 352.698C182 352.698 182.417 352.769 182.822 352.912C183.226 353.054 183.589 353.278 183.911 353.583C184.232 353.888 184.486 354.284 184.671 354.771C184.857 355.255 184.95 355.843 184.95 356.536V357.063H178.879V355.949H183.493C183.493 355.558 183.413 355.212 183.254 354.91C183.095 354.605 182.871 354.365 182.583 354.189C182.298 354.014 181.963 353.926 181.579 353.926C181.161 353.926 180.797 354.029 180.485 354.234C180.177 354.436 179.938 354.701 179.769 355.029C179.603 355.354 179.521 355.707 179.521 356.088V356.958C179.521 357.469 179.61 357.903 179.789 358.261C179.971 358.619 180.225 358.892 180.55 359.081C180.875 359.267 181.254 359.36 181.688 359.36C181.97 359.36 182.227 359.32 182.459 359.24C182.691 359.158 182.891 359.035 183.06 358.873C183.229 358.71 183.359 358.51 183.448 358.271L184.855 358.525C184.742 358.939 184.54 359.302 184.249 359.613C183.96 359.922 183.597 360.162 183.16 360.334C182.726 360.503 182.23 360.588 181.673 360.588ZM189.89 360.588C189.138 360.588 188.49 360.427 187.946 360.105C187.406 359.781 186.988 359.325 186.693 358.738C186.402 358.148 186.256 357.457 186.256 356.665C186.256 355.883 186.402 355.194 186.693 354.597C186.988 354 187.399 353.535 187.926 353.2C188.457 352.865 189.076 352.698 189.786 352.698C190.217 352.698 190.634 352.769 191.039 352.912C191.443 353.054 191.806 353.278 192.127 353.583C192.449 353.888 192.702 354.284 192.888 354.771C193.074 355.255 193.166 355.843 193.166 356.536V357.063H187.096V355.949H191.71C191.71 355.558 191.63 355.212 191.471 354.91C191.312 354.605 191.088 354.365 190.8 354.189C190.515 354.014 190.18 353.926 189.796 353.926C189.378 353.926 189.013 354.029 188.702 354.234C188.394 354.436 188.155 354.701 187.986 355.029C187.82 355.354 187.737 355.707 187.737 356.088V356.958C187.737 357.469 187.827 357.903 188.006 358.261C188.188 358.619 188.442 358.892 188.767 359.081C189.091 359.267 189.471 359.36 189.905 359.36C190.187 359.36 190.444 359.32 190.676 359.24C190.908 359.158 191.108 359.035 191.277 358.873C191.446 358.71 191.575 358.51 191.665 358.271L193.072 358.525C192.959 358.939 192.757 359.302 192.465 359.613C192.177 359.922 191.814 360.162 191.377 360.334C190.942 360.503 190.447 360.588 189.89 360.588ZM202.085 352.797V353.99H197.914V352.797H202.085ZM199.033 350.968H200.519V358.191C200.519 358.48 200.562 358.697 200.649 358.843C200.735 358.985 200.846 359.083 200.982 359.136C201.121 359.186 201.272 359.211 201.434 359.211C201.553 359.211 201.658 359.202 201.747 359.186C201.837 359.169 201.906 359.156 201.956 359.146L202.225 360.374C202.138 360.407 202.016 360.44 201.857 360.473C201.698 360.51 201.499 360.53 201.26 360.533C200.869 360.54 200.504 360.47 200.166 360.324C199.828 360.178 199.555 359.953 199.346 359.648C199.137 359.343 199.033 358.96 199.033 358.5V350.968ZM206.864 360.588C206.148 360.588 205.524 360.424 204.99 360.096C204.456 359.767 204.042 359.308 203.747 358.718C203.452 358.128 203.305 357.439 203.305 356.65C203.305 355.858 203.452 355.165 203.747 354.572C204.042 353.979 204.456 353.518 204.99 353.19C205.524 352.862 206.148 352.698 206.864 352.698C207.58 352.698 208.205 352.862 208.739 353.19C209.272 353.518 209.687 353.979 209.982 354.572C210.277 355.165 210.424 355.858 210.424 356.65C210.424 357.439 210.277 358.128 209.982 358.718C209.687 359.308 209.272 359.767 208.739 360.096C208.205 360.424 207.58 360.588 206.864 360.588ZM206.869 359.34C207.333 359.34 207.718 359.217 208.023 358.972C208.328 358.727 208.553 358.4 208.699 357.993C208.848 357.585 208.923 357.136 208.923 356.645C208.923 356.158 208.848 355.711 208.699 355.303C208.553 354.892 208.328 354.562 208.023 354.314C207.718 354.065 207.333 353.941 206.869 353.941C206.402 353.941 206.014 354.065 205.706 354.314C205.401 354.562 205.174 354.892 205.025 355.303C204.879 355.711 204.806 356.158 204.806 356.645C204.806 357.136 204.879 357.585 205.025 357.993C205.174 358.4 205.401 358.727 205.706 358.972C206.014 359.217 206.402 359.34 206.869 359.34ZM219.353 352.797V353.99H215.182V352.797H219.353ZM216.3 350.968H217.787V358.191C217.787 358.48 217.83 358.697 217.916 358.843C218.002 358.985 218.113 359.083 218.249 359.136C218.388 359.186 218.539 359.211 218.702 359.211C218.821 359.211 218.925 359.202 219.015 359.186C219.104 359.169 219.174 359.156 219.224 359.146L219.492 360.374C219.406 360.407 219.283 360.44 219.124 360.473C218.965 360.51 218.766 360.53 218.528 360.533C218.137 360.54 217.772 360.47 217.434 360.324C217.096 360.178 216.822 359.953 216.614 359.648C216.405 359.343 216.3 358.96 216.3 358.5V350.968ZM222.648 355.9V360.434H221.161V350.252H222.628V354.04H222.722C222.901 353.629 223.175 353.303 223.543 353.061C223.911 352.819 224.391 352.698 224.985 352.698C225.508 352.698 225.966 352.806 226.357 353.021C226.751 353.236 227.056 353.558 227.271 353.985C227.49 354.41 227.6 354.94 227.6 355.576V360.434H226.113V355.755C226.113 355.195 225.969 354.761 225.681 354.453C225.392 354.141 224.991 353.985 224.477 353.985C224.126 353.985 223.811 354.06 223.533 354.209C223.258 354.358 223.041 354.577 222.882 354.865C222.726 355.15 222.648 355.495 222.648 355.9ZM232.874 360.588C232.122 360.588 231.474 360.427 230.931 360.105C230.39 359.781 229.973 359.325 229.678 358.738C229.386 358.148 229.24 357.457 229.24 356.665C229.24 355.883 229.386 355.194 229.678 354.597C229.973 354 230.384 353.535 230.911 353.2C231.441 352.865 232.061 352.698 232.77 352.698C233.201 352.698 233.619 352.769 234.023 352.912C234.427 353.054 234.79 353.278 235.112 353.583C235.433 353.888 235.687 354.284 235.872 354.771C236.058 355.255 236.151 355.843 236.151 356.536V357.063H230.08V355.949H234.694C234.694 355.558 234.615 355.212 234.455 354.91C234.296 354.605 234.073 354.365 233.784 354.189C233.499 354.014 233.164 353.926 232.78 353.926C232.362 353.926 231.998 354.029 231.686 354.234C231.378 354.436 231.139 354.701 230.97 355.029C230.805 355.354 230.722 355.707 230.722 356.088V356.958C230.722 357.469 230.811 357.903 230.99 358.261C231.173 358.619 231.426 358.892 231.751 359.081C232.076 359.267 232.455 359.36 232.889 359.36C233.171 359.36 233.428 359.32 233.66 359.24C233.892 359.158 234.093 359.035 234.262 358.873C234.431 358.71 234.56 358.51 234.649 358.271L236.056 358.525C235.944 358.939 235.741 359.302 235.45 359.613C235.161 359.922 234.798 360.162 234.361 360.334C233.927 360.503 233.431 360.588 232.874 360.588Z" fill="#131313"/>
<path d="M241.122 351.574V350.252H249.002V351.574H245.825V360.434H244.294V351.574H241.122ZM252.808 360.588C252.056 360.588 251.408 360.427 250.864 360.105C250.324 359.781 249.906 359.325 249.611 358.738C249.32 358.148 249.174 357.457 249.174 356.665C249.174 355.883 249.32 355.194 249.611 354.597C249.906 354 250.317 353.535 250.844 353.2C251.375 352.865 251.994 352.698 252.704 352.698C253.135 352.698 253.552 352.769 253.956 352.912C254.361 353.054 254.724 353.278 255.045 353.583C255.367 353.888 255.62 354.284 255.806 354.771C255.992 355.255 256.084 355.843 256.084 356.536V357.063H250.014V355.949H254.628C254.628 355.558 254.548 355.212 254.389 354.91C254.23 354.605 254.006 354.365 253.718 354.189C253.433 354.014 253.098 353.926 252.714 353.926C252.296 353.926 251.931 354.029 251.62 354.234C251.312 354.436 251.073 354.701 250.904 355.029C250.738 355.354 250.655 355.707 250.655 356.088V356.958C250.655 357.469 250.745 357.903 250.924 358.261C251.106 358.619 251.36 358.892 251.684 359.081C252.009 359.267 252.389 359.36 252.823 359.36C253.105 359.36 253.362 359.32 253.594 359.24C253.826 359.158 254.026 359.035 254.195 358.873C254.364 358.71 254.493 358.51 254.583 358.271L255.99 358.525C255.877 358.939 255.675 359.302 255.383 359.613C255.095 359.922 254.732 360.162 254.295 360.334C253.86 360.503 253.365 360.588 252.808 360.588ZM257.734 360.434V352.797H259.17V354.01H259.25C259.389 353.599 259.634 353.276 259.986 353.041C260.34 352.802 260.741 352.683 261.189 352.683C261.282 352.683 261.391 352.686 261.517 352.693C261.646 352.699 261.747 352.708 261.82 352.718V354.14C261.761 354.123 261.655 354.105 261.502 354.085C261.35 354.062 261.197 354.05 261.045 354.05C260.693 354.05 260.38 354.125 260.105 354.274C259.833 354.42 259.618 354.623 259.459 354.885C259.3 355.144 259.22 355.439 259.22 355.77V360.434H257.734ZM263.107 360.434V352.797H264.534V354.04H264.628C264.787 353.619 265.047 353.291 265.409 353.056C265.77 352.817 266.202 352.698 266.706 352.698C267.217 352.698 267.644 352.817 267.989 353.056C268.337 353.294 268.594 353.623 268.759 354.04H268.839C269.021 353.632 269.311 353.308 269.709 353.066C270.107 352.82 270.581 352.698 271.131 352.698C271.824 352.698 272.389 352.915 272.826 353.349C273.267 353.783 273.487 354.438 273.487 355.313V360.434H272.001V355.452C272.001 354.935 271.86 354.56 271.578 354.328C271.297 354.096 270.96 353.98 270.569 353.98C270.085 353.98 269.709 354.13 269.441 354.428C269.172 354.723 269.038 355.102 269.038 355.566V360.434H267.556V355.358C267.556 354.943 267.427 354.61 267.169 354.358C266.91 354.106 266.574 353.98 266.159 353.98C265.878 353.98 265.617 354.055 265.379 354.204C265.143 354.35 264.953 354.554 264.807 354.816C264.664 355.078 264.593 355.381 264.593 355.725V360.434H263.107ZM281.202 354.662L279.855 354.9C279.798 354.728 279.709 354.564 279.586 354.408C279.467 354.252 279.305 354.125 279.099 354.025C278.894 353.926 278.637 353.876 278.328 353.876C277.908 353.876 277.556 353.971 277.275 354.159C276.993 354.345 276.852 354.585 276.852 354.88C276.852 355.136 276.946 355.341 277.135 355.497C277.324 355.653 277.629 355.78 278.05 355.88L279.263 356.158C279.966 356.32 280.489 356.571 280.834 356.909C281.179 357.247 281.351 357.686 281.351 358.226C281.351 358.684 281.219 359.091 280.953 359.449C280.692 359.804 280.325 360.082 279.855 360.284C279.387 360.487 278.846 360.588 278.229 360.588C277.374 360.588 276.676 360.405 276.136 360.041C275.596 359.673 275.264 359.151 275.142 358.475L276.578 358.256C276.668 358.631 276.852 358.914 277.13 359.106C277.409 359.295 277.772 359.39 278.219 359.39C278.706 359.39 279.096 359.288 279.387 359.086C279.679 358.881 279.825 358.631 279.825 358.336C279.825 358.097 279.735 357.896 279.556 357.734C279.381 357.572 279.111 357.449 278.746 357.366L277.453 357.083C276.741 356.92 276.214 356.662 275.873 356.307C275.534 355.953 275.365 355.503 275.365 354.96C275.365 354.509 275.491 354.115 275.743 353.777C275.995 353.439 276.343 353.175 276.787 352.986C277.231 352.794 277.74 352.698 278.314 352.698C279.139 352.698 279.788 352.877 280.262 353.235C280.736 353.589 281.05 354.065 281.202 354.662ZM289.907 360.588C289.191 360.588 288.567 360.424 288.033 360.096C287.499 359.767 287.085 359.308 286.79 358.718C286.495 358.128 286.348 357.439 286.348 356.65C286.348 355.858 286.495 355.165 286.79 354.572C287.085 353.979 287.499 353.518 288.033 353.19C288.567 352.862 289.191 352.698 289.907 352.698C290.623 352.698 291.248 352.862 291.782 353.19C292.315 353.518 292.73 353.979 293.025 354.572C293.319 355.165 293.467 355.858 293.467 356.65C293.467 357.439 293.319 358.128 293.025 358.718C292.73 359.308 292.315 359.767 291.782 360.096C291.248 360.424 290.623 360.588 289.907 360.588ZM289.912 359.34C290.376 359.34 290.761 359.217 291.066 358.972C291.371 358.727 291.596 358.4 291.742 357.993C291.891 357.585 291.966 357.136 291.966 356.645C291.966 356.158 291.891 355.711 291.742 355.303C291.596 354.892 291.371 354.562 291.066 354.314C290.761 354.065 290.376 353.941 289.912 353.941C289.445 353.941 289.057 354.065 288.749 354.314C288.444 354.562 288.217 354.892 288.068 355.303C287.922 355.711 287.849 356.158 287.849 356.645C287.849 357.136 287.922 357.585 288.068 357.993C288.217 358.4 288.444 358.727 288.749 358.972C289.057 359.217 289.445 359.34 289.912 359.34ZM298.76 352.797V353.99H294.445V352.797H298.76ZM295.628 360.434V351.912C295.628 351.435 295.733 351.039 295.942 350.724C296.15 350.406 296.427 350.169 296.772 350.013C297.117 349.854 297.491 349.775 297.895 349.775C298.194 349.775 298.449 349.799 298.661 349.849C298.873 349.895 299.031 349.939 299.133 349.978L298.785 351.181C298.716 351.162 298.626 351.138 298.517 351.112C298.407 351.082 298.275 351.067 298.119 351.067C297.758 351.067 297.499 351.157 297.344 351.336C297.191 351.515 297.115 351.773 297.115 352.111V360.434H295.628ZM36.6719 374.926C36.6188 374.456 36.4001 374.091 36.0156 373.833C35.6312 373.571 35.1473 373.44 34.5639 373.44C34.1463 373.44 33.785 373.506 33.4801 373.639C33.1752 373.768 32.9382 373.947 32.7692 374.176C32.6035 374.401 32.5206 374.658 32.5206 374.946C32.5206 375.188 32.5769 375.397 32.6896 375.573C32.8056 375.748 32.9564 375.896 33.142 376.015C33.331 376.131 33.5331 376.229 33.7486 376.309C33.964 376.385 34.1712 376.448 34.37 376.498L35.3643 376.756C35.6892 376.836 36.0223 376.943 36.3636 377.079C36.705 377.215 37.0215 377.394 37.3132 377.616C37.6049 377.838 37.8402 378.113 38.0192 378.441C38.2015 378.77 38.2926 379.162 38.2926 379.62C38.2926 380.196 38.1435 380.708 37.8452 381.156C37.5502 381.603 37.121 381.956 36.5575 382.215C35.9974 382.473 35.3196 382.603 34.5241 382.603C33.7618 382.603 33.1023 382.482 32.5455 382.24C31.9886 381.998 31.5528 381.655 31.2379 381.211C30.9231 380.763 30.7491 380.233 30.7159 379.62H32.2571C32.2869 379.988 32.4063 380.294 32.6151 380.539C32.8272 380.781 33.0973 380.962 33.4254 381.081C33.7569 381.197 34.1198 381.255 34.5142 381.255C34.9484 381.255 35.3345 381.187 35.6726 381.051C36.014 380.912 36.2824 380.72 36.478 380.475C36.6735 380.226 36.7713 379.936 36.7713 379.605C36.7713 379.303 36.6851 379.056 36.5128 378.864C36.3438 378.672 36.1134 378.513 35.8217 378.387C35.5334 378.261 35.2069 378.15 34.8423 378.054L33.6392 377.725C32.8239 377.503 32.1776 377.177 31.7003 376.746C31.2263 376.315 30.9893 375.745 30.9893 375.036C30.9893 374.449 31.1484 373.937 31.4666 373.5C31.7848 373.062 32.2157 372.722 32.7592 372.48C33.3028 372.235 33.916 372.113 34.5987 372.113C35.2881 372.113 35.8963 372.234 36.4233 372.475C36.9536 372.717 37.3712 373.051 37.6761 373.475C37.9811 373.896 38.1402 374.38 38.1534 374.926H36.6719ZM43.3002 382.588C42.5479 382.588 41.8999 382.427 41.3564 382.105C40.8161 381.781 40.3985 381.325 40.1035 380.738C39.8118 380.148 39.666 379.457 39.666 378.665C39.666 377.883 39.8118 377.194 40.1035 376.597C40.3985 376 40.8095 375.535 41.3365 375.2C41.8668 374.865 42.4866 374.698 43.1958 374.698C43.6267 374.698 44.0443 374.769 44.4487 374.912C44.853 375.054 45.216 375.278 45.5375 375.583C45.859 375.888 46.1125 376.284 46.2981 376.771C46.4837 377.255 46.5765 377.843 46.5765 378.536V379.063H40.5062V377.949H45.1199C45.1199 377.558 45.0403 377.212 44.8812 376.91C44.7221 376.605 44.4984 376.365 44.21 376.189C43.925 376.014 43.5903 375.926 43.2058 375.926C42.7882 375.926 42.4236 376.029 42.112 376.234C41.8038 376.436 41.5652 376.701 41.3961 377.029C41.2304 377.354 41.1475 377.707 41.1475 378.088V378.958C41.1475 379.469 41.237 379.903 41.416 380.261C41.5983 380.619 41.8519 380.892 42.1767 381.081C42.5015 381.267 42.881 381.36 43.3152 381.36C43.5969 381.36 43.8538 381.32 44.0858 381.24C44.3178 381.158 44.5183 381.035 44.6873 380.873C44.8564 380.71 44.9856 380.51 45.0751 380.271L46.4821 380.525C46.3694 380.939 46.1672 381.302 45.8755 381.613C45.5872 381.922 45.2243 382.162 44.7868 382.334C44.3526 382.503 43.8571 382.588 43.3002 382.588ZM48.2259 382.434V374.797H49.6626V376.01H49.7422C49.8814 375.599 50.1267 375.276 50.478 375.041C50.8326 374.802 51.2337 374.683 51.6811 374.683C51.7739 374.683 51.8833 374.686 52.0092 374.693C52.1385 374.699 52.2396 374.708 52.3125 374.718V376.14C52.2528 376.123 52.1468 376.105 51.9943 376.085C51.8419 376.062 51.6894 376.05 51.5369 376.05C51.1856 376.05 50.8724 376.125 50.5973 376.274C50.3255 376.42 50.1101 376.623 49.951 376.885C49.7919 377.144 49.7124 377.439 49.7124 377.77V382.434H48.2259ZM60.364 374.797L57.5948 382.434H56.0039L53.2298 374.797H54.8256L56.7596 380.674H56.8391L58.7681 374.797H60.364ZM61.761 382.434V374.797H63.2475V382.434H61.761ZM62.5117 373.619C62.2532 373.619 62.0311 373.533 61.8455 373.36C61.6632 373.185 61.5721 372.976 61.5721 372.734C61.5721 372.489 61.6632 372.28 61.8455 372.108C62.0311 371.932 62.2532 371.844 62.5117 371.844C62.7702 371.844 62.9906 371.932 63.1729 372.108C63.3585 372.28 63.4513 372.489 63.4513 372.734C63.4513 372.976 63.3585 373.185 63.1729 373.36C62.9906 373.533 62.7702 373.619 62.5117 373.619ZM68.464 382.588C67.7248 382.588 67.0885 382.42 66.5549 382.086C66.0246 381.748 65.6169 381.282 65.3319 380.689C65.0468 380.095 64.9043 379.416 64.9043 378.65C64.9043 377.875 65.0501 377.19 65.3418 376.597C65.6335 376 66.0444 375.535 66.5748 375.2C67.1051 374.865 67.7298 374.698 68.449 374.698C69.0291 374.698 69.5461 374.806 70.0002 375.021C70.4542 375.233 70.8205 375.531 71.0989 375.916C71.3806 376.3 71.548 376.749 71.601 377.263H70.1543C70.0748 376.905 69.8925 376.597 69.6074 376.338C69.3257 376.08 68.9479 375.951 68.4739 375.951C68.0596 375.951 67.6967 376.06 67.3851 376.279C67.0769 376.494 66.8366 376.802 66.6642 377.203C66.4919 377.601 66.4057 378.072 66.4057 378.615C66.4057 379.172 66.4902 379.653 66.6593 380.057C66.8283 380.462 67.0669 380.775 67.3752 380.997C67.6867 381.219 68.053 381.33 68.4739 381.33C68.7556 381.33 69.0108 381.279 69.2395 381.176C69.4715 381.07 69.6654 380.919 69.8212 380.723C69.9803 380.528 70.0913 380.292 70.1543 380.017H71.601C71.548 380.511 71.3873 380.952 71.1188 381.34C70.8503 381.728 70.4907 382.033 70.04 382.255C69.5925 382.477 69.0672 382.588 68.464 382.588ZM76.4819 382.588C75.7295 382.588 75.0816 382.427 74.538 382.105C73.9978 381.781 73.5801 381.325 73.2852 380.738C72.9935 380.148 72.8477 379.457 72.8477 378.665C72.8477 377.883 72.9935 377.194 73.2852 376.597C73.5801 376 73.9911 375.535 74.5181 375.2C75.0484 374.865 75.6682 374.698 76.3775 374.698C76.8084 374.698 77.226 374.769 77.6303 374.912C78.0347 375.054 78.3976 375.278 78.7191 375.583C79.0406 375.888 79.2942 376.284 79.4798 376.771C79.6654 377.255 79.7582 377.843 79.7582 378.536V379.063H73.6879V377.949H78.3015C78.3015 377.558 78.2219 377.212 78.0629 376.91C77.9038 376.605 77.68 376.365 77.3917 376.189C77.1067 376.014 76.7719 375.926 76.3874 375.926C75.9698 375.926 75.6052 376.029 75.2937 376.234C74.9854 376.436 74.7468 376.701 74.5778 377.029C74.4121 377.354 74.3292 377.707 74.3292 378.088V378.958C74.3292 379.469 74.4187 379.903 74.5977 380.261C74.7799 380.619 75.0335 380.892 75.3583 381.081C75.6831 381.267 76.0626 381.36 76.4968 381.36C76.7785 381.36 77.0354 381.32 77.2674 381.24C77.4994 381.158 77.6999 381.035 77.869 380.873C78.038 380.71 78.1673 380.51 78.2567 380.271L79.6637 380.525C79.551 380.939 79.3488 381.302 79.0572 381.613C78.7688 381.922 78.4059 382.162 77.9684 382.334C77.5342 382.503 77.0387 382.588 76.4819 382.588ZM87.3349 382.603C86.851 382.603 86.4135 382.513 86.0224 382.334C85.6313 382.152 85.3214 381.888 85.0927 381.544C84.8673 381.199 84.7546 380.776 84.7546 380.276C84.7546 379.845 84.8375 379.49 85.0032 379.212C85.1689 378.934 85.3926 378.713 85.6744 378.551C85.9561 378.388 86.271 378.266 86.619 378.183C86.967 378.1 87.3216 378.037 87.6829 377.994C88.1403 377.941 88.5115 377.898 88.7965 377.865C89.0816 377.828 89.2887 377.77 89.418 377.691C89.5472 377.611 89.6119 377.482 89.6119 377.303V377.268C89.6119 376.834 89.4892 376.498 89.244 376.259C89.002 376.02 88.6407 375.901 88.1602 375.901C87.6597 375.901 87.2653 376.012 86.9769 376.234C86.6919 376.453 86.4947 376.696 86.3853 376.965L84.9883 376.647C85.154 376.183 85.396 375.808 85.7141 375.523C86.0356 375.235 86.4052 375.026 86.8228 374.897C87.2404 374.764 87.6796 374.698 88.1403 374.698C88.4452 374.698 88.7683 374.734 89.1097 374.807C89.4544 374.877 89.7759 375.006 90.0742 375.195C90.3758 375.384 90.6228 375.654 90.815 376.005C91.0072 376.353 91.1033 376.806 91.1033 377.363V382.434H89.6516V381.39H89.592C89.4959 381.582 89.3517 381.771 89.1594 381.956C88.9672 382.142 88.7203 382.296 88.4187 382.419C88.1171 382.541 87.7558 382.603 87.3349 382.603ZM87.658 381.409C88.069 381.409 88.4203 381.328 88.712 381.166C89.007 381.003 89.2307 380.791 89.3832 380.529C89.5389 380.264 89.6168 379.981 89.6168 379.679V378.695C89.5638 378.748 89.4611 378.798 89.3086 378.844C89.1594 378.887 88.9888 378.925 88.7965 378.958C88.6043 378.988 88.417 379.016 88.2347 379.043C88.0524 379.066 87.9 379.086 87.7773 379.103C87.489 379.139 87.2255 379.2 86.9869 379.287C86.7515 379.373 86.5626 379.497 86.4201 379.659C86.2809 379.819 86.2113 380.031 86.2113 380.296C86.2113 380.664 86.3472 380.942 86.619 381.131C86.8907 381.317 87.2371 381.409 87.658 381.409ZM94.5698 377.9V382.434H93.0833V374.797H94.5101V376.04H94.6046C94.7802 375.636 95.0553 375.311 95.4299 375.066C95.8077 374.82 96.2833 374.698 96.8567 374.698C97.3771 374.698 97.8328 374.807 98.2239 375.026C98.615 375.241 98.9183 375.563 99.1337 375.99C99.3491 376.418 99.4569 376.947 99.4569 377.576V382.434H97.9703V377.755C97.9703 377.202 97.8262 376.769 97.5378 376.458C97.2495 376.143 96.8534 375.985 96.3496 375.985C96.0049 375.985 95.6983 376.06 95.4299 376.209C95.1647 376.358 94.9542 376.577 94.7985 376.865C94.646 377.15 94.5698 377.495 94.5698 377.9ZM104.309 382.583C103.693 382.583 103.142 382.425 102.659 382.11C102.178 381.792 101.8 381.34 101.525 380.753C101.253 380.163 101.117 379.456 101.117 378.63C101.117 377.805 101.255 377.099 101.53 376.512C101.808 375.926 102.19 375.477 102.673 375.165C103.157 374.854 103.706 374.698 104.319 374.698C104.793 374.698 105.174 374.777 105.463 374.936C105.754 375.092 105.98 375.275 106.139 375.483C106.301 375.692 106.427 375.876 106.517 376.035H106.606V372.252H108.093V382.434H106.641V381.245H106.517C106.427 381.408 106.298 381.593 106.129 381.802C105.963 382.011 105.734 382.193 105.443 382.349C105.151 382.505 104.773 382.583 104.309 382.583ZM104.637 381.315C105.065 381.315 105.426 381.202 105.721 380.977C106.019 380.748 106.245 380.432 106.397 380.027C106.553 379.623 106.631 379.152 106.631 378.615C106.631 378.085 106.555 377.621 106.402 377.223C106.25 376.826 106.026 376.516 105.731 376.294C105.436 376.072 105.071 375.961 104.637 375.961C104.19 375.961 103.817 376.077 103.519 376.309C103.22 376.541 102.995 376.857 102.843 377.258C102.693 377.659 102.619 378.112 102.619 378.615C102.619 379.126 102.695 379.585 102.847 379.993C103 380.4 103.225 380.723 103.524 380.962C103.825 381.197 104.196 381.315 104.637 381.315ZM114.039 382.434V372.252H117.668C118.46 372.252 119.116 372.396 119.637 372.684C120.157 372.973 120.546 373.367 120.805 373.868C121.063 374.365 121.193 374.925 121.193 375.548C121.193 376.174 121.062 376.738 120.8 377.238C120.541 377.735 120.15 378.13 119.627 378.422C119.106 378.71 118.452 378.854 117.663 378.854H115.167V377.551H117.524C118.024 377.551 118.43 377.465 118.742 377.293C119.053 377.117 119.282 376.879 119.428 376.577C119.574 376.275 119.646 375.932 119.646 375.548C119.646 375.163 119.574 374.822 119.428 374.524C119.282 374.225 119.052 373.992 118.737 373.823C118.425 373.654 118.014 373.569 117.504 373.569H115.575V382.434H114.039ZM122.874 382.434V374.797H124.311V376.01H124.391C124.53 375.599 124.775 375.276 125.126 375.041C125.481 374.802 125.882 374.683 126.33 374.683C126.422 374.683 126.532 374.686 126.658 374.693C126.787 374.699 126.888 374.708 126.961 374.718V376.14C126.901 376.123 126.795 376.105 126.643 376.085C126.49 376.062 126.338 376.05 126.185 376.05C125.834 376.05 125.521 376.125 125.246 376.274C124.974 376.42 124.759 376.623 124.599 376.885C124.44 377.144 124.361 377.439 124.361 377.77V382.434H122.874ZM128.247 382.434V374.797H129.734V382.434H128.247ZM128.998 373.619C128.74 373.619 128.517 373.533 128.332 373.36C128.15 373.185 128.058 372.976 128.058 372.734C128.058 372.489 128.15 372.28 128.332 372.108C128.517 371.932 128.74 371.844 128.998 371.844C129.257 371.844 129.477 371.932 129.659 372.108C129.845 372.28 129.938 372.489 129.938 372.734C129.938 372.976 129.845 373.185 129.659 373.36C129.477 373.533 129.257 373.619 128.998 373.619ZM138.266 374.797L135.497 382.434H133.906L131.132 374.797H132.728L134.662 380.674H134.741L136.67 374.797H138.266ZM141.667 382.603C141.183 382.603 140.746 382.513 140.354 382.334C139.963 382.152 139.653 381.888 139.425 381.544C139.199 381.199 139.087 380.776 139.087 380.276C139.087 379.845 139.17 379.49 139.335 379.212C139.501 378.934 139.725 378.713 140.006 378.551C140.288 378.388 140.603 378.266 140.951 378.183C141.299 378.1 141.654 378.037 142.015 377.994C142.472 377.941 142.844 377.898 143.129 377.865C143.414 377.828 143.621 377.77 143.75 377.691C143.879 377.611 143.944 377.482 143.944 377.303V377.268C143.944 376.834 143.821 376.498 143.576 376.259C143.334 376.02 142.973 375.901 142.492 375.901C141.992 375.901 141.597 376.012 141.309 376.234C141.024 376.453 140.827 376.696 140.717 376.965L139.32 376.647C139.486 376.183 139.728 375.808 140.046 375.523C140.368 375.235 140.737 375.026 141.155 374.897C141.572 374.764 142.012 374.698 142.472 374.698C142.777 374.698 143.1 374.734 143.442 374.807C143.786 374.877 144.108 375.006 144.406 375.195C144.708 375.384 144.955 375.654 145.147 376.005C145.339 376.353 145.435 376.806 145.435 377.363V382.434H143.984V381.39H143.924C143.828 381.582 143.684 381.771 143.491 381.956C143.299 382.142 143.052 382.296 142.751 382.419C142.449 382.541 142.088 382.603 141.667 382.603ZM141.99 381.409C142.401 381.409 142.752 381.328 143.044 381.166C143.339 381.003 143.563 380.791 143.715 380.529C143.871 380.264 143.949 379.981 143.949 379.679V378.695C143.896 378.748 143.793 378.798 143.641 378.844C143.491 378.887 143.321 378.925 143.129 378.958C142.936 378.988 142.749 379.016 142.567 379.043C142.384 379.066 142.232 379.086 142.109 379.103C141.821 379.139 141.558 379.2 141.319 379.287C141.084 379.373 140.895 379.497 140.752 379.659C140.613 379.819 140.543 380.031 140.543 380.296C140.543 380.664 140.679 380.942 140.951 381.131C141.223 381.317 141.569 381.409 141.99 381.409ZM150.632 382.588C149.893 382.588 149.256 382.42 148.723 382.086C148.193 381.748 147.785 381.282 147.5 380.689C147.215 380.095 147.072 379.416 147.072 378.65C147.072 377.875 147.218 377.19 147.51 376.597C147.801 376 148.212 375.535 148.743 375.2C149.273 374.865 149.898 374.698 150.617 374.698C151.197 374.698 151.714 374.806 152.168 375.021C152.622 375.233 152.988 375.531 153.267 375.916C153.549 376.3 153.716 376.749 153.769 377.263H152.322C152.243 376.905 152.06 376.597 151.775 376.338C151.494 376.08 151.116 375.951 150.642 375.951C150.228 375.951 149.865 376.06 149.553 376.279C149.245 376.494 149.005 376.802 148.832 377.203C148.66 377.601 148.574 378.072 148.574 378.615C148.574 379.172 148.658 379.653 148.827 380.057C148.996 380.462 149.235 380.775 149.543 380.997C149.855 381.219 150.221 381.33 150.642 381.33C150.924 381.33 151.179 381.279 151.407 381.176C151.64 381.07 151.833 380.919 151.989 380.723C152.148 380.528 152.259 380.292 152.322 380.017H153.769C153.716 380.511 153.555 380.952 153.287 381.34C153.018 381.728 152.659 382.033 152.208 382.255C151.76 382.477 151.235 382.588 150.632 382.588ZM156.298 385.297C156.076 385.297 155.874 385.279 155.692 385.243C155.509 385.209 155.374 385.173 155.284 385.133L155.642 383.915C155.914 383.988 156.156 384.02 156.368 384.01C156.58 384 156.767 383.92 156.93 383.771C157.095 383.622 157.241 383.378 157.367 383.04L157.551 382.533L154.757 374.797H156.348L158.282 380.723H158.362L160.295 374.797H161.891L158.744 383.453C158.598 383.85 158.413 384.187 158.188 384.462C157.962 384.74 157.694 384.949 157.382 385.088C157.071 385.228 156.709 385.297 156.298 385.297ZM167.113 382.434V372.252H170.742C171.534 372.252 172.19 372.396 172.711 372.684C173.231 372.973 173.621 373.367 173.879 373.868C174.138 374.365 174.267 374.925 174.267 375.548C174.267 376.174 174.136 376.738 173.874 377.238C173.616 377.735 173.224 378.13 172.701 378.422C172.18 378.71 171.526 378.854 170.737 378.854H168.241V377.551H170.598C171.098 377.551 171.504 377.465 171.816 377.293C172.127 377.117 172.356 376.879 172.502 376.577C172.648 376.275 172.721 375.932 172.721 375.548C172.721 375.163 172.648 374.822 172.502 374.524C172.356 374.225 172.126 373.992 171.811 373.823C171.499 373.654 171.088 373.569 170.578 373.569H168.649V382.434H167.113ZM179.069 382.588C178.354 382.588 177.729 382.424 177.195 382.096C176.662 381.767 176.247 381.308 175.952 380.718C175.657 380.128 175.51 379.439 175.51 378.65C175.51 377.858 175.657 377.165 175.952 376.572C176.247 375.979 176.662 375.518 177.195 375.19C177.729 374.862 178.354 374.698 179.069 374.698C179.785 374.698 180.41 374.862 180.944 375.19C181.477 375.518 181.892 375.979 182.187 376.572C182.482 377.165 182.629 377.858 182.629 378.65C182.629 379.439 182.482 380.128 182.187 380.718C181.892 381.308 181.477 381.767 180.944 382.096C180.41 382.424 179.785 382.588 179.069 382.588ZM179.074 381.34C179.538 381.34 179.923 381.217 180.228 380.972C180.533 380.727 180.758 380.4 180.904 379.993C181.053 379.585 181.128 379.136 181.128 378.645C181.128 378.158 181.053 377.711 180.904 377.303C180.758 376.892 180.533 376.562 180.228 376.314C179.923 376.065 179.538 375.941 179.074 375.941C178.607 375.941 178.219 376.065 177.911 376.314C177.606 376.562 177.379 376.892 177.23 377.303C177.084 377.711 177.011 378.158 177.011 378.645C177.011 379.136 177.084 379.585 177.23 379.993C177.379 380.4 177.606 380.727 177.911 380.972C178.219 381.217 178.607 381.34 179.074 381.34ZM185.775 372.252V382.434H184.288V372.252H185.775ZM187.775 382.434V374.797H189.261V382.434H187.775ZM188.525 373.619C188.267 373.619 188.045 373.533 187.859 373.36C187.677 373.185 187.586 372.976 187.586 372.734C187.586 372.489 187.677 372.28 187.859 372.108C188.045 371.932 188.267 371.844 188.525 371.844C188.784 371.844 189.004 371.932 189.187 372.108C189.372 372.28 189.465 372.489 189.465 372.734C189.465 372.976 189.372 373.185 189.187 373.36C189.004 373.533 188.784 373.619 188.525 373.619ZM194.478 382.588C193.739 382.588 193.102 382.42 192.569 382.086C192.038 381.748 191.631 381.282 191.346 380.689C191.06 380.095 190.918 379.416 190.918 378.65C190.918 377.875 191.064 377.19 191.355 376.597C191.647 376 192.058 375.535 192.588 375.2C193.119 374.865 193.743 374.698 194.463 374.698C195.043 374.698 195.56 374.806 196.014 375.021C196.468 375.233 196.834 375.531 197.113 375.916C197.394 376.3 197.562 376.749 197.615 377.263H196.168C196.088 376.905 195.906 376.597 195.621 376.338C195.339 376.08 194.962 375.951 194.488 375.951C194.073 375.951 193.71 376.06 193.399 376.279C193.091 376.494 192.85 376.802 192.678 377.203C192.506 377.601 192.419 378.072 192.419 378.615C192.419 379.172 192.504 379.653 192.673 380.057C192.842 380.462 193.081 380.775 193.389 380.997C193.7 381.219 194.067 381.33 194.488 381.33C194.769 381.33 195.025 381.279 195.253 381.176C195.485 381.07 195.679 380.919 195.835 380.723C195.994 380.528 196.105 380.292 196.168 380.017H197.615C197.562 380.511 197.401 380.952 197.132 381.34C196.864 381.728 196.504 382.033 196.054 382.255C195.606 382.477 195.081 382.588 194.478 382.588ZM200.144 385.297C199.922 385.297 199.72 385.279 199.537 385.243C199.355 385.209 199.219 385.173 199.13 385.133L199.488 383.915C199.76 383.988 200.001 384.02 200.214 384.01C200.426 384 200.613 383.92 200.775 383.771C200.941 383.622 201.087 383.378 201.213 383.04L201.397 382.533L198.603 374.797H200.194L202.128 380.723H202.207L204.141 374.797H205.737L202.59 383.453C202.444 383.85 202.259 384.187 202.033 384.462C201.808 384.74 201.539 384.949 201.228 385.088C200.916 385.228 200.555 385.297 200.144 385.297Z" fill="#F3A615"/>
</svg>
