<svg width="164" height="63" viewBox="0 0 164 63" fill="none" xmlns="http://www.w3.org/2000/svg">
<g filter="url(#filter0_dd_352_39947)">
<rect x="12" width="140" height="40" rx="4" fill="#F3A615"/>
<path d="M51.2784 25.5V13.8636H55.4261C56.3277 13.8636 57.0758 14.0189 57.6705 14.3295C58.2689 14.6402 58.7159 15.0701 59.0114 15.6193C59.3068 16.1648 59.4545 16.7955 59.4545 17.5114C59.4545 18.2235 59.3049 18.8504 59.0057 19.392C58.7102 19.9299 58.2633 20.3485 57.6648 20.6477C57.0701 20.947 56.322 21.0966 55.4205 21.0966H52.2784V19.5852H55.2614C55.8295 19.5852 56.2917 19.5038 56.6477 19.3409C57.0076 19.178 57.2708 18.9413 57.4375 18.6307C57.6042 18.3201 57.6875 17.947 57.6875 17.5114C57.6875 17.072 57.6023 16.6913 57.4318 16.3693C57.2652 16.0473 57.0019 15.8011 56.642 15.6307C56.286 15.4564 55.8182 15.3693 55.2386 15.3693H53.0341V25.5H51.2784ZM57.0227 20.25L59.8977 25.5H57.8977L55.0795 20.25H57.0227ZM65.1065 25.6761C64.2467 25.6761 63.5062 25.4924 62.8849 25.125C62.2675 24.7538 61.7902 24.233 61.4531 23.5625C61.1198 22.8883 60.9531 22.0985 60.9531 21.1932C60.9531 20.2992 61.1198 19.5114 61.4531 18.8295C61.7902 18.1477 62.2599 17.6155 62.8622 17.233C63.4683 16.8504 64.1766 16.6591 64.9872 16.6591C65.4796 16.6591 65.9569 16.7405 66.419 16.9034C66.8812 17.0663 67.2959 17.322 67.6634 17.6705C68.0308 18.0189 68.3205 18.4716 68.5327 19.0284C68.7448 19.5814 68.8509 20.2538 68.8509 21.0455V21.6477H61.9134V20.375H67.1861C67.1861 19.928 67.0952 19.5322 66.9134 19.1875C66.7315 18.839 66.4759 18.5644 66.1463 18.3636C65.8205 18.1629 65.438 18.0625 64.9986 18.0625C64.5213 18.0625 64.1046 18.1799 63.7486 18.4148C63.3963 18.6458 63.1236 18.9489 62.9304 19.3239C62.741 19.6951 62.6463 20.0985 62.6463 20.5341V21.5284C62.6463 22.1117 62.7486 22.608 62.9531 23.017C63.1615 23.4261 63.4512 23.7386 63.8224 23.9545C64.1937 24.1667 64.6274 24.2727 65.1236 24.2727C65.4455 24.2727 65.7391 24.2273 66.0043 24.1364C66.2694 24.0417 66.4986 23.9015 66.6918 23.7159C66.8849 23.5303 67.0327 23.3011 67.1349 23.0284L68.7429 23.3182C68.6141 23.7917 68.383 24.2064 68.0497 24.5625C67.7202 24.9148 67.3054 25.1894 66.8054 25.3864C66.3092 25.5795 65.7429 25.6761 65.1065 25.6761ZM74.3949 28.9545C73.7017 28.9545 73.1051 28.8636 72.6051 28.6818C72.1089 28.5 71.7036 28.2595 71.3892 27.9602C71.0748 27.661 70.84 27.3333 70.6847 26.9773L72.1449 26.375C72.2472 26.5417 72.3835 26.7178 72.554 26.9034C72.7282 27.0928 72.9631 27.2538 73.2585 27.3864C73.5578 27.5189 73.9422 27.5852 74.4119 27.5852C75.0559 27.5852 75.5881 27.428 76.0085 27.1136C76.429 26.803 76.6392 26.3068 76.6392 25.625V23.9091H76.5312C76.429 24.0947 76.2813 24.3011 76.0881 24.5284C75.8987 24.7557 75.6373 24.9527 75.304 25.1193C74.9706 25.286 74.5369 25.3693 74.0028 25.3693C73.3134 25.3693 72.6922 25.2083 72.1392 24.8864C71.59 24.5606 71.1544 24.0814 70.8324 23.4489C70.5142 22.8125 70.3551 22.0303 70.3551 21.1023C70.3551 20.1742 70.5123 19.3788 70.8267 18.7159C71.1449 18.053 71.5805 17.5455 72.1335 17.1932C72.6866 16.8371 73.3134 16.6591 74.0142 16.6591C74.5559 16.6591 74.9934 16.75 75.3267 16.9318C75.66 17.1098 75.9195 17.3182 76.1051 17.5568C76.2945 17.7955 76.4403 18.0057 76.5426 18.1875H76.6676V16.7727H78.3324V25.6932C78.3324 26.4432 78.1581 27.0587 77.8097 27.5398C77.4612 28.0208 76.9896 28.3769 76.3949 28.608C75.804 28.839 75.1373 28.9545 74.3949 28.9545ZM74.3778 23.9602C74.8665 23.9602 75.2794 23.8466 75.6165 23.6193C75.9574 23.3883 76.215 23.0587 76.3892 22.6307C76.5672 22.1989 76.6562 21.6818 76.6562 21.0795C76.6562 20.4924 76.5691 19.9754 76.3949 19.5284C76.2206 19.0814 75.965 18.733 75.6278 18.483C75.2907 18.2292 74.8741 18.1023 74.3778 18.1023C73.8665 18.1023 73.4403 18.2348 73.0994 18.5C72.7585 18.7614 72.5009 19.1174 72.3267 19.5682C72.1563 20.0189 72.071 20.5227 72.071 21.0795C72.071 21.6515 72.1581 22.1534 72.3324 22.5852C72.5066 23.017 72.7642 23.3542 73.1051 23.5966C73.4498 23.839 73.8741 23.9602 74.3778 23.9602ZM80.6108 25.5V16.7727H82.3097V25.5H80.6108ZM81.4688 15.4261C81.1733 15.4261 80.9195 15.3277 80.7074 15.1307C80.4991 14.9299 80.3949 14.6913 80.3949 14.4148C80.3949 14.1345 80.4991 13.8958 80.7074 13.6989C80.9195 13.4981 81.1733 13.3977 81.4688 13.3977C81.7642 13.3977 82.0161 13.4981 82.2244 13.6989C82.4366 13.8958 82.5426 14.1345 82.5426 14.4148C82.5426 14.6913 82.4366 14.9299 82.2244 15.1307C82.0161 15.3277 81.7642 15.4261 81.4688 15.4261ZM91.1349 18.9034L89.5952 19.1761C89.5308 18.9792 89.4285 18.7917 89.2884 18.6136C89.152 18.4356 88.9664 18.2898 88.7315 18.1761C88.4967 18.0625 88.2031 18.0057 87.8509 18.0057C87.3698 18.0057 86.9683 18.1136 86.6463 18.3295C86.3243 18.5417 86.1634 18.8163 86.1634 19.1534C86.1634 19.4451 86.2713 19.6799 86.4872 19.858C86.7031 20.036 87.0516 20.1818 87.5327 20.2955L88.919 20.6136C89.7221 20.7992 90.3205 21.0852 90.7145 21.4716C91.1084 21.858 91.3054 22.3598 91.3054 22.9773C91.3054 23.5 91.1539 23.9659 90.8509 24.375C90.5516 24.7803 90.133 25.0985 89.5952 25.3295C89.0611 25.5606 88.4418 25.6761 87.7372 25.6761C86.7599 25.6761 85.9626 25.4678 85.3452 25.0511C84.7277 24.6307 84.349 24.0341 84.2088 23.2614L85.8509 23.0114C85.9531 23.4394 86.1634 23.7633 86.4815 23.983C86.7997 24.1989 87.2145 24.3068 87.7259 24.3068C88.2827 24.3068 88.7277 24.1913 89.0611 23.9602C89.3944 23.7254 89.5611 23.4394 89.5611 23.1023C89.5611 22.8295 89.4588 22.6004 89.2543 22.4148C89.0535 22.2292 88.7448 22.089 88.3281 21.9943L86.8509 21.6705C86.0365 21.4848 85.4342 21.1894 85.044 20.7841C84.6577 20.3788 84.4645 19.8655 84.4645 19.2443C84.4645 18.7292 84.6084 18.2784 84.8963 17.892C85.1842 17.5057 85.5819 17.2045 86.0895 16.9886C86.5971 16.7689 87.1785 16.6591 87.8338 16.6591C88.777 16.6591 89.5194 16.8636 90.0611 17.2727C90.6027 17.678 90.9607 18.2216 91.1349 18.9034ZM97.2472 16.7727V18.1364H92.4801V16.7727H97.2472ZM93.7585 14.6818H95.4574V22.9375C95.4574 23.267 95.5066 23.5152 95.6051 23.6818C95.7036 23.8447 95.8305 23.9564 95.9858 24.017C96.1449 24.0739 96.3172 24.1023 96.5028 24.1023C96.6392 24.1023 96.7585 24.0928 96.8608 24.0739C96.9631 24.0549 97.0426 24.0398 97.0994 24.0284L97.4062 25.4318C97.3078 25.4697 97.1676 25.5076 96.9858 25.5455C96.804 25.5871 96.5767 25.6098 96.304 25.6136C95.857 25.6212 95.4403 25.5417 95.054 25.375C94.6676 25.2083 94.3551 24.9508 94.1165 24.6023C93.8778 24.2538 93.7585 23.8163 93.7585 23.2898V14.6818ZM102.794 25.6761C101.934 25.6761 101.194 25.4924 100.572 25.125C99.955 24.7538 99.4777 24.233 99.1406 23.5625C98.8073 22.8883 98.6406 22.0985 98.6406 21.1932C98.6406 20.2992 98.8073 19.5114 99.1406 18.8295C99.4777 18.1477 99.9474 17.6155 100.55 17.233C101.156 16.8504 101.864 16.6591 102.675 16.6591C103.167 16.6591 103.644 16.7405 104.107 16.9034C104.569 17.0663 104.983 17.322 105.351 17.6705C105.718 18.0189 106.008 18.4716 106.22 19.0284C106.432 19.5814 106.538 20.2538 106.538 21.0455V21.6477H99.6009V20.375H104.874C104.874 19.928 104.783 19.5322 104.601 19.1875C104.419 18.839 104.163 18.5644 103.834 18.3636C103.508 18.1629 103.125 18.0625 102.686 18.0625C102.209 18.0625 101.792 18.1799 101.436 18.4148C101.084 18.6458 100.811 18.9489 100.618 19.3239C100.429 19.6951 100.334 20.0985 100.334 20.5341V21.5284C100.334 22.1117 100.436 22.608 100.641 23.017C100.849 23.4261 101.139 23.7386 101.51 23.9545C101.881 24.1667 102.315 24.2727 102.811 24.2727C103.133 24.2727 103.427 24.2273 103.692 24.1364C103.957 24.0417 104.186 23.9015 104.379 23.7159C104.572 23.5303 104.72 23.3011 104.822 23.0284L106.43 23.3182C106.302 23.7917 106.071 24.2064 105.737 24.5625C105.408 24.9148 104.993 25.1894 104.493 25.3864C103.997 25.5795 103.43 25.6761 102.794 25.6761ZM108.423 25.5V16.7727H110.065V18.1591H110.156C110.315 17.6894 110.596 17.3201 110.997 17.0511C111.402 16.7784 111.861 16.642 112.372 16.642C112.478 16.642 112.603 16.6458 112.747 16.6534C112.895 16.661 113.01 16.6705 113.094 16.6818V18.3068C113.026 18.2879 112.904 18.267 112.73 18.2443C112.556 18.2178 112.382 18.2045 112.207 18.2045C111.806 18.2045 111.448 18.2898 111.134 18.4602C110.823 18.6269 110.577 18.8598 110.395 19.1591C110.213 19.4545 110.122 19.7917 110.122 20.1705V25.5H108.423Z" fill="white"/>
</g>
<defs>
<filter id="filter0_dd_352_39947" x="0.516616" y="-1.19209e-06" width="162.967" height="62.9668" filterUnits="userSpaceOnUse" color-interpolation-filters="sRGB">
<feFlood flood-opacity="0" result="BackgroundImageFix"/>
<feColorMatrix in="SourceAlpha" type="matrix" values="0 0 0 0 0 0 0 0 0 0 0 0 0 0 0 0 0 0 127 0" result="hardAlpha"/>
<feMorphology radius="1.9139" operator="erode" in="SourceAlpha" result="effect1_dropShadow_352_39947"/>
<feOffset dy="3.82779"/>
<feGaussianBlur stdDeviation="2.87085"/>
<feColorMatrix type="matrix" values="0 0 0 0 0.0627451 0 0 0 0 0.0941176 0 0 0 0 0.156863 0 0 0 0.03 0"/>
<feBlend mode="normal" in2="BackgroundImageFix" result="effect1_dropShadow_352_39947"/>
<feColorMatrix in="SourceAlpha" type="matrix" values="0 0 0 0 0 0 0 0 0 0 0 0 0 0 0 0 0 0 127 0" result="hardAlpha"/>
<feMorphology radius="3.82779" operator="erode" in="SourceAlpha" result="effect2_dropShadow_352_39947"/>
<feOffset dy="11.4834"/>
<feGaussianBlur stdDeviation="7.65559"/>
<feColorMatrix type="matrix" values="0 0 0 0 0.0627451 0 0 0 0 0.0941176 0 0 0 0 0.156863 0 0 0 0.08 0"/>
<feBlend mode="normal" in2="effect1_dropShadow_352_39947" result="effect2_dropShadow_352_39947"/>
<feBlend mode="normal" in="SourceGraphic" in2="effect2_dropShadow_352_39947" result="shape"/>
</filter>
</defs>
</svg>
