<svg width="44" height="18" viewBox="0 0 44 18" fill="none" xmlns="http://www.w3.org/2000/svg">
<path d="M7.69669 6.77771C7.64366 6.2815 7.42017 5.89513 7.02623 5.61862C6.63608 5.3421 6.12851 5.20385 5.50351 5.20385C5.06411 5.20385 4.68722 5.27013 4.37283 5.40271C4.05843 5.53529 3.8179 5.71521 3.65123 5.94248C3.48457 6.16976 3.39934 6.42923 3.39555 6.72089C3.39555 6.96332 3.45048 7.17354 3.56033 7.35157C3.67396 7.5296 3.82737 7.68112 4.02055 7.80612C4.21373 7.92733 4.42775 8.0296 4.6626 8.11294C4.89745 8.19627 5.13419 8.26635 5.37283 8.32316L6.46373 8.59589C6.90313 8.69816 7.32548 8.83642 7.73078 9.01066C8.13987 9.18491 8.5054 9.4046 8.82737 9.66976C9.15313 9.93491 9.4107 10.255 9.6001 10.63C9.78949 11.005 9.88419 11.4444 9.88419 11.9482C9.88419 12.63 9.70995 13.2304 9.36146 13.7493C9.01298 14.2645 8.50919 14.6679 7.8501 14.9595C7.19479 15.2474 6.40123 15.3913 5.46942 15.3913C4.56411 15.3913 3.77813 15.2512 3.11146 14.9709C2.44858 14.6906 1.92964 14.2815 1.55464 13.7436C1.18343 13.2057 0.982673 12.5504 0.95237 11.7777H3.02623C3.05654 12.183 3.18154 12.5201 3.40123 12.7891C3.62093 13.058 3.90692 13.2588 4.25919 13.3913C4.61525 13.5239 5.01298 13.5902 5.45237 13.5902C5.9107 13.5902 6.31222 13.522 6.65692 13.3857C7.0054 13.2455 7.27813 13.0523 7.4751 12.8061C7.67207 12.5561 7.77245 12.2645 7.77623 11.9311C7.77245 11.6281 7.68343 11.3781 7.50919 11.1811C7.33495 10.9804 7.09063 10.8137 6.77623 10.6811C6.46563 10.5448 6.10199 10.4235 5.68533 10.3175L4.36146 9.97657C3.40313 9.73036 2.64555 9.35726 2.08873 8.85726C1.5357 8.35347 1.25919 7.68491 1.25919 6.85157C1.25919 6.16597 1.44479 5.56559 1.81601 5.05044C2.19101 4.53529 2.70048 4.13566 3.34442 3.85157C3.98836 3.56369 4.71752 3.41975 5.53192 3.41975C6.35767 3.41975 7.08116 3.56369 7.70237 3.85157C8.32737 4.13566 8.8179 4.5315 9.17396 5.03907C9.53002 5.54286 9.71373 6.12241 9.7251 6.77771H7.69669ZM11.7634 15.2152V3.57885H13.8714V13.4482H18.9964V15.2152H11.7634ZM22.5873 3.57885L25.1498 7.84021H25.2407L27.8146 3.57885H30.218L26.6328 9.39703L30.2748 15.2152H27.8316L25.2407 10.9823H25.1498L22.5589 15.2152H20.1271L23.8032 9.39703L20.1725 3.57885H22.5873Z" fill="#646464"/>
</svg>
