<svg width="352" height="88" viewBox="0 0 352 88" fill="none" xmlns="http://www.w3.org/2000/svg">
<g filter="url(#filter0_dd_307_36594)">
<rect x="11.9219" y="0.5" width="328" height="64" rx="3.82779" fill="#F3A615"/>
<path d="M162.2 38V26.3636H166.462C167.287 26.3636 167.971 26.5 168.513 26.7727C169.054 27.0417 169.46 27.4072 169.729 27.8693C169.998 28.3277 170.132 28.8447 170.132 29.4205C170.132 29.9053 170.043 30.3144 169.865 30.6477C169.687 30.9773 169.448 31.2424 169.149 31.4432C168.854 31.6402 168.528 31.7841 168.172 31.875V31.9886C168.558 32.0076 168.935 32.1326 169.303 32.3636C169.674 32.5909 169.981 32.9148 170.223 33.3352C170.465 33.7557 170.587 34.267 170.587 34.8693C170.587 35.464 170.446 35.9981 170.166 36.4716C169.89 36.9413 169.462 37.3144 168.882 37.5909C168.303 37.8636 167.562 38 166.661 38H162.2ZM163.956 36.4943H166.49C167.331 36.4943 167.933 36.3314 168.297 36.0057C168.661 35.6799 168.842 35.2727 168.842 34.7841C168.842 34.4167 168.75 34.0795 168.564 33.7727C168.378 33.4659 168.113 33.2216 167.768 33.0398C167.428 32.858 167.022 32.767 166.553 32.767H163.956V36.4943ZM163.956 31.3977H166.308C166.702 31.3977 167.056 31.322 167.371 31.1705C167.689 31.0189 167.941 30.8068 168.126 30.5341C168.316 30.2576 168.411 29.9318 168.411 29.5568C168.411 29.0758 168.242 28.6723 167.905 28.3466C167.568 28.0208 167.051 27.858 166.354 27.858H163.956V31.3977ZM178.061 34.3807V29.2727H179.766V38H178.095V36.4886H178.004C177.804 36.9545 177.482 37.3428 177.038 37.6534C176.599 37.9602 176.052 38.1136 175.396 38.1136C174.836 38.1136 174.339 37.9905 173.908 37.7443C173.48 37.4943 173.143 37.125 172.896 36.6364C172.654 36.1477 172.533 35.5436 172.533 34.8239V29.2727H174.232V34.6193C174.232 35.214 174.396 35.6875 174.726 36.0398C175.055 36.392 175.483 36.5682 176.01 36.5682C176.328 36.5682 176.644 36.4886 176.959 36.3295C177.277 36.1705 177.54 35.9299 177.749 35.608C177.961 35.286 178.065 34.8769 178.061 34.3807ZM183.122 41.2727C182.868 41.2727 182.637 41.2519 182.429 41.2102C182.221 41.1723 182.065 41.1307 181.963 41.0852L182.372 39.6932C182.683 39.7765 182.959 39.8125 183.202 39.8011C183.444 39.7898 183.658 39.6989 183.844 39.5284C184.033 39.358 184.2 39.0795 184.344 38.6932L184.554 38.1136L181.361 29.2727H183.179L185.389 36.0455H185.48L187.69 29.2727H189.514L185.918 39.1648C185.751 39.6193 185.539 40.0038 185.281 40.3182C185.024 40.6364 184.717 40.875 184.361 41.0341C184.005 41.1932 183.592 41.2727 183.122 41.2727Z" fill="white"/>
</g>
<defs>
<filter id="filter0_dd_307_36594" x="0.438491" y="0.499999" width="350.967" height="86.9668" filterUnits="userSpaceOnUse" color-interpolation-filters="sRGB">
<feFlood flood-opacity="0" result="BackgroundImageFix"/>
<feColorMatrix in="SourceAlpha" type="matrix" values="0 0 0 0 0 0 0 0 0 0 0 0 0 0 0 0 0 0 127 0" result="hardAlpha"/>
<feMorphology radius="1.9139" operator="erode" in="SourceAlpha" result="effect1_dropShadow_307_36594"/>
<feOffset dy="3.82779"/>
<feGaussianBlur stdDeviation="2.87085"/>
<feColorMatrix type="matrix" values="0 0 0 0 0.0627451 0 0 0 0 0.0941176 0 0 0 0 0.156863 0 0 0 0.03 0"/>
<feBlend mode="normal" in2="BackgroundImageFix" result="effect1_dropShadow_307_36594"/>
<feColorMatrix in="SourceAlpha" type="matrix" values="0 0 0 0 0 0 0 0 0 0 0 0 0 0 0 0 0 0 127 0" result="hardAlpha"/>
<feMorphology radius="3.82779" operator="erode" in="SourceAlpha" result="effect2_dropShadow_307_36594"/>
<feOffset dy="11.4834"/>
<feGaussianBlur stdDeviation="7.65559"/>
<feColorMatrix type="matrix" values="0 0 0 0 0.0627451 0 0 0 0 0.0941176 0 0 0 0 0.156863 0 0 0 0.08 0"/>
<feBlend mode="normal" in2="effect1_dropShadow_307_36594" result="effect2_dropShadow_307_36594"/>
<feBlend mode="normal" in="SourceGraphic" in2="effect2_dropShadow_307_36594" result="shape"/>
</filter>
</defs>
</svg>
