<svg width="351" height="85" viewBox="0 0 351 85" fill="none" xmlns="http://www.w3.org/2000/svg">
<g filter="url(#filter0_dd_352_40071)">
<rect x="12" width="327" height="62" rx="4" fill="#F3A615"/>
<path d="M121.379 36.5V26.3182H123.224V34.9538H127.708V36.5H121.379ZM132.61 36.6491C131.844 36.6491 131.183 36.4901 130.626 36.1719C130.073 35.8504 129.647 35.3963 129.349 34.8097C129.05 34.2197 128.901 33.5253 128.901 32.7266C128.901 31.9411 129.05 31.2517 129.349 30.6584C129.65 30.0618 130.071 29.5978 130.612 29.2663C131.152 28.9316 131.786 28.7642 132.516 28.7642C132.986 28.7642 133.43 28.8404 133.848 28.9929C134.269 29.142 134.64 29.3741 134.962 29.6889C135.286 30.0038 135.542 30.4048 135.727 30.892C135.913 31.3759 136.006 31.9527 136.006 32.6222V33.174H129.746V31.9609H134.281C134.277 31.6162 134.203 31.3097 134.057 31.0412C133.911 30.7694 133.707 30.5556 133.445 30.3999C133.187 30.2441 132.885 30.1662 132.54 30.1662C132.173 30.1662 131.849 30.2557 131.571 30.4347C131.293 30.6103 131.076 30.8423 130.92 31.1307C130.767 31.4157 130.689 31.7289 130.686 32.0703V33.1293C130.686 33.5734 130.767 33.9545 130.93 34.2727C131.092 34.5876 131.319 34.8295 131.611 34.9986C131.902 35.1643 132.244 35.2472 132.635 35.2472C132.897 35.2472 133.134 35.2107 133.346 35.1378C133.558 35.0616 133.742 34.9505 133.898 34.8047C134.054 34.6589 134.171 34.4782 134.251 34.2628L135.931 34.4517C135.825 34.8958 135.623 35.2836 135.325 35.6151C135.03 35.9432 134.652 36.1984 134.191 36.3807C133.73 36.5597 133.203 36.6491 132.61 36.6491ZM141.341 28.8636V30.2557H136.952V28.8636H141.341ZM138.035 27.0341H139.835V34.2031C139.835 34.4451 139.872 34.6307 139.944 34.7599C140.021 34.8859 140.12 34.9721 140.243 35.0185C140.365 35.0649 140.501 35.0881 140.65 35.0881C140.763 35.0881 140.866 35.0798 140.959 35.0632C141.055 35.0466 141.128 35.0317 141.177 35.0185L141.481 36.4254C141.385 36.4586 141.247 36.495 141.068 36.5348C140.892 36.5746 140.677 36.5978 140.422 36.6044C139.971 36.6177 139.565 36.5497 139.204 36.4006C138.842 36.2481 138.556 36.0128 138.344 35.6946C138.135 35.3764 138.032 34.9787 138.035 34.5014V27.0341ZM144.728 26.3182V27.3324C144.728 27.6241 144.672 27.9273 144.559 28.2422C144.45 28.5537 144.299 28.852 144.107 29.1371C143.915 29.4188 143.696 29.6607 143.451 29.8629L142.615 29.321C142.798 29.0459 142.957 28.7493 143.093 28.4311C143.229 28.1096 143.297 27.7467 143.297 27.3423V26.3182H144.728ZM151.234 30.8821L149.593 31.0611C149.547 30.8954 149.465 30.7396 149.349 30.5938C149.237 30.4479 149.084 30.3303 148.892 30.2408C148.7 30.1513 148.464 30.1065 148.186 30.1065C147.812 30.1065 147.497 30.1877 147.241 30.3501C146.99 30.5125 146.865 30.723 146.869 30.9815C146.865 31.2036 146.946 31.3842 147.112 31.5234C147.281 31.6626 147.56 31.777 147.947 31.8665L149.25 32.1449C149.973 32.3007 150.509 32.5476 150.861 32.8857C151.215 33.2237 151.394 33.6662 151.398 34.2131C151.394 34.6937 151.254 35.1179 150.975 35.4858C150.7 35.8504 150.317 36.1354 149.827 36.3409C149.336 36.5464 148.773 36.6491 148.136 36.6491C147.202 36.6491 146.449 36.4536 145.879 36.0625C145.309 35.6681 144.969 35.1196 144.86 34.4169L146.615 34.2479C146.695 34.5926 146.864 34.8527 147.122 35.0284C147.381 35.2041 147.717 35.2919 148.131 35.2919C148.559 35.2919 148.902 35.2041 149.161 35.0284C149.422 34.8527 149.553 34.6357 149.553 34.3771C149.553 34.1584 149.469 33.9777 149.3 33.8352C149.134 33.6927 148.875 33.5833 148.524 33.5071L147.222 33.2337C146.489 33.0812 145.947 32.8243 145.596 32.4631C145.245 32.0985 145.071 31.6378 145.074 31.081C145.071 30.6103 145.198 30.2027 145.457 29.858C145.719 29.5099 146.081 29.2415 146.545 29.0526C147.013 28.8603 147.551 28.7642 148.161 28.7642C149.056 28.7642 149.76 28.9548 150.274 29.3359C150.791 29.7171 151.111 30.2325 151.234 30.8821ZM159.675 39.5227C159.029 39.5227 158.474 39.4349 158.01 39.2592C157.546 39.0869 157.173 38.8549 156.891 38.5632C156.61 38.2715 156.414 37.9484 156.305 37.5938L157.925 37.201C157.998 37.3501 158.104 37.4976 158.244 37.6435C158.383 37.7926 158.57 37.9152 158.805 38.0114C159.044 38.1108 159.344 38.1605 159.705 38.1605C160.216 38.1605 160.638 38.0362 160.973 37.7876C161.308 37.5424 161.475 37.138 161.475 36.5746V35.1278H161.386C161.293 35.3134 161.157 35.504 160.978 35.6996C160.802 35.8951 160.569 36.0592 160.277 36.1918C159.989 36.3243 159.626 36.3906 159.188 36.3906C158.602 36.3906 158.07 36.2531 157.592 35.978C157.118 35.6996 156.741 35.2853 156.459 34.7351C156.18 34.1816 156.041 33.4889 156.041 32.657C156.041 31.8184 156.18 31.1108 156.459 30.5341C156.741 29.9541 157.12 29.5149 157.597 29.2166C158.075 28.915 158.607 28.7642 159.193 28.7642C159.641 28.7642 160.009 28.8404 160.297 28.9929C160.589 29.142 160.821 29.3227 160.993 29.5348C161.165 29.7436 161.296 29.9408 161.386 30.1264H161.485V28.8636H163.26V36.6243C163.26 37.2772 163.104 37.8175 162.793 38.245C162.481 38.6726 162.055 38.9924 161.515 39.2045C160.975 39.4167 160.362 39.5227 159.675 39.5227ZM159.69 34.9787C160.071 34.9787 160.396 34.8859 160.665 34.7003C160.933 34.5147 161.137 34.2479 161.276 33.8999C161.415 33.5518 161.485 33.1342 161.485 32.647C161.485 32.1664 161.415 31.7455 161.276 31.3842C161.14 31.023 160.938 30.7429 160.67 30.544C160.405 30.3419 160.078 30.2408 159.69 30.2408C159.289 30.2408 158.955 30.3452 158.686 30.554C158.418 30.7628 158.215 31.0495 158.08 31.4141C157.944 31.7753 157.876 32.1863 157.876 32.647C157.876 33.1143 157.944 33.5237 158.08 33.875C158.219 34.223 158.423 34.4948 158.691 34.6903C158.963 34.8826 159.296 34.9787 159.69 34.9787ZM168.485 36.6491C167.719 36.6491 167.058 36.4901 166.501 36.1719C165.948 35.8504 165.522 35.3963 165.224 34.8097C164.925 34.2197 164.776 33.5253 164.776 32.7266C164.776 31.9411 164.925 31.2517 165.224 30.6584C165.525 30.0618 165.946 29.5978 166.487 29.2663C167.027 28.9316 167.661 28.7642 168.391 28.7642C168.861 28.7642 169.305 28.8404 169.723 28.9929C170.144 29.142 170.515 29.3741 170.837 29.6889C171.161 30.0038 171.417 30.4048 171.602 30.892C171.788 31.3759 171.881 31.9527 171.881 32.6222V33.174H165.621V31.9609H170.156C170.152 31.6162 170.078 31.3097 169.932 31.0412C169.786 30.7694 169.582 30.5556 169.32 30.3999C169.062 30.2441 168.76 30.1662 168.415 30.1662C168.048 30.1662 167.724 30.2557 167.446 30.4347C167.168 30.6103 166.951 30.8423 166.795 31.1307C166.642 31.4157 166.564 31.7289 166.561 32.0703V33.1293C166.561 33.5734 166.642 33.9545 166.805 34.2727C166.967 34.5876 167.194 34.8295 167.486 34.9986C167.777 35.1643 168.119 35.2472 168.51 35.2472C168.772 35.2472 169.009 35.2107 169.221 35.1378C169.433 35.0616 169.617 34.9505 169.773 34.8047C169.929 34.6589 170.046 34.4782 170.126 34.2628L171.806 34.4517C171.7 34.8958 171.498 35.2836 171.2 35.6151C170.905 35.9432 170.527 36.1984 170.066 36.3807C169.605 36.5597 169.078 36.6491 168.485 36.6491ZM177.216 28.8636V30.2557H172.827V28.8636H177.216ZM173.91 27.0341H175.71V34.2031C175.71 34.4451 175.747 34.6307 175.819 34.7599C175.896 34.8859 175.995 34.9721 176.118 35.0185C176.24 35.0649 176.376 35.0881 176.525 35.0881C176.638 35.0881 176.741 35.0798 176.834 35.0632C176.93 35.0466 177.003 35.0317 177.052 35.0185L177.356 36.4254C177.26 36.4586 177.122 36.495 176.943 36.5348C176.767 36.5746 176.552 36.5978 176.297 36.6044C175.846 36.6177 175.44 36.5497 175.079 36.4006C174.717 36.2481 174.431 36.0128 174.219 35.6946C174.01 35.3764 173.907 34.9787 173.91 34.5014V27.0341ZM188.23 30.8821L186.589 31.0611C186.543 30.8954 186.462 30.7396 186.346 30.5938C186.233 30.4479 186.08 30.3303 185.888 30.2408C185.696 30.1513 185.461 30.1065 185.182 30.1065C184.808 30.1065 184.493 30.1877 184.238 30.3501C183.986 30.5125 183.861 30.723 183.865 30.9815C183.861 31.2036 183.943 31.3842 184.108 31.5234C184.277 31.6626 184.556 31.777 184.944 31.8665L186.246 32.1449C186.969 32.3007 187.506 32.5476 187.857 32.8857C188.212 33.2237 188.391 33.6662 188.394 34.2131C188.391 34.6937 188.25 35.1179 187.971 35.4858C187.696 35.8504 187.313 36.1354 186.823 36.3409C186.332 36.5464 185.769 36.6491 185.132 36.6491C184.198 36.6491 183.445 36.4536 182.875 36.0625C182.305 35.6681 181.966 35.1196 181.856 34.4169L183.611 34.2479C183.691 34.5926 183.86 34.8527 184.118 35.0284C184.377 35.2041 184.713 35.2919 185.127 35.2919C185.555 35.2919 185.898 35.2041 186.157 35.0284C186.418 34.8527 186.549 34.6357 186.549 34.3771C186.549 34.1584 186.465 33.9777 186.296 33.8352C186.13 33.6927 185.872 33.5833 185.52 33.5071L184.218 33.2337C183.485 33.0812 182.943 32.8243 182.592 32.4631C182.241 32.0985 182.067 31.6378 182.07 31.081C182.067 30.6103 182.194 30.2027 182.453 29.858C182.715 29.5099 183.078 29.2415 183.542 29.0526C184.009 28.8603 184.547 28.7642 185.157 28.7642C186.052 28.7642 186.757 28.9548 187.27 29.3359C187.787 29.7171 188.107 30.2325 188.23 30.8821ZM193.691 28.8636V30.2557H189.301V28.8636H193.691ZM190.385 27.0341H192.185V34.2031C192.185 34.4451 192.221 34.6307 192.294 34.7599C192.37 34.8859 192.47 34.9721 192.592 35.0185C192.715 35.0649 192.851 35.0881 193 35.0881C193.113 35.0881 193.215 35.0798 193.308 35.0632C193.404 35.0466 193.477 35.0317 193.527 35.0185L193.83 36.4254C193.734 36.4586 193.597 36.495 193.418 36.5348C193.242 36.5746 193.027 36.5978 192.771 36.6044C192.321 36.6177 191.915 36.5497 191.553 36.4006C191.192 36.2481 190.905 36.0128 190.693 35.6946C190.484 35.3764 190.382 34.9787 190.385 34.5014V27.0341ZM197.394 36.6541C196.91 36.6541 196.474 36.5679 196.086 36.3956C195.702 36.2199 195.397 35.9614 195.171 35.62C194.949 35.2786 194.838 34.8577 194.838 34.3572C194.838 33.9264 194.918 33.5701 195.077 33.2884C195.236 33.0066 195.453 32.7812 195.728 32.6122C196.003 32.4432 196.313 32.3156 196.658 32.2294C197.006 32.1399 197.365 32.0753 197.737 32.0355C198.184 31.9891 198.547 31.9477 198.825 31.9112C199.104 31.8714 199.306 31.8118 199.432 31.7322C199.561 31.6494 199.626 31.5218 199.626 31.3494V31.3196C199.626 30.9451 199.515 30.6551 199.293 30.4496C199.071 30.2441 198.751 30.1413 198.333 30.1413C197.892 30.1413 197.543 30.2375 197.284 30.4297C197.029 30.6219 196.857 30.849 196.767 31.1108L195.087 30.8722C195.219 30.4081 195.438 30.0204 195.743 29.7088C196.048 29.3939 196.421 29.1586 196.862 29.0028C197.302 28.8438 197.79 28.7642 198.323 28.7642C198.691 28.7642 199.057 28.8073 199.422 28.8935C199.787 28.9796 200.12 29.1222 200.421 29.321C200.723 29.5166 200.965 29.7834 201.147 30.1214C201.333 30.4595 201.426 30.8821 201.426 31.3892V36.5H199.695V35.451H199.636C199.526 35.6631 199.372 35.862 199.173 36.0476C198.978 36.2299 198.731 36.3774 198.433 36.4901C198.138 36.5994 197.791 36.6541 197.394 36.6541ZM197.861 35.3317C198.222 35.3317 198.535 35.2604 198.801 35.1179C199.066 34.9721 199.27 34.7798 199.412 34.5412C199.558 34.3026 199.631 34.0424 199.631 33.7607V32.8608C199.575 32.9072 199.478 32.9503 199.343 32.9901C199.21 33.0298 199.061 33.0646 198.895 33.0945C198.729 33.1243 198.565 33.1508 198.403 33.174C198.24 33.1972 198.1 33.2171 197.98 33.2337C197.712 33.2701 197.472 33.3298 197.259 33.4126C197.047 33.4955 196.88 33.6115 196.757 33.7607C196.635 33.9065 196.573 34.0954 196.573 34.3274C196.573 34.6589 196.694 34.9091 196.936 35.0781C197.178 35.2472 197.486 35.3317 197.861 35.3317ZM203.235 36.5V28.8636H204.98V30.1364H205.06C205.199 29.6955 205.438 29.3558 205.776 29.1172C206.117 28.8752 206.507 28.7543 206.944 28.7543C207.044 28.7543 207.155 28.7592 207.277 28.7692C207.403 28.7758 207.508 28.7874 207.59 28.804V30.4595C207.514 30.433 207.393 30.4098 207.227 30.3899C207.065 30.3667 206.908 30.3551 206.755 30.3551C206.427 30.3551 206.132 30.4264 205.87 30.5689C205.612 30.7081 205.408 30.902 205.259 31.1506C205.11 31.3991 205.035 31.6858 205.035 32.0107V36.5H203.235ZM213.009 28.8636V30.2557H208.619V28.8636H213.009ZM209.703 27.0341H211.503V34.2031C211.503 34.4451 211.539 34.6307 211.612 34.7599C211.689 34.8859 211.788 34.9721 211.911 35.0185C212.033 35.0649 212.169 35.0881 212.318 35.0881C212.431 35.0881 212.534 35.0798 212.627 35.0632C212.723 35.0466 212.796 35.0317 212.845 35.0185L213.149 36.4254C213.052 36.4586 212.915 36.495 212.736 36.5348C212.56 36.5746 212.345 36.5978 212.09 36.6044C211.639 36.6177 211.233 36.5497 210.872 36.4006C210.51 36.2481 210.224 36.0128 210.012 35.6946C209.803 35.3764 209.7 34.9787 209.703 34.5014V27.0341ZM217.813 36.6491C217.048 36.6491 216.386 36.4901 215.83 36.1719C215.276 35.8504 214.85 35.3963 214.552 34.8097C214.254 34.2197 214.104 33.5253 214.104 32.7266C214.104 31.9411 214.254 31.2517 214.552 30.6584C214.853 30.0618 215.274 29.5978 215.815 29.2663C216.355 28.9316 216.99 28.7642 217.719 28.7642C218.189 28.7642 218.634 28.8404 219.051 28.9929C219.472 29.142 219.843 29.3741 220.165 29.6889C220.49 30.0038 220.745 30.4048 220.93 30.892C221.116 31.3759 221.209 31.9527 221.209 32.6222V33.174H214.95V31.9609H219.484C219.48 31.6162 219.406 31.3097 219.26 31.0412C219.114 30.7694 218.91 30.5556 218.648 30.3999C218.39 30.2441 218.088 30.1662 217.744 30.1662C217.376 30.1662 217.053 30.2557 216.774 30.4347C216.496 30.6103 216.279 30.8423 216.123 31.1307C215.97 31.4157 215.893 31.7289 215.889 32.0703V33.1293C215.889 33.5734 215.97 33.9545 216.133 34.2727C216.295 34.5876 216.522 34.8295 216.814 34.9986C217.106 35.1643 217.447 35.2472 217.838 35.2472C218.1 35.2472 218.337 35.2107 218.549 35.1378C218.761 35.0616 218.945 34.9505 219.101 34.8047C219.257 34.6589 219.374 34.4782 219.454 34.2628L221.134 34.4517C221.028 34.8958 220.826 35.2836 220.528 35.6151C220.233 35.9432 219.855 36.1984 219.394 36.3807C218.933 36.5597 218.406 36.6491 217.813 36.6491ZM225.565 36.6342C224.965 36.6342 224.428 36.4801 223.954 36.1719C223.48 35.8636 223.106 35.4162 222.831 34.8295C222.556 34.2429 222.418 33.5303 222.418 32.6918C222.418 31.8433 222.557 31.1274 222.836 30.544C223.117 29.9574 223.497 29.5149 223.974 29.2166C224.452 28.915 224.983 28.7642 225.57 28.7642C226.018 28.7642 226.385 28.8404 226.674 28.9929C226.962 29.142 227.191 29.3227 227.36 29.5348C227.529 29.7436 227.66 29.9408 227.753 30.1264H227.827V26.3182H229.632V36.5H227.862V35.2969H227.753C227.66 35.4825 227.526 35.6797 227.35 35.8885C227.174 36.094 226.942 36.2696 226.654 36.4155C226.366 36.5613 226.003 36.6342 225.565 36.6342ZM226.067 35.1577C226.448 35.1577 226.773 35.0549 227.042 34.8494C227.31 34.6406 227.514 34.3506 227.653 33.9794C227.792 33.6082 227.862 33.1757 227.862 32.6818C227.862 32.188 227.792 31.7588 227.653 31.3942C227.517 31.0296 227.315 30.7462 227.047 30.544C226.782 30.3419 226.455 30.2408 226.067 30.2408C225.666 30.2408 225.331 30.3452 225.063 30.554C224.795 30.7628 224.592 31.0511 224.456 31.419C224.321 31.7869 224.253 32.2079 224.253 32.6818C224.253 33.1591 224.321 33.585 224.456 33.9595C224.596 34.3307 224.8 34.6241 225.068 34.8395C225.34 35.0516 225.673 35.1577 226.067 35.1577Z" fill="#FCFCFC"/>
</g>
<defs>
<filter id="filter0_dd_352_40071" x="0.516616" y="-1.19209e-06" width="349.967" height="84.9668" filterUnits="userSpaceOnUse" color-interpolation-filters="sRGB">
<feFlood flood-opacity="0" result="BackgroundImageFix"/>
<feColorMatrix in="SourceAlpha" type="matrix" values="0 0 0 0 0 0 0 0 0 0 0 0 0 0 0 0 0 0 127 0" result="hardAlpha"/>
<feMorphology radius="1.9139" operator="erode" in="SourceAlpha" result="effect1_dropShadow_352_40071"/>
<feOffset dy="3.82779"/>
<feGaussianBlur stdDeviation="2.87085"/>
<feColorMatrix type="matrix" values="0 0 0 0 0.0627451 0 0 0 0 0.0941176 0 0 0 0 0.156863 0 0 0 0.03 0"/>
<feBlend mode="normal" in2="BackgroundImageFix" result="effect1_dropShadow_352_40071"/>
<feColorMatrix in="SourceAlpha" type="matrix" values="0 0 0 0 0 0 0 0 0 0 0 0 0 0 0 0 0 0 127 0" result="hardAlpha"/>
<feMorphology radius="3.82779" operator="erode" in="SourceAlpha" result="effect2_dropShadow_352_40071"/>
<feOffset dy="11.4834"/>
<feGaussianBlur stdDeviation="7.65559"/>
<feColorMatrix type="matrix" values="0 0 0 0 0.0627451 0 0 0 0 0.0941176 0 0 0 0 0.156863 0 0 0 0.08 0"/>
<feBlend mode="normal" in2="effect1_dropShadow_352_40071" result="effect2_dropShadow_352_40071"/>
<feBlend mode="normal" in="SourceGraphic" in2="effect2_dropShadow_352_40071" result="shape"/>
</filter>
</defs>
</svg>
