<svg width="352" height="89" viewBox="0 0 352 89" fill="none" xmlns="http://www.w3.org/2000/svg">
<g filter="url(#filter0_dd_307_36736)">
<rect x="12.9238" y="0.787476" width="327" height="64" rx="10" fill="white"/>
<path d="M34.9238 22.7875C29.4098 22.7875 24.9238 27.2735 24.9238 32.7875V36.9305C24.9238 37.9545 25.8208 38.7875 26.9238 38.7875H27.9238C28.189 38.7875 28.4434 38.6821 28.6309 38.4946C28.8185 38.307 28.9238 38.0527 28.9238 37.7875V32.6445C28.9238 32.3793 28.8185 32.1249 28.6309 31.9374C28.4434 31.7498 28.189 31.6445 27.9238 31.6445H27.0158C27.5718 27.7745 30.9018 24.7875 34.9238 24.7875C38.9458 24.7875 42.2758 27.7745 42.8318 31.6445H41.9238C41.6586 31.6445 41.4043 31.7498 41.2167 31.9374C41.0292 32.1249 40.9238 32.3793 40.9238 32.6445V38.7875C40.9238 39.8905 40.0268 40.7875 38.9238 40.7875H36.9238V39.7875H32.9238V42.7875H38.9238C41.1298 42.7875 42.9238 40.9935 42.9238 38.7875C44.0268 38.7875 44.9238 37.9545 44.9238 36.9305V32.7875C44.9238 27.2735 40.4378 22.7875 34.9238 22.7875Z" fill="black"/>
<path opacity="0.8" d="M70.5488 29.7079C70.4882 29.1701 70.2382 28.7534 69.7988 28.4579C69.3594 28.1587 68.8064 28.0091 68.1397 28.0091C67.6625 28.0091 67.2496 28.0848 66.9011 28.2363C66.5526 28.3841 66.2818 28.5886 66.0886 28.85C65.8992 29.1076 65.8045 29.4011 65.8045 29.7307C65.8045 30.0072 65.8689 30.2458 65.9977 30.4466C66.1303 30.6473 66.3026 30.8159 66.5147 30.9522C66.7306 31.0848 66.9617 31.1966 67.2079 31.2875C67.4541 31.3746 67.6909 31.4466 67.9181 31.5034L69.0545 31.7988C69.4257 31.8897 69.8064 32.0129 70.1966 32.1682C70.5867 32.3235 70.9484 32.528 71.2818 32.7818C71.6151 33.0356 71.8841 33.35 72.0886 33.725C72.2969 34.1 72.4011 34.5488 72.4011 35.0716C72.4011 35.7307 72.2306 36.3159 71.8897 36.8272C71.5526 37.3386 71.0621 37.742 70.4181 38.0375C69.778 38.3329 69.0034 38.4807 68.0943 38.4807C67.2231 38.4807 66.4693 38.3424 65.8329 38.0659C65.1966 37.7894 64.6984 37.3973 64.3386 36.8897C63.9788 36.3784 63.7799 35.7723 63.742 35.0716H65.5034C65.5375 35.492 65.6738 35.8424 65.9125 36.1227C66.1549 36.3992 66.4636 36.6057 66.8386 36.742C67.2174 36.8746 67.6322 36.9409 68.0829 36.9409C68.5791 36.9409 69.0204 36.8632 69.4068 36.7079C69.7969 36.5488 70.1038 36.3291 70.3272 36.0488C70.5507 35.7647 70.6625 35.4333 70.6625 35.0545C70.6625 34.7098 70.564 34.4276 70.367 34.2079C70.1738 33.9882 69.9106 33.8064 69.5772 33.6625C69.2477 33.5185 68.8746 33.3916 68.4579 33.2818L67.0829 32.9068C66.1511 32.653 65.4125 32.2799 64.867 31.7875C64.3253 31.2951 64.0545 30.6435 64.0545 29.8329C64.0545 29.1625 64.2363 28.5772 64.6 28.0772C64.9636 27.5772 65.456 27.189 66.0772 26.9125C66.6984 26.6322 67.3992 26.492 68.1795 26.492C68.9674 26.492 69.6625 26.6303 70.2647 26.9068C70.8708 27.1833 71.3481 27.564 71.6966 28.0488C72.045 28.5299 72.2269 29.0829 72.242 29.7079H70.5488ZM79.8912 34.6682V29.5602H81.5957V38.2875H79.9252V36.7761H79.8343C79.6336 37.242 79.3116 37.6303 78.8684 37.9409C78.429 38.2477 77.8817 38.4011 77.2264 38.4011C76.6658 38.4011 76.1696 38.278 75.7377 38.0318C75.3097 37.7818 74.9726 37.4125 74.7264 36.9238C74.484 36.4352 74.3627 35.831 74.3627 35.1113V29.5602H76.0616V34.9068C76.0616 35.5015 76.2264 35.975 76.5559 36.3272C76.8855 36.6795 77.3135 36.8557 77.84 36.8557C78.1582 36.8557 78.4745 36.7761 78.7889 36.617C79.1071 36.4579 79.3703 36.2174 79.5787 35.8954C79.7908 35.5735 79.8949 35.1644 79.8912 34.6682ZM83.8784 41.5602V29.5602H85.5375V30.975H85.6795C85.778 30.7932 85.92 30.5829 86.1056 30.3443C86.2913 30.1057 86.5488 29.8973 86.8784 29.7193C87.2079 29.5375 87.6435 29.4466 88.1852 29.4466C88.8897 29.4466 89.5185 29.6246 90.0716 29.9807C90.6246 30.3367 91.0583 30.85 91.3727 31.5204C91.6909 32.1909 91.85 32.9977 91.85 33.9409C91.85 34.8841 91.6928 35.6928 91.3784 36.367C91.064 37.0375 90.6322 37.5545 90.0829 37.9182C89.5337 38.278 88.9068 38.4579 88.2022 38.4579C87.6719 38.4579 87.2382 38.3689 86.9011 38.1909C86.5678 38.0129 86.3064 37.8045 86.117 37.5659C85.9276 37.3272 85.7818 37.1151 85.6795 36.9295H85.5772V41.5602H83.8784ZM85.5431 33.9238C85.5431 34.5375 85.6322 35.0754 85.8102 35.5375C85.9882 35.9996 86.2458 36.3613 86.5829 36.6227C86.92 36.8803 87.3329 37.0091 87.8216 37.0091C88.3291 37.0091 88.7534 36.8746 89.0943 36.6057C89.4352 36.3329 89.6928 35.9636 89.867 35.4977C90.045 35.0318 90.1341 34.5072 90.1341 33.9238C90.1341 33.3481 90.0469 32.831 89.8727 32.3727C89.7022 31.9144 89.4447 31.5526 89.1 31.2875C88.7591 31.0223 88.3329 30.8897 87.8216 30.8897C87.3291 30.8897 86.9125 31.0166 86.5716 31.2704C86.2344 31.5242 85.9788 31.8784 85.8045 32.3329C85.6303 32.7875 85.5431 33.3178 85.5431 33.9238ZM93.7534 41.5602V29.5602H95.4125V30.975H95.5545C95.653 30.7932 95.795 30.5829 95.9806 30.3443C96.1663 30.1057 96.4238 29.8973 96.7534 29.7193C97.0829 29.5375 97.5185 29.4466 98.0602 29.4466C98.7647 29.4466 99.3935 29.6246 99.9466 29.9807C100.5 30.3367 100.933 30.85 101.248 31.5204C101.566 32.1909 101.725 32.9977 101.725 33.9409C101.725 34.8841 101.568 35.6928 101.253 36.367C100.939 37.0375 100.507 37.5545 99.9579 37.9182C99.4087 38.278 98.7818 38.4579 98.0772 38.4579C97.5469 38.4579 97.1132 38.3689 96.7761 38.1909C96.4428 38.0129 96.1814 37.8045 95.992 37.5659C95.8026 37.3272 95.6568 37.1151 95.5545 36.9295H95.4522V41.5602H93.7534ZM95.4181 33.9238C95.4181 34.5375 95.5072 35.0754 95.6852 35.5375C95.8632 35.9996 96.1208 36.3613 96.4579 36.6227C96.795 36.8803 97.2079 37.0091 97.6966 37.0091C98.2041 37.0091 98.6284 36.8746 98.9693 36.6057C99.3102 36.3329 99.5678 35.9636 99.742 35.4977C99.92 35.0318 100.009 34.5072 100.009 33.9238C100.009 33.3481 99.9219 32.831 99.7477 32.3727C99.5772 31.9144 99.3197 31.5526 98.975 31.2875C98.6341 31.0223 98.2079 30.8897 97.6966 30.8897C97.2041 30.8897 96.7875 31.0166 96.4466 31.2704C96.1094 31.5242 95.8538 31.8784 95.6795 32.3329C95.5053 32.7875 95.4181 33.3178 95.4181 33.9238ZM107.305 38.4636C106.486 38.4636 105.772 38.2761 105.162 37.9011C104.553 37.5261 104.079 37.0015 103.742 36.3272C103.405 35.653 103.236 34.8651 103.236 33.9636C103.236 33.0583 103.405 32.2666 103.742 31.5886C104.079 30.9106 104.553 30.3841 105.162 30.0091C105.772 29.6341 106.486 29.4466 107.305 29.4466C108.123 29.4466 108.837 29.6341 109.447 30.0091C110.056 30.3841 110.53 30.9106 110.867 31.5886C111.204 32.2666 111.373 33.0583 111.373 33.9636C111.373 34.8651 111.204 35.653 110.867 36.3272C110.53 37.0015 110.056 37.5261 109.447 37.9011C108.837 38.2761 108.123 38.4636 107.305 38.4636ZM107.31 37.0375C107.84 37.0375 108.28 36.8973 108.628 36.617C108.977 36.3367 109.234 35.9636 109.401 35.4977C109.572 35.0318 109.657 34.5185 109.657 33.9579C109.657 33.4011 109.572 32.8897 109.401 32.4238C109.234 31.9541 108.977 31.5772 108.628 31.2932C108.28 31.0091 107.84 30.867 107.31 30.867C106.776 30.867 106.333 31.0091 105.981 31.2932C105.632 31.5772 105.373 31.9541 105.202 32.4238C105.036 32.8897 104.952 33.4011 104.952 33.9579C104.952 34.5185 105.036 35.0318 105.202 35.4977C105.373 35.9636 105.632 36.3367 105.981 36.617C106.333 36.8973 106.776 37.0375 107.31 37.0375ZM113.269 38.2875V29.5602H114.911V30.9466H115.002C115.161 30.4769 115.441 30.1076 115.843 29.8386C116.248 29.5659 116.706 29.4295 117.218 29.4295C117.324 29.4295 117.449 29.4333 117.593 29.4409C117.741 29.4485 117.856 29.4579 117.939 29.4693V31.0943C117.871 31.0754 117.75 31.0545 117.576 31.0318C117.402 31.0053 117.227 30.992 117.053 30.992C116.652 30.992 116.294 31.0772 115.979 31.2477C115.669 31.4144 115.422 31.6473 115.241 31.9466C115.059 32.242 114.968 32.5791 114.968 32.9579V38.2875H113.269ZM123.999 29.5602V30.9238H119.232V29.5602H123.999ZM120.51 27.4693H122.209V35.725C122.209 36.0545 122.259 36.3026 122.357 36.4693C122.456 36.6322 122.582 36.7439 122.738 36.8045C122.897 36.8613 123.069 36.8897 123.255 36.8897C123.391 36.8897 123.51 36.8803 123.613 36.8613C123.715 36.8424 123.795 36.8272 123.851 36.8159L124.158 38.2193C124.06 38.2572 123.92 38.2951 123.738 38.3329C123.556 38.3746 123.329 38.3973 123.056 38.4011C122.609 38.4087 122.192 38.3291 121.806 38.1625C121.42 37.9958 121.107 37.7382 120.868 37.3897C120.63 37.0413 120.51 36.6038 120.51 36.0772V27.4693Z" fill="black"/>
<path d="M319.89 27.5075L324.237 31.8542C324.75 32.3675 324.75 33.2075 324.237 33.7208L319.89 38.0675" stroke="#292D32" stroke-width="2" stroke-miterlimit="10" stroke-linecap="round" stroke-linejoin="round"/>
</g>
<defs>
<filter id="filter0_dd_307_36736" x="0.923828" y="0.787476" width="351" height="88" filterUnits="userSpaceOnUse" color-interpolation-filters="sRGB">
<feFlood flood-opacity="0" result="BackgroundImageFix"/>
<feColorMatrix in="SourceAlpha" type="matrix" values="0 0 0 0 0 0 0 0 0 0 0 0 0 0 0 0 0 0 127 0" result="hardAlpha"/>
<feMorphology radius="2" operator="erode" in="SourceAlpha" result="effect1_dropShadow_307_36736"/>
<feOffset dy="4"/>
<feGaussianBlur stdDeviation="3"/>
<feColorMatrix type="matrix" values="0 0 0 0 0.0627451 0 0 0 0 0.0941176 0 0 0 0 0.156863 0 0 0 0.03 0"/>
<feBlend mode="normal" in2="BackgroundImageFix" result="effect1_dropShadow_307_36736"/>
<feColorMatrix in="SourceAlpha" type="matrix" values="0 0 0 0 0 0 0 0 0 0 0 0 0 0 0 0 0 0 127 0" result="hardAlpha"/>
<feMorphology radius="4" operator="erode" in="SourceAlpha" result="effect2_dropShadow_307_36736"/>
<feOffset dy="12"/>
<feGaussianBlur stdDeviation="8"/>
<feColorMatrix type="matrix" values="0 0 0 0 0.0627451 0 0 0 0 0.0941176 0 0 0 0 0.156863 0 0 0 0.08 0"/>
<feBlend mode="normal" in2="effect1_dropShadow_307_36736" result="effect2_dropShadow_307_36736"/>
<feBlend mode="normal" in="SourceGraphic" in2="effect2_dropShadow_307_36736" result="shape"/>
</filter>
</defs>
</svg>
