<svg width="25" height="25" viewBox="0 0 25 25" fill="none" xmlns="http://www.w3.org/2000/svg">
<g clip-path="url(#clip0_307_36762)">
<path d="M12.3659 0.386751C9.19299 0.401558 6.15511 1.67237 3.91677 3.92121C1.67843 6.17004 0.42184 9.21383 0.421875 12.3868C0.421875 15.5693 1.68616 18.6216 3.93659 20.872C6.18703 23.1225 9.23928 24.3868 12.4219 24.3868C15.6045 24.3868 18.6567 23.1225 20.9072 20.872C23.1576 18.6216 24.4219 15.5693 24.4219 12.3868C24.4219 9.20415 23.1576 6.15191 20.9072 3.90147C18.6567 1.65103 15.6045 0.386751 12.4219 0.386751C12.4032 0.386708 12.3845 0.386708 12.3659 0.386751ZM17.3279 7.61075C17.4279 7.60875 17.6489 7.63375 17.7929 7.75075C17.8886 7.83385 17.9496 7.94983 17.9639 8.07575C17.9799 8.16875 17.9999 8.38175 17.9839 8.54775C17.8039 10.4458 17.0219 15.0498 16.6239 17.1748C16.4559 18.0748 16.1249 18.3758 15.8039 18.4048C15.1079 18.4698 14.5789 17.9447 13.9039 17.5028C12.8479 16.8097 12.2509 16.3788 11.2259 15.7028C10.0409 14.9228 10.8089 14.4928 11.4839 13.7928C11.6609 13.6088 14.7309 10.8158 14.7909 10.5628C14.7979 10.5308 14.8049 10.4128 14.7349 10.3508C14.6649 10.2888 14.5609 10.3098 14.4859 10.3268C14.3799 10.3508 12.6929 11.4668 9.42488 13.6718C8.94488 14.0018 8.51188 14.1618 8.12288 14.1518C7.69488 14.1438 6.87087 13.9108 6.25787 13.7118C5.50588 13.4668 4.90887 13.3378 4.96088 12.9228C4.98787 12.7068 5.28588 12.4858 5.85388 12.2598C9.35188 10.7358 11.6839 9.73075 12.8519 9.24575C16.1839 7.85975 16.8769 7.61875 17.3279 7.61075Z" fill="black"/>
</g>
<defs>
<clipPath id="clip0_307_36762">
<rect width="24" height="24" fill="white" transform="translate(0.421875 0.386719)"/>
</clipPath>
</defs>
</svg>
