<svg width="328" height="43" viewBox="0 0 328 43" fill="none" xmlns="http://www.w3.org/2000/svg">
<rect x="0.5" width="327" height="43" rx="4" fill="#F7F7F7"/>
<g filter="url(#filter0_dd_307_36414)">
<rect x="3.5" y="4" width="72" height="35" rx="4" fill="white"/>
<path opacity="0.8" d="M25.5455 27H21.7784V15.3636H25.6648C26.8049 15.3636 27.7841 15.5966 28.6023 16.0625C29.4205 16.5246 30.0473 17.1894 30.483 18.0568C30.9223 18.9205 31.142 19.9564 31.142 21.1648C31.142 22.3769 30.9205 23.4186 30.4773 24.2898C30.0379 25.161 29.4015 25.8314 28.5682 26.3011C27.7348 26.767 26.7273 27 25.5455 27ZM23.5341 25.4659H25.4489C26.3352 25.4659 27.072 25.2992 27.6591 24.9659C28.2462 24.6288 28.6856 24.142 28.9773 23.5057C29.2689 22.8655 29.4148 22.0852 29.4148 21.1648C29.4148 20.2519 29.2689 19.4773 28.9773 18.8409C28.6894 18.2045 28.2595 17.7216 27.6875 17.392C27.1155 17.0625 26.4053 16.8977 25.5568 16.8977H23.5341V25.4659ZM35.7287 27.1932C35.1757 27.1932 34.6757 27.0909 34.2287 26.8864C33.7817 26.678 33.4276 26.3769 33.1662 25.983C32.9086 25.589 32.7798 25.1061 32.7798 24.5341C32.7798 24.0417 32.8745 23.6364 33.0639 23.3182C33.2533 23 33.509 22.7481 33.831 22.5625C34.1529 22.3769 34.5128 22.2367 34.9105 22.142C35.3082 22.0473 35.7135 21.9754 36.1264 21.9261C36.6491 21.8655 37.0734 21.8163 37.3991 21.7784C37.7249 21.7367 37.9616 21.6705 38.1094 21.5795C38.2571 21.4886 38.331 21.3409 38.331 21.1364V21.0966C38.331 20.6004 38.1908 20.2159 37.9105 19.9432C37.634 19.6705 37.2211 19.5341 36.6719 19.5341C36.0999 19.5341 35.6491 19.661 35.3196 19.9148C34.9938 20.1648 34.7685 20.4432 34.6435 20.75L33.0469 20.3864C33.2363 19.8561 33.5128 19.428 33.8764 19.1023C34.2438 18.7727 34.6662 18.5341 35.1435 18.3864C35.6207 18.2348 36.1226 18.1591 36.6491 18.1591C36.9976 18.1591 37.367 18.2008 37.7571 18.2841C38.151 18.3636 38.5185 18.5114 38.8594 18.7273C39.2041 18.9432 39.4863 19.2519 39.706 19.6534C39.9257 20.0511 40.0355 20.5682 40.0355 21.2045V27H38.3764V25.8068H38.3082C38.1984 26.0265 38.0336 26.2424 37.8139 26.4545C37.5942 26.6667 37.312 26.8428 36.9673 26.983C36.6226 27.1231 36.2098 27.1932 35.7287 27.1932ZM36.098 25.8295C36.5677 25.8295 36.9692 25.7367 37.3026 25.5511C37.6397 25.3655 37.8954 25.1231 38.0696 24.8239C38.2476 24.5208 38.3366 24.197 38.3366 23.8523V22.7273C38.276 22.7879 38.1586 22.8447 37.9844 22.8977C37.8139 22.947 37.6188 22.9905 37.3991 23.0284C37.1795 23.0625 36.9654 23.0947 36.7571 23.125C36.5488 23.1515 36.3745 23.1742 36.2344 23.1932C35.9048 23.2348 35.6037 23.3049 35.331 23.4034C35.062 23.5019 34.8461 23.6439 34.6832 23.8295C34.5241 24.0114 34.4446 24.2538 34.4446 24.5568C34.4446 24.9773 34.5999 25.2955 34.9105 25.5114C35.2211 25.7235 35.617 25.8295 36.098 25.8295ZM42.2983 27V18.2727H43.9972V27H42.2983ZM43.1562 16.9261C42.8608 16.9261 42.607 16.8277 42.3949 16.6307C42.1866 16.4299 42.0824 16.1913 42.0824 15.9148C42.0824 15.6345 42.1866 15.3958 42.3949 15.1989C42.607 14.9981 42.8608 14.8977 43.1562 14.8977C43.4517 14.8977 43.7036 14.9981 43.9119 15.1989C44.1241 15.3958 44.2301 15.6345 44.2301 15.9148C44.2301 16.1913 44.1241 16.4299 43.9119 16.6307C43.7036 16.8277 43.4517 16.9261 43.1562 16.9261ZM47.9815 15.3636V27H46.2827V15.3636H47.9815ZM51.3409 30.2727C51.0871 30.2727 50.8561 30.2519 50.6477 30.2102C50.4394 30.1723 50.2841 30.1307 50.1818 30.0852L50.5909 28.6932C50.9015 28.7765 51.178 28.8125 51.4205 28.8011C51.6629 28.7898 51.8769 28.6989 52.0625 28.5284C52.2519 28.358 52.4186 28.0795 52.5625 27.6932L52.7727 27.1136L49.5795 18.2727H51.3977L53.608 25.0455H53.6989L55.9091 18.2727H57.733L54.1364 28.1648C53.9697 28.6193 53.7576 29.0038 53.5 29.3182C53.2424 29.6364 52.9356 29.875 52.5795 30.0341C52.2235 30.1932 51.8106 30.2727 51.3409 30.2727Z" fill="black"/>
</g>
<g filter="url(#filter1_dd_307_36414)">
<path opacity="0.8" d="M98.0568 27L94.8295 15.3636H96.6761L98.9432 24.375H99.0511L101.409 15.3636H103.239L105.597 24.3807H105.705L107.966 15.3636H109.818L106.585 27H104.818L102.369 18.2841H102.278L99.8295 27H98.0568ZM114.185 27.1761C113.325 27.1761 112.584 26.9924 111.963 26.625C111.346 26.2538 110.868 25.733 110.531 25.0625C110.198 24.3883 110.031 23.5985 110.031 22.6932C110.031 21.7992 110.198 21.0114 110.531 20.3295C110.868 19.6477 111.338 19.1155 111.94 18.733C112.546 18.3504 113.255 18.1591 114.065 18.1591C114.558 18.1591 115.035 18.2405 115.497 18.4034C115.959 18.5663 116.374 18.822 116.741 19.1705C117.109 19.5189 117.399 19.9716 117.611 20.5284C117.823 21.0814 117.929 21.7538 117.929 22.5455V23.1477H110.991V21.875H116.264C116.264 21.428 116.173 21.0322 115.991 20.6875C115.81 20.339 115.554 20.0644 115.224 19.8636C114.899 19.6629 114.516 19.5625 114.077 19.5625C113.599 19.5625 113.183 19.6799 112.827 19.9148C112.474 20.1458 112.202 20.4489 112.009 20.8239C111.819 21.1951 111.724 21.5985 111.724 22.0341V23.0284C111.724 23.6117 111.827 24.108 112.031 24.517C112.24 24.9261 112.529 25.2386 112.901 25.4545C113.272 25.6667 113.705 25.7727 114.202 25.7727C114.524 25.7727 114.817 25.7273 115.082 25.6364C115.348 25.5417 115.577 25.4015 115.77 25.2159C115.963 25.0303 116.111 24.8011 116.213 24.5284L117.821 24.8182C117.692 25.2917 117.461 25.7064 117.128 26.0625C116.798 26.4148 116.384 26.6894 115.884 26.8864C115.387 27.0795 114.821 27.1761 114.185 27.1761ZM123.575 27.1761C122.715 27.1761 121.975 26.9924 121.354 26.625C120.736 26.2538 120.259 25.733 119.922 25.0625C119.589 24.3883 119.422 23.5985 119.422 22.6932C119.422 21.7992 119.589 21.0114 119.922 20.3295C120.259 19.6477 120.729 19.1155 121.331 18.733C121.937 18.3504 122.645 18.1591 123.456 18.1591C123.948 18.1591 124.426 18.2405 124.888 18.4034C125.35 18.5663 125.765 18.822 126.132 19.1705C126.5 19.5189 126.789 19.9716 127.001 20.5284C127.214 21.0814 127.32 21.7538 127.32 22.5455V23.1477H120.382V21.875H125.655C125.655 21.428 125.564 21.0322 125.382 20.6875C125.2 20.339 124.945 20.0644 124.615 19.8636C124.289 19.6629 123.907 19.5625 123.467 19.5625C122.99 19.5625 122.573 19.6799 122.217 19.9148C121.865 20.1458 121.592 20.4489 121.399 20.8239C121.21 21.1951 121.115 21.5985 121.115 22.0341V23.0284C121.115 23.6117 121.217 24.108 121.422 24.517C121.63 24.9261 121.92 25.2386 122.291 25.4545C122.662 25.6667 123.096 25.7727 123.592 25.7727C123.914 25.7727 124.208 25.7273 124.473 25.6364C124.738 25.5417 124.967 25.4015 125.161 25.2159C125.354 25.0303 125.501 24.8011 125.604 24.5284L127.212 24.8182C127.083 25.2917 126.852 25.7064 126.518 26.0625C126.189 26.4148 125.774 26.6894 125.274 26.8864C124.778 27.0795 124.212 27.1761 123.575 27.1761ZM130.767 24.0398L130.756 21.9659H131.051L134.528 18.2727H136.562L132.597 22.4773H132.33L130.767 24.0398ZM129.205 27V15.3636H130.903V27H129.205ZM134.716 27L131.591 22.8523L132.761 21.6648L136.801 27H134.716ZM139.81 15.3636V27H138.111V15.3636H139.81ZM143.169 30.2727C142.915 30.2727 142.684 30.2519 142.476 30.2102C142.268 30.1723 142.112 30.1307 142.01 30.0852L142.419 28.6932C142.73 28.7765 143.006 28.8125 143.249 28.8011C143.491 28.7898 143.705 28.6989 143.891 28.5284C144.08 28.358 144.247 28.0795 144.391 27.6932L144.601 27.1136L141.408 18.2727H143.226L145.436 25.0455H145.527L147.737 18.2727H149.561L145.964 28.1648C145.798 28.6193 145.586 29.0038 145.328 29.3182C145.071 29.6364 144.764 29.875 144.408 30.0341C144.052 30.1932 143.639 30.2727 143.169 30.2727Z" fill="black"/>
</g>
<g filter="url(#filter2_dd_307_36414)">
<path opacity="0.8" d="M175.278 15.3636H177.409L181.114 24.4091H181.25L184.955 15.3636H187.085V27H185.415V18.5795H185.307L181.875 26.983H180.489L177.057 18.5739H176.949V27H175.278V15.3636ZM193.178 27.1761C192.359 27.1761 191.645 26.9886 191.036 26.6136C190.426 26.2386 189.952 25.714 189.615 25.0398C189.278 24.3655 189.109 23.5777 189.109 22.6761C189.109 21.7708 189.278 20.9792 189.615 20.3011C189.952 19.6231 190.426 19.0966 191.036 18.7216C191.645 18.3466 192.359 18.1591 193.178 18.1591C193.996 18.1591 194.71 18.3466 195.32 18.7216C195.929 19.0966 196.403 19.6231 196.74 20.3011C197.077 20.9792 197.246 21.7708 197.246 22.6761C197.246 23.5777 197.077 24.3655 196.74 25.0398C196.403 25.714 195.929 26.2386 195.32 26.6136C194.71 26.9886 193.996 27.1761 193.178 27.1761ZM193.183 25.75C193.714 25.75 194.153 25.6098 194.501 25.3295C194.85 25.0492 195.107 24.6761 195.274 24.2102C195.445 23.7443 195.53 23.2311 195.53 22.6705C195.53 22.1136 195.445 21.6023 195.274 21.1364C195.107 20.6667 194.85 20.2898 194.501 20.0057C194.153 19.7216 193.714 19.5795 193.183 19.5795C192.649 19.5795 192.206 19.7216 191.854 20.0057C191.505 20.2898 191.246 20.6667 191.075 21.1364C190.909 21.6023 190.825 22.1136 190.825 22.6705C190.825 23.2311 190.909 23.7443 191.075 24.2102C191.246 24.6761 191.505 25.0492 191.854 25.3295C192.206 25.6098 192.649 25.75 193.183 25.75ZM200.841 21.8182V27H199.142V18.2727H200.773V19.6932H200.881C201.081 19.2311 201.396 18.8598 201.824 18.5795C202.256 18.2992 202.799 18.1591 203.455 18.1591C204.049 18.1591 204.57 18.2841 205.017 18.5341C205.464 18.7803 205.811 19.1477 206.057 19.6364C206.303 20.125 206.426 20.7292 206.426 21.4489V27H204.727V21.6534C204.727 21.0208 204.563 20.5265 204.233 20.1705C203.903 19.8106 203.451 19.6307 202.875 19.6307C202.481 19.6307 202.131 19.7159 201.824 19.8864C201.521 20.0568 201.28 20.3068 201.102 20.6364C200.928 20.9621 200.841 21.3561 200.841 21.8182ZM212.778 18.2727V19.6364H208.011V18.2727H212.778ZM209.29 16.1818H210.989V24.4375C210.989 24.767 211.038 25.0152 211.136 25.1818C211.235 25.3447 211.362 25.4564 211.517 25.517C211.676 25.5739 211.848 25.6023 212.034 25.6023C212.17 25.6023 212.29 25.5928 212.392 25.5739C212.494 25.5549 212.574 25.5398 212.631 25.5284L212.938 26.9318C212.839 26.9697 212.699 27.0076 212.517 27.0455C212.335 27.0871 212.108 27.1098 211.835 27.1136C211.388 27.1212 210.972 27.0417 210.585 26.875C210.199 26.7083 209.886 26.4508 209.648 26.1023C209.409 25.7538 209.29 25.3163 209.29 24.7898V16.1818ZM216.544 21.8182V27H214.845V15.3636H216.521V19.6932H216.629C216.834 19.2235 217.146 18.8504 217.567 18.5739C217.987 18.2973 218.536 18.1591 219.214 18.1591C219.813 18.1591 220.336 18.2822 220.783 18.5284C221.233 18.7746 221.582 19.142 221.828 19.6307C222.078 20.1155 222.203 20.7216 222.203 21.4489V27H220.504V21.6534C220.504 21.0133 220.339 20.517 220.01 20.1648C219.68 19.8087 219.222 19.6307 218.635 19.6307C218.233 19.6307 217.874 19.7159 217.555 19.8864C217.241 20.0568 216.993 20.3068 216.811 20.6364C216.633 20.9621 216.544 21.3561 216.544 21.8182ZM226.169 15.3636V27H224.47V15.3636H226.169ZM229.528 30.2727C229.275 30.2727 229.044 30.2519 228.835 30.2102C228.627 30.1723 228.472 30.1307 228.369 30.0852L228.778 28.6932C229.089 28.7765 229.366 28.8125 229.608 28.8011C229.85 28.7898 230.064 28.6989 230.25 28.5284C230.439 28.358 230.606 28.0795 230.75 27.6932L230.96 27.1136L227.767 18.2727H229.585L231.795 25.0455H231.886L234.097 18.2727H235.92L232.324 28.1648C232.157 28.6193 231.945 29.0038 231.688 29.3182C231.43 29.6364 231.123 29.875 230.767 30.0341C230.411 30.1932 229.998 30.2727 229.528 30.2727Z" fill="black"/>
</g>
<g filter="url(#filter3_dd_307_36414)">
<path opacity="0.8" d="M264.881 15.3636H266.875L269.915 20.6534H270.04L273.08 15.3636H275.074L270.852 22.4318V27H269.102V22.4318L264.881 15.3636ZM278.919 27.1761C278.059 27.1761 277.319 26.9924 276.697 26.625C276.08 26.2538 275.603 25.733 275.266 25.0625C274.932 24.3883 274.766 23.5985 274.766 22.6932C274.766 21.7992 274.932 21.0114 275.266 20.3295C275.603 19.6477 276.072 19.1155 276.675 18.733C277.281 18.3504 277.989 18.1591 278.8 18.1591C279.292 18.1591 279.769 18.2405 280.232 18.4034C280.694 18.5663 281.108 18.822 281.476 19.1705C281.843 19.5189 282.133 19.9716 282.345 20.5284C282.557 21.0814 282.663 21.7538 282.663 22.5455V23.1477H275.726V21.875H280.999C280.999 21.428 280.908 21.0322 280.726 20.6875C280.544 20.339 280.288 20.0644 279.959 19.8636C279.633 19.6629 279.25 19.5625 278.811 19.5625C278.334 19.5625 277.917 19.6799 277.561 19.9148C277.209 20.1458 276.936 20.4489 276.743 20.8239C276.554 21.1951 276.459 21.5985 276.459 22.0341V23.0284C276.459 23.6117 276.561 24.108 276.766 24.517C276.974 24.9261 277.264 25.2386 277.635 25.4545C278.006 25.6667 278.44 25.7727 278.936 25.7727C279.258 25.7727 279.552 25.7273 279.817 25.6364C280.082 25.5417 280.311 25.4015 280.504 25.2159C280.697 25.0303 280.845 24.8011 280.947 24.5284L282.555 24.8182C282.427 25.2917 282.196 25.7064 281.862 26.0625C281.533 26.4148 281.118 26.6894 280.618 26.8864C280.122 27.0795 279.555 27.1761 278.919 27.1761ZM287.088 27.1932C286.535 27.1932 286.035 27.0909 285.588 26.8864C285.141 26.678 284.787 26.3769 284.526 25.983C284.268 25.589 284.139 25.1061 284.139 24.5341C284.139 24.0417 284.234 23.6364 284.423 23.3182C284.613 23 284.868 22.7481 285.19 22.5625C285.512 22.3769 285.872 22.2367 286.27 22.142C286.668 22.0473 287.073 21.9754 287.486 21.9261C288.009 21.8655 288.433 21.8163 288.759 21.7784C289.084 21.7367 289.321 21.6705 289.469 21.5795C289.616 21.4886 289.69 21.3409 289.69 21.1364V21.0966C289.69 20.6004 289.55 20.2159 289.27 19.9432C288.993 19.6705 288.58 19.5341 288.031 19.5341C287.459 19.5341 287.009 19.661 286.679 19.9148C286.353 20.1648 286.128 20.4432 286.003 20.75L284.406 20.3864C284.596 19.8561 284.872 19.428 285.236 19.1023C285.603 18.7727 286.026 18.5341 286.503 18.3864C286.98 18.2348 287.482 18.1591 288.009 18.1591C288.357 18.1591 288.726 18.2008 289.116 18.2841C289.51 18.3636 289.878 18.5114 290.219 18.7273C290.563 18.9432 290.846 19.2519 291.065 19.6534C291.285 20.0511 291.395 20.5682 291.395 21.2045V27H289.736V25.8068H289.668C289.558 26.0265 289.393 26.2424 289.173 26.4545C288.954 26.6667 288.671 26.8428 288.327 26.983C287.982 27.1231 287.569 27.1932 287.088 27.1932ZM287.457 25.8295C287.927 25.8295 288.329 25.7367 288.662 25.5511C288.999 25.3655 289.255 25.1231 289.429 24.8239C289.607 24.5208 289.696 24.197 289.696 23.8523V22.7273C289.635 22.7879 289.518 22.8447 289.344 22.8977C289.173 22.947 288.978 22.9905 288.759 23.0284C288.539 23.0625 288.325 23.0947 288.116 23.125C287.908 23.1515 287.734 23.1742 287.594 23.1932C287.264 23.2348 286.963 23.3049 286.69 23.4034C286.421 23.5019 286.205 23.6439 286.043 23.8295C285.884 24.0114 285.804 24.2538 285.804 24.5568C285.804 24.9773 285.959 25.2955 286.27 25.5114C286.58 25.7235 286.976 25.8295 287.457 25.8295ZM293.658 27V18.2727H295.3V19.6591H295.391C295.55 19.1894 295.83 18.8201 296.232 18.5511C296.637 18.2784 297.095 18.142 297.607 18.142C297.713 18.142 297.838 18.1458 297.982 18.1534C298.129 18.161 298.245 18.1705 298.328 18.1818V19.8068C298.26 19.7879 298.139 19.767 297.964 19.7443C297.79 19.7178 297.616 19.7045 297.442 19.7045C297.04 19.7045 296.682 19.7898 296.368 19.9602C296.057 20.1269 295.811 20.3598 295.629 20.6591C295.447 20.9545 295.357 21.2917 295.357 21.6705V27H293.658ZM301.497 15.3636V27H299.798V15.3636H301.497ZM304.857 30.2727C304.603 30.2727 304.372 30.2519 304.163 30.2102C303.955 30.1723 303.8 30.1307 303.697 30.0852L304.107 28.6932C304.417 28.7765 304.694 28.8125 304.936 28.8011C305.179 28.7898 305.393 28.6989 305.578 28.5284C305.768 28.358 305.934 28.0795 306.078 27.6932L306.288 27.1136L303.095 18.2727H304.913L307.124 25.0455H307.214L309.425 18.2727H311.249L307.652 28.1648C307.485 28.6193 307.273 29.0038 307.016 29.3182C306.758 29.6364 306.451 29.875 306.095 30.0341C305.739 30.1932 305.326 30.2727 304.857 30.2727Z" fill="black"/>
</g>
<defs>
<filter id="filter0_dd_307_36414" x="0.5" y="2" width="78" height="41" filterUnits="userSpaceOnUse" color-interpolation-filters="sRGB">
<feFlood flood-opacity="0" result="BackgroundImageFix"/>
<feColorMatrix in="SourceAlpha" type="matrix" values="0 0 0 0 0 0 0 0 0 0 0 0 0 0 0 0 0 0 127 0" result="hardAlpha"/>
<feOffset dy="1"/>
<feGaussianBlur stdDeviation="1"/>
<feColorMatrix type="matrix" values="0 0 0 0 0.0627451 0 0 0 0 0.0941176 0 0 0 0 0.156863 0 0 0 0.06 0"/>
<feBlend mode="normal" in2="BackgroundImageFix" result="effect1_dropShadow_307_36414"/>
<feColorMatrix in="SourceAlpha" type="matrix" values="0 0 0 0 0 0 0 0 0 0 0 0 0 0 0 0 0 0 127 0" result="hardAlpha"/>
<feOffset dy="1"/>
<feGaussianBlur stdDeviation="1.5"/>
<feColorMatrix type="matrix" values="0 0 0 0 0.0627451 0 0 0 0 0.0941176 0 0 0 0 0.156863 0 0 0 0.1 0"/>
<feBlend mode="normal" in2="effect1_dropShadow_307_36414" result="effect2_dropShadow_307_36414"/>
<feBlend mode="normal" in="SourceGraphic" in2="effect2_dropShadow_307_36414" result="shape"/>
</filter>
<filter id="filter1_dd_307_36414" x="83.5" y="2" width="78" height="41" filterUnits="userSpaceOnUse" color-interpolation-filters="sRGB">
<feFlood flood-opacity="0" result="BackgroundImageFix"/>
<feColorMatrix in="SourceAlpha" type="matrix" values="0 0 0 0 0 0 0 0 0 0 0 0 0 0 0 0 0 0 127 0" result="hardAlpha"/>
<feOffset dy="1"/>
<feGaussianBlur stdDeviation="1"/>
<feColorMatrix type="matrix" values="0 0 0 0 0.0627451 0 0 0 0 0.0941176 0 0 0 0 0.156863 0 0 0 0.06 0"/>
<feBlend mode="normal" in2="BackgroundImageFix" result="effect1_dropShadow_307_36414"/>
<feColorMatrix in="SourceAlpha" type="matrix" values="0 0 0 0 0 0 0 0 0 0 0 0 0 0 0 0 0 0 127 0" result="hardAlpha"/>
<feOffset dy="1"/>
<feGaussianBlur stdDeviation="1.5"/>
<feColorMatrix type="matrix" values="0 0 0 0 0.0627451 0 0 0 0 0.0941176 0 0 0 0 0.156863 0 0 0 0.1 0"/>
<feBlend mode="normal" in2="effect1_dropShadow_307_36414" result="effect2_dropShadow_307_36414"/>
<feBlend mode="normal" in="SourceGraphic" in2="effect2_dropShadow_307_36414" result="shape"/>
</filter>
<filter id="filter2_dd_307_36414" x="166.5" y="2" width="78" height="41" filterUnits="userSpaceOnUse" color-interpolation-filters="sRGB">
<feFlood flood-opacity="0" result="BackgroundImageFix"/>
<feColorMatrix in="SourceAlpha" type="matrix" values="0 0 0 0 0 0 0 0 0 0 0 0 0 0 0 0 0 0 127 0" result="hardAlpha"/>
<feOffset dy="1"/>
<feGaussianBlur stdDeviation="1"/>
<feColorMatrix type="matrix" values="0 0 0 0 0.0627451 0 0 0 0 0.0941176 0 0 0 0 0.156863 0 0 0 0.06 0"/>
<feBlend mode="normal" in2="BackgroundImageFix" result="effect1_dropShadow_307_36414"/>
<feColorMatrix in="SourceAlpha" type="matrix" values="0 0 0 0 0 0 0 0 0 0 0 0 0 0 0 0 0 0 127 0" result="hardAlpha"/>
<feOffset dy="1"/>
<feGaussianBlur stdDeviation="1.5"/>
<feColorMatrix type="matrix" values="0 0 0 0 0.0627451 0 0 0 0 0.0941176 0 0 0 0 0.156863 0 0 0 0.1 0"/>
<feBlend mode="normal" in2="effect1_dropShadow_307_36414" result="effect2_dropShadow_307_36414"/>
<feBlend mode="normal" in="SourceGraphic" in2="effect2_dropShadow_307_36414" result="shape"/>
</filter>
<filter id="filter3_dd_307_36414" x="249.5" y="2" width="78" height="41" filterUnits="userSpaceOnUse" color-interpolation-filters="sRGB">
<feFlood flood-opacity="0" result="BackgroundImageFix"/>
<feColorMatrix in="SourceAlpha" type="matrix" values="0 0 0 0 0 0 0 0 0 0 0 0 0 0 0 0 0 0 127 0" result="hardAlpha"/>
<feOffset dy="1"/>
<feGaussianBlur stdDeviation="1"/>
<feColorMatrix type="matrix" values="0 0 0 0 0.0627451 0 0 0 0 0.0941176 0 0 0 0 0.156863 0 0 0 0.06 0"/>
<feBlend mode="normal" in2="BackgroundImageFix" result="effect1_dropShadow_307_36414"/>
<feColorMatrix in="SourceAlpha" type="matrix" values="0 0 0 0 0 0 0 0 0 0 0 0 0 0 0 0 0 0 127 0" result="hardAlpha"/>
<feOffset dy="1"/>
<feGaussianBlur stdDeviation="1.5"/>
<feColorMatrix type="matrix" values="0 0 0 0 0.0627451 0 0 0 0 0.0941176 0 0 0 0 0.156863 0 0 0 0.1 0"/>
<feBlend mode="normal" in2="effect1_dropShadow_307_36414" result="effect2_dropShadow_307_36414"/>
<feBlend mode="normal" in="SourceGraphic" in2="effect2_dropShadow_307_36414" result="shape"/>
</filter>
</defs>
</svg>
