<svg width="369" height="211" viewBox="0 0 369 211" fill="none" xmlns="http://www.w3.org/2000/svg">
<g filter="url(#filter0_dd_307_36424)">
<rect width="328" height="171" transform="translate(20.5)" fill="white"/>
<rect x="44.5" y="12" width="16" height="128" rx="4" fill="#FFD561"/>
<path opacity="0.8" d="M40.4588 147.273H42.0568L44.8352 154.057H44.9375L47.7159 147.273H49.3139V156H48.0611V149.685H47.9801L45.4062 155.987H44.3665L41.7926 149.68H41.7116V156H40.4588V147.273ZM53.8832 156.132C53.2695 156.132 52.734 155.991 52.2766 155.71C51.8192 155.429 51.4641 155.036 51.2113 154.53C50.9585 154.024 50.832 153.433 50.832 152.757C50.832 152.078 50.9585 151.484 51.2113 150.976C51.4641 150.467 51.8192 150.072 52.2766 149.791C52.734 149.51 53.2695 149.369 53.8832 149.369C54.4968 149.369 55.0323 149.51 55.4897 149.791C55.9471 150.072 56.3022 150.467 56.555 150.976C56.8079 151.484 56.9343 152.078 56.9343 152.757C56.9343 153.433 56.8079 154.024 56.555 154.53C56.3022 155.036 55.9471 155.429 55.4897 155.71C55.0323 155.991 54.4968 156.132 53.8832 156.132ZM53.8874 155.062C54.2852 155.062 54.6147 154.957 54.8761 154.747C55.1374 154.537 55.3306 154.257 55.4556 153.908C55.5835 153.558 55.6474 153.173 55.6474 152.753C55.6474 152.335 55.5835 151.952 55.4556 151.602C55.3306 151.25 55.1374 150.967 54.8761 150.754C54.6147 150.541 54.2852 150.435 53.8874 150.435C53.4869 150.435 53.1545 150.541 52.8903 150.754C52.6289 150.967 52.4343 151.25 52.3065 151.602C52.1815 151.952 52.119 152.335 52.119 152.753C52.119 153.173 52.1815 153.558 52.3065 153.908C52.4343 154.257 52.6289 154.537 52.8903 154.747C53.1545 154.957 53.4869 155.062 53.8874 155.062ZM59.6307 152.114V156H58.3565V149.455H59.5795V150.52H59.6605C59.8111 150.173 60.0469 149.895 60.3679 149.685C60.6918 149.474 61.0994 149.369 61.5909 149.369C62.0369 149.369 62.4276 149.463 62.7628 149.651C63.098 149.835 63.358 150.111 63.5426 150.477C63.7273 150.844 63.8196 151.297 63.8196 151.837V156H62.5455V151.99C62.5455 151.516 62.4219 151.145 62.1747 150.878C61.9276 150.608 61.5881 150.473 61.1562 150.473C60.8608 150.473 60.598 150.537 60.3679 150.665C60.1406 150.793 59.9602 150.98 59.8267 151.227C59.696 151.472 59.6307 151.767 59.6307 152.114Z" fill="black"/>
<g clip-path="url(#clip0_307_36424)">
<rect x="88.5" y="12" width="16" height="128" rx="4" fill="#FFD561"/>
<rect x="88.5" y="50" width="16" height="89" rx="4" fill="#F7A418"/>
</g>
<path opacity="0.8" d="M86.0284 148.406V147.273H92.7827V148.406H90.0597V156H88.7472V148.406H86.0284ZM97.4286 153.286V149.455H98.707V156H97.4542V154.866H97.386C97.2354 155.216 96.994 155.507 96.6616 155.74C96.332 155.97 95.9215 156.085 95.43 156.085C95.0096 156.085 94.6374 155.993 94.3136 155.808C93.9925 155.621 93.7397 155.344 93.555 154.977C93.3732 154.611 93.2823 154.158 93.2823 153.618V149.455H94.5565V153.464C94.5565 153.911 94.68 154.266 94.9272 154.53C95.1744 154.794 95.4954 154.926 95.8903 154.926C96.1289 154.926 96.3661 154.866 96.6019 154.747C96.8406 154.628 97.038 154.447 97.1942 154.206C97.3533 153.964 97.4315 153.658 97.4286 153.286ZM103.24 156.132C102.595 156.132 102.04 155.994 101.574 155.719C101.111 155.44 100.753 155.05 100.5 154.547C100.25 154.041 100.125 153.449 100.125 152.77C100.125 152.099 100.25 151.509 100.5 150.997C100.753 150.486 101.105 150.087 101.557 149.8C102.011 149.513 102.543 149.369 103.151 149.369C103.52 149.369 103.878 149.43 104.224 149.553C104.571 149.675 104.882 149.866 105.158 150.128C105.433 150.389 105.651 150.729 105.81 151.146C105.969 151.561 106.048 152.065 106.048 152.659V153.111H100.845V152.156H104.8C104.8 151.821 104.732 151.524 104.595 151.266C104.459 151.004 104.267 150.798 104.02 150.648C103.776 150.497 103.489 150.422 103.159 150.422C102.801 150.422 102.489 150.51 102.222 150.686C101.957 150.859 101.753 151.087 101.608 151.368C101.466 151.646 101.395 151.949 101.395 152.276V153.021C101.395 153.459 101.472 153.831 101.625 154.138C101.781 154.445 101.999 154.679 102.277 154.841C102.555 155 102.881 155.08 103.253 155.08C103.494 155.08 103.714 155.045 103.913 154.977C104.112 154.906 104.284 154.801 104.429 154.662C104.574 154.523 104.685 154.351 104.761 154.146L105.967 154.364C105.871 154.719 105.697 155.03 105.447 155.297C105.2 155.561 104.889 155.767 104.514 155.915C104.142 156.06 103.717 156.132 103.24 156.132Z" fill="black"/>
<rect x="132.5" y="12" width="16" height="128" rx="4" fill="#FFD561"/>
<path opacity="0.8" d="M130.168 156L127.747 147.273H129.132L130.832 154.031H130.913L132.682 147.273H134.054L135.822 154.036H135.903L137.599 147.273H138.989L136.564 156H135.239L133.402 149.463H133.334L131.497 156H130.168ZM142.263 156.132C141.619 156.132 141.063 155.994 140.597 155.719C140.134 155.44 139.776 155.05 139.523 154.547C139.273 154.041 139.148 153.449 139.148 152.77C139.148 152.099 139.273 151.509 139.523 150.997C139.776 150.486 140.129 150.087 140.58 149.8C141.035 149.513 141.566 149.369 142.174 149.369C142.543 149.369 142.901 149.43 143.248 149.553C143.594 149.675 143.906 149.866 144.181 150.128C144.457 150.389 144.674 150.729 144.833 151.146C144.992 151.561 145.072 152.065 145.072 152.659V153.111H139.869V152.156H143.823C143.823 151.821 143.755 151.524 143.619 151.266C143.482 151.004 143.29 150.798 143.043 150.648C142.799 150.497 142.512 150.422 142.183 150.422C141.825 150.422 141.512 150.51 141.245 150.686C140.981 150.859 140.776 151.087 140.631 151.368C140.489 151.646 140.418 151.949 140.418 152.276V153.021C140.418 153.459 140.495 153.831 140.648 154.138C140.805 154.445 141.022 154.679 141.3 154.841C141.579 155 141.904 155.08 142.276 155.08C142.518 155.08 142.738 155.045 142.937 154.977C143.136 154.906 143.308 154.801 143.452 154.662C143.597 154.523 143.708 154.351 143.785 154.146L144.991 154.364C144.894 154.719 144.721 155.03 144.471 155.297C144.224 155.561 143.913 155.767 143.538 155.915C143.165 156.06 142.741 156.132 142.263 156.132ZM148.936 156.128C148.407 156.128 147.936 155.993 147.521 155.723C147.109 155.45 146.785 155.062 146.549 154.56C146.316 154.054 146.2 153.447 146.2 152.74C146.2 152.033 146.318 151.428 146.554 150.925C146.792 150.422 147.119 150.037 147.534 149.77C147.949 149.503 148.419 149.369 148.944 149.369C149.35 149.369 149.677 149.438 149.924 149.574C150.174 149.707 150.368 149.864 150.504 150.043C150.643 150.222 150.751 150.379 150.828 150.516H150.904V147.273H152.179V156H150.934V154.982H150.828C150.751 155.121 150.64 155.28 150.495 155.459C150.353 155.638 150.157 155.794 149.907 155.928C149.657 156.061 149.333 156.128 148.936 156.128ZM149.217 155.041C149.583 155.041 149.893 154.945 150.146 154.751C150.402 154.555 150.595 154.284 150.725 153.938C150.859 153.591 150.926 153.187 150.926 152.727C150.926 152.273 150.86 151.875 150.73 151.534C150.599 151.193 150.407 150.928 150.154 150.737C149.902 150.547 149.589 150.452 149.217 150.452C148.833 150.452 148.514 150.551 148.258 150.75C148.002 150.949 147.809 151.22 147.679 151.564C147.551 151.908 147.487 152.295 147.487 152.727C147.487 153.165 147.552 153.558 147.683 153.908C147.814 154.257 148.007 154.534 148.262 154.739C148.521 154.94 148.839 155.041 149.217 155.041Z" fill="black"/>
<rect x="176.5" y="12" width="16" height="128" rx="4" fill="#FFD561"/>
<path opacity="0.8" d="M173.528 148.406V147.273H180.283V148.406H177.56V156H176.247V148.406H173.528ZM182.947 152.114V156H181.673V147.273H182.93V150.52H183.011C183.164 150.168 183.399 149.888 183.714 149.68C184.029 149.473 184.441 149.369 184.95 149.369C185.399 149.369 185.791 149.462 186.126 149.646C186.464 149.831 186.725 150.107 186.91 150.473C187.098 150.837 187.191 151.291 187.191 151.837V156H185.917V151.99C185.917 151.51 185.794 151.138 185.547 150.874C185.299 150.607 184.956 150.473 184.515 150.473C184.214 150.473 183.944 150.537 183.706 150.665C183.47 150.793 183.284 150.98 183.147 151.227C183.014 151.472 182.947 151.767 182.947 152.114ZM193.038 153.286V149.455H194.316V156H193.064V154.866H192.995C192.845 155.216 192.603 155.507 192.271 155.74C191.941 155.97 191.531 156.085 191.039 156.085C190.619 156.085 190.247 155.993 189.923 155.808C189.602 155.621 189.349 155.344 189.164 154.977C188.983 154.611 188.892 154.158 188.892 153.618V149.455H190.166V153.464C190.166 153.911 190.289 154.266 190.537 154.53C190.784 154.794 191.105 154.926 191.5 154.926C191.738 154.926 191.975 154.866 192.211 154.747C192.45 154.628 192.647 154.447 192.804 154.206C192.963 153.964 193.041 153.658 193.038 153.286Z" fill="black"/>
<rect x="220.5" y="12" width="16" height="128" rx="4" fill="#FFD561"/>
<path opacity="0.8" d="M221.959 156V147.273H227.371V148.406H223.276V151.065H226.983V152.195H223.276V156H221.959ZM228.806 156V149.455H230.037V150.494H230.105C230.225 150.142 230.435 149.865 230.736 149.663C231.04 149.459 231.384 149.357 231.767 149.357C231.847 149.357 231.941 149.359 232.049 149.365C232.159 149.371 232.246 149.378 232.309 149.386V150.605C232.257 150.591 232.167 150.575 232.036 150.558C231.905 150.538 231.775 150.528 231.644 150.528C231.343 150.528 231.074 150.592 230.838 150.72C230.605 150.845 230.421 151.02 230.284 151.244C230.148 151.466 230.08 151.719 230.08 152.003V156H228.806ZM233.411 156V149.455H234.685V156H233.411ZM234.055 148.445C233.833 148.445 233.643 148.371 233.484 148.223C233.327 148.072 233.249 147.893 233.249 147.686C233.249 147.476 233.327 147.297 233.484 147.149C233.643 146.999 233.833 146.923 234.055 146.923C234.276 146.923 234.465 146.999 234.621 147.149C234.781 147.297 234.86 147.476 234.86 147.686C234.86 147.893 234.781 148.072 234.621 148.223C234.465 148.371 234.276 148.445 234.055 148.445Z" fill="black"/>
<rect x="264.5" y="12" width="16" height="128" rx="4" fill="#FFD561"/>
<path opacity="0.8" d="M268.219 149.565C268.173 149.162 267.986 148.849 267.656 148.628C267.327 148.403 266.912 148.291 266.412 148.291C266.054 148.291 265.744 148.348 265.483 148.462C265.222 148.572 265.018 148.726 264.874 148.922C264.732 149.115 264.661 149.335 264.661 149.582C264.661 149.79 264.709 149.969 264.805 150.119C264.905 150.27 265.034 150.396 265.193 150.499C265.355 150.598 265.528 150.682 265.713 150.75C265.898 150.815 266.075 150.869 266.246 150.912L267.098 151.134C267.376 151.202 267.662 151.294 267.955 151.411C268.247 151.527 268.518 151.68 268.768 151.871C269.018 152.061 269.22 152.297 269.374 152.578C269.53 152.859 269.608 153.196 269.608 153.588C269.608 154.082 269.48 154.521 269.224 154.905C268.972 155.288 268.604 155.591 268.121 155.812C267.641 156.034 267.06 156.145 266.378 156.145C265.724 156.145 265.159 156.041 264.682 155.834C264.205 155.626 263.831 155.332 263.561 154.952C263.291 154.568 263.142 154.114 263.114 153.588H264.435C264.46 153.903 264.563 154.166 264.741 154.376C264.923 154.584 265.155 154.739 265.436 154.841C265.72 154.94 266.031 154.99 266.369 154.99C266.741 154.99 267.072 154.932 267.362 154.815C267.655 154.696 267.885 154.531 268.053 154.321C268.22 154.108 268.304 153.859 268.304 153.575C268.304 153.317 268.23 153.105 268.082 152.94C267.938 152.776 267.74 152.639 267.49 152.531C267.243 152.423 266.963 152.328 266.651 152.246L265.619 151.964C264.92 151.774 264.366 151.494 263.957 151.125C263.551 150.756 263.348 150.267 263.348 149.659C263.348 149.156 263.484 148.717 263.757 148.342C264.03 147.967 264.399 147.676 264.865 147.469C265.331 147.259 265.857 147.153 266.442 147.153C267.033 147.153 267.554 147.257 268.006 147.464C268.46 147.672 268.818 147.957 269.08 148.321C269.341 148.682 269.477 149.097 269.489 149.565H268.219ZM272.984 156.145C272.569 156.145 272.194 156.068 271.859 155.915C271.524 155.759 271.258 155.533 271.062 155.237C270.869 154.942 270.772 154.58 270.772 154.151C270.772 153.781 270.843 153.477 270.985 153.239C271.127 153 271.319 152.811 271.561 152.672C271.802 152.533 272.072 152.428 272.37 152.357C272.669 152.286 272.973 152.232 273.282 152.195C273.674 152.149 273.993 152.112 274.237 152.084C274.481 152.053 274.659 152.003 274.77 151.935C274.88 151.866 274.936 151.756 274.936 151.602V151.572C274.936 151.2 274.831 150.912 274.62 150.707C274.413 150.503 274.103 150.401 273.691 150.401C273.262 150.401 272.924 150.496 272.677 150.686C272.433 150.874 272.264 151.082 272.17 151.312L270.973 151.04C271.115 150.642 271.322 150.321 271.595 150.077C271.87 149.83 272.187 149.651 272.545 149.54C272.903 149.426 273.279 149.369 273.674 149.369C273.936 149.369 274.213 149.401 274.505 149.463C274.801 149.523 275.076 149.634 275.332 149.795C275.591 149.957 275.802 150.189 275.967 150.49C276.132 150.788 276.214 151.176 276.214 151.653V156H274.97V155.105H274.919C274.836 155.27 274.713 155.432 274.548 155.591C274.383 155.75 274.172 155.882 273.913 155.987C273.654 156.092 273.345 156.145 272.984 156.145ZM273.261 155.122C273.613 155.122 273.914 155.053 274.164 154.913C274.417 154.774 274.609 154.592 274.74 154.368C274.873 154.141 274.94 153.898 274.94 153.639V152.795C274.895 152.841 274.806 152.884 274.676 152.923C274.548 152.96 274.402 152.993 274.237 153.021C274.072 153.047 273.912 153.071 273.755 153.094C273.599 153.114 273.468 153.131 273.363 153.145C273.116 153.176 272.89 153.229 272.686 153.303C272.484 153.376 272.322 153.483 272.2 153.622C272.081 153.759 272.021 153.94 272.021 154.168C272.021 154.483 272.137 154.722 272.37 154.884C272.603 155.043 272.9 155.122 273.261 155.122ZM280.967 149.455V150.477H277.391V149.455H280.967ZM278.35 147.886H279.624V154.078C279.624 154.325 279.661 154.511 279.735 154.636C279.809 154.759 279.904 154.842 280.021 154.888C280.14 154.93 280.269 154.952 280.408 154.952C280.511 154.952 280.6 154.945 280.677 154.93C280.754 154.916 280.813 154.905 280.856 154.896L281.086 155.949C281.012 155.977 280.907 156.006 280.771 156.034C280.634 156.065 280.464 156.082 280.259 156.085C279.924 156.091 279.612 156.031 279.322 155.906C279.032 155.781 278.798 155.588 278.619 155.327C278.44 155.065 278.35 154.737 278.35 154.342V147.886Z" fill="black"/>
<rect x="308.5" y="12" width="16" height="128" rx="4" fill="#FFD561"/>
<path opacity="0.8" d="M310.719 149.565C310.673 149.162 310.486 148.849 310.156 148.628C309.827 148.403 309.412 148.291 308.912 148.291C308.554 148.291 308.244 148.348 307.983 148.462C307.722 148.572 307.518 148.726 307.374 148.922C307.232 149.115 307.161 149.335 307.161 149.582C307.161 149.79 307.209 149.969 307.305 150.119C307.405 150.27 307.534 150.396 307.693 150.499C307.855 150.598 308.028 150.682 308.213 150.75C308.398 150.815 308.575 150.869 308.746 150.912L309.598 151.134C309.876 151.202 310.162 151.294 310.455 151.411C310.747 151.527 311.018 151.68 311.268 151.871C311.518 152.061 311.72 152.297 311.874 152.578C312.03 152.859 312.108 153.196 312.108 153.588C312.108 154.082 311.98 154.521 311.724 154.905C311.472 155.288 311.104 155.591 310.621 155.812C310.141 156.034 309.56 156.145 308.878 156.145C308.224 156.145 307.659 156.041 307.182 155.834C306.705 155.626 306.331 155.332 306.061 154.952C305.791 154.568 305.642 154.114 305.614 153.588H306.935C306.96 153.903 307.063 154.166 307.241 154.376C307.423 154.584 307.655 154.739 307.936 154.841C308.22 154.94 308.531 154.99 308.869 154.99C309.241 154.99 309.572 154.932 309.862 154.815C310.155 154.696 310.385 154.531 310.553 154.321C310.72 154.108 310.804 153.859 310.804 153.575C310.804 153.317 310.73 153.105 310.582 152.94C310.438 152.776 310.24 152.639 309.99 152.531C309.743 152.423 309.463 152.328 309.151 152.246L308.119 151.964C307.42 151.774 306.866 151.494 306.457 151.125C306.051 150.756 305.848 150.267 305.848 149.659C305.848 149.156 305.984 148.717 306.257 148.342C306.53 147.967 306.899 147.676 307.365 147.469C307.831 147.259 308.357 147.153 308.942 147.153C309.533 147.153 310.054 147.257 310.506 147.464C310.96 147.672 311.318 147.957 311.58 148.321C311.841 148.682 311.977 149.097 311.989 149.565H310.719ZM317.725 153.286V149.455H319.004V156H317.751V154.866H317.683C317.532 155.216 317.291 155.507 316.958 155.74C316.629 155.97 316.218 156.085 315.727 156.085C315.306 156.085 314.934 155.993 314.61 155.808C314.289 155.621 314.037 155.344 313.852 154.977C313.67 154.611 313.579 154.158 313.579 153.618V149.455H314.853V153.464C314.853 153.911 314.977 154.266 315.224 154.53C315.471 154.794 315.792 154.926 316.187 154.926C316.426 154.926 316.663 154.866 316.899 154.747C317.137 154.628 317.335 154.447 317.491 154.206C317.65 153.964 317.728 153.658 317.725 153.286ZM321.99 152.114V156H320.716V149.455H321.939V150.52H322.02C322.17 150.173 322.406 149.895 322.727 149.685C323.051 149.474 323.459 149.369 323.95 149.369C324.396 149.369 324.787 149.463 325.122 149.651C325.457 149.835 325.717 150.111 325.902 150.477C326.087 150.844 326.179 151.297 326.179 151.837V156H324.905V151.99C324.905 151.516 324.781 151.145 324.534 150.878C324.287 150.608 323.947 150.473 323.516 150.473C323.22 150.473 322.957 150.537 322.727 150.665C322.5 150.793 322.32 150.98 322.186 151.227C322.055 151.472 321.99 151.767 321.99 152.114Z" fill="black"/>
</g>
<defs>
<filter id="filter0_dd_307_36424" x="0.5" y="0" width="368" height="211" filterUnits="userSpaceOnUse" color-interpolation-filters="sRGB">
<feFlood flood-opacity="0" result="BackgroundImageFix"/>
<feColorMatrix in="SourceAlpha" type="matrix" values="0 0 0 0 0 0 0 0 0 0 0 0 0 0 0 0 0 0 127 0" result="hardAlpha"/>
<feMorphology radius="4" operator="erode" in="SourceAlpha" result="effect1_dropShadow_307_36424"/>
<feOffset dy="8"/>
<feGaussianBlur stdDeviation="4"/>
<feColorMatrix type="matrix" values="0 0 0 0 0.0627451 0 0 0 0 0.0941176 0 0 0 0 0.156863 0 0 0 0.03 0"/>
<feBlend mode="normal" in2="BackgroundImageFix" result="effect1_dropShadow_307_36424"/>
<feColorMatrix in="SourceAlpha" type="matrix" values="0 0 0 0 0 0 0 0 0 0 0 0 0 0 0 0 0 0 127 0" result="hardAlpha"/>
<feMorphology radius="4" operator="erode" in="SourceAlpha" result="effect2_dropShadow_307_36424"/>
<feOffset dy="20"/>
<feGaussianBlur stdDeviation="12"/>
<feColorMatrix type="matrix" values="0 0 0 0 0.0627451 0 0 0 0 0.0941176 0 0 0 0 0.156863 0 0 0 0.08 0"/>
<feBlend mode="normal" in2="effect1_dropShadow_307_36424" result="effect2_dropShadow_307_36424"/>
<feBlend mode="normal" in="SourceGraphic" in2="effect2_dropShadow_307_36424" result="shape"/>
</filter>
<clipPath id="clip0_307_36424">
<rect x="88.5" y="12" width="16" height="128" rx="4" fill="white"/>
</clipPath>
</defs>
</svg>
