<svg width="116" height="30" viewBox="0 0 116 30" fill="none" xmlns="http://www.w3.org/2000/svg">
<rect x="0.5" y="0.714844" width="115" height="29" rx="4" fill="#F3A615"/>
<path d="M13.116 9.94284V11.5248H10.512V19.7148H8.552V11.5248H5.948V9.94284H13.116ZM16.5061 13.1628C16.7581 12.7522 17.0847 12.4302 17.4861 12.1968C17.8967 11.9635 18.3634 11.8468 18.8861 11.8468V13.9048H18.3681C17.7521 13.9048 17.2854 14.0495 16.9681 14.3388C16.6601 14.6282 16.5061 15.1322 16.5061 15.8508V19.7148H14.5461V11.9588H16.5061V13.1628ZM19.7022 15.8088C19.7022 15.0248 19.8562 14.3295 20.1642 13.7228C20.4816 13.1162 20.9062 12.6495 21.4382 12.3228C21.9796 11.9962 22.5816 11.8328 23.2442 11.8328C23.8229 11.8328 24.3269 11.9495 24.7562 12.1828C25.1949 12.4162 25.5449 12.7102 25.8062 13.0648V11.9588H27.7802V19.7148H25.8062V18.5808C25.5542 18.9448 25.2042 19.2482 24.7562 19.4908C24.3176 19.7242 23.8089 19.8408 23.2302 19.8408C22.5769 19.8408 21.9796 19.6728 21.4382 19.3368C20.9062 19.0008 20.4816 18.5295 20.1642 17.9228C19.8562 17.3068 19.7022 16.6022 19.7022 15.8088ZM25.8062 15.8368C25.8062 15.3608 25.7129 14.9548 25.5262 14.6188C25.3396 14.2735 25.0876 14.0122 24.7702 13.8348C24.4529 13.6482 24.1122 13.5548 23.7482 13.5548C23.3842 13.5548 23.0482 13.6435 22.7402 13.8208C22.4322 13.9982 22.1802 14.2595 21.9842 14.6048C21.7976 14.9408 21.7042 15.3422 21.7042 15.8088C21.7042 16.2755 21.7976 16.6862 21.9842 17.0408C22.1802 17.3862 22.4322 17.6522 22.7402 17.8388C23.0576 18.0255 23.3936 18.1188 23.7482 18.1188C24.1122 18.1188 24.4529 18.0302 24.7702 17.8528C25.0876 17.6662 25.3396 17.4048 25.5262 17.0688C25.7129 16.7235 25.8062 16.3128 25.8062 15.8368ZM33.9925 11.8468C34.9165 11.8468 35.6632 12.1408 36.2325 12.7288C36.8018 13.3075 37.0865 14.1195 37.0865 15.1648V19.7148H35.1265V15.4308C35.1265 14.8148 34.9725 14.3435 34.6645 14.0168C34.3565 13.6808 33.9365 13.5128 33.4045 13.5128C32.8632 13.5128 32.4338 13.6808 32.1165 14.0168C31.8085 14.3435 31.6545 14.8148 31.6545 15.4308V19.7148H29.6945V11.9588H31.6545V12.9248C31.9158 12.5888 32.2472 12.3275 32.6485 12.1408C33.0592 11.9448 33.5072 11.8468 33.9925 11.8468ZM41.9184 19.8408C41.2837 19.8408 40.7144 19.7288 40.2104 19.5048C39.7064 19.2715 39.305 18.9588 39.0064 18.5668C38.717 18.1748 38.5584 17.7408 38.5304 17.2648H40.5044C40.5417 17.5635 40.6864 17.8108 40.9384 18.0068C41.1997 18.2028 41.5217 18.3008 41.9044 18.3008C42.2777 18.3008 42.567 18.2262 42.7724 18.0768C42.987 17.9275 43.0944 17.7362 43.0944 17.5028C43.0944 17.2508 42.9637 17.0642 42.7024 16.9428C42.4504 16.8122 42.0444 16.6722 41.4844 16.5228C40.9057 16.3828 40.4297 16.2382 40.0564 16.0888C39.6924 15.9395 39.375 15.7108 39.1044 15.4028C38.843 15.0948 38.7124 14.6795 38.7124 14.1568C38.7124 13.7275 38.8337 13.3355 39.0764 12.9808C39.3284 12.6262 39.683 12.3462 40.1404 12.1408C40.607 11.9355 41.153 11.8328 41.7784 11.8328C42.7024 11.8328 43.4397 12.0662 43.9904 12.5328C44.541 12.9902 44.8444 13.6108 44.9004 14.3948H43.0244C42.9964 14.0868 42.8657 13.8442 42.6324 13.6668C42.4084 13.4802 42.105 13.3868 41.7224 13.3868C41.3677 13.3868 41.0924 13.4522 40.8964 13.5828C40.7097 13.7135 40.6164 13.8955 40.6164 14.1288C40.6164 14.3902 40.747 14.5908 41.0084 14.7308C41.2697 14.8615 41.6757 14.9968 42.2264 15.1368C42.7864 15.2768 43.2484 15.4215 43.6124 15.5708C43.9764 15.7202 44.289 15.9535 44.5504 16.2708C44.821 16.5788 44.961 16.9895 44.9704 17.5028C44.9704 17.9508 44.8444 18.3522 44.5924 18.7068C44.3497 19.0615 43.995 19.3415 43.5284 19.5468C43.071 19.7428 42.5344 19.8408 41.9184 19.8408ZM46.0753 15.8088C46.0753 15.0248 46.2293 14.3295 46.5373 13.7228C46.8546 13.1162 47.2793 12.6495 47.8113 12.3228C48.3526 11.9962 48.9546 11.8328 49.6173 11.8328C50.1959 11.8328 50.6999 11.9495 51.1293 12.1828C51.5679 12.4162 51.9179 12.7102 52.1793 13.0648V11.9588H54.1533V19.7148H52.1793V18.5808C51.9273 18.9448 51.5773 19.2482 51.1293 19.4908C50.6906 19.7242 50.1819 19.8408 49.6033 19.8408C48.9499 19.8408 48.3526 19.6728 47.8113 19.3368C47.2793 19.0008 46.8546 18.5295 46.5373 17.9228C46.2293 17.3068 46.0753 16.6022 46.0753 15.8088ZM52.1793 15.8368C52.1793 15.3608 52.0859 14.9548 51.8993 14.6188C51.7126 14.2735 51.4606 14.0122 51.1433 13.8348C50.8259 13.6482 50.4853 13.5548 50.1213 13.5548C49.7573 13.5548 49.4213 13.6435 49.1133 13.8208C48.8053 13.9982 48.5533 14.2595 48.3573 14.6048C48.1706 14.9408 48.0773 15.3422 48.0773 15.8088C48.0773 16.2755 48.1706 16.6862 48.3573 17.0408C48.5533 17.3862 48.8053 17.6522 49.1133 17.8388C49.4306 18.0255 49.7666 18.1188 50.1213 18.1188C50.4853 18.1188 50.8259 18.0302 51.1433 17.8528C51.4606 17.6662 51.7126 17.4048 51.8993 17.0688C52.0859 16.7235 52.1793 16.3128 52.1793 15.8368ZM55.5636 15.8368C55.5636 15.0342 55.7269 14.3342 56.0536 13.7368C56.3802 13.1302 56.8329 12.6635 57.4116 12.3368C57.9902 12.0008 58.6529 11.8328 59.3996 11.8328C60.3609 11.8328 61.1542 12.0755 61.7796 12.5608C62.4142 13.0368 62.8389 13.7088 63.0536 14.5768H60.9396C60.8276 14.2408 60.6362 13.9795 60.3656 13.7928C60.1042 13.5968 59.7776 13.4988 59.3856 13.4988C58.8256 13.4988 58.3822 13.7042 58.0556 14.1148C57.7289 14.5162 57.5656 15.0902 57.5656 15.8368C57.5656 16.5742 57.7289 17.1482 58.0556 17.5588C58.3822 17.9602 58.8256 18.1608 59.3856 18.1608C60.1789 18.1608 60.6969 17.8062 60.9396 17.0968H63.0536C62.8389 17.9368 62.4142 18.6042 61.7796 19.0988C61.1449 19.5935 60.3516 19.8408 59.3996 19.8408C58.6529 19.8408 57.9902 19.6775 57.4116 19.3508C56.8329 19.0148 56.3802 18.5482 56.0536 17.9508C55.7269 17.3442 55.5636 16.6395 55.5636 15.8368ZM66.7714 13.5688V17.3208C66.7714 17.5822 66.8321 17.7735 66.9534 17.8948C67.0841 18.0068 67.2988 18.0628 67.5974 18.0628H68.5074V19.7148H67.2754C65.6234 19.7148 64.7974 18.9122 64.7974 17.3068V13.5688H63.8734V11.9588H64.7974V10.0408H66.7714V11.9588H68.5074V13.5688H66.7714ZM70.9112 11.0348C70.5658 11.0348 70.2765 10.9275 70.0432 10.7128C69.8192 10.4888 69.7072 10.2135 69.7072 9.88684C69.7072 9.56018 69.8192 9.28951 70.0432 9.07484C70.2765 8.85084 70.5658 8.73884 70.9112 8.73884C71.2565 8.73884 71.5412 8.85084 71.7652 9.07484C71.9985 9.28951 72.1152 9.56018 72.1152 9.88684C72.1152 10.2135 71.9985 10.4888 71.7652 10.7128C71.5412 10.9275 71.2565 11.0348 70.9112 11.0348ZM71.8772 11.9588V19.7148H69.9172V11.9588H71.8772ZM77.2577 19.8408C76.511 19.8408 75.839 19.6775 75.2417 19.3508C74.6443 19.0148 74.173 18.5435 73.8277 17.9368C73.4917 17.3302 73.3237 16.6302 73.3237 15.8368C73.3237 15.0435 73.4963 14.3435 73.8417 13.7368C74.1963 13.1302 74.677 12.6635 75.2837 12.3368C75.8903 12.0008 76.567 11.8328 77.3137 11.8328C78.0603 11.8328 78.737 12.0008 79.3437 12.3368C79.9503 12.6635 80.4263 13.1302 80.7717 13.7368C81.1263 14.3435 81.3037 15.0435 81.3037 15.8368C81.3037 16.6302 81.1217 17.3302 80.7577 17.9368C80.403 18.5435 79.9177 19.0148 79.3017 19.3508C78.695 19.6775 78.0137 19.8408 77.2577 19.8408ZM77.2577 18.1328C77.6123 18.1328 77.9437 18.0488 78.2517 17.8808C78.569 17.7035 78.821 17.4422 79.0077 17.0968C79.1943 16.7515 79.2877 16.3315 79.2877 15.8368C79.2877 15.0995 79.0917 14.5348 78.6997 14.1428C78.317 13.7415 77.8457 13.5408 77.2857 13.5408C76.7257 13.5408 76.2543 13.7415 75.8717 14.1428C75.4983 14.5348 75.3117 15.0995 75.3117 15.8368C75.3117 16.5742 75.4937 17.1435 75.8577 17.5448C76.231 17.9368 76.6977 18.1328 77.2577 18.1328ZM87.0394 11.8468C87.9634 11.8468 88.7101 12.1408 89.2794 12.7288C89.8487 13.3075 90.1334 14.1195 90.1334 15.1648V19.7148H88.1734V15.4308C88.1734 14.8148 88.0194 14.3435 87.7114 14.0168C87.4034 13.6808 86.9834 13.5128 86.4514 13.5128C85.9101 13.5128 85.4807 13.6808 85.1634 14.0168C84.8554 14.3435 84.7014 14.8148 84.7014 15.4308V19.7148H82.7414V11.9588H84.7014V12.9248C84.9627 12.5888 85.2941 12.3275 85.6954 12.1408C86.1061 11.9448 86.5541 11.8468 87.0394 11.8468Z" fill="white"/>
<path d="M105.293 8.54816H99.7067C97.28 8.54816 95.8334 9.99482 95.8334 12.4215V18.0015C95.8334 20.4348 97.28 21.8815 99.7067 21.8815H105.287C107.713 21.8815 109.16 20.4348 109.16 18.0082V12.4215C109.167 9.99482 107.72 8.54816 105.293 8.54816ZM105.833 18.7148H99.1667C98.8934 18.7148 98.6667 18.4882 98.6667 18.2148C98.6667 17.9415 98.8934 17.7148 99.1667 17.7148H105.833C106.107 17.7148 106.333 17.9415 106.333 18.2148C106.333 18.4882 106.107 18.7148 105.833 18.7148ZM105.833 15.7148H99.1667C98.8934 15.7148 98.6667 15.4882 98.6667 15.2148C98.6667 14.9415 98.8934 14.7148 99.1667 14.7148H105.833C106.107 14.7148 106.333 14.9415 106.333 15.2148C106.333 15.4882 106.107 15.7148 105.833 15.7148ZM105.833 12.7148H99.1667C98.8934 12.7148 98.6667 12.4882 98.6667 12.2148C98.6667 11.9415 98.8934 11.7148 99.1667 11.7148H105.833C106.107 11.7148 106.333 11.9415 106.333 12.2148C106.333 12.4882 106.107 12.7148 105.833 12.7148Z" fill="white"/>
</svg>
