<svg width="368" height="240" viewBox="0 0 368 240" fill="none" xmlns="http://www.w3.org/2000/svg">
<g filter="url(#filter0_dd_307_36934)">
<rect width="328" height="200" transform="translate(20.0002)" fill="white"/>
<rect x="44.0002" y="12" width="16" height="157" rx="4" fill="#FFD561"/>
<path opacity="0.8" d="M39.9591 176.273H41.5571L44.3355 183.057H44.4377L47.2162 176.273H48.8142V185H47.5613V178.685H47.4804L44.9065 184.987H43.8667L41.2929 178.68H41.2119V185H39.9591V176.273ZM53.3834 185.132C52.7698 185.132 52.2343 184.991 51.7769 184.71C51.3195 184.429 50.9644 184.036 50.7115 183.53C50.4587 183.024 50.3323 182.433 50.3323 181.757C50.3323 181.078 50.4587 180.484 50.7115 179.976C50.9644 179.467 51.3195 179.072 51.7769 178.791C52.2343 178.51 52.7698 178.369 53.3834 178.369C53.997 178.369 54.5326 178.51 54.9899 178.791C55.4473 179.072 55.8024 179.467 56.0553 179.976C56.3081 180.484 56.4345 181.078 56.4345 181.757C56.4345 182.433 56.3081 183.024 56.0553 183.53C55.8024 184.036 55.4473 184.429 54.9899 184.71C54.5326 184.991 53.997 185.132 53.3834 185.132ZM53.3877 184.062C53.7854 184.062 54.1149 183.957 54.3763 183.747C54.6377 183.537 54.8309 183.257 54.9559 182.908C55.0837 182.558 55.1476 182.173 55.1476 181.753C55.1476 181.335 55.0837 180.952 54.9559 180.602C54.8309 180.25 54.6377 179.967 54.3763 179.754C54.1149 179.541 53.7854 179.435 53.3877 179.435C52.9871 179.435 52.6547 179.541 52.3905 179.754C52.1292 179.967 51.9345 180.25 51.8067 180.602C51.6817 180.952 51.6192 181.335 51.6192 181.753C51.6192 182.173 51.6817 182.558 51.8067 182.908C51.9345 183.257 52.1292 183.537 52.3905 183.747C52.6547 183.957 52.9871 184.062 53.3877 184.062ZM59.1309 181.114V185H57.8568V178.455H59.0798V179.52H59.1608C59.3113 179.173 59.5471 178.895 59.8681 178.685C60.192 178.474 60.5997 178.369 61.0912 178.369C61.5372 178.369 61.9278 178.463 62.263 178.651C62.5983 178.835 62.8582 179.111 63.0429 179.477C63.2275 179.844 63.3198 180.297 63.3198 180.837V185H62.0457V180.99C62.0457 180.516 61.9221 180.145 61.675 179.878C61.4278 179.608 61.0883 179.473 60.6565 179.473C60.361 179.473 60.0983 179.537 59.8681 179.665C59.6409 179.793 59.4605 179.98 59.3269 180.227C59.1963 180.472 59.1309 180.767 59.1309 181.114Z" fill="black"/>
<g clip-path="url(#clip0_307_36934)">
<rect x="88.0002" y="12" width="16" height="157" rx="4" fill="#FFD561"/>
<rect x="87.0002" y="51.5078" width="16" height="148" rx="4" fill="#F7A418"/>
</g>
<path opacity="0.8" d="M85.5287 177.406V176.273H92.2829V177.406H89.5599V185H88.2474V177.406H85.5287ZM96.9289 182.286V178.455H98.2073V185H96.9544V183.866H96.8863C96.7357 184.216 96.4942 184.507 96.1618 184.74C95.8323 184.97 95.4218 185.085 94.9303 185.085C94.5098 185.085 94.1377 184.993 93.8138 184.808C93.4928 184.621 93.2399 184.344 93.0553 183.977C92.8735 183.611 92.7826 183.158 92.7826 182.618V178.455H94.0567V182.464C94.0567 182.911 94.1803 183.266 94.4274 183.53C94.6746 183.794 94.9956 183.926 95.3905 183.926C95.6292 183.926 95.8664 183.866 96.1022 183.747C96.3408 183.628 96.5382 183.447 96.6945 183.206C96.8536 182.964 96.9317 182.658 96.9289 182.286ZM102.74 185.132C102.095 185.132 101.54 184.994 101.074 184.719C100.611 184.44 100.253 184.05 100 183.547C99.7502 183.041 99.6252 182.449 99.6252 181.77C99.6252 181.099 99.7502 180.509 100 179.997C100.253 179.486 100.605 179.087 101.057 178.8C101.512 178.513 102.043 178.369 102.651 178.369C103.02 178.369 103.378 178.43 103.725 178.553C104.071 178.675 104.382 178.866 104.658 179.128C104.933 179.389 105.151 179.729 105.31 180.146C105.469 180.561 105.549 181.065 105.549 181.659V182.111H100.345V181.156H104.3C104.3 180.821 104.232 180.524 104.095 180.266C103.959 180.004 103.767 179.798 103.52 179.648C103.276 179.497 102.989 179.422 102.659 179.422C102.301 179.422 101.989 179.51 101.722 179.686C101.458 179.859 101.253 180.087 101.108 180.368C100.966 180.646 100.895 180.949 100.895 181.276V182.021C100.895 182.459 100.972 182.831 101.125 183.138C101.281 183.445 101.499 183.679 101.777 183.841C102.056 184 102.381 184.08 102.753 184.08C102.995 184.08 103.215 184.045 103.414 183.977C103.612 183.906 103.784 183.801 103.929 183.662C104.074 183.523 104.185 183.351 104.262 183.146L105.468 183.364C105.371 183.719 105.198 184.03 104.948 184.297C104.701 184.561 104.389 184.767 104.014 184.915C103.642 185.06 103.218 185.132 102.74 185.132Z" fill="black"/>
<rect x="132" y="12" width="16" height="157" rx="4" fill="#FFD561"/>
<path opacity="0.8" d="M129.668 185L127.247 176.273H128.632L130.333 183.031H130.414L132.182 176.273H133.554L135.323 183.036H135.404L137.1 176.273H138.489L136.064 185H134.739L132.902 178.463H132.834L130.997 185H129.668ZM141.764 185.132C141.119 185.132 140.563 184.994 140.098 184.719C139.634 184.44 139.277 184.05 139.024 183.547C138.774 183.041 138.649 182.449 138.649 181.77C138.649 181.099 138.774 180.509 139.024 179.997C139.277 179.486 139.629 179.087 140.08 178.8C140.535 178.513 141.066 178.369 141.674 178.369C142.044 178.369 142.402 178.43 142.748 178.553C143.095 178.675 143.406 178.866 143.681 179.128C143.957 179.389 144.174 179.729 144.333 180.146C144.492 180.561 144.572 181.065 144.572 181.659V182.111H139.369V181.156H143.323C143.323 180.821 143.255 180.524 143.119 180.266C142.982 180.004 142.791 179.798 142.544 179.648C142.299 179.497 142.012 179.422 141.683 179.422C141.325 179.422 141.012 179.51 140.745 179.686C140.481 179.859 140.277 180.087 140.132 180.368C139.99 180.646 139.919 180.949 139.919 181.276V182.021C139.919 182.459 139.995 182.831 140.149 183.138C140.305 183.445 140.522 183.679 140.801 183.841C141.079 184 141.404 184.08 141.777 184.08C142.018 184.08 142.238 184.045 142.437 183.977C142.636 183.906 142.808 183.801 142.953 183.662C143.098 183.523 143.208 183.351 143.285 183.146L144.491 183.364C144.394 183.719 144.221 184.03 143.971 184.297C143.724 184.561 143.413 184.767 143.038 184.915C142.666 185.06 142.241 185.132 141.764 185.132ZM148.436 185.128C147.908 185.128 147.436 184.993 147.021 184.723C146.609 184.45 146.285 184.062 146.05 183.56C145.817 183.054 145.7 182.447 145.7 181.74C145.7 181.033 145.818 180.428 146.054 179.925C146.293 179.422 146.619 179.037 147.034 178.77C147.449 178.503 147.919 178.369 148.444 178.369C148.851 178.369 149.177 178.438 149.425 178.574C149.675 178.707 149.868 178.864 150.004 179.043C150.143 179.222 150.251 179.379 150.328 179.516H150.405V176.273H151.679V185H150.435V183.982H150.328C150.251 184.121 150.141 184.28 149.996 184.459C149.854 184.638 149.658 184.794 149.408 184.928C149.158 185.061 148.834 185.128 148.436 185.128ZM148.717 184.041C149.084 184.041 149.393 183.945 149.646 183.751C149.902 183.555 150.095 183.284 150.226 182.938C150.359 182.591 150.426 182.187 150.426 181.727C150.426 181.273 150.361 180.875 150.23 180.534C150.099 180.193 149.908 179.928 149.655 179.737C149.402 179.547 149.089 179.452 148.717 179.452C148.334 179.452 148.014 179.551 147.758 179.75C147.503 179.949 147.31 180.22 147.179 180.564C147.051 180.908 146.987 181.295 146.987 181.727C146.987 182.165 147.052 182.558 147.183 182.908C147.314 183.257 147.507 183.534 147.763 183.739C148.021 183.94 148.339 184.041 148.717 184.041Z" fill="black"/>
<rect x="176" y="12" width="16" height="157" rx="4" fill="#FFD561"/>
<path opacity="0.8" d="M173.029 177.406V176.273H179.783V177.406H177.06V185H175.747V177.406H173.029ZM182.447 181.114V185H181.173V176.273H182.43V179.52H182.511C182.665 179.168 182.899 178.888 183.214 178.68C183.53 178.473 183.942 178.369 184.45 178.369C184.899 178.369 185.291 178.462 185.626 178.646C185.964 178.831 186.226 179.107 186.41 179.473C186.598 179.837 186.692 180.291 186.692 180.837V185H185.418V180.99C185.418 180.51 185.294 180.138 185.047 179.874C184.8 179.607 184.456 179.473 184.016 179.473C183.714 179.473 183.444 179.537 183.206 179.665C182.97 179.793 182.784 179.98 182.648 180.227C182.514 180.472 182.447 180.767 182.447 181.114ZM192.538 182.286V178.455H193.817V185H192.564V183.866H192.496C192.345 184.216 192.104 184.507 191.771 184.74C191.442 184.97 191.031 185.085 190.54 185.085C190.119 185.085 189.747 184.993 189.423 184.808C189.102 184.621 188.849 184.344 188.665 183.977C188.483 183.611 188.392 183.158 188.392 182.618V178.455H189.666V182.464C189.666 182.911 189.79 183.266 190.037 183.53C190.284 183.794 190.605 183.926 191 183.926C191.239 183.926 191.476 183.866 191.712 183.747C191.95 183.628 192.148 183.447 192.304 183.206C192.463 182.964 192.541 182.658 192.538 182.286Z" fill="black"/>
<rect x="220" y="12" width="16" height="157" rx="4" fill="#FFD561"/>
<path opacity="0.8" d="M221.459 185V176.273H226.871V177.406H222.776V180.065H226.483V181.195H222.776V185H221.459ZM228.306 185V178.455H229.538V179.494H229.606C229.725 179.142 229.935 178.865 230.236 178.663C230.54 178.459 230.884 178.357 231.268 178.357C231.347 178.357 231.441 178.359 231.549 178.365C231.66 178.371 231.746 178.378 231.809 178.386V179.605C231.758 179.591 231.667 179.575 231.536 179.558C231.405 179.538 231.275 179.528 231.144 179.528C230.843 179.528 230.574 179.592 230.339 179.72C230.106 179.845 229.921 180.02 229.785 180.244C229.648 180.466 229.58 180.719 229.58 181.003V185H228.306ZM232.911 185V178.455H234.186V185H232.911ZM233.555 177.445C233.333 177.445 233.143 177.371 232.984 177.223C232.828 177.072 232.75 176.893 232.75 176.686C232.75 176.476 232.828 176.297 232.984 176.149C233.143 175.999 233.333 175.923 233.555 175.923C233.777 175.923 233.965 175.999 234.122 176.149C234.281 176.297 234.36 176.476 234.36 176.686C234.36 176.893 234.281 177.072 234.122 177.223C233.965 177.371 233.777 177.445 233.555 177.445Z" fill="black"/>
<rect x="264" y="12" width="16" height="157" rx="4" fill="#FFD561"/>
<path opacity="0.8" d="M267.719 178.565C267.674 178.162 267.486 177.849 267.156 177.628C266.827 177.403 266.412 177.291 265.912 177.291C265.554 177.291 265.245 177.348 264.983 177.462C264.722 177.572 264.519 177.726 264.374 177.922C264.232 178.115 264.161 178.335 264.161 178.582C264.161 178.79 264.209 178.969 264.306 179.119C264.405 179.27 264.534 179.396 264.693 179.499C264.855 179.598 265.029 179.682 265.213 179.75C265.398 179.815 265.576 179.869 265.746 179.912L266.598 180.134C266.877 180.202 267.162 180.294 267.455 180.411C267.747 180.527 268.019 180.68 268.269 180.871C268.519 181.061 268.72 181.297 268.874 181.578C269.03 181.859 269.108 182.196 269.108 182.588C269.108 183.082 268.98 183.521 268.725 183.905C268.472 184.288 268.104 184.591 267.621 184.812C267.141 185.034 266.56 185.145 265.878 185.145C265.225 185.145 264.659 185.041 264.182 184.834C263.705 184.626 263.331 184.332 263.061 183.952C262.791 183.568 262.642 183.114 262.614 182.588H263.935C263.96 182.903 264.063 183.166 264.242 183.376C264.424 183.584 264.655 183.739 264.936 183.841C265.22 183.94 265.531 183.99 265.87 183.99C266.242 183.99 266.573 183.932 266.862 183.815C267.155 183.696 267.385 183.531 267.553 183.321C267.72 183.108 267.804 182.859 267.804 182.575C267.804 182.317 267.73 182.105 267.583 181.94C267.438 181.776 267.24 181.639 266.99 181.531C266.743 181.423 266.463 181.328 266.151 181.246L265.12 180.964C264.421 180.774 263.867 180.494 263.458 180.125C263.051 179.756 262.848 179.267 262.848 178.659C262.848 178.156 262.985 177.717 263.257 177.342C263.53 176.967 263.899 176.676 264.365 176.469C264.831 176.259 265.357 176.153 265.942 176.153C266.533 176.153 267.054 176.257 267.506 176.464C267.96 176.672 268.318 176.957 268.58 177.321C268.841 177.682 268.978 178.097 268.989 178.565H267.719ZM272.484 185.145C272.069 185.145 271.694 185.068 271.359 184.915C271.024 184.759 270.758 184.533 270.562 184.237C270.369 183.942 270.273 183.58 270.273 183.151C270.273 182.781 270.344 182.477 270.486 182.239C270.628 182 270.819 181.811 271.061 181.672C271.302 181.533 271.572 181.428 271.871 181.357C272.169 181.286 272.473 181.232 272.783 181.195C273.175 181.149 273.493 181.112 273.737 181.084C273.981 181.053 274.159 181.003 274.27 180.935C274.381 180.866 274.436 180.756 274.436 180.602V180.572C274.436 180.2 274.331 179.912 274.121 179.707C273.913 179.503 273.604 179.401 273.192 179.401C272.763 179.401 272.425 179.496 272.177 179.686C271.933 179.874 271.764 180.082 271.67 180.312L270.473 180.04C270.615 179.642 270.822 179.321 271.095 179.077C271.371 178.83 271.687 178.651 272.045 178.54C272.403 178.426 272.78 178.369 273.175 178.369C273.436 178.369 273.713 178.401 274.006 178.463C274.301 178.523 274.577 178.634 274.832 178.795C275.091 178.957 275.302 179.189 275.467 179.49C275.632 179.788 275.714 180.176 275.714 180.653V185H274.47V184.105H274.419C274.337 184.27 274.213 184.432 274.048 184.591C273.883 184.75 273.672 184.882 273.413 184.987C273.155 185.092 272.845 185.145 272.484 185.145ZM272.761 184.122C273.114 184.122 273.415 184.053 273.665 183.913C273.918 183.774 274.109 183.592 274.24 183.368C274.373 183.141 274.44 182.898 274.44 182.639V181.795C274.395 181.841 274.307 181.884 274.176 181.923C274.048 181.96 273.902 181.993 273.737 182.021C273.572 182.047 273.412 182.071 273.256 182.094C273.099 182.114 272.969 182.131 272.864 182.145C272.616 182.176 272.391 182.229 272.186 182.303C271.984 182.376 271.822 182.483 271.7 182.622C271.581 182.759 271.521 182.94 271.521 183.168C271.521 183.483 271.638 183.722 271.871 183.884C272.104 184.043 272.4 184.122 272.761 184.122ZM280.467 178.455V179.477H276.892V178.455H280.467ZM277.85 176.886H279.125V183.078C279.125 183.325 279.161 183.511 279.235 183.636C279.309 183.759 279.404 183.842 279.521 183.888C279.64 183.93 279.769 183.952 279.909 183.952C280.011 183.952 280.1 183.945 280.177 183.93C280.254 183.916 280.313 183.905 280.356 183.896L280.586 184.949C280.512 184.977 280.407 185.006 280.271 185.034C280.134 185.065 279.964 185.082 279.759 185.085C279.424 185.091 279.112 185.031 278.822 184.906C278.532 184.781 278.298 184.588 278.119 184.327C277.94 184.065 277.85 183.737 277.85 183.342V176.886Z" fill="black"/>
<rect x="308" y="12" width="16" height="157" rx="4" fill="#FFD561"/>
<path opacity="0.8" d="M310.219 178.565C310.174 178.162 309.986 177.849 309.656 177.628C309.327 177.403 308.912 177.291 308.412 177.291C308.054 177.291 307.745 177.348 307.483 177.462C307.222 177.572 307.019 177.726 306.874 177.922C306.732 178.115 306.661 178.335 306.661 178.582C306.661 178.79 306.709 178.969 306.806 179.119C306.905 179.27 307.034 179.396 307.193 179.499C307.355 179.598 307.529 179.682 307.713 179.75C307.898 179.815 308.076 179.869 308.246 179.912L309.098 180.134C309.377 180.202 309.662 180.294 309.955 180.411C310.247 180.527 310.519 180.68 310.769 180.871C311.019 181.061 311.22 181.297 311.374 181.578C311.53 181.859 311.608 182.196 311.608 182.588C311.608 183.082 311.48 183.521 311.225 183.905C310.972 184.288 310.604 184.591 310.121 184.812C309.641 185.034 309.06 185.145 308.378 185.145C307.725 185.145 307.159 185.041 306.682 184.834C306.205 184.626 305.831 184.332 305.561 183.952C305.291 183.568 305.142 183.114 305.114 182.588H306.435C306.46 182.903 306.563 183.166 306.742 183.376C306.924 183.584 307.155 183.739 307.436 183.841C307.72 183.94 308.031 183.99 308.37 183.99C308.742 183.99 309.073 183.932 309.362 183.815C309.655 183.696 309.885 183.531 310.053 183.321C310.22 183.108 310.304 182.859 310.304 182.575C310.304 182.317 310.23 182.105 310.083 181.94C309.938 181.776 309.74 181.639 309.49 181.531C309.243 181.423 308.963 181.328 308.651 181.246L307.62 180.964C306.921 180.774 306.367 180.494 305.958 180.125C305.551 179.756 305.348 179.267 305.348 178.659C305.348 178.156 305.485 177.717 305.757 177.342C306.03 176.967 306.399 176.676 306.865 176.469C307.331 176.259 307.857 176.153 308.442 176.153C309.033 176.153 309.554 176.257 310.006 176.464C310.46 176.672 310.818 176.957 311.08 177.321C311.341 177.682 311.478 178.097 311.489 178.565H310.219ZM317.226 182.286V178.455H318.504V185H317.251V183.866H317.183C317.033 184.216 316.791 184.507 316.459 184.74C316.129 184.97 315.719 185.085 315.227 185.085C314.807 185.085 314.435 184.993 314.111 184.808C313.79 184.621 313.537 184.344 313.352 183.977C313.17 183.611 313.079 183.158 313.079 182.618V178.455H314.354V182.464C314.354 182.911 314.477 183.266 314.724 183.53C314.971 183.794 315.293 183.926 315.687 183.926C315.926 183.926 316.163 183.866 316.399 183.747C316.638 183.628 316.835 183.447 316.991 183.206C317.15 182.964 317.229 182.658 317.226 182.286ZM321.49 181.114V185H320.216V178.455H321.439V179.52H321.52C321.671 179.173 321.906 178.895 322.228 178.685C322.551 178.474 322.959 178.369 323.451 178.369C323.897 178.369 324.287 178.463 324.622 178.651C324.958 178.835 325.218 179.111 325.402 179.477C325.587 179.844 325.679 180.297 325.679 180.837V185H324.405V180.99C324.405 180.516 324.281 180.145 324.034 179.878C323.787 179.608 323.448 179.473 323.016 179.473C322.72 179.473 322.458 179.537 322.228 179.665C322 179.793 321.82 179.98 321.686 180.227C321.556 180.472 321.49 180.767 321.49 181.114Z" fill="black"/>
</g>
<defs>
<filter id="filter0_dd_307_36934" x="0.000244141" y="0" width="368" height="240" filterUnits="userSpaceOnUse" color-interpolation-filters="sRGB">
<feFlood flood-opacity="0" result="BackgroundImageFix"/>
<feColorMatrix in="SourceAlpha" type="matrix" values="0 0 0 0 0 0 0 0 0 0 0 0 0 0 0 0 0 0 127 0" result="hardAlpha"/>
<feMorphology radius="4" operator="erode" in="SourceAlpha" result="effect1_dropShadow_307_36934"/>
<feOffset dy="8"/>
<feGaussianBlur stdDeviation="4"/>
<feColorMatrix type="matrix" values="0 0 0 0 0.0627451 0 0 0 0 0.0941176 0 0 0 0 0.156863 0 0 0 0.03 0"/>
<feBlend mode="normal" in2="BackgroundImageFix" result="effect1_dropShadow_307_36934"/>
<feColorMatrix in="SourceAlpha" type="matrix" values="0 0 0 0 0 0 0 0 0 0 0 0 0 0 0 0 0 0 127 0" result="hardAlpha"/>
<feMorphology radius="4" operator="erode" in="SourceAlpha" result="effect2_dropShadow_307_36934"/>
<feOffset dy="20"/>
<feGaussianBlur stdDeviation="12"/>
<feColorMatrix type="matrix" values="0 0 0 0 0.0627451 0 0 0 0 0.0941176 0 0 0 0 0.156863 0 0 0 0.08 0"/>
<feBlend mode="normal" in2="effect1_dropShadow_307_36934" result="effect2_dropShadow_307_36934"/>
<feBlend mode="normal" in="SourceGraphic" in2="effect2_dropShadow_307_36934" result="shape"/>
</filter>
<clipPath id="clip0_307_36934">
<rect x="88.0002" y="12" width="16" height="157" rx="4" fill="white"/>
</clipPath>
</defs>
</svg>
