<svg width="427" height="56" viewBox="0 0 427 56" fill="none" xmlns="http://www.w3.org/2000/svg">
<rect x="6" width="36" height="36" rx="2" fill="#F3A615"/>
<path d="M26.7167 26.3333C26.6667 26.3333 26.6084 26.325 26.5584 26.3083C24.8834 25.8333 23.125 25.8333 21.45 26.3083C21.1417 26.3916 20.8167 26.2166 20.7334 25.9083C20.6417 25.6 20.825 25.275 21.1334 25.1916C23.0167 24.6583 25 24.6583 26.8834 25.1916C27.1917 25.2833 27.375 25.6 27.2834 25.9083C27.2 26.1666 26.9667 26.3333 26.7167 26.3333Z" fill="white"/>
<path d="M30.0083 13.3C29.1417 11.55 27.4667 10.2583 25.525 9.83334C23.4917 9.38334 21.4083 9.86668 19.8167 11.15C18.2167 12.425 17.3083 14.3333 17.3083 16.375C17.3083 18.5333 18.6 20.7917 20.55 22.1V22.7917C20.5417 23.025 20.5333 23.3833 20.8167 23.675C21.1083 23.975 21.5417 24.0083 21.8833 24.0083H26.1583C26.6083 24.0083 26.95 23.8833 27.1833 23.65C27.5 23.325 27.4917 22.9083 27.4833 22.6833V22.1C30.0667 20.3583 31.6917 16.6833 30.0083 13.3ZM25.4333 17.6833L24.5417 19.2333C24.425 19.4333 24.2167 19.55 24 19.55C23.8917 19.55 23.7833 19.525 23.6917 19.4667C23.3917 19.2917 23.2917 18.9083 23.4583 18.6167L24.1667 17.3833H23.4667C23.05 17.3833 22.7083 17.2 22.525 16.8917C22.3417 16.575 22.3583 16.1917 22.5667 15.825L23.4583 14.275C23.6333 13.975 24.0167 13.875 24.3083 14.0417C24.6083 14.2167 24.7083 14.6 24.5417 14.8917L23.8333 16.125H24.5333C24.95 16.125 25.2917 16.3083 25.475 16.6167C25.6583 16.9333 25.6417 17.325 25.4333 17.6833Z" fill="white"/>
<path opacity="0.8" d="M1.68 45.77V48.1H4.22V48.85H1.68V51.25H4.52V52H0.77V45.02H4.52V45.77H1.68ZM6.80695 44.6V52H5.89695V44.6H6.80695ZM13.3579 49.05C13.3579 49.2233 13.3479 49.4067 13.3279 49.6H8.94789C8.98122 50.14 9.16456 50.5633 9.49789 50.87C9.83789 51.17 10.2479 51.32 10.7279 51.32C11.1212 51.32 11.4479 51.23 11.7079 51.05C11.9746 50.8633 12.1612 50.6167 12.2679 50.31H13.2479C13.1012 50.8367 12.8079 51.2667 12.3679 51.6C11.9279 51.9267 11.3812 52.09 10.7279 52.09C10.2079 52.09 9.74122 51.9733 9.32789 51.74C8.92122 51.5067 8.60122 51.1767 8.36789 50.75C8.13456 50.3167 8.01789 49.8167 8.01789 49.25C8.01789 48.6833 8.13122 48.1867 8.35789 47.76C8.58456 47.3333 8.90122 47.0067 9.30789 46.78C9.72122 46.5467 10.1946 46.43 10.7279 46.43C11.2479 46.43 11.7079 46.5433 12.1079 46.77C12.5079 46.9967 12.8146 47.31 13.0279 47.71C13.2479 48.1033 13.3579 48.55 13.3579 49.05ZM12.4179 48.86C12.4179 48.5133 12.3412 48.2167 12.1879 47.97C12.0346 47.7167 11.8246 47.5267 11.5579 47.4C11.2979 47.2667 11.0079 47.2 10.6879 47.2C10.2279 47.2 9.83456 47.3467 9.50789 47.64C9.18789 47.9333 9.00456 48.34 8.95789 48.86H12.4179ZM14.2191 49.25C14.2191 48.6833 14.3324 48.19 14.5591 47.77C14.7857 47.3433 15.0991 47.0133 15.4991 46.78C15.9057 46.5467 16.3691 46.43 16.8891 46.43C17.5624 46.43 18.1157 46.5933 18.5491 46.92C18.9891 47.2467 19.2791 47.7 19.4191 48.28H18.4391C18.3457 47.9467 18.1624 47.6833 17.8891 47.49C17.6224 47.2967 17.2891 47.2 16.8891 47.2C16.3691 47.2 15.9491 47.38 15.6291 47.74C15.3091 48.0933 15.1491 48.5967 15.1491 49.25C15.1491 49.91 15.3091 50.42 15.6291 50.78C15.9491 51.14 16.3691 51.32 16.8891 51.32C17.2891 51.32 17.6224 51.2267 17.8891 51.04C18.1557 50.8533 18.3391 50.5867 18.4391 50.24H19.4191C19.2724 50.8 18.9791 51.25 18.5391 51.59C18.0991 51.9233 17.5491 52.09 16.8891 52.09C16.3691 52.09 15.9057 51.9733 15.4991 51.74C15.0991 51.5067 14.7857 51.1767 14.5591 50.75C14.3324 50.3233 14.2191 49.8233 14.2191 49.25ZM21.7433 47.27V50.5C21.7433 50.7667 21.7999 50.9567 21.9133 51.07C22.0266 51.1767 22.2233 51.23 22.5033 51.23H23.1733V52H22.3533C21.8466 52 21.4666 51.8833 21.2133 51.65C20.9599 51.4167 20.8333 51.0333 20.8333 50.5V47.27H20.1233V46.52H20.8333V45.14H21.7433V46.52H23.1733V47.27H21.7433ZM25.1859 47.41C25.3459 47.0967 25.5725 46.8533 25.8659 46.68C26.1659 46.5067 26.5292 46.42 26.9559 46.42V47.36H26.7159C25.6959 47.36 25.1859 47.9133 25.1859 49.02V52H24.2759V46.52H25.1859V47.41ZM28.4763 45.63C28.303 45.63 28.1563 45.57 28.0363 45.45C27.9163 45.33 27.8563 45.1833 27.8563 45.01C27.8563 44.8367 27.9163 44.69 28.0363 44.57C28.1563 44.45 28.303 44.39 28.4763 44.39C28.643 44.39 28.783 44.45 28.8963 44.57C29.0163 44.69 29.0763 44.8367 29.0763 45.01C29.0763 45.1833 29.0163 45.33 28.8963 45.45C28.783 45.57 28.643 45.63 28.4763 45.63ZM28.9163 46.52V52H28.0063V46.52H28.9163ZM30.1273 49.25C30.1273 48.6833 30.2406 48.19 30.4673 47.77C30.6939 47.3433 31.0073 47.0133 31.4073 46.78C31.8139 46.5467 32.2773 46.43 32.7973 46.43C33.4706 46.43 34.0239 46.5933 34.4573 46.92C34.8973 47.2467 35.1873 47.7 35.3273 48.28H34.3473C34.2539 47.9467 34.0706 47.6833 33.7973 47.49C33.5306 47.2967 33.1973 47.2 32.7973 47.2C32.2773 47.2 31.8573 47.38 31.5373 47.74C31.2173 48.0933 31.0573 48.5967 31.0573 49.25C31.0573 49.91 31.2173 50.42 31.5373 50.78C31.8573 51.14 32.2773 51.32 32.7973 51.32C33.1973 51.32 33.5306 51.2267 33.7973 51.04C34.0639 50.8533 34.2473 50.5867 34.3473 50.24H35.3273C35.1806 50.8 34.8873 51.25 34.4473 51.59C34.0073 51.9233 33.4573 52.09 32.7973 52.09C32.2773 52.09 31.8139 51.9733 31.4073 51.74C31.0073 51.5067 30.6939 51.1767 30.4673 50.75C30.2406 50.3233 30.1273 49.8233 30.1273 49.25ZM37.0115 45.63C36.8382 45.63 36.6915 45.57 36.5715 45.45C36.4515 45.33 36.3915 45.1833 36.3915 45.01C36.3915 44.8367 36.4515 44.69 36.5715 44.57C36.6915 44.45 36.8382 44.39 37.0115 44.39C37.1782 44.39 37.3182 44.45 37.4315 44.57C37.5515 44.69 37.6115 44.8367 37.6115 45.01C37.6115 45.1833 37.5515 45.33 37.4315 45.45C37.3182 45.57 37.1782 45.63 37.0115 45.63ZM37.4515 46.52V52H36.5415V46.52H37.4515ZM40.1124 47.27V50.5C40.1124 50.7667 40.1691 50.9567 40.2824 51.07C40.3958 51.1767 40.5924 51.23 40.8724 51.23H41.5424V52H40.7224C40.2158 52 39.8358 51.8833 39.5824 51.65C39.3291 51.4167 39.2024 51.0333 39.2024 50.5V47.27H38.4924V46.52H39.2024V45.14H40.1124V46.52H41.5424V47.27H40.1124ZM47.365 46.52L44.065 54.58H43.125L44.205 51.94L41.995 46.52H43.005L44.725 50.96L46.425 46.52H47.365Z" fill="black"/>
<rect x="84" width="36" height="36" rx="2" fill="#F3A615"/>
<path d="M105.533 9.66663H98.4667C96.1667 9.66663 95.3334 10.5 95.3334 12.8416V23.1583C95.3334 25.5 96.1667 26.3333 98.4667 26.3333H105.525C107.833 26.3333 108.667 25.5 108.667 23.1583V12.8416C108.667 10.5 107.833 9.66663 105.533 9.66663ZM102 24.0833C101.2 24.0833 100.542 23.425 100.542 22.625C100.542 21.825 101.2 21.1666 102 21.1666C102.8 21.1666 103.458 21.825 103.458 22.625C103.458 23.425 102.8 24.0833 102 24.0833ZM103.667 13.2083H100.333C99.9917 13.2083 99.7084 12.925 99.7084 12.5833C99.7084 12.2416 99.9917 11.9583 100.333 11.9583H103.667C104.008 11.9583 104.292 12.2416 104.292 12.5833C104.292 12.925 104.008 13.2083 103.667 13.2083Z" fill="white"/>
<path opacity="0.8" d="M88.89 50.45H85.85L85.29 52H84.33L86.85 45.07H87.9L90.41 52H89.45L88.89 50.45ZM88.63 49.71L87.37 46.19L86.11 49.71H88.63ZM91.9783 45.63C91.8049 45.63 91.6583 45.57 91.5383 45.45C91.4183 45.33 91.3583 45.1833 91.3583 45.01C91.3583 44.8367 91.4183 44.69 91.5383 44.57C91.6583 44.45 91.8049 44.39 91.9783 44.39C92.1449 44.39 92.2849 44.45 92.3983 44.57C92.5183 44.69 92.5783 44.8367 92.5783 45.01C92.5783 45.1833 92.5183 45.33 92.3983 45.45C92.2849 45.57 92.1449 45.63 91.9783 45.63ZM92.4183 46.52V52H91.5083V46.52H92.4183ZM94.8792 47.41C95.0392 47.0967 95.2659 46.8533 95.5592 46.68C95.8592 46.5067 96.2226 46.42 96.6492 46.42V47.36H96.4092C95.3892 47.36 94.8792 47.9133 94.8792 49.02V52H93.9692V46.52H94.8792V47.41ZM98.8097 47.27V50.5C98.8097 50.7667 98.8664 50.9567 98.9797 51.07C99.093 51.1767 99.2897 51.23 99.5697 51.23H100.24V52H99.4197C98.913 52 98.533 51.8833 98.2797 51.65C98.0264 51.4167 97.8997 51.0333 97.8997 50.5V47.27H97.1897V46.52H97.8997V45.14H98.8097V46.52H100.24V47.27H98.8097ZM101.812 45.63C101.639 45.63 101.492 45.57 101.372 45.45C101.252 45.33 101.192 45.1833 101.192 45.01C101.192 44.8367 101.252 44.69 101.372 44.57C101.492 44.45 101.639 44.39 101.812 44.39C101.979 44.39 102.119 44.45 102.232 44.57C102.352 44.69 102.412 44.8367 102.412 45.01C102.412 45.1833 102.352 45.33 102.232 45.45C102.119 45.57 101.979 45.63 101.812 45.63ZM102.252 46.52V52H101.342V46.52H102.252ZM110.393 46.42C110.82 46.42 111.2 46.51 111.533 46.69C111.867 46.8633 112.13 47.1267 112.323 47.48C112.517 47.8333 112.613 48.2633 112.613 48.77V52H111.713V48.9C111.713 48.3533 111.577 47.9367 111.303 47.65C111.037 47.3567 110.673 47.21 110.213 47.21C109.74 47.21 109.363 47.3633 109.083 47.67C108.803 47.97 108.663 48.4067 108.663 48.98V52H107.763V48.9C107.763 48.3533 107.627 47.9367 107.353 47.65C107.087 47.3567 106.723 47.21 106.263 47.21C105.79 47.21 105.413 47.3633 105.133 47.67C104.853 47.97 104.713 48.4067 104.713 48.98V52H103.803V46.52H104.713V47.31C104.893 47.0233 105.133 46.8033 105.433 46.65C105.74 46.4967 106.077 46.42 106.443 46.42C106.903 46.42 107.31 46.5233 107.663 46.73C108.017 46.9367 108.28 47.24 108.453 47.64C108.607 47.2533 108.86 46.9533 109.213 46.74C109.567 46.5267 109.96 46.42 110.393 46.42ZM119.106 49.05C119.106 49.2233 119.096 49.4067 119.076 49.6H114.696C114.729 50.14 114.913 50.5633 115.246 50.87C115.586 51.17 115.996 51.32 116.476 51.32C116.869 51.32 117.196 51.23 117.456 51.05C117.723 50.8633 117.909 50.6167 118.016 50.31H118.996C118.849 50.8367 118.556 51.2667 118.116 51.6C117.676 51.9267 117.129 52.09 116.476 52.09C115.956 52.09 115.489 51.9733 115.076 51.74C114.669 51.5067 114.349 51.1767 114.116 50.75C113.883 50.3167 113.766 49.8167 113.766 49.25C113.766 48.6833 113.879 48.1867 114.106 47.76C114.333 47.3333 114.649 47.0067 115.056 46.78C115.469 46.5467 115.943 46.43 116.476 46.43C116.996 46.43 117.456 46.5433 117.856 46.77C118.256 46.9967 118.563 47.31 118.776 47.71C118.996 48.1033 119.106 48.55 119.106 49.05ZM118.166 48.86C118.166 48.5133 118.089 48.2167 117.936 47.97C117.783 47.7167 117.573 47.5267 117.306 47.4C117.046 47.2667 116.756 47.2 116.436 47.2C115.976 47.2 115.583 47.3467 115.256 47.64C114.936 47.9333 114.753 48.34 114.706 48.86H118.166Z" fill="black"/>
<rect x="165.5" width="36" height="36" rx="2" fill="#F3A615"/>
<path d="M186.217 26.3333C186.167 26.3333 186.108 26.325 186.058 26.3083C184.383 25.8333 182.625 25.8333 180.95 26.3083C180.642 26.3916 180.317 26.2166 180.233 25.9083C180.142 25.6 180.325 25.275 180.633 25.1916C182.517 24.6583 184.5 24.6583 186.383 25.1916C186.692 25.2833 186.875 25.6 186.783 25.9083C186.7 26.1666 186.467 26.3333 186.217 26.3333Z" fill="white"/>
<path d="M189.508 13.3C188.642 11.55 186.967 10.2583 185.025 9.83334C182.992 9.38334 180.908 9.86668 179.317 11.15C177.717 12.425 176.808 14.3333 176.808 16.375C176.808 18.5333 178.1 20.7917 180.05 22.1V22.7917C180.042 23.025 180.033 23.3833 180.317 23.675C180.608 23.975 181.042 24.0083 181.383 24.0083H185.658C186.108 24.0083 186.45 23.8833 186.683 23.65C187 23.325 186.992 22.9083 186.983 22.6833V22.1C189.567 20.3583 191.192 16.6833 189.508 13.3ZM184.933 17.6833L184.042 19.2333C183.925 19.4333 183.717 19.55 183.5 19.55C183.392 19.55 183.283 19.525 183.192 19.4667C182.892 19.2917 182.792 18.9083 182.958 18.6167L183.667 17.3833H182.967C182.55 17.3833 182.208 17.2 182.025 16.8917C181.842 16.575 181.858 16.1917 182.067 15.825L182.958 14.275C183.133 13.975 183.517 13.875 183.808 14.0417C184.108 14.2167 184.208 14.6 184.042 14.8917L183.333 16.125H184.033C184.45 16.125 184.792 16.3083 184.975 16.6167C185.158 16.9333 185.142 17.325 184.933 17.6833Z" fill="white"/>
<path opacity="0.8" d="M160.44 52L158.78 49.15H157.68V52H156.77V45.03H159.02C159.547 45.03 159.99 45.12 160.35 45.3C160.717 45.48 160.99 45.7233 161.17 46.03C161.35 46.3367 161.44 46.6867 161.44 47.08C161.44 47.56 161.3 47.9833 161.02 48.35C160.747 48.7167 160.333 48.96 159.78 49.08L161.53 52H160.44ZM157.68 48.42H159.02C159.513 48.42 159.883 48.3 160.13 48.06C160.377 47.8133 160.5 47.4867 160.5 47.08C160.5 46.6667 160.377 46.3467 160.13 46.12C159.89 45.8933 159.52 45.78 159.02 45.78H157.68V48.42ZM167.854 49.05C167.854 49.2233 167.844 49.4067 167.824 49.6H163.444C163.477 50.14 163.661 50.5633 163.994 50.87C164.334 51.17 164.744 51.32 165.224 51.32C165.617 51.32 165.944 51.23 166.204 51.05C166.471 50.8633 166.657 50.6167 166.764 50.31H167.744C167.597 50.8367 167.304 51.2667 166.864 51.6C166.424 51.9267 165.877 52.09 165.224 52.09C164.704 52.09 164.237 51.9733 163.824 51.74C163.417 51.5067 163.097 51.1767 162.864 50.75C162.631 50.3167 162.514 49.8167 162.514 49.25C162.514 48.6833 162.627 48.1867 162.854 47.76C163.081 47.3333 163.397 47.0067 163.804 46.78C164.217 46.5467 164.691 46.43 165.224 46.43C165.744 46.43 166.204 46.5433 166.604 46.77C167.004 46.9967 167.311 47.31 167.524 47.71C167.744 48.1033 167.854 48.55 167.854 49.05ZM166.914 48.86C166.914 48.5133 166.837 48.2167 166.684 47.97C166.531 47.7167 166.321 47.5267 166.054 47.4C165.794 47.2667 165.504 47.2 165.184 47.2C164.724 47.2 164.331 47.3467 164.004 47.64C163.684 47.9333 163.501 48.34 163.454 48.86H166.914ZM171.285 47.27H170.135V52H169.225V47.27H168.515V46.52H169.225V46.13C169.225 45.5167 169.382 45.07 169.695 44.79C170.015 44.5033 170.525 44.36 171.225 44.36V45.12C170.825 45.12 170.542 45.2 170.375 45.36C170.215 45.5133 170.135 45.77 170.135 46.13V46.52H171.285V47.27ZM177.346 49.05C177.346 49.2233 177.336 49.4067 177.316 49.6H172.936C172.97 50.14 173.153 50.5633 173.486 50.87C173.826 51.17 174.236 51.32 174.716 51.32C175.11 51.32 175.436 51.23 175.696 51.05C175.963 50.8633 176.15 50.6167 176.256 50.31H177.236C177.09 50.8367 176.796 51.2667 176.356 51.6C175.916 51.9267 175.37 52.09 174.716 52.09C174.196 52.09 173.73 51.9733 173.316 51.74C172.91 51.5067 172.59 51.1767 172.356 50.75C172.123 50.3167 172.006 49.8167 172.006 49.25C172.006 48.6833 172.12 48.1867 172.346 47.76C172.573 47.3333 172.89 47.0067 173.296 46.78C173.71 46.5467 174.183 46.43 174.716 46.43C175.236 46.43 175.696 46.5433 176.096 46.77C176.496 46.9967 176.803 47.31 177.016 47.71C177.236 48.1033 177.346 48.55 177.346 49.05ZM176.406 48.86C176.406 48.5133 176.33 48.2167 176.176 47.97C176.023 47.7167 175.813 47.5267 175.546 47.4C175.286 47.2667 174.996 47.2 174.676 47.2C174.216 47.2 173.823 47.3467 173.496 47.64C173.176 47.9333 172.993 48.34 172.946 48.86H176.406ZM179.457 47.41C179.617 47.0967 179.844 46.8533 180.137 46.68C180.437 46.5067 180.801 46.42 181.227 46.42V47.36H180.987C179.967 47.36 179.457 47.9133 179.457 49.02V52H178.547V46.52H179.457V47.41ZM187.628 52L186.718 51.08C186.378 51.4333 186.014 51.6967 185.628 51.87C185.241 52.0367 184.804 52.12 184.318 52.12C183.838 52.12 183.411 52.0333 183.038 51.86C182.671 51.6867 182.384 51.44 182.178 51.12C181.978 50.8 181.878 50.4267 181.878 50C181.878 49.5133 182.014 49.0867 182.288 48.72C182.568 48.3467 182.978 48.0533 183.518 47.84C183.304 47.5867 183.151 47.3533 183.058 47.14C182.964 46.9267 182.918 46.6933 182.918 46.44C182.918 46.1467 182.991 45.8833 183.138 45.65C183.291 45.41 183.508 45.2233 183.788 45.09C184.068 44.9567 184.391 44.89 184.758 44.89C185.118 44.89 185.431 44.96 185.698 45.1C185.964 45.24 186.164 45.4367 186.298 45.69C186.431 45.9367 186.491 46.2133 186.478 46.52H185.568C185.574 46.2467 185.498 46.0333 185.338 45.88C185.178 45.72 184.971 45.64 184.718 45.64C184.451 45.64 184.234 45.7167 184.068 45.87C183.908 46.0167 183.828 46.2067 183.828 46.44C183.828 46.64 183.881 46.8333 183.988 47.02C184.101 47.2067 184.288 47.4367 184.548 47.71L186.628 49.8L186.808 49.52L187.488 48.38H188.468L187.648 49.8C187.534 50 187.401 50.21 187.248 50.43L188.818 52H187.628ZM184.318 51.34C184.678 51.34 185.001 51.27 185.288 51.13C185.581 50.99 185.858 50.7733 186.118 50.48L184.068 48.42C183.214 48.7467 182.788 49.2633 182.788 49.97C182.788 50.3633 182.928 50.69 183.208 50.95C183.494 51.21 183.864 51.34 184.318 51.34ZM190.58 45.77V48.1H193.12V48.85H190.58V51.25H193.42V52H189.67V45.02H193.42V45.77H190.58ZM194.457 49.24C194.457 48.68 194.571 48.19 194.797 47.77C195.024 47.3433 195.334 47.0133 195.727 46.78C196.127 46.5467 196.571 46.43 197.057 46.43C197.537 46.43 197.954 46.5333 198.307 46.74C198.661 46.9467 198.924 47.2067 199.097 47.52V46.52H200.017V52H199.097V50.98C198.917 51.3 198.647 51.5667 198.287 51.78C197.934 51.9867 197.521 52.09 197.047 52.09C196.561 52.09 196.121 51.97 195.727 51.73C195.334 51.49 195.024 51.1533 194.797 50.72C194.571 50.2867 194.457 49.7933 194.457 49.24ZM199.097 49.25C199.097 48.8367 199.014 48.4767 198.847 48.17C198.681 47.8633 198.454 47.63 198.167 47.47C197.887 47.3033 197.577 47.22 197.237 47.22C196.897 47.22 196.587 47.3 196.307 47.46C196.027 47.62 195.804 47.8533 195.637 48.16C195.471 48.4667 195.387 48.8267 195.387 49.24C195.387 49.66 195.471 50.0267 195.637 50.34C195.804 50.6467 196.027 50.8833 196.307 51.05C196.587 51.21 196.897 51.29 197.237 51.29C197.577 51.29 197.887 51.21 198.167 51.05C198.454 50.8833 198.681 50.6467 198.847 50.34C199.014 50.0267 199.097 49.6633 199.097 49.25ZM202.465 47.41C202.625 47.0967 202.852 46.8533 203.145 46.68C203.445 46.5067 203.808 46.42 204.235 46.42V47.36H203.995C202.975 47.36 202.465 47.9133 202.465 49.02V52H201.555V46.52H202.465V47.41ZM207.956 46.42C208.622 46.42 209.162 46.6233 209.576 47.03C209.989 47.43 210.196 48.01 210.196 48.77V52H209.296V48.9C209.296 48.3533 209.159 47.9367 208.886 47.65C208.612 47.3567 208.239 47.21 207.766 47.21C207.286 47.21 206.902 47.36 206.616 47.66C206.336 47.96 206.196 48.3967 206.196 48.97V52H205.286V46.52H206.196V47.3C206.376 47.02 206.619 46.8033 206.926 46.65C207.239 46.4967 207.582 46.42 207.956 46.42Z" fill="black"/>
<rect x="247" width="36" height="36" rx="2" fill="#F3A615"/>
<path d="M273.333 10.2916H256.667C256.325 10.2916 256.042 10.0083 256.042 9.66663C256.042 9.32496 256.325 9.04163 256.667 9.04163H273.333C273.675 9.04163 273.958 9.32496 273.958 9.66663C273.958 10.0083 273.675 10.2916 273.333 10.2916Z" fill="white"/>
<path d="M268.892 26.6166C268.783 26.8333 268.558 26.9583 268.333 26.9583C268.242 26.9583 268.142 26.9333 268.058 26.8916L265 25.3666L261.942 26.8916C261.858 26.9333 261.758 26.9583 261.667 26.9583C261.442 26.9583 261.217 26.8333 261.108 26.6166C260.95 26.3 261.075 25.925 261.392 25.775L264.375 24.2833V22.1666H265.625V24.2833L268.608 25.775C268.925 25.925 269.05 26.3 268.892 26.6166Z" fill="white"/>
<path d="M257.5 9.66663V19.75C257.5 21.3333 258.333 22.1666 259.917 22.1666H270.083C271.667 22.1666 272.5 21.3333 272.5 19.75V9.66663H257.5ZM269.15 15.15L266.525 17.3416C266.283 17.5416 265.975 17.625 265.683 17.575C265.383 17.525 265.125 17.3416 264.967 17.075L264.092 15.6166L261.65 17.65C261.533 17.75 261.392 17.7916 261.25 17.7916C261.075 17.7916 260.892 17.7166 260.767 17.5666C260.542 17.3 260.583 16.9083 260.85 16.6833L263.475 14.4916C263.717 14.2916 264.025 14.2083 264.317 14.2583C264.617 14.3083 264.875 14.4916 265.033 14.7583L265.908 16.2166L268.35 14.1833C268.617 13.9583 269.008 14 269.233 14.2666C269.45 14.5333 269.417 14.925 269.15 15.15Z" fill="white"/>
<path opacity="0.8" d="M255.44 45.03C256.2 45.03 256.857 45.1733 257.41 45.46C257.97 45.74 258.397 46.1433 258.69 46.67C258.99 47.1967 259.14 47.8167 259.14 48.53C259.14 49.2433 258.99 49.8633 258.69 50.39C258.397 50.91 257.97 51.31 257.41 51.59C256.857 51.8633 256.2 52 255.44 52H253.27V45.03H255.44ZM255.44 51.25C256.34 51.25 257.027 51.0133 257.5 50.54C257.973 50.06 258.21 49.39 258.21 48.53C258.21 47.6633 257.97 46.9867 257.49 46.5C257.017 46.0133 256.333 45.77 255.44 45.77H254.18V51.25H255.44ZM260 49.24C260 48.68 260.114 48.19 260.34 47.77C260.567 47.3433 260.877 47.0133 261.27 46.78C261.67 46.5467 262.114 46.43 262.6 46.43C263.08 46.43 263.497 46.5333 263.85 46.74C264.204 46.9467 264.467 47.2067 264.64 47.52V46.52H265.56V52H264.64V50.98C264.46 51.3 264.19 51.5667 263.83 51.78C263.477 51.9867 263.064 52.09 262.59 52.09C262.104 52.09 261.664 51.97 261.27 51.73C260.877 51.49 260.567 51.1533 260.34 50.72C260.114 50.2867 260 49.7933 260 49.24ZM264.64 49.25C264.64 48.8367 264.557 48.4767 264.39 48.17C264.224 47.8633 263.997 47.63 263.71 47.47C263.43 47.3033 263.12 47.22 262.78 47.22C262.44 47.22 262.13 47.3 261.85 47.46C261.57 47.62 261.347 47.8533 261.18 48.16C261.014 48.4667 260.93 48.8267 260.93 49.24C260.93 49.66 261.014 50.0267 261.18 50.34C261.347 50.6467 261.57 50.8833 261.85 51.05C262.13 51.21 262.44 51.29 262.78 51.29C263.12 51.29 263.43 51.21 263.71 51.05C263.997 50.8833 264.224 50.6467 264.39 50.34C264.557 50.0267 264.64 49.6633 264.64 49.25ZM268.208 47.27V50.5C268.208 50.7667 268.265 50.9567 268.378 51.07C268.491 51.1767 268.688 51.23 268.968 51.23H269.638V52H268.818C268.311 52 267.931 51.8833 267.678 51.65C267.425 51.4167 267.298 51.0333 267.298 50.5V47.27H266.588V46.52H267.298V45.14H268.208V46.52H269.638V47.27H268.208ZM270.401 49.24C270.401 48.68 270.514 48.19 270.741 47.77C270.967 47.3433 271.277 47.0133 271.671 46.78C272.071 46.5467 272.514 46.43 273.001 46.43C273.481 46.43 273.897 46.5333 274.251 46.74C274.604 46.9467 274.867 47.2067 275.041 47.52V46.52H275.961V52H275.041V50.98C274.861 51.3 274.591 51.5667 274.231 51.78C273.877 51.9867 273.464 52.09 272.991 52.09C272.504 52.09 272.064 51.97 271.671 51.73C271.277 51.49 270.967 51.1533 270.741 50.72C270.514 50.2867 270.401 49.7933 270.401 49.24ZM275.041 49.25C275.041 48.8367 274.957 48.4767 274.791 48.17C274.624 47.8633 274.397 47.63 274.111 47.47C273.831 47.3033 273.521 47.22 273.181 47.22C272.841 47.22 272.531 47.3 272.251 47.46C271.971 47.62 271.747 47.8533 271.581 48.16C271.414 48.4667 271.331 48.8267 271.331 49.24C271.331 49.66 271.414 50.0267 271.581 50.34C271.747 50.6467 271.971 50.8833 272.251 51.05C272.531 51.21 272.841 51.29 273.181 51.29C273.521 51.29 273.831 51.21 274.111 51.05C274.397 50.8833 274.624 50.6467 274.791 50.34C274.957 50.0267 275.041 49.6633 275.041 49.25Z" fill="black"/>
<rect x="319" width="36" height="36" rx="2" fill="#F3A615"/>
<path d="M345.333 10.2916H328.667C328.325 10.2916 328.042 10.0083 328.042 9.66663C328.042 9.32496 328.325 9.04163 328.667 9.04163H345.333C345.675 9.04163 345.958 9.32496 345.958 9.66663C345.958 10.0083 345.675 10.2916 345.333 10.2916Z" fill="white"/>
<path d="M340.892 26.6166C340.783 26.8333 340.558 26.9583 340.333 26.9583C340.242 26.9583 340.142 26.9333 340.058 26.8916L337 25.3666L333.942 26.8916C333.858 26.9333 333.758 26.9583 333.667 26.9583C333.442 26.9583 333.217 26.8333 333.108 26.6166C332.95 26.3 333.075 25.925 333.392 25.775L336.375 24.2833V22.1666H337.625V24.2833L340.608 25.775C340.925 25.925 341.05 26.3 340.892 26.6166Z" fill="white"/>
<path d="M329.5 9.66663V19.75C329.5 21.3333 330.333 22.1666 331.917 22.1666H342.083C343.667 22.1666 344.5 21.3333 344.5 19.75V9.66663H329.5ZM341.15 15.15L338.525 17.3416C338.283 17.5416 337.975 17.625 337.683 17.575C337.383 17.525 337.125 17.3416 336.967 17.075L336.092 15.6166L333.65 17.65C333.533 17.75 333.392 17.7916 333.25 17.7916C333.075 17.7916 332.892 17.7166 332.767 17.5666C332.542 17.3 332.583 16.9083 332.85 16.6833L335.475 14.4916C335.717 14.2916 336.025 14.2083 336.317 14.2583C336.617 14.3083 336.875 14.4916 337.033 14.7583L337.908 16.2166L340.35 14.1833C340.617 13.9583 341.008 14 341.233 14.2666C341.45 14.5333 341.417 14.925 341.15 15.15Z" fill="white"/>
<path opacity="0.8" d="M327.44 45.03C328.2 45.03 328.857 45.1733 329.41 45.46C329.97 45.74 330.397 46.1433 330.69 46.67C330.99 47.1967 331.14 47.8167 331.14 48.53C331.14 49.2433 330.99 49.8633 330.69 50.39C330.397 50.91 329.97 51.31 329.41 51.59C328.857 51.8633 328.2 52 327.44 52H325.27V45.03H327.44ZM327.44 51.25C328.34 51.25 329.027 51.0133 329.5 50.54C329.973 50.06 330.21 49.39 330.21 48.53C330.21 47.6633 329.97 46.9867 329.49 46.5C329.017 46.0133 328.333 45.77 327.44 45.77H326.18V51.25H327.44ZM332 49.24C332 48.68 332.114 48.19 332.34 47.77C332.567 47.3433 332.877 47.0133 333.27 46.78C333.67 46.5467 334.114 46.43 334.6 46.43C335.08 46.43 335.497 46.5333 335.85 46.74C336.204 46.9467 336.467 47.2067 336.64 47.52V46.52H337.56V52H336.64V50.98C336.46 51.3 336.19 51.5667 335.83 51.78C335.477 51.9867 335.064 52.09 334.59 52.09C334.104 52.09 333.664 51.97 333.27 51.73C332.877 51.49 332.567 51.1533 332.34 50.72C332.114 50.2867 332 49.7933 332 49.24ZM336.64 49.25C336.64 48.8367 336.557 48.4767 336.39 48.17C336.224 47.8633 335.997 47.63 335.71 47.47C335.43 47.3033 335.12 47.22 334.78 47.22C334.44 47.22 334.13 47.3 333.85 47.46C333.57 47.62 333.347 47.8533 333.18 48.16C333.014 48.4667 332.93 48.8267 332.93 49.24C332.93 49.66 333.014 50.0267 333.18 50.34C333.347 50.6467 333.57 50.8833 333.85 51.05C334.13 51.21 334.44 51.29 334.78 51.29C335.12 51.29 335.43 51.21 335.71 51.05C335.997 50.8833 336.224 50.6467 336.39 50.34C336.557 50.0267 336.64 49.6633 336.64 49.25ZM340.208 47.27V50.5C340.208 50.7667 340.265 50.9567 340.378 51.07C340.491 51.1767 340.688 51.23 340.968 51.23H341.638V52H340.818C340.311 52 339.931 51.8833 339.678 51.65C339.425 51.4167 339.298 51.0333 339.298 50.5V47.27H338.588V46.52H339.298V45.14H340.208V46.52H341.638V47.27H340.208ZM342.401 49.24C342.401 48.68 342.514 48.19 342.741 47.77C342.967 47.3433 343.277 47.0133 343.671 46.78C344.071 46.5467 344.514 46.43 345.001 46.43C345.481 46.43 345.897 46.5333 346.251 46.74C346.604 46.9467 346.867 47.2067 347.041 47.52V46.52H347.961V52H347.041V50.98C346.861 51.3 346.591 51.5667 346.231 51.78C345.877 51.9867 345.464 52.09 344.991 52.09C344.504 52.09 344.064 51.97 343.671 51.73C343.277 51.49 342.967 51.1533 342.741 50.72C342.514 50.2867 342.401 49.7933 342.401 49.24ZM347.041 49.25C347.041 48.8367 346.957 48.4767 346.791 48.17C346.624 47.8633 346.397 47.63 346.111 47.47C345.831 47.3033 345.521 47.22 345.181 47.22C344.841 47.22 344.531 47.3 344.251 47.46C343.971 47.62 343.747 47.8533 343.581 48.16C343.414 48.4667 343.331 48.8267 343.331 49.24C343.331 49.66 343.414 50.0267 343.581 50.34C343.747 50.6467 343.971 50.8833 344.251 51.05C344.531 51.21 344.841 51.29 345.181 51.29C345.521 51.29 345.831 51.21 346.111 51.05C346.397 50.8833 346.624 50.6467 346.791 50.34C346.957 50.0267 347.041 49.6633 347.041 49.25Z" fill="black"/>
<rect x="391" width="36" height="36" rx="2" fill="#F3A615"/>
<path d="M413.617 15.3417C414.979 15.3417 416.083 14.2373 416.083 12.875C416.083 11.5127 414.979 10.4083 413.617 10.4083C412.254 10.4083 411.15 11.5127 411.15 12.875C411.15 14.2373 412.254 15.3417 413.617 15.3417Z" fill="white"/>
<path d="M404.383 15.3417C405.746 15.3417 406.85 14.2373 406.85 12.875C406.85 11.5127 405.746 10.4083 404.383 10.4083C403.021 10.4083 401.917 11.5127 401.917 12.875C401.917 14.2373 403.021 15.3417 404.383 15.3417Z" fill="white"/>
<path d="M413.617 25.5917C414.979 25.5917 416.083 24.4873 416.083 23.125C416.083 21.7627 414.979 20.6583 413.617 20.6583C412.254 20.6583 411.15 21.7627 411.15 23.125C411.15 24.4873 412.254 25.5917 413.617 25.5917Z" fill="white"/>
<path d="M404.383 25.5917C405.746 25.5917 406.85 24.4873 406.85 23.125C406.85 21.7627 405.746 20.6583 404.383 20.6583C403.021 20.6583 401.917 21.7627 401.917 23.125C401.917 24.4873 403.021 25.5917 404.383 25.5917Z" fill="white"/>
<path opacity="0.8" d="M404.34 45.08V52H403.43V46.84L401.13 52H400.49L398.18 46.83V52H397.27V45.08H398.25L400.81 50.8L403.37 45.08H404.34ZM408.273 52.09C407.76 52.09 407.293 51.9733 406.873 51.74C406.46 51.5067 406.133 51.1767 405.893 50.75C405.66 50.3167 405.543 49.8167 405.543 49.25C405.543 48.69 405.663 48.1967 405.903 47.77C406.15 47.3367 406.483 47.0067 406.903 46.78C407.323 46.5467 407.793 46.43 408.313 46.43C408.833 46.43 409.303 46.5467 409.723 46.78C410.143 47.0067 410.473 47.3333 410.713 47.76C410.96 48.1867 411.083 48.6833 411.083 49.25C411.083 49.8167 410.957 50.3167 410.703 50.75C410.457 51.1767 410.12 51.5067 409.693 51.74C409.267 51.9733 408.793 52.09 408.273 52.09ZM408.273 51.29C408.6 51.29 408.907 51.2133 409.193 51.06C409.48 50.9067 409.71 50.6767 409.883 50.37C410.063 50.0633 410.153 49.69 410.153 49.25C410.153 48.81 410.067 48.4367 409.893 48.13C409.72 47.8233 409.493 47.5967 409.213 47.45C408.933 47.2967 408.63 47.22 408.303 47.22C407.97 47.22 407.663 47.2967 407.383 47.45C407.11 47.5967 406.89 47.8233 406.723 48.13C406.557 48.4367 406.473 48.81 406.473 49.25C406.473 49.6967 406.553 50.0733 406.713 50.38C406.88 50.6867 407.1 50.9167 407.373 51.07C407.647 51.2167 407.947 51.29 408.273 51.29ZM413.19 47.41C413.35 47.0967 413.576 46.8533 413.87 46.68C414.17 46.5067 414.533 46.42 414.96 46.42V47.36H414.72C413.7 47.36 413.19 47.9133 413.19 49.02V52H412.28V46.52H413.19V47.41ZM421.01 49.05C421.01 49.2233 421 49.4067 420.98 49.6H416.6C416.634 50.14 416.817 50.5633 417.15 50.87C417.49 51.17 417.9 51.32 418.38 51.32C418.774 51.32 419.1 51.23 419.36 51.05C419.627 50.8633 419.814 50.6167 419.92 50.31H420.9C420.754 50.8367 420.46 51.2667 420.02 51.6C419.58 51.9267 419.034 52.09 418.38 52.09C417.86 52.09 417.394 51.9733 416.98 51.74C416.574 51.5067 416.254 51.1767 416.02 50.75C415.787 50.3167 415.67 49.8167 415.67 49.25C415.67 48.6833 415.784 48.1867 416.01 47.76C416.237 47.3333 416.554 47.0067 416.96 46.78C417.374 46.5467 417.847 46.43 418.38 46.43C418.9 46.43 419.36 46.5433 419.76 46.77C420.16 46.9967 420.467 47.31 420.68 47.71C420.9 48.1033 421.01 48.55 421.01 49.05ZM420.07 48.86C420.07 48.5133 419.994 48.2167 419.84 47.97C419.687 47.7167 419.477 47.5267 419.21 47.4C418.95 47.2667 418.66 47.2 418.34 47.2C417.88 47.2 417.487 47.3467 417.16 47.64C416.84 47.9333 416.657 48.34 416.61 48.86H420.07Z" fill="black"/>
</svg>
