<svg width="421" height="64" viewBox="0 0 421 64" fill="none" xmlns="http://www.w3.org/2000/svg">
<rect x="0.6" y="0.1" width="419.8" height="63.8" rx="9.9" fill="white"/>
<rect x="17" y="10" width="180" height="44" rx="3.82779" fill="#F3A615"/>
<path d="M89.625 28.3079C89.5644 27.77 89.3144 27.3534 88.875 27.0579C88.4356 26.7587 87.8826 26.609 87.2159 26.609C86.7386 26.609 86.3258 26.6848 85.9773 26.8363C85.6288 26.984 85.358 27.1886 85.1648 27.45C84.9754 27.7075 84.8807 28.0011 84.8807 28.3306C84.8807 28.6071 84.9451 28.8458 85.0739 29.0465C85.2064 29.2473 85.3788 29.4159 85.5909 29.5522C85.8068 29.6848 86.0379 29.7965 86.2841 29.8875C86.5303 29.9746 86.767 30.0465 86.9943 30.1034L88.1307 30.3988C88.5019 30.4897 88.8826 30.6128 89.2727 30.7681C89.6629 30.9234 90.0246 31.128 90.358 31.3818C90.6913 31.6356 90.9602 31.95 91.1648 32.325C91.3731 32.7 91.4773 33.1488 91.4773 33.6715C91.4773 34.3306 91.3068 34.9159 90.9659 35.4272C90.6288 35.9386 90.1383 36.342 89.4943 36.6375C88.8542 36.9329 88.0795 37.0806 87.1705 37.0806C86.2992 37.0806 85.5455 36.9424 84.9091 36.6659C84.2727 36.3893 83.7746 35.9973 83.4148 35.4897C83.0549 34.9784 82.8561 34.3723 82.8182 33.6715H84.5795C84.6136 34.092 84.75 34.4424 84.9886 34.7227C85.2311 34.9992 85.5398 35.2056 85.9148 35.342C86.2936 35.4746 86.7083 35.5409 87.1591 35.5409C87.6553 35.5409 88.0966 35.4632 88.483 35.3079C88.8731 35.1488 89.1799 34.9291 89.4034 34.6488C89.6269 34.3647 89.7386 34.0333 89.7386 33.6545C89.7386 33.3098 89.6402 33.0276 89.4432 32.8079C89.25 32.5882 88.9867 32.4064 88.6534 32.2625C88.3239 32.1185 87.9508 31.9916 87.5341 31.8818L86.1591 31.5068C85.2273 31.253 84.4886 30.8799 83.9432 30.3875C83.4015 29.895 83.1307 29.2435 83.1307 28.4329C83.1307 27.7625 83.3125 27.1772 83.6761 26.6772C84.0398 26.1772 84.5322 25.789 85.1534 25.5125C85.7746 25.2321 86.4754 25.092 87.2557 25.092C88.0436 25.092 88.7386 25.2303 89.3409 25.5068C89.947 25.7833 90.4242 26.164 90.7727 26.6488C91.1212 27.1299 91.303 27.6829 91.3182 28.3079H89.625ZM97.1151 37.0636C96.2969 37.0636 95.5829 36.8761 94.973 36.5011C94.3632 36.1261 93.8897 35.6015 93.5526 34.9272C93.2154 34.253 93.0469 33.4651 93.0469 32.5636C93.0469 31.6583 93.2154 30.8666 93.5526 30.1886C93.8897 29.5106 94.3632 28.984 94.973 28.609C95.5829 28.234 96.2969 28.0465 97.1151 28.0465C97.9332 28.0465 98.6473 28.234 99.2571 28.609C99.867 28.984 100.34 29.5106 100.678 30.1886C101.015 30.8666 101.183 31.6583 101.183 32.5636C101.183 33.4651 101.015 34.253 100.678 34.9272C100.34 35.6015 99.867 36.1261 99.2571 36.5011C98.6473 36.8761 97.9332 37.0636 97.1151 37.0636ZM97.1207 35.6375C97.651 35.6375 98.0904 35.4973 98.4389 35.217C98.7874 34.9367 99.045 34.5636 99.2116 34.0977C99.3821 33.6318 99.4673 33.1185 99.4673 32.5579C99.4673 32.0011 99.3821 31.4897 99.2116 31.0238C99.045 30.5541 98.7874 30.1772 98.4389 29.8931C98.0904 29.609 97.651 29.467 97.1207 29.467C96.5866 29.467 96.1435 29.609 95.7912 29.8931C95.4427 30.1772 95.1832 30.5541 95.0128 31.0238C94.8461 31.4897 94.7628 32.0011 94.7628 32.5579C94.7628 33.1185 94.8461 33.6318 95.0128 34.0977C95.1832 34.5636 95.4427 34.9367 95.7912 35.217C96.1435 35.4973 96.5866 35.6375 97.1207 35.6375ZM104.778 25.2511V36.8875H103.08V25.2511H104.778ZM109.604 37.0806C109.051 37.0806 108.551 36.9784 108.104 36.7738C107.657 36.5655 107.303 36.2643 107.041 35.8704C106.784 35.4765 106.655 34.9935 106.655 34.4215C106.655 33.9291 106.75 33.5238 106.939 33.2056C107.128 32.8875 107.384 32.6356 107.706 32.45C108.028 32.2643 108.388 32.1242 108.786 32.0295C109.183 31.9348 109.589 31.8628 110.001 31.8136C110.524 31.753 110.948 31.7037 111.274 31.6659C111.6 31.6242 111.837 31.5579 111.984 31.467C112.132 31.3761 112.206 31.2284 112.206 31.0238V30.984C112.206 30.4878 112.066 30.1034 111.786 29.8306C111.509 29.5579 111.096 29.4215 110.547 29.4215C109.975 29.4215 109.524 29.5484 109.195 29.8022C108.869 30.0522 108.643 30.3306 108.518 30.6375L106.922 30.2738C107.111 29.7435 107.388 29.3155 107.751 28.9897C108.119 28.6602 108.541 28.4215 109.018 28.2738C109.496 28.1223 109.998 28.0465 110.524 28.0465C110.873 28.0465 111.242 28.0882 111.632 28.1715C112.026 28.2511 112.393 28.3988 112.734 28.6147C113.079 28.8306 113.361 29.1393 113.581 29.5409C113.801 29.9386 113.911 30.4556 113.911 31.092V36.8875H112.251V35.6943H112.183C112.073 35.914 111.909 36.1299 111.689 36.342C111.469 36.5541 111.187 36.7303 110.842 36.8704C110.498 37.0106 110.085 37.0806 109.604 37.0806ZM109.973 35.717C110.443 35.717 110.844 35.6242 111.178 35.4386C111.515 35.253 111.77 35.0106 111.945 34.7113C112.123 34.4083 112.212 34.0844 112.212 33.7397V32.6147C112.151 32.6753 112.034 32.7321 111.859 32.7852C111.689 32.8344 111.494 32.878 111.274 32.9159C111.054 32.95 110.84 32.9821 110.632 33.0125C110.424 33.039 110.25 33.0617 110.109 33.0806C109.78 33.1223 109.479 33.1924 109.206 33.2909C108.937 33.3893 108.721 33.5314 108.558 33.717C108.399 33.8988 108.32 34.1412 108.32 34.4443C108.32 34.8647 108.475 35.1829 108.786 35.3988C109.096 35.6109 109.492 35.717 109.973 35.717ZM117.514 28.1602L119.44 31.5579L121.384 28.1602H123.241L120.52 32.5238L123.264 36.8875H121.406L119.44 33.6261L117.48 36.8875H115.616L118.332 32.5238L115.651 28.1602H117.514ZM126.06 40.1602C125.806 40.1602 125.575 40.1393 125.366 40.0977C125.158 40.0598 125.003 40.0181 124.901 39.9727L125.31 38.5806C125.62 38.664 125.897 38.7 126.139 38.6886C126.382 38.6772 126.596 38.5863 126.781 38.4159C126.971 38.2454 127.137 37.967 127.281 37.5806L127.491 37.0011L124.298 28.1602H126.116L128.327 34.9329H128.418L130.628 28.1602H132.452L128.855 38.0522C128.688 38.5068 128.476 38.8912 128.219 39.2056C127.961 39.5238 127.654 39.7625 127.298 39.9215C126.942 40.0806 126.529 40.1602 126.06 40.1602Z" fill="white"/>
<path d="M300.778 37.5V25.8636H307.994V27.375H302.534V30.9205H307.477V32.4261H302.534V37.5H300.778ZM310.017 37.5V28.7727H311.716V37.5H310.017ZM310.875 27.4261C310.58 27.4261 310.326 27.3277 310.114 27.1307C309.905 26.9299 309.801 26.6913 309.801 26.4148C309.801 26.1345 309.905 25.8958 310.114 25.6989C310.326 25.4981 310.58 25.3977 310.875 25.3977C311.17 25.3977 311.422 25.4981 311.631 25.6989C311.843 25.8958 311.949 26.1345 311.949 26.4148C311.949 26.6913 311.843 26.9299 311.631 27.1307C311.422 27.3277 311.17 27.4261 310.875 27.4261ZM316.541 37.6932C315.988 37.6932 315.488 37.5909 315.041 37.3864C314.594 37.178 314.24 36.8769 313.979 36.483C313.721 36.089 313.592 35.6061 313.592 35.0341C313.592 34.5417 313.687 34.1364 313.876 33.8182C314.066 33.5 314.321 33.2481 314.643 33.0625C314.965 32.8769 315.325 32.7367 315.723 32.642C316.121 32.5473 316.526 32.4754 316.939 32.4261C317.462 32.3655 317.886 32.3163 318.212 32.2784C318.537 32.2367 318.774 32.1705 318.922 32.0795C319.07 31.9886 319.143 31.8409 319.143 31.6364V31.5966C319.143 31.1004 319.003 30.7159 318.723 30.4432C318.446 30.1705 318.034 30.0341 317.484 30.0341C316.912 30.0341 316.462 30.161 316.132 30.4148C315.806 30.6648 315.581 30.9432 315.456 31.25L313.859 30.8864C314.049 30.3561 314.325 29.928 314.689 29.6023C315.056 29.2727 315.479 29.0341 315.956 28.8864C316.433 28.7348 316.935 28.6591 317.462 28.6591C317.81 28.6591 318.179 28.7008 318.57 28.7841C318.964 28.8636 319.331 29.0114 319.672 29.2273C320.017 29.4432 320.299 29.7519 320.518 30.1534C320.738 30.5511 320.848 31.0682 320.848 31.7045V37.5H319.189V36.3068H319.121C319.011 36.5265 318.846 36.7424 318.626 36.9545C318.407 37.1667 318.125 37.3428 317.78 37.483C317.435 37.6231 317.022 37.6932 316.541 37.6932ZM316.911 36.3295C317.38 36.3295 317.782 36.2367 318.115 36.0511C318.452 35.8655 318.708 35.6231 318.882 35.3239C319.06 35.0208 319.149 34.697 319.149 34.3523V33.2273C319.089 33.2879 318.971 33.3447 318.797 33.3977C318.626 33.447 318.431 33.4905 318.212 33.5284C317.992 33.5625 317.778 33.5947 317.57 33.625C317.361 33.6515 317.187 33.6742 317.047 33.6932C316.717 33.7348 316.416 33.8049 316.143 33.9034C315.875 34.0019 315.659 34.1439 315.496 34.3295C315.337 34.5114 315.257 34.7538 315.257 35.0568C315.257 35.4773 315.412 35.7955 315.723 36.0114C316.034 36.2235 316.429 36.3295 316.911 36.3295ZM327.185 28.7727V30.1364H322.418V28.7727H327.185ZM323.696 26.6818H325.395V34.9375C325.395 35.267 325.444 35.5152 325.543 35.6818C325.641 35.8447 325.768 35.9564 325.923 36.017C326.082 36.0739 326.255 36.1023 326.44 36.1023C326.577 36.1023 326.696 36.0928 326.798 36.0739C326.901 36.0549 326.98 36.0398 327.037 36.0284L327.344 37.4318C327.245 37.4697 327.105 37.5076 326.923 37.5455C326.741 37.5871 326.514 37.6098 326.241 37.6136C325.795 37.6212 325.378 37.5417 324.991 37.375C324.605 37.2083 324.293 36.9508 324.054 36.6023C323.815 36.2538 323.696 35.8163 323.696 35.2898V26.6818Z" fill="#2F2F30"/>
<rect x="0.6" y="0.1" width="419.8" height="63.8" rx="9.9" stroke="#F3A615" stroke-width="0.2"/>
</svg>
