<svg width="218" height="56" viewBox="0 0 218 56" fill="none" xmlns="http://www.w3.org/2000/svg">
<path d="M59.2145 18.1758V0.721235H61.848V8.30646H70.5497V0.721235H73.1918V18.1758H70.5497V10.565H61.848V18.1758H59.2145ZM76.8224 18.1758V5.08487H79.3707V18.1758H76.8224ZM78.1094 3.06499C77.6662 3.06499 77.2855 2.91726 76.9673 2.6218C76.6548 2.32067 76.4986 1.96271 76.4986 1.54794C76.4986 1.12749 76.6548 0.769531 76.9673 0.474076C77.2855 0.17294 77.6662 0.0223718 78.1094 0.0223718C78.5526 0.0223718 78.9304 0.17294 79.2429 0.474076C79.5611 0.769531 79.7202 1.12749 79.7202 1.54794C79.7202 1.96271 79.5611 2.32067 79.2429 2.6218C78.9304 2.91726 78.5526 3.06499 78.1094 3.06499ZM86.0121 0.721235L85.7905 13.1559H83.4297L83.2081 0.721235H86.0121ZM84.6143 18.3377C84.1428 18.3377 83.7393 18.1729 83.4041 17.8434C83.0689 17.5082 82.9041 17.1048 82.9098 16.6332C82.9041 16.1673 83.0689 15.7695 83.4041 15.44C83.7393 15.1048 84.1428 14.9371 84.6143 14.9371C85.0746 14.9371 85.4723 15.1048 85.8075 15.44C86.1428 15.7695 86.3132 16.1673 86.3189 16.6332C86.3132 16.9457 86.2308 17.2326 86.0717 17.494C85.9183 17.7496 85.7138 17.9542 85.4581 18.1076C85.2024 18.261 84.9212 18.3377 84.6143 18.3377ZM110.907 6.39737H108.248C108.146 5.82919 107.955 5.32919 107.677 4.89737C107.398 4.46555 107.058 4.09908 106.654 3.79794C106.251 3.4968 105.799 3.26953 105.299 3.11612C104.805 2.96271 104.279 2.88601 103.722 2.88601C102.717 2.88601 101.816 3.13885 101.021 3.64453C100.231 4.15021 99.6058 4.89169 99.1456 5.86896C98.6911 6.84624 98.4638 8.03942 98.4638 9.44851C98.4638 10.869 98.6911 12.0678 99.1456 13.0451C99.6058 14.0224 100.234 14.761 101.029 15.261C101.825 15.761 102.719 16.011 103.714 16.011C104.265 16.011 104.788 15.9371 105.282 15.7894C105.782 15.636 106.234 15.4116 106.637 15.1161C107.04 14.8207 107.381 14.4599 107.66 14.0337C107.944 13.6019 108.14 13.1076 108.248 12.5508L110.907 12.5593C110.765 13.4173 110.489 14.207 110.08 14.9286C109.677 15.6445 109.157 16.2638 108.521 16.7866C107.89 17.3036 107.168 17.7042 106.356 17.9883C105.543 18.2724 104.657 18.4144 103.697 18.4144C102.185 18.4144 100.839 18.0565 99.657 17.3406C98.4751 16.619 97.5433 15.5877 96.8615 14.2468C96.1854 12.9059 95.8473 11.3065 95.8473 9.44851C95.8473 7.58487 96.1882 5.98544 96.87 4.65021C97.5518 3.3093 98.4837 2.28089 99.6655 1.56499C100.847 0.843394 102.191 0.482599 103.697 0.482599C104.623 0.482599 105.487 0.616122 106.288 0.883168C107.094 1.14453 107.819 1.53089 108.461 2.04226C109.103 2.54794 109.634 3.16726 110.055 3.90021C110.475 4.62749 110.759 5.45987 110.907 6.39737ZM116.402 10.4031V18.1758H113.854V0.721235H116.368V7.21555H116.53C116.837 6.51101 117.305 5.95135 117.936 5.53658C118.567 5.1218 119.391 4.91442 120.408 4.91442C121.305 4.91442 122.089 5.09908 122.76 5.46839C123.436 5.83771 123.959 6.38885 124.328 7.1218C124.703 7.84908 124.891 8.75817 124.891 9.84908V18.1758H122.342V10.1559C122.342 9.19567 122.095 8.45135 121.601 7.92294C121.107 7.38885 120.419 7.1218 119.538 7.1218C118.936 7.1218 118.396 7.24964 117.919 7.50533C117.447 7.76101 117.075 8.13601 116.803 8.63033C116.536 9.11896 116.402 9.70987 116.402 10.4031ZM128.291 18.1758V5.08487H130.754V7.16442H130.891C131.129 6.45987 131.55 5.90589 132.152 5.50249C132.76 5.09339 133.447 4.88885 134.214 4.88885C134.374 4.88885 134.561 4.89453 134.777 4.90589C134.999 4.91726 135.172 4.93146 135.297 4.94851V7.38601C135.195 7.3576 135.013 7.32635 134.751 7.29226C134.49 7.25249 134.229 7.2326 133.967 7.2326C133.365 7.2326 132.828 7.36044 132.357 7.61612C131.891 7.86612 131.521 8.21555 131.249 8.66442C130.976 9.1076 130.839 9.61328 130.839 10.1815V18.1758H128.291ZM137.502 18.1758V5.08487H140.05V18.1758H137.502ZM138.789 3.06499C138.346 3.06499 137.965 2.91726 137.647 2.6218C137.335 2.32067 137.178 1.96271 137.178 1.54794C137.178 1.12749 137.335 0.769531 137.647 0.474076C137.965 0.17294 138.346 0.0223718 138.789 0.0223718C139.232 0.0223718 139.61 0.17294 139.923 0.474076C140.241 0.769531 140.4 1.12749 140.4 1.54794C140.4 1.96271 140.241 2.32067 139.923 2.6218C139.61 2.91726 139.232 3.06499 138.789 3.06499ZM153.288 8.28089L150.979 8.68999C150.882 8.39453 150.729 8.11328 150.518 7.84624C150.314 7.57919 150.036 7.36044 149.683 7.18999C149.331 7.01953 148.891 6.9343 148.362 6.9343C147.641 6.9343 147.038 7.09624 146.555 7.4201C146.072 7.73828 145.831 8.15021 145.831 8.65589C145.831 9.09339 145.993 9.44567 146.317 9.71271C146.641 9.97976 147.163 10.1985 147.885 10.369L149.964 10.8462C151.169 11.1246 152.067 11.5536 152.658 12.1332C153.249 12.7127 153.544 13.4656 153.544 14.3917C153.544 15.1758 153.317 15.8746 152.862 16.4883C152.413 17.0962 151.786 17.5735 150.979 17.9201C150.178 18.2667 149.249 18.44 148.192 18.44C146.726 18.44 145.53 18.1275 144.604 17.5025C143.678 16.8718 143.109 15.9769 142.899 14.8178L145.362 14.4428C145.516 15.0849 145.831 15.5707 146.308 15.9002C146.786 16.2241 147.408 16.386 148.175 16.386C149.01 16.386 149.678 16.2127 150.178 15.8661C150.678 15.5138 150.928 15.0849 150.928 14.5792C150.928 14.1701 150.774 13.8263 150.467 13.5479C150.166 13.2695 149.703 13.0593 149.078 12.9173L146.862 12.4315C145.641 12.1531 144.737 11.7099 144.152 11.1019C143.572 10.494 143.283 9.72408 143.283 8.79226C143.283 8.01953 143.499 7.34339 143.93 6.76385C144.362 6.1843 144.959 5.7326 145.72 5.40874C146.482 5.07919 147.354 4.91442 148.337 4.91442C149.751 4.91442 150.865 5.22124 151.678 5.83487C152.49 6.44283 153.027 7.25817 153.288 8.28089ZM5.51491 50.1758L0.674006 32.7212H3.44389L6.84446 46.2383H7.00639L10.5433 32.7212H13.2876L16.8246 46.2468H16.9865L20.3786 32.7212H23.157L18.3075 50.1758H15.657L11.9837 37.1019H11.8473L8.17401 50.1758H5.51491ZM29.7067 50.44C28.4169 50.44 27.3061 50.1644 26.3743 49.6133C25.4482 49.0565 24.7322 48.2752 24.2266 47.2695C23.7266 46.2582 23.4766 45.0735 23.4766 43.7156C23.4766 42.3746 23.7266 41.1928 24.2266 40.1701C24.7322 39.1474 25.4368 38.3491 26.3402 37.7752C27.2493 37.2013 28.3118 36.9144 29.5277 36.9144C30.2663 36.9144 30.9822 37.0366 31.6754 37.2809C32.3686 37.5252 32.9908 37.9087 33.5419 38.4315C34.093 38.9542 34.5277 39.6332 34.8459 40.4684C35.1641 41.2979 35.3232 42.3065 35.3232 43.494V44.3974H24.9169V42.4883H32.826C32.826 41.8178 32.6896 41.2241 32.4169 40.707C32.1442 40.1843 31.7607 39.7724 31.2663 39.4712C30.7777 39.1701 30.2038 39.0195 29.5447 39.0195C28.8288 39.0195 28.2038 39.1957 27.6697 39.5479C27.1413 39.8945 26.7322 40.3491 26.4425 40.9116C26.1584 41.4684 26.0163 42.0735 26.0163 42.7269V44.2184C26.0163 45.0934 26.1697 45.8377 26.4766 46.4513C26.7891 47.065 27.2237 47.5337 27.7805 47.8576C28.3374 48.1758 28.9879 48.3349 29.7322 48.3349C30.2152 48.3349 30.6555 48.2667 31.0533 48.1303C31.451 47.9883 31.7947 47.7781 32.0845 47.4996C32.3743 47.2212 32.5959 46.8775 32.7493 46.4684L35.1612 46.9031C34.968 47.6133 34.6214 48.2354 34.1214 48.7695C33.6271 49.2979 33.005 49.7099 32.255 50.0053C31.5107 50.2951 30.6612 50.44 29.7067 50.44ZM40.6989 32.7212V50.1758H38.1506V32.7212H40.6989ZM49.6413 50.44C48.3743 50.44 47.2834 50.1531 46.3686 49.5792C45.4595 48.9996 44.7607 48.2013 44.272 47.1843C43.7834 46.1673 43.5391 45.0025 43.5391 43.69C43.5391 42.3604 43.7891 41.1871 44.2891 40.1701C44.7891 39.1474 45.4936 38.3491 46.4027 37.7752C47.3118 37.2013 48.3828 36.9144 49.6158 36.9144C50.6101 36.9144 51.4964 37.0991 52.2749 37.4684C53.0533 37.832 53.6811 38.3434 54.1584 39.0025C54.6413 39.6616 54.9283 40.4315 55.0192 41.3121H52.5391C52.4027 40.6985 52.0902 40.1701 51.6016 39.7269C51.1186 39.2837 50.4709 39.0621 49.6584 39.0621C48.9482 39.0621 48.326 39.2496 47.7919 39.6246C47.2635 39.994 46.8516 40.5224 46.5561 41.2099C46.2607 41.8917 46.1129 42.6985 46.1129 43.6303C46.1129 44.5849 46.2578 45.4087 46.5476 46.1019C46.8374 46.7951 47.2464 47.332 47.7749 47.7127C48.3089 48.0934 48.9368 48.2837 49.6584 48.2837C50.1413 48.2837 50.5788 48.1957 50.9709 48.0195C51.3686 47.8377 51.701 47.5792 51.968 47.244C52.2408 46.9087 52.4311 46.5053 52.5391 46.0337H55.0192C54.9283 46.8803 54.6527 47.636 54.1925 48.3008C53.7322 48.9656 53.1158 49.4883 52.343 49.869C51.576 50.2496 50.6754 50.44 49.6413 50.44ZM63.2585 50.44C62.0313 50.44 60.9602 50.1587 60.0455 49.5962C59.1307 49.0337 58.4205 48.2468 57.9148 47.2354C57.4091 46.2241 57.1562 45.0423 57.1562 43.69C57.1562 42.332 57.4091 41.1445 57.9148 40.1275C58.4205 39.1104 59.1307 38.3207 60.0455 37.7582C60.9602 37.1957 62.0313 36.9144 63.2585 36.9144C64.4858 36.9144 65.5568 37.1957 66.4716 37.7582C67.3864 38.3207 68.0966 39.1104 68.6023 40.1275C69.108 41.1445 69.3608 42.332 69.3608 43.69C69.3608 45.0423 69.108 46.2241 68.6023 47.2354C68.0966 48.2468 67.3864 49.0337 66.4716 49.5962C65.5568 50.1587 64.4858 50.44 63.2585 50.44ZM63.267 48.3008C64.0625 48.3008 64.7216 48.0906 65.2443 47.6701C65.767 47.2496 66.1534 46.69 66.4034 45.9911C66.6591 45.2923 66.7869 44.5224 66.7869 43.6815C66.7869 42.8462 66.6591 42.0792 66.4034 41.3803C66.1534 40.6758 65.767 40.1104 65.2443 39.6843C64.7216 39.2582 64.0625 39.0451 63.267 39.0451C62.4659 39.0451 61.8011 39.2582 61.2727 39.6843C60.75 40.1104 60.3608 40.6758 60.1051 41.3803C59.8551 42.0792 59.7301 42.8462 59.7301 43.6815C59.7301 44.5224 59.8551 45.2923 60.1051 45.9911C60.3608 46.69 60.75 47.2496 61.2727 47.6701C61.8011 48.0906 62.4659 48.3008 63.267 48.3008ZM72.2053 50.1758V37.0849H74.6513V39.2156H74.8132C75.0859 38.494 75.532 37.9315 76.1513 37.5281C76.7706 37.119 77.5121 36.9144 78.3757 36.9144C79.2507 36.9144 79.9837 37.119 80.5746 37.5281C81.1712 37.9371 81.6115 38.4996 81.8956 39.2156H82.032C82.3445 38.5167 82.8416 37.9599 83.5234 37.5451C84.2053 37.1246 85.0178 36.9144 85.9609 36.9144C87.1484 36.9144 88.1172 37.2866 88.8672 38.0309C89.6229 38.7752 90.0007 39.8974 90.0007 41.3974V50.1758H87.4524V41.636C87.4524 40.7496 87.2109 40.1076 86.728 39.7099C86.245 39.3121 85.6683 39.1133 84.9979 39.1133C84.1683 39.1133 83.5234 39.369 83.0632 39.8803C82.603 40.386 82.3729 41.0366 82.3729 41.832V50.1758H79.8331V41.4741C79.8331 40.7638 79.6115 40.1928 79.1683 39.761C78.7251 39.3292 78.1484 39.1133 77.4382 39.1133C76.9553 39.1133 76.5092 39.2411 76.1001 39.4968C75.6967 39.7468 75.37 40.0962 75.12 40.5451C74.8757 40.994 74.7536 41.5138 74.7536 42.1048V50.1758H72.2053ZM99.0582 50.44C97.7685 50.44 96.6577 50.1644 95.7259 49.6133C94.7997 49.0565 94.0838 48.2752 93.5781 47.2695C93.0781 46.2582 92.8281 45.0735 92.8281 43.7156C92.8281 42.3746 93.0781 41.1928 93.5781 40.1701C94.0838 39.1474 94.7884 38.3491 95.6918 37.7752C96.6009 37.2013 97.6634 36.9144 98.8793 36.9144C99.6179 36.9144 100.334 37.0366 101.027 37.2809C101.72 37.5252 102.342 37.9087 102.893 38.4315C103.445 38.9542 103.879 39.6332 104.197 40.4684C104.516 41.2979 104.675 42.3065 104.675 43.494V44.3974H94.2685V42.4883H102.178C102.178 41.8178 102.041 41.2241 101.768 40.707C101.496 40.1843 101.112 39.7724 100.618 39.4712C100.129 39.1701 99.5554 39.0195 98.8963 39.0195C98.1804 39.0195 97.5554 39.1957 97.0213 39.5479C96.4929 39.8945 96.0838 40.3491 95.794 40.9116C95.5099 41.4684 95.3679 42.0735 95.3679 42.7269V44.2184C95.3679 45.0934 95.5213 45.8377 95.8281 46.4513C96.1406 47.065 96.5753 47.5337 97.1321 47.8576C97.6889 48.1758 98.3395 48.3349 99.0838 48.3349C99.5668 48.3349 100.007 48.2667 100.405 48.1303C100.803 47.9883 101.146 47.7781 101.436 47.4996C101.726 47.2212 101.947 46.8775 102.101 46.4684L104.513 46.9031C104.32 47.6133 103.973 48.2354 103.473 48.7695C102.979 49.2979 102.357 49.7099 101.607 50.0053C100.862 50.2951 100.013 50.44 99.0582 50.44ZM119.964 37.0849V39.1303H112.814V37.0849H119.964ZM114.732 33.9485H117.28V46.332C117.28 46.8263 117.354 47.1985 117.501 47.4485C117.649 47.6928 117.839 47.8604 118.072 47.9513C118.311 48.0366 118.57 48.0792 118.848 48.0792C119.053 48.0792 119.232 48.065 119.385 48.0366C119.538 48.0082 119.658 47.9854 119.743 47.9684L120.203 50.0735C120.055 50.1303 119.845 50.1871 119.572 50.244C119.3 50.3065 118.959 50.3406 118.55 50.3462C117.879 50.3576 117.254 50.2383 116.675 49.9883C116.095 49.7383 115.626 49.3519 115.268 48.8292C114.911 48.3065 114.732 47.6502 114.732 46.8604V33.9485ZM128.157 50.44C126.93 50.44 125.859 50.1587 124.944 49.5962C124.029 49.0337 123.319 48.2468 122.813 47.2354C122.308 46.2241 122.055 45.0423 122.055 43.69C122.055 42.332 122.308 41.1445 122.813 40.1275C123.319 39.1104 124.029 38.3207 124.944 37.7582C125.859 37.1957 126.93 36.9144 128.157 36.9144C129.384 36.9144 130.455 37.1957 131.37 37.7582C132.285 38.3207 132.995 39.1104 133.501 40.1275C134.006 41.1445 134.259 42.332 134.259 43.69C134.259 45.0423 134.006 46.2241 133.501 47.2354C132.995 48.2468 132.285 49.0337 131.37 49.5962C130.455 50.1587 129.384 50.44 128.157 50.44ZM128.165 48.3008C128.961 48.3008 129.62 48.0906 130.143 47.6701C130.665 47.2496 131.052 46.69 131.302 45.9911C131.558 45.2923 131.685 44.5224 131.685 43.6815C131.685 42.8462 131.558 42.0792 131.302 41.3803C131.052 40.6758 130.665 40.1104 130.143 39.6843C129.62 39.2582 128.961 39.0451 128.165 39.0451C127.364 39.0451 126.7 39.2582 126.171 39.6843C125.648 40.1104 125.259 40.6758 125.004 41.3803C124.754 42.0792 124.629 42.8462 124.629 43.6815C124.629 44.5224 124.754 45.2923 125.004 45.9911C125.259 46.69 125.648 47.2496 126.171 47.6701C126.7 48.0906 127.364 48.3008 128.165 48.3008ZM153.18 37.3065C153.089 36.4996 152.714 35.8746 152.055 35.4315C151.396 34.9826 150.566 34.7582 149.566 34.7582C148.85 34.7582 148.231 34.8718 147.708 35.0991C147.185 35.3207 146.779 35.6275 146.489 36.0195C146.205 36.4059 146.063 36.8462 146.063 37.3406C146.063 37.7553 146.16 38.1133 146.353 38.4144C146.552 38.7156 146.81 38.9684 147.129 39.1729C147.452 39.3718 147.799 39.5394 148.168 39.6758C148.538 39.8065 148.893 39.9144 149.234 39.9996L150.938 40.4428C151.495 40.5792 152.066 40.7638 152.651 40.9968C153.237 41.2298 153.779 41.5366 154.279 41.9173C154.779 42.2979 155.183 42.7695 155.489 43.332C155.802 43.8945 155.958 44.5678 155.958 45.3519C155.958 46.3406 155.702 47.2184 155.191 47.9854C154.685 48.7525 153.95 49.3576 152.984 49.8008C152.023 50.244 150.862 50.4656 149.498 50.4656C148.191 50.4656 147.06 50.2582 146.106 49.8434C145.151 49.4286 144.404 48.8406 143.864 48.0792C143.325 47.3121 143.026 46.4031 142.969 45.3519H145.612C145.663 45.9826 145.867 46.5082 146.225 46.9286C146.589 47.3434 147.052 47.6531 147.614 47.8576C148.183 48.0565 148.805 48.1559 149.481 48.1559C150.225 48.1559 150.887 48.0394 151.467 47.8065C152.052 47.5678 152.512 47.2383 152.847 46.8178C153.183 46.3917 153.35 45.8945 153.35 45.3263C153.35 44.8093 153.202 44.386 152.907 44.0565C152.617 43.7269 152.222 43.4542 151.722 43.2383C151.228 43.0224 150.668 42.832 150.043 42.6673L147.981 42.1048C146.583 41.7241 145.475 41.1644 144.657 40.4258C143.844 39.6871 143.438 38.7099 143.438 37.494C143.438 36.4883 143.711 35.6104 144.256 34.8604C144.802 34.1104 145.54 33.5281 146.472 33.1133C147.404 32.6928 148.455 32.4826 149.626 32.4826C150.808 32.4826 151.85 32.69 152.754 33.1048C153.663 33.5195 154.379 34.0906 154.901 34.8178C155.424 35.5394 155.697 36.369 155.719 37.3065H153.18ZM164.415 50.44C163.188 50.44 162.116 50.1587 161.202 49.5962C160.287 49.0337 159.577 48.2468 159.071 47.2354C158.565 46.2241 158.312 45.0423 158.312 43.69C158.312 42.332 158.565 41.1445 159.071 40.1275C159.577 39.1104 160.287 38.3207 161.202 37.7582C162.116 37.1957 163.188 36.9144 164.415 36.9144C165.642 36.9144 166.713 37.1957 167.628 37.7582C168.543 38.3207 169.253 39.1104 169.759 40.1275C170.264 41.1445 170.517 42.332 170.517 43.69C170.517 45.0423 170.264 46.2241 169.759 47.2354C169.253 48.2468 168.543 49.0337 167.628 49.5962C166.713 50.1587 165.642 50.44 164.415 50.44ZM164.423 48.3008C165.219 48.3008 165.878 48.0906 166.401 47.6701C166.923 47.2496 167.31 46.69 167.56 45.9911C167.815 45.2923 167.943 44.5224 167.943 43.6815C167.943 42.8462 167.815 42.0792 167.56 41.3803C167.31 40.6758 166.923 40.1104 166.401 39.6843C165.878 39.2582 165.219 39.0451 164.423 39.0451C163.622 39.0451 162.957 39.2582 162.429 39.6843C161.906 40.1104 161.517 40.6758 161.261 41.3803C161.011 42.0792 160.886 42.8462 160.886 43.6815C160.886 44.5224 161.011 45.2923 161.261 45.9911C161.517 46.69 161.906 47.2496 162.429 47.6701C162.957 48.0906 163.622 48.3008 164.423 48.3008ZM175.91 32.7212V50.1758H173.362V32.7212H175.91ZM183.148 50.4656C182.318 50.4656 181.568 50.3121 180.898 50.0053C180.227 49.6928 179.696 49.2411 179.304 48.6502C178.918 48.0593 178.724 47.3349 178.724 46.4769C178.724 45.7383 178.866 45.1303 179.151 44.6531C179.435 44.1758 179.818 43.7979 180.301 43.5195C180.784 43.2411 181.324 43.0309 181.92 42.8888C182.517 42.7468 183.125 42.6388 183.744 42.565C184.528 42.4741 185.165 42.4002 185.653 42.3434C186.142 42.2809 186.497 42.1815 186.719 42.0451C186.94 41.9087 187.051 41.6871 187.051 41.3803V41.3207C187.051 40.5763 186.841 39.9996 186.42 39.5906C186.006 39.1815 185.386 38.9769 184.562 38.9769C183.705 38.9769 183.028 39.1673 182.534 39.5479C182.045 39.9229 181.707 40.3406 181.52 40.8008L179.125 40.2553C179.409 39.4599 179.824 38.8178 180.369 38.3292C180.92 37.8349 181.554 37.4769 182.27 37.2553C182.986 37.0281 183.739 36.9144 184.528 36.9144C185.051 36.9144 185.605 36.9769 186.19 37.1019C186.781 37.2212 187.332 37.4428 187.844 37.7667C188.361 38.0906 188.784 38.5536 189.114 39.1559C189.443 39.7525 189.608 40.5281 189.608 41.4826V50.1758H187.119V48.386H187.017C186.852 48.7156 186.605 49.0394 186.276 49.3576C185.946 49.6758 185.523 49.94 185.006 50.1502C184.489 50.3604 183.869 50.4656 183.148 50.4656ZM183.702 48.4201C184.406 48.4201 185.009 48.2809 185.509 48.0025C186.014 47.7241 186.398 47.3604 186.659 46.9116C186.926 46.457 187.06 45.9712 187.06 45.4542V43.7667C186.969 43.8576 186.793 43.9428 186.531 44.0224C186.276 44.0962 185.983 44.1616 185.653 44.2184C185.324 44.2695 185.003 44.3178 184.69 44.3633C184.378 44.4031 184.116 44.4371 183.906 44.4656C183.412 44.5281 182.96 44.6332 182.551 44.7809C182.148 44.9286 181.824 45.1417 181.58 45.4201C181.341 45.6928 181.222 46.0565 181.222 46.511C181.222 47.1417 181.455 47.619 181.92 47.9428C182.386 48.261 182.98 48.4201 183.702 48.4201ZM195.013 37.0849L197.903 42.1815L200.817 37.0849H203.604L199.522 43.6303L203.638 50.1758H200.852L197.903 45.2837L194.962 50.1758H192.167L196.241 43.6303L192.218 37.0849H195.013ZM207.832 55.0849C207.451 55.0849 207.104 55.0536 206.792 54.9911C206.479 54.9343 206.246 54.8718 206.093 54.8036L206.707 52.7156C207.173 52.8406 207.587 52.8945 207.951 52.8775C208.315 52.8604 208.636 52.7241 208.914 52.4684C209.198 52.2127 209.448 51.7951 209.664 51.2156L209.979 50.3462L205.19 37.0849H207.917L211.232 47.244H211.369L214.684 37.0849H217.42L212.025 51.9229C211.775 52.6048 211.457 53.1815 211.07 53.6531C210.684 54.1303 210.224 54.4883 209.69 54.7269C209.156 54.9656 208.536 55.0849 207.832 55.0849Z" fill="#1E1E1E"/>
</svg>
